<svg xmlns="http://www.w3.org/2000/svg" xmlns:xlink="http://www.w3.org/1999/xlink" fill="none" version="1.1" width="200" height="104" viewBox="0 0 200 104"><g><g><path d="M57.7,37.504Q58.384,37.504,58.834,37.972Q59.284,38.44,59.284,39.088L59.284,62.956Q59.284,65.908,56.656,67.20400000000001Q54.028,68.5,51.724000000000004,68.932L51.256,65.836Q52.804,65.584,54.46,64.774Q56.116,63.964,56.116,62.956L56.116,58.132000000000005L39.988,58.132000000000005L39.988,58.348Q40.024,61.336,38.53,64.018Q37.036,66.7,34.588,68.644L33.652,67.348L32.716,66.088Q34.588,64.576,35.74,62.56Q36.891999999999996,60.544,36.856,58.348L36.856,39.088Q36.856,38.44,37.306,37.972Q37.756,37.504,38.44,37.504L57.7,37.504ZM39.988,40.635999999999996L39.988,46.252L56.116,46.252L56.116,40.635999999999996L39.988,40.635999999999996ZM56.116,54.964L56.116,49.384L39.988,49.384L39.988,54.964L56.116,54.964ZM88.94800000000001,49.024Q92.548,57.844,98.452,61.984L96.652,64.576Q92.188,61.444,88.94800000000001,56.08L88.94800000000001,63.928Q88.94800000000001,65.62,87.904,66.75399999999999Q86.86,67.888,85.384,68.428Q83.908,68.968,82.50399999999999,69.076L82.288,65.908Q82.432,65.872,83.404,65.72800000000001Q84.376,65.584,85.024,65.116Q85.672,64.648,85.816,63.928L85.816,57.196Q84.376,59.104,82.612,60.724000000000004Q80.848,62.344,78.47200000000001,64.18L76.672,61.623999999999995Q78.94,59.824,80.632,58.257999999999996Q82.324,56.692,83.62,54.891999999999996L85.816,56.476L85.816,45.352000000000004L77.572,45.352000000000004L77.572,42.184L85.816,42.184L85.816,37.647999999999996L88.94800000000001,37.647999999999996L88.94800000000001,42.184L92.656,42.184L91.108,38.512L94.06,37.288L95.68,41.32L93.484,42.184L98.272,42.184L98.272,45.352000000000004L88.94800000000001,45.352000000000004L88.94800000000001,49.024ZM72.712,62.308Q74.00800000000001,61.732,75.124,61.084L76.744,63.748000000000005Q71.99199999999999,66.592,65.97999999999999,67.564L65.512,64.432Q67.456,64.108,69.58,63.495999999999995L69.58,52.912L66.05199999999999,52.912L66.05199999999999,49.78L69.58,49.78L69.58,42.724000000000004L66.05199999999999,42.724000000000004L66.05199999999999,39.556L76.27600000000001,39.556L76.27600000000001,42.724000000000004L72.712,42.724000000000004L72.712,49.78L75.952,49.78L75.952,52.912L72.712,52.912L72.712,62.308ZM90.856,52.156L94.78,46.54L97.372,48.304L93.484,53.956L90.856,52.156ZM83.368,52.948L80.38,53.992000000000004L78.22,47.62L81.208,46.612L83.368,52.948ZM133.44400000000002,48.16L108.604,48.16L108.604,61.012Q108.604,63.604,107.326,65.962Q106.048,68.32,103.96,70.048L102.016,67.564Q103.564,66.268,104.518,64.55799999999999Q105.472,62.848,105.472,61.012L105.472,46.576Q105.472,45.928,105.922,45.46Q106.372,44.992000000000004,107.02,44.992000000000004L119.08,44.992000000000004L122.356,42.256L110.476,42.256Q107.2,44.668,102.916,45.928L102.052,42.868Q105.112,41.968,107.686,40.312Q110.26,38.656,112.096,36.316L114.724,38.044Q113.86,39.124,113.86,39.124L126.1,39.124Q126.784,39.124,127.234,39.592Q127.684,40.06,127.684,40.708L127.684,41.248Q127.684,41.572,127.522,41.896Q127.36,42.22,127.108,42.436L124.012,44.992000000000004L133.44400000000002,44.992000000000004L133.44400000000002,48.16ZM133.94799999999998,65.62Q132.57999999999998,67.096,130.708,67.97800000000001Q128.836,68.86,126.892,68.824L117.892,68.824Q116.056,68.824,114.814,67.96000000000001Q113.572,67.096,112.978,65.836Q112.384,64.576,112.348,63.352000000000004L112.348,52.444Q112.348,51.796,112.798,51.346000000000004Q113.248,50.896,113.932,50.896L128.404,50.896Q129.05200000000002,50.896,129.502,51.346000000000004Q129.952,51.796,129.952,52.444L129.952,56.763999999999996Q129.952,58.744,128.764,59.986000000000004Q127.576,61.228,125.92,61.75Q124.264,62.272,122.752,62.308L122.716,59.176Q124.408,59.032,125.542,58.546Q126.676,58.06,126.784,56.763999999999996L126.784,54.028L115.516,54.028L115.516,63.316Q115.516,64.036,116.02,64.846Q116.524,65.656,117.892,65.656L126.892,65.656Q128.188,65.656,129.394,65.116Q130.6,64.576,131.5,63.64L133.94799999999998,65.62ZM146.00799999999998,52.516L146.00799999999998,69.03999999999999L142.876,69.03999999999999L142.876,44.632L138.05200000000002,44.632L138.05200000000002,41.5L142.876,41.5L142.876,37.216L146.00799999999998,37.216L146.00799999999998,41.5L149.536,41.5L149.536,44.632L146.00799999999998,44.632L146.00799999999998,46.072L147.16,45.712L150.436,56.224000000000004L147.44799999999998,57.123999999999995L146.00799999999998,52.516ZM170.56,64.468Q170.344,65.69200000000001,169.408,66.88Q168.472,68.068,166.816,68.212L164.764,68.28399999999999Q162.784,68.28399999999999,161.794,67.042Q160.804,65.8,160.732,64.288L160.732,41.356L154.9,41.356L154.9,57.519999999999996Q154.864,60.760000000000005,153.334,63.730000000000004Q151.804,66.7,149.284,69.184L147.16,66.80799999999999Q149.212,64.792,150.47199999999998,62.416Q151.732,60.04,151.768,57.519999999999996L151.768,39.772Q151.768,39.124,152.21800000000002,38.674Q152.668,38.224000000000004,153.352,38.224000000000004L162.316,38.224000000000004Q162.964,38.224000000000004,163.432,38.674Q163.9,39.124,163.9,39.772L163.9,64.288Q163.936,64.792,164.188,64.936Q164.44,65.08,164.764,65.08L166.24,65.08Q166.708,65.116,167.05,64.756Q167.392,64.396,167.464,63.928L170.56,64.468ZM137.44,66.916Q138.232,62.128,138.55599999999998,57.268Q138.88,52.408,139.06,46.18L142.192,46.216Q142.048,52.444,141.70600000000002,57.574Q141.364,62.704,140.536,67.49199999999999L137.44,66.916Z" fill="#000000" fill-opacity="1"/></g></g></svg>