<svg xmlns="http://www.w3.org/2000/svg" xmlns:xlink="http://www.w3.org/1999/xlink" fill="none" version="1.1" width="200" height="104" viewBox="0 0 200 104"><g><g></g><g><path d="M27.28516,34.441406L31.3457,34.441406L31.3457,49.752L36.9355,49.752L36.9355,34.441406L40.9961,34.441406L40.9961,69.0703L36.9355,69.0703L36.9355,53.7598L31.3457,53.7598L31.3457,69.0703L27.28516,69.0703L27.28516,34.441406ZM58.8203,57.011700000000005L60.4375,69.0703L56.3066,69.0703L55.3047,61.4941L49.099599999999995,61.4941L48.0801,69.0703L43.9844,69.0703L45.5664,57.082L49.1348,34.441406L55.2695,34.441406L58.8203,57.011700000000005ZM54.7773,57.4863L52.1934,37.92188L49.6094,57.4863L54.7773,57.4863ZM63.4258,34.441406L67.5918,34.441406L73.46289999999999,59.314499999999995L73.46289999999999,34.494141L77.13669999999999,34.494141L77.13669999999999,69.0703L72.9707,69.0703L67.293,44.8125L67.293,69.0703L63.4258,69.0703L63.4258,34.441406ZM95.0664,62.701Q95.0664,69.65039999999999,88.21090000000001,69.65039999999999Q81.3555,69.65039999999999,81.3555,62.689499999999995L81.3555,40.82227Q81.3555,33.878906,88.21090000000001,33.878906Q95.0664,33.878906,95.0664,40.82227L95.0664,45.0938L91.0059,45.0938L91.0059,40.82227Q91.0059,37.88672,88.2285,37.88672L88.1934,37.88672Q85.416,37.88672,85.416,40.83792L85.416,62.6914Q85.416,65.6426,88.21090000000001,65.6426Q91.0059,65.6426,91.0059,62.689499999999995L91.0059,53.7598L88.4043,53.7598L88.4043,49.752L95.0664,49.752L95.0664,62.701ZM119.043,36.91992L111.8887,65.0801L119.3594,65.0801L119.3594,69.0703L107.3359,69.0703L107.3359,66.5918L114.4902,38.43164L107.5645,38.43164L107.5645,34.441406L119.043,34.441406L119.043,36.91992ZM123.0508,34.441406L127.111,34.441406L127.111,49.752L132.701,49.752L132.701,34.441406L136.762,34.441406L136.762,69.0703L132.701,69.0703L132.701,53.7598L127.111,53.7598L127.111,69.0703L123.0508,69.0703L123.0508,34.441406ZM154.691,62.7037Q154.691,69.65039999999999,147.836,69.65039999999999Q140.98000000000002,69.65039999999999,140.98000000000002,62.689499999999995L140.98000000000002,40.82227Q140.98000000000002,33.878906,147.836,33.878906Q154.691,33.878906,154.691,40.82584L154.691,62.7037ZM150.631,40.82227Q150.631,37.88672,147.85399999999998,37.88672L147.81799999999998,37.88672Q145.041,37.88672,145.041,40.83792L145.041,62.6914Q145.041,65.6426,147.836,65.6426Q150.631,65.6426,150.631,62.689499999999995L150.631,40.82227ZM172.445,62.685900000000004Q172.445,69.65039999999999,165.59,69.65039999999999Q158.734,69.65039999999999,158.734,62.6719L158.734,34.423828L162.795,34.423828L162.795,62.6719Q162.795,65.6426,165.59,65.6426Q168.385,65.6426,168.385,62.6719L168.385,34.423828L172.445,34.423828L172.445,62.685900000000004Z" fill="#000000" fill-opacity="1"/></g></g></svg>