<svg xmlns="http://www.w3.org/2000/svg" xmlns:xlink="http://www.w3.org/1999/xlink" fill="none" version="1.1" width="200" height="104" viewBox="0 0 200 104"><g><g><path d="M64.396,39.744Q64.576,39.528,64.95400000000001,39.564Q65.332,39.6,65.656,39.888Q66.05199999999999,40.176,66.77199999999999,41.544Q67.312,42.66,67.852,43.182Q68.392,43.704,70.19200000000001,44.928Q74.152,47.592,75.52,48.708Q76.888,49.824,77.032,50.436Q77.104,50.760000000000005,76.996,50.94Q76.888,51.120000000000005,76.42,51.623999999999995Q75.664,52.344,75.304,52.488Q74.872,52.632000000000005,73.936,52.596000000000004Q73,52.56,72.208,52.344Q71.2,52.056,69.706,52.218Q68.212,52.379999999999995,68.068,52.596000000000004Q67.744,53.208,67.20400000000001,60.480000000000004Q67.096,61.704,66.77199999999999,62.117999999999995Q66.44800000000001,62.532,66.196,63.072Q65.872,63.72,65.224,64.548Q64.576,65.376,64.288,65.44800000000001Q63.424,65.664,63.316,65.16Q63.28,64.908,63.568,63.864000000000004Q64,62.46,64.144,56.016Q64.18,54.216,64.054,53.784Q63.928,53.352000000000004,63.388000000000005,53.424Q62.632000000000005,53.568,61.192,54.018Q59.752,54.468,59.14,54.756Q58.312,55.188,57.376,55.44Q55.684,55.944,54.82,56.7Q54.352000000000004,57.132000000000005,53.434,57.114000000000004Q52.516,57.096000000000004,51.688,56.628Q51.22,56.34,50.428,56.141999999999996Q49.636,55.944,49.096000000000004,55.367999999999995Q48.232,54.432,48.736,54.036Q48.952,53.856,52.246,52.848Q55.54,51.84,56.296,51.552Q58.096000000000004,50.867999999999995,59.608000000000004,50.616Q60.58,50.436,61.21,50.238Q61.84,50.04,62.812,49.769999999999996Q63.784,49.5,63.928,49.176Q64.072,48.924,64,47.718Q63.928,46.512,63.748000000000005,45.792Q63.316,44.208,63.891999999999996,41.544Q64.252,39.924,64.396,39.744ZM68.572,45.288Q67.924,44.496,67.744,44.64Q67.564,44.784,67.672,45.972Q67.816,48.06,68.248,48.6Q68.536,48.924,69.292,48.653999999999996Q70.048,48.384,70.048,47.952Q70.048,47.664,69.562,46.8Q69.076,45.936,68.572,45.288ZM85.27600000000001,52.632000000000005Q85.384,52.488,85.6,52.488Q85.924,52.488,86.75200000000001,52.794Q87.58,53.1,87.976,53.352000000000004Q88.51599999999999,53.712,89.092,54.108000000000004Q89.524,54.396,89.97399999999999,55.188Q90.424,55.980000000000004,91.50399999999999,58.356Q91.828,59.076,91.792,59.238Q91.756,59.4,91.25200000000001,59.4Q89.92,59.4,88.51599999999999,57.852000000000004Q87.436,56.628,86.26599999999999,54.774Q85.096,52.92,85.27600000000001,52.632000000000005ZM101.71000000000001,45.342Q102.628,45.252,102.718,45.162Q102.80799999999999,45.072,105.49000000000001,45.144Q108.172,45.216,109.25200000000001,45.576Q110.008,45.828,110.836,46.278Q111.664,46.728,111.808,47.016Q111.916,47.196,112.708,48.024Q113.5,48.852000000000004,113.788,49.554Q114.076,50.256,114.076,51.263999999999996Q114.076,51.948,114.022,52.182Q113.968,52.416,113.752,52.56Q113.392,52.775999999999996,112.744,52.775999999999996Q111.628,52.775999999999996,110.656,53.856Q110.08,54.468,109.774,54.468Q109.468,54.468,109.468,54.611999999999995Q109.468,54.864000000000004,108.982,55.332Q108.49600000000001,55.8,108.02799999999999,56.016Q107.344,56.34,107.182,56.646Q107.02000000000001,56.952,106.786,56.952Q106.55199999999999,56.952,106.588,57.635999999999996Q106.624,58.068,106.75,58.302Q106.876,58.536,107.27199999999999,58.86L107.848,59.4L107.344,59.4Q106.804,59.436,106.26400000000001,59.472Q105.544,59.544,98.128,59.760000000000005L95.104,59.867999999999995L94.27600000000001,59.436Q93.916,59.256,93.7,59.094Q93.48400000000001,58.932,93.48400000000001,58.86Q93.556,58.716,94.348,58.464Q94.99600000000001,58.248000000000005,95.896,57.924Q96.79599999999999,57.6,97.444,57.312Q98.092,57.024,98.056,56.988Q97.98400000000001,56.879999999999995,97.12,56.412Q96.364,56.016,95.392,55.025999999999996Q94.42,54.036,93.952,53.135999999999996Q93.7,52.668,93.48400000000001,52.488Q93.268,52.308,92.72800000000001,52.128Q91.9,51.876000000000005,91.432,51.876000000000005Q91.072,51.912,90.388,51.641999999999996Q89.70400000000001,51.372,89.30799999999999,51.084Q89.02000000000001,50.867999999999995,89.218,50.58Q89.416,50.292,90.532,49.284Q91.792,48.168,92.25999999999999,48.168Q92.72800000000001,48.168,93.538,47.808Q94.348,47.448,94.816,47.34Q95.28399999999999,47.232,96.184,46.872Q98.23599999999999,46.116,100.50399999999999,45.504Q100.792,45.432,101.71000000000001,45.342ZM108.568,48.168Q108.172,47.988,106.444,47.916L104.71600000000001,47.844L104.788,48.924Q104.86,49.68,104.824,49.914Q104.788,50.147999999999996,104.608,50.4Q103.924,51.156,102.952,53.82Q102.232,55.8,102.196,55.980000000000004Q102.05199999999999,56.34,103.78,56.304L104.608,56.268L105.544,55.116Q106.47999999999999,53.964,107.128,53.208Q107.668,52.56,108.49600000000001,51.03Q109.324,49.5,109.324,49.14Q109.324,48.6,108.568,48.168ZM100.936,49.248Q100.936,48.888,100.72,48.852000000000004Q100.50399999999999,48.816,99.424,49.356Q98.344,49.896,98.27199999999999,50.04Q98.23599999999999,50.184,98.02000000000001,50.184Q97.732,50.184,97.282,50.544Q96.832,50.903999999999996,96.72399999999999,51.228Q96.58,51.588,96.652,52.038Q96.72399999999999,52.488,96.922,52.488Q97.12,52.488,97.408,51.804Q97.47999999999999,51.588,97.55199999999999,51.444Q97.624,51.3,97.678,51.228Q97.732,51.156,97.768,51.156Q97.84,51.263999999999996,97.822,52.236000000000004Q97.804,53.208,97.98400000000001,53.658Q98.164,54.108000000000004,98.25399999999999,55.367999999999995Q98.344,56.628,98.488,56.736000000000004Q98.56,56.808,98.77600000000001,56.61Q98.99199999999999,56.412,99.172,56.141999999999996Q99.352,55.872,99.352,55.692Q99.352,55.44,99.64,54.756Q100.072,53.748000000000005,100.50399999999999,51.912Q100.936,50.076,100.936,49.248ZM129.664,36.612Q129.736,36.432,129.988,36.378Q130.24,36.324,131.14,36.324Q132.50799999999998,36.324,132.598,36.486Q132.688,36.648,132.94,36.648Q133.228,36.648,134.038,37.08Q134.848,37.512,135.136,37.836Q135.56799999999998,38.268,135.64,38.628Q135.748,38.952,136.18,38.916Q136.612,38.88,138.412,38.412Q140.428,37.908,140.554,37.98Q140.68,38.052,140.89600000000002,37.872Q141.112,37.692,141.688,37.692Q142.264,37.692,142.732,37.872Q143.2,38.052,143.686,38.556Q144.172,39.06,144.172,39.348Q144.172,39.6,143.72199999999998,40.194Q143.272,40.788,143.05599999999998,40.788Q142.84,40.788,142.642,41.184Q142.44400000000002,41.58,141.814,42.102000000000004Q141.184,42.624,140.338,43.397999999999996Q139.49200000000002,44.172,139.42000000000002,44.172Q139.348,44.172,139.132,44.316Q138.772,44.532,139.49200000000002,45.036Q140.03199999999998,45.396,140.356,45.324Q141.47199999999998,45.036,142.40800000000002,45.684Q143.09199999999998,46.188,143.272,46.188Q143.452,46.188,143.362,46.53Q143.272,46.872,143.272,47.034Q143.272,47.196,142.264,47.628Q141.57999999999998,47.916,141.418,48.06Q141.256,48.204,141.184,48.6Q141.076,49.176,140.86,49.86Q140.644,50.544,140.644,51.336Q140.644,51.948,140.80599999999998,52.218Q140.96800000000002,52.488,141.904,53.46Q142.768,54.288,143.14600000000002,54.558Q143.524,54.828,144.208,55.08Q146.04399999999998,55.656,146.04399999999998,56.304Q146.04399999999998,56.628,145.792,57.15Q145.54000000000002,57.672,145.252,57.924Q145.036,58.104,144.69400000000002,58.158Q144.352,58.212,143.272,58.212Q141.61599999999999,58.176,141.292,58.068Q141.112,58.032,141.022,58.086Q140.93200000000002,58.14,140.86,58.391999999999996Q140.752,58.824,140.752,62.442Q140.752,66.06,140.86,67.28399999999999Q141.00400000000002,68.688,140.752,68.994Q140.5,69.3,140.19400000000002,69.102Q139.888,68.904,139.816,69.012Q139.708,69.22800000000001,139.276,69.12Q138.844,69.012,138.59199999999998,68.72399999999999Q138.34,68.364,138.304,67.374Q138.268,66.384,138.412,61.956L138.51999999999998,58.464L138.16,58.572Q136.792,58.86,133.44400000000002,60.3Q130.42000000000002,61.56,129.376,62.082Q128.332,62.604,127.972,62.604Q127.648,62.604,127.306,62.117999999999995Q126.964,61.632000000000005,126.964,61.164Q126.964,60.732,127.306,60.21Q127.648,59.688,128.04399999999998,59.544Q128.512,59.328,129.268,58.518Q130.024,57.708,131.19400000000002,56.628Q132.364,55.548,132.22,55.548Q132.076,55.548,131.356,55.872L130.672,56.232L130.348,55.908Q130.024,55.620000000000005,129.952,55.044Q129.88,54.684,129.97,54.522Q130.06,54.36,130.38400000000001,54.036Q130.888,53.568,131.30200000000002,53.478Q131.716,53.388000000000005,131.89600000000002,53.153999999999996Q132.076,52.92,132.238,52.92Q132.4,52.92,132.976,52.47Q133.55200000000002,52.019999999999996,133.678,52.019999999999996Q133.804,52.019999999999996,135.118,50.94Q136.43200000000002,49.86,136.9,49.644Q137.224,49.5,137.566,49.14Q137.90800000000002,48.78,137.836,48.672Q137.728,48.564,136.702,48.924Q135.676,49.284,134.812,49.644Q133.876,50.076,132.094,50.652Q130.312,51.228,129.916,51.228Q129.628,51.228,129.01600000000002,50.922Q128.404,50.616,128.188,50.364000000000004Q128.00799999999998,50.147999999999996,128.404,50.04Q130.204,49.32,131.96800000000002,48.348Q133.732,47.376,133.732,47.088Q133.732,46.944,135.01,46.098Q136.288,45.252,137.26,44.388Q139.24,42.588,139.816,41.903999999999996Q138.916,42.624,136.864,42.336Q135.49599999999998,42.12,134.344,42.048L133.192,41.94L131.89600000000002,42.948Q130.6,43.92,130.204,44.244Q129.808,44.64,128.74599999999998,45.252Q127.684,45.864000000000004,127.432,45.864000000000004Q127.108,45.864000000000004,127.9,44.208Q128.07999999999998,43.848,128.368,43.308Q129.412,41.184,129.51999999999998,40.769999999999996Q129.628,40.356,129.844,40.266Q130.06,40.176,130.024,39.978Q129.988,39.78,130.096,39.06Q130.204,38.34,129.898,37.62Q129.59199999999998,36.9,129.664,36.612ZM137.566,46.368Q138.232,46.116,138.304,45.918Q138.376,45.72,138.232,45.36L138.124,45L137.11599999999999,45.576Q136.108,46.188,134.99200000000002,46.8Q133.98399999999998,47.412,134.01999999999998,47.519999999999996Q134.2,47.592,135.55,47.106Q136.9,46.62,137.566,46.368ZM138.51999999999998,52.308Q138.51999999999998,51.732,138.502,51.245999999999995Q138.48399999999998,50.760000000000005,138.44799999999998,50.472Q138.412,50.184,138.376,50.184Q138.304,50.184,137.674,50.598Q137.04399999999998,51.012,136.612,51.336Q136.252,51.623999999999995,136.324,51.732Q136.39600000000002,51.84,136.936,51.84Q137.8,51.84,137.656,52.884Q137.584,53.316,137.584,53.424Q137.584,53.532,137.07999999999998,53.712Q136.18,54.072,132.832,57.239999999999995Q132.436,57.635999999999996,131.59,58.248000000000005Q130.744,58.86,130.52800000000002,59.147999999999996Q130.348,59.364000000000004,130.36599999999999,59.382000000000005Q130.38400000000001,59.4,130.6,59.328Q130.888,59.184,131.572,58.968Q132.256,58.751999999999995,132.418,58.626000000000005Q132.57999999999998,58.5,133.12,58.32Q133.804,58.14,137.764,56.7Q138.196,56.556,138.34,56.412Q138.48399999999998,56.268,138.55599999999998,55.944Q138.628,55.476,138.59199999999998,54.972Q138.55599999999998,54.468,138.51999999999998,52.308ZM141.364,54.432Q140.93200000000002,53.316,140.824,52.992000000000004Q140.788,52.92,140.752,53.064Q140.716,53.352000000000004,140.716,54.288Q140.716,55.367999999999995,140.76999999999998,55.602000000000004Q140.824,55.836,141.04000000000002,55.836Q141.57999999999998,55.836,141.652,55.584Q141.724,55.332,141.364,54.432Z" fill="#000000" fill-opacity="1"/></g></g></svg>