<svg xmlns="http://www.w3.org/2000/svg" xmlns:xlink="http://www.w3.org/1999/xlink" fill="none" version="1.1" width="200" height="104" viewBox="0 0 200 104"><g><g></g><g><path d="M85.184,39.852000000000004L88.208,39.852000000000004Q89,39.852000000000004,89,40.572L89,57.132000000000005Q89,59.94,87.434,61.47Q85.868,63,83.06,63L79.1,63Q76.256,63,74.708,61.488Q73.16,59.976,73.16,57.132000000000005L73.16,40.608Q73.16,39.852000000000004,73.916,39.852000000000004L76.976,39.852000000000004Q77.732,39.852000000000004,77.732,40.608L77.732,56.916Q77.732,58.068,78.218,58.554Q78.704,59.04,79.82,59.04L82.304,59.04Q83.456,59.04,83.94200000000001,58.554Q84.428,58.068,84.428,56.916L84.428,40.608Q84.428,39.852000000000004,85.184,39.852000000000004ZM106.02799999999999,63L94.256,63Q93.5,63,93.5,62.244L93.5,40.608Q93.5,39.852000000000004,94.256,39.852000000000004L106.02799999999999,39.852000000000004Q106.74799999999999,39.852000000000004,106.74799999999999,40.608L106.74799999999999,43.056Q106.74799999999999,43.812,106.02799999999999,43.812L98.504,43.812Q98.072,43.812,98.072,44.208L98.072,48.888Q98.072,49.284,98.504,49.284L104.66,49.284Q105.416,49.284,105.416,50.04L105.416,52.488Q105.416,53.244,104.66,53.244L98.504,53.244Q98.072,53.244,98.072,53.64L98.072,58.644Q98.072,59.04,98.504,59.04L106.02799999999999,59.04Q106.74799999999999,59.04,106.74799999999999,59.796L106.74799999999999,62.244Q106.74799999999999,63,106.02799999999999,63ZM120.14,63L116.324,63Q113.47999999999999,63,111.932,61.488Q110.384,59.976,110.384,57.132000000000005L110.384,45.72Q110.384,42.876,111.932,41.364Q113.47999999999999,39.852000000000004,116.324,39.852000000000004L120.14,39.852000000000004Q122.94800000000001,39.852000000000004,124.49600000000001,41.382Q126.044,42.912,126.044,45.72L126.044,46.8Q126.044,47.592,125.288,47.592L122.22800000000001,47.592Q121.47200000000001,47.592,121.47200000000001,46.8L121.47200000000001,45.936Q121.47200000000001,44.784,121.00399999999999,44.298Q120.536,43.812,119.384,43.812L117.044,43.812Q115.928,43.812,115.44200000000001,44.298Q114.956,44.784,114.956,45.936L114.956,56.916Q114.956,58.068,115.44200000000001,58.554Q115.928,59.04,117.044,59.04L119.384,59.04Q120.536,59.04,121.00399999999999,58.554Q121.47200000000001,58.068,121.47200000000001,56.916L121.47200000000001,54.647999999999996Q121.47200000000001,54.251999999999995,121.076,54.251999999999995L118.916,54.251999999999995Q118.16,54.251999999999995,118.16,53.495999999999995L118.16,51.048Q118.16,50.292,118.916,50.292L125.21600000000001,50.292Q126.044,50.292,126.044,51.120000000000005L126.044,57.132000000000005Q126.044,59.94,124.49600000000001,61.47Q122.94800000000001,63,120.14,63Z" fill="#000000" fill-opacity="1"/></g></g></svg>