<svg xmlns="http://www.w3.org/2000/svg" xmlns:xlink="http://www.w3.org/1999/xlink" fill="none" version="1.1" width="200" height="104" viewBox="0 0 200 104"><g><g><path d="M64.3516,44.4668Q63.050799999999995,50.900400000000005,59.3594,57.7207Q63.3672,63.1699,65.9336,66.8613L63.5078,68.72460000000001Q60.5898,64.4707,57.7422,60.4277Q53.94531,66.334,48.63672,70.4824Q47.93359,69.49799999999999,46.632812,68.12700000000001Q52.22266,63.9434,55.98438,57.9316Q52.1875,52.623000000000005,48.49609,47.7363L50.67578,46.1543Q54.47266,51.1465,57.5312,55.2598Q59.957,50.7598,61.6094,44.4668L46.773438,44.4668L46.773438,41.90039L56.4766,41.90039Q55.24609,39.47461,53.91016,37.29492L56.3359,36.06445Q58.0938,38.87695,59.0781,40.91602L57.1445,41.90039L66.8125,41.90039L66.8125,44.4668L64.3516,44.4668ZM76.9023,36.76758L79.6797,36.76758L79.6797,65.5605Q79.6797,70.1309,75.4961,70.166Q73.6328,70.2012,69.8711,70.0957Q69.6602,68.6543,69.3438,66.9668Q72.1914,67.3184,74.1953,67.3184Q76.9023,67.3535,76.9023,64.6816L76.9023,36.76758ZM68.7109,40.2832L71.3828,40.2832L71.3828,62.501999999999995L68.7109,62.501999999999995L68.7109,40.2832ZM96.5547,56.349599999999995L114.4141,56.349599999999995L114.4141,70.62299999999999L111.7422,70.62299999999999L111.7422,68.1973L99.22659999999999,68.1973L99.22659999999999,70.6582L96.5547,70.6582L96.5547,56.349599999999995ZM82.457,63.310500000000005Q84.8652,62.6953,87.5195,61.957L87.5195,47.7012L82.94919999999999,47.7012L82.94919999999999,45.2051L87.5195,45.2051L87.5195,36.31055L90.1562,36.31055L90.1562,45.2051L94.72659999999999,45.2051L94.72659999999999,47.7012L90.1562,47.7012L90.1562,61.2188Q92.459,60.5684,94.9375,59.8301Q94.9375,60.5332,95.11330000000001,62.6074Q90.22659999999999,63.9434,83.4062,66.0527L82.457,63.310500000000005ZM111.7422,58.775400000000005L99.22659999999999,58.775400000000005L99.22659999999999,65.8418L111.7422,65.8418L111.7422,58.775400000000005ZM94.0938,50.4082L107.0137,50.4082Q109.7031,46.3125,111.1094,43.69336L113.8516,45.2402Q111.8125,48.1055,110.0723,50.4082L117.2617,50.4082L117.2617,52.7637L94.0938,52.7637L94.0938,50.4082ZM95.3594,40.63477L105.0098,40.63477Q104.1309,38.92969,102.98830000000001,37.01367L105.3789,35.85352Q106.6797,37.89258,107.66409999999999,39.68555L105.6426,40.63477L116.1719,40.63477L116.1719,42.99023L95.3594,42.99023L95.3594,40.63477ZM97.5039,45.1348L99.5781,43.76367Q101.6875,46.2246,103.375,48.5449L101.0195,50.162099999999995Q99.26169999999999,47.3848,97.5039,45.1348ZM147.531,63.3809L149.887,62.2559Q151.926,65.8418,153.789,69.6035L151.152,70.93950000000001Q150.59,69.6035,149.99200000000002,68.33789999999999Q139.0938,69.0762,130.4805,69.6738L130.0938,66.7559Q135.3672,66.5449,140.32420000000002,66.334L140.32420000000002,61.1309L134.2773,61.1309L134.2773,62.501999999999995L131.67579999999998,62.501999999999995L131.67579999999998,51.287099999999995L140.32420000000002,51.287099999999995L140.32420000000002,47.4551L135.6836,47.4551L135.6836,48.8613L133.082,48.8613L133.082,38.0332L150.238,38.0332L150.238,48.8613L147.637,48.8613L147.637,47.4551L142.9961,47.4551L142.9961,51.287099999999995L151.68,51.287099999999995L151.68,61.1309L142.9961,61.1309L142.9961,66.2285Q145.9844,66.12299999999999,148.86700000000002,65.9824Q148.199,64.6465,147.531,63.3809ZM120.3906,46.5059L127.2812,46.5059L127.2812,40.59961L119.3359,40.59961L119.3359,38.20898L129.8828,38.20898L129.8828,50.4082L127.2812,50.4082L127.2812,48.8965L122.6758,48.8965L122.043,54.3457L129.5664,54.3457Q129.2148,61.834,128.9336,65.2793Q128.6172,70.06049999999999,124.1875,70.06049999999999Q122.6055,70.06049999999999,120.3906,70.02539999999999Q120.1797,68.72460000000001,119.8281,67.21289999999999Q122.1133,67.3887,123.7305,67.3887Q126.1211,67.3887,126.2969,64.9277Q126.5781,61.3418,126.7891,56.7363L119.2656,56.7363L120.3906,46.5059ZM147.637,40.42383L135.6836,40.42383L135.6836,45.0645L147.637,45.0645L147.637,40.42383ZM149.078,58.7402L149.078,53.6777L142.9961,53.6777L142.9961,58.7402L149.078,58.7402ZM134.2773,58.7402L140.32420000000002,58.7402L140.32420000000002,53.6777L134.2773,53.6777L134.2773,58.7402Z" fill="#000000" fill-opacity="1"/></g></g></svg>