<svg xmlns="http://www.w3.org/2000/svg" xmlns:xlink="http://www.w3.org/1999/xlink" fill="none" version="1.1" width="200" height="104" viewBox="0 0 200 104"><g><g></g><g><path d="M84.7,38.448L83.836,37.764L84.44800000000001,37.764Q85.06,37.764,85.168,37.908Q85.276,38.052,86.32,38.16Q87.616,38.304,88.678,39.006Q89.74,39.708,89.524,40.248Q89.416,40.536,89.254,40.446Q89.092,40.356,89.092,40.536Q89.092,40.716,88.804,40.824Q88.51599999999999,40.932,87.724,41.688Q86.932,42.444,86.752,42.444Q86.572,42.480000000000004,83.332,45.647999999999996Q80.092,48.816,79.984,49.104Q79.912,49.32,79.984,49.356Q80.056,49.391999999999996,80.344,49.32Q80.812,49.212,80.974,49.068Q81.136,48.924,81.406,48.906Q81.676,48.888,82.378,48.564Q83.08,48.24,83.29599999999999,48.222Q83.512,48.204,84.412,47.808Q86.176,47.016,88.98400000000001,45.936Q89.74,45.647999999999996,90.928,44.946Q92.116,44.244,92.29599999999999,43.956Q92.404,43.775999999999996,92.404,43.974000000000004Q92.404,44.172,91.936,44.532Q91.468,44.891999999999996,91.666,44.891999999999996Q91.864,44.891999999999996,91.97200000000001,44.730000000000004Q92.08,44.568,92.566,44.316Q93.05199999999999,44.064,94.024,44.28Q95.71600000000001,44.676,96.50800000000001,45.54Q96.904,45.936,96.616,46.116Q96.436,46.224000000000004,94.114,46.872Q91.792,47.519999999999996,90.496,47.916Q90.388,47.952,90.208,48.024Q89.38,48.275999999999996,89.27199999999999,48.564Q89.164,48.852000000000004,89.38,50.328Q89.416,50.652,89.452,50.832Q89.74,52.956,89.632,56.592Q89.524,60.228,89.164,61.812Q88.876,62.928,88.98400000000001,64.404Q89.092,65.88,88.912,66.99600000000001Q88.804,67.71600000000001,88.678,67.968Q88.55199999999999,68.22,88.22800000000001,68.364Q87.724,68.616,87.292,68.418Q86.86,68.22,86.14,67.392Q84.77199999999999,65.80799999999999,84.088,65.088Q83.836,64.8,83.116,64.44Q82.396,64.08,82.108,64.08Q81.82,64.08,81.622,63.846000000000004Q81.424,63.611999999999995,80.812,63.486000000000004Q80.2,63.36,80.2,63.198Q80.2,63.036,79.912,63.036Q79.732,63,79.732,62.964Q79.84,62.82,81.136,62.784Q82.432,62.748000000000005,83.98,62.856Q86.068,63,86.248,62.928Q86.5,62.82,86.824,60.263999999999996Q86.968,58.896,87.148,57.384Q87.508,54.504000000000005,87.67,51.822Q87.832,49.14,87.652,48.996Q87.58,48.888,86.73400000000001,49.176Q85.888,49.464,85.52799999999999,49.518Q85.168,49.572,84.232,50.004000000000005Q83.188,50.472,81.748,50.922Q80.30799999999999,51.372,79.804,51.372Q79.19200000000001,51.336,78.706,50.903999999999996Q78.22,50.472,78.22,49.896Q78.256,49.464,78.526,48.924Q78.79599999999999,48.384,78.976,48.384Q79.228,48.384,80.992,46.44Q81.856,45.504,82.19800000000001,45.36Q82.53999999999999,45.216,82.342,45.09Q82.144,44.964,83.116,44.1Q84.088,43.236000000000004,84.232,43.2Q84.44800000000001,43.092,85.726,41.598Q87.004,40.104,87.004,39.96Q87.004,39.708,86.26599999999999,39.42Q85.52799999999999,39.132,84.7,38.448ZM72.712,37.224000000000004Q72.712,37.08,73.018,36.99Q73.324,36.9,73.666,36.99Q74.008,37.08,74.512,37.188Q74.98,37.26,75.952,38.214Q76.924,39.168,77.176,39.78Q77.392,40.32,77.392,41.31Q77.392,42.3,77.176,42.876Q76.924,43.452,76.168,44.513999999999996Q75.412,45.576,75.142,45.954Q74.872,46.332,74.404,46.8Q73.936,47.196,73.95400000000001,47.34Q73.972,47.484,74.44,47.7Q75.376,48.06,75.736,49.068Q76.096,50.076,75.664,50.94Q75.34,51.588,75.34,51.84Q75.34,52.632000000000005,73.324,55.007999999999996Q72.532,55.944,72.532,56.088Q72.532,56.232,72.982,56.519999999999996Q73.432,56.808,73.576,56.592Q73.72,56.376000000000005,73.846,56.879999999999995Q73.972,57.384,74.404,57.96Q75.412,59.256,75.556,61.812Q75.628,62.82,75.574,63.072Q75.52,63.324,75.196,63.576Q74.8,63.9,74.566,63.882000000000005Q74.332,63.864000000000004,73.9,63.504000000000005Q73.108,62.784,72.712,61.092Q72.496,60.084,72.388,60.084Q72.28,60.084,72.208,58.824Q72.136,57.564,72.064,57.42Q71.776,56.952,70.12,58.248000000000005Q68.86,59.22,68.77,59.22Q68.68,59.22,68.68,58.968Q68.68,58.716,68.284,58.824Q67.996,58.86,67.888,58.751999999999995Q67.78,58.644,67.636,58.176Q67.456,57.456,67.492,56.232L67.564,55.007999999999996L68.5,54.54Q70.84,53.46,72.532,50.544Q73.684,48.564,73.396,48.096000000000004Q73.324,48.024,73.252,48.024Q73.108,48.024,71.848,48.996Q71.056,49.608000000000004,70.66,49.806Q70.264,50.004000000000005,69.688,50.076Q69.076,50.147999999999996,68.842,50.094Q68.608,50.04,68.284,49.752Q67.78,49.356,67.456,48.456Q66.80799999999999,46.548,68.068,45.792Q68.608,45.468,70.66,43.488Q72.712,41.508,73.396,40.248Q74.008,39.168,74.062,38.826Q74.116,38.484,73.684,38.196Q72.712,37.584,72.712,37.224000000000004ZM113.572,35.784Q113.68,35.46,113.842,35.406Q114.00399999999999,35.352,114.616,35.424Q115.336,35.496,115.66,35.748Q115.98400000000001,36,116.128,36.648Q116.23599999999999,37.152,116.452,37.242Q116.668,37.332,117.694,36.738Q118.72,36.144,119.29599999999999,35.928Q119.872,35.748,120.646,35.748Q121.42,35.748,121.888,35.928Q122.464,36.18,123.166,36.792Q123.868,37.403999999999996,123.976,37.692Q124.084,38.088,124.3,38.34Q124.55199999999999,38.664,124.714,40.374Q124.876,42.084,124.768,43.092Q124.588,44.46,123.652,46.368Q123.328,46.980000000000004,122.662,47.538Q121.99600000000001,48.096000000000004,121.384,48.24Q120.952,48.348,120.916,48.492000000000004Q120.916,48.816,121.99600000000001,48.852000000000004Q122.572,48.852000000000004,123.75999999999999,48.51Q124.94800000000001,48.168,125.812,48.348Q126.676,48.528,126.676,48.69Q126.676,48.852000000000004,126.892,48.852000000000004Q127.21600000000001,48.852000000000004,128.07999999999998,49.248Q128.94400000000002,49.644,129.232,49.932Q129.51999999999998,50.22,129.61,50.382000000000005Q129.7,50.544,129.538,50.724000000000004Q129.376,50.903999999999996,128.98000000000002,51.066Q128.584,51.228,127.864,51.480000000000004Q126.78399999999999,51.804,126.172,51.804Q125.38,51.804,122.32,52.739999999999995L121.06,53.135999999999996L121.06,54.504000000000005L121.06,55.908L121.78,56.123999999999995Q122.464,56.34,122.824,56.34Q123.184,56.34,123.184,56.592Q123.184,56.844,123.49000000000001,56.916Q123.79599999999999,56.988,123.904,57.492000000000004Q124.012,57.924,123.922,58.536Q123.832,59.147999999999996,123.72399999999999,59.147999999999996Q123.58,59.147999999999996,122.824,60.3Q122.068,61.452,121.312,62.298Q120.556,63.144,120.556,63.576Q120.556,63.972,120.664,64.008Q120.77199999999999,64.044,121.27600000000001,63.756Q121.708,63.54,122.158,63.629999999999995Q122.608,63.72,125.56,64.656Q128.00799999999998,65.44800000000001,128.332,66.672Q128.476,67.32,128.062,67.572Q127.648,67.824,126.208,67.932Q122.68,68.22,121.52799999999999,68.47200000000001Q120.44800000000001,68.75999999999999,119.22399999999999,68.832Q118,68.904,116.83,69.084Q115.66,69.26400000000001,114.904,69.084Q113.896,68.868,113.176,68.75999999999999Q112.96000000000001,68.75999999999999,112.636,67.086Q112.312,65.412,112.49199999999999,65.124Q112.6,64.944,113.788,64.152Q114.75999999999999,63.504000000000005,114.72399999999999,63.396Q114.72399999999999,63.324,114.544,63.288Q114.148,63.18,113.71600000000001,63.18Q113.104,63.18,112.366,62.856Q111.628,62.532,111.52000000000001,62.244Q111.232,61.379999999999995,111.826,60.336Q112.42,59.292,113.608,58.5Q114.58,57.852000000000004,115.858,57.186Q117.136,56.519999999999996,117.424,56.519999999999996Q118.21600000000001,56.519999999999996,118.324,55.260000000000005Q118.396,54.504000000000005,118.288,54.468Q118.21600000000001,54.468,117.964,54.611999999999995Q117.676,54.792,115.93,55.566Q114.184,56.34,113.914,56.519999999999996Q113.644,56.7,113.28399999999999,56.861999999999995Q112.924,57.024,112.20400000000001,57.744Q111.48400000000001,58.464,111.376,58.464Q111.268,58.464,110.72800000000001,58.824Q110.404,59.076,110.332,59.274Q110.25999999999999,59.472,110.29599999999999,59.94Q110.404,60.623999999999995,110.08,61.056Q109.864,61.308,109.738,61.344Q109.612,61.379999999999995,109.25200000000001,61.2Q108.64,60.948,108.118,60.480000000000004Q107.596,60.012,107.596,59.688Q107.596,59.328,107.452,59.22Q107.27199999999999,59.111999999999995,106.96600000000001,58.391999999999996Q106.66,57.672,106.714,57.438Q106.768,57.204,106.55199999999999,56.988Q106.12,56.412,106.66,54.864000000000004Q107.524,52.379999999999995,108.1,51.156Q108.352,50.616,108.946,50.076Q109.53999999999999,49.536,109.864,49.536Q110.188,49.536,110.512,49.176Q110.836,48.816,111.376,48.528Q111.628,48.42,111.628,48.456Q111.628,48.528,111.05199999999999,49.032Q110.404,49.608000000000004,110.25999999999999,49.986000000000004Q110.116,50.364000000000004,109.97200000000001,51.623999999999995Q109.936,52.236000000000004,109.72,53.442Q109.50399999999999,54.647999999999996,109.594,54.738Q109.684,54.828,110.44,54.468Q112.852,53.388000000000005,114.256,52.848Q114.868,52.632000000000005,116.27199999999999,51.984Q117.676,51.336,118.072,51.228Q118.324,51.120000000000005,118.378,50.867999999999995Q118.432,50.616,118.432,49.536Q118.396,47.952,118.288,47.88Q118.18,47.808,117.49600000000001,48.186Q116.812,48.564,116.668,49.14Q116.524,49.716,116.164,49.896Q115.84,50.076,115.12,49.968Q114.4,49.86,114.184,49.608000000000004Q114.00399999999999,49.356,113.75200000000001,49.068Q113.464,48.78,113.068,47.97Q112.672,47.16,112.672,46.872Q112.672,46.584,112.24000000000001,45.864000000000004Q111.34,44.424,111.592,43.848Q112.49199999999999,41.796,112.49199999999999,40.32Q112.49199999999999,39.384,112.708,39.024Q112.852,38.736,113.122,37.764Q113.392,36.792,113.392,36.504Q113.392,36.288,113.572,35.784ZM121.6,37.332Q121.06,37.008,120.214,37.188Q119.368,37.368,118.792,37.944Q118.50399999999999,38.196,118.306,38.196Q118.108,38.196,117.44200000000001,38.862Q116.77600000000001,39.528,116.38,39.744Q115.98400000000001,39.96,115.98400000000001,40.392Q115.98400000000001,40.644,116.038,40.698Q116.092,40.752,116.23599999999999,40.68Q116.452,40.5,117.49600000000001,40.086Q118.53999999999999,39.672,120.232,39.672L121.96000000000001,39.672L121.96000000000001,38.592Q121.96000000000001,37.908,121.888,37.674Q121.816,37.44,121.6,37.332ZM119.332,41.796Q119.512,41.508,119.35,41.525999999999996Q119.188,41.544,118.53999999999999,41.76Q117.82,42.012,117.532,42.012Q117.244,42.012,117.02799999999999,42.246Q116.812,42.480000000000004,116.30799999999999,42.408L115.84,42.336L115.84,43.56Q115.84,44.82,115.98400000000001,44.928Q116.128,45,117.622,43.596000000000004Q119.116,42.192,119.332,41.796ZM120.412,43.308Q120.88,42.588,120.628,42.588Q120.412,42.588,119.584,43.164Q118.72,43.775999999999996,118.576,43.775999999999996Q118.396,43.775999999999996,118,44.208Q117.604,44.64,117.712,44.712Q117.78399999999999,44.82,118.432,44.82Q119.476,44.82,120.412,43.308ZM117.82,58.751999999999995Q117.928,58.104,117.78399999999999,58.104Q117.568,58.104,115.624,59.147999999999996Q113.68,60.192,113.464,60.408Q113.356,60.516,113.464,60.678Q113.572,60.84,113.824,60.966Q114.076,61.092,114.328,61.092Q114.868,61.092,115.894,61.344Q116.92,61.596000000000004,117.136,61.488Q117.424,61.379999999999995,117.82,58.751999999999995Z" fill="#000000" fill-opacity="1"/></g></g></svg>