<svg xmlns="http://www.w3.org/2000/svg" xmlns:xlink="http://www.w3.org/1999/xlink" fill="none" version="1.1" width="200" height="104" viewBox="0 0 200 104"><g><g></g><g><path d="M59.29883,35.33789Q60.7578,35.33789,62.4453,38.32617Q64.5195,38.32617,65.7852,41.13867Q66.7344,40.38281,71.9375,38.83594Q75.4355,36.49805,76.7539,36.49805Q80.7617,37.64062,80.7617,38.66016Q80.7617,39.15234,79.4258,39.64453Q78.002,39.32812,76.9297,39.32812Q76.5254,39.32812,74.2578,39.82031Q74.9258,41.68359,74.9258,42.14062L74.9258,42.65039Q71.041,46.3066,69.5996,46.3066L69.5996,46.1484Q72.2715,42.7207,72.2715,40.98047Q72.0254,40.33008,71.7617,40.33008L65.6094,41.64844Q64.1855,43.31836,62.9551,43.31836L62.4453,43.31836L62.6211,42.49219L62.6211,40.82227Q62.6211,40.55859,61.9531,40.1543L61.4609,40.1543Q60.2832,41.41992,60.2832,44.6367L60.2832,45.3047L60.6348,45.3047Q61.9004,45.3047,62.1289,45.9727L62.1289,47.3086Q61.1445,48.5742,60.2832,48.9609L59.63281,48.9609L59.63281,46.6406L58.78906,46.6406L56.80273,52.459Q62.1816,48.5742,63.7812,47.959Q64.9414,48.4688,65.4512,49.4707L65.4512,49.6465Q65.4512,51.5273,61.7949,56.7832Q62.1289,57.626999999999995,62.1289,59.7715L62.1289,59.9473L61.9531,59.9473Q59.42188,59.9473,57.62891,55.4648Q57.20703,55.4648,55.64258,53.9531Q55.36133,53.9531,54.30664,56.625Q52.91797,58.9277,51.65234,59.9473L51.14258,59.9473Q50.597656,59.9473,50.316406,57.960899999999995Q56.46875,47.1504,56.46875,45.4805Q58.96484,39.45117,58.96484,37.6582L58.96484,35.67188Q59.01758,35.33789,59.29883,35.33789ZM76.7539,43.47656Q78.8633,43.47656,81.9219,47.1504L81.9219,47.8008Q76.7715,54.462900000000005,75.2598,54.462900000000005L75.2598,53.9531Q75.2598,53.5488,77.0879,46.6406L76.9297,46.6406L72.0957,47.4668L70.4434,47.4668Q70.8125,46.7461,75.2598,45.3047Q75.875,44.0391,76.7539,43.47656ZM68.6152,46.4824L69.2656,46.4824L69.9512,57.7852L69.2656,58.1191Q67.1035,57.1172,67.1035,55.7812Q68.0176,46.4824,68.6152,46.4824ZM70.4434,48.6445L71.9375,48.6445Q74.4336,49.998,74.4336,53.6191Q74.4336,60.439499999999995,67.1035,63.2695L67.1035,62.4434Q71.9375,60.123000000000005,71.9375,54.462900000000005L71.9375,52.6172Q71.9375,50.6309,70.4434,48.6445ZM58.78906,54.462900000000005L58.78906,55.4648Q58.78906,55.851600000000005,60.125,55.957Q61.6719,53.5137,62.1289,50.9648L61.9531,50.9648Q58.78906,53.4082,58.78906,54.462900000000005ZM75.9277,56.449200000000005Q77.6152,56.449200000000005,80.252,57.960899999999995Q83.082,60.5273,83.082,61.2832Q82.5195,63.6035,81.9219,63.6035L81.4121,63.6035Q77.7734,59.4551,75.7695,56.625Q75.9277,56.625,75.9277,56.449200000000005ZM92.9434,37.3418L93.5938,37.3418Q95.9316,37.3418,95.9316,39.83789Q95.9316,44.8652,95.43950000000001,46.9922Q95.43950000000001,48.7852,96.7578,60.457L96.7578,61.6348Q95.7559,61.3184,93.5938,59.1211L94.7715,59.1211Q94.1035,55.4824,93.7695,49.4707L93.5938,49.4707Q92.9434,49.752,92.9434,50.648399999999995L92.9434,53.4785L92.7676,54.6387L92.6094,54.6387Q91.6074,53.900400000000005,91.6074,53.3027Q91.6074,53.039100000000005,91.7832,50.648399999999995L91.44919999999999,50.648399999999995Q90.3945,50.648399999999995,88.4434,58.136700000000005Q87.582,59.226600000000005,87.4414,60.2812L86.6328,60.2812Q86.0176,59.9824,85.78909999999999,59.2969Q88.2852,52.8457,88.2852,52.6348L88.12700000000001,52.6348L85.4551,53.3027Q83.62700000000001,51.5977,83.62700000000001,50.8066L83.62700000000001,50.648399999999995Q84.1191,50.648399999999995,84.1191,50.4727L86.6328,51.650400000000005Q89.6035,50.7012,89.6035,47.8184Q89.7793,47.0098,89.7793,45.6562Q89.7793,42.10547,87.9512,38.83594Q89.3398,40.1543,90.11330000000001,40.1543Q92.9434,39.11719,92.9434,37.3418ZM99.2539,38.34375L101.2578,38.34375Q102.9102,38.34375,104.91409999999999,41.15625L111.0664,39.83789Q112.9473,40.48828,113.2285,40.99805L113.2285,41.15625Q113.2285,42.49219,111.8926,42.49219Q110.3457,42.49219,108.7285,42.65039Q107.5156,42.49219,105.582,42.49219Q105.2832,42.49219,103.4199,44.0039Q102.084,43.65234,101.2578,43.65234L97.60159999999999,44.4961L97.42580000000001,44.1621L97.42580000000001,44.0039Q97.42580000000001,43.26562,101.2578,42.33398L101.2578,42Q101.2578,41.20898,99.2539,38.67773L99.2539,38.34375ZM90.7812,42L90.7812,42.1582L90.93950000000001,43.82812L91.9414,43.82812Q93.2773,44.0039,93.2773,44.9883L93.5938,44.9883L93.7695,43.31836Q93.7695,41.73633,93.43549999999999,39.83789Q90.7812,40.89258,90.7812,42ZM105.24799999999999,44.3203Q107.4102,44.6895,107.4102,46.3242Q105.4062,52.1074,105.4062,55.1309L105.4062,56.291Q105.9688,57.4688,108.5703,57.4688L109.41409999999999,57.4688Q113.38669999999999,57.4688,113.38669999999999,53.636700000000005L113.5625,53.636700000000005Q114.5293,53.636700000000005,116.5508,59.2969Q114.1074,60.6328,110.57419999999999,60.6328L108.5703,60.6328Q105.6172,60.6328,103.08590000000001,57.7852L102.5762,55.974599999999995Q102.5762,55.412099999999995,103.7539,47.8184L101.92580000000001,47.8184L101.75,46.9922L101.75,46.6582Q102.9102,46.6582,104.0703,44.4961L105.24799999999999,44.3203ZM90.93950000000001,44.6543L90.93950000000001,48.9785L91.44919999999999,48.9785Q91.7832,48.9082,92.09960000000001,48.1523Q91.97659999999999,44.6543,91.27340000000001,44.6543L90.93950000000001,44.6543ZM98.76169999999999,46.8164Q100.9238,47.3086,100.9238,47.8184Q100.0977,59.789100000000005,98.0938,59.789100000000005L97.7598,59.789100000000005Q97.3203,59.789100000000005,97.0918,57.1348Q98.6035,48.7148,98.6035,47.4844L98.6035,47.1504L98.76169999999999,46.8164ZM137.1523,32.77148Q139.0684,32.77148,140.6504,35.60156L140.6504,35.75977Q139.7539,37.48242,137.6445,40.10156L137.6445,40.25977Q139.0684,40.25977,139.64839999999998,41.26172L139.64839999999998,41.41992Q139.1914,42.89648,132.33589999999998,43.08984Q131.1406,43.08984,130.1562,45.7441L129.998,45.7441Q126.3418,44.6719,126.3418,42.08789Q126.3418,39.24023,124.1797,34.933594L124.8477,34.933594Q127.0449,34.933594,129.8398,38.58984Q130.332,40.1543,130.332,41.41992L130.332,41.75391L130.666,41.75391Q133.83010000000002,41.75391,135.8164,36.60352L135.6582,36.60352Q132.9863,38.09766,131.334,38.09766Q130.22660000000002,38.09766,128.9961,36.9375L128.9961,36.09375Q130.08589999999998,36.09375,136.4844,32.77148L137.1523,32.77148ZM136.4844,44.4082Q140.9668,46.8867,140.9668,48.7324L140.9668,54.5684Q140.9668,55.886700000000005,140.8086,58.0488Q140.9668,58.3301,140.9668,58.8926Q140.2461,60.175799999999995,139.1562,60.5449L139.1562,61.212900000000005Q142.8125,62.689499999999995,142.8125,65.3613L142.63670000000002,66.2051L142.30270000000002,66.2051Q139.82420000000002,66.2051,133.98829999999998,60.210899999999995Q134.32229999999998,60.0527,134.498,60.0527Q135.44729999999998,60.0527,138.3125,60.8789L135.6582,58.3828L135.6582,57.8906L136.1504,57.8906Q136.44920000000002,57.8906,137.6445,57.3809Q137.6445,48.3809,135.8164,46.0781L135.5,46.0781Q134.8496,46.0781,130.8418,47.9062Q128.16989999999998,47.2383,128.16989999999998,46.2539L128.3457,46.2539Q131.791,45.5684,136.4844,44.4082ZM126.9922,45.7441L127.3438,45.7441Q128.5039,53.0215,128.5039,59.3848L127.9941,60.210899999999995Q125.3398,59.1211,125.3398,57.3809L125.1816,57.3809L125.3398,56.2207Q125.6211,45.7441,126.9922,45.7441ZM130.8418,49.7344L131,49.7344Q133.9355,49.7344,134.6562,54.8848Q134.6562,60.123000000000005,127.6777,64.2012L126.6758,64.377L126.5,64.377L126.3418,63.550799999999995L126.3418,63.199200000000005Q131.1582,59.2441,131.1582,57.2227Q131.334,57.2227,131.334,56.5547L131.334,51.8965Q131.334,51.4922,130.8418,49.7344Z" fill="#000000" fill-opacity="1"/></g></g></svg>