<svg width="1025" height="334" viewBox="0 0 1025 334" fill="none" xmlns="http://www.w3.org/2000/svg">
<path fill-rule="evenodd" clip-rule="evenodd" d="M305.912 147.088H248.473V126.149H266.016V136.619H287.803V126.149L248.756 86.819V67.2954L259.791 56.5432H305.912V78.3305H287.803V67.8613H267.147V78.3305L305.912 117.378V147.088ZM314.117 56.5432V147.088H332.792V95.5905H346.091V147.088H362.785V83.4236H332.792L333.075 56.5432H314.117ZM546.704 56.8262V147.371H565.944V95.3076H582.922V147.371H601.596V56.8262H582.922V84.5554H565.944V56.8262H546.704ZM667.807 79.4623V56.8262H685.916V79.4623H667.807ZM739.111 79.4623H721.002V69.276L732.886 56.8262H778.724V87.102L739.111 127.847V136.336H778.724V147.371H721.002V119.641L760.615 79.4623V69.276H739.111V79.4623ZM787.213 147.371H830.787L848.896 130.96V56.8262H799.097L787.213 69.276V147.371ZM857.668 89.3656V130.96H896.149V147.371H902.657L920.2 130.96V119.924H914.541V56.8262H889.075L857.668 89.3656ZM929.254 89.3656V130.96H967.736V147.371H974.244L991.787 130.96V119.924H986.128V56.8262H960.662L929.254 89.3656ZM820.884 136.053H805.322V69.276H830.787V126.715L820.884 136.053ZM875.494 119.641V91.6292L892.188 73.8033H896.149L896.432 119.641H875.494ZM947.08 119.641V91.6292L963.775 73.8033H967.736L968.019 119.641H947.08ZM371.274 147.088H390.514L399.569 141.429H400.701V147.088H419.658V83.4236H371.274V103.513H389.383V95.3076H401.267V103.513L371.274 122.471V147.088ZM428.43 83.4236V147.088H446.539L446.822 95.3076H460.121V147.088H478.512V83.4236H428.43ZM487.85 157.557V174.534H525.765L537.649 162.933L537.932 84.5554H499.451L487.85 95.3076V147.371H520.106V162.933H506.242V157.557H487.85ZM610.085 148.22H629.326L638.38 142.561H639.512V148.22H658.47V84.5554H610.085V104.645H628.194V96.4394H640.078V104.645L610.085 123.603V148.22ZM667.807 147.371V84.5554H685.916V147.371H667.807ZM505.959 136.053V95.3076H520.106V136.053H505.959ZM390.514 135.77H389.383V122.471L399.569 116.246H401.267V128.979L390.514 135.77ZM629.326 136.901H628.194V123.603L638.38 117.378H640.078V130.111L629.326 136.901Z" fill="black"/>
<path d="M98.9268 1.93984V62.7608L118.818 71.2867C115.455 60.1079 112.708 48.7396 110.577 37.1818C108.446 25.624 106.93 13.8766 106.031 1.93984H98.9268ZM114.271 0.518799L118.818 26.666L124.501 49.9712L139.845 51.6765L162.578 28.3713L158.031 23.5398L130.752 43.1502L127.342 33.7713L152.916 16.7187L149.507 13.5924L125.637 28.3713C124.311 24.6766 123.08 20.5082 121.943 15.8661C120.807 11.224 119.86 6.10826 119.102 0.518799H114.271Z" fill="#0081C8"/>
<path d="M99.4951 190.939V130.118L119.386 121.592C116.024 132.771 113.277 144.139 111.146 155.697C109.014 167.255 107.499 179.002 106.599 190.939H99.4951ZM114.84 192.36L119.386 166.213L125.069 142.908L140.414 141.202L163.146 164.508L158.6 169.339L131.321 149.729L127.911 159.108L153.485 176.16L150.075 179.286L126.206 164.508C124.88 168.202 123.648 172.371 122.512 177.013C121.375 181.655 120.428 186.771 119.67 192.36H114.84Z" fill="#00A651"/>
<path d="M191.798 94.9656L130.989 94.6186L122.578 74.6756C133.735 78.1025 145.086 80.9147 156.629 83.1122C168.173 85.3096 179.909 86.8924 191.838 87.8605L191.798 94.9656ZM193.306 79.6267L167.19 74.9302L143.921 69.1131L142.304 53.7563L165.733 31.1528L170.538 35.7279L150.777 62.8995L160.134 66.3635L177.329 40.8824L180.435 44.3107L165.523 68.0996C169.21 69.447 173.37 70.7023 178.005 71.8656C182.64 73.0289 187.749 74.0054 193.333 74.7952L193.306 79.6267Z" fill="#FCB131"/>
<path d="M191.561 98.8633L130.752 99.2104L122.341 119.153C133.498 115.727 144.849 112.914 156.392 110.717C167.935 108.519 179.672 106.937 191.601 105.968L191.561 98.8633ZM193.069 114.202L166.952 118.899L143.684 124.716L142.067 140.073L165.496 162.676L170.301 158.101L150.54 130.929L159.897 127.465L177.092 152.947L180.198 149.518L165.286 125.729C168.973 124.382 173.133 123.127 177.768 121.963C182.403 120.8 187.512 119.824 193.096 119.034L193.069 114.202Z" fill="#FCB131"/>
<path d="M98.9268 1.93984V62.7608L118.818 71.2867C115.455 60.1079 112.708 48.7396 110.577 37.1818C108.446 25.624 106.93 13.8766 106.031 1.93984H98.9268ZM114.271 0.518799L118.818 26.666L124.501 49.9712L139.845 51.6765L162.578 28.3713L158.031 23.5398L130.752 43.1502L127.342 33.7713L152.916 16.7187L149.507 13.5924L125.637 28.3713C124.311 24.6766 123.08 20.5082 121.943 15.8661C120.807 11.224 119.86 6.10826 119.102 0.518799H114.271Z" fill="#0081C8"/>
<path d="M99.4951 190.939V130.118L119.386 121.592C116.024 132.771 113.277 144.139 111.146 155.697C109.014 167.255 107.499 179.002 106.599 190.939H99.4951ZM114.84 192.36L119.386 166.213L125.069 142.908L140.414 141.202L163.146 164.508L158.6 169.339L131.321 149.729L127.911 159.108L153.485 176.16L150.075 179.286L126.206 164.508C124.88 168.202 123.648 172.371 122.512 177.013C121.375 181.655 120.428 186.771 119.67 192.36H114.84Z" fill="#00A651"/>
<path d="M191.798 94.9656L130.989 94.6186L122.578 74.6756C133.735 78.1025 145.086 80.9147 156.629 83.1122C168.173 85.3096 179.909 86.8924 191.838 87.8605L191.798 94.9656ZM193.306 79.6267L167.19 74.9302L143.921 69.1131L142.304 53.7563L165.733 31.1528L170.538 35.7279L150.777 62.8995L160.134 66.3635L177.329 40.8824L180.435 44.3107L165.523 68.0996C169.21 69.447 173.37 70.7023 178.005 71.8656C182.64 73.0289 187.749 74.0054 193.333 74.7952L193.306 79.6267Z" fill="#EE334E"/>
<path d="M191.561 98.8633L130.752 99.2104L122.341 119.153C133.498 115.727 144.849 112.914 156.392 110.717C167.935 108.519 179.672 106.937 191.601 105.968L191.561 98.8633ZM193.069 114.202L166.952 118.899L143.684 124.716L142.067 140.073L165.496 162.676L170.301 158.101L150.54 130.929L159.897 127.465L177.092 152.947L180.198 149.518L165.286 125.729C168.973 124.382 173.133 123.127 177.768 121.963C182.403 120.8 187.512 119.824 193.096 119.034L193.069 114.202Z" fill="#EE334E"/>
<path d="M94.6943 1.93984V62.7608L74.8034 71.2867C78.1659 60.1079 80.9128 48.7396 83.0439 37.1818C85.1751 25.624 86.6906 13.8766 87.5904 1.93984H94.6943ZM79.3499 0.518799L74.8034 26.666L69.1203 49.9712L53.7758 51.6765L31.0432 28.3713L35.5897 23.5398L62.8688 43.1502L66.2787 33.7713L40.7046 16.7187L44.1145 13.5924L67.9836 28.3713C69.3097 24.6766 70.5411 20.5082 71.6777 15.8661C72.8143 11.224 73.7615 6.10826 74.5192 0.518799H79.3499Z" fill="#0081C8"/>
<path d="M94.126 190.939V130.118L74.235 121.592C77.5976 132.771 80.3444 144.139 82.4756 155.697C84.6067 167.255 86.1222 179.002 87.0221 190.939H94.126ZM78.7815 192.36L74.235 166.213L68.5519 142.908L53.2074 141.202L30.4749 164.508L35.0213 169.339L62.3005 149.729L65.7103 159.108L40.1362 176.16L43.5461 179.286L67.4153 164.508C68.7413 168.202 69.9727 172.371 71.1093 177.013C72.2459 181.655 73.1931 186.771 73.9508 192.36H78.7815Z" fill="#00A651"/>
<path d="M1.82373 94.9657L62.6325 94.6186L71.0435 74.6756C59.8862 78.1025 48.5358 80.9147 36.9924 83.1122C25.449 85.3097 13.7126 86.8925 1.78336 87.8606L1.82373 94.9657Z" fill="#FCB131"/>
<path d="M0.31543 79.2511L26.4316 74.5546L49.6997 68.7375L51.3174 53.3807L27.8878 30.7773L23.083 35.3522L42.8445 62.5239L33.4869 65.9879L16.2925 40.5068L13.1862 43.9351L28.0977 67.724C24.4113 69.0714 20.2507 70.3267 15.6161 71.49C10.9814 72.6533 5.87199 73.6298 0.28798 74.4196L0.31543 79.2511Z" fill="#FCB131"/>
<path d="M2.06065 98.8633L62.869 99.2104L71.2806 119.153C60.1231 115.727 48.7727 112.914 37.2293 110.717C25.6859 108.519 13.9496 106.937 2.02028 105.968L2.06065 98.8633ZM0.552701 114.202L26.6689 118.899L49.937 124.716L51.5547 140.073L28.1251 162.676L23.3203 158.101L43.0818 130.929L33.7242 127.465L16.5297 152.947L13.4235 149.518L28.335 125.729C24.6485 124.382 20.488 123.127 15.8533 121.963C11.2186 120.8 6.10926 119.824 0.525252 119.034L0.552701 114.202Z" fill="#FCB131"/>
<path d="M252.644 255.596H248.829C248.143 255.596 247.8 255.253 247.8 254.567V217.691C247.8 217.005 248.143 216.662 248.829 216.662H252.644C253.33 216.662 253.673 217.005 253.673 217.691V232.829C253.673 233.233 253.916 233.434 254.4 233.434H267.176C267.58 233.434 267.782 233.233 267.782 232.829V217.691C267.782 217.005 268.125 216.662 268.811 216.662H272.687C273.373 216.662 273.716 217.005 273.716 217.691V254.567C273.716 255.253 273.373 255.596 272.687 255.596H268.811C268.125 255.596 267.782 255.253 267.782 254.567V239.247C267.782 238.844 267.58 238.642 267.176 238.642H254.4C253.916 238.642 253.673 238.844 253.673 239.247V254.567C253.673 255.253 253.33 255.596 252.644 255.596ZM303.083 216.662H306.898C307.625 216.662 307.988 216.985 307.988 217.63V246.211C307.988 249.158 307.151 251.459 305.476 253.114C303.8 254.769 301.489 255.596 298.542 255.596H291.821C288.874 255.596 286.573 254.769 284.918 253.114C283.263 251.459 282.435 249.158 282.435 246.211V217.691C282.435 217.005 282.778 216.662 283.465 216.662H287.279C287.966 216.662 288.309 217.005 288.309 217.691V245.969C288.309 248.956 289.762 250.449 292.669 250.449H297.634C300.581 250.449 302.054 248.956 302.054 245.969V217.691C302.054 217.005 302.397 216.662 303.083 216.662ZM343.29 216.662H350.072C350.758 216.662 351.101 217.005 351.101 217.691V254.567C351.101 255.253 350.758 255.596 350.072 255.596H346.317C345.631 255.596 345.288 255.253 345.288 254.567V223.988H345.046L337.174 246.15C336.932 246.796 336.488 247.119 335.842 247.119H331.967C331.361 247.119 330.937 246.796 330.695 246.15L322.642 223.928H322.399V254.567C322.399 254.971 322.329 255.243 322.187 255.384C322.046 255.526 321.774 255.596 321.37 255.596H317.676C316.99 255.596 316.647 255.253 316.647 254.567V217.691C316.647 217.005 316.99 216.662 317.676 216.662H324.458C324.902 216.662 325.225 216.884 325.427 217.328L333.723 240.701H334.025L342.382 217.328C342.462 216.884 342.765 216.662 343.29 216.662ZM362.242 255.596H357.883C357.318 255.596 357.116 255.253 357.277 254.567L367.813 217.691C368.015 217.005 368.499 216.662 369.266 216.662H375.322C376.129 216.662 376.613 217.005 376.775 217.691L387.311 254.567C387.472 255.253 387.25 255.596 386.645 255.596H382.346C381.982 255.596 381.73 255.526 381.589 255.384C381.448 255.243 381.336 254.971 381.256 254.567L378.955 246.695H365.633L363.332 254.567C363.171 255.253 362.808 255.596 362.242 255.596ZM372.173 222.475L366.844 241.851H377.804L372.415 222.475H372.173ZM398.271 255.596H394.516C393.83 255.596 393.487 255.253 393.487 254.567V217.691C393.487 217.005 393.83 216.662 394.516 216.662H397.907C398.553 216.662 398.997 216.884 399.24 217.328L413.893 243.668H414.135V217.691C414.135 217.005 414.478 216.662 415.165 216.662H418.919C419.605 216.662 419.948 217.005 419.948 217.691V254.567C419.948 255.253 419.605 255.596 418.919 255.596H415.649C415.003 255.596 414.478 255.273 414.075 254.628L399.542 228.59H399.3V254.567C399.3 255.253 398.957 255.596 398.271 255.596ZM428.244 246.15V244.576C428.244 243.89 428.587 243.547 429.273 243.547H433.148C433.835 243.547 434.178 243.89 434.178 244.576V245.666C434.178 247.361 434.551 248.582 435.298 249.329C436.045 250.076 437.286 250.449 439.022 250.449H443.2C444.936 250.449 446.187 250.056 446.954 249.269C447.721 248.482 448.105 247.2 448.105 245.424V244.031C448.105 242.739 447.61 241.72 446.621 240.973C445.632 240.226 444.411 239.742 442.958 239.52C441.505 239.298 439.91 238.985 438.174 238.581C436.438 238.178 434.844 237.713 433.391 237.189C431.937 236.664 430.716 235.675 429.728 234.222C428.738 232.768 428.244 230.911 428.244 228.651V226.108C428.244 223.161 429.081 220.85 430.757 219.175C432.432 217.499 434.743 216.662 437.69 216.662H444.108C447.096 216.662 449.427 217.499 451.102 219.175C452.777 220.85 453.615 223.161 453.615 226.108V227.44C453.615 228.126 453.272 228.469 452.586 228.469H448.71C448.024 228.469 447.681 228.126 447.681 227.44V226.653C447.681 224.917 447.308 223.676 446.561 222.929C445.814 222.182 444.573 221.809 442.837 221.809H439.022C437.286 221.809 436.045 222.202 435.298 222.989C434.551 223.776 434.178 225.119 434.178 227.016V228.893C434.178 230.71 435.49 231.941 438.114 232.587C439.284 232.869 440.566 233.111 441.959 233.313C443.351 233.515 444.754 233.818 446.167 234.222C447.58 234.625 448.872 235.16 450.042 235.826C451.213 236.492 452.162 237.501 452.888 238.854C453.615 240.206 453.978 241.851 453.978 243.789V246.15C453.978 249.097 453.141 251.408 451.466 253.083C449.79 254.759 447.479 255.596 444.532 255.596H437.75C434.804 255.596 432.482 254.759 430.787 253.083C429.091 251.408 428.244 249.097 428.244 246.15ZM466.149 217.63V220.355C466.149 221.486 465.786 222.919 465.059 224.654L462.455 230.588C462.254 230.952 461.951 231.133 461.547 231.133C461.022 231.133 460.76 230.811 460.76 230.165V217.691C460.76 217.005 461.083 216.662 461.729 216.662H465.18C465.826 216.662 466.149 216.985 466.149 217.63ZM508.838 255.596H489.219C488.533 255.596 488.19 255.253 488.19 254.567V217.691C488.19 217.005 488.533 216.662 489.219 216.662H493.034C493.72 216.662 494.063 217.005 494.063 217.691V249.723C494.063 250.127 494.306 250.328 494.79 250.328H508.838C509.524 250.328 509.867 250.692 509.867 251.418V254.567C509.867 255.253 509.524 255.596 508.838 255.596ZM517.739 255.596H513.379C512.814 255.596 512.612 255.253 512.774 254.567L523.31 217.691C523.512 217.005 523.996 216.662 524.763 216.662H530.818C531.626 216.662 532.11 217.005 532.272 217.691L542.807 254.567C542.969 255.253 542.747 255.596 542.141 255.596H537.842C537.479 255.596 537.227 255.526 537.086 255.384C536.944 255.243 536.833 254.971 536.752 254.567L534.451 246.695H521.13L518.829 254.567C518.668 255.253 518.304 255.596 517.739 255.596ZM527.67 222.475L522.341 241.851H533.301L527.912 222.475H527.67ZM548.257 246.15V244.576C548.257 243.89 548.6 243.547 549.287 243.547H553.162C553.848 243.547 554.191 243.89 554.191 244.576V245.666C554.191 247.361 554.565 248.582 555.312 249.329C556.058 250.076 557.3 250.449 559.035 250.449H563.213C564.949 250.449 566.201 250.056 566.968 249.269C567.735 248.482 568.118 247.2 568.118 245.424V244.031C568.118 242.739 567.624 241.72 566.635 240.973C565.646 240.226 564.424 239.742 562.971 239.52C561.518 239.298 559.923 238.985 558.188 238.581C556.452 238.178 554.857 237.713 553.404 237.189C551.951 236.664 550.73 235.675 549.741 234.222C548.752 232.768 548.257 230.911 548.257 228.651V226.108C548.257 223.161 549.095 220.85 550.77 219.175C552.445 217.499 554.756 216.662 557.703 216.662H564.122C567.109 216.662 569.44 217.499 571.116 219.175C572.791 220.85 573.628 223.161 573.628 226.108V227.44C573.628 228.126 573.285 228.469 572.599 228.469H568.724C568.037 228.469 567.694 228.126 567.694 227.44V226.653C567.694 224.917 567.321 223.676 566.574 222.929C565.827 222.182 564.586 221.809 562.85 221.809H559.035C557.3 221.809 556.058 222.202 555.312 222.989C554.565 223.776 554.191 225.119 554.191 227.016V228.893C554.191 230.71 555.503 231.941 558.127 232.587C559.298 232.869 560.58 233.111 561.972 233.313C563.365 233.515 564.768 233.818 566.18 234.222C567.593 234.625 568.885 235.16 570.056 235.826C571.226 236.492 572.175 237.501 572.902 238.854C573.628 240.206 573.992 241.851 573.992 243.789V246.15C573.992 249.097 573.154 251.408 571.479 253.083C569.804 254.759 567.492 255.596 564.546 255.596H557.764C554.817 255.596 552.496 254.759 550.8 253.083C549.105 251.408 548.257 249.097 548.257 246.15ZM593.005 255.596H589.19C588.463 255.596 588.1 255.253 588.1 254.567V222.414C588.1 222.01 587.898 221.809 587.495 221.809H579.865C579.138 221.809 578.775 221.465 578.775 220.779V217.691C578.775 217.005 579.138 216.662 579.865 216.662H602.33C603.056 216.662 603.42 217.005 603.42 217.691V220.779C603.42 221.465 603.056 221.809 602.33 221.809H594.7C594.256 221.809 594.034 222.01 594.034 222.414V254.567C594.034 255.253 593.691 255.596 593.005 255.596ZM633.03 250.449H638.297C641.244 250.449 642.718 248.956 642.718 245.969V226.289C642.718 223.302 641.244 221.809 638.297 221.809H633.03C630.123 221.809 628.67 223.302 628.67 226.289V245.969C628.67 248.956 630.123 250.449 633.03 250.449ZM639.206 255.596H632.182C629.195 255.596 626.884 254.769 625.249 253.114C623.614 251.459 622.796 249.158 622.796 246.211V226.047C622.796 223.06 623.614 220.749 625.249 219.114C626.884 217.479 629.195 216.662 632.182 216.662H639.206C642.193 216.662 644.514 217.479 646.169 219.114C647.824 220.749 648.652 223.06 648.652 226.047V246.211C648.652 249.158 647.824 251.459 646.169 253.114C644.514 254.769 642.193 255.596 639.206 255.596ZM677.656 255.596H658.037C657.351 255.596 657.008 255.253 657.008 254.567V217.691C657.008 217.005 657.351 216.662 658.037 216.662H661.852C662.538 216.662 662.881 217.005 662.881 217.691V249.723C662.881 250.127 663.124 250.328 663.608 250.328H677.656C678.342 250.328 678.685 250.692 678.685 251.418V254.567C678.685 255.253 678.342 255.596 677.656 255.596ZM697.335 255.596H693.46C692.774 255.596 692.431 255.253 692.431 254.567V241.185L681.108 217.752C680.946 217.429 680.946 217.166 681.108 216.964C681.269 216.763 681.491 216.662 681.774 216.662H686.618C687.142 216.662 687.546 217.005 687.829 217.691L695.277 234.343H695.64L702.967 217.691C703.209 217.005 703.613 216.662 704.178 216.662H709.022C709.345 216.662 709.577 216.763 709.718 216.964C709.86 217.166 709.849 217.429 709.688 217.752L698.365 241.185V254.567C698.365 255.253 698.022 255.596 697.335 255.596ZM742.022 216.662H748.804C749.491 216.662 749.834 217.005 749.834 217.691V254.567C749.834 255.253 749.491 255.596 748.804 255.596H745.05C744.364 255.596 744.021 255.253 744.021 254.567V223.988H743.779L735.907 246.15C735.665 246.796 735.221 247.119 734.575 247.119H730.699C730.094 247.119 729.67 246.796 729.428 246.15L721.374 223.928H721.132V254.567C721.132 254.971 721.062 255.243 720.921 255.384C720.779 255.526 720.506 255.596 720.103 255.596H716.409C715.723 255.596 715.38 255.253 715.38 254.567V217.691C715.38 217.005 715.723 216.662 716.409 216.662H723.191C723.635 216.662 723.958 216.884 724.16 217.328L732.455 240.701H732.758L741.114 217.328C741.195 216.884 741.498 216.662 742.022 216.662ZM763.7 255.596H759.885C759.199 255.596 758.856 255.253 758.856 254.567V217.691C758.856 217.005 759.199 216.662 759.885 216.662H774.297C777.243 216.662 779.544 217.479 781.199 219.114C782.854 220.749 783.682 223.06 783.682 226.047V232.345C783.682 235.291 782.854 237.592 781.199 239.247C779.544 240.902 777.243 241.73 774.297 241.73H765.456C764.972 241.73 764.729 241.932 764.729 242.336V254.567C764.729 255.253 764.386 255.596 763.7 255.596ZM765.395 236.523H773.449C776.315 236.523 777.748 235.029 777.748 232.042V226.289C777.748 223.302 776.315 221.809 773.449 221.809H765.395C764.951 221.809 764.729 222.01 764.729 222.414V235.917C764.729 236.321 764.951 236.523 765.395 236.523ZM797.185 217.691V254.567C797.185 255.253 796.842 255.596 796.156 255.596H792.341C791.655 255.596 791.312 255.253 791.312 254.567V217.691C791.312 217.005 791.655 216.662 792.341 216.662H796.156C796.842 216.662 797.185 217.005 797.185 217.691ZM822.316 255.596H815.288C812.303 255.596 809.993 254.769 808.357 253.114C806.722 251.459 805.905 249.158 805.905 246.211V226.047C805.905 223.06 806.722 220.749 808.357 219.114C809.993 217.479 812.303 216.662 815.288 216.662H822.316C825.263 216.662 827.562 217.479 829.215 219.114C830.871 220.749 831.699 223.06 831.699 226.047V228.954C831.699 229.68 831.337 230.044 830.612 230.044H826.793C826.11 230.044 825.768 229.68 825.768 228.954V226.289C825.768 223.302 824.314 221.809 821.405 221.809H816.137C813.231 221.809 811.779 223.302 811.779 226.289V245.969C811.779 248.956 813.231 250.449 816.137 250.449H821.405C824.314 250.449 825.768 248.956 825.768 245.969V243.304C825.768 242.578 826.11 242.214 826.793 242.214H830.612C831.337 242.214 831.699 242.578 831.699 243.304V246.211C831.699 249.158 830.871 251.459 829.215 253.114C827.562 254.769 825.263 255.596 822.316 255.596ZM869.241 255.596H862.761C859.773 255.596 857.463 254.769 855.829 253.114C854.195 251.459 853.379 249.158 853.379 246.211V226.047C853.379 223.06 854.195 220.749 855.829 219.114C857.463 217.479 859.773 216.662 862.761 216.662H869.241C872.229 216.662 874.54 217.479 876.173 219.114C877.811 220.749 878.629 223.06 878.629 226.047V228.227C878.629 228.954 878.286 229.317 877.599 229.317H873.785C873.099 229.317 872.755 228.954 872.755 228.227V226.289C872.755 223.302 871.301 221.809 868.392 221.809H863.61C860.705 221.809 859.253 223.302 859.253 226.289V245.969C859.253 248.956 860.705 250.449 863.61 250.449H868.392C871.301 250.449 872.755 248.956 872.755 245.969V240.519C872.755 240.115 872.533 239.913 872.087 239.913H867.181C866.494 239.913 866.151 239.57 866.151 238.884V235.796C866.151 235.11 866.494 234.767 867.181 234.767H877.356C878.205 234.767 878.629 235.19 878.629 236.038V246.211C878.629 249.158 877.801 251.459 876.145 253.114C874.489 254.769 872.188 255.596 869.241 255.596ZM889.166 255.596H884.803C884.237 255.596 884.036 255.253 884.198 254.567L894.735 217.691C894.935 217.005 895.42 216.662 896.189 216.662H902.244C903.052 216.662 903.535 217.005 903.693 217.691L914.23 254.567C914.393 255.253 914.172 255.596 913.568 255.596H909.267C908.905 255.596 908.652 255.526 908.509 255.384C908.369 255.243 908.258 254.971 908.175 254.567L905.878 246.695H892.556L890.253 254.567C890.091 255.253 889.729 255.596 889.166 255.596ZM899.092 222.475L893.767 241.851H904.723L899.336 222.475H899.092ZM947.053 216.662H953.832C954.519 216.662 954.862 217.005 954.862 217.691V254.567C954.862 255.253 954.519 255.596 953.832 255.596H950.08C949.394 255.596 949.05 255.253 949.05 254.567V223.988H948.807L940.935 246.15C940.694 246.796 940.251 247.119 939.605 247.119H935.729C935.122 247.119 934.697 246.796 934.456 246.15L926.403 223.928H926.16V254.567C926.16 254.971 926.09 255.243 925.95 255.384C925.807 255.526 925.533 255.596 925.13 255.596H921.44C920.753 255.596 920.41 255.253 920.41 254.567V217.691C920.41 217.005 920.753 216.662 921.44 216.662H928.219C928.665 216.662 928.987 216.884 929.187 217.328L937.483 240.701H937.789L946.142 217.328C946.225 216.884 946.528 216.662 947.053 216.662ZM984.289 255.596H964.913C964.226 255.596 963.883 255.253 963.883 254.567V217.691C963.883 217.005 964.226 216.662 964.913 216.662H984.289C984.934 216.662 985.257 217.005 985.257 217.691V220.779C985.257 221.465 984.934 221.809 984.289 221.809H970.487C970 221.809 969.757 222.01 969.757 222.414V232.647C969.757 233.051 970 233.253 970.487 233.253H982.173C982.897 233.253 983.259 233.596 983.259 234.282V237.37C983.259 238.057 982.897 238.4 982.173 238.4H970.487C970 238.4 969.757 238.602 969.757 239.005V249.783C969.757 250.227 970 250.449 970.487 250.449H984.289C984.934 250.449 985.257 250.793 985.257 251.479V254.567C985.257 255.253 984.934 255.596 984.289 255.596ZM992.404 246.15V244.576C992.404 243.89 992.747 243.547 993.434 243.547H997.311C997.997 243.547 998.341 243.89 998.341 244.576V245.666C998.341 247.361 998.714 248.582 999.461 249.329C1000.21 250.076 1001.45 250.449 1003.18 250.449H1007.36C1009.1 250.449 1010.35 250.056 1011.11 249.269C1011.88 248.482 1012.27 247.2 1012.27 245.424V244.031C1012.27 242.739 1011.77 241.72 1010.78 240.973C1009.79 240.226 1008.57 239.742 1007.12 239.52C1005.67 239.298 1004.07 238.985 1002.34 238.581C1000.6 238.178 999.006 237.713 997.554 237.189C996.098 236.664 994.875 235.675 993.887 234.222C992.898 232.768 992.404 230.911 992.404 228.651V226.108C992.404 223.161 993.242 220.85 994.917 219.175C996.592 217.499 998.903 216.662 1001.85 216.662H1008.27C1011.25 216.662 1013.59 217.499 1015.26 219.175C1016.94 220.85 1017.77 223.161 1017.77 226.108V227.44C1017.77 228.126 1017.43 228.469 1016.74 228.469H1012.87C1012.19 228.469 1011.84 228.126 1011.84 227.44V226.653C1011.84 224.917 1011.47 223.676 1010.72 222.929C1009.98 222.182 1008.73 221.809 1007 221.809H1003.18C1001.45 221.809 1000.21 222.202 999.461 222.989C998.714 223.776 998.341 225.119 998.341 227.016V228.893C998.341 230.71 999.652 231.941 1002.27 232.587C1003.44 232.869 1004.73 233.111 1006.12 233.313C1007.51 233.515 1008.92 233.818 1010.33 234.222C1011.74 234.625 1013.03 235.16 1014.2 235.826C1015.37 236.492 1016.32 237.501 1017.05 238.854C1017.78 240.206 1018.14 241.851 1018.14 243.789V246.15C1018.14 249.097 1017.3 251.408 1015.62 253.083C1013.95 254.759 1011.64 255.596 1008.69 255.596H1001.91C998.965 255.596 996.643 254.759 994.945 253.083C993.251 251.408 992.404 249.097 992.404 246.15ZM253.976 295.22V332.096C253.976 332.782 253.633 333.125 252.947 333.125H249.132C248.446 333.125 248.103 332.782 248.103 332.096V295.22C248.103 294.534 248.446 294.19 249.132 294.19H252.947C253.633 294.19 253.976 294.534 253.976 295.22ZM268.085 333.125H264.33C263.644 333.125 263.301 332.782 263.301 332.096V295.22C263.301 294.534 263.644 294.19 264.33 294.19H267.721C268.367 294.19 268.811 294.412 269.053 294.856L283.707 321.196H283.949V295.22C283.949 294.534 284.292 294.19 284.979 294.19H288.733C289.419 294.19 289.762 294.534 289.762 295.22V332.096C289.762 332.782 289.419 333.125 288.733 333.125H285.463C284.817 333.125 284.292 332.802 283.889 332.156L269.356 306.119H269.114V332.096C269.114 332.782 268.771 333.125 268.085 333.125ZM324.034 333.125H320.22C319.493 333.125 319.13 332.782 319.13 332.096V299.943C319.13 299.539 318.928 299.337 318.524 299.337H310.895C310.168 299.337 309.805 298.994 309.805 298.308V295.22C309.805 294.534 310.168 294.19 310.895 294.19H333.359C334.086 294.19 334.449 294.534 334.449 295.22V298.308C334.449 298.994 334.086 299.337 333.359 299.337H325.73C325.286 299.337 325.064 299.539 325.064 299.943V332.096C325.064 332.782 324.721 333.125 324.034 333.125ZM344.682 333.125H340.868C340.181 333.125 339.838 332.782 339.838 332.096V295.22C339.838 294.534 340.181 294.19 340.868 294.19H344.682C345.369 294.19 345.712 294.534 345.712 295.22V310.358C345.712 310.761 345.954 310.963 346.438 310.963H359.215C359.619 310.963 359.82 310.761 359.82 310.358V295.22C359.82 294.534 360.164 294.19 360.85 294.19H364.725C365.411 294.19 365.754 294.534 365.754 295.22V332.096C365.754 332.782 365.411 333.125 364.725 333.125H360.85C360.164 333.125 359.82 332.782 359.82 332.096V316.776C359.82 316.372 359.619 316.171 359.215 316.171H346.438C345.954 316.171 345.712 316.372 345.712 316.776V332.096C345.712 332.782 345.369 333.125 344.682 333.125ZM395.183 333.125H375.806C375.12 333.125 374.777 332.782 374.777 332.096V295.22C374.777 294.534 375.12 294.19 375.806 294.19H395.183C395.828 294.19 396.151 294.534 396.151 295.22V298.308C396.151 298.994 395.828 299.337 395.183 299.337H381.377C380.892 299.337 380.65 299.539 380.65 299.943V310.176C380.65 310.58 380.892 310.782 381.377 310.782H393.063C393.79 310.782 394.153 311.125 394.153 311.811V314.899C394.153 315.585 393.79 315.928 393.063 315.928H381.377C380.892 315.928 380.65 316.13 380.65 316.534V327.312C380.65 327.756 380.892 327.978 381.377 327.978H395.183C395.828 327.978 396.151 328.321 396.151 329.008V332.096C396.151 332.782 395.828 333.125 395.183 333.125ZM417.889 323.679V322.105C417.889 321.418 418.233 321.075 418.919 321.075H422.794C423.48 321.075 423.823 321.418 423.823 322.105V323.195C423.823 324.89 424.197 326.111 424.944 326.858C425.691 327.605 426.932 327.978 428.668 327.978H432.846C434.581 327.978 435.833 327.585 436.6 326.797C437.367 326.01 437.75 324.729 437.75 322.952V321.56C437.75 320.268 437.256 319.249 436.267 318.502C435.278 317.755 434.057 317.271 432.603 317.049C431.15 316.827 429.556 316.514 427.82 316.11C426.084 315.706 424.49 315.242 423.036 314.717C421.583 314.193 420.362 313.204 419.373 311.75C418.384 310.297 417.889 308.44 417.889 306.18V303.636C417.889 300.69 418.727 298.378 420.403 296.703C422.078 295.028 424.389 294.19 427.335 294.19H433.754C436.741 294.19 439.073 295.028 440.748 296.703C442.423 298.378 443.261 300.69 443.261 303.636V304.969C443.261 305.655 442.917 305.998 442.231 305.998H438.356C437.67 305.998 437.327 305.655 437.327 304.969V304.181C437.327 302.446 436.953 301.204 436.207 300.458C435.46 299.711 434.218 299.337 432.482 299.337H428.668C426.932 299.337 425.691 299.731 424.944 300.518C424.197 301.305 423.823 302.647 423.823 304.545V306.422C423.823 308.238 425.135 309.47 427.759 310.115C428.93 310.398 430.212 310.64 431.605 310.842C432.997 311.044 434.4 311.347 435.813 311.75C437.226 312.154 438.517 312.689 439.688 313.355C440.859 314.021 441.807 315.03 442.534 316.383C443.261 317.735 443.624 319.38 443.624 321.318V323.679C443.624 326.626 442.786 328.937 441.111 330.612C439.436 332.287 437.125 333.125 434.178 333.125H427.396C424.449 333.125 422.128 332.287 420.433 330.612C418.737 328.937 417.889 326.626 417.889 323.679ZM461.608 327.978H466.876C469.823 327.978 471.296 326.485 471.296 323.497V303.818C471.296 300.831 469.823 299.337 466.876 299.337H461.608C458.701 299.337 457.248 300.831 457.248 303.818V323.497C457.248 326.485 458.701 327.978 461.608 327.978ZM467.784 333.125H460.76C457.773 333.125 455.462 332.298 453.827 330.642C452.192 328.987 451.374 326.686 451.374 323.74V303.576C451.374 300.589 452.192 298.278 453.827 296.643C455.462 295.008 457.773 294.19 460.76 294.19H467.784C470.771 294.19 473.092 295.008 474.747 296.643C476.403 298.278 477.23 300.589 477.23 303.576V323.74C477.23 326.686 476.403 328.987 474.747 330.642C473.092 332.298 470.771 333.125 467.784 333.125ZM506.234 333.125H486.616C485.929 333.125 485.586 332.782 485.586 332.096V295.22C485.586 294.534 485.929 294.19 486.616 294.19H490.43C491.117 294.19 491.46 294.534 491.46 295.22V327.252C491.46 327.655 491.702 327.857 492.186 327.857H506.234C506.921 327.857 507.264 328.22 507.264 328.947V332.096C507.264 332.782 506.921 333.125 506.234 333.125ZM515.135 333.125H510.776C510.211 333.125 510.009 332.782 510.17 332.096L520.706 295.22C520.908 294.534 521.392 294.19 522.159 294.19H528.215C529.022 294.19 529.506 294.534 529.668 295.22L540.204 332.096C540.365 332.782 540.143 333.125 539.538 333.125H535.239C534.875 333.125 534.623 333.055 534.482 332.913C534.34 332.772 534.229 332.499 534.149 332.096L531.848 324.224H518.526L516.225 332.096C516.064 332.782 515.701 333.125 515.135 333.125ZM525.066 300.003L519.737 319.38H530.697L525.308 300.003H525.066ZM551.224 333.125H547.409C546.723 333.125 546.38 332.782 546.38 332.096V295.22C546.38 294.534 546.723 294.19 547.409 294.19H561.579C564.525 294.19 566.837 295.028 568.512 296.703C570.187 298.378 571.025 300.69 571.025 303.636V308.723C571.025 313.365 569.107 316.292 565.272 317.503V317.745L571.993 331.914C572.438 332.721 572.175 333.125 571.206 333.125H567.452C566.483 333.125 565.858 332.782 565.575 332.096L559.096 318.169H552.98C552.496 318.169 552.254 318.371 552.254 318.774V332.096C552.254 332.782 551.91 333.125 551.224 333.125ZM552.92 313.325H560.61C563.597 313.325 565.091 311.851 565.091 308.904V303.818C565.091 300.831 563.597 299.337 560.61 299.337H552.92C552.476 299.337 552.254 299.539 552.254 299.943V312.719C552.254 313.123 552.476 313.325 552.92 313.325ZM593.247 323.679V322.105C593.247 321.418 593.59 321.075 594.276 321.075H598.152C598.838 321.075 599.181 321.418 599.181 322.105V323.195C599.181 324.89 599.555 326.111 600.302 326.858C601.048 327.605 602.289 327.978 604.025 327.978H608.203C609.939 327.978 611.19 327.585 611.957 326.797C612.724 326.01 613.108 324.729 613.108 322.952V321.56C613.108 320.268 612.614 319.249 611.625 318.502C610.636 317.755 609.414 317.271 607.961 317.049C606.508 316.827 604.913 316.514 603.177 316.11C601.442 315.706 599.847 315.242 598.394 314.717C596.941 314.193 595.72 313.204 594.731 311.75C593.742 310.297 593.247 308.44 593.247 306.18V303.636C593.247 300.69 594.085 298.378 595.76 296.703C597.435 295.028 599.746 294.19 602.693 294.19H609.112C612.099 294.19 614.43 295.028 616.106 296.703C617.781 298.378 618.618 300.69 618.618 303.636V304.969C618.618 305.655 618.275 305.998 617.589 305.998H613.714C613.027 305.998 612.684 305.655 612.684 304.969V304.181C612.684 302.446 612.311 301.204 611.564 300.458C610.817 299.711 609.576 299.337 607.84 299.337H604.025C602.289 299.337 601.048 299.731 600.302 300.518C599.555 301.305 599.181 302.647 599.181 304.545V306.422C599.181 308.238 600.493 309.47 603.117 310.115C604.288 310.398 605.569 310.64 606.962 310.842C608.355 311.044 609.757 311.347 611.17 311.75C612.583 312.154 613.875 312.689 615.046 313.355C616.216 314.021 617.165 315.03 617.892 316.383C618.618 317.735 618.981 319.38 618.981 321.318V323.679C618.981 326.626 618.144 328.937 616.469 330.612C614.793 332.287 612.482 333.125 609.535 333.125H602.754C599.807 333.125 597.486 332.287 595.79 330.612C594.095 328.937 593.247 326.626 593.247 323.679ZM640.235 333.125H636.36C635.674 333.125 635.33 332.782 635.33 332.096V318.714L624.007 295.28C623.846 294.957 623.846 294.695 624.007 294.493C624.169 294.291 624.391 294.19 624.673 294.19H629.517C630.042 294.19 630.446 294.534 630.729 295.22L638.176 311.871H638.54L645.866 295.22C646.109 294.534 646.512 294.19 647.077 294.19H651.922C652.245 294.19 652.477 294.291 652.618 294.493C652.759 294.695 652.749 294.957 652.588 295.28L641.265 318.714V332.096C641.265 332.782 640.921 333.125 640.235 333.125ZM657.553 323.679V322.105C657.553 321.418 657.896 321.075 658.582 321.075H662.458C663.144 321.075 663.487 321.418 663.487 322.105V323.195C663.487 324.89 663.86 326.111 664.607 326.858C665.354 327.605 666.595 327.978 668.331 327.978H672.509C674.245 327.978 675.496 327.585 676.263 326.797C677.03 326.01 677.414 324.729 677.414 322.952V321.56C677.414 320.268 676.919 319.249 675.931 318.502C674.941 317.755 673.72 317.271 672.267 317.049C670.814 316.827 669.219 316.514 667.483 316.11C665.748 315.706 664.153 315.242 662.7 314.717C661.247 314.193 660.026 313.204 659.037 311.75C658.047 310.297 657.553 308.44 657.553 306.18V303.636C657.553 300.69 658.391 298.378 660.066 296.703C661.741 295.028 664.052 294.19 666.999 294.19H673.417C676.405 294.19 678.736 295.028 680.411 296.703C682.086 298.378 682.924 300.69 682.924 303.636V304.969C682.924 305.655 682.581 305.998 681.895 305.998H678.019C677.333 305.998 676.99 305.655 676.99 304.969V304.181C676.99 302.446 676.617 301.204 675.87 300.458C675.123 299.711 673.882 299.337 672.146 299.337H668.331C666.595 299.337 665.354 299.731 664.607 300.518C663.86 301.305 663.487 302.647 663.487 304.545V306.422C663.487 308.238 664.799 309.47 667.423 310.115C668.594 310.398 669.875 310.64 671.268 310.842C672.661 311.044 674.063 311.347 675.476 311.75C676.889 312.154 678.181 312.689 679.352 313.355C680.522 314.021 681.471 315.03 682.197 316.383C682.924 317.735 683.287 319.38 683.287 321.318V323.679C683.287 326.626 682.45 328.937 680.775 330.612C679.099 332.287 676.788 333.125 673.841 333.125H667.06C664.113 333.125 661.792 332.287 660.096 330.612C658.401 328.937 657.553 326.626 657.553 323.679ZM702.301 333.125H698.486C697.759 333.125 697.396 332.782 697.396 332.096V299.943C697.396 299.539 697.194 299.337 696.79 299.337H689.161C688.434 299.337 688.071 298.994 688.071 298.308V295.22C688.071 294.534 688.434 294.19 689.161 294.19H711.626C712.352 294.19 712.716 294.534 712.716 295.22V298.308C712.716 298.994 712.352 299.337 711.626 299.337H703.996C703.552 299.337 703.33 299.539 703.33 299.943V332.096C703.33 332.782 702.987 333.125 702.301 333.125ZM738.51 333.125H719.134C718.448 333.125 718.105 332.782 718.105 332.096V295.22C718.105 294.534 718.448 294.19 719.134 294.19H738.51C739.156 294.19 739.479 294.534 739.479 295.22V298.308C739.479 298.994 739.156 299.337 738.51 299.337H724.705C724.22 299.337 723.978 299.539 723.978 299.943V310.176C723.978 310.58 724.22 310.782 724.705 310.782H736.391C737.118 310.782 737.481 311.125 737.481 311.811V314.899C737.481 315.585 737.118 315.928 736.391 315.928H724.705C724.22 315.928 723.978 316.13 723.978 316.534V327.312C723.978 327.756 724.22 327.978 724.705 327.978H738.51C739.156 327.978 739.479 328.321 739.479 329.008V332.096C739.479 332.782 739.156 333.125 738.51 333.125ZM773.994 294.19H780.776C781.462 294.19 781.805 294.534 781.805 295.22V332.096C781.805 332.782 781.462 333.125 780.776 333.125H777.021C776.335 333.125 775.992 332.782 775.992 332.096V301.517H775.75L767.878 323.679C767.636 324.325 767.192 324.648 766.546 324.648H762.671C762.065 324.648 761.641 324.325 761.399 323.679L753.346 301.457H753.103V332.096C753.103 332.499 753.033 332.772 752.891 332.913C752.75 333.055 752.478 333.125 752.074 333.125H748.38C747.694 333.125 747.351 332.782 747.351 332.096V295.22C747.351 294.534 747.694 294.19 748.38 294.19H755.162C755.606 294.19 755.929 294.412 756.131 294.856L764.427 318.229H764.729L773.086 294.856C773.166 294.412 773.469 294.19 773.994 294.19Z" fill="black"/>
<path d="M1006.5 78.8964H1024.04V57.958H1006.5V78.8964Z" fill="#EE334E"/>
</svg>
