<svg width="1019" height="1025" viewBox="0 0 1019 1025" fill="none" xmlns="http://www.w3.org/2000/svg">
<path fill-rule="evenodd" clip-rule="evenodd" d="M890.831 85.9394C887.795 83.4455 887.356 78.9628 889.85 75.927C892.344 72.8912 896.826 72.4519 899.862 74.9458C902.898 77.4397 903.337 81.9224 900.843 84.9582C898.35 87.994 893.867 88.4333 890.831 85.9394ZM888.72 88.5097C884.264 84.8497 883.619 78.2709 887.28 73.8155C890.94 69.3602 897.518 68.7155 901.974 72.3755C906.429 76.0355 907.074 82.6144 903.414 87.0697C899.754 91.5251 893.175 92.1698 888.72 88.5097Z" fill="black"/>
<path fill-rule="evenodd" clip-rule="evenodd" d="M908.532 64.3924C907.937 63.9039 907.851 63.0257 908.34 62.431C908.828 61.8363 909.706 61.7503 910.301 62.2388C910.896 62.7274 910.982 63.6055 910.493 64.2002C910.005 64.7949 909.127 64.881 908.532 64.3924ZM906.421 66.9627C904.406 65.3081 904.115 62.3338 905.769 60.3195C907.424 58.3053 910.398 58.0138 912.413 59.6685C914.427 61.3232 914.718 64.2975 913.064 66.3117C911.409 68.326 908.435 68.6174 906.421 66.9627Z" fill="black"/>
<path fill-rule="evenodd" clip-rule="evenodd" d="M854.89 129.692C850.569 126.142 849.944 119.763 853.493 115.442C857.043 111.122 863.422 110.497 867.743 114.046C872.063 117.595 872.688 123.975 869.139 128.295C865.59 132.616 859.21 133.241 854.89 129.692ZM852.778 132.262C847.038 127.547 846.208 119.071 850.923 113.331C855.638 107.591 864.114 106.76 869.854 111.476C875.594 116.191 876.425 124.667 871.709 130.407C866.994 136.147 858.518 136.977 852.778 132.262Z" fill="black"/>
<path fill-rule="evenodd" clip-rule="evenodd" d="M913.12 61.4279L921.837 50.8177L919.266 48.7062L910.55 59.3164L913.12 61.4279Z" fill="black"/>
<path fill-rule="evenodd" clip-rule="evenodd" d="M902.288 74.6145L908.109 67.5279L905.539 65.4164L899.717 72.503L902.288 74.6145Z" fill="black"/>
<path fill-rule="evenodd" clip-rule="evenodd" d="M848.352 140.27L855.269 131.85L852.699 129.738L845.782 138.159L848.352 140.27Z" fill="black"/>
<path fill-rule="evenodd" clip-rule="evenodd" d="M829.797 126.892L850.429 123.508L849.89 120.225L829.258 123.61L829.797 126.892Z" fill="black"/>
<path fill-rule="evenodd" clip-rule="evenodd" d="M862.506 153.763L861.821 132.867L865.146 132.758L865.831 153.654L862.506 153.763Z" fill="black"/>
<path fill-rule="evenodd" clip-rule="evenodd" d="M873.373 117.673L895.661 90.5387L893.091 88.4274L870.803 115.561L873.373 117.673Z" fill="black"/>
<path fill-rule="evenodd" clip-rule="evenodd" d="M865.662 111.338L887.95 84.2043L885.38 82.0929L863.092 109.227L865.662 111.338Z" fill="black"/>
<path fill-rule="evenodd" clip-rule="evenodd" d="M509.732 981.115C766.998 981.115 975.554 772.559 975.554 515.293C975.554 258.027 766.998 49.4709 509.732 49.4709C252.466 49.4709 43.9099 258.027 43.9099 515.293C43.9099 772.559 252.466 981.115 509.732 981.115ZM509.732 1024.52C790.97 1024.52 1018.96 796.531 1018.96 515.293C1018.96 234.055 790.97 6.06714 509.732 6.06714C228.494 6.06714 0.506104 234.055 0.506104 515.293C0.506104 796.531 228.494 1024.52 509.732 1024.52Z" fill="#0081C8"/>
<path fill-rule="evenodd" clip-rule="evenodd" d="M560.065 949.48C700.587 949.48 814.502 835.564 814.502 695.043C814.502 554.521 700.587 440.606 560.065 440.606C419.544 440.606 305.628 554.521 305.628 695.043C305.628 835.564 419.544 949.48 560.065 949.48ZM560.065 992.883C724.558 992.883 857.906 859.536 857.906 695.043C857.906 530.55 724.558 397.202 560.065 397.202C395.572 397.202 262.225 530.55 262.225 695.043C262.225 859.536 395.572 992.883 560.065 992.883Z" fill="#EE334E"/>
<path fill-rule="evenodd" clip-rule="evenodd" d="M502.258 730.469C607.003 730.469 691.915 645.556 691.915 540.811C691.915 436.066 607.003 351.154 502.258 351.154C397.513 351.154 312.601 436.066 312.601 540.811C312.601 645.556 397.513 730.469 502.258 730.469ZM502.258 773.872C630.974 773.872 735.319 669.527 735.319 540.811C735.319 412.095 630.974 307.75 502.258 307.75C373.542 307.75 269.197 412.095 269.197 540.811C269.197 669.527 373.542 773.872 502.258 773.872Z" fill="#00A651"/>
<path fill-rule="evenodd" clip-rule="evenodd" d="M439.67 766.211C619.834 766.211 765.886 620.159 765.886 439.995C765.886 259.831 619.834 113.779 439.67 113.779C259.506 113.779 113.454 259.831 113.454 439.995C113.454 620.159 259.506 766.211 439.67 766.211ZM439.67 809.614C643.805 809.614 809.29 644.13 809.29 439.995C809.29 235.859 643.805 70.3751 439.67 70.3751C235.535 70.3751 70.0505 235.859 70.0505 439.995C70.0505 644.13 235.535 809.614 439.67 809.614Z" fill="#FCB131"/>
<path fill-rule="evenodd" clip-rule="evenodd" d="M481.042 716.572C545.431 716.572 597.628 664.374 597.628 599.985C597.628 535.596 545.431 483.398 481.042 483.398C416.652 483.398 364.455 535.596 364.455 599.985C364.455 664.374 416.652 716.572 481.042 716.572ZM481.042 759.976C569.402 759.976 641.032 688.346 641.032 599.985C641.032 511.625 569.402 439.995 481.042 439.995C392.681 439.995 321.051 511.625 321.051 599.985C321.051 688.346 392.681 759.976 481.042 759.976Z" fill="black"/>
<path d="M661.482 14.0935L661.222 15.1023C661.025 15.8683 661.168 16.5524 661.65 17.1546C662.132 17.7569 662.803 18.1686 663.663 18.3898L665.904 18.967C666.801 19.1978 667.589 19.1916 668.27 18.9484C668.968 18.71 669.419 18.1985 669.621 17.4138L669.888 16.377C669.998 15.9473 669.835 15.497 669.399 15.0261C668.981 14.56 668.43 14.0695 667.746 13.5548C667.066 13.0213 666.315 12.4593 665.491 11.8687C664.69 11.2642 663.969 10.6205 663.329 9.93763C662.688 9.25473 662.187 8.52836 661.828 7.75853C661.492 6.97483 661.437 6.14396 661.663 5.26593L662.124 3.4725C662.259 2.94942 662.499 2.48321 662.843 2.07389C663.192 1.64588 663.618 1.3073 664.12 1.05816C664.646 0.795143 665.228 0.62609 665.865 0.551C666.501 0.47591 667.184 0.532147 667.913 0.719709L670.435 1.36896C671.219 1.57096 671.9 1.8658 672.478 2.25349C673.055 2.64119 673.518 3.0889 673.865 3.59664C674.231 4.10918 674.471 4.64891 674.584 5.21584C674.697 5.78276 674.681 6.34644 674.537 6.90689L674.024 8.89647L671.39 8.21836L671.773 6.73318C671.955 6.02328 671.822 5.38135 671.372 4.8074C670.941 4.23825 670.333 3.85269 669.548 3.6507L667.727 3.18179C667.017 2.99904 666.359 3.03889 665.754 3.30135C665.153 3.54513 664.769 3.99395 664.601 4.6478L664.319 5.74067C664.18 6.28243 664.309 6.82374 664.708 7.36458C665.13 7.89155 665.678 8.43111 666.353 8.98324C667.046 9.54018 667.796 10.1115 668.601 10.6973C669.406 11.2831 670.134 11.8988 670.785 12.5443C671.459 13.176 671.976 13.837 672.336 14.5273C672.719 15.2037 672.815 15.9155 672.623 16.6628L672.125 18.5963C671.966 19.2128 671.689 19.749 671.293 20.2047C670.901 20.6418 670.415 20.9846 669.833 21.2332C669.269 21.4866 668.625 21.6295 667.9 21.6618C667.174 21.6942 666.401 21.6046 665.579 21.393L662.916 20.7076C662.076 20.4912 661.339 20.182 660.705 19.7798C660.095 19.3638 659.598 18.8972 659.213 18.3798C658.833 17.8438 658.58 17.2806 658.453 16.6901C658.326 16.0997 658.337 15.515 658.486 14.9358L658.876 13.4226L661.482 14.0935Z" fill="black"/>
<path d="M673.097 23.8293L680.33 4.87842L682.871 5.84825L679.807 13.8774L687.944 16.9829L691.008 8.95379L693.523 9.9133L686.29 28.8642L683.776 27.9047L687.088 19.2267L678.951 16.1212L675.639 24.7991L673.097 23.8293Z" fill="black"/>
<path d="M705.131 14.3896L702.957 35.8205L700.461 34.6691L701.095 28.8748L694.237 25.7115L690.293 29.9786L687.796 28.8272L702.688 13.2625L705.131 14.3896ZM695.952 23.8579L701.391 26.3667L702.452 16.8821L695.952 23.8579Z" fill="black"/>
<path d="M704.029 36.1992L711.876 17.4944L714.411 18.5578L716.472 36.0847L722.416 21.9161L724.898 22.9571L717.051 41.6619L714.516 40.5985L712.459 23.1361L706.538 37.2514L704.029 36.1992Z" fill="black"/>
<path d="M735.292 33.9959L735.897 32.4307C736.183 31.6931 736.157 31.0109 735.82 30.3842C735.502 29.7645 734.983 29.3154 734.263 29.0369L731.241 27.8675C730.539 27.596 729.853 27.5787 729.182 27.8155C728.529 28.0594 728.06 28.5501 727.775 29.2877L723.953 39.1647C723.667 39.9023 723.684 40.581 724.003 41.2008C724.339 41.8274 724.859 42.2765 725.56 42.548L728.583 43.7175C729.302 43.9959 729.989 44.0132 730.641 43.7694C731.312 43.5325 731.79 43.0453 732.076 42.3077L733.245 39.2852L729.035 37.6563L729.912 35.3895L736.632 37.9894L734.397 43.7645C734.182 44.3222 733.859 44.8077 733.431 45.221C733.002 45.6342 732.504 45.9587 731.937 46.1944C731.377 46.4121 730.755 46.523 730.071 46.5272C729.394 46.5133 728.695 46.3672 727.975 46.0888L724.548 44.7627C723.811 44.4772 723.178 44.1083 722.65 43.6557C722.128 43.1851 721.725 42.6774 721.439 42.1325C721.161 41.5697 721.002 40.9911 720.963 40.3969C720.924 39.8026 721.012 39.2267 721.228 38.669L725.426 27.8205C725.642 27.2627 725.964 26.7773 726.393 26.364C726.821 25.9508 727.325 25.6388 727.903 25.428C728.488 25.1993 729.128 25.0953 729.823 25.1161C730.525 25.1189 731.245 25.263 731.983 25.5484L735.41 26.8745C736.13 27.153 736.741 27.524 737.244 27.9876C737.754 28.4332 738.14 28.9339 738.4 29.4898C738.668 30.0278 738.821 30.5938 738.86 31.1881C738.899 31.7823 738.811 32.3583 738.595 32.916L737.801 34.967L735.292 33.9959Z" fill="black"/>
<path d="M733.87 48.8512L743.297 30.891L745.706 32.1552L741.711 39.7646L749.423 43.8126L753.418 36.2032L755.8 37.4539L746.373 55.4141L743.99 54.1634L748.307 45.9391L740.595 41.8911L736.278 50.1154L733.87 48.8512Z" fill="black"/>
<path d="M766.014 42.372L762.444 63.615L760.029 62.3029L761.039 56.5624L754.403 52.9577L750.188 56.958L747.773 55.6459L763.649 41.0875L766.014 42.372ZM756.236 51.2201L761.499 54.0791L763.178 44.684L756.236 51.2201Z" fill="black"/>
<path d="M764.75 64.6322L773.879 46.5183L776.308 47.7424L767.179 65.8563L764.75 64.6322Z" fill="black"/>
<path d="M795.334 66.8173C795.758 66.7118 796.141 66.541 796.481 66.3047C796.847 66.0603 797.146 65.7155 797.377 65.2705L797.844 64.3719C798.209 63.6701 798.259 62.9893 797.993 62.3294C797.744 61.6784 797.278 61.1749 796.593 60.819L795.361 60.1784C794.676 59.8225 793.987 59.7254 793.294 59.8871C792.619 60.0577 792.099 60.4938 791.734 61.1956L791.253 62.1199L788.866 60.8787L789.586 59.4923C789.862 58.9617 790.236 58.5146 790.707 58.151C791.179 57.7874 791.705 57.5282 792.286 57.3734C792.892 57.2104 793.531 57.173 794.203 57.2612C794.883 57.3323 795.575 57.5502 796.276 57.915L797.919 58.7691C798.621 59.1339 799.192 59.5829 799.633 60.1162C800.082 60.6323 800.401 61.1895 800.59 61.7878C800.805 62.3779 800.89 62.9875 800.846 63.6167C800.801 64.2458 800.632 64.8428 800.339 65.4077L799.338 67.3332C798.751 68.4629 797.769 69.1593 796.393 69.4224C796.15 69.5135 795.8 69.5813 795.342 69.6259C794.91 69.6622 794.404 69.6931 793.826 69.7185C793.273 69.7357 792.691 69.7481 792.078 69.7558C791.482 69.7723 790.904 69.7977 790.343 69.832C789.79 69.8492 789.285 69.8801 788.827 69.9247C788.386 69.9781 788.049 70.0419 787.814 70.1158C787.416 70.2131 787.051 70.3929 786.719 70.6551C786.387 70.9174 786.105 71.271 785.874 71.716L785.433 72.5633L794.522 77.2877L793.401 79.4444L781.873 73.4521L783.675 69.9861C784.031 69.3014 784.501 68.7523 785.086 68.3387C785.696 67.9169 786.382 67.6429 787.143 67.5169C787.508 67.4018 788.07 67.3243 788.83 67.2845C789.598 67.2276 790.401 67.1884 791.239 67.1671C792.102 67.1375 792.914 67.1028 793.673 67.063C794.433 67.0232 794.987 66.9413 795.334 66.8173Z" fill="black"/>
<path d="M802.319 82.3687C802.953 82.7733 803.614 82.9204 804.302 82.8102C805.007 82.7103 805.571 82.327 805.997 81.6602L811.692 72.7313C812.117 72.0645 812.227 71.3907 812.02 70.7099C811.83 70.0394 811.418 69.5019 810.784 69.0974L809.003 67.9614C808.368 67.5569 807.699 67.4045 806.995 67.5044C806.307 67.6146 805.75 68.0032 805.325 68.67L799.629 77.5989C799.204 78.2657 799.087 78.9343 799.277 79.6047C799.483 80.2855 799.904 80.8282 800.538 81.2328L802.319 82.3687ZM799.109 83.2042C798.442 82.7789 797.894 82.2923 797.466 81.7444C797.048 81.1803 796.752 80.603 796.58 80.0125C796.418 79.4057 796.376 78.8072 796.455 78.2169C796.534 77.6267 796.735 77.0795 797.056 76.5753L803.312 66.7682C803.633 66.264 804.045 65.8516 804.547 65.5311C805.049 65.2106 805.604 65.004 806.212 64.9114C806.83 64.8026 807.478 64.827 808.156 64.9845C808.844 65.1258 809.521 65.4091 810.188 65.8344L812.335 67.2037C812.985 67.6187 813.503 68.0978 813.889 68.6412C814.301 69.1787 814.58 69.7457 814.726 70.3421C814.899 70.9326 814.937 71.5178 814.842 72.0976C814.763 72.6879 814.562 73.2351 814.241 73.7393L807.986 83.5464C807.664 84.0506 807.252 84.463 806.75 84.7835C806.265 85.1144 805.713 85.3343 805.094 85.4431C804.502 85.5461 803.87 85.5321 803.199 85.4012C802.554 85.2644 801.906 84.9885 801.256 84.5736L799.109 83.2042Z" fill="black"/>
<path d="M828.387 77.2234L821.308 87.9794L823.314 89.2998L821.993 91.3059L819.987 89.9855L817.251 94.1429L815.003 92.6634L817.739 88.5061L810.972 84.0518L812.292 82.0456L826.139 75.744L828.387 77.2234ZM819.06 86.4999L823.784 79.3212L814.54 83.5251L819.06 86.4999Z" fill="black"/>
<path d="M841.504 86.5158L833.957 96.9492L835.903 98.3567L834.496 100.303L832.55 98.8952L829.633 102.928L827.452 101.351L830.369 97.3181L823.804 92.5698L825.212 90.6237L839.323 84.9387L841.504 86.5158ZM831.777 95.3721L836.813 88.4087L827.392 92.2009L831.777 95.3721Z" fill="black"/>
<path fill-rule="evenodd" clip-rule="evenodd" d="M209.801 642.469L199.671 634.281L205.128 627.53L215.258 635.718C217.123 637.225 217.412 639.958 215.905 641.822C214.398 643.686 211.666 643.976 209.801 642.469Z" fill="#FCB131"/>
<path fill-rule="evenodd" clip-rule="evenodd" d="M205.495 628.028C206.732 629.211 206.776 631.174 205.592 632.411L198.479 639.848C197.836 640.521 196.945 640.901 196.015 640.901H184.193C182.481 640.901 181.093 639.513 181.093 637.801C181.093 636.089 182.481 634.701 184.193 634.701H194.822L201.111 628.125C202.295 626.888 204.257 626.844 205.495 628.028Z" fill="#FCB131"/>
<path fill-rule="evenodd" clip-rule="evenodd" d="M206.132 636.853C207.379 638.027 207.438 639.989 206.265 641.236L195.785 652.37C194.611 653.617 192.649 653.677 191.402 652.503C190.155 651.33 190.096 649.368 191.27 648.121L201.749 636.986C202.923 635.739 204.885 635.68 206.132 636.853Z" fill="#FCB131"/>
<path fill-rule="evenodd" clip-rule="evenodd" d="M213.826 620.606C215.539 620.606 216.927 621.994 216.927 623.706V646.397H222.931C224.644 646.397 226.032 647.785 226.032 649.497C226.032 651.209 224.644 652.598 222.931 652.598H215.376C212.808 652.598 210.726 650.515 210.726 647.947V623.706C210.726 621.994 212.114 620.606 213.826 620.606Z" fill="#FCB131"/>
<path d="M227.622 640.053C227.622 642.643 225.522 644.743 222.932 644.743C220.341 644.743 218.241 642.643 218.241 640.053C218.241 637.463 220.341 635.363 222.932 635.363C225.522 635.363 227.622 637.463 227.622 640.053Z" fill="#FCB131"/>
<path fill-rule="evenodd" clip-rule="evenodd" d="M894.752 727.275L888.041 712.694L895.926 709.065L902.638 723.645L894.752 727.275Z" fill="#0081C8"/>
<path fill-rule="evenodd" clip-rule="evenodd" d="M896.946 692.127C898.556 691.545 900.334 692.378 900.916 693.988L904.747 704.58C905.378 706.324 904.5 708.253 902.769 708.921L885.009 715.783L886.717 726.976C886.975 728.669 885.812 730.25 884.119 730.508C882.427 730.767 880.845 729.604 880.587 727.911L878.542 714.503C878.3 712.921 879.191 711.384 880.684 710.807L897.988 704.122L895.085 696.097C894.503 694.487 895.336 692.71 896.946 692.127Z" fill="#0081C8"/>
<path fill-rule="evenodd" clip-rule="evenodd" d="M910.798 726.116L915.042 734.169C915.84 735.683 917.716 736.264 919.23 735.466C920.745 734.668 921.326 732.793 920.527 731.278L915.728 722.171C914.486 719.814 911.605 718.859 909.201 720.007L894.639 726.963L905.539 751.531C906.234 753.096 908.065 753.802 909.631 753.107C911.196 752.413 911.901 750.581 911.207 749.016L902.752 729.96L910.798 726.116Z" fill="#0081C8"/>
<path d="M893.228 701.259C893.228 703.849 891.129 705.949 888.538 705.949C885.948 705.949 883.848 703.849 883.848 701.259C883.848 698.668 885.948 696.569 888.538 696.569C891.129 696.569 893.228 698.668 893.228 701.259Z" fill="#0081C8"/>
<path d="M644.545 898.101C644.545 900.523 642.581 902.487 640.158 902.487C637.735 902.487 635.772 900.523 635.772 898.101C635.772 895.678 637.735 893.714 640.158 893.714C642.581 893.714 644.545 895.678 644.545 898.101Z" fill="#EE334E"/>
<path fill-rule="evenodd" clip-rule="evenodd" d="M667.628 926.155L648.387 917.108L648.915 915.986L668.156 925.033L667.628 926.155Z" fill="#EE334E"/>
<path d="M676.045 920.371C676.045 921.707 674.961 922.791 673.625 922.791C672.288 922.791 671.205 921.707 671.205 920.371C671.205 919.034 672.288 917.951 673.625 917.951C674.961 917.951 676.045 919.034 676.045 920.371Z" fill="#EE334E"/>
<path fill-rule="evenodd" clip-rule="evenodd" d="M638.006 902.434C640.254 903.267 641.401 905.764 640.569 908.012L635.943 920.501L627.803 917.486L632.428 904.997C633.261 902.749 635.758 901.602 638.006 902.434Z" fill="#EE334E"/>
<path fill-rule="evenodd" clip-rule="evenodd" d="M634.191 907.77C635.111 906.325 637.027 905.899 638.471 906.818L648.648 913.294C650.092 914.214 650.518 916.13 649.599 917.574C648.68 919.019 646.763 919.445 645.319 918.526L635.143 912.05C633.698 911.13 633.272 909.214 634.191 907.77Z" fill="#EE334E"/>
<path fill-rule="evenodd" clip-rule="evenodd" d="M627.804 919.642C627.052 917.112 629.335 914.723 631.897 915.361L637.495 916.754C639.199 917.178 640.674 918.244 641.613 919.728L648.679 930.906C649.594 932.353 649.162 934.268 647.715 935.183C646.268 936.098 644.353 935.666 643.438 934.219L636.372 923.041C636.286 922.907 636.152 922.81 635.997 922.771L635.141 922.558L636.031 925.549C636.799 928.133 634.863 930.729 632.168 930.729H624.009C622.297 930.729 620.909 929.341 620.909 927.628C620.909 925.916 622.297 924.528 624.009 924.528H629.258L627.804 919.642Z" fill="#EE334E"/>
<path fill-rule="evenodd" clip-rule="evenodd" d="M383.323 295.343C385.537 294.424 388.077 295.475 388.995 297.689L393.757 309.171C394.675 311.386 393.624 313.925 391.41 314.843C389.196 315.762 386.656 314.711 385.738 312.497L380.976 301.015C380.058 298.8 381.109 296.261 383.323 295.343Z" fill="#00A651"/>
<path fill-rule="evenodd" clip-rule="evenodd" d="M390.82 311.614C392.276 312.515 392.726 314.426 391.824 315.881L386.07 325.176C385.902 325.449 385.695 325.696 385.457 325.911L377.787 332.844C376.517 333.992 374.557 333.893 373.408 332.623C372.26 331.352 372.359 329.392 373.63 328.244L381.006 321.576L386.552 312.618C387.453 311.162 389.364 310.712 390.82 311.614Z" fill="#00A651"/>
<path fill-rule="evenodd" clip-rule="evenodd" d="M390.213 310.374C391.526 309.275 393.481 309.448 394.58 310.761L407.119 325.739C408.218 327.052 408.045 329.007 406.732 330.107C405.419 331.206 403.464 331.032 402.365 329.719L389.825 314.741C388.726 313.428 388.9 311.473 390.213 310.374Z" fill="#00A651"/>
<path fill-rule="evenodd" clip-rule="evenodd" d="M405.228 291.118C405.65 292.777 404.647 294.465 402.988 294.887L385.353 299.371L380.847 303.334L376.677 314.185C376.063 315.783 374.27 316.581 372.671 315.967C371.073 315.353 370.275 313.559 370.89 311.961L375.606 299.686L381.538 294.469C382.09 293.983 382.75 293.635 383.463 293.454L401.46 288.877C403.119 288.455 404.806 289.459 405.228 291.118Z" fill="#00A651"/>
<path d="M386.378 290.317C386.378 292.907 384.279 295.007 381.688 295.007C379.098 295.007 376.998 292.907 376.998 290.317C376.998 287.727 379.098 285.627 381.688 285.627C384.279 285.627 386.378 287.727 386.378 290.317Z" fill="#00A651"/>
<path d="M392.688 334.395C392.688 336.522 390.964 338.247 388.837 338.247C386.71 338.247 384.986 336.522 384.986 334.395C384.986 332.268 386.71 330.544 388.837 330.544C390.964 330.544 392.688 332.268 392.688 334.395Z" fill="#00A651"/>
<path d="M539.959 657.201C539.959 659.624 537.995 661.588 535.572 661.588C533.149 661.588 531.185 659.624 531.185 657.201C531.185 654.778 533.149 652.814 535.572 652.814C537.995 652.814 539.959 654.778 539.959 657.201Z" fill="black"/>
<path fill-rule="evenodd" clip-rule="evenodd" d="M530.062 657.471C531.317 659.513 530.679 662.186 528.637 663.442L512.281 673.497L507.734 666.101L524.091 656.047C526.133 654.791 528.806 655.429 530.062 657.471Z" fill="black"/>
<path fill-rule="evenodd" clip-rule="evenodd" d="M524.99 660.641C526.317 659.56 528.27 659.761 529.351 661.089L535.514 668.66L543.283 670.732C544.937 671.173 545.921 672.872 545.479 674.526C545.038 676.181 543.339 677.164 541.685 676.723L533.043 674.418C532.348 674.233 531.73 673.833 531.276 673.276L524.542 665.003C523.461 663.675 523.662 661.722 524.99 660.641Z" fill="black"/>
<path fill-rule="evenodd" clip-rule="evenodd" d="M506.683 670.108C505.644 667.525 507.969 664.852 510.671 665.525L516.88 667.071C517.816 667.304 518.692 667.733 519.45 668.329L525.386 672.999V682.711C525.386 684.423 523.998 685.811 522.285 685.811C520.573 685.811 519.185 684.423 519.185 682.711V676.01L515.616 673.202C515.547 673.148 515.468 673.109 515.383 673.088L514.476 672.862L517.952 681.495L522.976 692.653C523.679 694.214 522.983 696.05 521.422 696.753C519.861 697.456 518.025 696.76 517.322 695.199L512.247 683.927L506.683 670.108Z" fill="black"/>
<path fill-rule="evenodd" clip-rule="evenodd" d="M504.159 712.62C510.984 712.62 516.517 707.087 516.517 700.262C516.517 693.438 510.984 687.905 504.159 687.905C497.334 687.905 491.802 693.438 491.802 700.262C491.802 707.087 497.334 712.62 504.159 712.62ZM504.159 715.41C512.525 715.41 519.307 708.628 519.307 700.262C519.307 691.897 512.525 685.115 504.159 685.115C495.793 685.115 489.011 691.897 489.011 700.262C489.011 708.628 495.793 715.41 504.159 715.41Z" fill="black"/>
<path fill-rule="evenodd" clip-rule="evenodd" d="M542.484 694.307C549.309 694.307 554.841 688.774 554.841 681.949C554.841 675.124 549.309 669.592 542.484 669.592C535.659 669.592 530.126 675.124 530.126 681.949C530.126 688.774 535.659 694.307 542.484 694.307ZM542.484 697.097C550.85 697.097 557.631 690.315 557.631 681.949C557.631 673.583 550.85 666.801 542.484 666.801C534.118 666.801 527.336 673.583 527.336 681.949C527.336 690.315 534.118 697.097 542.484 697.097Z" fill="black"/>
</svg>
