<svg width="1024" height="393" viewBox="0 0 1024 393" fill="none" xmlns="http://www.w3.org/2000/svg">
<path fill-rule="evenodd" clip-rule="evenodd" d="M522.26 230.424C521.113 223.448 519.964 216.456 517.479 209.849C498.586 159.609 446.606 123.834 389.63 123.834C369.81 123.834 351.003 128.161 334.107 135.92L353.898 71.5806H463.249V39.6426H326.783L285.413 174.119L313.431 190.449C315.273 188.334 317.203 186.296 319.213 184.34C337.391 166.663 362.235 155.772 389.63 155.772C433.226 155.772 473.759 183.352 487.848 221.97C489.277 225.886 489.99 230.021 490.565 234.15C500.986 308.928 556.166 368.717 629.122 382.948L642.24 352.78C580.541 343.92 533.338 295.588 522.854 233.996C522.651 232.807 522.455 231.616 522.26 230.424ZM209.686 39.6427H77.3981L35.7737 174.119L63.9639 190.449C65.8176 188.333 67.76 186.295 69.7818 184.339C88.0706 166.663 113.067 155.772 140.629 155.772C195.938 155.772 240.913 199.626 242.093 254.166C242.377 327.12 302.106 386.174 375.746 386.174C419.38 386.174 458.131 365.44 482.524 333.366L465.452 300.657C448.431 332.525 414.645 354.236 375.746 354.236C320.716 354.236 275.915 310.787 274.34 256.597C274.34 183.403 214.475 123.834 140.629 123.834C120.687 123.834 101.764 128.162 84.7643 135.921L104.674 71.5807H209.686V39.6427ZM0 295.927C17.6481 348.388 67.2323 386.174 125.642 386.174C167.364 386.174 204.583 366.895 228.876 336.759C222.691 325.753 217.697 313.988 214.067 301.64C197.025 332.971 163.817 354.236 125.642 354.236C81.2831 354.236 43.6306 325.524 30.2554 285.67L0 295.927Z" fill="black"/>
<path fill-rule="evenodd" clip-rule="evenodd" d="M816.284 101.982C782.498 61.6703 731.772 36.0376 675.059 36.0376C601.69 36.0376 538.34 78.9373 508.727 141.021C516.997 149.052 525.609 157.853 532.261 167.308C553.76 109.31 609.582 67.9757 675.059 67.9757C714.587 67.9757 750.598 83.0404 777.661 107.742L654.936 390.005C664.545 391.817 674.459 392.766 684.595 392.766C772.424 392.766 843.624 321.565 843.624 233.736C843.624 204.275 835.613 176.685 821.651 153.026L805.877 189.303C810.954 203.157 813.725 218.123 813.725 233.736C813.725 298.652 765.823 352.38 703.438 361.501C741.053 274.992 778.672 188.483 816.284 101.982Z" fill="black"/>
<path fill-rule="evenodd" clip-rule="evenodd" d="M823.231 0.557617L800.011 53.9618C810.561 61.9035 820.331 70.826 829.185 80.594L839.875 56.0081L920.587 241.633H867.241C866.695 254.478 864.823 266.981 861.759 279.007H936.838L983.245 385.736H1024L856.519 0.557617H823.231Z" fill="black"/>
</svg>
