<svg width="1025" height="257" viewBox="0 0 1025 257" fill="none" xmlns="http://www.w3.org/2000/svg">
<path fill-rule="evenodd" clip-rule="evenodd" d="M755.59 111.197L712.321 0.45166H696.12L652.851 111.197H670.257L679.974 87.5934H728.163L738.193 111.197H755.59ZM723.009 72.4861H685.114L703.989 22.9369L723.009 72.4861ZM938.173 0.913671V111.197H955.27V64.6667H1003.03V111.197H1019.97V0.913671H1003.03V46.6538H955.27V0.913671H938.173ZM476.505 1.06779H423.782V111.197H476.505C480.803 111.197 484.755 110.563 488.349 109.279L488.364 109.274L488.379 109.268C491.942 107.889 494.995 106.073 497.519 103.809L497.529 103.8L497.539 103.791C500.045 101.435 502.014 98.75 503.436 95.7397C504.867 92.7108 505.583 89.5151 505.583 86.1638V26.1011C505.583 22.75 504.867 19.5541 503.436 16.5254C502.013 13.5135 500.042 10.8761 497.529 8.61923C495.001 6.24586 491.939 4.4246 488.364 3.14516C484.765 1.75434 480.807 1.06779 476.505 1.06779ZM484.668 92.5196L484.66 92.5266L484.652 92.5335C482.071 94.7877 478.86 95.936 474.937 95.936H440.879V16.329H474.937C478.86 16.329 482.071 17.4774 484.652 19.7316L484.66 19.7385L484.668 19.7454C487.3 21.9624 488.643 24.9604 488.643 28.8734V83.3917C488.643 87.3045 487.3 90.3027 484.668 92.5196ZM341.448 111.197H412.418V95.9359H350.266C347.653 95.9359 345.535 93.8544 345.535 91.2867V64.9748H402.027V48.2606H345.535V20.8241C345.535 18.2564 347.653 16.1749 350.266 16.1749H412.329V0.913671H341.448C334.263 0.913671 328.438 6.63799 328.438 13.6992V98.4116C328.438 105.473 334.263 111.197 341.448 111.197ZM318.378 255.478H389.348V240.217H327.196C324.583 240.217 322.465 238.136 322.465 235.568V209.256H378.957V192.542H322.465V165.105C322.465 162.538 324.583 160.456 327.196 160.456H389.259V145.195H318.378C311.192 145.195 305.367 150.919 305.367 157.98V242.693C305.367 249.754 311.192 255.478 318.378 255.478ZM745.657 255.478H816.627V240.217H754.475C751.862 240.217 749.744 238.136 749.744 235.568V209.256H806.236V192.542H749.744V165.105C749.744 162.538 751.862 160.456 754.475 160.456H816.538V145.195H745.657C738.471 145.195 732.646 150.919 732.646 157.98V242.693C732.646 249.754 738.471 255.478 745.657 255.478ZM578.589 111.197H649.559V95.9359H587.407C584.794 95.9359 582.676 93.8544 582.676 91.2867V64.9748H639.168V48.2606H582.676V20.8241C582.676 18.2564 584.794 16.1749 587.407 16.1749H649.47V0.913671H578.589C571.404 0.913671 565.579 6.63799 565.579 13.6992V98.4116C565.579 105.473 571.404 111.197 578.589 111.197ZM268.911 16.1749V111.197H287.33V16.1749H320.356V0.913671H236.961V16.1749H268.911ZM879.917 16.6195V111.642H898.336V16.6195H931.362V1.3583H847.967V16.6195H879.917ZM967.147 160.456V255.478H987.044V160.456H1024.51V145.195H930.762V160.456H967.147ZM207.379 0.913671V111.197H225.955V0.913671H207.379ZM102.738 1.20418V110.906H120.722V31.879L166.176 110.906H183.948V1.20418H166.12V80.5384L120.509 1.20418H102.738ZM508.016 145.485V254.743H525.707V175.875L574.031 254.743H592.783V145.485H573.978V224.659L525.488 145.485H508.016ZM833.28 145.485V254.743H850.971V175.875L899.295 254.743H918.047V145.485H899.242V224.659L850.752 145.485H833.28ZM76.4131 104.733L76.4233 104.724L76.4332 104.714C78.9394 102.359 80.908 99.674 82.3303 96.6637C83.7613 93.6349 84.4776 90.4389 84.4776 87.0878V0.913671H67.3805V84.3157C67.3805 88.2285 66.0375 91.2265 63.4055 93.4437L63.3974 93.4504L63.3894 93.4573C60.803 95.7166 57.6418 96.8599 53.8318 96.8599H32.3141C28.5079 96.8599 25.2882 95.7184 22.5918 93.4504C20.0641 91.2386 18.7654 88.2388 18.7654 84.3157V0.913671H1.66827V87.0878C1.66827 90.4389 2.38461 93.6349 3.81559 96.6637C5.24304 99.685 7.2717 102.375 9.88772 104.731L9.89781 104.74L9.90809 104.749C12.5345 107.008 15.6896 108.819 19.3542 110.196L19.3685 110.202L19.383 110.207C23.0777 111.488 27.1309 112.121 31.5305 112.121H55.399C59.697 112.121 63.6496 111.487 67.2436 110.203L67.2583 110.198L67.2729 110.192C70.8364 108.813 73.8899 106.997 76.4131 104.733ZM614.073 146.357H632.011L663.903 204.202L695.644 146.357H713.131V253.871H695.424V176.56L670.874 222.74H656.147L631.939 176.857V253.871H614.073V146.357ZM222.152 146.357H203.057L240.132 253.386H258.36L295.461 146.357H276.336L249.326 230.899L222.152 146.357ZM0.506104 239.343V160.886C0.506104 152.862 7.12546 146.357 15.2908 146.357H71.4728C79.6382 146.357 86.2576 152.862 86.2576 160.886V177.467H70.1977V169.59C70.1977 166.38 67.5499 163.779 64.2838 163.779H24.4944C21.2282 163.779 18.5805 166.38 18.5805 169.59V232.092C18.5805 235.301 21.2282 237.903 24.4944 237.903H64.2838C67.5499 237.903 70.1977 235.301 70.1977 232.092V211.731H49.0093V194.31H86.2576V239.343C86.2576 247.367 79.6383 253.871 71.4728 253.871H15.2908C7.12546 253.871 0.506104 247.367 0.506104 239.343ZM133.374 145.451H138.743H161.829H166.29C170.47 145.451 174.283 146.118 177.731 147.453C181.179 148.685 184.104 150.43 186.507 152.689C188.91 154.845 190.791 157.36 192.149 160.235C192.731 161.467 193.188 162.728 193.521 164.016C193.964 165.587 194.186 167.2 194.186 168.856V169.322V229.384V229.559C194.186 230.162 194.157 230.76 194.098 231.351C193.874 233.821 193.224 236.194 192.149 238.471C190.791 241.346 188.91 243.912 186.507 246.171C184.104 248.327 181.179 250.073 177.731 251.407C174.283 252.639 170.47 253.255 166.29 253.255H133.374C129.194 253.255 125.381 252.639 121.933 251.407C118.485 250.073 115.56 248.327 113.157 246.171C110.754 243.912 108.873 241.346 107.515 238.471C106.439 236.194 105.79 233.821 105.566 231.351C105.507 230.759 105.478 230.162 105.478 229.559V229.384V169.322V168.856C105.478 167.2 105.699 165.587 106.143 164.017C106.476 162.728 106.933 161.467 107.515 160.235C108.873 157.36 110.754 154.845 113.157 152.689C115.56 150.43 118.485 148.685 121.933 147.453C125.381 146.118 129.194 145.451 133.374 145.451ZM172.191 233.751C168.919 236.167 164.859 237.375 160.012 237.375H139.652C134.926 237.375 130.866 236.167 127.473 233.751C124.201 231.335 122.565 228.063 122.565 223.935V175.933C122.565 171.805 124.201 168.534 127.473 166.117C130.866 163.702 134.926 162.494 139.652 162.494H160.012C164.859 162.494 168.919 163.702 172.191 166.117C175.584 168.534 177.281 171.805 177.281 175.933V223.935C177.281 228.063 175.584 231.335 172.191 233.751ZM819.369 66.11H831.408C838.267 66.11 843.828 60.6459 843.828 53.9057V14.1438C843.828 7.40346 838.267 1.93949 831.408 1.93949H761.329V112.069H777.175V66.11H798.761L831.844 111.342H851.014L819.369 66.11ZM777.296 51.3379V17.6307H822.538C825.477 17.6307 827.86 19.9725 827.86 22.8612V46.1075C827.86 48.9961 825.477 51.3379 822.538 51.3379H777.296ZM461.578 210.493H473.618C480.477 210.493 486.037 205.029 486.037 198.289V158.527C486.037 151.786 480.477 146.322 473.618 146.322H403.538V256.452H419.385V210.493H440.971L474.054 255.725H493.223L461.578 210.493ZM419.506 195.721V162.013H464.747C467.686 162.013 470.069 164.355 470.069 167.244V190.49C470.069 193.379 467.686 195.721 464.747 195.721H419.506Z" fill="black"/>
</svg>
