<svg width="1026" height="210" viewBox="0 0 1026 210" fill="none" xmlns="http://www.w3.org/2000/svg">
<mask id="path-1-outside-1_98_15" maskUnits="userSpaceOnUse" x="0.936646" y="0.80957" width="1024" height="57" fill="black">
<rect fill="white" x="0.936646" y="0.80957" width="1024" height="57"/>
<path d="M39.208 44.614C39.208 46.2022 38.875 47.7136 38.209 49.1481C37.543 50.5826 36.6208 51.8634 35.4425 52.9905C34.2641 54.0664 32.8296 54.9373 31.139 55.6034C29.4483 56.2181 27.5783 56.5255 25.5291 56.5255H15.9999C13.8994 56.5255 11.9782 56.2181 10.2363 55.6034C8.49436 54.9373 7.00863 54.0664 5.77906 52.9905C4.54949 51.8634 3.60169 50.5826 2.93567 49.1481C2.26965 47.7136 1.93665 46.2022 1.93665 44.614V2.19381H9.16038V43.2308C9.16038 45.3313 9.85202 46.9963 11.2353 48.2259C12.6698 49.4555 14.3861 50.0703 16.3841 50.0703H24.7606C26.7586 50.0703 28.4493 49.4555 29.8326 48.2259C31.2671 46.9963 31.9843 45.3313 31.9843 43.2308V2.19381H39.208V44.614Z"/>
<path d="M52.4614 56.0644V2.19381H59.7619L82.8164 43.0002V2.19381H89.9633V56.0644H82.6627L59.6851 15.4117V56.0644H52.4614Z"/>
<path d="M103.577 56.0644V2.19381H110.801V56.0644H103.577Z"/>
<path d="M134.134 56.0644V8.64906H119.917V2.19381H154.576V8.64906H141.281V56.0644H134.134Z"/>
<path d="M195.754 56.0644H163.708V2.19381H194.985V8.64906H170.932V25.0946H192.834V31.5498H170.932V49.6092H195.754V56.0644Z"/>
<path d="M208.67 2.27066H232.493C234.543 2.27066 236.413 2.60367 238.103 3.26969C239.794 3.88447 241.228 4.75542 242.407 5.88253C243.585 6.9584 244.507 8.21359 245.173 9.64809C245.839 11.0826 246.172 12.5939 246.172 14.1821V44.153C246.172 45.7412 245.839 47.2525 245.173 48.687C244.507 50.1215 243.585 51.4023 242.407 52.5294C241.228 53.6053 239.794 54.4762 238.103 55.1423C236.413 55.757 234.543 56.0644 232.493 56.0644H208.67V2.27066ZM215.894 8.72591V49.6092H231.725C233.774 49.6092 235.49 48.9944 236.874 47.7648C238.308 46.5353 239.025 44.8702 239.025 42.7697V15.5654C239.025 13.4649 238.308 11.7998 236.874 10.5703C235.49 9.3407 233.774 8.72591 231.725 8.72591H215.894Z"/>
<path d="M315.931 56.0644H283.886V2.19381H315.163V8.64906H291.109V25.0946H313.011V31.5498H291.109V49.6092H315.931V56.0644Z"/>
<path d="M351.057 1.96326L369.654 56.0644H362.354L357.435 41.3864H337.378L332.613 56.0644H325.313L343.91 1.96326H351.057ZM339.453 35.008H355.361L347.368 10.9545L339.453 35.008Z"/>
<path d="M379.739 56.0644V2.19381H401.564C403.715 2.19381 405.662 2.5012 407.404 3.11599C409.146 3.73078 410.632 4.57611 411.861 5.65198C413.142 6.67663 414.116 7.88058 414.782 9.26385C415.448 10.5959 415.781 12.0304 415.781 13.5674V24.7872C415.781 27.0926 414.961 29.2444 413.322 31.2425C411.682 33.2405 409.454 34.6494 406.636 35.4691L416.319 56.0644H408.711L399.258 36.007H386.963V56.0644H379.739ZM386.963 8.72591V29.5518H401.41C402.383 29.5518 403.306 29.3981 404.177 29.0907C405.048 28.7833 405.79 28.3478 406.405 27.7843C407.071 27.2207 407.584 26.5803 407.942 25.8631C408.352 25.0946 408.557 24.2749 408.557 23.4039V15.0275C408.557 13.0294 407.788 11.4925 406.251 10.4166C404.766 9.28947 402.947 8.72591 400.795 8.72591H386.963Z"/>
<path d="M437.988 56.0644V8.64906H423.771V2.19381H458.43V8.64906H445.135V56.0644H437.988Z"/>
<path d="M467.562 56.0644V2.19381H474.786V25.0177H497.917V2.19381H505.064V56.0644H497.917V31.3961H474.786V56.0644H467.562Z"/>
<path d="M573.111 19.5615V15.1043C573.111 13.0038 572.393 11.3388 570.959 10.1092C569.576 8.87961 567.859 8.26482 565.81 8.26482H557.203C555.205 8.26482 553.489 8.87961 552.054 10.1092C550.671 11.3388 549.979 13.0038 549.979 15.1043V43.2308C549.979 45.3313 550.671 46.9963 552.054 48.2259C553.489 49.4555 555.205 50.0703 557.203 50.0703H565.81C567.859 50.0703 569.576 49.4555 570.959 48.2259C572.393 46.9963 573.111 45.3313 573.111 43.2308V34.6238H561.122V28.1685H580.258V44.614C580.258 46.2022 579.925 47.7136 579.259 49.1481C578.593 50.5826 577.67 51.8634 576.492 52.9905C575.314 54.0664 573.879 54.9373 572.188 55.6034C570.498 56.2181 568.628 56.5255 566.579 56.5255H556.819C554.718 56.5255 552.797 56.2181 551.055 55.6034C549.313 54.9373 547.828 54.0664 546.598 52.9905C545.368 51.8634 544.421 50.5826 543.755 49.1481C543.089 47.7136 542.756 46.2022 542.756 44.614V13.7211C542.756 12.1329 543.089 10.6215 543.755 9.187C544.421 7.7525 545.368 6.49731 546.598 5.42144C547.828 4.29433 549.313 3.42338 551.055 2.8086C552.797 2.14258 554.718 1.80957 556.819 1.80957H566.579C568.628 1.80957 570.498 2.14258 572.188 2.8086C573.879 3.42338 575.314 4.29433 576.492 5.42144C577.67 6.49731 578.593 7.7525 579.259 9.187C579.925 10.6215 580.258 12.1329 580.258 13.7211V19.5615H573.111Z"/>
<path d="M615.125 50.0703C617.174 50.0703 618.891 49.4555 620.274 48.2259C621.708 46.9963 622.426 45.3313 622.426 43.2308V15.1043C622.426 13.0038 621.708 11.3388 620.274 10.1092C618.891 8.87961 617.174 8.26482 615.125 8.26482H606.518C604.52 8.26482 602.804 8.87961 601.369 10.1092C599.986 11.3388 599.294 13.0038 599.294 15.1043V43.2308C599.294 45.3313 599.986 46.9963 601.369 48.2259C602.804 49.4555 604.52 50.0703 606.518 50.0703H615.125ZM606.134 56.5255C604.033 56.5255 602.112 56.2181 600.37 55.6034C598.628 54.9373 597.142 54.0664 595.913 52.9905C594.683 51.8634 593.736 50.5826 593.07 49.1481C592.404 47.7136 592.071 46.2022 592.071 44.614V13.7211C592.071 12.1329 592.404 10.6215 593.07 9.187C593.736 7.7525 594.683 6.49731 595.913 5.42144C597.142 4.29433 598.628 3.42338 600.37 2.8086C602.112 2.14258 604.033 1.80957 606.134 1.80957H615.893C617.943 1.80957 619.813 2.14258 621.503 2.8086C623.194 3.42338 624.629 4.29433 625.807 5.42144C626.985 6.49731 627.907 7.7525 628.573 9.187C629.239 10.6215 629.572 12.1329 629.572 13.7211V44.614C629.572 46.2022 629.239 47.7136 628.573 49.1481C627.907 50.5826 626.985 51.8634 625.807 52.9905C624.629 54.0664 623.194 54.9373 621.503 55.6034C619.813 56.2181 617.943 56.5255 615.893 56.5255H606.134Z"/>
<path d="M656.019 56.0644L637.422 2.27066H644.722L659.631 46.7658L674.463 2.27066H681.763L663.166 56.0644H656.019Z"/>
<path d="M723.893 56.0644H691.848V2.19381H723.125V8.64906H699.072V25.0946H720.973V31.5498H699.072V49.6092H723.893V56.0644Z"/>
<path d="M736.81 56.0644V2.19381H758.635C760.787 2.19381 762.733 2.5012 764.475 3.11599C766.217 3.73078 767.703 4.57611 768.933 5.65198C770.213 6.67663 771.187 7.88058 771.853 9.26385C772.519 10.5959 772.852 12.0304 772.852 13.5674V24.7872C772.852 27.0926 772.032 29.2444 770.393 31.2425C768.753 33.2405 766.525 34.6494 763.707 35.4691L773.39 56.0644H765.782L756.329 36.007H744.034V56.0644H736.81ZM744.034 8.72591V29.5518H758.481C759.455 29.5518 760.377 29.3981 761.248 29.0907C762.119 28.7833 762.862 28.3478 763.476 27.7843C764.142 27.2207 764.655 26.5803 765.013 25.8631C765.423 25.0946 765.628 24.2749 765.628 23.4039V15.0275C765.628 13.0294 764.86 11.4925 763.323 10.4166C761.837 9.28947 760.018 8.72591 757.866 8.72591H744.034Z"/>
<path d="M785.75 56.0644V2.19381H793.05L816.105 43.0002V2.19381H823.252V56.0644H815.951L792.974 15.4117V56.0644H785.75Z"/>
<path d="M836.866 56.0644V2.19381H844.397L860.535 36.545L876.596 2.19381H883.897V56.0644H876.75V16.257L863.455 44.5372H857.231L844.09 16.4107V56.0644H836.866Z"/>
<path d="M929.559 56.0644H897.513V2.19381H928.79V8.64906H904.737V25.0946H926.638V31.5498H904.737V49.6092H929.559V56.0644Z"/>
<path d="M942.475 56.0644V2.19381H949.776L972.83 43.0002V2.19381H979.977V56.0644H972.676L949.699 15.4117V56.0644H942.475Z"/>
<path d="M1003.35 56.0644V8.64906H989.134V2.19381H1023.79V8.64906H1010.5V56.0644H1003.35Z"/>
</mask>
<path d="M39.208 44.614C39.208 46.2022 38.875 47.7136 38.209 49.1481C37.543 50.5826 36.6208 51.8634 35.4425 52.9905C34.2641 54.0664 32.8296 54.9373 31.139 55.6034C29.4483 56.2181 27.5783 56.5255 25.5291 56.5255H15.9999C13.8994 56.5255 11.9782 56.2181 10.2363 55.6034C8.49436 54.9373 7.00863 54.0664 5.77906 52.9905C4.54949 51.8634 3.60169 50.5826 2.93567 49.1481C2.26965 47.7136 1.93665 46.2022 1.93665 44.614V2.19381H9.16038V43.2308C9.16038 45.3313 9.85202 46.9963 11.2353 48.2259C12.6698 49.4555 14.3861 50.0703 16.3841 50.0703H24.7606C26.7586 50.0703 28.4493 49.4555 29.8326 48.2259C31.2671 46.9963 31.9843 45.3313 31.9843 43.2308V2.19381H39.208V44.614Z" fill="black"/>
<path d="M52.4614 56.0644V2.19381H59.7619L82.8164 43.0002V2.19381H89.9633V56.0644H82.6627L59.6851 15.4117V56.0644H52.4614Z" fill="black"/>
<path d="M103.577 56.0644V2.19381H110.801V56.0644H103.577Z" fill="black"/>
<path d="M134.134 56.0644V8.64906H119.917V2.19381H154.576V8.64906H141.281V56.0644H134.134Z" fill="black"/>
<path d="M195.754 56.0644H163.708V2.19381H194.985V8.64906H170.932V25.0946H192.834V31.5498H170.932V49.6092H195.754V56.0644Z" fill="black"/>
<path d="M208.67 2.27066H232.493C234.543 2.27066 236.413 2.60367 238.103 3.26969C239.794 3.88447 241.228 4.75542 242.407 5.88253C243.585 6.9584 244.507 8.21359 245.173 9.64809C245.839 11.0826 246.172 12.5939 246.172 14.1821V44.153C246.172 45.7412 245.839 47.2525 245.173 48.687C244.507 50.1215 243.585 51.4023 242.407 52.5294C241.228 53.6053 239.794 54.4762 238.103 55.1423C236.413 55.757 234.543 56.0644 232.493 56.0644H208.67V2.27066ZM215.894 8.72591V49.6092H231.725C233.774 49.6092 235.49 48.9944 236.874 47.7648C238.308 46.5353 239.025 44.8702 239.025 42.7697V15.5654C239.025 13.4649 238.308 11.7998 236.874 10.5703C235.49 9.3407 233.774 8.72591 231.725 8.72591H215.894Z" fill="black"/>
<path d="M315.931 56.0644H283.886V2.19381H315.163V8.64906H291.109V25.0946H313.011V31.5498H291.109V49.6092H315.931V56.0644Z" fill="black"/>
<path d="M351.057 1.96326L369.654 56.0644H362.354L357.435 41.3864H337.378L332.613 56.0644H325.313L343.91 1.96326H351.057ZM339.453 35.008H355.361L347.368 10.9545L339.453 35.008Z" fill="black"/>
<path d="M379.739 56.0644V2.19381H401.564C403.715 2.19381 405.662 2.5012 407.404 3.11599C409.146 3.73078 410.632 4.57611 411.861 5.65198C413.142 6.67663 414.116 7.88058 414.782 9.26385C415.448 10.5959 415.781 12.0304 415.781 13.5674V24.7872C415.781 27.0926 414.961 29.2444 413.322 31.2425C411.682 33.2405 409.454 34.6494 406.636 35.4691L416.319 56.0644H408.711L399.258 36.007H386.963V56.0644H379.739ZM386.963 8.72591V29.5518H401.41C402.383 29.5518 403.306 29.3981 404.177 29.0907C405.048 28.7833 405.79 28.3478 406.405 27.7843C407.071 27.2207 407.584 26.5803 407.942 25.8631C408.352 25.0946 408.557 24.2749 408.557 23.4039V15.0275C408.557 13.0294 407.788 11.4925 406.251 10.4166C404.766 9.28947 402.947 8.72591 400.795 8.72591H386.963Z" fill="black"/>
<path d="M437.988 56.0644V8.64906H423.771V2.19381H458.43V8.64906H445.135V56.0644H437.988Z" fill="black"/>
<path d="M467.562 56.0644V2.19381H474.786V25.0177H497.917V2.19381H505.064V56.0644H497.917V31.3961H474.786V56.0644H467.562Z" fill="black"/>
<path d="M573.111 19.5615V15.1043C573.111 13.0038 572.393 11.3388 570.959 10.1092C569.576 8.87961 567.859 8.26482 565.81 8.26482H557.203C555.205 8.26482 553.489 8.87961 552.054 10.1092C550.671 11.3388 549.979 13.0038 549.979 15.1043V43.2308C549.979 45.3313 550.671 46.9963 552.054 48.2259C553.489 49.4555 555.205 50.0703 557.203 50.0703H565.81C567.859 50.0703 569.576 49.4555 570.959 48.2259C572.393 46.9963 573.111 45.3313 573.111 43.2308V34.6238H561.122V28.1685H580.258V44.614C580.258 46.2022 579.925 47.7136 579.259 49.1481C578.593 50.5826 577.67 51.8634 576.492 52.9905C575.314 54.0664 573.879 54.9373 572.188 55.6034C570.498 56.2181 568.628 56.5255 566.579 56.5255H556.819C554.718 56.5255 552.797 56.2181 551.055 55.6034C549.313 54.9373 547.828 54.0664 546.598 52.9905C545.368 51.8634 544.421 50.5826 543.755 49.1481C543.089 47.7136 542.756 46.2022 542.756 44.614V13.7211C542.756 12.1329 543.089 10.6215 543.755 9.187C544.421 7.7525 545.368 6.49731 546.598 5.42144C547.828 4.29433 549.313 3.42338 551.055 2.8086C552.797 2.14258 554.718 1.80957 556.819 1.80957H566.579C568.628 1.80957 570.498 2.14258 572.188 2.8086C573.879 3.42338 575.314 4.29433 576.492 5.42144C577.67 6.49731 578.593 7.7525 579.259 9.187C579.925 10.6215 580.258 12.1329 580.258 13.7211V19.5615H573.111Z" fill="black"/>
<path d="M615.125 50.0703C617.174 50.0703 618.891 49.4555 620.274 48.2259C621.708 46.9963 622.426 45.3313 622.426 43.2308V15.1043C622.426 13.0038 621.708 11.3388 620.274 10.1092C618.891 8.87961 617.174 8.26482 615.125 8.26482H606.518C604.52 8.26482 602.804 8.87961 601.369 10.1092C599.986 11.3388 599.294 13.0038 599.294 15.1043V43.2308C599.294 45.3313 599.986 46.9963 601.369 48.2259C602.804 49.4555 604.52 50.0703 606.518 50.0703H615.125ZM606.134 56.5255C604.033 56.5255 602.112 56.2181 600.37 55.6034C598.628 54.9373 597.142 54.0664 595.913 52.9905C594.683 51.8634 593.736 50.5826 593.07 49.1481C592.404 47.7136 592.071 46.2022 592.071 44.614V13.7211C592.071 12.1329 592.404 10.6215 593.07 9.187C593.736 7.7525 594.683 6.49731 595.913 5.42144C597.142 4.29433 598.628 3.42338 600.37 2.8086C602.112 2.14258 604.033 1.80957 606.134 1.80957H615.893C617.943 1.80957 619.813 2.14258 621.503 2.8086C623.194 3.42338 624.629 4.29433 625.807 5.42144C626.985 6.49731 627.907 7.7525 628.573 9.187C629.239 10.6215 629.572 12.1329 629.572 13.7211V44.614C629.572 46.2022 629.239 47.7136 628.573 49.1481C627.907 50.5826 626.985 51.8634 625.807 52.9905C624.629 54.0664 623.194 54.9373 621.503 55.6034C619.813 56.2181 617.943 56.5255 615.893 56.5255H606.134Z" fill="black"/>
<path d="M656.019 56.0644L637.422 2.27066H644.722L659.631 46.7658L674.463 2.27066H681.763L663.166 56.0644H656.019Z" fill="black"/>
<path d="M723.893 56.0644H691.848V2.19381H723.125V8.64906H699.072V25.0946H720.973V31.5498H699.072V49.6092H723.893V56.0644Z" fill="black"/>
<path d="M736.81 56.0644V2.19381H758.635C760.787 2.19381 762.733 2.5012 764.475 3.11599C766.217 3.73078 767.703 4.57611 768.933 5.65198C770.213 6.67663 771.187 7.88058 771.853 9.26385C772.519 10.5959 772.852 12.0304 772.852 13.5674V24.7872C772.852 27.0926 772.032 29.2444 770.393 31.2425C768.753 33.2405 766.525 34.6494 763.707 35.4691L773.39 56.0644H765.782L756.329 36.007H744.034V56.0644H736.81ZM744.034 8.72591V29.5518H758.481C759.455 29.5518 760.377 29.3981 761.248 29.0907C762.119 28.7833 762.862 28.3478 763.476 27.7843C764.142 27.2207 764.655 26.5803 765.013 25.8631C765.423 25.0946 765.628 24.2749 765.628 23.4039V15.0275C765.628 13.0294 764.86 11.4925 763.323 10.4166C761.837 9.28947 760.018 8.72591 757.866 8.72591H744.034Z" fill="black"/>
<path d="M785.75 56.0644V2.19381H793.05L816.105 43.0002V2.19381H823.252V56.0644H815.951L792.974 15.4117V56.0644H785.75Z" fill="black"/>
<path d="M836.866 56.0644V2.19381H844.397L860.535 36.545L876.596 2.19381H883.897V56.0644H876.75V16.257L863.455 44.5372H857.231L844.09 16.4107V56.0644H836.866Z" fill="black"/>
<path d="M929.559 56.0644H897.513V2.19381H928.79V8.64906H904.737V25.0946H926.638V31.5498H904.737V49.6092H929.559V56.0644Z" fill="black"/>
<path d="M942.475 56.0644V2.19381H949.776L972.83 43.0002V2.19381H979.977V56.0644H972.676L949.699 15.4117V56.0644H942.475Z" fill="black"/>
<path d="M1003.35 56.0644V8.64906H989.134V2.19381H1023.79V8.64906H1010.5V56.0644H1003.35Z" fill="black"/>
<path d="M39.208 44.614C39.208 46.2022 38.875 47.7136 38.209 49.1481C37.543 50.5826 36.6208 51.8634 35.4425 52.9905C34.2641 54.0664 32.8296 54.9373 31.139 55.6034C29.4483 56.2181 27.5783 56.5255 25.5291 56.5255H15.9999C13.8994 56.5255 11.9782 56.2181 10.2363 55.6034C8.49436 54.9373 7.00863 54.0664 5.77906 52.9905C4.54949 51.8634 3.60169 50.5826 2.93567 49.1481C2.26965 47.7136 1.93665 46.2022 1.93665 44.614V2.19381H9.16038V43.2308C9.16038 45.3313 9.85202 46.9963 11.2353 48.2259C12.6698 49.4555 14.3861 50.0703 16.3841 50.0703H24.7606C26.7586 50.0703 28.4493 49.4555 29.8326 48.2259C31.2671 46.9963 31.9843 45.3313 31.9843 43.2308V2.19381H39.208V44.614Z" stroke="black" stroke-width="2" mask="url(#path-1-outside-1_98_15)"/>
<path d="M52.4614 56.0644V2.19381H59.7619L82.8164 43.0002V2.19381H89.9633V56.0644H82.6627L59.6851 15.4117V56.0644H52.4614Z" stroke="black" stroke-width="2" mask="url(#path-1-outside-1_98_15)"/>
<path d="M103.577 56.0644V2.19381H110.801V56.0644H103.577Z" stroke="black" stroke-width="2" mask="url(#path-1-outside-1_98_15)"/>
<path d="M134.134 56.0644V8.64906H119.917V2.19381H154.576V8.64906H141.281V56.0644H134.134Z" stroke="black" stroke-width="2" mask="url(#path-1-outside-1_98_15)"/>
<path d="M195.754 56.0644H163.708V2.19381H194.985V8.64906H170.932V25.0946H192.834V31.5498H170.932V49.6092H195.754V56.0644Z" stroke="black" stroke-width="2" mask="url(#path-1-outside-1_98_15)"/>
<path d="M208.67 2.27066H232.493C234.543 2.27066 236.413 2.60367 238.103 3.26969C239.794 3.88447 241.228 4.75542 242.407 5.88253C243.585 6.9584 244.507 8.21359 245.173 9.64809C245.839 11.0826 246.172 12.5939 246.172 14.1821V44.153C246.172 45.7412 245.839 47.2525 245.173 48.687C244.507 50.1215 243.585 51.4023 242.407 52.5294C241.228 53.6053 239.794 54.4762 238.103 55.1423C236.413 55.757 234.543 56.0644 232.493 56.0644H208.67V2.27066ZM215.894 8.72591V49.6092H231.725C233.774 49.6092 235.49 48.9944 236.874 47.7648C238.308 46.5353 239.025 44.8702 239.025 42.7697V15.5654C239.025 13.4649 238.308 11.7998 236.874 10.5703C235.49 9.3407 233.774 8.72591 231.725 8.72591H215.894Z" stroke="black" stroke-width="2" mask="url(#path-1-outside-1_98_15)"/>
<path d="M315.931 56.0644H283.886V2.19381H315.163V8.64906H291.109V25.0946H313.011V31.5498H291.109V49.6092H315.931V56.0644Z" stroke="black" stroke-width="2" mask="url(#path-1-outside-1_98_15)"/>
<path d="M351.057 1.96326L369.654 56.0644H362.354L357.435 41.3864H337.378L332.613 56.0644H325.313L343.91 1.96326H351.057ZM339.453 35.008H355.361L347.368 10.9545L339.453 35.008Z" stroke="black" stroke-width="2" mask="url(#path-1-outside-1_98_15)"/>
<path d="M379.739 56.0644V2.19381H401.564C403.715 2.19381 405.662 2.5012 407.404 3.11599C409.146 3.73078 410.632 4.57611 411.861 5.65198C413.142 6.67663 414.116 7.88058 414.782 9.26385C415.448 10.5959 415.781 12.0304 415.781 13.5674V24.7872C415.781 27.0926 414.961 29.2444 413.322 31.2425C411.682 33.2405 409.454 34.6494 406.636 35.4691L416.319 56.0644H408.711L399.258 36.007H386.963V56.0644H379.739ZM386.963 8.72591V29.5518H401.41C402.383 29.5518 403.306 29.3981 404.177 29.0907C405.048 28.7833 405.79 28.3478 406.405 27.7843C407.071 27.2207 407.584 26.5803 407.942 25.8631C408.352 25.0946 408.557 24.2749 408.557 23.4039V15.0275C408.557 13.0294 407.788 11.4925 406.251 10.4166C404.766 9.28947 402.947 8.72591 400.795 8.72591H386.963Z" stroke="black" stroke-width="2" mask="url(#path-1-outside-1_98_15)"/>
<path d="M437.988 56.0644V8.64906H423.771V2.19381H458.43V8.64906H445.135V56.0644H437.988Z" stroke="black" stroke-width="2" mask="url(#path-1-outside-1_98_15)"/>
<path d="M467.562 56.0644V2.19381H474.786V25.0177H497.917V2.19381H505.064V56.0644H497.917V31.3961H474.786V56.0644H467.562Z" stroke="black" stroke-width="2" mask="url(#path-1-outside-1_98_15)"/>
<path d="M573.111 19.5615V15.1043C573.111 13.0038 572.393 11.3388 570.959 10.1092C569.576 8.87961 567.859 8.26482 565.81 8.26482H557.203C555.205 8.26482 553.489 8.87961 552.054 10.1092C550.671 11.3388 549.979 13.0038 549.979 15.1043V43.2308C549.979 45.3313 550.671 46.9963 552.054 48.2259C553.489 49.4555 555.205 50.0703 557.203 50.0703H565.81C567.859 50.0703 569.576 49.4555 570.959 48.2259C572.393 46.9963 573.111 45.3313 573.111 43.2308V34.6238H561.122V28.1685H580.258V44.614C580.258 46.2022 579.925 47.7136 579.259 49.1481C578.593 50.5826 577.67 51.8634 576.492 52.9905C575.314 54.0664 573.879 54.9373 572.188 55.6034C570.498 56.2181 568.628 56.5255 566.579 56.5255H556.819C554.718 56.5255 552.797 56.2181 551.055 55.6034C549.313 54.9373 547.828 54.0664 546.598 52.9905C545.368 51.8634 544.421 50.5826 543.755 49.1481C543.089 47.7136 542.756 46.2022 542.756 44.614V13.7211C542.756 12.1329 543.089 10.6215 543.755 9.187C544.421 7.7525 545.368 6.49731 546.598 5.42144C547.828 4.29433 549.313 3.42338 551.055 2.8086C552.797 2.14258 554.718 1.80957 556.819 1.80957H566.579C568.628 1.80957 570.498 2.14258 572.188 2.8086C573.879 3.42338 575.314 4.29433 576.492 5.42144C577.67 6.49731 578.593 7.7525 579.259 9.187C579.925 10.6215 580.258 12.1329 580.258 13.7211V19.5615H573.111Z" stroke="black" stroke-width="2" mask="url(#path-1-outside-1_98_15)"/>
<path d="M615.125 50.0703C617.174 50.0703 618.891 49.4555 620.274 48.2259C621.708 46.9963 622.426 45.3313 622.426 43.2308V15.1043C622.426 13.0038 621.708 11.3388 620.274 10.1092C618.891 8.87961 617.174 8.26482 615.125 8.26482H606.518C604.52 8.26482 602.804 8.87961 601.369 10.1092C599.986 11.3388 599.294 13.0038 599.294 15.1043V43.2308C599.294 45.3313 599.986 46.9963 601.369 48.2259C602.804 49.4555 604.52 50.0703 606.518 50.0703H615.125ZM606.134 56.5255C604.033 56.5255 602.112 56.2181 600.37 55.6034C598.628 54.9373 597.142 54.0664 595.913 52.9905C594.683 51.8634 593.736 50.5826 593.07 49.1481C592.404 47.7136 592.071 46.2022 592.071 44.614V13.7211C592.071 12.1329 592.404 10.6215 593.07 9.187C593.736 7.7525 594.683 6.49731 595.913 5.42144C597.142 4.29433 598.628 3.42338 600.37 2.8086C602.112 2.14258 604.033 1.80957 606.134 1.80957H615.893C617.943 1.80957 619.813 2.14258 621.503 2.8086C623.194 3.42338 624.629 4.29433 625.807 5.42144C626.985 6.49731 627.907 7.7525 628.573 9.187C629.239 10.6215 629.572 12.1329 629.572 13.7211V44.614C629.572 46.2022 629.239 47.7136 628.573 49.1481C627.907 50.5826 626.985 51.8634 625.807 52.9905C624.629 54.0664 623.194 54.9373 621.503 55.6034C619.813 56.2181 617.943 56.5255 615.893 56.5255H606.134Z" stroke="black" stroke-width="2" mask="url(#path-1-outside-1_98_15)"/>
<path d="M656.019 56.0644L637.422 2.27066H644.722L659.631 46.7658L674.463 2.27066H681.763L663.166 56.0644H656.019Z" stroke="black" stroke-width="2" mask="url(#path-1-outside-1_98_15)"/>
<path d="M723.893 56.0644H691.848V2.19381H723.125V8.64906H699.072V25.0946H720.973V31.5498H699.072V49.6092H723.893V56.0644Z" stroke="black" stroke-width="2" mask="url(#path-1-outside-1_98_15)"/>
<path d="M736.81 56.0644V2.19381H758.635C760.787 2.19381 762.733 2.5012 764.475 3.11599C766.217 3.73078 767.703 4.57611 768.933 5.65198C770.213 6.67663 771.187 7.88058 771.853 9.26385C772.519 10.5959 772.852 12.0304 772.852 13.5674V24.7872C772.852 27.0926 772.032 29.2444 770.393 31.2425C768.753 33.2405 766.525 34.6494 763.707 35.4691L773.39 56.0644H765.782L756.329 36.007H744.034V56.0644H736.81ZM744.034 8.72591V29.5518H758.481C759.455 29.5518 760.377 29.3981 761.248 29.0907C762.119 28.7833 762.862 28.3478 763.476 27.7843C764.142 27.2207 764.655 26.5803 765.013 25.8631C765.423 25.0946 765.628 24.2749 765.628 23.4039V15.0275C765.628 13.0294 764.86 11.4925 763.323 10.4166C761.837 9.28947 760.018 8.72591 757.866 8.72591H744.034Z" stroke="black" stroke-width="2" mask="url(#path-1-outside-1_98_15)"/>
<path d="M785.75 56.0644V2.19381H793.05L816.105 43.0002V2.19381H823.252V56.0644H815.951L792.974 15.4117V56.0644H785.75Z" stroke="black" stroke-width="2" mask="url(#path-1-outside-1_98_15)"/>
<path d="M836.866 56.0644V2.19381H844.397L860.535 36.545L876.596 2.19381H883.897V56.0644H876.75V16.257L863.455 44.5372H857.231L844.09 16.4107V56.0644H836.866Z" stroke="black" stroke-width="2" mask="url(#path-1-outside-1_98_15)"/>
<path d="M929.559 56.0644H897.513V2.19381H928.79V8.64906H904.737V25.0946H926.638V31.5498H904.737V49.6092H929.559V56.0644Z" stroke="black" stroke-width="2" mask="url(#path-1-outside-1_98_15)"/>
<path d="M942.475 56.0644V2.19381H949.776L972.83 43.0002V2.19381H979.977V56.0644H972.676L949.699 15.4117V56.0644H942.475Z" stroke="black" stroke-width="2" mask="url(#path-1-outside-1_98_15)"/>
<path d="M1003.35 56.0644V8.64906H989.134V2.19381H1023.79V8.64906H1010.5V56.0644H1003.35Z" stroke="black" stroke-width="2" mask="url(#path-1-outside-1_98_15)"/>
<path d="M1025.13 208.311H970.717V116.833H1023.83V127.794H982.984V155.721H1020.18V166.683H982.984V197.349H1025.13V208.311Z" fill="black"/>
<path d="M904.634 181.82V186.518C904.634 190.085 906.026 192.912 908.81 195C911.594 197.088 914.987 198.132 918.989 198.132H929.428C933.604 198.132 937.041 197.219 939.738 195.392C942.522 193.565 943.914 190.824 943.914 187.171V182.342C943.914 180.341 942.696 178.558 940.26 176.992C937.911 175.426 934.953 173.903 931.386 172.424C927.819 170.858 923.904 169.249 919.641 167.596C915.465 165.856 911.594 163.855 908.027 161.593C904.46 159.331 901.459 156.721 899.023 153.763C896.674 150.718 895.499 147.151 895.499 143.063V134.711C895.499 132.275 896.021 129.969 897.065 127.794C898.109 125.532 899.588 123.575 901.502 121.922C903.503 120.182 905.852 118.79 908.549 117.746C911.246 116.702 914.291 116.18 917.684 116.18H929.428C933.082 116.18 936.388 116.702 939.346 117.746C942.304 118.79 944.827 120.226 946.915 122.053C949.09 123.879 950.743 125.967 951.874 128.316C953.005 130.665 953.57 133.145 953.57 135.755V145.02H941.304V138.104C941.304 134.798 939.999 132.144 937.389 130.143C934.866 128.142 931.777 127.142 928.123 127.142H919.641C916.335 127.142 913.508 128.055 911.159 129.882C908.81 131.622 907.635 134.015 907.635 137.06V142.149C907.635 144.672 908.81 146.89 911.159 148.804C913.595 150.631 916.596 152.371 920.163 154.024C923.817 155.677 927.732 157.33 931.908 158.983C936.084 160.636 939.955 162.507 943.522 164.595C947.176 166.596 950.177 168.901 952.526 171.511C954.962 174.034 956.18 177.035 956.18 180.515V189.52C956.18 192.39 955.571 195.044 954.353 197.48C953.135 199.829 951.395 201.873 949.133 203.613C946.959 205.353 944.305 206.702 941.173 207.659C938.041 208.616 934.561 209.094 930.733 209.094H918.336C914.421 209.094 910.854 208.572 907.635 207.528C904.503 206.397 901.807 204.918 899.545 203.091C897.283 201.177 895.543 199.002 894.325 196.566C893.107 194.13 892.498 191.564 892.498 188.867V181.82H904.634Z" fill="black"/>
<path d="M853.553 116.441L885.133 208.311H872.736L864.384 183.386H830.324L822.233 208.311H809.836L841.416 116.441H853.553ZM833.847 172.555H860.86L847.289 131.709L833.847 172.555Z" fill="black"/>
<path d="M740.757 116.963H774.034C777.514 116.963 780.689 117.572 783.56 118.79C786.431 119.921 788.867 121.487 790.868 123.488C792.869 125.402 794.435 127.664 795.566 130.274C796.697 132.884 797.262 135.624 797.262 138.495V145.281C797.262 148.152 796.566 150.892 795.174 153.502C793.87 156.025 791.956 158.2 789.433 160.027C793.696 161.767 797.045 164.377 799.481 167.857C801.917 171.337 803.135 175.165 803.135 179.341V185.213C803.135 188.345 802.569 191.303 801.438 194.087C800.307 196.871 798.741 199.35 796.74 201.525C794.74 203.613 792.304 205.266 789.433 206.484C786.562 207.702 783.386 208.311 779.906 208.311H740.757V116.963ZM753.024 166.683V197.349H778.601C782.081 197.349 784.996 196.305 787.345 194.217C789.781 192.129 790.999 189.302 790.999 185.735V178.688C790.999 175.121 789.694 172.25 787.084 170.075C784.561 167.814 781.429 166.683 777.688 166.683H753.024ZM753.024 127.925V155.851H772.729C776.209 155.851 779.123 154.851 781.472 152.85C783.908 150.849 785.126 148.195 785.126 144.89V138.887C785.126 135.581 783.908 132.927 781.472 130.926C779.123 128.925 776.209 127.925 772.729 127.925H753.024Z" fill="black"/>
<path d="M686.811 208.311H632.394V116.833H685.506V127.794H644.66V155.721H681.852V166.683H644.66V197.349H686.811V208.311Z" fill="black"/>
<path d="M621.957 208.311H571.585V116.833H583.852V197.349H621.957V208.311Z" fill="black"/>
<path d="M530.773 198.132C534.253 198.132 537.168 197.088 539.517 195C541.953 192.912 543.17 190.085 543.17 186.518V138.756C543.17 135.189 541.953 132.362 539.517 130.274C537.168 128.186 534.253 127.142 530.773 127.142H516.158C512.765 127.142 509.85 128.186 507.414 130.274C505.065 132.362 503.891 135.189 503.891 138.756V186.518C503.891 190.085 505.065 192.912 507.414 195C509.85 197.088 512.765 198.132 516.158 198.132H530.773ZM515.505 209.094C511.938 209.094 508.676 208.572 505.718 207.528C502.76 206.397 500.237 204.918 498.149 203.091C496.061 201.177 494.452 199.002 493.321 196.566C492.19 194.13 491.624 191.564 491.624 188.867V136.407C491.624 133.71 492.19 131.144 493.321 128.708C494.452 126.272 496.061 124.14 498.149 122.314C500.237 120.4 502.76 118.921 505.718 117.877C508.676 116.746 511.938 116.18 515.505 116.18H532.078C535.558 116.18 538.734 116.746 541.605 117.877C544.475 118.921 546.911 120.4 548.912 122.314C550.913 124.14 552.479 126.272 553.61 128.708C554.741 131.144 555.307 133.71 555.307 136.407V188.867C555.307 191.564 554.741 194.13 553.61 196.566C552.479 199.002 550.913 201.177 548.912 203.091C546.911 204.918 544.475 206.397 541.605 207.528C538.734 208.572 535.558 209.094 532.078 209.094H515.505Z" fill="black"/>
<path d="M418.618 208.311V116.833H454.374C458.028 116.833 461.334 117.355 464.292 118.399C467.25 119.443 469.773 120.878 471.861 122.705C474.036 124.445 475.689 126.489 476.82 128.838C477.951 131.1 478.516 133.536 478.516 136.146V155.199C478.516 157.809 477.951 160.332 476.82 162.768C475.776 165.117 474.21 167.248 472.122 169.162C470.121 170.989 467.685 172.468 464.814 173.599C462.03 174.73 458.898 175.295 455.418 175.295H430.885V208.311H418.618ZM430.885 127.925V164.334H454.113C457.419 164.334 460.247 163.246 462.596 161.071C465.032 158.896 466.25 156.156 466.25 152.85V138.626C466.25 135.233 464.945 132.623 462.335 130.796C459.812 128.882 456.723 127.925 453.069 127.925H430.885Z" fill="black"/>
<path d="M299.805 208.311V116.833H312.071V155.59H351.351V116.833H363.487V208.311H351.351V166.422H312.071V208.311H299.805Z" fill="black"/>
<path d="M254.805 208.311V127.794H230.663V116.833H289.517V127.794H266.941V208.311H254.805Z" fill="black"/>
<path d="M161.111 208.311V116.833H198.172C201.826 116.833 205.132 117.355 208.09 118.399C211.048 119.443 213.571 120.878 215.659 122.705C217.834 124.445 219.487 126.489 220.617 128.838C221.748 131.1 222.314 133.536 222.314 136.146V155.199C222.314 159.114 220.922 162.768 218.138 166.161C215.354 169.553 211.57 171.946 206.785 173.338L223.227 208.311H210.308L194.257 174.251H173.378V208.311H161.111ZM173.378 127.925V163.29H197.911C199.564 163.29 201.13 163.029 202.609 162.507C204.088 161.985 205.349 161.245 206.393 160.288C207.524 159.331 208.394 158.244 209.003 157.026C209.699 155.721 210.047 154.329 210.047 152.85V138.626C210.047 135.233 208.742 132.623 206.132 130.796C203.609 128.882 200.521 127.925 196.867 127.925H173.378Z" fill="black"/>
<path d="M120.299 198.132C123.779 198.132 126.693 197.088 129.042 195C131.478 192.912 132.696 190.085 132.696 186.518V138.756C132.696 135.189 131.478 132.362 129.042 130.274C126.693 128.186 123.779 127.142 120.299 127.142H105.683C102.29 127.142 99.3759 128.186 96.94 130.274C94.591 132.362 93.4165 135.189 93.4165 138.756V186.518C93.4165 190.085 94.591 192.912 96.94 195C99.3759 197.088 102.29 198.132 105.683 198.132H120.299ZM105.031 209.094C101.464 209.094 98.2014 208.572 95.2435 207.528C92.2856 206.397 89.7626 204.918 87.6747 203.091C85.5867 201.177 83.9773 199.002 82.8463 196.566C81.7153 194.13 81.1498 191.564 81.1498 188.867V136.407C81.1498 133.71 81.7153 131.144 82.8463 128.708C83.9773 126.272 85.5867 124.14 87.6747 122.314C89.7626 120.4 92.2856 118.921 95.2435 117.877C98.2014 116.746 101.464 116.18 105.031 116.18H121.604C125.084 116.18 128.259 116.746 131.13 117.877C134.001 118.921 136.437 120.4 138.438 122.314C140.439 124.14 142.005 126.272 143.136 128.708C144.267 131.144 144.832 133.71 144.832 136.407V188.867C144.832 191.564 144.267 194.13 143.136 196.566C142.005 199.002 140.439 201.177 138.438 203.091C136.437 204.918 134.001 206.397 131.13 207.528C128.259 208.572 125.084 209.094 121.604 209.094H105.031Z" fill="black"/>
<path d="M1.13477 208.311V116.833H13.532L52.6811 186.127V116.833H64.8173V208.311H52.4201L13.4015 139.278V208.311H1.13477Z" fill="black"/>
</svg>
