<svg width="1025" height="393" viewBox="0 0 1025 393" fill="none" xmlns="http://www.w3.org/2000/svg">
<path d="M0.0410156 334.722V7.62939H76.2963V303.175C76.2963 316.43 87.0415 327.175 100.296 327.175H184.835C198.09 327.175 208.835 316.43 208.835 303.175V7.62939H285.091V334.722C285.091 365.65 260.019 390.722 229.091 390.722H56.041C25.1131 390.722 0.0410156 365.649 0.0410156 334.722Z" fill="black"/>
<path d="M377.686 361.09V31.8135C377.686 17.4541 389.327 5.81348 403.686 5.81348H660.92V69.3596H459.942C456.628 69.3596 453.942 72.0459 453.942 75.3596V167.402H630.055V229.133H453.942V316.662C453.942 319.966 456.612 322.648 459.915 322.662L660.92 323.544V387.09H403.686C389.327 387.09 377.686 375.449 377.686 361.09Z" fill="black"/>
<path d="M733.544 358.537V34.3667C733.544 15.589 748.767 0.366699 767.544 0.366699H990.041C1008.82 0.366699 1024.04 15.589 1024.04 34.3667V113.842H949.601V73.9128C949.601 68.3899 945.124 63.9128 939.601 63.9128H823.8C816.068 63.9128 809.8 70.1808 809.8 77.9128V314.991C809.8 322.723 816.068 328.991 823.8 328.991H935.601C943.333 328.991 949.601 322.723 949.601 314.991V228.225H897.856V164.679H1024.04V358.537C1024.04 377.315 1008.82 392.537 990.041 392.537H767.544C748.767 392.537 733.544 377.315 733.544 358.537Z" fill="black"/>
</svg>
