<svg width="1025" height="488" viewBox="0 0 1025 488" fill="none" xmlns="http://www.w3.org/2000/svg">
<path fill-rule="evenodd" clip-rule="evenodd" d="M0.0410156 83.1041L366.684 83.007C362.291 92.4454 358.675 102.234 355.992 112.294L26.655 112.313L0.0410156 83.1041Z" fill="black"/>
<path fill-rule="evenodd" clip-rule="evenodd" d="M70.0942 123.911H353.128C351.573 133.628 350.251 143.344 350.814 153.217L95.7984 152.878L70.0942 123.911Z" fill="black"/>
<path fill-rule="evenodd" clip-rule="evenodd" d="M157.622 164.775L350.596 164.736C351.315 174.569 353.123 184.286 355.087 193.945L184.301 194.042L157.622 164.775Z" fill="black"/>
<path fill-rule="evenodd" clip-rule="evenodd" d="M258.783 205.678L358.561 205.561C362.059 215.673 366.567 225.359 371.307 234.946L285.52 234.914L258.783 205.678Z" fill="black"/>
<path fill-rule="evenodd" clip-rule="evenodd" d="M516.339 14.0672L507.943 14.0868L507.868 35.7493L506.265 36.6199C503.518 38.477 501.712 41.6223 501.712 45.1892C501.712 48.7569 503.518 51.9015 506.265 53.7594L508.015 54.7091C508.016 54.7146 508.015 54.7209 508.016 54.7264C508.016 96.9417 507.903 141.491 507.923 183.725L516.28 183.647L516.261 54.6033L517.816 53.7594C520.564 51.9015 522.37 48.7569 522.37 45.1892C522.37 41.6223 520.564 38.477 517.816 36.6199L516.318 35.8057L516.339 14.0672ZM513.948 0.494629C534.064 1.52505 554.218 5.18052 572.721 13.4255C627.256 36.7789 665.562 94.5305 663.674 154.13C664.575 187.886 651.685 220.884 631.668 247.718C625.099 244.666 616.839 244.568 611.824 238.832C601.388 227.904 590.095 217.831 580.067 206.534C572.973 198.678 564.538 191.853 559.096 182.636C547.066 162.336 543.276 138.515 541.06 115.395C540.147 101.726 539.756 89.0525 539.409 74.3468L531.324 74.4439C530.779 97.603 531.537 120.84 535.949 143.629C539.952 162.588 545.706 182.033 558.552 197.025C571.049 211.357 585.334 223.976 598.22 237.938C581.564 233.757 564.539 231.521 547.494 229.751C541.293 220.359 534.821 211.006 527.125 202.742L496.845 202.858C489.44 211.317 483.513 220.923 476.535 229.751C460.132 231.229 443.942 234.457 427.597 236.654C441.454 222.751 455.447 208.945 468.372 194.147C484.659 172 489.615 144.018 492.316 117.262C492.53 102.989 493.274 89.2076 492.608 74.4439L484.679 74.3859C485.087 99.1005 483.823 123.951 478.673 148.16C474.786 164.785 468.547 181.45 456.672 194.089C442.853 209.431 427.616 223.471 413.253 238.326C408.201 244.238 399.862 244.51 393.177 247.602C363.382 210.442 352.79 158.855 365.831 113.023C374.635 80.3749 394.829 51.2072 421.805 30.9263C448.14 11.0144 481.063 0.72814 513.948 0.494629Z" fill="black"/>
<path fill-rule="evenodd" clip-rule="evenodd" d="M502.933 211.28L522.944 211.125C527.296 217.021 531.803 222.82 536.019 228.834C520.38 227.786 504.74 228.116 489.082 228.523L502.933 211.28Z" fill="black"/>
<path fill-rule="evenodd" clip-rule="evenodd" d="M515.41 235.573C526.91 236.384 535.793 237.71 545.537 241.05C558.179 244.623 569.868 250.975 580.37 258.802C560.26 268.921 537.738 272.592 515.508 274.204C515.476 261.327 515.443 248.45 515.41 235.573Z" fill="black"/>
<path fill-rule="evenodd" clip-rule="evenodd" d="M565.247 239.569C577.503 241.389 589.681 243.617 601.762 246.444C597.431 249.582 593.197 253.107 588.108 254.927C580.688 249.505 573.074 244.391 565.247 239.569Z" fill="black"/>
<path fill-rule="evenodd" clip-rule="evenodd" d="M594.945 261.207C600.915 257.304 607.04 253.635 612.659 249.207C617.17 251.013 621.818 252.567 626.446 254.139C619.737 261.091 613.009 268.081 604.96 273.499C601.828 269.227 598.523 265.11 594.945 261.207Z" fill="black"/>
<path fill-rule="evenodd" clip-rule="evenodd" d="M515.292 282.631C540.069 281.078 564.963 276.125 587.27 264.879C591.199 269.346 595.556 273.484 598.628 278.63C574.221 295.684 544.815 304.677 515.175 305.939L515.292 282.631Z" fill="black"/>
<path fill-rule="evenodd" clip-rule="evenodd" d="M507.731 235.573C496.232 236.384 487.349 237.709 477.605 241.05C464.963 244.624 453.274 250.975 442.771 258.802C462.882 268.921 485.404 272.592 507.634 274.204C507.666 261.327 507.699 248.45 507.731 235.573Z" fill="black"/>
<path fill-rule="evenodd" clip-rule="evenodd" d="M457.895 239.569C445.639 241.39 433.461 243.617 421.379 246.445C425.711 249.582 429.945 253.107 435.034 254.928C442.453 249.505 450.067 244.392 457.895 239.569Z" fill="black"/>
<path fill-rule="evenodd" clip-rule="evenodd" d="M428.275 261.207C422.305 257.304 416.18 253.634 410.56 249.207C406.049 251.013 401.402 252.567 396.774 254.139C403.483 261.091 410.21 268.081 418.261 273.499C421.391 269.227 424.697 265.11 428.275 261.207Z" fill="black"/>
<path fill-rule="evenodd" clip-rule="evenodd" d="M507.85 282.632C483.096 281.078 458.225 276.125 435.939 264.879C432.014 269.346 427.662 273.484 424.592 278.631C448.977 295.684 478.355 304.677 507.966 305.939L507.85 282.632Z" fill="black"/>
<path fill-rule="evenodd" clip-rule="evenodd" d="M1024.04 83.1041L657.398 83.007C661.791 92.4456 665.407 102.234 668.09 112.294L997.427 112.313L1024.04 83.1041Z" fill="black"/>
<path fill-rule="evenodd" clip-rule="evenodd" d="M953.988 123.911H670.954C672.509 133.628 673.831 143.345 673.268 153.217L928.284 152.877L953.988 123.911Z" fill="black"/>
<path fill-rule="evenodd" clip-rule="evenodd" d="M866.46 164.775L673.486 164.736C672.767 174.569 670.958 184.286 668.995 193.945L839.782 194.042L866.46 164.775Z" fill="black"/>
<path fill-rule="evenodd" clip-rule="evenodd" d="M765.298 205.678L665.521 205.561C662.023 215.674 657.516 225.358 652.774 234.946L738.562 234.914L765.298 205.678Z" fill="black"/>
<path d="M822.748 433.298H813.94C812.49 433.298 811.765 432.573 811.765 431.122V368.85C811.765 367.399 812.49 366.674 813.94 366.674H838.601C843.988 366.674 848.202 368.159 851.241 371.13C854.281 374.1 855.8 378.279 855.8 383.667V391.749C855.8 399.554 852.727 404.735 846.579 407.291V407.705L857.665 430.811C858.287 432.469 857.7 433.298 855.904 433.298H847.511C846.268 433.298 845.37 433.16 844.817 432.883C844.265 432.607 843.816 432.02 843.47 431.122L833.109 408.741H826.167C825.338 408.741 824.923 409.121 824.923 409.881V431.122C824.923 432.573 824.198 433.298 822.748 433.298ZM826.063 398.173H836.217C838.428 398.173 840.051 397.724 841.087 396.826C842.123 395.859 842.641 394.339 842.641 392.267V384.185C842.641 382.044 842.123 380.489 841.087 379.522C840.051 378.555 838.428 378.072 836.217 378.072H826.063C825.303 378.072 824.923 378.452 824.923 379.211V397.033C824.923 397.793 825.303 398.173 826.063 398.173Z" fill="black"/>
<path d="M772.891 421.9H780.248C782.458 421.9 784.013 421.451 784.911 420.553C785.878 419.586 786.361 417.998 786.361 415.787V384.185C786.361 381.974 785.878 380.42 784.911 379.522C784.013 378.555 782.458 378.072 780.248 378.072H772.891C770.681 378.072 769.127 378.555 768.229 379.522C767.331 380.42 766.882 381.974 766.882 384.185V415.787C766.882 417.998 767.331 419.586 768.229 420.553C769.127 421.451 770.681 421.9 772.891 421.9ZM782.424 433.298H770.819C765.362 433.298 761.149 431.847 758.178 428.946C755.208 426.045 753.723 421.866 753.723 416.409V383.563C753.723 378.106 755.208 373.927 758.178 371.026C761.149 368.125 765.362 366.674 770.819 366.674H782.424C787.881 366.674 792.094 368.125 795.065 371.026C798.035 373.927 799.52 378.106 799.52 383.563V416.409C799.52 421.866 798.035 426.045 795.065 428.946C792.094 431.847 787.881 433.298 782.424 433.298Z" fill="black"/>
<path d="M731.763 433.298H723.059C721.539 433.298 720.78 432.573 720.78 431.122V379.211C720.78 378.452 720.4 378.072 719.64 378.072H707.828C706.377 378.072 705.652 377.346 705.652 375.896V368.85C705.652 367.399 706.377 366.674 707.828 366.674H746.994C748.444 366.674 749.17 367.399 749.17 368.85V375.896C749.17 377.346 748.444 378.072 746.994 378.072H735.182C734.353 378.072 733.938 378.452 733.938 379.211V431.122C733.938 432.573 733.213 433.298 731.763 433.298Z" fill="black"/>
<path d="M663.812 433.298H653.865C652.622 433.298 652.207 432.573 652.622 431.122L668.993 368.85C669.476 367.399 670.512 366.674 672.101 366.674H685.882C687.609 366.674 688.645 367.399 688.99 368.85L705.361 431.122C705.775 432.573 705.361 433.298 704.118 433.298H694.171C693.411 433.298 692.893 433.16 692.617 432.883C692.34 432.538 692.133 431.951 691.995 431.122L689.094 419.724H668.889L665.988 431.122C665.85 431.951 665.608 432.538 665.262 432.883C664.986 433.16 664.503 433.298 663.812 433.298ZM678.836 379.211L671.376 409.156H686.711L679.25 379.211H678.836Z" fill="black"/>
<path d="M635.544 433.298H621.971C620.52 433.298 619.657 432.573 619.38 431.122L603.32 369.057C602.837 367.469 603.528 366.674 605.393 366.674H615.132C616.514 366.674 617.343 367.399 617.619 368.85L628.498 419.828H628.913L639.792 368.85C640.069 367.399 640.898 366.674 642.279 366.674H652.019C653.746 366.674 654.436 367.469 654.091 369.057L638.031 431.122C637.686 432.573 636.857 433.298 635.544 433.298Z" fill="black"/>
<path d="M591.8 433.298H557.919C556.468 433.298 555.743 432.573 555.743 431.122V368.85C555.743 367.399 556.468 366.674 557.919 366.674H591.8C593.182 366.674 593.873 367.399 593.873 368.85V375.896C593.873 377.346 593.182 378.072 591.8 378.072H570.145C569.316 378.072 568.902 378.452 568.902 379.211V392.681C568.902 393.441 569.316 393.821 570.145 393.821H587.863C589.314 393.821 590.039 394.546 590.039 395.997V403.043C590.039 404.493 589.314 405.219 587.863 405.219H570.145C569.316 405.219 568.902 405.598 568.902 406.358V420.761C568.902 421.52 569.316 421.9 570.145 421.9H591.8C593.182 421.9 593.873 422.626 593.873 424.076V431.122C593.873 432.573 593.182 433.298 591.8 433.298Z" fill="black"/>
<path d="M545.626 433.298H511.537C510.087 433.298 509.361 432.573 509.361 431.122V368.85C509.361 367.399 510.087 366.674 511.537 366.674H520.344C521.795 366.674 522.52 367.399 522.52 368.85V420.657C522.52 421.417 522.935 421.797 523.764 421.797H545.626C547.008 421.797 547.699 422.557 547.699 424.076V431.122C547.699 432.573 547.008 433.298 545.626 433.298Z" fill="black"/>
<path d="M497.082 433.298H463.2C461.749 433.298 461.024 432.573 461.024 431.122V368.85C461.024 367.399 461.749 366.674 463.2 366.674H497.082C498.463 366.674 499.154 367.399 499.154 368.85V375.896C499.154 377.346 498.463 378.072 497.082 378.072H475.426C474.598 378.072 474.183 378.452 474.183 379.211V392.681C474.183 393.441 474.598 393.821 475.426 393.821H493.144C494.595 393.821 495.32 394.546 495.32 395.997V403.043C495.32 404.493 494.595 405.219 493.144 405.219H475.426C474.598 405.219 474.183 405.598 474.183 406.358V420.761C474.183 421.52 474.598 421.9 475.426 421.9H497.082C498.463 421.9 499.154 422.626 499.154 424.076V431.122C499.154 432.573 498.463 433.298 497.082 433.298Z" fill="black"/>
<path d="M426.142 433.298H392.26C390.809 433.298 390.084 432.573 390.084 431.122V368.85C390.084 367.399 390.809 366.674 392.26 366.674H426.142C427.523 366.674 428.214 367.399 428.214 368.85V375.896C428.214 377.346 427.523 378.072 426.142 378.072H404.486C403.657 378.072 403.243 378.452 403.243 379.211V392.681C403.243 393.441 403.657 393.821 404.486 393.821H422.204C423.655 393.821 424.38 394.546 424.38 395.997V403.043C424.38 404.493 423.655 405.219 422.204 405.219H404.486C403.657 405.219 403.243 405.598 403.243 406.358V420.761C403.243 421.52 403.657 421.9 404.486 421.9H426.142C427.523 421.9 428.214 422.626 428.214 424.076V431.122C428.214 432.573 427.523 433.298 426.142 433.298Z" fill="black"/>
<path d="M362.928 433.298H351.634C346.178 433.298 341.964 431.847 338.994 428.946C336.023 426.045 334.538 421.866 334.538 416.409V383.563C334.538 378.106 336.023 373.927 338.994 371.026C341.964 368.125 346.178 366.674 351.634 366.674H362.928C368.316 366.674 372.495 368.159 375.466 371.13C378.505 374.031 380.025 378.175 380.025 383.563V388.433C380.025 389.953 379.265 390.713 377.745 390.713H369.042C367.591 390.713 366.866 389.953 366.866 388.433V384.185C366.866 381.974 366.382 380.42 365.415 379.522C364.517 378.555 362.963 378.072 360.753 378.072H353.707C351.565 378.072 350.011 378.555 349.044 379.522C348.146 380.42 347.697 381.974 347.697 384.185V415.787C347.697 417.998 348.146 419.586 349.044 420.553C350.011 421.451 351.565 421.9 353.707 421.9H360.753C362.963 421.9 364.517 421.451 365.415 420.553C366.382 419.586 366.866 417.998 366.866 415.787V411.539C366.866 410.019 367.591 409.259 369.042 409.259H377.745C379.265 409.259 380.025 410.019 380.025 411.539V416.409C380.025 421.797 378.505 425.976 375.466 428.946C372.495 431.847 368.316 433.298 362.928 433.298Z" fill="black"/>
<path d="M285.005 433.298H275.058C273.815 433.298 273.4 432.573 273.815 431.122L290.186 368.85C290.669 367.399 291.705 366.674 293.294 366.674H307.075C308.802 366.674 309.838 367.399 310.183 368.85L326.554 431.122C326.968 432.573 326.554 433.298 325.311 433.298H315.364C314.604 433.298 314.086 433.16 313.81 432.883C313.533 432.538 313.326 431.951 313.188 431.122L310.287 419.724H290.082L287.181 431.122C287.043 431.951 286.801 432.538 286.455 432.883C286.179 433.16 285.696 433.298 285.005 433.298ZM300.029 379.211L292.569 409.156H307.904L300.443 379.211H300.029Z" fill="black"/>
<path d="M235.346 433.298H226.538C225.088 433.298 224.362 432.573 224.362 431.122V368.85C224.362 367.399 225.088 366.674 226.538 366.674H251.82C257.208 366.674 261.387 368.159 264.357 371.13C267.328 374.031 268.813 378.175 268.813 383.563V393.51C268.813 398.898 267.328 403.077 264.357 406.047C261.387 408.949 257.208 410.399 251.82 410.399H238.765C237.936 410.399 237.521 410.779 237.521 411.539V431.122C237.521 432.573 236.796 433.298 235.346 433.298ZM238.661 398.898H249.644C251.855 398.898 253.409 398.449 254.307 397.551C255.205 396.584 255.654 395.03 255.654 392.888V384.185C255.654 381.974 255.205 380.42 254.307 379.522C253.409 378.555 251.855 378.072 249.644 378.072H238.661C237.901 378.072 237.521 378.452 237.521 379.211V397.758C237.521 398.518 237.901 398.898 238.661 398.898Z" fill="black"/>
<path d="M168.094 416.305V414.233C168.094 412.782 168.819 412.057 170.269 412.057H179.077C180.527 412.057 181.253 412.782 181.253 414.233V415.062C181.253 417.687 181.771 419.483 182.807 420.45C183.843 421.417 185.742 421.9 188.506 421.9H193.375C196.069 421.9 197.934 421.382 198.971 420.346C200.076 419.31 200.628 417.376 200.628 414.544V413.3C200.628 411.297 199.799 409.778 198.142 408.741C196.553 407.636 194.55 406.98 192.132 406.773C189.714 406.566 187.089 406.186 184.257 405.633C181.494 405.011 178.904 404.251 176.486 403.354C174.069 402.386 172.031 400.556 170.373 397.862C168.784 395.099 167.99 391.576 167.99 387.293V383.667C167.99 378.279 169.51 374.1 172.549 371.13C175.588 368.159 179.802 366.674 185.19 366.674H195.551C201.008 366.674 205.256 368.159 208.296 371.13C211.335 374.1 212.855 378.279 212.855 383.667V385.636C212.855 387.086 212.129 387.811 210.679 387.811H201.872C200.421 387.811 199.696 387.086 199.696 385.636V385.014C199.696 382.32 199.178 380.489 198.142 379.522C197.105 378.555 195.206 378.072 192.443 378.072H188.402C185.57 378.072 183.636 378.624 182.6 379.73C181.632 380.766 181.149 382.838 181.149 385.946V387.915C181.149 391.162 183.981 393.027 189.645 393.51C195.517 393.994 200.732 395.168 205.291 397.033C207.709 398.069 209.712 399.934 211.301 402.628C212.958 405.253 213.787 408.638 213.787 412.782V416.305C213.787 421.693 212.268 425.872 209.228 428.842C206.189 431.813 201.975 433.298 196.587 433.298H185.293C179.906 433.298 175.692 431.813 172.653 428.842C169.613 425.872 168.094 421.693 168.094 416.305Z" fill="black"/>
<path d="M840.701 487.263H836.491C835.781 487.263 835.425 486.908 835.425 486.198V455.711C835.425 455.001 835.781 454.646 836.491 454.646H840.295C841.005 454.646 841.479 454.882 841.716 455.356L851.963 474.582H852.166V455.711C852.166 455.001 852.521 454.646 853.231 454.646H857.441C858.151 454.646 858.507 455.001 858.507 455.711V486.198C858.507 486.908 858.151 487.263 857.441 487.263H853.738C852.994 487.263 852.453 486.925 852.115 486.249L841.969 467.378H841.766V486.198C841.766 486.908 841.411 487.263 840.701 487.263Z" fill="black"/>
<path d="M816.821 481.683H820.422C821.505 481.683 822.265 481.464 822.705 481.024C823.179 480.551 823.415 479.773 823.415 478.691V463.219C823.415 462.136 823.179 461.375 822.705 460.936C822.265 460.462 821.505 460.226 820.422 460.226H816.821C815.739 460.226 814.978 460.462 814.538 460.936C814.098 461.375 813.878 462.136 813.878 463.219V478.691C813.878 479.773 814.098 480.551 814.538 481.024C814.978 481.464 815.739 481.683 816.821 481.683ZM821.488 487.263H815.806C813.134 487.263 811.072 486.553 809.617 485.133C808.163 483.713 807.436 481.667 807.436 478.995V462.914C807.436 460.243 808.163 458.197 809.617 456.776C811.072 455.356 813.134 454.646 815.806 454.646H821.488C824.159 454.646 826.222 455.356 827.676 456.776C829.131 458.197 829.858 460.243 829.858 462.914V478.995C829.858 481.667 829.131 483.713 827.676 485.133C826.222 486.553 824.159 487.263 821.488 487.263Z" fill="black"/>
<path d="M787.313 481.886H792.995C794.111 481.886 794.905 481.667 795.379 481.227C795.886 480.753 796.14 479.993 796.14 478.944V476.002C796.14 474.954 795.886 474.21 795.379 473.77C794.871 473.33 794.043 473.11 792.893 473.11H787.313C786.941 473.11 786.755 473.296 786.755 473.668V481.328C786.755 481.7 786.941 481.886 787.313 481.886ZM787.313 467.886H792.487C793.57 467.886 794.364 467.666 794.871 467.226C795.379 466.753 795.632 465.992 795.632 464.943V462.965C795.632 461.917 795.379 461.173 794.871 460.733C794.398 460.259 793.62 460.023 792.538 460.023H787.313C786.941 460.023 786.755 460.209 786.755 460.581V467.328C786.755 467.7 786.941 467.886 787.313 467.886ZM780.313 486.198V455.711C780.313 455.001 780.668 454.646 781.378 454.646H793.553C796.224 454.646 798.287 455.356 799.741 456.776C801.196 458.197 801.923 460.226 801.923 462.863V464.943C801.923 467.818 800.587 469.678 797.915 470.523C799.268 470.726 800.35 471.284 801.162 472.197C801.973 473.077 802.379 474.345 802.379 476.002V479.046C802.379 481.683 801.652 483.713 800.198 485.133C798.744 486.553 796.698 487.263 794.06 487.263H781.378C780.668 487.263 780.313 486.908 780.313 486.198Z" fill="black"/>
<path d="M755.982 487.263H751.112C750.503 487.263 750.3 486.908 750.503 486.198L758.518 455.711C758.755 455.001 759.262 454.646 760.04 454.646H766.787C767.632 454.646 768.139 455.001 768.308 455.711L776.323 486.198C776.526 486.908 776.323 487.263 775.715 487.263H770.845C770.473 487.263 770.219 487.196 770.084 487.061C769.949 486.891 769.847 486.604 769.779 486.198L768.359 480.618H758.467L757.047 486.198C756.979 486.604 756.861 486.891 756.692 487.061C756.556 487.196 756.32 487.263 755.982 487.263ZM763.337 460.784L759.685 475.444H767.192L763.54 460.784H763.337Z" fill="black"/>
<path d="M738.688 487.263H733.31C730.639 487.263 728.576 486.553 727.122 485.133C725.667 483.713 724.94 481.667 724.94 478.995V462.914C724.94 460.243 725.667 458.197 727.122 456.776C728.576 455.356 730.639 454.646 733.31 454.646H738.688C741.325 454.646 743.371 455.373 744.825 456.827C746.28 458.247 747.007 460.276 747.007 462.914V464.436C747.007 465.18 746.652 465.552 745.942 465.552H741.63C740.919 465.552 740.564 465.18 740.564 464.436V463.219C740.564 462.136 740.345 461.375 739.905 460.936C739.465 460.462 738.704 460.226 737.622 460.226H734.325C733.277 460.226 732.516 460.462 732.042 460.936C731.602 461.375 731.383 462.136 731.383 463.219V478.691C731.383 479.773 731.602 480.551 732.042 481.024C732.516 481.464 733.277 481.683 734.325 481.683H737.622C738.704 481.683 739.465 481.464 739.905 481.024C740.345 480.551 740.564 479.773 740.564 478.691V475.495C740.564 475.123 740.378 474.937 740.006 474.937H736.963C736.253 474.937 735.897 474.582 735.897 473.871V470.422C735.897 469.712 736.253 469.357 736.963 469.357H745.84C746.618 469.357 747.007 469.746 747.007 470.523V478.995C747.007 481.633 746.28 483.679 744.825 485.133C743.371 486.553 741.325 487.263 738.688 487.263Z" fill="black"/>
<path d="M700.913 487.263H695.536C692.864 487.263 690.802 486.553 689.347 485.133C687.893 483.713 687.166 481.667 687.166 478.995V462.914C687.166 460.243 687.893 458.197 689.347 456.776C690.802 455.356 692.864 454.646 695.536 454.646H700.913C703.551 454.646 705.597 455.373 707.051 456.827C708.505 458.247 709.233 460.276 709.233 462.914V464.436C709.233 465.18 708.877 465.552 708.167 465.552H703.855C703.145 465.552 702.79 465.18 702.79 464.436V463.219C702.79 462.136 702.57 461.375 702.131 460.936C701.691 460.462 700.93 460.226 699.848 460.226H696.551C695.502 460.226 694.741 460.462 694.268 460.936C693.828 461.375 693.608 462.136 693.608 463.219V478.691C693.608 479.773 693.828 480.551 694.268 481.024C694.741 481.464 695.502 481.683 696.551 481.683H699.848C700.93 481.683 701.691 481.464 702.131 481.024C702.57 480.551 702.79 479.773 702.79 478.691V475.495C702.79 475.123 702.604 474.937 702.232 474.937H699.188C698.478 474.937 698.123 474.582 698.123 473.871V470.422C698.123 469.712 698.478 469.357 699.188 469.357H708.066C708.844 469.357 709.233 469.746 709.233 470.523V478.995C709.233 481.633 708.505 483.679 707.051 485.133C705.597 486.553 703.551 487.263 700.913 487.263Z" fill="black"/>
<path d="M681.56 487.263H664.972C664.262 487.263 663.907 486.908 663.907 486.198V455.711C663.907 455.001 664.262 454.646 664.972 454.646H681.56C682.236 454.646 682.574 455.001 682.574 455.711V459.16C682.574 459.871 682.236 460.226 681.56 460.226H670.958C670.552 460.226 670.349 460.412 670.349 460.784V467.378C670.349 467.75 670.552 467.936 670.958 467.936H679.632C680.342 467.936 680.697 468.291 680.697 469.002V472.451C680.697 473.161 680.342 473.516 679.632 473.516H670.958C670.552 473.516 670.349 473.702 670.349 474.074V481.125C670.349 481.497 670.552 481.683 670.958 481.683H681.56C682.236 481.683 682.574 482.039 682.574 482.749V486.198C682.574 486.908 682.236 487.263 681.56 487.263Z" fill="black"/>
<path d="M652.718 454.646H656.979C657.723 454.646 658.095 454.984 658.095 455.66V478.995C658.095 481.633 657.351 483.679 655.863 485.133C654.409 486.553 652.363 487.263 649.725 487.263H644.145C641.473 487.263 639.41 486.553 637.956 485.133C636.502 483.713 635.775 481.667 635.775 478.995V455.711C635.775 455.001 636.13 454.646 636.84 454.646H641.152C641.862 454.646 642.217 455.001 642.217 455.711V478.691C642.217 479.773 642.437 480.551 642.877 481.024C643.35 481.464 644.111 481.683 645.159 481.683H648.66C649.742 481.683 650.503 481.464 650.942 481.024C651.416 480.551 651.652 479.773 651.652 478.691V455.711C651.652 455.001 652.008 454.646 652.718 454.646Z" fill="black"/>
<path d="M619.276 487.263H602.688C601.978 487.263 601.623 486.908 601.623 486.198V455.711C601.623 455.001 601.978 454.646 602.688 454.646H619.276C619.952 454.646 620.291 455.001 620.291 455.711V459.16C620.291 459.871 619.952 460.226 619.276 460.226H608.674C608.268 460.226 608.065 460.412 608.065 460.784V467.378C608.065 467.75 608.268 467.936 608.674 467.936H617.348C618.059 467.936 618.414 468.291 618.414 469.002V472.451C618.414 473.161 618.059 473.516 617.348 473.516H608.674C608.268 473.516 608.065 473.702 608.065 474.074V481.125C608.065 481.497 608.268 481.683 608.674 481.683H619.276C619.952 481.683 620.291 482.039 620.291 482.749V486.198C620.291 486.908 619.952 487.263 619.276 487.263Z" fill="black"/>
<path d="M573.973 478.944V477.93C573.973 477.219 574.328 476.864 575.038 476.864H579.35C580.06 476.864 580.415 477.219 580.415 477.93V478.335C580.415 479.621 580.669 480.5 581.176 480.973C581.684 481.447 582.614 481.683 583.966 481.683H586.351C587.669 481.683 588.583 481.43 589.09 480.923C589.631 480.415 589.901 479.468 589.901 478.082V477.473C589.901 476.492 589.496 475.748 588.684 475.241C587.906 474.7 586.925 474.379 585.742 474.277C584.558 474.176 583.273 473.99 581.887 473.719C580.534 473.415 579.266 473.043 578.082 472.603C576.898 472.13 575.901 471.234 575.089 469.915C574.311 468.562 573.922 466.837 573.922 464.74V462.965C573.922 460.327 574.666 458.281 576.154 456.827C577.642 455.373 579.705 454.646 582.343 454.646H587.416C590.087 454.646 592.167 455.373 593.655 456.827C595.143 458.281 595.887 460.327 595.887 462.965V463.929C595.887 464.639 595.532 464.994 594.822 464.994H590.51C589.8 464.994 589.445 464.639 589.445 463.929V463.624C589.445 462.305 589.191 461.409 588.684 460.936C588.177 460.462 587.247 460.226 585.894 460.226H583.916C582.529 460.226 581.582 460.496 581.075 461.037C580.601 461.545 580.365 462.559 580.365 464.081V465.045C580.365 466.634 581.751 467.547 584.524 467.784C587.399 468.021 589.952 468.596 592.184 469.509C593.368 470.016 594.349 470.929 595.126 472.248C595.938 473.533 596.344 475.19 596.344 477.219V478.944C596.344 481.582 595.6 483.628 594.112 485.082C592.624 486.536 590.561 487.263 587.923 487.263H582.394C579.756 487.263 577.693 486.536 576.205 485.082C574.717 483.628 573.973 481.582 573.973 478.944Z" fill="black"/>
<path d="M550.454 487.263H545.584C544.975 487.263 544.772 486.908 544.975 486.198L552.99 455.711C553.227 455.001 553.734 454.646 554.512 454.646H561.259C562.104 454.646 562.611 455.001 562.78 455.711L570.795 486.198C570.998 486.908 570.795 487.263 570.187 487.263H565.317C564.945 487.263 564.691 487.196 564.556 487.061C564.421 486.891 564.319 486.604 564.252 486.198L562.831 480.618H552.939L551.519 486.198C551.451 486.604 551.333 486.891 551.164 487.061C551.029 487.196 550.792 487.263 550.454 487.263ZM557.809 460.784L554.157 475.444H561.664L558.012 460.784H557.809Z" fill="black"/>
<path d="M526.425 481.886H532.106C533.222 481.886 534.017 481.667 534.49 481.227C534.998 480.753 535.251 479.993 535.251 478.944V476.002C535.251 474.954 534.998 474.21 534.49 473.77C533.983 473.33 533.154 473.11 532.005 473.11H526.425C526.053 473.11 525.867 473.296 525.867 473.668V481.328C525.867 481.7 526.053 481.886 526.425 481.886ZM526.425 467.886H531.599C532.681 467.886 533.476 467.666 533.983 467.226C534.49 466.753 534.744 465.992 534.744 464.943V462.965C534.744 461.917 534.49 461.173 533.983 460.733C533.51 460.259 532.732 460.023 531.65 460.023H526.425C526.053 460.023 525.867 460.209 525.867 460.581V467.328C525.867 467.7 526.053 467.886 526.425 467.886ZM519.424 486.198V455.711C519.424 455.001 519.779 454.646 520.49 454.646H532.664C535.336 454.646 537.399 455.356 538.853 456.776C540.307 458.197 541.034 460.226 541.034 462.863V464.943C541.034 467.818 539.698 469.678 537.027 470.523C538.379 470.726 539.462 471.284 540.273 472.197C541.085 473.077 541.491 474.345 541.491 476.002V479.046C541.491 481.683 540.764 483.713 539.309 485.133C537.855 486.553 535.809 487.263 533.171 487.263H520.49C519.779 487.263 519.424 486.908 519.424 486.198Z" fill="black"/>
<path d="M485.442 487.263H481.13C480.42 487.263 480.065 486.908 480.065 486.198V455.711C480.065 455.001 480.42 454.646 481.13 454.646H485.442C486.152 454.646 486.507 455.001 486.507 455.711V467.632C486.507 468.004 486.71 468.19 487.116 468.19H495.689C496.061 468.19 496.247 468.004 496.247 467.632V455.711C496.247 455.001 496.602 454.646 497.312 454.646H501.624C502.334 454.646 502.689 455.001 502.689 455.711V486.198C502.689 486.908 502.334 487.263 501.624 487.263H497.312C496.602 487.263 496.247 486.908 496.247 486.198V474.328C496.247 473.956 496.061 473.77 495.689 473.77H487.116C486.71 473.77 486.507 473.956 486.507 474.328V486.198C486.507 486.908 486.152 487.263 485.442 487.263Z" fill="black"/>
<path d="M466.668 487.263H461.139C458.467 487.263 456.404 486.553 454.95 485.133C453.496 483.713 452.769 481.667 452.769 478.995V462.914C452.769 460.243 453.496 458.197 454.95 456.776C456.404 455.356 458.467 454.646 461.139 454.646H466.668C469.306 454.646 471.352 455.373 472.806 456.827C474.294 458.247 475.038 460.276 475.038 462.914V465.298C475.038 466.042 474.666 466.414 473.922 466.414H469.661C468.951 466.414 468.596 466.042 468.596 465.298V463.219C468.596 462.136 468.359 461.375 467.886 460.936C467.446 460.462 466.685 460.226 465.603 460.226H462.154C461.105 460.226 460.344 460.462 459.871 460.936C459.431 461.375 459.211 462.136 459.211 463.219V478.691C459.211 479.773 459.431 480.551 459.871 481.024C460.344 481.464 461.105 481.683 462.154 481.683H465.603C466.685 481.683 467.446 481.464 467.886 481.024C468.359 480.551 468.596 479.773 468.596 478.691V476.611C468.596 475.867 468.951 475.495 469.661 475.495H473.922C474.666 475.495 475.038 475.867 475.038 476.611V478.995C475.038 481.633 474.294 483.679 472.806 485.133C471.352 486.553 469.306 487.263 466.668 487.263Z" fill="black"/>
<path d="M431.419 487.263H427.107C426.397 487.263 426.042 486.908 426.042 486.198V455.711C426.042 455.001 426.397 454.646 427.107 454.646H439.18C441.818 454.646 443.881 455.373 445.369 456.827C446.857 458.281 447.601 460.327 447.601 462.965V466.922C447.601 470.743 446.096 473.28 443.087 474.531V474.734L448.514 486.046C448.819 486.858 448.531 487.263 447.652 487.263H443.543C442.934 487.263 442.495 487.196 442.224 487.061C441.954 486.925 441.734 486.638 441.565 486.198L436.492 475.241H433.093C432.687 475.241 432.484 475.427 432.484 475.799V486.198C432.484 486.908 432.129 487.263 431.419 487.263ZM433.042 470.067H438.014C439.096 470.067 439.891 469.847 440.398 469.407C440.905 468.934 441.159 468.19 441.159 467.175V463.219C441.159 462.17 440.905 461.409 440.398 460.936C439.891 460.462 439.096 460.226 438.014 460.226H433.042C432.67 460.226 432.484 460.412 432.484 460.784V469.509C432.484 469.881 432.67 470.067 433.042 470.067Z" fill="black"/>
<path d="M401.711 487.263H396.841C396.232 487.263 396.029 486.908 396.232 486.198L404.247 455.711C404.484 455.001 404.991 454.646 405.769 454.646H412.516C413.361 454.646 413.869 455.001 414.038 455.711L422.053 486.198C422.256 486.908 422.053 487.263 421.444 487.263H416.574C416.202 487.263 415.949 487.196 415.813 487.061C415.678 486.891 415.577 486.604 415.509 486.198L414.088 480.618H404.197L402.776 486.198C402.709 486.604 402.59 486.891 402.421 487.061C402.286 487.196 402.049 487.263 401.711 487.263ZM409.066 460.784L405.414 475.444H412.922L409.269 460.784H409.066Z" fill="black"/>
<path d="M392.199 487.263H375.611C374.901 487.263 374.546 486.908 374.546 486.198V455.711C374.546 455.001 374.901 454.646 375.611 454.646H392.199C392.875 454.646 393.213 455.001 393.213 455.711V459.16C393.213 459.871 392.875 460.226 392.199 460.226H381.597C381.191 460.226 380.988 460.412 380.988 460.784V467.378C380.988 467.75 381.191 467.936 381.597 467.936H390.271C390.981 467.936 391.336 468.291 391.336 469.002V472.451C391.336 473.161 390.981 473.516 390.271 473.516H381.597C381.191 473.516 380.988 473.702 380.988 474.074V481.125C380.988 481.497 381.191 481.683 381.597 481.683H392.199C392.875 481.683 393.213 482.039 393.213 482.749V486.198C393.213 486.908 392.875 487.263 392.199 487.263Z" fill="black"/>
<path d="M346.896 478.944V477.93C346.896 477.219 347.251 476.864 347.961 476.864H352.273C352.983 476.864 353.338 477.219 353.338 477.93V478.335C353.338 479.621 353.592 480.5 354.099 480.973C354.606 481.447 355.536 481.683 356.889 481.683H359.273C360.592 481.683 361.505 481.43 362.013 480.923C362.554 480.415 362.824 479.468 362.824 478.082V477.473C362.824 476.492 362.418 475.748 361.607 475.241C360.829 474.7 359.848 474.379 358.665 474.277C357.481 474.176 356.196 473.99 354.809 473.719C353.457 473.415 352.188 473.043 351.005 472.603C349.821 472.13 348.823 471.234 348.012 469.915C347.234 468.562 346.845 466.837 346.845 464.74V462.965C346.845 460.327 347.589 458.281 349.077 456.827C350.565 455.373 352.628 454.646 355.266 454.646H360.339C363.01 454.646 365.09 455.373 366.578 456.827C368.066 458.281 368.81 460.327 368.81 462.965V463.929C368.81 464.639 368.455 464.994 367.745 464.994H363.433C362.723 464.994 362.368 464.639 362.368 463.929V463.624C362.368 462.305 362.114 461.409 361.607 460.936C361.099 460.462 360.169 460.226 358.817 460.226H356.838C355.452 460.226 354.505 460.496 353.998 461.037C353.524 461.545 353.287 462.559 353.287 464.081V465.045C353.287 466.634 354.674 467.547 357.447 467.784C360.322 468.021 362.875 468.596 365.107 469.509C366.291 470.016 367.271 470.929 368.049 472.248C368.861 473.533 369.267 475.19 369.267 477.219V478.944C369.267 481.582 368.523 483.628 367.035 485.082C365.547 486.536 363.484 487.263 360.846 487.263H355.317C352.679 487.263 350.616 486.536 349.128 485.082C347.64 483.628 346.896 481.582 346.896 478.944Z" fill="black"/>
<path d="M341.594 487.263H325.006C324.296 487.263 323.941 486.908 323.941 486.198V455.711C323.941 455.001 324.296 454.646 325.006 454.646H341.594C342.27 454.646 342.609 455.001 342.609 455.711V459.16C342.609 459.871 342.27 460.226 341.594 460.226H330.992C330.586 460.226 330.383 460.412 330.383 460.784V467.378C330.383 467.75 330.586 467.936 330.992 467.936H339.666C340.377 467.936 340.732 468.291 340.732 469.002V472.451C340.732 473.161 340.377 473.516 339.666 473.516H330.992C330.586 473.516 330.383 473.702 330.383 474.074V481.125C330.383 481.497 330.586 481.683 330.992 481.683H341.594C342.27 481.683 342.609 482.039 342.609 482.749V486.198C342.609 486.908 342.27 487.263 341.594 487.263Z" fill="black"/>
<path d="M302.084 487.263H297.772C297.062 487.263 296.706 486.908 296.706 486.198V455.711C296.706 455.001 297.062 454.646 297.772 454.646H309.845C312.483 454.646 314.546 455.373 316.034 456.827C317.522 458.281 318.266 460.327 318.266 462.965V466.922C318.266 470.743 316.761 473.28 313.751 474.531V474.734L319.179 486.046C319.483 486.858 319.196 487.263 318.316 487.263H314.207C313.599 487.263 313.159 487.196 312.889 487.061C312.618 486.925 312.398 486.638 312.229 486.198L307.156 475.241H303.758C303.352 475.241 303.149 475.427 303.149 475.799V486.198C303.149 486.908 302.794 487.263 302.084 487.263ZM303.707 470.067H308.678C309.76 470.067 310.555 469.847 311.062 469.407C311.57 468.934 311.823 468.19 311.823 467.175V463.219C311.823 462.17 311.57 461.409 311.062 460.936C310.555 460.462 309.76 460.226 308.678 460.226H303.707C303.335 460.226 303.149 460.412 303.149 460.784V469.509C303.149 469.881 303.335 470.067 303.707 470.067Z" fill="black"/>
<path d="M274.179 487.263H269.918C269.174 487.263 268.802 486.908 268.802 486.198V460.784C268.802 460.412 268.616 460.226 268.244 460.226H262.461C261.751 460.226 261.396 459.871 261.396 459.16V455.711C261.396 455.001 261.751 454.646 262.461 454.646H281.636C282.346 454.646 282.701 455.001 282.701 455.711V459.16C282.701 459.871 282.346 460.226 281.636 460.226H275.853C275.447 460.226 275.244 460.412 275.244 460.784V486.198C275.244 486.908 274.889 487.263 274.179 487.263Z" fill="black"/>
<path d="M240.194 487.263H235.983C235.273 487.263 234.918 486.908 234.918 486.198V455.711C234.918 455.001 235.273 454.646 235.983 454.646H239.788C240.498 454.646 240.972 454.882 241.208 455.356L251.455 474.582H251.658V455.711C251.658 455.001 252.013 454.646 252.723 454.646H256.934C257.644 454.646 257.999 455.001 257.999 455.711V486.198C257.999 486.908 257.644 487.263 256.934 487.263H253.231C252.487 487.263 251.946 486.925 251.607 486.249L241.462 467.378H241.259V486.198C241.259 486.908 240.904 487.263 240.194 487.263Z" fill="black"/>
<path d="M228.597 455.711V486.198C228.597 486.908 228.242 487.263 227.532 487.263H223.22C222.51 487.263 222.155 486.908 222.155 486.198V455.711C222.155 455.001 222.51 454.646 223.22 454.646H227.532C228.242 454.646 228.597 455.001 228.597 455.711Z" fill="black"/>
<path d="M203.296 481.683H206.898C207.98 481.683 208.741 481.464 209.181 481.024C209.654 480.551 209.891 479.773 209.891 478.691V463.219C209.891 462.136 209.654 461.375 209.181 460.936C208.741 460.462 207.98 460.226 206.898 460.226H203.296C202.214 460.226 201.453 460.462 201.014 460.936C200.574 461.375 200.354 462.136 200.354 463.219V478.691C200.354 479.773 200.574 480.551 201.014 481.024C201.453 481.464 202.214 481.683 203.296 481.683ZM207.963 487.263H202.282C199.61 487.263 197.547 486.553 196.093 485.133C194.639 483.713 193.912 481.667 193.912 478.995V462.914C193.912 460.243 194.639 458.197 196.093 456.776C197.547 455.356 199.61 454.646 202.282 454.646H207.963C210.635 454.646 212.698 455.356 214.152 456.776C215.606 458.197 216.333 460.243 216.333 462.914V478.995C216.333 481.667 215.606 483.713 214.152 485.133C212.698 486.553 210.635 487.263 207.963 487.263Z" fill="black"/>
<path d="M183.234 454.646H187.495C188.206 454.646 188.561 454.984 188.561 455.66V478.995C188.561 481.633 187.834 483.679 186.379 485.133C184.925 486.553 182.879 487.263 180.241 487.263H175.169C172.497 487.263 170.434 486.553 168.98 485.133C167.526 483.713 166.799 481.667 166.799 478.995V474.227C166.799 473.516 167.154 473.161 167.864 473.161H172.176C172.886 473.161 173.241 473.516 173.241 474.227V478.691C173.241 479.773 173.461 480.551 173.9 481.024C174.374 481.464 175.135 481.683 176.183 481.683H179.176C180.258 481.683 181.019 481.464 181.459 481.024C181.898 480.551 182.118 479.773 182.118 478.691V455.711C182.118 455.001 182.49 454.646 183.234 454.646Z" fill="black"/>
</svg>
