<svg width="1025" height="1024" viewBox="0 0 1025 1024" fill="none" xmlns="http://www.w3.org/2000/svg">
<path d="M868.667 271.538L862.676 263.115L856.409 267.558L862.302 275.832C907.846 343.248 934.431 424.518 934.431 512C934.431 614.063 898.248 707.669 837.985 780.685L834.84 784.317L840.708 789.268L843.911 785.57C905.264 711.228 942.117 615.917 942.117 512C942.117 422.928 915.039 340.18 868.667 271.538Z" fill="black"/>
<path d="M167.663 267.558L161.402 263.115L155.413 271.538C109.039 340.18 81.9611 422.928 81.9611 512C81.9611 615.917 118.816 711.228 180.171 785.57L183.374 789.268L189.243 784.317L186.097 780.685C125.84 707.669 89.641 614.063 89.641 512C89.641 424.518 116.236 343.248 161.78 275.832L167.663 267.558Z" fill="black"/>
<path d="M201.191 196.333L196.722 192.15L171.025 219.592L175.495 223.777L185.957 212.603L220.378 244.836L225.104 239.788L190.681 207.557L201.191 196.333Z" fill="black"/>
<path d="M852.665 219.255L827.022 191.772L822.546 195.951L832.989 207.139L798.517 239.317L803.235 244.371L837.707 212.193L848.191 223.434L852.665 219.255Z" fill="black"/>
<path d="M805.174 170.89C799.1 165.82 792.417 163.647 785.123 164.37C777.83 165.093 771.437 168.746 765.94 175.329C760.828 181.455 758.469 187.843 758.865 194.489C759.259 201.137 762.389 206.908 768.252 211.801C772.793 215.592 777.231 217.95 781.564 218.878L785.795 213.809C781.275 213.143 776.988 211.119 772.94 207.74C768.609 204.124 766.307 199.762 766.033 194.649C765.761 189.538 767.667 184.535 771.75 179.64C776.056 174.482 780.91 171.584 786.314 170.941C791.717 170.299 796.7 171.881 801.26 175.688C804.764 178.61 807.3 182.101 808.871 186.16L813.477 180.641C811.851 177.402 809.082 174.151 805.174 170.89Z" fill="black"/>
<path d="M271.61 197.384L237.157 156.743L231.909 161.19L246.879 178.848L226.308 196.286L211.341 178.628L206.092 183.077L240.545 223.717L245.793 219.268L230.268 200.956L250.838 183.518L266.362 201.831L271.61 197.384Z" fill="black"/>
<path d="M441.551 247.191C398.486 258.625 359.587 280.284 327.61 309.412L431.786 413.588C429.958 415.081 428.173 416.623 426.432 418.213C431.158 413.897 436.212 409.933 441.551 406.363V247.191Z" fill="black"/>
<path d="M385.058 512C385.058 478.962 397.675 448.871 418.354 426.282C418.01 426.657 417.669 427.034 417.33 427.413L313.324 323.407C266.69 372.527 238.078 438.922 238.078 512C238.078 583.034 265.112 647.753 309.453 696.431L413.63 592.255C395.77 570.381 385.058 542.441 385.058 512Z" fill="black"/>
<path d="M323.447 710.717C356.187 741.799 396.6 764.875 441.551 776.809V617.637C436.595 614.323 431.885 610.67 427.455 606.71L323.447 710.717Z" fill="black"/>
<path d="M582.532 247.191V406.363C586.257 408.854 589.844 411.537 593.277 414.398C592.951 414.126 592.624 413.857 592.296 413.589L696.472 309.412C664.495 280.284 625.596 258.625 582.532 247.191Z" fill="black"/>
<path d="M710.758 323.407L606.752 427.413C626.822 449.871 639.024 479.51 639.024 512C639.024 542.441 628.312 570.381 610.453 592.255L714.629 696.431C758.97 647.753 786.004 583.034 786.004 512C786.004 438.922 757.392 372.527 710.758 323.407Z" fill="black"/>
<path d="M700.635 710.717L596.628 606.711C592.197 610.67 587.488 614.323 582.532 617.637V776.809C627.482 764.875 667.895 741.799 700.635 710.717Z" fill="black"/>
<path d="M512.041 507.001C524.742 507.001 535.038 496.705 535.038 484.004C535.038 471.303 524.742 461.007 512.041 461.007C499.34 461.007 489.044 471.303 489.044 484.004C489.044 496.705 499.34 507.001 512.041 507.001Z" fill="black"/>
<path fill-rule="evenodd" clip-rule="evenodd" d="M861.474 512C861.474 319.01 705.032 162.559 512.041 162.559C319.05 162.559 162.6 319.01 162.6 512C162.6 704.99 319.05 861.441 512.041 861.441C705.032 861.441 861.474 704.99 861.474 512ZM512.041 215.04C517.239 215.04 522.406 215.174 527.539 215.437V400.015H496.543V215.437C501.676 215.174 506.843 215.04 512.041 215.04ZM470.577 217.912C460.739 219.286 451.055 221.143 441.551 223.457C392.155 235.482 347.597 259.86 311.332 293.134C306.419 297.643 301.658 302.314 297.057 307.14C246.265 360.427 215.081 432.572 215.081 512C215.081 589.384 244.681 659.855 293.175 712.709C297.684 717.622 302.355 722.383 307.181 726.984C344.173 762.245 390.254 788.055 441.551 800.543C451.689 803.011 462.031 804.959 472.546 806.357V553.762C451.239 540.535 437.051 516.926 437.051 490.003C437.051 463.08 451.239 439.471 472.546 426.244V217.643C471.889 217.731 471.233 217.82 470.577 217.912ZM512.041 808.96C517.239 808.96 522.406 808.826 527.539 808.562V538.996H496.543V808.562C501.676 808.826 506.843 808.96 512.041 808.96ZM551.536 806.357C562.052 804.959 572.394 803.011 582.532 800.543C633.828 788.055 679.909 762.245 716.901 726.984C721.727 722.384 726.398 717.622 730.907 712.709C779.401 659.856 809.001 589.384 809.001 512C809.001 432.572 777.817 360.427 727.025 307.14C722.425 302.314 717.663 297.643 712.75 293.134C676.485 259.86 631.927 235.482 582.532 223.457C577.483 222.227 572.383 221.127 567.236 220.16C562.049 219.185 556.814 218.345 551.536 217.643L551.536 426.244C572.843 439.471 587.031 463.08 587.031 490.003C587.031 516.926 572.843 540.535 551.536 553.762L551.536 806.357ZM512.041 515.999C536.338 515.999 556.035 496.303 556.035 472.005C556.035 447.708 536.338 428.011 512.041 428.011C487.744 428.011 468.047 447.708 468.047 472.005C468.047 496.303 487.744 515.999 512.041 515.999Z" fill="black"/>
<path fill-rule="evenodd" clip-rule="evenodd" d="M887.074 512C887.074 304.871 719.17 136.96 512.041 136.96C304.912 136.96 137 304.871 137 512C137 719.129 304.912 887.04 512.041 887.04C719.17 887.04 887.074 719.129 887.074 512ZM152.36 512C152.36 313.353 313.396 152.319 512.041 152.319C710.686 152.319 871.722 313.353 871.722 512C871.722 710.647 710.686 871.681 512.041 871.681C313.396 871.681 152.36 710.647 152.36 512Z" fill="black"/>
<path d="M767.582 142.706L744.512 127.834L715.645 172.616L739.727 188.139L743.026 183.022L724.726 171.225L734.434 156.163L750.45 166.488L753.749 161.371L737.733 151.046L746.976 136.708L764.265 147.852L767.582 142.706Z" fill="black"/>
<path d="M284.668 131.92L281.349 126.775L258.284 141.654L287.163 186.426L311.24 170.896L307.941 165.781L289.644 177.581L279.93 162.522L295.943 152.193L292.644 147.078L276.629 157.407L267.383 143.07L284.668 131.92Z" fill="black"/>
<path d="M723.384 115.952L717.261 112.817L701.788 143.037C697.504 151.405 692.871 154.313 687.891 151.764C685.973 150.78 684.615 149.508 683.821 147.941L680.763 153.911C681.736 155.131 683.192 156.236 685.132 157.229C689.316 159.371 693.425 159.497 697.457 157.608C701.491 155.718 704.975 151.906 707.911 146.172L723.384 115.952Z" fill="black"/>
<path fill-rule="evenodd" clip-rule="evenodd" d="M674.801 92.7767C671.09 91.3423 667.535 90.6527 664.135 90.7039C660.736 90.7551 657.492 91.5492 654.404 93.0841C648.227 96.1559 643.59 101.703 640.492 109.724C637.617 117.168 637.412 124.033 639.876 130.318C642.341 136.604 647.102 141.11 654.162 143.837C661.39 146.629 668.079 146.495 674.226 143.437C680.372 140.379 685.004 134.816 688.117 126.752C690.993 119.308 691.219 112.453 688.797 106.183C686.375 99.9134 681.71 95.4446 674.801 92.7767ZM657.734 99.1647C660.017 97.9312 662.362 97.2514 664.77 97.1253C667.18 96.9992 669.652 97.4248 672.186 98.4041C677.341 100.394 680.727 103.704 682.343 108.337C683.959 112.967 683.528 118.49 681.05 124.907C678.638 131.154 675.246 135.431 670.877 137.739C666.508 140.046 661.672 140.174 656.367 138.125C651.426 136.217 648.119 132.858 646.45 128.046C644.781 123.235 645.108 117.824 647.429 111.812C649.733 105.844 653.168 101.628 657.734 99.1647Z" fill="black"/>
<path fill-rule="evenodd" clip-rule="evenodd" d="M398.398 132.369L361.038 89.301L354.125 91.831L353.366 148.838L360.506 146.227L360.309 130.769L381.146 123.15L391.258 134.98L398.398 132.369ZM359.694 97.0445L359.856 96.9854C360.743 98.542 361.427 99.6099 361.908 100.191L377.074 118.23L360.278 124.374L360.163 100.828C360.165 99.8996 360.01 98.6386 359.694 97.0445Z" fill="black"/>
<path fill-rule="evenodd" clip-rule="evenodd" d="M420.419 76.3084C417.843 74.9942 414.816 74.5094 411.336 74.8562C410.177 74.9705 408.967 75.1774 407.706 75.4789L391.912 79.2344L404.239 131.067L410.932 129.477L405.743 107.659L410.561 106.512C412.548 106.039 414.377 106.154 416.052 106.851C417.725 107.549 419.765 109.133 422.167 111.602L434.189 123.944L442.085 122.066L428.688 108.849C426.396 106.542 424.599 104.954 423.296 104.085C421.994 103.216 420.557 102.65 418.984 102.388L418.945 102.221C426.11 98.2544 428.838 92.6782 427.129 85.4962C426.091 81.124 423.852 78.0601 420.419 76.3084ZM407.995 81.5969C409.657 81.2008 411.166 81.0432 412.522 81.12C413.878 81.1988 415.08 81.5141 416.131 82.0658C418.233 83.1692 419.603 85.0706 420.246 87.77C420.935 90.6684 420.539 93.2378 419.055 95.4761C417.573 97.7145 415.303 99.1981 412.248 99.9252L404.35 101.803L399.996 83.4983L407.995 81.5969Z" fill="black"/>
<path fill-rule="evenodd" clip-rule="evenodd" d="M612.317 74.5784L596.491 70.9588L584.61 122.896L591.314 124.429L596.316 102.567L601.144 103.673C603.135 104.128 604.725 105.038 605.917 106.406C607.112 107.771 608.239 110.094 609.299 113.371L614.618 129.761L622.531 131.571L616.366 113.789C615.332 110.705 614.421 108.486 613.639 107.131C612.855 105.775 611.816 104.632 610.523 103.7L610.563 103.533C618.743 103.147 623.656 99.3538 625.304 92.156C626.305 87.7759 625.654 84.0401 623.351 80.9486C621.047 77.8571 617.37 75.735 612.317 74.5784ZM597.66 96.6997L601.856 78.3595L609.869 80.194C613.2 80.9545 615.562 82.2963 616.958 84.2135C618.355 86.1326 618.743 88.4459 618.124 91.1492C617.458 94.0555 615.966 96.1835 613.647 97.5352C611.325 98.8868 608.635 99.2119 605.573 98.5105L597.66 96.6997Z" fill="black"/>
<path fill-rule="evenodd" clip-rule="evenodd" d="M564.366 66.3206L549.335 64.5571L543.131 117.475L549.964 118.275L552.284 98.4967L559.15 99.3006C564.664 100.132 569.453 99.1528 573.52 96.3628C577.588 93.5728 579.925 89.5808 580.534 84.3889C581.135 79.264 580.02 75.138 577.188 72.013C574.358 68.888 570.083 66.9905 564.366 66.3206ZM552.989 92.4832L555.462 71.3706L562.433 72.1884C570.495 73.1342 574.127 77.0118 573.329 83.8194C572.917 87.3286 571.52 89.8941 569.136 91.5196C566.753 93.1452 563.475 93.7126 559.307 93.224L552.989 92.4832Z" fill="black"/>
<path d="M465.443 91.3482L484.987 63.5818L476.538 64.4763L459.747 89.4961C459.272 90.2369 458.874 90.9364 458.551 91.5945L458.38 91.6122L455.743 66.6772L448.9 67.4004L454.507 120.384L461.347 119.66L458.59 93.5964L458.762 93.5786C459.063 94.0299 459.599 94.6427 460.374 95.4131L482.829 117.387L492.202 116.396L465.443 91.3482Z" fill="black"/>
<path d="M547.368 911.65L548.569 966.453L541.527 966.607L540.733 930.307C540.668 927.312 540.766 923.712 541.029 919.506L540.851 919.509C540.295 922.163 539.793 924.016 539.344 925.064L522.174 967.031L518.249 967.118L499.302 926.26C498.857 925.326 498.271 923.391 497.546 920.457L497.333 920.461C497.625 923.005 497.824 926.705 497.93 931.564L498.719 967.545L491.961 967.693L490.761 912.889L500.348 912.68L517.34 949.898C518.629 952.75 519.492 954.972 519.928 956.568L520.176 956.562C521.329 953.161 522.139 950.856 522.608 949.642L538.24 911.851L547.368 911.65Z" fill="black"/>
<path fill-rule="evenodd" clip-rule="evenodd" d="M580.656 906.464L610.314 957.071L602.603 958.365L594.605 944.492L572.095 948.267L569.376 963.937L561.664 965.232L573.187 907.717L580.656 906.464ZM578.012 914.012L577.836 914.042C577.854 915.713 577.773 917.019 577.596 917.957L573.268 941.79L591.416 938.748L579.48 917.642C579.103 916.964 578.613 915.754 578.012 914.012Z" fill="black"/>
<path d="M442.56 906.405L449.566 907.411L442.649 955.469L464.26 958.58L463.369 964.779L434.752 960.661L442.56 906.405Z" fill="black"/>
<path d="M409.602 898.892L416.522 900.387L406.264 947.843L427.605 952.458L426.281 958.58L398.022 952.472L409.602 898.892Z" fill="black"/>
<path fill-rule="evenodd" clip-rule="evenodd" d="M380.419 890.108L387.606 892.494L390.142 951.096L382.72 948.632L382.143 932.63L360.482 925.436L350.749 938.013L343.327 935.548L380.419 890.108ZM381.569 897.873C380.803 899.358 380.121 900.474 379.524 901.221L364.55 920.26L382.013 926.061L381.339 901.823C381.323 901.047 381.455 899.749 381.737 897.928L381.569 897.873Z" fill="black"/>
<path d="M649.163 888.736L665.241 941.142L657.222 943.601L618.361 910.919C617.263 909.997 616.317 909.041 615.519 908.052L615.316 908.115C615.858 909.232 616.697 911.652 617.838 915.374L629.141 952.216L622.442 954.271L606.367 901.865L614.859 899.26L652.792 931.45C654.589 932.971 655.683 933.956 656.067 934.407L656.201 934.364C655.519 932.945 654.624 930.431 653.519 926.823L642.465 890.791L649.163 888.736Z" fill="black"/>
<path d="M688.89 872.577L678.135 905.815L712.058 922.284L703.15 926.112L674.391 911.354C673.398 910.83 672.682 910.393 672.249 910.04L672.085 910.111L682.731 934.886L676.228 937.68L654.589 887.316L661.09 884.522L671.275 908.225L671.439 908.154C671.555 907.411 671.734 906.602 671.975 905.729L680.859 876.027L688.89 872.577Z" fill="black"/>
<path d="M712.058 858.81L714.953 864.044L710.339 866.597L731.089 904.093L735.703 901.54L738.6 906.773L723.181 915.305L720.284 910.073L724.897 907.52L704.147 870.024L699.534 872.577L696.639 867.344L712.058 858.81Z" fill="black"/>
<path fill-rule="evenodd" clip-rule="evenodd" d="M309.127 857.634L323.897 865.435C328.612 867.923 331.704 871.011 333.174 874.693C334.644 878.378 334.299 882.266 332.139 886.354C328.592 893.071 322.701 895.536 314.468 893.751L314.385 893.907C315.423 895.175 316.151 896.586 316.57 898.143C316.99 899.697 317.305 902.145 317.516 905.484L318.923 924.796L311.539 920.897L310.601 903.195C310.416 899.654 309.913 897.047 309.089 895.372C308.266 893.698 306.925 892.37 305.069 891.388L300.564 889.01L289.79 909.413L283.531 906.109L309.127 857.634ZM312.493 866.416L303.455 883.535L310.839 887.434C313.699 888.941 316.46 889.333 319.124 888.606C321.791 887.879 323.838 886.159 325.271 883.448C326.603 880.922 326.83 878.522 325.953 876.244C325.074 873.966 323.082 872.006 319.972 870.365L312.493 866.416Z" fill="black"/>
<path fill-rule="evenodd" clip-rule="evenodd" d="M268.809 834.99C273.962 834.925 279.08 836.616 284.161 840.062C290.467 844.338 294.107 849.9 295.081 856.745C296.054 863.59 294.237 870.412 289.63 877.206C284.638 884.567 278.706 889.069 271.836 890.709C264.966 892.35 258.23 890.931 251.63 886.456C245.187 882.086 241.459 876.467 240.446 869.594C239.435 862.721 241.232 855.888 245.84 849.094C250.806 841.77 256.74 837.286 263.643 835.641C265.368 835.229 267.09 835.012 268.809 834.99ZM269.384 841.873C268.129 841.942 266.858 842.153 265.571 842.505C260.423 843.918 256.003 847.349 252.308 852.797C248.587 858.282 247.006 863.63 247.564 868.841C248.122 874.051 250.654 878.185 255.165 881.243C260.007 884.527 264.887 885.518 269.8 884.22C274.715 882.922 279.106 879.42 282.972 873.718C286.946 867.86 288.658 862.424 288.112 857.407C287.566 852.391 284.939 848.286 280.235 845.096C276.765 842.742 273.146 841.668 269.384 841.873Z" fill="black"/>
<path d="M756.512 829.633L787.622 874.766L780.717 879.525L733.817 860.061C732.494 859.512 731.302 858.885 730.244 858.182L730.07 858.302C730.922 859.206 732.453 861.259 734.662 864.465L756.534 896.194L750.763 900.172L719.653 855.039L726.966 849.997L772.832 869.271C775.005 870.181 776.343 870.792 776.846 871.103L776.962 871.025C775.884 869.876 774.274 867.748 772.132 864.641L750.744 833.609L756.512 829.633Z" fill="black"/>
<path fill-rule="evenodd" clip-rule="evenodd" d="M796.804 803.89C804.133 803.768 810.532 806.72 816.005 812.745C821.712 819.034 824.248 825.925 823.61 833.418C822.973 840.911 819.44 847.575 813.011 853.412L801.849 863.545L765.004 822.957L776.586 812.446C782.735 806.863 789.473 804.01 796.804 803.89ZM795.795 810.491C790.511 810.637 785.448 812.907 780.61 817.299L774.479 822.865L802.88 854.15L808.776 848.797C813.928 844.119 816.673 839.063 817.012 833.625C817.349 828.189 815.218 822.938 810.621 817.872C806.021 812.806 801.08 810.347 795.795 810.491Z" fill="black"/>
<path d="M235.06 801.366L256.098 820.207L251.894 824.898L236.13 810.781L223.902 824.435L238.505 837.515L234.351 842.155L219.746 829.076L203.763 846.921L198.491 842.2L235.06 801.366Z" fill="black"/>
<path fill-rule="evenodd" clip-rule="evenodd" d="M1024.04 512C1024.04 229.231 794.812 0 512.041 0C229.27 0 0.0410156 229.231 0.0410156 512C0.0410156 794.769 229.27 1024 512.041 1024C794.812 1024 1024.04 794.769 1024.04 512ZM34.602 512C34.602 248.318 248.359 34.5602 512.041 34.5602C775.723 34.5602 989.474 248.318 989.474 512C989.474 775.682 775.723 989.44 512.041 989.44C248.359 989.44 34.602 775.682 34.602 512Z" fill="black"/>
</svg>
