<svg width="800" height="753" viewBox="0 0 800 753" fill="none" xmlns="http://www.w3.org/2000/svg">
<path fill-rule="evenodd" clip-rule="evenodd" d="M507.633 737.956C503.012 743.237 497.031 748.173 491.393 752.724C454.966 715.081 412.198 673.361 371.548 673.361C346.345 673.361 328.194 692.545 307.017 706.08C277.629 724.862 237.316 735.44 202.769 721.654C184.189 714.601 166.186 704.209 152.732 687.329C179.921 706.08 220.64 708.6 251.335 695.865C285.264 681.791 319.797 663.103 358.463 663.103C415.461 663.103 469.632 701.654 507.633 737.956ZM86.3676 619.564C124.106 662.517 185.655 648.698 236.031 659.425C243.043 660.918 249.632 663.247 257.157 662.091C251.169 658.294 243.23 657.866 236.311 655.26C197.223 640.536 191.128 598.707 169.737 569.918C197.06 588.079 219.696 612.946 245.246 636.314C263.029 652.577 285.184 659.535 308.16 664.209C302.639 666.227 295.416 665.752 289.469 667.226C248.197 677.463 202.438 693.625 158.522 679.133C130.181 669.782 100.689 647.635 86.3665 619.563L86.3676 619.564ZM25.8768 520.151C49.4163 573.44 108.557 577.614 147.88 610.303C155.357 616.521 162.769 622.24 170.983 626.071L171.407 625.642C162.333 617.431 152.513 607.648 145.485 597.438C123.01 564.785 130.488 520.153 113.16 485.535C128.904 504.384 143.671 523.796 152.737 545.376C167.326 580.106 172.282 619.729 205.001 646.12C169.588 634.437 128.736 636.763 96.8473 615.878C63.3266 593.924 32.2604 559.275 25.8768 520.15V520.151ZM0.6613 412.34C4.06573 459.289 54.0548 484.368 77.891 522.962C82.9809 531.205 88.2213 539.713 95.6133 546.37C94.4607 541.37 90.3478 536.941 88.0834 532.038C80.4386 515.479 76.9777 496.315 78.8858 476.611C81.2087 452.637 91.2047 430.373 87.3687 405.152C107.913 449.494 101.285 504.929 113.16 552.873C115.787 563.479 122.246 572.761 126.226 582.806C106.04 567.451 79.5859 553.822 57.4279 536.358C35.9992 519.469 17.3992 499.674 7.73033 473.917C0.762649 455.358 -1.04927 433.219 0.6613 412.338V412.34ZM2.0584 325.837C4.46909 315.359 6.31444 304.513 10.8735 294.902C2.24125 339.19 31.7087 371.182 41.7673 409.499C45.5594 423.938 46.8562 439.282 52.6964 452.755C53.2418 453.046 53.7131 452.48 54.0496 452.044C39.5112 411.266 60.8229 373.578 81.5849 341.435C87.0426 332.987 89.6685 323.148 92.2161 313.202C94.4607 331.663 90.5317 353.03 87.1157 372.081C82.7186 396.606 74.3361 419.591 67.6725 443.253C63.2848 458.036 64.4415 474.719 66.6924 490.206L64.5774 488.518C49.1206 459.986 18.6249 437.697 9.41479 406.557C2.05421 381.668 -3.03779 352.915 2.0584 325.839V325.837ZM18.3605 278.194C18.3605 244.679 31.4119 217.339 50.9889 192.378C51.5584 192.095 51.9618 191.526 52.6964 191.66C31.1434 224.439 50.7611 265.817 47.99 302.996L45.1477 341.156C45.5688 341.434 45.5688 342.578 46.5709 342.14C47.8447 337.886 48.2303 333.361 48.9712 328.967C54.1593 298.203 81.1763 276.792 104.088 255.073C109.507 249.935 113.476 243.86 116.03 237.333C114.126 252.657 109.851 268.366 102.971 282.29C85.3352 317.99 51.2742 346.807 45.1477 387.377C42.1769 348.496 18.3605 319.593 18.3605 278.194ZM75.1679 165.138C86.006 153.124 98.1514 143.765 112.61 140.063C84.5316 159.369 86.0551 193.87 77.4605 222.72C74.3173 233.269 69.6965 243.152 67.242 254.054L67.9515 254.621C72.6234 242.297 80.6392 230.449 91.0813 220.598C110.83 201.966 140.523 190.69 150.295 163.436C149.848 201.309 117.562 230.097 88.075 252.369C74.8492 262.359 63.6098 275.77 56.7507 289.83C57.896 279.366 58.4164 270.661 57.4833 260.448C54.4561 227.364 52.4916 190.275 75.1679 165.138ZM189.137 101.466C168.298 119.75 154.392 143.283 138.384 164.438C125.07 182.034 106.799 192.936 91.0876 207.701C99.5705 190.107 101.135 169.946 111.906 152.926C130.323 123.82 160.762 112.522 189.137 101.466Z" fill="black"/>
<path fill-rule="evenodd" clip-rule="evenodd" d="M292.367 737.956C296.989 743.237 302.97 748.173 308.607 752.724C345.035 715.081 387.803 673.361 428.452 673.361C453.655 673.361 471.807 692.545 492.984 706.08C522.371 724.862 562.685 735.44 597.231 721.654C615.812 714.601 633.814 704.209 647.269 687.329C620.078 706.08 579.361 708.6 548.666 695.865C514.737 681.791 480.203 663.103 441.537 663.103C384.54 663.103 330.369 701.654 292.367 737.956ZM713.632 619.564C675.895 662.517 614.345 648.698 563.969 659.425C556.957 660.918 550.369 663.247 542.842 662.091C548.832 658.294 556.77 657.866 563.69 655.26C602.778 640.536 608.872 598.707 630.263 569.917C602.941 588.079 580.305 612.946 554.755 636.314C536.972 652.577 514.817 659.535 491.841 664.209C497.362 666.227 504.585 665.752 510.532 667.226C551.804 677.463 597.562 693.625 641.479 679.133C669.82 669.781 699.312 647.635 713.634 619.563L713.632 619.564ZM774.123 520.151C750.584 573.44 691.444 577.614 652.12 610.303C644.644 616.521 637.232 622.24 629.018 626.071L628.593 625.642C637.668 617.431 647.488 607.648 654.515 597.438C676.991 564.785 669.512 520.153 686.841 485.535C671.095 504.384 656.329 523.795 647.263 545.376C632.675 580.106 627.719 619.729 594.999 646.12C630.412 634.437 671.264 636.763 703.153 615.877C736.674 593.924 767.739 559.275 774.123 520.15V520.151ZM799.339 412.34C795.935 459.289 745.945 484.368 722.11 522.962C717.019 531.205 711.779 539.713 704.387 546.37C705.539 541.37 709.652 536.941 711.917 532.038C719.562 515.478 723.022 496.315 721.114 476.611C718.791 452.637 708.796 430.373 712.632 405.152C692.087 449.494 698.715 504.929 686.841 552.873C684.214 563.479 677.754 572.76 673.774 582.806C693.961 567.451 720.414 553.821 742.572 536.358C764.001 519.469 782.6 499.674 792.27 473.917C799.237 455.358 801.049 433.219 799.339 412.338V412.34ZM797.942 325.836C795.531 315.358 793.685 304.513 789.127 294.901C797.758 339.189 768.292 371.182 758.233 409.499C754.441 423.938 753.144 439.281 747.304 452.755C746.758 453.046 746.287 452.48 745.95 452.044C760.489 411.266 739.177 373.578 718.416 341.435C712.958 332.986 710.331 323.148 707.784 313.202C705.539 331.662 709.468 353.03 712.884 372.08C717.282 396.605 725.664 419.591 732.328 443.253C736.715 458.035 735.559 474.719 733.308 490.205L735.423 488.518C750.879 459.986 781.376 437.696 790.585 406.557C797.945 381.668 803.038 352.915 797.942 325.838V325.836ZM781.64 278.194C781.64 244.678 768.589 217.339 749.011 192.378C748.442 192.095 748.038 191.525 747.304 191.659C768.856 224.438 749.239 265.817 752.01 302.996L754.853 341.156C754.431 341.434 754.431 342.578 753.429 342.14C752.156 337.886 751.77 333.36 751.029 328.967C745.841 298.203 718.824 276.792 695.913 255.072C690.493 249.935 686.525 243.86 683.97 237.333C685.874 252.657 690.15 268.366 697.03 282.29C714.665 317.989 748.726 346.807 754.853 387.377C757.823 348.496 781.64 319.592 781.64 278.194ZM724.832 165.138C713.994 153.124 701.849 143.764 687.389 140.062C715.468 159.369 713.945 193.871 722.54 222.72C725.683 233.268 730.304 243.152 732.759 254.054L732.048 254.621C727.377 242.297 719.361 230.448 708.919 220.597C689.17 201.966 659.477 190.69 649.704 163.436C650.153 201.309 682.438 230.096 711.925 252.368C725.151 262.358 736.391 275.77 743.25 289.83C742.104 279.365 741.584 270.661 742.517 260.447C745.544 227.364 747.508 190.275 724.832 165.138ZM610.864 101.466C631.702 119.749 645.608 143.283 661.617 164.438C674.93 182.034 693.2 192.936 708.913 207.701C700.43 190.107 698.866 169.946 688.095 152.925C669.676 123.82 639.237 112.522 610.864 101.466Z" fill="black"/>
<path fill-rule="evenodd" clip-rule="evenodd" d="M224.596 429.272C224.596 408.597 241.469 391.836 262.282 391.836C283.096 391.836 299.968 408.597 299.968 429.272C299.968 449.948 283.096 466.709 262.282 466.709C241.469 466.709 224.596 449.948 224.596 429.272Z" fill="black"/>
<path fill-rule="evenodd" clip-rule="evenodd" d="M227.092 577.77C227.092 561.092 240.5 547.572 257.041 547.572C273.582 547.572 286.99 561.092 286.99 577.77C286.99 594.449 273.582 607.969 257.041 607.969C240.5 607.969 227.092 594.449 227.092 577.77Z" fill="black"/>
<path fill-rule="evenodd" clip-rule="evenodd" d="M455.206 221.624C455.206 205.084 468.614 191.675 485.155 191.675C501.695 191.675 515.104 205.084 515.104 221.624C515.104 238.165 501.695 251.573 485.155 251.573C468.614 251.573 455.206 238.165 455.206 221.624Z" fill="black"/>
<path fill-rule="evenodd" clip-rule="evenodd" d="M575.502 319.958C575.502 301.211 590.698 286.015 609.444 286.015C628.19 286.015 643.387 301.211 643.387 319.958C643.387 338.704 628.19 353.9 609.444 353.9C590.698 353.9 575.502 338.704 575.502 319.958Z" fill="black"/>
<path fill-rule="evenodd" clip-rule="evenodd" d="M568.014 174.454C568.014 159.982 579.745 148.249 594.22 148.249C608.694 148.249 620.425 159.982 620.425 174.454C620.425 188.927 608.694 200.66 594.22 200.66C579.745 200.66 568.014 188.927 568.014 174.454Z" fill="black"/>
<path fill-rule="evenodd" clip-rule="evenodd" d="M466.187 531.349C466.187 503.644 488.647 481.184 516.352 481.184C544.057 481.184 566.517 503.644 566.517 531.349C566.517 559.054 544.057 581.514 516.352 581.514C488.647 581.514 466.187 559.054 466.187 531.349Z" fill="black"/>
<path fill-rule="evenodd" clip-rule="evenodd" d="M325.426 355.398C325.426 314.322 358.724 281.024 399.799 281.024C440.875 281.024 474.173 314.322 474.173 355.398C474.173 396.473 440.875 429.771 399.799 429.771C358.724 429.771 325.426 396.473 325.426 355.398Z" fill="black"/>
<path fill-rule="evenodd" clip-rule="evenodd" d="M372.845 26.7047C372.845 11.9561 384.801 0 399.55 0C414.299 0 426.255 11.9561 426.255 26.7047C426.255 41.4537 414.299 53.4094 399.55 53.4094C384.801 53.4094 372.845 41.4537 372.845 26.7047Z" fill="black"/>
<path fill-rule="evenodd" clip-rule="evenodd" d="M200.464 231.661C200.017 230.486 199.616 229.283 199.263 228.052C198.294 224.673 197.744 221.273 197.582 217.907C188.778 223.545 183.989 229.115 185.212 233.38C187.758 242.257 215.385 242.123 246.92 233.081C278.454 224.038 301.954 209.512 299.409 200.634C298.186 196.369 291.174 194.184 280.72 194.068C282.366 197.008 283.701 200.183 284.67 203.562C285.042 204.859 285.352 206.159 285.603 207.459C276.902 214.055 262.297 220.883 245.096 225.815C227.601 230.831 211.344 232.763 200.464 231.661ZM171.573 238.329C169.409 230.782 179.957 220.558 197.769 211.207C199.595 193.717 211.78 178.248 229.722 173.104C247.663 167.959 266.193 174.62 277.011 188.485C297.071 186.976 311.435 190.057 313.599 197.604C315.849 205.45 304.36 216.189 285.254 225.832C281.72 241.028 270.272 253.906 254.212 258.511C238.151 263.117 221.618 258.262 210.569 247.247C189.256 249.194 173.823 246.175 171.573 238.329Z" fill="black"/>
<path fill-rule="evenodd" clip-rule="evenodd" d="M406.966 67.8917H392.988L392.988 258.271L395.595 258.156C397.047 258.091 398.508 258.058 399.977 258.058C453.6 258.058 497.067 301.505 497.067 355.096C497.067 408.687 453.6 452.134 399.977 452.134C346.355 452.134 302.887 408.687 302.887 355.096C302.887 309.109 334.897 270.587 377.867 260.585L379.797 260.136L379.797 190.936L376.957 191.331C296.501 202.535 234.57 271.608 234.57 355.148C234.57 446.5 308.626 520.555 399.977 520.555C491.328 520.555 565.383 446.5 565.383 355.148C565.383 275.505 509.097 209.014 434.135 193.273V152.309C531.461 168.577 605.639 253.203 605.639 355.148C605.639 468.732 513.561 560.811 399.977 560.811C286.393 560.811 194.315 468.732 194.315 355.148C194.315 315.459 205.555 278.402 225.025 246.979L227.911 242.321L222.503 243.201C218.575 243.841 214.783 244.335 211.165 244.685L209.882 244.809L209.241 245.927C190.784 278.089 180.232 315.364 180.232 355.096C180.232 476.429 278.616 574.789 399.977 574.789C521.338 574.789 619.722 476.429 619.722 355.096C619.722 241.505 533.495 148.052 422.91 136.585L420.157 136.3V205.039L422.288 205.354C495.282 216.142 551.301 279.077 551.301 355.096C551.301 438.7 483.55 506.472 399.977 506.472C316.405 506.472 248.654 438.7 248.654 355.096C248.654 283.246 298.697 223.083 365.819 207.592V249.331C321.193 263.747 288.909 305.647 288.909 355.096C288.909 416.465 338.636 466.217 399.978 466.217C461.32 466.217 511.046 416.465 511.046 355.096C511.046 296.075 465.053 247.801 406.966 244.192V67.8917Z" fill="black"/>
<path fill-rule="evenodd" clip-rule="evenodd" d="M275.248 191.134L275.958 191.071L276.528 190.643C305.291 169.023 339.905 154.773 377.57 150.693L379.797 150.451V81.7836L377.096 82.007C236.486 93.6366 125.998 211.46 125.998 355.096C125.998 506.439 248.662 629.127 399.977 629.127C551.292 629.127 673.956 506.439 673.956 355.096C673.956 211.46 563.469 93.6365 422.859 82.007L420.157 81.7836V95.9089L422.44 96.1042C555.517 107.489 659.978 219.098 659.978 355.096C659.978 498.661 543.572 615.044 399.977 615.044C256.382 615.044 139.976 498.661 139.976 355.096C139.976 223.108 238.368 114.091 365.819 97.3707V138.042C324.138 144.546 286.34 162.762 255.898 189.213L248.963 195.238L257.994 193.55C264.064 192.415 269.857 191.611 275.248 191.134Z" fill="black"/>
</svg>
