<svg width="1025" height="1025" viewBox="0 0 1025 1025" fill="none" xmlns="http://www.w3.org/2000/svg">
<path fill-rule="evenodd" clip-rule="evenodd" d="M578.012 914.785L577.836 914.815C577.854 916.485 577.773 917.792 577.596 918.73L573.268 942.563L591.417 939.521L579.48 918.415C579.104 917.737 578.613 916.527 578.012 914.785ZM547.369 912.423L548.569 967.226L541.527 967.38L540.733 931.08C540.668 928.085 540.767 924.485 541.029 920.278L540.851 920.282C540.296 922.936 539.793 924.789 539.344 925.837L522.175 967.804L518.249 967.89L499.302 927.033C498.857 926.099 498.271 924.164 497.546 921.23L497.333 921.234C497.625 923.778 497.824 927.478 497.931 932.337L498.719 968.318L491.961 968.466L490.761 913.662L500.349 913.453L517.34 950.671C518.629 953.522 519.492 955.745 519.928 957.341L520.176 957.335C521.329 953.934 522.139 951.629 522.608 950.415L538.24 912.624L547.369 912.423ZM580.657 907.237L610.314 957.844L602.603 959.138L594.605 945.265L572.096 949.04L569.376 964.71L561.664 966.005L573.187 908.49L580.657 907.237ZM442.56 907.178L449.566 908.184L442.649 956.242L464.26 959.353L463.369 965.552L434.752 961.434L442.56 907.178ZM409.603 899.664L416.522 901.16L406.264 948.616L427.605 953.231L426.281 959.353L398.022 953.245L409.603 899.664ZM381.57 898.646C380.803 900.131 380.121 901.247 379.524 901.993L364.55 921.033L382.013 926.834L381.339 902.596C381.323 901.82 381.455 900.522 381.737 898.701L381.57 898.646ZM380.419 890.881L387.606 893.267L390.142 951.869L382.721 949.405L382.143 933.403L360.483 926.209L350.749 938.786L343.327 936.321L380.419 890.881ZM649.164 889.509L665.241 941.915L657.222 944.374L618.361 911.692C617.263 910.769 616.317 909.814 615.519 908.825L615.316 908.888C615.858 910.005 616.698 912.425 617.839 916.147L629.141 952.989L622.442 955.044L606.367 902.638L614.859 900.033L652.792 932.223C654.589 933.744 655.683 934.729 656.067 935.18L656.201 935.137C655.519 933.718 654.624 931.204 653.519 927.596L642.465 891.564L649.164 889.509ZM688.89 873.35L678.135 906.588L712.058 923.057L703.15 926.885L674.391 912.127C673.398 911.603 672.682 911.165 672.249 910.813L672.085 910.884L682.731 935.659L676.228 938.453L654.589 888.089L661.091 885.295L671.275 908.998L671.439 908.927C671.555 908.184 671.735 907.375 671.975 906.502L680.859 876.8L688.89 873.35ZM312.493 867.189L303.455 884.307L310.84 888.207C313.699 889.714 316.46 890.106 319.125 889.379C321.791 888.652 323.839 886.932 325.271 884.221C326.604 881.695 326.83 879.295 325.953 877.017C325.074 874.739 323.082 872.779 319.972 871.138L312.493 867.189ZM712.058 859.583L714.953 864.817L710.34 867.37L731.09 904.866L735.703 902.313L738.6 907.546L723.181 916.078L720.284 910.846L724.897 908.293L704.147 870.797L699.534 873.35L696.639 868.117L712.058 859.583ZM309.127 858.407L323.898 866.208C328.612 868.696 331.704 871.784 333.174 875.466C334.644 879.151 334.299 883.039 332.139 887.127C328.592 893.844 322.702 896.309 314.468 894.524L314.385 894.679C315.424 895.948 316.151 897.359 316.571 898.916C316.99 900.47 317.306 902.917 317.516 906.257L318.924 925.569L311.539 921.67L310.601 903.968C310.416 900.427 309.913 897.82 309.09 896.145C308.266 894.471 306.926 893.143 305.069 892.161L300.564 889.783L289.79 910.186L283.531 906.882L309.127 858.407ZM269.385 842.646C268.129 842.715 266.858 842.926 265.571 843.278C260.424 844.691 256.003 848.122 252.308 853.57C248.587 859.055 247.007 864.403 247.564 869.614C248.122 874.824 250.654 878.958 255.166 882.016C260.008 885.3 264.887 886.291 269.8 884.993C274.715 883.695 279.106 880.193 282.973 874.491C286.946 868.633 288.658 863.197 288.112 858.18C287.567 853.164 284.94 849.059 280.235 845.869C276.765 843.515 273.147 842.441 269.385 842.646ZM268.809 835.763C273.962 835.698 279.081 837.389 284.161 840.835C290.468 845.111 294.107 850.673 295.081 857.518C296.055 864.363 294.238 871.185 289.63 877.978C284.638 885.34 278.706 889.842 271.836 891.482C264.966 893.123 258.23 891.704 251.63 887.229C245.188 882.859 241.459 877.24 240.446 870.367C239.435 863.494 241.232 856.661 245.84 849.867C250.806 842.543 256.74 838.059 263.644 836.414C265.368 836.002 267.09 835.785 268.809 835.763ZM756.512 830.406L787.622 875.539L780.717 880.298L733.817 860.834C732.495 860.285 731.302 859.658 730.244 858.955L730.071 859.075C730.922 859.979 732.453 862.032 734.662 865.238L756.534 896.967L750.763 900.945L719.653 855.812L726.967 850.77L772.832 870.044C775.006 870.954 776.344 871.565 776.846 871.876L776.962 871.798C775.884 870.649 774.274 868.521 772.132 865.414L750.744 834.382L756.512 830.406ZM795.795 811.264C790.511 811.41 785.449 813.68 780.611 818.072L774.479 823.638L802.88 854.923L808.776 849.57C813.928 844.892 816.673 839.836 817.012 834.398C817.349 828.962 815.219 823.711 810.621 818.645C806.021 813.579 801.081 811.12 795.795 811.264ZM796.804 804.663C804.133 804.541 810.532 807.493 816.005 813.518C821.712 819.807 824.249 826.698 823.61 834.191C822.974 841.684 819.44 848.348 813.012 854.184L801.849 864.318L765.004 823.73L776.586 813.219C782.735 807.636 789.473 804.783 796.804 804.663ZM235.06 802.139L256.098 820.98L251.895 825.671L236.131 811.554L223.902 825.208L238.505 838.288L234.351 842.928L219.746 829.848L203.763 847.694L198.491 842.973L235.06 802.139ZM932.973 546.673L940.619 547.29L939.91 556.746C930.963 644.849 895.41 725.092 841.434 789.32L840.76 790.084L834.891 785.133L835.551 784.38C888.572 721.301 923.474 642.49 932.263 555.961L932.973 546.673ZM91.1151 546.673L91.8227 555.961C100.61 642.49 135.514 721.301 188.531 784.38L189.191 785.133L183.322 790.084L182.648 789.32C128.67 725.092 93.1293 644.849 84.1821 556.746L83.4627 547.29L91.1151 546.673ZM64.979 469.508L71.0923 469.839L70.2626 485.192L117.35 487.737L116.977 494.64L69.8882 492.094L69.0625 507.378L62.9492 507.047L64.979 469.508ZM958.967 468.806L961.174 506.336L955.065 506.698L954.158 491.349L907.077 494.135L906.683 487.235L953.744 484.449L952.838 469.169L958.967 468.806ZM511.864 456.527C470.913 456.527 437.718 489.724 437.718 530.674C437.718 571.622 470.913 604.819 511.864 604.819C552.814 604.819 586.009 571.622 586.009 530.674C586.009 489.724 552.814 456.527 511.864 456.527ZM72.9389 417.908L125.485 426.707L124.35 433.491L100.671 429.527L96.2174 456.123L119.896 460.087L118.761 466.871L66.2128 458.072L67.3479 451.288L90.179 455.11L94.6329 428.514L71.8018 424.692L72.9389 417.908ZM928.992 417.86C934.884 417.77 940.107 419.269 944.64 422.359C950.709 426.477 954.454 432.427 955.853 440.212C956.779 445.221 956.819 449.489 955.991 453.02L948.916 454.304C950.315 450.182 950.591 445.877 949.783 441.387C948.719 435.542 945.901 431.137 941.349 428.167C936.796 425.196 931.199 424.311 924.597 425.513C918.311 426.654 913.66 429.273 910.585 433.373C907.511 437.473 906.486 442.299 907.491 447.847C908.437 453.037 910.428 457.337 913.482 460.745L906.979 461.926C904.259 458.436 902.347 453.782 901.303 447.962C899.923 440.449 901.224 434.013 905.185 428.656C909.147 423.301 915.039 419.908 922.902 418.481C925.011 418.097 927.041 417.89 928.992 417.86ZM393.15 369.837C403.571 369.953 410.561 372.132 411.781 376.384C414.318 385.235 390.889 399.715 359.452 408.732C328.015 417.746 300.471 417.878 297.933 409.029C296.715 404.777 301.488 399.225 310.266 393.603C310.428 396.959 310.976 400.348 311.941 403.717C312.294 404.945 312.694 406.144 313.139 407.315C323.986 408.414 340.194 406.487 357.635 401.487C374.782 396.571 389.342 389.763 398.018 383.188C397.767 381.891 397.458 380.595 397.087 379.302C396.122 375.933 394.79 372.769 393.15 369.837ZM937.525 369.663L945.605 395.897L939.752 397.698L933.702 378.039L917.404 383.06L923.001 401.27L917.187 403.061L911.59 384.851L894.445 390.123L900.869 410.931L895.036 412.724L886.621 385.339L937.525 369.663ZM86.9431 368.128L92.8021 369.9L86.8564 389.59L103.188 394.521L108.698 376.28L114.526 378.041L109.015 396.283L126.171 401.463L132.465 380.62L138.295 382.38L130.01 409.809L79.0069 394.405L86.9431 368.128ZM927.376 342.778L929.997 349.134L898.642 362.115C892.691 364.578 887.567 365.222 883.271 364.048C878.974 362.871 875.92 360.111 874.126 355.768C873.299 353.754 872.904 351.969 872.944 350.411L879.152 347.845C878.738 349.554 878.935 351.404 879.763 353.396C881.911 358.566 887.311 359.352 896.002 355.758L927.376 342.778ZM546.094 328.207C618.865 340.37 678.656 390.866 704.002 458.231L706.343 464.897L701.946 467.281C692.946 473.364 687.028 483.661 687.028 495.341C687.028 511.695 698.627 525.338 714.046 528.493L717.036 528.794L717.074 530.424C717.074 583.503 696.903 631.872 663.81 668.284L662.385 669.778L659.871 667.494C651.227 660.359 640.144 656.074 628.059 656.074C624.606 656.074 621.236 656.425 617.98 657.091L617.407 657.238L628.642 647.026C658.483 617.185 676.941 575.961 676.941 530.424C676.941 485.763 659.185 445.248 630.349 415.555L624.092 409.626L624.468 408.931C625.98 405.358 626.815 401.431 626.815 397.309C626.815 380.819 613.448 367.452 596.958 367.452C588.713 367.452 581.248 370.794 575.846 376.197L574.502 377.826L573.174 377.227C564.487 373.76 555.437 371.007 546.094 369.044V328.207ZM887.133 293.266C883.231 293.231 879.171 294.356 874.954 296.643C869.278 299.715 865.534 303.624 863.681 308.371C861.829 313.116 862.164 317.817 864.706 322.473C867.406 327.472 871.17 330.508 875.998 331.584C880.827 332.66 886.168 331.6 892.06 328.408C898.11 325.127 902.012 321.2 903.786 316.627C905.56 312.054 905.126 307.337 902.485 302.48C899.904 297.703 896.061 294.773 890.996 293.692C889.735 293.42 888.434 293.278 887.133 293.266ZM887.291 286.194C889.025 286.25 890.72 286.486 892.395 286.902C899.096 288.567 904.338 292.896 908.141 299.891C911.669 306.401 912.319 312.828 910.092 319.171C907.885 325.515 903.254 330.589 896.258 334.394C888.651 338.516 881.517 339.749 874.856 338.094C868.194 336.439 863.011 332.205 859.326 325.393C855.7 318.741 855.01 312.223 857.198 305.839C859.405 299.455 864.016 294.362 871.013 290.557C874.796 288.506 878.462 287.178 882.029 286.569C883.823 286.263 885.576 286.139 887.291 286.194ZM477.988 273.436V313.983C446.823 318.845 417.835 330.278 392.486 346.813L380.159 355.475L378.712 354.415C371.937 349.999 363.983 347.445 355.704 347.227C351.287 347.108 346.778 347.656 342.309 348.937C324.42 354.066 312.272 369.488 310.451 386.924C292.695 396.245 282.179 406.438 284.337 413.963C286.3 420.806 298.325 423.967 315.534 423.35L321.117 422.989L315.364 433.795C301.023 462.931 292.969 495.714 292.969 530.372C292.969 651.333 391.051 749.392 512.041 749.392C538.508 749.392 563.878 744.701 587.365 736.102L587.952 735.87L589.468 737.897C598.642 749.012 612.524 756.098 628.059 756.098C633.238 756.098 638.234 755.309 642.932 753.847L643.789 753.534L635.593 758.245C598.866 778.193 556.777 789.525 512.041 789.525C471.779 789.525 433.66 780.347 399.665 763.969L397.44 762.828L398.794 758.433C399.192 756.472 399.401 754.442 399.401 752.364C399.401 735.738 386.033 722.259 369.542 722.259C361.297 722.259 353.833 725.628 348.43 731.076L348.298 731.237L347.162 730.347C289.556 682.814 252.837 610.88 252.837 530.372C252.837 398.789 350.927 290.106 477.988 273.436ZM132.838 270.985L179.468 296.762L176.157 302.752L145.271 285.68C142.723 284.271 139.745 282.429 136.34 280.153L136.257 280.303C138.216 282.067 139.525 283.395 140.187 284.283L167.054 319.218L165.207 322.56L121.62 318.511C120.617 318.428 118.708 317.973 115.887 317.149L115.789 317.33C118.067 318.327 121.273 319.969 125.406 322.254L156.022 339.176L152.843 344.927L106.215 319.151L110.724 310.992L150.297 314.907C153.322 315.218 155.612 315.579 157.165 315.992L157.281 315.782C154.989 313.151 153.448 311.342 152.656 310.355L128.546 278.752L132.838 270.985ZM505.075 244.048V433.844L507.672 433.73C509.12 433.665 510.577 433.631 512.041 433.631C565.499 433.631 608.834 476.946 608.834 530.372C608.834 583.799 565.499 627.113 512.041 627.113C458.583 627.113 415.248 583.799 415.248 530.372C415.248 484.526 447.16 446.121 489.998 436.151L491.924 435.704V366.716L489.092 367.11C408.882 378.278 347.141 447.14 347.141 530.424C347.141 544.654 348.944 558.464 352.332 571.636L353.002 573.996L348.201 577.931C341.402 584.685 337.196 594.015 337.196 604.32C337.196 624.934 354.019 641.643 374.769 641.643C377.362 641.643 379.895 641.383 382.34 640.884L388.211 639.074L395.44 647.026C425.281 676.867 466.505 695.324 512.041 695.324C534.809 695.324 556.499 690.711 576.228 682.366L587.465 676.952L586.59 678.124C581.197 686.106 578.049 695.727 578.049 706.086C578.049 711.264 578.836 716.259 580.296 720.958L581.214 723.464L573.012 726.239C553.75 732.231 533.274 735.458 512.041 735.458C398.806 735.458 307.008 643.661 307.008 530.424C307.008 495.802 315.589 463.191 330.736 434.591L333.21 430.282L337.598 432.443C346.524 436.139 356.715 436.953 366.722 434.082C382.734 429.491 394.147 416.654 397.669 401.504C416.716 391.889 428.17 381.184 425.927 373.364C424.039 366.779 412.84 363.604 396.672 363.922L392.228 364.136L399.99 358.69C426.319 341.475 456.846 330.155 489.703 326.595L491.924 326.355V257.896L489.23 258.119C349.05 269.714 238.901 387.176 238.901 530.372C238.901 615.242 277.593 691.073 338.298 741.18L341.171 743.438L340.292 746.297C339.894 748.258 339.685 750.285 339.685 752.364C339.685 768.992 353.053 782.471 369.542 782.471C375.726 782.471 381.471 780.575 386.236 777.328L389.577 774.55L393.623 776.625C429.447 793.889 469.615 803.564 512.041 803.564C662.892 803.564 785.181 681.251 785.181 530.372C785.181 467.724 764.098 410.001 728.64 363.914L728.187 363.352L729.761 360.454C731.084 357.327 731.815 353.89 731.815 350.283C731.815 335.856 720.118 324.16 705.689 324.16C702.082 324.16 698.645 324.891 695.519 326.213L694.272 326.889L685.457 319.295C643.793 285.012 591.801 262.83 534.852 258.119L532.158 257.896V271.978L534.435 272.173C588.333 276.784 637.521 297.887 676.932 330.408L683.707 336.262L681.616 340.116C680.294 343.241 679.562 346.677 679.562 350.283C679.562 364.712 691.259 376.41 705.689 376.41C709.297 376.41 712.734 375.679 715.858 374.357L718.092 373.143L724.753 382.24C754.059 424.225 771.245 475.293 771.245 530.372C771.245 615.352 730.335 690.78 667.127 738.039L665.414 739.259L666.65 737.897C673.786 729.251 678.07 718.17 678.07 706.086C678.07 697.454 675.885 689.334 672.034 682.248L671.167 680.82L674.202 677.636C709.561 638.741 731.113 587.074 731.113 530.372L731.044 527.45L734.038 526.52C746.183 521.383 754.705 509.358 754.705 495.341C754.705 476.652 739.556 461.502 720.867 461.502L720.05 461.585L719.419 459.585C692.343 380.28 621.033 321.462 534.904 312.53L532.158 312.247V380.774L534.283 381.089C543.38 382.433 552.213 384.591 560.703 387.483L568.002 390.34L567.707 391.292C567.311 393.235 567.102 395.248 567.102 397.309C567.102 413.799 580.467 427.166 596.958 427.166C603.141 427.166 608.885 425.287 613.651 422.067L615.45 420.583L616.818 421.795C645.232 449.24 662.902 487.743 662.902 530.372C662.902 613.721 595.358 681.285 512.041 681.285C470.383 681.285 432.667 664.393 405.368 637.083L400.327 631.537L401.334 630.711C408.133 623.959 412.339 614.627 412.339 604.32C412.339 583.71 395.519 566.999 374.769 566.999C372.173 566.999 369.643 567.262 367.195 567.758L365.948 568.142L365.932 568.087C362.83 556.032 361.182 543.396 361.182 530.372C361.182 458.742 411.072 398.764 477.988 383.32V424.932C433.499 439.304 401.313 481.076 401.313 530.372C401.313 591.554 450.889 641.152 512.043 641.152C573.195 641.152 622.769 591.554 622.769 530.372C622.769 471.531 576.918 423.407 519.01 419.807V244.048H505.075ZM862.972 242.724L847.856 253.928L852.685 260.45C854.557 262.974 856.823 264.477 859.464 264.96C862.105 265.443 864.627 264.796 867.012 263.021C869.239 261.37 870.461 259.362 870.638 256.996C870.835 254.631 869.909 252.076 867.879 249.331L862.972 242.724ZM173.601 234.512C168.702 234.744 164.565 237.048 161.189 241.424C157.87 245.727 156.743 250.419 157.809 255.496C158.873 260.574 161.938 265.066 167.005 268.973C172.107 272.908 177.201 274.76 182.29 274.528C187.376 274.295 191.536 272.083 194.772 267.888C198.245 263.384 199.496 258.71 198.527 253.865C197.559 249.022 194.422 244.553 189.12 240.464C183.673 236.263 178.5 234.279 173.601 234.512ZM863.721 233.615L873.377 246.659C876.472 250.822 877.871 254.826 877.615 258.672C877.358 262.521 875.427 265.781 871.82 268.457C865.889 272.853 859.681 272.538 853.217 267.509L853.079 267.612C853.453 269.161 853.493 270.703 853.217 272.242C852.921 273.783 852.172 276.059 850.95 279.076L844.07 296.59L839.238 290.068L845.866 274.161C847.186 270.981 847.837 268.485 847.817 266.67C847.797 264.857 847.186 263.129 845.964 261.49L843.024 257.51L825.005 270.863L820.91 265.336L863.721 233.615ZM173.372 227.712C180.071 227.172 186.58 229.34 192.898 234.214C199.745 239.493 203.759 245.514 204.944 252.277C206.128 259.039 204.354 265.49 199.621 271.628C194.999 277.619 189.325 280.902 182.597 281.477C175.871 282.051 169.348 279.903 163.03 275.028C156.221 269.777 152.22 263.754 151.034 256.96C149.843 250.164 151.68 243.617 156.538 237.316C161.063 231.452 166.674 228.25 173.372 227.712ZM833.966 208.832L818.283 223.178L822.578 227.874C825.41 230.969 828.259 232.683 831.127 233.014C833.992 233.343 836.727 232.317 839.333 229.935C844.388 225.306 844.191 219.998 838.704 214.008L833.966 208.832ZM833.791 199.67L844.005 210.836C847.896 215.084 849.886 219.314 849.985 223.531C850.083 227.747 848.211 231.596 844.407 235.077C840.555 238.606 836.174 240.096 831.272 239.544C826.371 238.994 822.108 236.6 818.482 232.366L813.815 227.265L799.122 240.707L794.479 235.631L833.791 199.67ZM210.361 179.688L234.347 231.131L228.963 236.547L177.649 212.595L183.031 207.179L222.684 226.374C223.999 227.003 225.38 227.874 226.827 228.989L226.947 228.867C225.954 227.621 225.09 226.197 224.355 224.593L205.172 184.91L210.361 179.688ZM511.615 176.364C496.912 176.364 484.993 188.283 484.993 202.986C484.993 217.691 496.912 229.609 511.615 229.609C526.319 229.609 538.238 217.691 538.238 202.986C538.238 188.283 526.319 176.364 511.615 176.364ZM512.041 163.332C705.032 163.332 861.474 319.783 861.474 512.773C861.474 705.763 705.032 862.214 512.041 862.214C319.05 862.214 162.6 705.763 162.6 512.773C162.6 319.783 319.05 163.332 512.041 163.332ZM233.034 161.267L236.704 165.775L232.729 169.011L259.027 201.313L263.002 198.078L266.671 202.586L253.388 213.399L249.719 208.893L253.692 205.656L227.394 173.355L223.419 176.591L219.75 172.083L233.034 161.267ZM512.041 153.092C313.396 153.092 152.36 314.126 152.36 512.773C152.36 711.42 313.396 872.454 512.041 872.454C710.686 872.454 871.722 711.42 871.722 512.773C871.722 314.126 710.686 153.092 512.041 153.092ZM512.041 137.733C719.17 137.733 887.074 305.644 887.074 512.773C887.074 719.902 719.17 887.813 512.041 887.813C304.912 887.813 137 719.902 137 512.773C137 305.644 304.912 137.733 512.041 137.733ZM756.707 135.727L763.688 140.807L760.798 189.077C760.664 191.363 760.536 192.787 760.412 193.349L760.523 193.43C761.228 192.07 762.661 189.909 764.819 186.941L786.379 157.327L791.885 161.334L760.528 204.408L753.938 199.611L756.668 150.334C756.745 148.943 756.934 147.648 757.237 146.452L757.072 146.33C756.518 147.402 755.129 149.469 752.902 152.527L730.857 182.809L725.351 178.802L756.707 135.727ZM284.166 125.671L313.189 170.351L306.352 174.79L261.305 154.629C260.034 154.062 258.893 153.421 257.884 152.71L257.71 152.822C258.514 153.723 259.945 155.758 262.006 158.932L282.412 190.342L276.7 194.052L247.677 149.374L254.916 144.671L298.966 164.619C301.053 165.559 302.338 166.189 302.817 166.506L302.931 166.432C301.916 165.287 300.406 163.177 298.408 160.099L278.454 129.381L284.166 125.671ZM725.607 117.838L740.472 126.35L737.583 131.395L733.135 128.849L712.436 164.995L716.884 167.541L713.997 172.585L699.132 164.073L702.021 159.029L706.467 161.577L727.166 125.43L722.718 122.883L725.607 117.838ZM690.449 108.345C689.562 109.707 688.795 110.721 688.147 111.385L671.821 128.35L688.149 135.651L689.842 112.144C689.903 111.391 690.157 110.148 690.605 108.414L690.449 108.345ZM335.364 101.809L338.57 108.511C333.566 107.931 328.405 108.913 323.088 111.456C317.855 113.961 314.399 117.813 312.718 123.015C311.037 128.214 311.596 133.743 314.397 139.597C317.276 145.617 321.08 149.553 325.807 151.411C330.533 153.268 335.555 152.925 340.87 150.381C344.531 148.631 347.308 146.438 349.2 143.804L342.983 130.803L332.555 135.79L329.928 130.299L346.591 122.327L357.13 144.358C353.636 149.384 348.871 153.342 342.831 156.231C335.88 159.557 329.229 160.038 322.875 157.675C316.521 155.313 311.586 150.46 308.075 143.118C304.521 135.692 303.95 128.467 306.36 121.44C308.77 114.416 313.646 109.147 320.991 105.634C326.182 103.151 330.973 101.876 335.364 101.809ZM690.088 100.724L696.808 103.729L693.586 160.651L686.647 157.547L687.638 142.015L667.385 132.961L656.755 144.182L649.816 141.079L690.088 100.724ZM630.386 79.5128L666.242 90.8148L664.401 96.655L649.739 92.0325L635.561 137.006L628.967 134.927L643.145 89.9538L628.546 85.351L630.386 79.5128ZM480.925 70.4018C475.503 70.786 471.251 73.0638 468.166 77.235C465.082 81.4063 463.766 86.6829 464.217 93.065C464.672 99.4923 466.676 104.529 470.234 108.174C473.791 111.819 478.209 113.454 483.493 113.082C489.167 112.68 493.49 110.507 496.464 106.56C499.436 102.615 500.688 97.3032 500.215 90.6237C499.73 83.7609 497.773 78.5788 494.34 75.0736C490.909 71.5702 486.437 70.0116 480.925 70.4018ZM440.03 68.9378L451.726 120.918L445.047 122.421L437.3 87.9913C436.662 85.15 436.063 81.6999 435.501 77.6429L435.334 77.6803C435.316 80.3167 435.194 82.1787 434.969 83.2624L426.692 126.551L422.967 127.389L397.05 92.1113C396.445 91.3074 395.517 89.5774 394.261 86.9214L394.058 86.9667C394.827 89.3331 395.728 92.8206 396.766 97.4293L404.444 131.556L398.033 132.998L386.339 81.0181L395.434 78.9729L418.787 111.159C420.565 113.628 421.814 115.578 422.538 117.015L422.772 116.962C423.215 113.502 423.545 111.147 423.757 109.9L431.372 70.8865L440.03 68.9378ZM576.224 68.1418L584.702 69.7713L602.624 114.682C603.478 116.808 603.966 118.15 604.093 118.711L604.229 118.739C604.288 117.208 604.664 114.642 605.356 111.039L612.265 75.0657L618.954 76.3504L608.903 128.671L600.898 127.135L582.405 81.3768C581.88 80.0862 581.502 78.835 581.269 77.6212L581.066 77.5838C581.021 78.7877 580.643 81.2487 579.927 84.9648L572.862 121.75L566.173 120.465L576.224 68.1418ZM480.899 64.1971C488.288 63.6749 494.411 65.736 499.267 70.3801C504.124 75.0263 506.834 81.3275 507.396 89.2878C508.007 97.9121 506.18 104.915 501.917 110.296C497.655 115.677 491.658 118.642 483.926 119.188C476.378 119.722 470.153 117.669 465.25 113.027C460.346 108.385 457.613 102.083 457.051 94.125C456.444 85.5461 458.283 78.5552 462.567 73.1485C466.852 67.7418 472.961 64.7586 480.899 64.1971ZM519.159 63.6592L526.027 64.069L524.112 96.0698C523.475 106.714 527.622 112.302 536.547 112.836C545.177 113.352 549.8 108.459 550.415 98.1603L552.36 65.6453L559.229 66.0552L557.343 97.5751C556.444 112.613 549.172 119.724 535.53 118.908C522.46 118.126 516.359 110.479 517.228 95.9673L519.159 63.6592ZM512.041 35.3332C248.359 35.3332 34.602 249.09 34.602 512.773C34.602 776.455 248.359 990.213 512.041 990.213C775.723 990.213 989.474 776.455 989.474 512.773C989.474 249.09 775.723 35.3332 512.041 35.3332ZM512.041 0.772949C794.812 0.772949 1024.04 230.004 1024.04 512.773C1024.04 795.542 794.812 1024.77 512.041 1024.77C229.27 1024.77 0.0410156 795.542 0.0410156 512.773C0.0410156 230.004 229.27 0.772949 512.041 0.772949Z" fill="black"/>
</svg>
