<svg width="1025" height="1025" viewBox="0 0 1025 1025" fill="none" xmlns="http://www.w3.org/2000/svg">
<path fill-rule="evenodd" clip-rule="evenodd" d="M749.327 531.393C747.94 531.456 746.582 531.98 745.502 532.933L744.824 533.666L722.444 563.366L722.425 563.35C721.79 564.189 721.108 564.914 720.436 565.49L720.233 565.657L720.034 565.817C719.502 566.229 718.984 566.538 718.509 566.729L718.172 566.847C718.168 566.849 718.166 566.849 718.162 566.851C718.162 566.851 718.156 566.851 718.152 566.853L718.125 566.861C717.518 567.066 716.922 567.375 716.369 567.779L714.981 569.155L706.836 579.962L706.625 580.402C706.479 580.987 706.684 581.629 707.197 582.015L709.215 583.536C711.008 584.888 713.462 584.742 715.082 583.314C715.151 583.247 715.218 583.18 715.287 583.113L715.679 582.591L715.72 582.622L724.334 589.115C722.791 591.164 723.201 594.076 725.249 595.619L726.011 596.194C727.377 597.223 729.318 596.951 730.349 595.583L737.381 586.252C738.271 585.069 738.742 583.724 738.804 582.443V582.413C738.802 582.409 738.802 582.407 738.802 582.403C738.802 582.399 738.804 582.398 738.804 582.394L738.823 582.037C738.876 581.529 739.032 580.943 739.28 580.319L739.379 580.084L739.483 579.842C739.85 579.038 740.36 578.183 740.993 577.342L763.373 547.644L763.891 546.789C765.129 544.188 764.411 540.99 762.021 539.187L753.324 532.636C752.13 531.733 750.713 531.331 749.327 531.393ZM737.523 517.281C737.495 517.334 737.467 517.385 737.442 517.438C733.439 524.869 728.826 532.09 723.591 539.036C674.734 603.871 587.982 623.31 517.418 589.751L514.816 588.433L500.71 607.153L507.694 610.264C583.696 641.855 674.279 619.517 726.104 550.746C731.862 543.104 736.937 535.162 741.34 526.989L743.845 522.045L737.523 517.281ZM933.127 423.749L933.521 425.405C939.256 453.402 942.252 482.39 942.252 512.081C942.252 615.998 905.399 711.309 844.045 785.651L840.843 789.349L834.974 784.398L838.119 780.766C898.383 707.75 934.566 614.144 934.566 512.081C934.566 482.92 931.629 454.45 925.993 426.953L925.619 425.326L933.127 423.749ZM91.2162 423.749L98.7326 425.326L98.3582 426.953C92.7297 454.45 89.7755 482.92 89.7755 512.081C89.7755 614.144 125.974 707.75 186.232 780.766L189.377 784.398L183.508 789.349L180.306 785.651C118.95 711.309 82.0956 615.998 82.0956 512.081C82.0956 482.39 85.1049 453.402 90.8338 425.405L91.2162 423.749ZM387.658 395.01L387.061 395.138C386.288 395.445 385.563 395.887 384.92 396.454L384.11 397.329L357.452 432.705L357.429 432.687C356.674 433.688 355.862 434.553 355.06 435.237L354.817 435.436L354.583 435.627C353.948 436.116 353.329 436.486 352.766 436.713L352.364 436.854L352.352 436.856L352.34 436.86L352.307 436.87C351.583 437.114 350.874 437.483 350.214 437.966L348.56 439.601L338.858 452.477L338.608 453C338.434 453.697 338.677 454.462 339.288 454.921L341.692 456.733C343.828 458.343 346.751 458.172 348.68 456.467L348.925 456.229L349.394 455.608L349.441 455.646L359.705 463.377C357.866 465.819 358.353 469.289 360.793 471.127L361.701 471.811C363.329 473.038 365.643 472.713 366.868 471.086L375.244 459.969C376.306 458.56 376.866 456.958 376.939 455.431V455.396C376.939 455.392 376.939 455.388 376.937 455.384C376.939 455.38 376.939 455.376 376.939 455.372L376.963 454.948C377.026 454.341 377.211 453.646 377.507 452.901L377.625 452.623L377.749 452.334C378.186 451.376 378.793 450.355 379.548 449.354L382.652 445.234L382.52 438.669C382.565 426.104 383.815 413.513 386.294 401.076L387.658 395.01ZM93.8609 348.533L99.6471 350.535L94.6196 365.064L139.184 380.482L136.924 387.016L92.3591 371.598L87.3555 386.062L81.5693 384.06L93.8609 348.533ZM927.826 341.729L940.557 377.107L934.783 379.18L929.58 364.711L885.218 380.663L882.873 374.157L927.254 358.205L922.071 343.802L927.826 341.729ZM892.273 304.349C895.919 303.983 899.506 304.377 902.975 305.531C909.931 307.843 915.154 312.548 918.642 319.651C920.869 324.222 922.071 328.317 922.248 331.938L915.785 335.105C916.021 330.758 915.115 326.535 913.104 322.439C910.483 317.107 906.581 313.634 901.378 312.02C896.195 310.406 890.579 311.078 884.548 314.035C878.813 316.843 875.049 320.636 873.216 325.416C871.384 330.196 871.699 335.118 874.182 340.184C876.508 344.919 879.602 348.511 883.464 350.962L877.532 353.868C873.946 351.258 870.851 347.295 868.25 341.983C864.9 335.128 864.387 328.585 866.733 322.352C869.078 316.118 873.827 311.245 881.001 307.732C884.844 305.845 888.608 304.718 892.273 304.349ZM117.691 297.11L165.529 320.565L162.5 326.742L140.944 316.173L129.072 340.385L150.628 350.954L147.599 357.131L99.7613 333.674L102.79 327.499L123.574 337.69L135.448 313.478L114.662 303.285L117.691 297.11ZM699.237 283.926C697.585 283.999 695.967 284.624 694.681 285.759L693.872 286.634L667.214 322.012L667.189 321.994C666.436 322.995 665.622 323.858 664.822 324.543L664.579 324.74L664.343 324.932C663.708 325.422 663.091 325.791 662.526 326.019L662.124 326.159C662.12 326.161 662.116 326.163 662.112 326.163C662.11 326.165 662.106 326.165 662.102 326.165L662.069 326.175C661.345 326.421 660.636 326.788 659.976 327.27L658.322 328.906L648.618 341.784L648.37 342.304C648.311 342.537 648.299 342.777 648.332 343.012L649.048 344.227L651.454 346.04L653.175 346.917C654.99 347.467 656.996 347.051 658.442 345.774L658.687 345.536L659.154 344.915L659.203 344.951L669.465 352.684C668.087 354.515 668.016 356.924 669.096 358.79L670.555 360.434L671.463 361.117L672.783 361.75C674.179 362.101 675.71 361.612 676.628 360.392L685.006 349.275C686.066 347.867 686.628 346.263 686.699 344.738V344.69C686.699 344.687 686.699 344.683 686.699 344.679L686.725 344.253C686.788 343.648 686.973 342.953 687.268 342.208L687.387 341.928L687.511 341.64C687.948 340.681 688.555 339.662 689.308 338.661L715.968 303.283L716.585 302.266C718.059 299.167 717.206 295.356 714.358 293.211L703.998 285.404C702.575 284.332 700.888 283.853 699.237 283.926ZM882.065 257.606L896.944 280.663L891.8 283.985L880.646 266.705L866.319 275.96L876.646 291.967L871.541 295.27L861.195 279.262L846.138 288.982L857.963 307.273L852.839 310.576L837.298 286.505L882.065 257.606ZM143.285 256.032L148.415 259.374L137.192 276.61L151.488 285.918L161.885 269.95L166.987 273.272L156.59 289.24L171.607 299.019L183.487 280.774L188.589 284.096L172.955 308.107L128.308 279.034L143.285 256.032ZM577.118 254.737C521.61 255.2 466.927 280.565 430.939 328.325C376.957 399.961 382.999 498.139 440.592 562.568L443.566 565.74L365.379 669.496L364.98 703.522L458.234 579.771L458.236 579.773L473.515 559.5L469.058 555.157C412.071 496.789 404.658 403.985 455.26 336.835C505.861 269.683 597.115 251.23 668.929 289.918L674.738 293.24L680.566 285.509L674.069 281.345C644.027 263.149 610.423 254.461 577.118 254.737ZM861.53 230.421L865.846 235.774L839.434 257.094C834.418 261.141 829.684 263.208 825.233 263.295C820.779 263.381 817.078 261.594 814.126 257.937C812.758 256.241 811.877 254.639 811.483 253.129L816.703 248.917C816.794 250.672 817.515 252.387 818.869 254.065C822.381 258.42 827.797 257.644 835.114 251.74L861.53 230.421ZM185.914 203.912L219.782 236.775L234.56 221.544L238.93 225.783L219.36 245.951L181.124 208.847L185.914 203.912ZM811.274 192.464C806.103 192.878 801.258 195.35 796.742 199.882C792.195 204.448 789.714 209.267 789.302 214.343C788.89 219.418 790.559 223.826 794.312 227.566C798.34 231.58 802.817 233.412 807.746 233.061C812.675 232.712 817.501 230.167 822.229 225.424C827.085 220.551 829.706 215.669 830.095 210.78C830.483 205.89 828.721 201.496 824.805 197.595C820.956 193.758 816.445 192.048 811.274 192.464ZM810.677 185.558C817.568 185.237 823.831 187.885 829.468 193.5C834.714 198.728 837.181 204.7 836.87 211.413C836.557 218.126 833.585 224.309 827.952 229.962C821.851 236.086 815.371 239.307 808.513 239.628C801.655 239.948 795.48 237.372 789.99 231.903C784.629 226.561 782.089 220.518 782.369 213.771C782.649 207.027 785.605 200.828 791.237 195.175C797.307 189.083 803.787 185.877 810.677 185.558ZM512.176 162.64C705.167 162.64 861.609 319.091 861.609 512.081C861.609 699.039 714.792 851.707 530.159 861.067L520.872 861.301L716.008 602.346C718.243 599.382 717.65 595.169 714.686 592.935C711.722 590.703 707.508 591.294 705.275 594.259L504.034 861.315L494.192 861.067C434.635 858.048 379.01 840.116 330.977 810.931L326.612 808.133L659.778 366.004C662.011 363.04 661.42 358.826 658.456 356.593C655.492 354.359 651.279 354.952 649.046 357.916L315.318 800.787L303.099 792.1C262.738 761.914 229.119 723.206 204.911 678.644L202.049 673.058L350.017 476.697C352.251 473.734 351.658 469.521 348.694 467.287C345.73 465.054 341.519 465.645 339.284 468.609L195.384 659.573L190.197 648.099C172.513 606.292 162.735 560.329 162.735 512.081C162.735 319.091 319.184 162.64 512.176 162.64ZM239.263 155.36L259.482 179.611C269.131 191.181 268.708 201.344 258.211 210.095C248.155 218.481 238.47 217.089 229.161 205.925L208.434 181.065L213.716 176.661L234.247 201.281C241.074 209.47 247.922 210.702 254.792 204.976C261.432 199.439 261.447 192.708 254.837 184.783L233.979 159.766L239.263 155.36ZM771.477 153.043L760.099 168.027L766.564 172.937C769.064 174.837 771.652 175.649 774.322 175.373C776.993 175.099 779.23 173.773 781.033 171.401C782.71 169.19 783.309 166.924 782.828 164.601C782.347 162.276 780.745 160.081 778.023 158.016L771.477 153.043ZM512.176 152.4C313.53 152.4 152.495 313.435 152.495 512.081C152.495 710.728 313.53 871.762 512.176 871.762C710.821 871.762 871.856 710.728 871.856 512.081C871.856 313.435 710.821 152.4 512.176 152.4ZM769.64 144.089L782.568 153.908C786.695 157.042 789.172 160.493 789.998 164.258C790.823 168.023 789.877 171.696 787.16 175.274C782.694 181.156 776.656 182.586 769.041 179.57L768.938 179.706C769.732 181.087 770.207 182.557 770.363 184.113C770.519 185.672 770.432 188.068 770.107 191.305L768.398 210.047L761.934 205.139L763.838 188.013C764.22 184.59 764.151 182.009 763.627 180.273C763.103 178.535 762.029 177.052 760.403 175.816L756.457 172.821L742.895 190.681L737.416 186.521L769.64 144.089ZM512.176 137.041C719.305 137.041 887.209 304.952 887.209 512.081C887.209 719.21 719.305 887.121 512.176 887.121C305.046 887.121 137.135 719.21 137.135 512.081C137.135 304.952 305.046 137.041 512.176 137.041ZM729.444 126.167L718.629 144.466L724.108 147.703C727.72 149.839 730.944 150.645 733.784 150.125C736.62 149.604 738.937 147.825 740.735 144.785C744.223 138.882 742.473 133.865 735.485 129.735L729.444 126.167ZM293.622 119.519L321.671 164.816L314.74 169.107L270.14 147.975C268.881 147.38 267.754 146.716 266.76 145.981L266.585 146.091C267.369 147.007 268.757 149.074 270.749 152.292L290.468 184.137L284.678 187.723L256.629 142.424L263.97 137.879L307.575 158.778C309.642 159.764 310.911 160.42 311.384 160.747L311.502 160.676C310.509 159.509 309.049 157.368 307.117 154.247L287.832 123.103L293.622 119.519ZM726.601 117.454L739.631 125.154C744.586 128.082 747.725 131.548 749.048 135.554C750.37 139.557 749.717 143.78 747.092 148.223C744.434 152.723 740.68 155.425 735.83 156.329C730.982 157.232 726.205 156.187 721.502 153.194L715.549 149.677L705.417 166.823L699.495 163.324L726.601 117.454ZM332.353 108.27L332.195 108.339C332.615 109.909 332.853 111.157 332.912 112.085L334.576 135.569L350.933 128.334L334.611 111.332C334.093 110.784 333.34 109.764 332.353 108.27ZM333.027 100.524L373.139 141.039L366.189 144.113L355.318 132.974L335.029 141.951L336.243 157.362L329.29 160.435L326.295 103.502L333.027 100.524ZM386.627 88.0461C385.267 88.0481 383.772 88.2944 382.136 88.787L374.265 91.1593L379.69 109.174L387.463 106.834C390.47 105.927 392.65 104.313 393.998 101.99C395.346 99.6693 395.59 97.0803 394.729 94.2272C393.929 91.5692 392.449 89.7525 390.287 88.7752C389.205 88.2865 387.985 88.0442 386.627 88.0461ZM645.077 83.1774L671.04 92.0854L669.051 97.8763L649.596 91.2027L644.06 107.338L662.084 113.523L660.108 119.282L642.083 113.097L636.268 130.047L656.862 137.114L654.885 142.872L627.785 133.573L645.077 83.1774ZM388.393 81.5951C390.515 81.6089 392.461 82.001 394.226 82.7754C397.758 84.3221 400.172 87.2462 401.467 91.5495C403.597 98.6211 401.203 104.347 394.285 108.729L394.335 108.895C395.917 109.064 397.385 109.543 398.737 110.333C400.089 111.125 401.977 112.603 404.401 114.77L418.555 127.176L410.783 129.516L398.054 117.903C395.509 115.58 393.381 114.12 391.668 113.523C389.956 112.924 388.123 112.92 386.168 113.509L381.426 114.938L387.894 136.411L381.308 138.395L365.942 87.3802L381.485 82.6966C383.967 81.9498 386.268 81.5833 388.393 81.5951ZM603.957 72.6221L610.652 74.2082L599.779 120.13L620.431 125.018L619.028 130.943L591.683 124.468L603.957 72.6221ZM560.244 65.8007L577.232 68.0036L576.483 73.7689L571.4 73.1088L566.04 114.416L571.123 115.076L570.376 120.841L553.388 118.636L554.137 112.871L559.219 113.531L564.58 72.2241L559.497 71.564L560.244 65.8007ZM488.006 63.787L488.519 69.8872L468.021 71.6093L469.45 88.6097L488.438 87.0156L488.948 93.0824L469.958 94.6764L471.458 112.534L493.156 110.711L493.664 116.778L465.114 119.176L460.654 66.0844L488.006 63.787ZM501.561 62.9397L509.984 63.1486L520.049 81.8414C520.642 82.933 521.229 84.2098 521.813 85.6699L521.948 85.6718C522.53 84.4482 523.239 83.1478 524.077 81.7686L535.533 63.783L543.408 63.9781L526.109 89.9732L542.326 117.247L533.97 117.04L522.569 96.698C522.307 96.233 521.929 95.305 521.434 93.9178L521.263 93.9139C521.213 94.0952 520.778 95.0133 519.956 96.6665L507.217 116.376L498.828 116.167L517.201 89.855L501.561 62.9397ZM512.176 34.6413C248.494 34.6413 34.7365 248.399 34.7365 512.081C34.7365 775.763 248.494 989.521 512.176 989.521C775.857 989.521 989.609 775.763 989.609 512.081C989.609 248.399 775.857 34.6413 512.176 34.6413ZM512.176 0.0810547C794.946 0.0810547 1024.18 229.312 1024.18 512.081C1024.18 794.85 794.946 1024.08 512.176 1024.08C229.405 1024.08 0.175537 794.85 0.175537 512.081C0.175537 229.312 229.405 0.0810547 512.176 0.0810547Z" fill="black"/>
<path fill-rule="evenodd" clip-rule="evenodd" d="M578.146 914.093L577.971 914.123C577.988 915.794 577.908 917.1 577.73 918.038L573.402 941.872L591.551 938.829L579.614 917.723C579.238 917.045 578.747 915.835 578.146 914.093ZM547.503 911.731L548.703 966.535L541.662 966.688L540.867 930.388C540.802 927.393 540.901 923.793 541.163 919.587L540.986 919.591C540.43 922.245 539.927 924.097 539.478 925.145L522.309 967.112L518.383 967.199L499.436 926.341C498.991 925.407 498.406 923.472 497.681 920.538L497.468 920.542C497.759 923.086 497.958 926.786 498.065 931.645L498.853 967.626L492.095 967.774L490.895 912.97L500.483 912.761L517.475 949.98C518.763 952.831 519.627 955.053 520.062 956.649L520.311 956.644C521.463 953.243 522.273 950.937 522.742 949.724L538.375 911.932L547.503 911.731ZM580.791 906.545L610.449 957.152L602.737 958.446L594.74 944.573L572.23 948.348L569.51 964.019L561.799 965.313L573.322 907.798L580.791 906.545ZM442.695 906.486L449.701 907.493L442.783 955.55L464.395 958.661L463.504 964.86L434.887 960.742L442.695 906.486ZM409.737 898.973L416.656 900.468L406.398 947.925L427.74 952.539L426.415 958.661L398.157 952.553L409.737 898.973ZM381.704 897.954C380.937 899.44 380.256 900.555 379.658 901.302L364.685 920.341L382.147 926.142L381.473 901.905C381.458 901.128 381.59 899.83 381.872 898.009L381.704 897.954ZM380.553 890.189L387.74 892.575L390.277 951.178L382.855 948.713L382.278 932.711L360.617 925.518L350.883 938.094L343.462 935.629L380.553 890.189ZM649.298 888.817L665.375 941.223L657.356 943.682L618.495 911C617.398 910.078 616.452 909.122 615.653 908.133L615.45 908.196C615.992 909.313 616.832 911.733 617.973 915.455L629.275 952.297L622.577 954.352L606.501 901.946L614.993 899.341L652.926 931.531C654.723 933.052 655.817 934.037 656.201 934.489L656.335 934.445C655.654 933.027 654.759 930.512 653.653 926.905L642.599 890.873L649.298 888.817ZM689.024 872.659L678.27 905.897L712.192 922.365L703.285 926.193L674.525 911.435C673.532 910.911 672.817 910.474 672.383 910.121L672.22 910.192L682.866 934.967L676.362 937.761L654.723 887.397L661.225 884.603L671.41 908.306L671.573 908.235C671.69 907.493 671.869 906.683 672.109 905.81L680.993 876.109L689.024 872.659ZM312.627 866.497L303.589 883.616L310.974 887.515C313.833 889.022 316.594 889.415 319.259 888.687C321.925 887.96 323.973 886.24 325.406 883.529C326.738 881.003 326.965 878.603 326.088 876.325C325.209 874.048 323.216 872.087 320.106 870.446L312.627 866.497ZM712.192 858.892L715.087 864.125L710.474 866.678L731.224 904.175L735.837 901.621L738.734 906.854L723.315 915.386L720.418 910.155L725.032 907.601L704.282 870.105L699.668 872.659L696.773 867.425L712.192 858.892ZM309.261 857.715L324.032 865.516C328.746 868.004 331.838 871.092 333.308 874.775C334.779 878.459 334.434 882.347 332.274 886.435C328.726 893.152 322.836 895.617 314.602 893.832L314.519 893.988C315.558 895.257 316.285 896.667 316.705 898.224C317.125 899.779 317.44 902.226 317.651 905.566L319.058 924.877L311.673 920.978L310.735 903.276C310.55 899.735 310.048 897.128 309.224 895.454C308.4 893.779 307.06 892.451 305.203 891.47L300.698 889.091L289.924 909.495L283.665 906.19L309.261 857.715ZM269.519 841.954C268.263 842.023 266.992 842.234 265.705 842.587C260.558 843.999 256.137 847.43 252.442 852.878C248.721 858.363 247.141 863.711 247.699 868.923C248.256 874.132 250.789 878.266 255.3 881.324C260.142 884.609 265.022 885.6 269.935 884.301C274.85 883.003 279.24 879.502 283.107 873.799C287.08 867.941 288.793 862.505 288.247 857.489C287.701 852.472 285.074 848.368 280.37 845.178C276.899 842.823 273.281 841.749 269.519 841.954ZM268.943 835.072C274.097 835.007 279.215 836.697 284.295 840.143C290.602 844.419 294.242 849.981 295.215 856.827C296.189 863.672 294.372 870.493 289.764 877.287C284.772 884.648 278.84 889.15 271.97 890.79C265.1 892.431 258.364 891.012 251.764 886.538C245.322 882.167 241.593 876.548 240.58 869.675C239.569 862.803 241.367 855.969 245.974 849.175C250.941 841.852 256.874 837.367 263.778 835.722C265.502 835.31 267.225 835.093 268.943 835.072ZM756.646 829.714L787.757 874.848L780.851 879.606L733.951 860.143C732.629 859.593 731.437 858.966 730.378 858.263L730.205 858.383C731.056 859.288 732.588 861.341 734.797 864.547L756.668 896.275L750.898 900.253L719.788 855.12L727.101 850.078L772.966 869.352C775.14 870.263 776.478 870.873 776.981 871.185L777.097 871.106C776.019 869.957 774.409 867.829 772.267 864.722L750.878 833.691L756.646 829.714ZM795.929 810.572C790.646 810.718 785.583 812.988 780.745 817.38L774.614 822.946L803.014 854.232L808.911 848.878C814.062 844.2 816.807 839.145 817.146 833.706C817.483 828.27 815.353 823.019 810.755 817.953C806.155 812.887 801.215 810.428 795.929 810.572ZM796.938 803.972C804.268 803.849 810.667 806.801 816.139 812.826C821.847 819.116 824.383 826.006 823.744 833.499C823.108 840.993 819.574 847.657 813.146 853.493L801.983 863.626L765.138 823.039L776.721 812.527C782.869 806.945 789.607 804.092 796.938 803.972ZM235.195 801.447L256.232 820.288L252.029 824.98L236.265 810.862L224.036 824.517L238.64 837.596L234.485 842.236L219.88 829.157L203.897 847.002L198.626 842.281L235.195 801.447Z" fill="black"/>
</svg>
