<svg width="1025" height="638" viewBox="0 0 1025 638" fill="none" xmlns="http://www.w3.org/2000/svg">
<path fill-rule="evenodd" clip-rule="evenodd" d="M620.425 0.543236C647.194 0.320682 674.202 7.30929 698.348 21.9458L703.572 25.2945L698.889 31.5149L694.219 28.8429C636.497 -2.27855 563.152 12.5653 522.481 66.5821C481.809 120.598 487.768 195.25 533.57 242.203L537.153 245.694L524.874 262.003L524.871 262.001L449.919 361.547L450.239 334.177C471.186 306.356 492.134 278.535 513.081 250.714L510.692 248.162C464.401 196.336 459.544 117.362 502.934 59.7363C531.859 21.3191 575.809 0.915545 620.425 0.543236Z" fill="black"/>
<path fill-rule="evenodd" clip-rule="evenodd" d="M718.58 24.0473C719.903 23.989 721.261 24.3738 722.404 25.237L730.725 31.5142C733.012 33.2392 733.698 36.303 732.52 38.7947L732.021 39.6135L710.598 68.0616C709.995 68.8665 709.503 69.6867 709.157 70.457L709.053 70.6892L708.963 70.9132C708.72 71.5122 708.575 72.0717 708.519 72.5591L708.506 72.9009V72.948C708.443 74.1745 707.993 75.4641 707.141 76.597L700.413 85.5359C699.672 86.5169 698.445 86.9093 697.323 86.6285L696.263 86.1196L695.528 85.5691L694.357 84.2477C693.491 82.7473 693.547 80.8102 694.655 79.3383L686.41 73.12L686.369 73.0902L685.995 73.5894L685.801 73.7814C684.637 74.8089 683.022 75.1431 681.567 74.7007L680.182 73.9956L678.249 72.5376L677.674 71.56C677.646 71.3715 677.66 71.1787 677.701 70.9922L677.902 70.5728L685.704 60.2181L687.027 58.9022C687.561 58.5147 688.129 58.2186 688.711 58.0217L688.738 58.0141L688.745 58.012L688.759 58.0085L689.078 57.8962C689.535 57.7132 690.027 57.4157 690.54 57.0219L690.727 56.868L690.921 56.7093C691.565 56.1581 692.224 55.4634 692.826 54.6584L692.847 54.673L714.263 26.225L714.914 25.5219C715.947 24.6088 717.249 24.1062 718.58 24.0473Z" fill="black"/>
<path fill-rule="evenodd" clip-rule="evenodd" d="M682.863 81.3856C683.902 81.4397 684.941 81.7939 685.835 82.4672C688.212 84.2635 688.69 87.6525 686.895 90.0361L414.875 451.261H401.349L678.269 83.5307C679.392 82.0408 681.131 81.2962 682.863 81.3856Z" fill="black"/>
<path fill-rule="evenodd" clip-rule="evenodd" d="M468.141 113.41L467.044 118.285C465.05 128.282 464.045 138.403 464.008 148.502L464.115 153.78L461.618 157.091C461.012 157.896 460.523 158.715 460.171 159.486L459.977 159.942C459.739 160.541 459.59 161.099 459.539 161.587L459.52 161.928L459.519 161.938L459.52 161.947V161.975C459.462 163.202 459.011 164.49 458.157 165.623L451.42 174.558C450.434 175.866 448.574 176.127 447.266 175.142L446.535 174.591C444.573 173.113 444.18 170.325 445.659 168.363L437.406 162.147L437.366 162.118L436.99 162.616L436.794 162.808C435.242 164.178 432.891 164.316 431.173 163.023L429.239 161.565C428.748 161.196 428.552 160.581 428.692 160.02L428.893 159.6L436.697 149.251L438.026 147.936C438.558 147.548 439.127 147.253 439.709 147.056L439.736 147.048L439.745 147.046L439.754 147.042L440.078 146.93C440.533 146.747 441.029 146.45 441.539 146.057L441.728 145.903L441.924 145.744C442.568 145.193 443.221 144.499 443.828 143.694L443.848 143.708L465.288 115.273L465.939 114.57C466.456 114.114 467.04 113.76 467.66 113.513L468.141 113.41Z" fill="black"/>
<path fill-rule="evenodd" clip-rule="evenodd" d="M433.854 170.407C434.893 170.461 435.928 170.815 436.821 171.489C439.203 173.285 439.679 176.674 437.884 179.058L232.93 451.261H219.406L429.258 172.553C430.379 171.063 432.123 170.318 433.854 170.407Z" fill="black"/>
<path fill-rule="evenodd" clip-rule="evenodd" d="M749.349 211.722L754.428 215.554L752.412 219.531C748.878 226.104 744.797 232.493 740.169 238.639C698.528 293.954 625.732 311.921 564.656 286.511L559.043 284.009L570.379 268.951L572.469 270.011C629.175 297.004 698.889 281.369 738.153 229.22C742.358 223.633 746.065 217.825 749.28 211.849L749.349 211.722Z" fill="black"/>
<path fill-rule="evenodd" clip-rule="evenodd" d="M758.869 223.097C759.984 223.048 761.121 223.371 762.084 224.095L769.075 229.366C770.994 230.815 771.569 233.387 770.578 235.479L770.162 236.167L752.169 260.051C751.656 260.727 751.248 261.416 750.95 262.062L750.867 262.257L750.79 262.446C750.589 262.949 750.465 263.418 750.423 263.827L750.402 264.114C750.402 264.117 750.402 264.12 750.402 264.122C750.402 264.122 750.402 264.127 750.402 264.13V264.154C750.354 265.184 749.98 266.267 749.259 267.217L743.605 274.722C742.781 275.821 741.222 276.04 740.12 275.213L739.511 274.751C737.862 273.509 737.529 271.167 738.776 269.519L731.848 264.298L731.813 264.273L731.494 264.692L731.335 264.854C730.032 266.003 728.058 266.12 726.617 265.033L724.995 263.81C724.58 263.499 724.413 262.982 724.531 262.512L724.704 262.159L731.252 253.466L732.367 252.361C732.811 252.035 733.289 251.787 733.781 251.622L733.802 251.616L733.809 251.614C733.815 251.613 733.815 251.611 733.815 251.611L734.086 251.516C734.474 251.363 734.889 251.113 735.312 250.782L735.471 250.653L735.638 250.52C736.178 250.057 736.725 249.474 737.238 248.798L737.252 248.811L755.245 224.925L755.793 224.335C756.659 223.568 757.753 223.146 758.869 223.097Z" fill="black"/>
<path fill-rule="evenodd" clip-rule="evenodd" d="M728.037 271.492C729.076 271.546 730.115 271.9 731.009 272.574C733.386 274.37 733.864 277.758 732.069 280.142L603.193 451.261H589.667L723.443 273.637C724.566 272.147 726.305 271.403 728.037 271.492Z" fill="black"/>
<path d="M1024.04 517.545H1007.1V566.561H994.417V517.545H977.516V507.197H1024.04V517.545Z" fill="black"/>
<path d="M973.435 564.415C969.117 566.536 963.484 567.596 956.534 567.596C947.592 567.596 940.489 564.926 935.226 559.586C929.989 554.221 927.37 547.08 927.37 538.163C927.37 528.786 930.295 521.122 936.146 515.169C942.022 509.19 949.598 506.201 958.872 506.201C964.672 506.201 969.526 506.955 973.435 508.462V520.687C969.424 518.337 964.876 517.162 959.792 517.162C953.992 517.162 949.355 519.014 945.88 522.719C942.406 526.423 940.668 531.265 940.668 537.243C940.668 543.069 942.316 547.757 945.612 551.308C948.908 554.86 953.366 556.635 958.987 556.635C964.276 556.635 969.092 555.358 973.435 552.803V564.415Z" fill="black"/>
<path d="M923.277 566.561H888.134V507.197H921.897V517.545H900.781V531.533H920.403V541.842H900.781V556.214H923.277V566.561Z" fill="black"/>
<path d="M880.095 543.26C880.095 551.104 878.281 557.121 874.653 561.311C871.05 565.501 865.876 567.596 859.131 567.596C856.142 567.596 853.37 567.085 850.815 566.063V554.144C853.012 555.805 855.516 556.635 858.327 556.635C864.407 556.635 867.448 552.024 867.448 542.8V507.197H880.095V543.26Z" fill="black"/>
<path d="M791.408 537.665C791.408 528.365 794.116 520.802 799.533 514.977C804.975 509.126 812.154 506.201 821.071 506.201C829.553 506.201 836.375 509.024 841.536 514.671C846.722 520.317 849.316 527.573 849.316 536.439C849.316 545.687 846.62 553.199 841.229 558.973C835.864 564.722 828.825 567.596 820.113 567.596C811.605 567.596 804.694 564.811 799.38 559.241C794.065 553.646 791.408 546.454 791.408 537.665ZM804.707 536.975C804.707 542.749 806.099 547.476 808.884 551.155C811.669 554.808 815.488 556.635 820.343 556.635C825.299 556.635 829.157 554.885 831.917 551.385C834.676 547.859 836.056 543.132 836.056 537.205C836.056 531.022 834.714 526.142 832.032 522.565C829.349 518.963 825.568 517.162 820.688 517.162C815.731 517.162 811.822 519.001 808.961 522.68C806.125 526.359 804.707 531.124 804.707 536.975Z" fill="black"/>
<path d="M793.384 566.561H778.821L769.508 551.117C767.592 547.923 766.021 545.866 764.794 544.946C763.568 544.027 762.265 543.567 760.885 543.567H757.053V566.561H744.406V507.197H765.216C779.345 507.197 786.409 512.563 786.409 523.293C786.409 527.33 785.221 530.792 782.845 533.679C780.494 536.566 777.25 538.597 773.111 539.773V539.926C775.844 540.846 778.872 543.861 782.193 548.97L793.384 566.561ZM757.053 516.817V533.909H763.261C766.225 533.909 768.601 533.053 770.39 531.341C772.204 529.604 773.111 527.445 773.111 524.865C773.111 519.499 769.904 516.817 763.491 516.817H757.053Z" fill="black"/>
<path d="M709.552 545.866V566.561H696.905V507.197H717.332C732.099 507.197 739.483 513.457 739.483 525.976C739.483 532.057 737.248 536.937 732.777 540.616C728.331 544.269 722.761 546.019 716.067 545.866H709.552ZM709.552 517.008V536.17H715.033C722.467 536.17 726.185 532.938 726.185 526.474C726.185 520.164 722.506 517.008 715.148 517.008H709.552Z" fill="black"/>
<path d="M666.285 566.561H631.142V507.197H664.906V517.545H643.789V531.533H663.411V541.842H643.789V556.214H666.285V566.561Z" fill="black"/>
<path d="M626.079 566.561H591.242V507.197H603.889V556.214H626.079V566.561Z" fill="black"/>
<path d="M582.422 517.047H577.325V556.712H582.422V566.561H559.658V556.712H564.678V517.047H559.658V507.197H582.422V517.047Z" fill="black"/>
<path d="M555.154 566.561H540.131L529.477 546.863C529.094 546.147 528.698 544.857 528.289 542.992H528.136C527.932 543.912 527.472 545.24 526.756 546.978L516.064 566.561H500.926L519.973 536.86L502.574 507.197H517.98L526.833 525.363C527.548 526.845 528.162 528.48 528.673 530.268H528.826C529.362 528.659 530.014 526.96 530.78 525.171L540.553 507.197H554.695L536.759 536.63L555.154 566.561Z" fill="black"/>
<path d="M496.487 566.561H461.344V507.197H495.107V517.545H473.991V531.533H493.613V541.842H473.991V556.214H496.487V566.561Z" fill="black"/>
<path d="M434.671 566.561H420.108L410.796 551.117C408.879 547.923 407.308 545.866 406.082 544.946C404.855 544.027 403.552 543.567 402.173 543.567H398.34V566.561H385.693V507.197H406.503C420.632 507.197 427.696 512.563 427.696 523.293C427.696 527.33 426.508 530.792 424.132 533.679C421.782 536.566 418.537 538.597 414.398 539.773V539.926C417.132 540.846 420.159 543.861 423.481 548.97L434.671 566.561ZM398.34 516.817V533.909H404.549C407.513 533.909 409.889 533.053 411.677 531.341C413.491 529.604 414.398 527.445 414.398 524.865C414.398 519.499 411.192 516.817 404.779 516.817H398.34Z" fill="black"/>
<path d="M383.326 566.561H369.53L365.084 552.956H343.508L339.139 566.561H325.419L347.148 507.197H362.018L383.326 566.561ZM362.095 543.184L355.35 522.604C354.915 521.301 354.609 519.576 354.43 517.43H354.085C353.932 519.167 353.587 520.841 353.05 522.45L346.267 543.184H362.095Z" fill="black"/>
<path d="M323.128 566.561H310.174L285.034 528.161C283.731 526.168 282.786 524.558 282.198 523.332H282.006C282.236 525.376 282.351 528.531 282.351 532.798V566.561H270.356V507.197H284.153L308.373 544.525C309.983 547.003 310.966 548.574 311.324 549.239H311.516C311.26 547.808 311.133 545.074 311.133 541.037V507.197H323.128V566.561Z" fill="black"/>
<path d="M263.53 541.037C263.53 558.743 255.304 567.596 238.85 567.596C222.958 567.596 215.012 558.973 215.012 541.727V507.197H227.698V541.804C227.698 551.691 231.594 556.635 239.386 556.635C247.051 556.635 250.884 551.87 250.884 542.34V507.197H263.53V541.037Z" fill="black"/>
<path d="M210.562 566.561H175.726V507.197H188.372V556.214H210.562V566.561Z" fill="black"/>
<path d="M146.166 566.561H111.023V507.197H144.787V517.545H123.67V531.533H143.292V541.842H123.67V556.214H146.166V566.561Z" fill="black"/>
<path d="M102.294 566.561H89.6472V542.072H64.3534V566.561H51.7065V507.197H64.3534V531.15H89.6472V507.197H102.294V566.561Z" fill="black"/>
<path d="M46.5663 517.545H29.6271V566.561H16.9419V517.545H0.0410156V507.197H46.5663V517.545Z" fill="black"/>
<path d="M728.043 636.563V597.255H741.62C755.577 597.255 762.555 603.641 762.555 616.414C762.555 622.488 760.601 627.369 756.693 631.057C752.785 634.728 747.744 636.563 741.569 636.563H728.043ZM736.417 604.107V629.712H740.985C744.961 629.712 748.082 628.527 750.349 626.159C752.616 623.79 753.75 620.585 753.75 616.541C753.75 612.633 752.565 609.588 750.197 607.406C747.829 605.206 744.749 604.107 740.96 604.107H736.417Z" fill="black"/>
<path d="M718.726 636.563H710.149L693.502 611.136C692.639 609.816 692.013 608.751 691.624 607.939H691.497C691.649 609.292 691.726 611.381 691.726 614.207V636.563H683.783V597.255H692.918L708.956 621.972C710.022 623.613 710.673 624.653 710.91 625.093H711.037C710.868 624.146 710.783 622.336 710.783 619.663V597.255H718.726V636.563Z" fill="black"/>
<path d="M675.77 603.777H672.395V630.042H675.77V636.563H660.697V630.042H664.021V603.777H660.697V597.255H675.77V603.777Z" fill="black"/>
<path d="M656.724 636.563H646.117L634.215 619.383C633.911 618.944 633.564 618.258 633.175 617.328H633.048V636.563H624.674V597.255H633.048V615.831H633.175C633.547 615.019 633.919 614.317 634.291 613.724L645.559 597.255H655.557L641.498 616.008L656.724 636.563Z" fill="black"/>
<path d="M616.417 636.563H607.84L591.193 611.136C590.33 609.816 589.704 608.751 589.315 607.939H589.188C589.34 609.292 589.417 611.381 589.417 614.207V636.563H581.474V597.255H590.609L606.647 621.972C607.713 623.613 608.364 624.653 608.601 625.093H608.728C608.559 624.146 608.474 622.336 608.474 619.663V597.255H616.417V636.563Z" fill="black"/>
<path d="M577.405 636.563H568.269L565.325 627.555H551.038L548.145 636.563H539.061L553.449 597.255H563.295L577.405 636.563ZM563.346 621.084L558.88 607.456C558.592 606.594 558.389 605.452 558.271 604.031H558.042C557.941 605.181 557.712 606.289 557.357 607.355L552.865 621.084H563.346Z" fill="black"/>
<path d="M527.805 636.563V612.709C527.805 606.532 529.747 601.034 526.713 609.461L517.02 636.563H510.346L500.525 609.715C500.288 609.072 499.873 607.304 499.281 604.411H499.053C499.273 607.71 499.383 611.018 499.383 614.333V636.563H491.821V597.255H504.001L512.477 621.007C513.188 622.97 513.67 624.814 513.924 626.54H514.101C514.626 624.391 515.167 622.53 515.725 620.957L524.227 597.255H536.077V636.563H527.805Z" fill="black"/>
<path d="M474.324 636.563H451.256V597.255H459.631V629.712H474.324V636.563Z" fill="black"/>
<path d="M446.806 636.563H423.739V597.255H432.113V629.712H446.806V636.563Z" fill="black"/>
<path d="M419.67 636.563H410.534L407.591 627.555H393.304L390.411 636.563H381.326L395.714 597.255H405.561L419.67 636.563ZM405.611 621.084L401.145 607.456C400.857 606.594 400.654 605.452 400.536 604.031H400.308C400.206 605.181 399.978 606.289 399.622 607.355L395.131 621.084H405.611Z" fill="black"/>
<path d="M367.443 636.563H357.799L351.633 626.337C350.364 624.222 349.324 622.86 348.512 622.251C347.7 621.642 346.837 621.337 345.923 621.337H343.386V636.563H335.011V597.255H348.791C358.146 597.255 362.824 600.808 362.824 607.913C362.824 610.586 362.037 612.878 360.464 614.79C358.908 616.702 356.759 618.047 354.018 618.825V618.927C355.829 619.536 357.833 621.532 360.033 624.915L367.443 636.563ZM343.386 603.624V614.942H347.497C349.459 614.942 351.032 614.376 352.217 613.242C353.418 612.092 354.018 610.662 354.018 608.954C354.018 605.401 351.895 603.624 347.649 603.624H343.386Z" fill="black"/>
<path d="M288.293 617.458C288.293 611.192 290.227 606.097 294.097 602.172C297.984 598.23 303.112 596.259 309.482 596.259C315.541 596.259 320.414 598.161 324.1 601.965C327.805 605.77 329.658 610.658 329.658 616.632C329.658 622.863 327.732 627.924 323.881 631.814C320.049 635.687 315.021 637.624 308.797 637.624C302.72 637.624 297.783 635.748 293.987 631.995C290.191 628.225 288.293 623.38 288.293 617.458ZM297.792 616.993C297.792 620.884 298.787 624.068 300.776 626.547C302.766 629.008 305.494 630.239 308.962 630.239C312.502 630.239 315.258 629.06 317.229 626.702C319.2 624.326 320.186 621.142 320.186 617.148C320.186 612.982 319.228 609.694 317.311 607.285C315.395 604.857 312.694 603.644 309.208 603.644C305.667 603.644 302.875 604.883 300.831 607.362C298.805 609.841 297.792 613.051 297.792 616.993Z" fill="black"/>
<path d="M284.484 604.107H270.451V614.207H283.368V621.058H270.451V636.563H262.077V597.255H284.484V604.107Z" fill="black"/>
<rect x="161.016" y="614.29" width="84.8512" height="5.3032" fill="black"/>
<rect x="778.309" y="614.29" width="84.8512" height="5.3032" fill="black"/>
</svg>
