<svg xmlns="http://www.w3.org/2000/svg" xmlns:xlink="http://www.w3.org/1999/xlink" fill="none" version="1.1" width="1063.9560546875" height="240.000732421875" viewBox="0 0 1063.9560546875 240.000732421875"><g><g><g transform="matrix(1.7380900382995605,0,0,1.7380900382995605,0,0)"><path d="M143.929,0L174.881,66.546L174.881,138.083L0,138.083L0,66.546L30.953,0L143.929,0ZM161.47,124.671L161.47,79.958L13.412,79.958L13.412,124.671L161.47,124.671ZM149.518,28.516L149.515,28.512C145.931,21.337,137.245,14.983,126.016,10.507C125.259,10.205,124.703,9.995,124.588,9.952C114.903,6.296,102.479,3.648,88.268,3.548L88.262,3.548C87.717,3.546,87.506,3.546,87.44,3.546C87.166,3.546,86.688,3.548,86.622,3.548L86.616,3.548C72.388,3.648,59.967,6.299,50.289,9.954C49.55,10.231,48.973,10.463,48.86,10.509C37.635,14.984,28.949,21.338,25.368,28.507L25.366,28.511C25.211,28.831,25.154,28.952,25.137,28.99C25.119,29.028,25.061,29.152,24.922,29.467L24.92,29.47C21.383,37.681,25.162,45.511,35.128,51.608C35.24,51.678,35.803,52.026,36.555,52.448C48.21,59.016,66.426,62.837,86.154,62.997L86.164,62.997C86.266,62.997,87.015,63.001,87.44,63.001C87.869,63.001,88.601,62.997,88.702,62.997L88.712,62.997C108.446,62.837,126.662,59.019,138.321,52.448C139.059,52.038,139.64,51.678,139.752,51.608C149.718,45.511,153.497,37.681,149.963,29.474L149.961,29.469C149.944,29.431,149.818,29.151,149.744,28.99C149.726,28.952,149.67,28.832,149.518,28.516ZM45.019,50.569C47.417,49.531,49.786,48.497,52.066,47.495C60.116,51.266,71.202,53.598,83.302,54.033L83.182,58.63C68.273,58.168,54.626,55.287,45.019,50.569ZM134.743,47.777C131.638,46.457,129.145,45.386,127.714,44.77C133.735,40.768,136.551,35.852,135.506,30.649L143.319,30.649C145.084,36.944,141.987,42.922,134.743,47.777ZM91.714,58.629L91.594,54.032C103.693,53.596,114.775,51.264,122.824,47.49C125.897,48.84,128.425,49.938,129.871,50.564C120.264,55.286,106.616,58.166,91.714,58.629ZM61.451,30.656L69.349,30.656C69.647,31.724,70.417,32.851,71.791,33.905C69.089,35.129,66.868,36.124,65.653,36.668C63.078,34.875,61.652,32.798,61.451,30.656ZM109.235,36.662C106.495,35.437,104.292,34.441,103.079,33.891C104.442,32.842,105.209,31.717,105.505,30.649L113.429,30.649C113.23,32.793,111.807,34.87,109.235,36.662ZM59.064,17.387C61.093,18.423,62.758,19.265,63.619,19.699C59.447,21.84,56.461,24.493,55.118,27.356L47.474,27.356C49.31,23.563,53.433,20.099,59.064,17.387ZM58.247,44.763C60.479,43.77,62.688,42.781,64.816,41.82C69.846,43.916,76.355,45.29,83.52,45.66L83.407,49.986C73.704,49.578,64.855,47.709,58.247,44.763ZM84.238,17.579L84.151,20.903C81.817,21.112,79.655,21.544,77.801,22.11C75.578,21.042,73.787,20.172,72.853,19.718C76.103,18.623,79.977,17.842,84.238,17.579ZM31.558,30.656L39.373,30.656C38.33,35.86,41.152,40.775,47.174,44.776C44.109,46.096,41.588,47.17,40.146,47.783C32.897,42.928,29.796,36.949,31.558,30.656ZM70.583,39.203C72.665,38.252,74.739,37.298,76.729,36.376C78.688,37.026,81.071,37.534,83.725,37.782L83.619,41.854C78.663,41.53,74.174,40.582,70.583,39.203ZM84.539,6.074L84.464,8.922C75.134,9.223,66.784,10.924,59.979,13.352C58.056,12.385,56.501,11.596,55.746,11.212C63.7,8.383,73.509,6.375,84.539,6.074ZM121.545,42.097C118.651,40.835,116.326,39.81,114.992,39.221C118.693,36.729,120.632,33.757,120.566,30.649L128.4,30.649C128.909,34.833,126.487,38.813,121.545,42.097ZM84.394,11.605L84.314,14.681C78.398,14.964,73.014,16.044,68.538,17.608C66.487,16.599,64.832,15.777,63.971,15.349C69.694,13.314,76.664,11.902,84.394,11.605ZM91.489,49.985L91.376,45.659C98.542,45.288,105.049,43.912,110.075,41.816C112.204,42.776,114.412,43.766,116.644,44.758C110.041,47.705,101.195,49.575,91.489,49.985ZM102.017,19.714C99.808,20.789,97.995,21.661,97.058,22.111C95.2,21.544,93.04,21.113,90.716,20.903L90.629,17.578C94.902,17.841,98.776,18.623,102.017,19.714ZM112.796,27.35L105.059,27.35C104.507,26.345,103.512,25.287,101.991,24.31C104.219,23.213,106.013,22.32,106.948,21.854C109.881,23.482,111.857,25.392,112.796,27.35ZM141.959,27.35L134.336,27.35C131.97,22.709,126.737,18.53,119.79,15.336C121.708,14.345,123.257,13.537,124.009,13.144C132.46,16.866,138.945,21.82,141.959,27.35ZM119.124,11.209C117.212,12.181,115.646,12.969,114.891,13.349C108.084,10.92,99.735,9.221,90.404,8.921L90.33,6.074C101.382,6.376,111.186,8.386,119.124,11.209ZM127.403,27.35L119.759,27.35C118.413,24.487,115.426,21.834,111.253,19.694C113.299,18.662,114.948,17.821,115.807,17.382C121.44,20.095,125.565,23.557,127.403,27.35ZM50.861,13.148C52.766,14.144,54.328,14.952,55.08,15.34C48.135,18.535,42.904,22.715,40.541,27.356L32.917,27.356C35.931,21.824,42.413,16.87,50.861,13.148ZM91.276,41.853L91.17,37.778C93.819,37.527,96.196,37.017,98.15,36.367C100.144,37.29,102.222,38.246,104.308,39.198C100.714,40.579,96.224,41.528,91.276,41.853ZM67.924,21.858C70.124,22.956,71.931,23.848,72.865,24.308C71.342,25.285,70.343,26.346,69.79,27.356L62.082,27.356C63.021,25.395,64.995,23.485,67.924,21.858ZM110.899,15.345C108.863,16.358,107.195,17.18,106.332,17.604C101.853,16.041,96.468,14.963,90.554,14.681L90.474,11.605C98.207,11.901,105.176,13.311,110.899,15.345ZM96.11,32.508C96.023,32.557,95.58,32.808,94.974,33.063L94.974,33.063C93.239,33.797,90.9,34.312,88.262,34.401L88.246,34.402C88.18,34.404,87.871,34.416,87.426,34.416C87.359,34.416,87.029,34.416,86.592,34.401L86.589,34.401C83.951,34.312,81.61,33.797,79.882,33.065L79.88,33.064C79.271,32.807,78.829,32.557,78.742,32.508C77.127,31.587,76.302,30.471,76.229,29.37L76.229,29.363C76.226,29.333,76.213,29.192,76.23,28.99C76.232,28.96,76.245,28.81,76.292,28.612C76.542,27.539,77.511,26.461,79.179,25.59C79.267,25.544,79.716,25.311,80.315,25.074L80.317,25.073C82.005,24.402,84.205,23.933,86.652,23.853C87.061,23.839,87.365,23.839,87.427,23.839C87.838,23.839,88.112,23.849,88.172,23.852L88.186,23.852C90.655,23.933,92.851,24.404,94.535,25.073L94.537,25.073C95.136,25.31,95.587,25.544,95.674,25.59C97.342,26.461,98.311,27.539,98.56,28.611C98.607,28.808,98.62,28.96,98.622,28.99C98.639,29.194,98.627,29.327,98.624,29.356L98.624,29.363C98.551,30.468,97.728,31.585,96.11,32.508ZM46.479,30.656L54.314,30.656C54.251,33.764,56.193,36.736,59.896,39.227C57.037,40.49,54.688,41.516,53.343,42.103C48.398,38.818,45.974,34.839,46.479,30.656Z" fill-rule="evenodd" fill="#000000" fill-opacity="1"/></g><g transform="matrix(1.7380900382995605,0,0,1.7380900382995605,-112.88844769800198,-115.54654490380199)"><path d="M152.94671630859375,181.03903466796874L152.94671630859375,156.54803466796875L177.43771630859374,156.54803466796875L177.43771630859374,181.03903466796874L152.94671630859375,181.03903466796874ZM189.68271630859374,181.03903466796874L189.68271630859374,156.54803466796875L214.17371630859375,156.54803466796875L214.17371630859375,181.03903466796874L189.68271630859374,181.03903466796874Z" fill-rule="evenodd" fill="#000000" fill-opacity="1"/></g></g><g><g transform="matrix(0,1.5570199489593506,-2.28275990486145,0,440.1215289941174,-685.2768887200218)"><path d="M477.1509716796875,24.638144140625C478.1149716796875,25.295144140625,478.65597167968747,26.187144140625,478.65597167968747,27.116144140625C478.65597167968747,32.896144140625,478.65597167968747,54.181144140625,478.65597167968747,58.771144140625C478.65597167968747,59.003144140625,478.5209716796875,59.226144140625,478.2799716796875,59.390144140625C478.0389716796875,59.555144140625,477.7119716796875,59.647144140625,477.3709716796875,59.647144140625C471.5029716796875,59.647144140625,447.2739916796875,59.647144140625,441.4049716796875,59.647144140625C440.6959836796875,59.647144140625,440.1209716796875,59.255144140625,440.1209716796875,58.771144140625C440.1209716796875,51.983144140625,440.1209716796875,7.856144140625,440.1209716796875,0.438171140625C440.1209716796875,0.261169140625,440.2769776796875,0.101135140625,440.5169676796875,0.033142040625C440.7570186796875,-0.033874559375,441.0330196796875,0.003173830625,441.2169816796875,0.128174140625C446.6690016796875,3.847164140625,470.8509716796875,20.341144140625,477.1509716796875,24.638144140625Z" fill-rule="evenodd" fill="#000000" fill-opacity="1"/></g><g transform="matrix(0,1.5570199489593506,-1.4791699647903442,0,601.8321482348547,-937.0638543065288)"><path d="M755.968787109375,139.183244140625C755.968787109375,139.930244140625,755.398787109375,140.536244140625,754.688787109375,140.536244140625C743.428787109375,140.536244140625,661.651787109375,140.536244140625,647.358787109375,140.536244140625C645.996787109375,140.536244140625,644.689787109375,139.966244140625,643.725787109375,138.951244140625C637.035787109375,131.909244140625,610.026797109375,103.479244140625,603.336787109375,96.435944140625C602.372803109375,95.421944140625,601.831787109375,94.045944140625,601.831787109375,92.611944140625L601.831787109375,0.675934140625C601.831787109375,0.402923140625,601.987793109375,0.155945140625,602.227783109375,0.051940940625C602.467834109375,-0.053070059375,602.743835109375,0.004943850625,602.927797109375,0.197937140625C608.379817109375,5.936924140625,632.561787109375,31.391944140625,638.861787109375,38.022944140625C639.825787109375,39.037944140625,640.366787109375,40.412944140625,640.366787109375,41.847944140625C640.366787109375,49.078944140625,640.366787109375,71.635944140625,640.366787109375,76.929944140625C640.366787109375,77.646944140625,640.637787109375,78.334944140625,641.118787109375,78.841944140625C644.369787109375,82.263944140625,657.189787109375,95.757944140625,660.439787109375,99.179944140625C660.921787109375,99.686944140625,661.575787109375,99.971944140625,662.256787109375,99.971944140625C671.903787109375,99.971944140625,744.138787109375,99.971944140625,754.688787109375,99.971944140625C755.028787109375,99.971944140625,755.358787109375,100.115244140625,755.598787109375,100.368244140625C755.8387871093751,100.622244140625,755.968787109375,100.966244140625,755.968787109375,101.324244140625C755.968787109375,107.502244140625,755.968787109375,133.006244140625,755.968787109375,139.183244140625Z" fill-rule="evenodd" fill="#000000" fill-opacity="1"/></g><g transform="matrix(0,1.5570199489593506,-1.4791699647903442,0,1063.9563852954016,-1656.6005103074203)"><path d="M1108.263024169922,161.297244140625C1107.762024169922,161.825244140625,1106.9480241699218,161.825244140625,1106.4470241699219,161.297244140625C1100.972124169922,155.534244140625,1072.373074169922,125.429244140625,1065.461024169922,118.154244140625C1064.4970401699218,117.139244140625,1063.9560241699219,115.764244140625,1063.9560241699219,114.329244140625C1063.9560241699219,99.285244140625,1063.9560241699219,13.201244140625,1063.9560241699219,1.352234140625C1063.9560241699219,0.605224140625,1064.531036169922,0.000244140625,1065.240024169922,0.000244140625C1071.1090441699218,0.000244140625,1095.338024169922,0.000244140625,1101.2060241699219,0.000244140625C1101.5470241699218,0.000244140625,1101.8740241699218,0.142242140625,1102.115024169922,0.396240140625C1102.356024169922,0.649231140625,1102.491024169922,0.993225140625,1102.491024169922,1.352234140625C1102.491024169922,12.458244140625,1102.491024169922,88.492244140625,1102.491024169922,98.648244140625C1102.491024169922,99.365244140625,1102.762024169922,100.053244140625,1103.243024169922,100.560244140625C1106.4940241699219,103.981244140625,1119.3140241699218,117.476244140625,1122.5640241699218,120.898244140625C1123.0460241699218,121.405244140625,1123.7000241699218,121.690244140625,1124.3810241699218,121.690244140625C1128.028024169922,121.690244140625,1140.0330241699219,121.690244140625,1144.3430241699218,121.690244140625C1144.6030241699218,121.690244140625,1144.8330241699218,121.854244140625,1144.933124169922,122.107244140625C1145.0330241699219,122.360244140625,1144.973024169922,122.650244140625,1144.7930241699219,122.844244140625C1139.153024169922,128.785244140625,1113.436024169922,155.852244140625,1108.263024169922,161.297244140625Z" fill-rule="evenodd" fill="#000000" fill-opacity="1"/></g><g transform="matrix(0,1.5570199489593506,-1.4791699647903442,0,1195.5837336367986,-1567.6132056199203)"><path d="M1121.660624169922,189.547548828125C1122.140624169922,189.040548828125,1122.410624169922,188.352548828125,1122.410624169922,187.635548828125C1122.410624169922,177.47954882812502,1122.410624169922,101.445548828125,1122.410624169922,90.339538828125C1122.410624169922,89.980529828125,1122.5406241699218,89.636535828125,1122.7806241699218,89.383544828125C1123.0306241699218,89.129546828125,1123.350724169922,88.987548828125,1123.6906241699219,88.987548828125C1129.560624169922,88.987548828125,1153.7906241699218,88.987548828125,1159.660624169922,88.987548828125C1160.370724169922,88.987548828125,1160.9406241699219,89.592528828125,1160.9406241699219,90.339538828125C1160.9406241699219,102.188548828125,1160.9406241699219,188.272548828125,1160.9406241699219,203.316548828125C1160.9406241699219,204.751548828125,1160.400624169922,206.126548828125,1159.4406241699219,207.141548828125C1152.7507241699218,214.183548828125,1125.7407241699218,242.614548828125,1119.0506241699218,249.656548828125C1118.080624169922,250.670548828125,1116.7806241699218,251.240548828125,1115.420624169922,251.240548828125C1106.5106241699218,251.240548828125,1072.3086241699218,251.240548828125,1064.5986631699218,251.240548828125C1064.3386531699218,251.240548828125,1064.104645169922,251.075548828125,1064.004669169922,250.823548828125C1063.905670169922,250.570548828125,1063.960662839922,250.279548828125,1064.1436461699218,250.086548828125C1071.652614169922,242.182548828125,1115.370724169922,196.162548828125,1121.660624169922,189.547548828125Z" fill-rule="evenodd" fill="#000000" fill-opacity="1"/></g><g transform="matrix(0,1.5570199489593506,-1.4791699647903442,0,731.0392788526951,-1135.5089761652926)"><path d="M883.4210634765625,111.60463671875C883.4210634765625,112.35163671875,882.8510634765626,112.95763671875,882.1410634765625,112.95763671875C870.8800634765626,112.95763671875,789.1035634765625,112.95763671875,774.8105634765625,112.95763671875C773.4485634765625,112.95763671875,772.1415634765625,112.38763671875,771.1775634765625,111.37263671875C764.2655634765625,104.09763671875,735.6665634765625,73.99263671875,730.1915894765625,68.22963671875C729.6895754765625,67.70163671875,729.6895754765625,66.84563671875,730.1915894765625,66.31763671875C735.3645634765625,60.87163671875,761.0785634765625,33.80563671875,766.7216634765625,27.86463671875C766.9055634765625,27.67063671875,767.1815634765625,27.61363671875,767.4215634765625,27.71763671875C767.6616634765625,27.82263671875,767.8185634765625,28.06863671875,767.8185634765625,28.34263671875C767.8185634765625,32.87063671875,767.8185634765625,45.51163671875,767.8185634765625,49.35163671875C767.8185634765625,50.06863671875,768.0895634765625,50.75663671875,768.5706634765625,51.26363671875C771.7715634765625,54.63363671875,784.2515634765625,67.76963671875,787.7365634765625,71.43763671875C788.2375634765625,71.96563671875,789.0505634765625,71.96563671875,789.5525634765625,71.43763671875C793.0375634765625,67.76963671875,805.5205634765625,54.63363671875,808.7205634765625,51.26363671875C809.2006634765625,50.75663671875,809.4705634765625,50.06863671875,809.4705634765625,49.35163671875C809.4705634765625,42.78663671875,809.4705634765625,9.34362671875,809.4705634765625,2.17962671875C809.4705634765625,1.43365471875,810.0505634765625,0.82763671875,810.7505634765625,0.82763671875C816.6205634765624,0.82763671875,840.8510634765626,0.82763671875,846.7210634765624,0.82763671875C847.4310634765625,0.82763671875,848.0100634765624,1.43365471875,848.0100634765624,2.17962671875C848.0100634765624,10.48266671875,848.0100634765624,54.54863671875,848.0100634765624,65.03363671875C848.0100634765624,66.46763671875,847.4610634765625,67.84363671875,846.5000634765624,68.85763671875C845.7710634765625,69.62763671875,844.9110634765625,70.53663671875,844.2400634765625,71.23963671875C844.0510634765625,71.43263671875,844.0000634765624,71.72363671875,844.1010634765626,71.97663671875C844.2010634765625,72.22863671875,844.4310634765625,72.39363671875,844.6910634765625,72.39363671875C851.1910634765625,72.39363671875,876.1710634765625,72.39363671875,882.1410634765625,72.39363671875C882.8510634765626,72.39363671875,883.4210634765625,72.99963671875,883.4210634765625,73.74563671875C883.4210634765625,79.92363671875,883.4210634765625,105.42763671875,883.4210634765625,111.60463671875Z" fill-rule="evenodd" fill="#000000" fill-opacity="1"/></g><g transform="matrix(0,1.5570199489593506,1.4791699647903442,0,652.9473927807703,-1016.652434319607)"><path d="M805.80475390625,61.529444140625C806.14475390625,61.529444140625,806.47475390625,61.672444140625,806.71475390625,61.925444140625C806.9547539062501,62.179444140625,807.08475390625,62.523444140625,807.08475390625,62.881444140625C807.08475390625,69.059444140625,807.08475390625,94.563444140625,807.08475390625,100.740244140625C807.08475390625,101.487244140625,806.51475390625,102.093244140625,805.80475390625,102.093244140625C794.54475390625,102.093244140625,712.76775390625,102.093244140625,698.47475390625,102.093244140625C697.11275390625,102.093244140625,695.80575390625,101.523244140625,694.84175390625,100.508244140625C688.15175390625,93.466444140625,661.14276390625,65.036444140625,654.45275390625,57.993444140625C653.48876990625,56.979444140625,652.94775390625,55.603444140625,652.94775390625,54.169444140625C652.94775390625,44.790444140625,652.94775390625,8.792484140625,652.94775390625,0.676452140625C652.94775390625,0.402466140625,653.10375990625,0.156433140625,653.34374990625,0.051452640625C653.58380090625,-0.052551259375,653.85980190625,0.004455570625,654.04376390625,0.198486140625C661.55279390625,8.101444140625,705.27175390625,54.122444140625,711.55575390625,60.737444140625C712.03775390625,61.244444140625,712.69175390625,61.529444140625,713.37275390625,61.529444140625C723.01975390625,61.529444140625,795.25475390625,61.529444140625,805.80475390625,61.529444140625Z" fill-rule="evenodd" fill="#000000" fill-opacity="1"/></g></g></g></svg>