<svg xmlns="http://www.w3.org/2000/svg" xmlns:xlink="http://www.w3.org/1999/xlink" fill="none" version="1.1" width="303.958984375" height="240.000732421875" viewBox="0 0 303.958984375 240.000732421875"><g><g><g transform="matrix(1.7380900382995605,0,0,1.7380900382995605,0,0)"><path d="M143.929,0L174.881,66.546L174.881,138.083L0,138.083L0,66.546L30.953,0L143.929,0ZM161.47,124.671L161.47,79.958L13.412,79.958L13.412,124.671L161.47,124.671ZM149.518,28.516L149.515,28.512C145.931,21.337,137.245,14.983,126.016,10.507C125.259,10.205,124.703,9.995,124.588,9.952C114.903,6.296,102.479,3.648,88.268,3.548L88.262,3.548C87.717,3.546,87.506,3.546,87.44,3.546C87.166,3.546,86.688,3.548,86.622,3.548L86.616,3.548C72.388,3.648,59.967,6.299,50.289,9.954C49.55,10.231,48.973,10.463,48.86,10.509C37.635,14.984,28.949,21.338,25.368,28.507L25.366,28.511C25.211,28.831,25.154,28.952,25.137,28.99C25.119,29.028,25.061,29.152,24.922,29.467L24.92,29.47C21.383,37.681,25.162,45.511,35.128,51.608C35.24,51.678,35.803,52.026,36.555,52.448C48.21,59.016,66.426,62.837,86.154,62.997L86.164,62.997C86.266,62.997,87.015,63.001,87.44,63.001C87.869,63.001,88.601,62.997,88.702,62.997L88.712,62.997C108.446,62.837,126.662,59.019,138.321,52.448C139.059,52.038,139.64,51.678,139.752,51.608C149.718,45.511,153.497,37.681,149.963,29.474L149.961,29.469C149.944,29.431,149.818,29.151,149.744,28.99C149.726,28.952,149.67,28.832,149.518,28.516ZM45.019,50.569C47.417,49.531,49.786,48.497,52.066,47.495C60.116,51.266,71.202,53.598,83.302,54.033L83.182,58.63C68.273,58.168,54.626,55.287,45.019,50.569ZM134.743,47.777C131.638,46.457,129.145,45.386,127.714,44.77C133.735,40.768,136.551,35.852,135.506,30.649L143.319,30.649C145.084,36.944,141.987,42.922,134.743,47.777ZM91.714,58.629L91.594,54.032C103.693,53.596,114.775,51.264,122.824,47.49C125.897,48.84,128.425,49.938,129.871,50.564C120.264,55.286,106.616,58.166,91.714,58.629ZM61.451,30.656L69.349,30.656C69.647,31.724,70.417,32.851,71.791,33.905C69.089,35.129,66.868,36.124,65.653,36.668C63.078,34.875,61.652,32.798,61.451,30.656ZM109.235,36.662C106.495,35.437,104.292,34.441,103.079,33.891C104.442,32.842,105.209,31.717,105.505,30.649L113.429,30.649C113.23,32.793,111.807,34.87,109.235,36.662ZM59.064,17.387C61.093,18.423,62.758,19.265,63.619,19.699C59.447,21.84,56.461,24.493,55.118,27.356L47.474,27.356C49.31,23.563,53.433,20.099,59.064,17.387ZM58.247,44.763C60.479,43.77,62.688,42.781,64.816,41.82C69.846,43.916,76.355,45.29,83.52,45.66L83.407,49.986C73.704,49.578,64.855,47.709,58.247,44.763ZM84.238,17.579L84.151,20.903C81.817,21.112,79.655,21.544,77.801,22.11C75.578,21.042,73.787,20.172,72.853,19.718C76.103,18.623,79.977,17.842,84.238,17.579ZM31.558,30.656L39.373,30.656C38.33,35.86,41.152,40.775,47.174,44.776C44.109,46.096,41.588,47.17,40.146,47.783C32.897,42.928,29.796,36.949,31.558,30.656ZM70.583,39.203C72.665,38.252,74.739,37.298,76.729,36.376C78.688,37.026,81.071,37.534,83.725,37.782L83.619,41.854C78.663,41.53,74.174,40.582,70.583,39.203ZM84.539,6.074L84.464,8.922C75.134,9.223,66.784,10.924,59.979,13.352C58.056,12.385,56.501,11.596,55.746,11.212C63.7,8.383,73.509,6.375,84.539,6.074ZM121.545,42.097C118.651,40.835,116.326,39.81,114.992,39.221C118.693,36.729,120.632,33.757,120.566,30.649L128.4,30.649C128.909,34.833,126.487,38.813,121.545,42.097ZM84.394,11.605L84.314,14.681C78.398,14.964,73.014,16.044,68.538,17.608C66.487,16.599,64.832,15.777,63.971,15.349C69.694,13.314,76.664,11.902,84.394,11.605ZM91.489,49.985L91.376,45.659C98.542,45.288,105.049,43.912,110.075,41.816C112.204,42.776,114.412,43.766,116.644,44.758C110.041,47.705,101.195,49.575,91.489,49.985ZM102.017,19.714C99.808,20.789,97.995,21.661,97.058,22.111C95.2,21.544,93.04,21.113,90.716,20.903L90.629,17.578C94.902,17.841,98.776,18.623,102.017,19.714ZM112.796,27.35L105.059,27.35C104.507,26.345,103.512,25.287,101.991,24.31C104.219,23.213,106.013,22.32,106.948,21.854C109.881,23.482,111.857,25.392,112.796,27.35ZM141.959,27.35L134.336,27.35C131.97,22.709,126.737,18.53,119.79,15.336C121.708,14.345,123.257,13.537,124.009,13.144C132.46,16.866,138.945,21.82,141.959,27.35ZM119.124,11.209C117.212,12.181,115.646,12.969,114.891,13.349C108.084,10.92,99.735,9.221,90.404,8.921L90.33,6.074C101.382,6.376,111.186,8.386,119.124,11.209ZM127.403,27.35L119.759,27.35C118.413,24.487,115.426,21.834,111.253,19.694C113.299,18.662,114.948,17.821,115.807,17.382C121.44,20.095,125.565,23.557,127.403,27.35ZM50.861,13.148C52.766,14.144,54.328,14.952,55.08,15.34C48.135,18.535,42.904,22.715,40.541,27.356L32.917,27.356C35.931,21.824,42.413,16.87,50.861,13.148ZM91.276,41.853L91.17,37.778C93.819,37.527,96.196,37.017,98.15,36.367C100.144,37.29,102.222,38.246,104.308,39.198C100.714,40.579,96.224,41.528,91.276,41.853ZM67.924,21.858C70.124,22.956,71.931,23.848,72.865,24.308C71.342,25.285,70.343,26.346,69.79,27.356L62.082,27.356C63.021,25.395,64.995,23.485,67.924,21.858ZM110.899,15.345C108.863,16.358,107.195,17.18,106.332,17.604C101.853,16.041,96.468,14.963,90.554,14.681L90.474,11.605C98.207,11.901,105.176,13.311,110.899,15.345ZM96.11,32.508C96.023,32.557,95.58,32.808,94.974,33.063L94.974,33.063C93.239,33.797,90.9,34.312,88.262,34.401L88.246,34.402C88.18,34.404,87.871,34.416,87.426,34.416C87.359,34.416,87.029,34.416,86.592,34.401L86.589,34.401C83.951,34.312,81.61,33.797,79.882,33.065L79.88,33.064C79.271,32.807,78.829,32.557,78.742,32.508C77.127,31.587,76.302,30.471,76.229,29.37L76.229,29.363C76.226,29.333,76.213,29.192,76.23,28.99C76.232,28.96,76.245,28.81,76.292,28.612C76.542,27.539,77.511,26.461,79.179,25.59C79.267,25.544,79.716,25.311,80.315,25.074L80.317,25.073C82.005,24.402,84.205,23.933,86.652,23.853C87.061,23.839,87.365,23.839,87.427,23.839C87.838,23.839,88.112,23.849,88.172,23.852L88.186,23.852C90.655,23.933,92.851,24.404,94.535,25.073L94.537,25.073C95.136,25.31,95.587,25.544,95.674,25.59C97.342,26.461,98.311,27.539,98.56,28.611C98.607,28.808,98.62,28.96,98.622,28.99C98.639,29.194,98.627,29.327,98.624,29.356L98.624,29.363C98.551,30.468,97.728,31.585,96.11,32.508ZM46.479,30.656L54.314,30.656C54.251,33.764,56.193,36.736,59.896,39.227C57.037,40.49,54.688,41.516,53.343,42.103C48.398,38.818,45.974,34.839,46.479,30.656Z" fill-rule="evenodd" fill="#FFFFFF" fill-opacity="1"/></g><g transform="matrix(1.7380900382995605,0,0,1.7380900382995605,-112.88844769800198,-115.54654490380199)"><path d="M152.94671630859375,181.03903466796874L152.94671630859375,156.54803466796875L177.43771630859374,156.54803466796875L177.43771630859374,181.03903466796874L152.94671630859375,181.03903466796874ZM189.68271630859374,181.03903466796874L189.68271630859374,156.54803466796875L214.17371630859375,156.54803466796875L214.17371630859375,181.03903466796874L189.68271630859374,181.03903466796874Z" fill-rule="evenodd" fill="#FFFFFF" fill-opacity="1"/></g></g></g></svg>