<svg xmlns="http://www.w3.org/2000/svg" xmlns:xlink="http://www.w3.org/1999/xlink" fill="none" version="1.1" width="100.49609375" height="126.4183349609375" viewBox="0 0 100.49609375 126.4183349609375"><g><path d="M4.56349,125.377L0,119.874L2.87698,110.257L21.9246,105.993L39.5833,80.6103L42.1627,68.6129L51.9041,54.6174L49.147,60.7056L52.648,71.5413L60.5146,72.037L64.4999,68.9255L65.0794,70.0011L59.9206,80.6103L50.1984,88.245L26.7857,125.377L21.9246,126.418L18.5516,122.651L4.56349,125.377ZM65.8248,64.085L91.9643,23.2015L100.496,19.7312L100.496,10.5101L93.254,9.0228L88.6905,0L77.7778,5.35419L77.7778,19.7312L56.0707,52.6893L52.3582,60.8871L54.8747,68.6757L59.5661,68.9713L65.8248,64.085Z" fill-rule="evenodd" fill="#000000" fill-opacity="1"/></g></svg>