<svg xmlns="http://www.w3.org/2000/svg" xmlns:xlink="http://www.w3.org/1999/xlink" fill="none" version="1.1" width="800" height="1200" viewBox="0 0 800 1200"><defs><clipPath id="master_svg0_503_650"><rect x="220" y="504.98229217529297" width="188" height="188" rx="0"/></clipPath><clipPath id="master_svg1_503_656"><rect x="424.13134765625" y="491.99999237060547" width="120.31103515625" height="117.05238342285156" rx="0"/></clipPath></defs><g><g><rect x="0" y="0" width="800" height="1200" rx="0" fill="#BC1314" fill-opacity="1"/></g><g><rect x="25" y="165" width="750" height="990" rx="0" fill="#FFFFFF" fill-opacity="1"/></g><g><rect x="36" y="276" width="728" height="868" rx="0" fill-opacity="0" stroke-opacity="1" stroke="#000000" fill="none" stroke-width="22"/></g><g><path d="M367.68,77L362.304,77Q360.896,77,360.896,75.656L360.896,43.592Q360.896,42.888000000000005,360.192,42.888000000000005L352.896,42.888000000000005Q351.552,42.888000000000005,351.552,41.544L351.552,37.192Q351.552,35.848,352.896,35.848L377.088,35.848Q378.432,35.848,378.432,37.192L378.432,41.544Q378.432,42.888000000000005,377.088,42.888000000000005L369.79200000000003,42.888000000000005Q369.024,42.888000000000005,369.024,43.592L369.024,75.656Q369.024,77,367.68,77ZM387.584,77L381.44,77Q380.288,77,380.672,75.656L390.784,37.192Q391.23199999999997,35.848,392.704,35.848L401.216,35.848Q402.81600000000003,35.848,403.136,37.192L413.248,75.656Q413.632,77,412.48,77L406.336,77Q405.632,77,405.376,76.712Q405.12,76.424,404.992,75.656L403.2,68.616L390.72,68.616L388.928,75.656Q388.8,76.424,388.512,76.712Q388.224,77,387.584,77ZM396.864,43.592L392.256,62.088L401.728,62.088L397.12,43.592L396.864,43.592ZM435.84000000000003,77L428.86400000000003,77Q423.808,77,421.056,74.312Q418.304,71.624,418.304,66.568L418.304,46.28Q418.304,41.224000000000004,421.056,38.536Q423.808,35.848,428.86400000000003,35.848L435.84000000000003,35.848Q440.832,35.848,443.616,38.568Q446.4,41.288,446.4,46.28L446.4,49.288Q446.4,50.696,444.992,50.696L439.616,50.696Q438.272,50.696,438.272,49.288L438.272,46.664Q438.272,44.616,437.408,43.751999999999995Q436.544,42.888000000000005,434.496,42.888000000000005L430.144,42.888000000000005Q428.15999999999997,42.888000000000005,427.296,43.751999999999995Q426.432,44.616,426.432,46.664L426.432,66.184Q426.432,68.232,427.296,69.096Q428.15999999999997,69.96000000000001,430.144,69.96000000000001L434.496,69.96000000000001Q436.544,69.96000000000001,437.408,69.096Q438.272,68.232,438.272,66.184L438.272,63.56Q438.272,62.152,439.616,62.152L444.992,62.152Q446.4,62.152,446.4,63.56L446.4,66.568Q446.4,71.56,443.616,74.28Q440.832,77,435.84000000000003,77Z" fill="#FFFFFF" fill-opacity="1"/></g><g><path d="M281.428,105L279.412,105Q278.884,105,278.884,104.496L278.884,92.472Q278.884,92.208,278.62,92.208L275.883995,92.208Q275.379995,92.208,275.379995,91.70400000000001L275.379995,90.072Q275.379995,89.568,275.883995,89.568L284.956,89.568Q285.46,89.568,285.46,90.072L285.46,91.70400000000001Q285.46,92.208,284.956,92.208L282.22,92.208Q281.932,92.208,281.932,92.472L281.932,104.496Q281.932,105,281.428,105ZM290.452,90.072L290.452,104.496Q290.452,105,289.948,105L287.908,105Q287.404,105,287.404,104.496L287.404,90.072Q287.404,89.568,287.908,89.568L289.948,89.568Q290.452,89.568,290.452,90.072ZM296.188,105L294.196,105Q293.692,105,293.692,104.496L293.692,90.072Q293.692,89.568,294.196,89.568L295.996,89.568Q296.5,89.568,296.668,89.904L301.516,99L301.612,99L301.612,90.072Q301.612,89.568,302.116,89.568L304.108,89.568Q304.612,89.568,304.612,90.072L304.612,104.496Q304.612,105,304.108,105L302.356,105Q301.828,105,301.588,104.52L296.788,95.592L296.692,95.592L296.692,104.496Q296.692,105,296.188,105ZM311.044,102.36L313.65999999999997,102.36Q314.428,102.36,314.752,102.036Q315.076,101.712,315.076,100.944L315.076,93.624Q315.076,92.856,314.752,92.532Q314.428,92.208,313.65999999999997,92.208L311.044,92.208Q310.78,92.208,310.78,92.472L310.78,102.096Q310.78,102.36,311.044,102.36ZM307.73199999999997,104.496L307.73199999999997,90.072Q307.73199999999997,89.568,308.236,89.568L314.164,89.568Q316.036,89.568,317.08,90.588Q318.124,91.608,318.124,93.48L318.124,101.088Q318.124,102.96000000000001,317.08,103.98Q316.036,105,314.164,105L308.236,105Q307.73199999999997,105,307.73199999999997,104.496ZM329.356,105L321.508,105Q321.004,105,321.004,104.496L321.004,90.072Q321.004,89.568,321.508,89.568L329.356,89.568Q329.836,89.568,329.836,90.072L329.836,91.70400000000001Q329.836,92.208,329.356,92.208L324.34000000000003,92.208Q324.052,92.208,324.052,92.472L324.052,95.592Q324.052,95.856,324.34000000000003,95.856L328.444,95.856Q328.948,95.856,328.948,96.36L328.948,97.992Q328.948,98.496,328.444,98.496L324.34000000000003,98.496Q324.052,98.496,324.052,98.76L324.052,102.096Q324.052,102.36,324.34000000000003,102.36L329.356,102.36Q329.836,102.36,329.836,102.864L329.836,104.496Q329.836,105,329.356,105ZM335.044,105L333.004,105Q332.5,105,332.5,104.496L332.5,90.072Q332.5,89.568,333.004,89.568L338.716,89.568Q340.58799999999997,89.568,341.644,90.6Q342.7,91.632,342.7,93.504L342.7,95.376Q342.7,98.088,340.56399999999996,98.976L340.56399999999996,99.072L343.132,104.424Q343.348,105,342.724,105L340.78,105Q340.348,105,340.156,104.904Q339.964,104.80799999999999,339.844,104.496L337.444,99.312L335.836,99.312Q335.548,99.312,335.548,99.576L335.548,104.496Q335.548,105,335.044,105ZM335.812,96.864L338.164,96.864Q338.932,96.864,339.29200000000003,96.53999999999999Q339.652,96.216,339.652,95.496L339.652,93.624Q339.652,92.88,339.29200000000003,92.544Q338.932,92.208,338.164,92.208L335.812,92.208Q335.548,92.208,335.548,92.472L335.548,96.6Q335.548,96.864,335.812,96.864ZM352.516,105L350.212,105Q349.78,105,349.924,104.496L353.716,90.072Q353.884,89.568,354.43600000000004,89.568L357.628,89.568Q358.228,89.568,358.348,90.072L362.14,104.496Q362.284,105,361.852,105L359.548,105Q359.284,105,359.188,104.892Q359.092,104.78399999999999,359.044,104.496L358.372,101.856L353.692,101.856L353.02,104.496Q352.972,104.78399999999999,352.86400000000003,104.892Q352.756,105,352.516,105ZM355.996,92.472L354.26800000000003,99.408L357.82,99.408L356.092,92.472L355.996,92.472ZM366.82,105L364.78,105Q364.276,105,364.276,104.496L364.276,90.072Q364.276,89.568,364.78,89.568L370.492,89.568Q372.36400000000003,89.568,373.42,90.6Q374.476,91.632,374.476,93.504L374.476,95.376Q374.476,98.088,372.34000000000003,98.976L372.34000000000003,99.072L374.908,104.424Q375.124,105,374.5,105L372.556,105Q372.124,105,371.932,104.904Q371.74,104.80799999999999,371.62,104.496L369.22,99.312L367.61199999999997,99.312Q367.324,99.312,367.324,99.576L367.324,104.496Q367.324,105,366.82,105ZM367.58799999999997,96.864L369.94,96.864Q370.70799999999997,96.864,371.068,96.53999999999999Q371.428,96.216,371.428,95.496L371.428,93.624Q371.428,92.88,371.068,92.544Q370.70799999999997,92.208,369.94,92.208L367.58799999999997,92.208Q367.324,92.208,367.324,92.472L367.324,96.6Q367.324,96.864,367.58799999999997,96.864ZM383.74,105L381.124,105Q379.228,105,378.196,103.992Q377.164,102.98400000000001,377.164,101.088L377.164,93.48Q377.164,91.584,378.196,90.576Q379.228,89.568,381.124,89.568L383.74,89.568Q385.61199999999997,89.568,386.656,90.588Q387.7,91.608,387.7,93.48L387.7,94.608Q387.7,95.136,387.172,95.136L385.156,95.136Q384.652,95.136,384.652,94.608L384.652,93.624Q384.652,92.856,384.328,92.532Q384.004,92.208,383.236,92.208L381.604,92.208Q380.86,92.208,380.536,92.532Q380.212,92.856,380.212,93.624L380.212,100.944Q380.212,101.712,380.536,102.036Q380.86,102.36,381.604,102.36L383.236,102.36Q384.004,102.36,384.328,102.036Q384.652,101.712,384.652,100.944L384.652,99.96000000000001Q384.652,99.432,385.156,99.432L387.172,99.432Q387.7,99.432,387.7,99.96000000000001L387.7,101.088Q387.7,102.96000000000001,386.656,103.98Q385.61199999999997,105,383.74,105ZM392.86,105L390.82,105Q390.31600000000003,105,390.31600000000003,104.496L390.31600000000003,90.072Q390.31600000000003,89.568,390.82,89.568L392.86,89.568Q393.36400000000003,89.568,393.36400000000003,90.072L393.36400000000003,95.712Q393.36400000000003,95.976,393.652,95.976L397.70799999999997,95.976Q397.972,95.976,397.972,95.712L397.972,90.072Q397.972,89.568,398.476,89.568L400.516,89.568Q401.02,89.568,401.02,90.072L401.02,104.496Q401.02,105,400.516,105L398.476,105Q397.972,105,397.972,104.496L397.972,98.88Q397.972,98.616,397.70799999999997,98.616L393.652,98.616Q393.36400000000003,98.616,393.36400000000003,98.88L393.36400000000003,104.496Q393.36400000000003,105,392.86,105ZM407.308,90.072L407.308,104.496Q407.308,105,406.804,105L404.764,105Q404.26,105,404.26,104.496L404.26,90.072Q404.26,89.568,404.764,89.568L406.804,89.568Q407.308,89.568,407.308,90.072ZM416.836,105L413.692,105Q413.188,105,413.092,104.496L409.372,90.12Q409.204,89.568,409.852,89.568L412.108,89.568Q412.58799999999997,89.568,412.68399999999997,90.072L415.204,101.88L415.3,101.88L417.82,90.072Q417.916,89.568,418.39599999999996,89.568L420.652,89.568Q421.252,89.568,421.132,90.12L417.41200000000003,104.496Q417.29200000000003,105,416.836,105ZM431.404,105L423.55600000000004,105Q423.052,105,423.052,104.496L423.052,90.072Q423.052,89.568,423.55600000000004,89.568L431.404,89.568Q431.884,89.568,431.884,90.072L431.884,91.70400000000001Q431.884,92.208,431.404,92.208L426.38800000000003,92.208Q426.1,92.208,426.1,92.472L426.1,95.592Q426.1,95.856,426.38800000000003,95.856L430.49199999999996,95.856Q430.996,95.856,430.996,96.36L430.996,97.992Q430.996,98.496,430.49199999999996,98.496L426.38800000000003,98.496Q426.1,98.496,426.1,98.76L426.1,102.096Q426.1,102.36,426.38800000000003,102.36L431.404,102.36Q431.884,102.36,431.884,102.864L431.884,104.496Q431.884,105,431.404,105ZM434.164,101.064L434.164,100.584Q434.164,100.08,434.668,100.08L436.70799999999997,100.08Q437.212,100.08,437.212,100.584L437.212,100.776Q437.212,101.688,437.572,102.024Q437.932,102.36,438.892,102.36L440.02,102.36Q440.956,102.36,441.328,102Q441.7,101.64,441.7,100.656L441.7,100.368Q441.7,99.672,441.13599999999997,99.3Q440.572,98.928,439.73199999999997,98.856Q438.892,98.78399999999999,437.91999999999996,98.58Q436.948,98.376,436.108,98.05199999999999Q435.26800000000003,97.728,434.704,96.78Q434.14,95.832,434.14,94.344L434.14,93.504Q434.14,91.632,435.196,90.6Q436.252,89.568,438.124,89.568L440.524,89.568Q442.41999999999996,89.568,443.476,90.6Q444.53200000000004,91.632,444.53200000000004,93.504L444.53200000000004,93.96000000000001Q444.53200000000004,94.464,444.028,94.464L441.988,94.464Q441.48400000000004,94.464,441.48400000000004,93.96000000000001L441.48400000000004,93.816Q441.48400000000004,92.88,441.124,92.544Q440.764,92.208,439.804,92.208L438.868,92.208Q437.884,92.208,437.536,92.58Q437.188,92.952,437.188,94.032L437.188,94.488Q437.188,95.616,439.156,95.784Q441.196,95.952,442.78,96.6Q443.62,96.96000000000001,444.18399999999997,97.884Q444.748,98.80799999999999,444.748,100.248L444.748,101.064Q444.748,102.936,443.692,103.968Q442.63599999999997,105,440.764,105L438.148,105Q436.276,105,435.22,103.968Q434.164,102.936,434.164,101.064ZM459.1,105L456.48400000000004,105Q454.58799999999997,105,453.55600000000004,103.992Q452.524,102.98400000000001,452.524,101.088L452.524,93.48Q452.524,91.584,453.55600000000004,90.576Q454.58799999999997,89.568,456.48400000000004,89.568L459.1,89.568Q460.972,89.568,462.01599999999996,90.588Q463.06,91.608,463.06,93.48L463.06,94.608Q463.06,95.136,462.53200000000004,95.136L460.51599999999996,95.136Q460.012,95.136,460.012,94.608L460.012,93.624Q460.012,92.856,459.688,92.532Q459.36400000000003,92.208,458.596,92.208L456.964,92.208Q456.22,92.208,455.89599999999996,92.532Q455.572,92.856,455.572,93.624L455.572,100.944Q455.572,101.712,455.89599999999996,102.036Q456.22,102.36,456.964,102.36L458.596,102.36Q459.36400000000003,102.36,459.688,102.036Q460.012,101.712,460.012,100.944L460.012,99.96000000000001Q460.012,99.432,460.51599999999996,99.432L462.53200000000004,99.432Q463.06,99.432,463.06,99.96000000000001L463.06,101.088Q463.06,102.96000000000001,462.01599999999996,103.98Q460.972,105,459.1,105ZM474.028,105L466.18,105Q465.676,105,465.676,104.496L465.676,90.072Q465.676,89.568,466.18,89.568L474.028,89.568Q474.50800000000004,89.568,474.50800000000004,90.072L474.50800000000004,91.70400000000001Q474.50800000000004,92.208,474.028,92.208L469.012,92.208Q468.724,92.208,468.724,92.472L468.724,95.592Q468.724,95.856,469.012,95.856L473.116,95.856Q473.62,95.856,473.62,96.36L473.62,97.992Q473.62,98.496,473.116,98.496L469.012,98.496Q468.724,98.496,468.724,98.76L468.724,102.096Q468.724,102.36,469.012,102.36L474.028,102.36Q474.50800000000004,102.36,474.50800000000004,102.864L474.50800000000004,104.496Q474.50800000000004,105,474.028,105ZM479.668,105L477.676,105Q477.172,105,477.172,104.496L477.172,90.072Q477.172,89.568,477.676,89.568L479.476,89.568Q479.98,89.568,480.148,89.904L484.996,99L485.092,99L485.092,90.072Q485.092,89.568,485.596,89.568L487.58799999999997,89.568Q488.092,89.568,488.092,90.072L488.092,104.496Q488.092,105,487.58799999999997,105L485.836,105Q485.308,105,485.068,104.52L480.26800000000003,95.592L480.172,95.592L480.172,104.496Q480.172,105,479.668,105ZM495.988,105L493.972,105Q493.44399999999996,105,493.44399999999996,104.496L493.44399999999996,92.472Q493.44399999999996,92.208,493.18,92.208L490.44399999999996,92.208Q489.94,92.208,489.94,91.70400000000001L489.94,90.072Q489.94,89.568,490.44399999999996,89.568L499.51599999999996,89.568Q500.02,89.568,500.02,90.072L500.02,91.70400000000001Q500.02,92.208,499.51599999999996,92.208L496.78,92.208Q496.49199999999996,92.208,496.49199999999996,92.472L496.49199999999996,104.496Q496.49199999999996,105,495.988,105ZM510.196,105L502.348,105Q501.844,105,501.844,104.496L501.844,90.072Q501.844,89.568,502.348,89.568L510.196,89.568Q510.676,89.568,510.676,90.072L510.676,91.70400000000001Q510.676,92.208,510.196,92.208L505.18,92.208Q504.892,92.208,504.892,92.472L504.892,95.592Q504.892,95.856,505.18,95.856L509.284,95.856Q509.788,95.856,509.788,96.36L509.788,97.992Q509.788,98.496,509.284,98.496L505.18,98.496Q504.892,98.496,504.892,98.76L504.892,102.096Q504.892,102.36,505.18,102.36L510.196,102.36Q510.676,102.36,510.676,102.864L510.676,104.496Q510.676,105,510.196,105ZM515.884,105L513.844,105Q513.34,105,513.34,104.496L513.34,90.072Q513.34,89.568,513.844,89.568L519.556,89.568Q521.428,89.568,522.484,90.6Q523.54,91.632,523.54,93.504L523.54,95.376Q523.54,98.088,521.404,98.976L521.404,99.072L523.972,104.424Q524.188,105,523.564,105L521.62,105Q521.188,105,520.996,104.904Q520.804,104.80799999999999,520.684,104.496L518.284,99.312L516.6759999999999,99.312Q516.388,99.312,516.388,99.576L516.388,104.496Q516.388,105,515.884,105ZM516.652,96.864L519.004,96.864Q519.7719999999999,96.864,520.1320000000001,96.53999999999999Q520.492,96.216,520.492,95.496L520.492,93.624Q520.492,92.88,520.1320000000001,92.544Q519.7719999999999,92.208,519.004,92.208L516.652,92.208Q516.388,92.208,516.388,92.472L516.388,96.6Q516.388,96.864,516.652,96.864Z" fill="#FFFFFF" fill-opacity="1"/></g><g><path d="M52.46,242L61.34,242L61.34,226.22L67.28,226.22C76.82,226.22,84.44,221.66,84.44,211.52C84.44,201.02,76.88,197.54,67.03999999999999,197.54L52.46,197.54L52.46,242ZM61.34,219.2L61.34,204.62L66.38,204.62C72.5,204.62,75.74,206.36,75.74,211.52C75.74,216.62,72.8,219.2,66.68,219.2L61.34,219.2ZM101.36,218.18L101.36,204.62L107.12,204.62C112.82,204.62,115.94,206.24,115.94,211.04C115.94,215.78,112.82,218.18,107.12,218.18L101.36,218.18ZM116.66,242L126.56,242L116.18,223.82C121.28,221.84,124.64,217.7,124.64,211.04C124.64,200.84,117.26,197.54,107.9,197.54L92.47999999999999,197.54L92.47999999999999,242L101.36,242L101.36,225.2L107.53999999999999,225.2L116.66,242ZM151.04000000000002,242.84C162.8,242.84,170.9,234.02,170.9,219.56C170.9,205.16,162.8,196.76,151.04000000000002,196.76C139.28,196.76,131.18,205.16,131.18,219.56C131.18,234.02,139.28,242.84,151.04000000000002,242.84ZM151.04000000000002,235.16C144.44,235.16,140.3,229.04,140.3,219.56C140.3,210.07999999999998,144.44,204.38,151.04000000000002,204.38C157.64,204.38,161.84,210.07999999999998,161.84,219.56C161.84,229.04,157.64,235.16,151.04000000000002,235.16ZM179.6,242L188.48,242L188.48,222.8L205.28,222.8L205.28,242L214.1,242L214.1,197.54L205.28,197.54L205.28,215.12L188.48,215.12L188.48,197.54L179.6,197.54L179.6,242ZM225.02,242L233.9,242L233.9,197.54L225.02,197.54L225.02,242ZM244.82,242L260.65999999999997,242C270.44,242,277.82,237.86,277.82,228.92000000000002C277.82,222.98,274.34000000000003,219.56,269.53999999999996,218.42000000000002L269.53999999999996,218.18C273.32,216.8,275.6,212.66,275.6,208.52C275.6,200.24,268.64,197.54,259.52,197.54L244.82,197.54L244.82,242ZM253.7,215.66L253.7,204.38L258.98,204.38C264.32,204.38,266.96000000000004,205.94,266.96000000000004,209.84C266.96000000000004,213.38,264.56,215.66,258.91999999999996,215.66L253.7,215.66ZM253.7,235.16L253.7,222.2L259.88,222.2C266,222.2,269.18,224.06,269.18,228.38C269.18,233,265.88,235.16,259.88,235.16L253.7,235.16ZM285.68,242L294.56,242L294.56,197.54L285.68,197.54L285.68,242ZM314.3,242L323.18,242L323.18,204.98L335.72,204.98L335.72,197.54L301.82,197.54L301.82,204.98L314.3,204.98L314.3,242ZM342.98,242L370.88,242L370.88,234.56L351.86,234.56L351.86,222.68L367.4,222.68L367.4,215.24L351.86,215.24L351.86,204.98L370.22,204.98L370.22,197.54L342.98,197.54L342.98,242ZM379.88,242L392.54,242C405.68,242,414.02,234.56,414.02,219.56C414.02,204.62,405.68,197.54,392.06,197.54L379.88,197.54L379.88,242ZM388.76,234.8L388.76,204.68L391.46,204.68C399.8,204.68,404.96,208.76,404.96,219.56C404.96,230.36,399.8,234.8,391.46,234.8L388.76,234.8ZM449.96,242L465.8,242C475.58,242,482.96,237.86,482.96,228.92000000000002C482.96,222.98,479.48,219.56,474.68,218.42000000000002L474.68,218.18C478.46,216.8,480.74,212.66,480.74,208.52C480.74,200.24,473.78,197.54,464.66,197.54L449.96,197.54L449.96,242ZM458.84,215.66L458.84,204.38L464.12,204.38C469.46,204.38,472.1,205.94,472.1,209.84C472.1,213.38,469.7,215.66,464.06,215.66L458.84,215.66ZM458.84,235.16L458.84,222.2L465.02,222.2C471.14,222.2,474.32,224.06,474.32,228.38C474.32,233,471.02,235.16,465.02,235.16L458.84,235.16ZM490.82,242L518.72,242L518.72,234.56L499.7,234.56L499.7,222.68L515.24,222.68L515.24,215.24L499.7,215.24L499.7,204.98L518.06,204.98L518.06,197.54L490.82,197.54L490.82,242ZM527.72,242L536.6,242L536.6,222.8L553.4,222.8L553.4,242L562.22,242L562.22,197.54L553.4,197.54L553.4,215.12L536.6,215.12L536.6,197.54L527.72,197.54L527.72,242ZM567.44,242L576.44,242L579.56,230.6L593.9,230.6L597.02,242L606.38,242L592.16,197.54L581.66,197.54L567.44,242ZM581.48,223.7L582.8,218.84C584.12,214.22,585.38,209.18,586.58,204.32L586.82,204.32C588.14,209.06,589.34,214.22,590.72,218.84L592.04,223.7L581.48,223.7ZM618.26,242L628.88,242L642.44,197.54L633.44,197.54L627.68,219.2C626.3,224.12,625.34,228.56,623.9,233.54L623.6,233.54C622.22,228.56,621.26,224.12,619.88,219.2L614.06,197.54L604.7,197.54L618.26,242ZM647.6,242L656.48,242L656.48,197.54L647.6,197.54L647.6,242ZM685.04,242.84C696.8,242.84,704.9,234.02,704.9,219.56C704.9,205.16,696.8,196.76,685.04,196.76C673.28,196.76,665.18,205.16,665.18,219.56C665.18,234.02,673.28,242.84,685.04,242.84ZM685.04,235.16C678.44,235.16,674.3,229.04,674.3,219.56C674.3,210.07999999999998,678.44,204.38,685.04,204.38C691.64,204.38,695.84,210.07999999999998,695.84,219.56C695.84,229.04,691.64,235.16,685.04,235.16ZM722.48,218.18L722.48,204.62L728.24,204.62C733.94,204.62,737.06,206.24,737.06,211.04C737.06,215.78,733.94,218.18,728.24,218.18L722.48,218.18ZM737.78,242L747.68,242L737.3,223.82C742.4,221.84,745.76,217.7,745.76,211.04C745.76,200.84,738.38,197.54,729.02,197.54L713.6,197.54L713.6,242L722.48,242L722.48,225.2L728.66,225.2L737.78,242Z" fill="#BC1314" fill-opacity="1"/></g><g><rect x="65" y="985" width="670" height="130" rx="0" fill="#BC1314" fill-opacity="1"/></g><g><path d="M124.34,1084.176C140.804,1084.176,152.144,1071.828,152.144,1051.584C152.144,1031.424,140.804,1019.664,124.34,1019.664C107.876,1019.664,96.536,1031.424,96.536,1051.584C96.536,1071.828,107.876,1084.176,124.34,1084.176ZM124.34,1073.424C115.1,1073.424,109.304,1064.856,109.304,1051.584C109.304,1038.312,115.1,1030.332,124.34,1030.332C133.57999999999998,1030.332,139.46,1038.312,139.46,1051.584C139.46,1064.856,133.57999999999998,1073.424,124.34,1073.424ZM164.324,1083L202.04000000000002,1083L202.04000000000002,1072.584L176.756,1072.584L176.756,1020.756L164.324,1020.756L164.324,1083ZM212.876,1083L230.6,1083C248.996,1083,260.672,1072.584,260.672,1051.584C260.672,1030.668,248.996,1020.756,229.928,1020.756L212.876,1020.756L212.876,1083ZM225.308,1072.92L225.308,1030.752L229.088,1030.752C240.764,1030.752,247.988,1036.464,247.988,1051.584C247.988,1066.704,240.764,1072.92,229.088,1072.92L225.308,1072.92ZM291.91999999999996,1083L314.096,1083C327.788,1083,338.12,1077.204,338.12,1064.688C338.12,1056.372,333.248,1051.584,326.528,1049.988L326.528,1049.652C331.82,1047.72,335.012,1041.924,335.012,1036.128C335.012,1024.536,325.26800000000003,1020.756,312.5,1020.756L291.91999999999996,1020.756L291.91999999999996,1083ZM304.352,1046.124L304.352,1030.332L311.744,1030.332C319.22,1030.332,322.916,1032.516,322.916,1037.976C322.916,1042.932,319.55600000000004,1046.124,311.65999999999997,1046.124L304.352,1046.124ZM304.352,1073.424L304.352,1055.28L313.004,1055.28C321.572,1055.28,326.024,1057.884,326.024,1063.932C326.024,1070.4,321.404,1073.424,313.004,1073.424L304.352,1073.424ZM361.556,1049.652L361.556,1030.668L369.62,1030.668C377.6,1030.668,381.968,1032.936,381.968,1039.656C381.968,1046.292,377.6,1049.652,369.62,1049.652L361.556,1049.652ZM382.976,1083L396.836,1083L382.304,1057.548C389.444,1054.776,394.148,1048.98,394.148,1039.656C394.148,1025.376,383.816,1020.756,370.712,1020.756L349.124,1020.756L349.124,1083L361.556,1083L361.556,1059.48L370.208,1059.48L382.976,1083ZM431.108,1084.176C447.572,1084.176,458.912,1071.828,458.912,1051.584C458.912,1031.424,447.572,1019.664,431.108,1019.664C414.644,1019.664,403.304,1031.424,403.304,1051.584C403.304,1071.828,414.644,1084.176,431.108,1084.176ZM431.108,1073.424C421.868,1073.424,416.072,1064.856,416.072,1051.584C416.072,1038.312,421.868,1030.332,431.108,1030.332C440.348,1030.332,446.228,1038.312,446.228,1051.584C446.228,1064.856,440.348,1073.424,431.108,1073.424ZM489.656,1084.176C504.02,1084.176,512.504,1075.524,512.504,1065.36C512.504,1056.372,507.548,1051.5,499.988,1048.392L491.84,1045.116C486.548,1042.932,482.18,1041.336,482.18,1036.884C482.18,1032.768,485.54,1030.332,491,1030.332C496.208,1030.332,500.324,1032.264,504.272,1035.456L510.572,1027.728C505.532,1022.604,498.308,1019.664,491,1019.664C478.484,1019.664,469.496,1027.56,469.496,1037.64C469.496,1046.712,475.88,1051.752,482.18,1054.272L490.412,1057.884C495.956,1060.236,499.82,1061.664,499.82,1066.284C499.82,1070.652,496.376,1073.424,489.908,1073.424C484.448,1073.424,478.484,1070.652,474.116,1066.536L466.976,1075.104C473.024,1080.984,481.34,1084.176,489.656,1084.176ZM529.3879999999999,1083L544.592,1083L551.396,1052.172C552.3199999999999,1047.384,553.244,1042.596,554.168,1037.892L554.504,1037.892C555.1759999999999,1042.596,556.1,1047.384,557.108,1052.172L564.0799999999999,1083L579.5360000000001,1083L591.044,1020.756L579.284,1020.756L574.328,1051.164C573.404,1057.632,572.48,1064.268,571.556,1070.988L571.136,1070.988C569.7919999999999,1064.268,568.616,1057.548,567.188,1051.164L559.9639999999999,1020.756L549.296,1020.756L542.156,1051.164C540.812,1057.632,539.4680000000001,1064.268,538.2080000000001,1070.988L537.8720000000001,1070.988C536.948,1064.268,535.94,1057.716,534.932,1051.164L530.144,1020.756L517.46,1020.756L529.3879999999999,1083ZM600.3679999999999,1083L639.428,1083L639.428,1072.584L612.8,1072.584L612.8,1055.952L634.556,1055.952L634.556,1045.536L612.8,1045.536L612.8,1031.172L638.504,1031.172L638.504,1020.756L600.3679999999999,1020.756L600.3679999999999,1083ZM664.46,1049.652L664.46,1030.668L672.524,1030.668C680.504,1030.668,684.872,1032.936,684.872,1039.656C684.872,1046.292,680.504,1049.652,672.524,1049.652L664.46,1049.652ZM685.88,1083L699.74,1083L685.208,1057.548C692.348,1054.776,697.052,1048.98,697.052,1039.656C697.052,1025.376,686.72,1020.756,673.616,1020.756L652.028,1020.756L652.028,1083L664.46,1083L664.46,1059.48L673.112,1059.48L685.88,1083Z" fill="#FFFFFF" fill-opacity="1"/></g><g><g transform="matrix(0.928134024143219,-0.37224623560905457,0.37224623560905457,0.928134024143219,-172.16724262299272,118.18521705156354)" clip-path="url(#master_svg0_503_650)"><g><path d="M287.4603,662.5888826293946C265.96569999999997,674.2608826293945,247.4085,676.6808826293945,237.15468,666.4268826293945C226.62667,655.9308826293945,232.235341,628.4278826293945,247.4398,600.8387826293945C255.1639,586.8050826293945,264.7093,573.8540826293945,275.8278,562.3222826293945C277.2927,560.8573826293946,284.6403,553.5175826293945,285.126,553.5175826293945Q281.2093,555.9693826293945,280.7237,555.9693826293945C265.44870000000003,564.5468826293945,252.0302,580.0960826293946,249.1005,583.5818826293945C256.7605,549.4039826293945,288.3413,526.0252326293945,323.2665,528.6780826293946C347.51099999999997,517.6957426293945,370.063,515.1577426293945,379.60400000000004,524.6830726293946C388.416,533.4798826293945,387.923,548.1438826293945,380.58299999999997,565.7453826293945C380.505,565.9098826293946,380.442,566.0822826293945,380.372,566.2467826293945C385.673,576.3429826293946,388.43399999999997,587.5788826293946,388.416,598.9822826293945C388.416,601.9588826293946,388.236,604.8807826293945,387.876,607.7555826293946L381.578,607.7555826293946C381.207,607.7698826293945,380.836,607.7776826293946,380.46500000000003,607.7790826293946L288.0635,607.7790826293946L288.0635,609.2438826293945C288.5492,624.8868826293946,302.2575,638.5718826293945,318.9033,638.5718826293945C330.6533,638.5718826293945,341.90999999999997,632.2188826293946,346.806,622.9288826293946L384.249,622.9288826293946C370.077,662.1838826293945,325.1028,680.6118826293946,287.4603,662.5888826293946ZM282.70550000000003,660.0748826293946C268.2844,651.7418826293945,257.2662,638.5878826293945,251.5915,622.9288826293946C242.497,640.8048826293946,240.15484,655.7508826293945,247.9177,663.5058826293946C254.2862,669.8658826293945,267.0153,668.3938826293945,282.682,660.0898826293945L282.70550000000003,660.0748826293946ZM378.014,562.1028826293946C378.053,562.0140826293946,378.092,561.9252826293946,378.131,561.8365826293946C384.006,549.1308826293945,384.5,538.3835826293945,379.11,532.0228826293945C372.303,525.2235726293945,359.214,526.1479026293945,343.688,533.3388826293946C357.943,538.9571826293945,369.988,549.0510826293945,378.014,562.1028826293946ZM349.743,589.2062826293945L349.743,588.7283826293946C348.764,572.5917826293945,336.03499999999997,560.3717826293945,320.3682,560.3717826293945C303.7224,560.3717826293945,289.5362,573.5708826293945,288.557,588.7283826293946L288.557,589.2140826293945L349.743,589.2140826293945L349.743,589.2062826293945Z" fill="#BC1314" fill-opacity="1"/></g></g><g transform="matrix(0.9850996136665344,0.1719849556684494,-0.1719849556684494,0.9850996136665344,90.93631781294755,-65.61322106187572)" clip-path="url(#master_svg1_503_656)"><g><path d="M507.8477265625,525.1650089721679L477.1985265625,543.630008972168L458.2194265625,573.449108972168L457.6981265625,572.941908972168L450.6047265625,579.838208972168L454.1539265625,583.291208972168L461.2422265625,576.390008972168L460.7259265625,575.887708972168L491.3751265625,557.427508972168L510.3542265625,527.603608972168L510.8755265625,528.110808972168L517.9689265625,521.214508972168L514.4197265625,517.7614089721679L507.3314265625,524.662608972168L507.8527265625,525.169908972168L507.8477265625,525.1650089721679ZM484.2868265625,599.2982089721679C456.6002265625,599.2982089721679,434.1572265625,577.4630089721679,434.1572265625,550.526308972168C434.1572265625,523.589608972168,456.6002265625,501.75450897216797,484.2868265625,501.75450897216797C511.9734265625,501.75450897216797,534.4162265625,523.589608972168,534.4162265625,550.526308972168C534.4162265625,577.4630089721679,511.9734265625,599.2982089721679,484.2868265625,599.2982089721679ZM481.7803265625,506.631688972168L481.7803265625,516.3860089721679L486.7933265625,516.3860089721679L486.7933265625,506.631688972168L481.7803265625,506.631688972168ZM481.7803265625,584.666608972168L481.7803265625,594.421008972168L486.7933265625,594.421008972168L486.7933265625,584.666608972168L481.7803265625,584.666608972168ZM464.7062265625,510.90409897216796L468.5411265625,519.917108972168L473.1731265625,518.0540089721679L469.3382265625,509.041018972168L464.7062265625,510.90409897216796ZM495.4005265625,582.998608972168L499.2354265625,592.011608972168L503.8674265625,590.148608972168L500.0325265625,581.1355089721679L495.4005265625,582.998608972168ZM499.2354265625,509.041018972168L495.4005265625,518.0540089721679L500.0325265625,519.917108972168L503.8674265625,510.90409897216796L499.2354265625,509.041018972168ZM468.5461265625,581.1355089721679L464.7112265625,590.148608972168L469.3432265625,592.011608972168L473.1781265625,582.998608972168L468.5461265625,581.1355089721679ZM529.4034265625,548.087708972168L519.3775265625,548.087708972168L519.3775265625,552.964908972168L529.4034265625,552.964908972168L529.4034265625,548.087708972168ZM449.1961265625,548.087708972168L439.1701865625,548.087708972168L439.1701865625,552.964908972168L449.1961265625,552.964908972168L449.1961265625,548.087708972168ZM526.6864265625,565.718808972168L517.4876265625,561.846308972168L515.4975265625,566.3235089721679L524.6963265625,570.196008972168L526.6864265625,565.718808972168ZM453.0761265625,534.729108972168L443.8823665625,530.8566089721679L441.8922265625,535.3339089721679L451.0910265625,539.206408972168L453.0761265625,534.729108972168L453.0761265625,534.729108972168ZM525.0121265625,531.4761089721679L515.7481265625,535.2071089721679L517.6631265625,539.713608972168L526.9270265625,535.982608972168L525.0121265625,531.4761089721679ZM450.9105265625,561.339008972168L441.6465865625,565.070108972168L443.5615365625,569.576608972168L452.8255265625,565.845608972168L450.9105265625,561.339008972168ZM517.9639265625,579.838208972168L510.8705265625,572.941908972168L507.3264265625,576.390008972168L514.4147265624999,583.2913089721679L517.9639265625,579.838208972168ZM461.2472265625,524.662608972168L454.1589265625,517.7614089721679L450.6097265625,521.214508972168L457.7031265625,528.110808972168L461.2472265625,524.662608972168ZM480.8379265625,547.170808972168L498.9397265625,536.270308972168L487.7357265625,553.8770089721679L480.8379265625,547.170808972168Z" fill="#BC1314" fill-opacity="1"/></g></g><g transform="matrix(-1,0,0,1,1170,0)"><path d="M585,580L630.12,878L915.88,878L961,580L585,580Z" fill="#FFFFFF" fill-opacity="1"/><path d="M924.48,888L972.6279999999999,570L573.3719,570L621.5201,888L924.48,888ZM949.3720000000001,590L907.28,868L638.7199,868L596.6281,590L949.3720000000001,590Z" fill-rule="evenodd" fill="#FFFFFF" fill-opacity="1"/></g><g><g transform="matrix(-1,0,0,1,1050,0)"><path d="M752.2909999999999,888L784.048,570L513.9516,570L545.7089,888L752.2909999999999,888ZM761.952,590L734.189,868L563.8111,868L536.0484,590L761.952,590Z" fill-rule="evenodd" fill="#000000" fill-opacity="1"/></g><g><line x1="299.3199996948242" y1="823.3000030517578" x2="505.16002655029297" y2="823.3000030517578" fill-opacity="0" stroke-opacity="1" stroke="#000000" fill="none" stroke-width="20"/></g><g><path d="M451.00991998291016,712.26568359375L461.13491998291016,729.82778359375C467.52991998291014,740.91338359375,463.73391998291015,755.09168359375,452.6699199829102,761.48868359375C449.14491998291015,763.52168359375,445.15691998291015,764.59468359375,441.09691998291015,764.59468359375L427.4532199829101,764.59468359375L427.4532199829101,777.83868359375L394.38651998291016,754.66068359375L427.4532199829101,731.48338359375L427.4532199829101,744.72778359375L441.08991998291015,744.72778359375C441.67191998291014,744.72778359375,442.24091998291016,744.57548359375,442.74291998291017,744.28408359375C444.15191998291016,743.46958359375,444.73391998291015,741.78088359375,444.20491998291016,740.3041835937499L443.9539199829102,739.76108359375L433.82851998291017,722.19898359375L451.00991998291016,712.26568359375ZM372.80721998291017,694.29298359375L376.31231998291014,734.55608359375L364.87121998291013,727.93378359375L358.0463199829102,739.76108359375C357.7553199829102,740.26438359375,357.60321998291016,740.83388359375,357.60321998291016,741.41668359375C357.60321998291016,743.03908359375,358.77381998291014,744.39668359375,360.31471998291016,744.67478359375L360.90991998291014,744.72778359375L381.15991998291014,744.72778359375L381.15991998291014,764.59468359375L360.90991998291014,764.59468359375C348.12631998291016,764.59468359375,337.76320998291015,754.21768359375,337.76320998291015,741.41668359375C337.76320998291015,737.35058359375,338.8345699829102,733.35078359375,340.86486998291014,729.82778359375L347.68321998291015,718.00048359375L336.22891998291016,711.37828359375L372.80721998291017,694.29298359375L372.80721998291017,694.29298359375ZM412.57321998291013,651.81137359375C416.09151998291014,653.84440359375,419.0146199829102,656.77142359375,421.0449199829102,660.29448359375L427.85661998291016,672.12178359375L439.31791998291015,665.49948359375L435.81251998291015,705.76258359375L399.22751998291017,688.67728359375L410.68181998291016,682.0550835937499L403.86351998291013,670.22778359375C403.57251998291014,669.72448359375,403.15581998291015,669.30068359375,402.6532199829102,669.01588359375C401.24461998291014,668.20138359375,399.49201998291016,668.53908359375,398.48021998291017,669.74438359375L398.13631998291015,670.22778359375L388.01791998291014,687.78988359375L370.82991998291016,677.85658359375L380.94831998291016,660.29448359375C387.3434199829102,649.20884759375,401.50251998291014,645.40769359375,412.57321998291013,651.81137359375Z" fill="#BC1314" fill-opacity="1"/></g></g></g><g><g><path d="M619,378L646.5,498.5L672.5,498.5L672.5,378L619,378Z" fill="#000000" fill-opacity="1"/></g><g><ellipse cx="668" cy="537.5" rx="19.5" ry="19.5" fill="#000000" fill-opacity="1"/></g></g><g><g><g><path d="M153.71030381469726,356.17488C152.96740381469726,354.31183,151.14460381469726,353,148.99780381469725,353C146.85540381469727,353,145.03260381469727,354.31183,144.28970381469728,356.17488C124.44190381469727,358.48233,109.00000381469727,375.2114,109.00000381469727,395.4443C109.00000381469727,417.2497,126.93860381469727,435,148.99780381469725,435C171.06140381469726,435,189.00000381469727,417.2625,189.00000381469727,395.4443C189.00000381469727,375.613,174.0246038146973,358.75581,154.16390381469728,356.21761C154.01700381469726,356.20052,153.85720381469727,356.1877,153.71030381469726,356.17488ZM184.65340381469727,395.4278C184.65340381469727,377.7458,171.29770381469726,362.70467,153.59240381469726,360.43995C153.53630381469725,360.42713,153.47580381469726,360.42713,153.41960381469727,360.42713C152.83650381469727,361.4783,151.88610381469726,362.30296,150.71990381469726,362.72177L150.71990381469726,376.5665C160.49050381469726,377.4424,168.16180381469727,385.5484,168.16180381469727,395.4448C168.16180381469727,405.9137,159.55750381469727,414.4086,148.98350381469726,414.4086C138.41380381469727,414.4086,129.82250381469726,405.9137,129.82250381469726,395.4448C129.82250381469726,385.5484,137.49380381469726,377.4296,147.26430381469726,376.5665L147.26430381469726,362.72177C146.11100381469726,362.31582,145.14790381469726,361.4954,144.56470381469728,360.43995C126.98030381469727,362.60639,113.31802381469727,377.4723,113.33095381469727,395.4406C113.33095381469727,414.8957,129.32580381469728,430.7188,149.00080381469726,430.7188L148.98350381469726,430.7017C168.65850381469727,430.7017,184.65340381469727,414.8829,184.65340381469727,395.4278Z" fill-rule="evenodd" fill="#BC1314" fill-opacity="1"/></g><g><path d="M153.21439844055175,365.9345807127564L152.61399844055177,370.16063151275637C165.27419844055174,371.92113151275635,174.81149844055176,382.7789615127563,174.81149844055176,395.42726151275633C174.81149844055176,409.50266151275633,163.23109844055176,420.9544615127563,148.99859844055175,420.9544615127563C134.76609844055176,420.9544615127563,123.19007844055176,409.50266151275633,123.19007844055176,395.42726151275633C123.19007844055176,382.76616151275636,132.74029844055175,371.8912215127564,145.39619844055176,370.14782151275637L144.80009844055175,365.92176151275635C130.01479844055177,367.95574151275633,118.85769844055176,380.64676151275637,118.85769844055176,395.42726151275633C118.85769844055176,411.85286151275636,132.37749844055176,425.2232615127563,148.98569844055174,425.2232615127563C165.59379844055175,425.2232615127563,179.11359844055175,411.85286151275636,179.11359844055175,395.42726151275633C179.11359844055175,380.65956151275634,167.96949844055177,367.96856151275637,153.20139844055177,365.92176151275635L153.21439844055175,365.9345807127564Z" fill-rule="evenodd" fill="#BC1314" fill-opacity="1"/></g></g><g><g transform="matrix(0.7071067690849304,0.7071067690849304,-0.7071067690849304,0.7071067690849304,269.1407284527647,32.035865946679394)"><path d="M95.89966106414795,335.89953231811523L247.39966106414795,335.89953231811523Q247.52266106414794,335.89953231811523,247.64466106414795,335.9055523181152Q247.76766106414794,335.9115823181152,247.88966106414796,335.92361231811526Q248.01166106414794,335.93564231811524,248.13366106414796,335.95365231811525Q248.25466106414794,335.97166231811525,248.37466106414794,335.99560231811523Q248.49566106414795,336.01955231811525,248.61466106414795,336.0493723181152Q248.73366106414795,336.0792023181152,248.85066106414794,336.11483231811525Q248.96866106414794,336.1504623181152,249.08366106414795,336.19181231811524Q249.19966106414796,336.23316231811526,249.31266106414796,336.28013231811525Q249.42666106414794,336.32710231811524,249.53766106414795,336.37958231811524Q249.64866106414794,336.43206231811524,249.75666106414795,336.48992231811525Q249.86466106414795,336.54778231811525,249.96966106414794,336.61089231811525Q250.07566106414794,336.6739923181152,250.17766106414794,336.7421823181152Q250.27966106414794,336.81037231811524,250.37766106414796,336.88349231811526Q250.47666106414795,336.9566123181152,250.57166106414795,337.03448231811524Q250.66666106414795,337.11235231811526,250.75766106414795,337.1947723181152Q250.84866106414796,337.27720231811526,250.93566106414795,337.36400231811524Q251.02166106414796,337.45079231811525,251.10466106414796,337.5417423181152Q251.18666106414796,337.63268231811526,251.26466106414796,337.72756231811525Q251.34266106414796,337.8224523181152,251.41566106414794,337.92103231811524Q251.48866106414795,338.01962231811524,251.55666106414796,338.12168231811523Q251.62566106414795,338.2237423181152,251.68866106414794,338.3290223181152Q251.75166106414795,338.4343023181152,251.80966106414795,338.5425523181152Q251.86666106414796,338.6508023181152,251.91966106414796,338.7617523181152Q251.97166106414795,338.87271231811525,252.01866106414795,338.98611231811526Q252.06566106414795,339.0995123181152,252.10766106414795,339.2150823181152Q252.14866106414794,339.33065231811526,252.18466106414795,339.44811231811525Q252.21966106414794,339.5655623181152,252.24966106414794,339.68463231811523Q252.27966106414794,339.8036923181152,252.30366106414795,339.9240813181152Q252.32766106414795,340.0444653181152,252.34566106414795,340.1658803181152Q252.36366106414795,340.28729431811524,252.37566106414795,340.4094463181152Q252.38766106414795,340.53159831811524,252.39366106414795,340.65419431811523Q252.39966106414795,340.7767893181152,252.39966106414795,340.89953231811523Q252.39966106414795,341.02227531811525,252.39366106414795,341.14487031811524Q252.38766106414795,341.2674663181152,252.37566106414795,341.38961831811525Q252.36366106414795,341.5117703181152,252.34566106414795,341.63318431811524Q252.32766106414795,341.75459931811525,252.30366106414795,341.87498331811526Q252.27966106414794,341.99537231811524,252.24966106414794,342.11443231811523Q252.21966106414794,342.23350231811526,252.18466106414795,342.3509523181152Q252.14866106414794,342.4684123181152,252.10766106414795,342.58398231811526Q252.06566106414795,342.69955231811525,252.01866106414795,342.8129523181152Q251.97166106414795,342.9263523181152,251.91966106414796,343.03731231811526Q251.86666106414796,343.14826231811526,251.80966106414795,343.25651231811526Q251.75166106414795,343.36476231811525,251.68866106414794,343.47004231811525Q251.62566106414795,343.57532231811524,251.55666106414796,343.67738231811524Q251.48866106414795,343.77944231811523,251.41566106414794,343.87803231811523Q251.34266106414796,343.97661231811526,251.26466106414796,344.0715023181152Q251.18666106414796,344.1663823181152,251.10466106414796,344.25732231811526Q251.02166106414796,344.3482723181152,250.93566106414795,344.43506231811523Q250.84866106414796,344.5218623181152,250.75766106414795,344.60429231811526Q250.66666106414795,344.6867123181152,250.57166106414795,344.76458231811523Q250.47666106414795,344.84245231811525,250.37766106414796,344.9155723181152Q250.27966106414794,344.9886923181152,250.17766106414794,345.05688231811524Q250.07566106414794,345.12507231811526,249.96966106414794,345.1881723181152Q249.86466106414795,345.2512823181152,249.75666106414795,345.3091423181152Q249.64866106414794,345.3670023181152,249.53766106414795,345.41948231811523Q249.42666106414794,345.47196231811523,249.31266106414796,345.5189323181152Q249.19966106414796,345.5659023181152,249.08366106414795,345.60725231811523Q248.96866106414794,345.64860231811525,248.85066106414794,345.6842323181152Q248.73366106414795,345.71986231811525,248.61466106414795,345.74969231811525Q248.49566106414795,345.7795123181152,248.37466106414794,345.80346231811524Q248.25466106414794,345.8274023181152,248.13366106414796,345.8454123181152Q248.01166106414794,345.8634223181152,247.88966106414796,345.8754523181152Q247.76766106414794,345.88748231811525,247.64466106414795,345.89351231811526Q247.52266106414794,345.89953231811523,247.39966106414795,345.89953231811523L95.89966106414795,345.89953231811523Q95.77691806414795,345.89953231811523,95.65432306414795,345.89351231811526Q95.53172706414794,345.88748231811525,95.40957506414794,345.8754523181152Q95.28742306414794,345.8634223181152,95.16600906414794,345.8454123181152Q95.04459406414794,345.8274023181152,94.92421006414794,345.80346231811524Q94.80382106414795,345.7795123181152,94.68476106414795,345.74969231811525Q94.56569106414796,345.71986231811525,94.44824106414795,345.6842323181152Q94.33078106414794,345.64860231811525,94.21521106414795,345.60725231811523Q94.09964106414795,345.5659023181152,93.98624106414795,345.5189323181152Q93.87284106414795,345.47196231811523,93.76188106414794,345.41948231811523Q93.65093106414795,345.3670023181152,93.54268106414796,345.3091423181152Q93.43443106414794,345.2512823181152,93.32915106414795,345.1881723181152Q93.22387106414794,345.12507231811526,93.12181106414795,345.05688231811524Q93.01975106414795,344.9886923181152,92.92116106414795,344.9155723181152Q92.82258106414795,344.84245231811525,92.72769106414795,344.76458231811523Q92.63281106414794,344.6867123181152,92.54187106414795,344.60429231811526Q92.45092106414795,344.5218623181152,92.36413106414795,344.43506231811523Q92.27733106414794,344.3482723181152,92.19490106414796,344.25732231811526Q92.11248106414794,344.1663823181152,92.03461106414795,344.0715023181152Q91.95674106414795,343.97661231811526,91.88362106414795,343.87803231811523Q91.81050106414796,343.77944231811523,91.74231106414796,343.67738231811524Q91.67412106414795,343.57532231811524,91.61102106414795,343.47004231811525Q91.54791106414795,343.36476231811525,91.49005106414795,343.25651231811526Q91.43219106414794,343.14826231811526,91.37971106414795,343.03731231811526Q91.32723106414795,342.9263523181152,91.28026106414795,342.8129523181152Q91.23329106414795,342.69955231811525,91.19194106414795,342.58398231811526Q91.15059106414795,342.4684123181152,91.11496106414795,342.3509523181152Q91.07933106414795,342.23350231811526,91.04950106414795,342.11443231811523Q91.01968106414795,341.99537231811524,90.99573106414795,341.87498331811526Q90.97179106414795,341.75459931811525,90.95378106414795,341.63318431811524Q90.93577106414794,341.5117703181152,90.92374106414795,341.38961831811525Q90.91171106414795,341.2674663181152,90.90568106414796,341.14487031811524Q90.89966106414795,341.02227531811525,90.89966106414795,340.89953231811523Q90.89966106414795,340.7767893181152,90.90568106414796,340.65419431811523Q90.91171106414795,340.53159831811524,90.92374106414795,340.4094463181152Q90.93577106414794,340.28729431811524,90.95378106414795,340.1658803181152Q90.97179106414795,340.0444653181152,90.99573106414795,339.9240813181152Q91.01968106414795,339.8036923181152,91.04950106414795,339.68463231811523Q91.07933106414795,339.5655623181152,91.11496106414795,339.44811231811525Q91.15059106414795,339.33065231811526,91.19194106414795,339.2150823181152Q91.23329106414795,339.0995123181152,91.28026106414795,338.98611231811526Q91.32723106414795,338.87271231811525,91.37971106414795,338.7617523181152Q91.43219106414794,338.6508023181152,91.49005106414795,338.5425523181152Q91.54791106414795,338.4343023181152,91.61102106414795,338.3290223181152Q91.67412106414795,338.2237423181152,91.74231106414796,338.12168231811523Q91.81050106414796,338.01962231811524,91.88362106414795,337.92103231811524Q91.95674106414795,337.8224523181152,92.03461106414795,337.72756231811525Q92.11248106414794,337.63268231811526,92.19490106414796,337.5417423181152Q92.27733106414794,337.45079231811525,92.36413106414795,337.36400231811524Q92.45092106414795,337.27720231811526,92.54187106414795,337.1947723181152Q92.63281106414794,337.11235231811526,92.72769106414795,337.03448231811524Q92.82258106414795,336.9566123181152,92.92116106414795,336.88349231811526Q93.01975106414795,336.81037231811524,93.12181106414795,336.7421823181152Q93.22387106414794,336.6739923181152,93.32915106414795,336.61089231811525Q93.43443106414794,336.54778231811525,93.54268106414796,336.48992231811525Q93.65093106414795,336.43206231811524,93.76188106414794,336.37958231811524Q93.87284106414795,336.32710231811524,93.98624106414795,336.28013231811525Q94.09964106414795,336.23316231811526,94.21521106414795,336.19181231811524Q94.33078106414794,336.1504623181152,94.44824106414795,336.11483231811525Q94.56569106414796,336.0792023181152,94.68476106414795,336.0493723181152Q94.80382106414795,336.01955231811525,94.92421006414794,335.99560231811523Q95.04459406414794,335.97166231811525,95.16600906414794,335.95365231811525Q95.28742306414794,335.93564231811524,95.40957506414794,335.92361231811526Q95.53172706414794,335.9115823181152,95.65432306414795,335.9055523181152Q95.77691806414795,335.89953231811523,95.89966106414795,335.89953231811523Z" fill-rule="evenodd" fill="#BC1314" fill-opacity="1"/></g><g><path d="M87.41448286102295,339.48518L86.00012207002295,340.89954L87.41435286102295,342.3138L90.94991286102295,345.84929999999997L203.02600286102296,457.926L204.44100286102295,456.51099999999997L203.02600286102296,455.097L92.36424286102294,344.4349L87.41448286102295,339.48518ZM95.89943286102294,333.82866L94.48521286102294,332.41444L95.89966286102295,331L100.84940286102295,335.94979L212.92600286102294,448.026L211.51100286102294,449.44100000000003L210.09700286102293,448.026L210.09700286102293,448.026L99.43520286102294,337.364L97.31390286102295,335.24265L95.89965286102294,333.82843L95.89943286102294,333.82866Z" fill-rule="evenodd" fill="#FFFFFF" fill-opacity="1"/></g></g><g><path d="M89.00000286102295,334L208.00000286102295,334L208.00000286102295,453L89.00000286102295,453L89.00000286102295,334ZM94.00000286102295,339L94.00000286102295,448L203.00000286102295,448L203.00000286102295,339L94.00000286102295,339Z" fill-rule="evenodd" fill="#BC1314" fill-opacity="1"/></g></g><g><g><path d="M774.5835,66.00970000000001L774.7727,67.50139999999999C774.923,68.9803,775,70.4813,775,72C775,81.87219999999999,771.7488,90.985,766.2589,98.326L766.2572,98.3276L763.9545,94.339L764.3833,93.7139C768.1043,88.0042,770.4005999999999,81.2813,770.7672,74.04910000000001L770.8053,72.55199999999999L774.5835,66.00970000000001ZM766.1077,54.6201L771.1249,63.3101L756.0734,89.37989999999999L751.0567,80.6899L766.1077,54.6201ZM751.0567,54.6201L756.0739,63.3101L741.0224,89.37989999999999L736.0053,80.6899L751.0567,54.6201ZM741.0461,45.9306L746.0633,54.6201L725.9947,89.37989999999999L741.0224,89.37989999999999L756.0734,89.37989999999999Q756.0739,89.37989999999999,756.0739,89.37989999999999L761.0906,98.0694L720.9776,98.0694L715.9604,89.37989999999999L736.029,54.6201L731.0118,54.6201L710.9433,89.37989999999999L705.9266,80.6899L720.9776,54.6201L705.9266,54.6201L700.9094,45.9306L741.0461,45.9306ZM695.74285,45.672L698.0413,49.6525L697.9816,49.7367C693.68783,56.091899999999995,691.18074,63.7532,691.18074,72C691.18074,93.9915,709.0085,111.8193,731,111.8193C740.3207,111.8193,748.8933,108.6167,755.6777,103.2521L756.6893,102.4136L762.7795,102.4136L762.1128,103.1128C754.1501,111.0751,743.1503,116,731,116C706.6995,116,687,96.3005,687,72C687,62.1278,690.25122,53.015,695.74115,45.674099999999996L695.74285,45.672ZM731,28C744.669,28,756.8823,34.23323,764.9526,44.0119L766.2563,45.671099999999996L763.9587,49.6525L762.9086,48.1757C755.6468,38.466,744.0574,32.18074,731,32.18074C721.3788,32.18074,712.5543,35.59322,705.6713,41.2737L705.3115,41.5856L699.2218,41.5856L699.8872,40.8872C707.85,32.92487,718.8497,28,731,28Z" fill-rule="evenodd" fill="#FFFFFF" fill-opacity="1"/></g></g><g><path d="M581.6404,905.9224Q608.373,907.2979,612.4858,910.476Q621.4412,917.3961,640.9628,921.2018Q657.828,924.4897,678.26,924.7893Q697.581,925.0728,711.078,922.6459Q727.014,919.7804,727.014,913.4977Q727.014,907.2629,715.722,904.8033Q710.025,903.5624,695.6949999999999,902.5018Q678.719,901.2454,676.359,899.9691Q677.708,899.2872,680.735,898.6933Q684.905,897.8756,696.58,896.8051Q710.645,895.5156,715.681,894.3352Q720.144,893.2888,722.1,891.6924Q725.528,888.8953,723.117,885.14595Q719.233,879.10321,689.341,876.79733Q662.923,874.75947,627.8766,875.86113Q592.061,876.98696,568.3957,880.78031Q539.6316,885.39098,540.52871,893.764Q541.29544,900.9203,555.2993,903.5526Q562.7293999999999,904.9493,581.6404,905.9224ZM641.9195,916.2942Q623.561,912.7153,615.543,906.5196Q611.8445,903.6616,601.6771,902.3802Q595.8645,901.6477,581.8974,900.929Q563.3224,899.9732,556.223,898.6387Q545.87112,896.6929,545.50025,893.2313Q545.37596,892.0714,550.65603,890.0696Q556.9709,887.67545,569.1871,885.71729Q592.5371,881.97446,628.0337,880.85866Q662.809,879.76553,688.956,881.78251Q716.35,883.89568,718.908,887.84377Q717.83,888.6958,714.539,889.4671Q709.842,890.5682,696.124,891.826Q684.193,892.9199,679.773,893.7868Q670.268,895.6509,671.047,900.4022Q671.708,904.43,680.093,905.9264000000001Q684.252,906.6686,695.326,907.4882Q722.014,909.4634,722.014,913.4977Q722.014,914.0037,719.6990000000001,915.0816Q716.431,916.6033,710.193,917.7248Q697.172,920.0662,678.333,919.7899Q658.347,919.4967,641.9195,916.2942Z" fill-rule="evenodd" fill="#BC1314" fill-opacity="1"/></g><g><ellipse cx="159.5" cy="906" rx="46" ry="8.5" fill-opacity="0" stroke-opacity="1" stroke="#BC1314" fill="none" stroke-width="5"/></g><g><g><g><g><path d="M102.3631,31L119,66.6626L119,105L25,105L25,66.6626L41.6375,31L102.3631,31ZM111.7915,97.8124L111.7915,73.8503L32.20906,73.8503L32.20906,97.8124L111.7915,97.8124ZM105.3672,46.282L105.3656,46.2799C103.4391,42.4347,98.7703,39.02953,92.7347,36.6308C92.3278,36.46896,92.0289,36.35642,91.9671,36.33337C86.7613,34.37409,80.08330000000001,32.955,72.4448,32.90141L72.4416,32.90141C72.1486,32.90034,72.0352,32.90034,71.99969999999999,32.90034C71.85249999999999,32.90034,71.5955,32.90141,71.5601,32.90141L71.55680000000001,32.90141C63.9092,32.955,57.2328,34.37569,52.0308,36.33444C51.6335,36.48289,51.3234,36.60722,51.262699999999995,36.63187C45.2291,39.03007,40.5603,42.4352,38.6355,46.2772L38.6344,46.2793C38.5511,46.4508,38.5205,46.5157,38.5113,46.536C38.5017,46.5564,38.4705,46.6228,38.3958,46.7916L38.3947,46.7933C36.4935,51.1936,38.5248,55.3898,43.8816,58.6572C43.9418,58.6947,44.2444,58.8812,44.6486,59.1074C50.9133,62.6272,60.7045,64.675,71.30850000000001,64.7607L71.31389999999999,64.7607C71.36869999999999,64.7607,71.7713,64.7628,71.99969999999999,64.7628C72.2303,64.7628,72.6238,64.7607,72.6781,64.7607L72.6834,64.7607C83.2906,64.675,93.0819,62.6288,99.3487,59.1074C99.7454,58.887699999999995,100.0577,58.6947,100.1179,58.6572C105.4747,55.3898,107.5059,51.1936,105.6064,46.7954L105.6053,46.792699999999996C105.5962,46.7724,105.5284,46.622299999999996,105.4887,46.536C105.479,46.5157,105.4489,46.4513,105.3672,46.282ZM49.1981,58.1004C50.486999999999995,57.5441,51.760400000000004,56.989999999999995,52.9859,56.453C57.3129,58.4739,63.2717,59.7237,69.7755,59.9568L69.711,62.4204C61.6973,62.172799999999995,54.3619,60.6288,49.1981,58.1004ZM97.4255,56.6042C95.7565,55.8968,94.4165,55.3228,93.6473,54.9927C96.8837,52.848,98.3973,50.2134,97.8356,47.4251L102.0352,47.4251C102.9839,50.7986,101.3192,54.002300000000005,97.4255,56.6042ZM74.297,62.419799999999995L74.2325,59.9563C80.7359,59.7226,86.6925,58.472899999999996,91.0189,56.4503C92.6707,57.1738,94.0295,57.762299999999996,94.8068,58.0977C89.6429,60.628299999999996,82.307,62.1717,74.297,62.419799999999995ZM58.0304,47.428799999999995L62.2757,47.428799999999995C62.4358,48.0012,62.8497,48.605199999999996,63.5883,49.17C62.1359,49.826,60.9421,50.3592,60.289,50.6507C58.905,49.689800000000005,58.1385,48.5768,58.0304,47.428799999999995ZM83.7147,50.6475C82.24199999999999,49.991,81.0578,49.457300000000004,80.4058,49.1625C81.1385,48.600300000000004,81.5507,47.9974,81.7098,47.4251L85.969,47.4251C85.8621,48.5741,85.0972,49.687200000000004,83.7147,50.6475ZM56.7474,40.317859999999996C57.838,40.87306,58.733,41.3243,59.1957,41.5569C56.9533,42.7043,55.348299999999995,44.126,54.626400000000004,45.6603L50.517700000000005,45.6603C51.5045,43.6276,53.7207,41.7712,56.7474,40.317859999999996ZM56.3083,54.9889C57.508,54.4568,58.6953,53.9267,59.8391,53.411699999999996C62.5428,54.535,66.0415,55.2713,69.89269999999999,55.4696L69.832,57.788C64.6165,57.5693,59.8601,56.5677,56.3083,54.9889ZM70.2786,40.42076L70.2319,42.2021C68.9773,42.314099999999996,67.8152,42.5456,66.8187,42.849000000000004C65.6238,42.2766,64.6611,41.8104,64.1591,41.567099999999996C65.906,40.98024,67.98830000000001,40.5617,70.2786,40.42076ZM41.9627,47.428799999999995L46.1633,47.428799999999995C45.6027,50.2177,47.1195,52.8517,50.3564,54.9959C48.709,55.7033,47.353899999999996,56.2789,46.5788,56.6074C42.6824,54.0055,41.0156,50.8013,41.9627,47.428799999999995ZM62.939,52.009299999999996C64.05799999999999,51.4996,65.1728,50.9884,66.2425,50.4942C67.2955,50.842600000000004,68.5763,51.1148,70.0029,51.247699999999995L69.9459,53.43C67.282,53.256299999999996,64.8692,52.7483,62.939,52.009299999999996ZM70.4404,34.25512L70.40010000000001,35.78139C65.3852,35.94269,60.897,36.85428,57.2392,38.15546C56.205600000000004,37.63724,55.3698,37.21441,54.963899999999995,37.00862C59.2393,35.49253,64.51169999999999,34.41642,70.4404,34.25512ZM90.3315,53.560199999999995C88.77590000000001,52.8839,87.5262,52.334599999999995,86.8092,52.0189C88.79849999999999,50.6834,89.8407,49.0907,89.8052,47.4251L94.0161,47.4251C94.2897,49.6673,92.9878,51.8003,90.3315,53.560199999999995ZM70.3625,37.219229999999996L70.3195,38.867689999999996C67.1396,39.01935,64.2456,39.59813,61.8397,40.4363C60.7373,39.89556,59.8477,39.45504,59.3849,39.22568C62.4611,38.1351,66.20750000000001,37.3784,70.3625,37.219229999999996ZM74.17609999999999,57.787400000000005L74.1154,55.4691C77.96719999999999,55.2703,81.4647,54.5329,84.1662,53.4096C85.3106,53.924099999999996,86.4974,54.4546,87.6971,54.9862C84.148,56.5656,79.39320000000001,57.5677,74.17609999999999,57.787400000000005ZM79.83500000000001,41.5649C78.6476,42.141,77.6731,42.6083,77.1695,42.8495C76.1708,42.5456,75.0098,42.3147,73.7606,42.2021L73.71379999999999,40.42022C76.0106,40.56116,78.0929,40.98024,79.83500000000001,41.5649ZM85.6288,45.6571L81.4701,45.6571C81.1734,45.1185,80.6386,44.551500000000004,79.821,44.028C81.01859999999999,43.4401,81.9829,42.9615,82.4854,42.7118C84.062,43.584199999999996,85.1241,44.6078,85.6288,45.6571ZM101.3041,45.6571L97.2067,45.6571C95.935,43.17,93.1222,40.9304,89.3881,39.21871C90.4191,38.68762,91.2517,38.25461,91.6559,38.044C96.1984,40.038650000000004,99.6841,42.6935,101.3041,45.6571ZM89.0301,37.00701C88.0024,37.52791,87.16069999999999,37.95021,86.75489999999999,38.15386C83.0961,36.85213,78.6084,35.94162,73.5929,35.78085L73.5531,34.25512C79.49369999999999,34.41696,84.76339999999999,35.49414,89.0301,37.00701ZM93.4802,45.6571L89.3715,45.6571C88.648,44.1228,87.0424,42.701,84.79939999999999,41.5542C85.89920000000001,41.0011,86.7855,40.55044,87.24719999999999,40.31518C90.275,41.7691,92.4922,43.6244,93.4802,45.6571ZM52.3382,38.04614C53.3622,38.57991,54.2018,39.01292,54.606,39.22085C50.873000000000005,40.933080000000004,48.0613,43.1732,46.7911,45.6603L42.693200000000004,45.6603C44.313199999999995,42.6957,47.7973,40.04079,52.3382,38.04614ZM74.0616,53.4294L74.00460000000001,51.245599999999996C75.4285,51.1111,76.7062,50.8378,77.7564,50.4894C78.82820000000001,50.9841,79.9452,51.4964,81.0664,52.0066C79.1346,52.746700000000004,76.72120000000001,53.2553,74.0616,53.4294ZM61.5097,42.7139C62.6922,43.3023,63.6635,43.7804,64.16550000000001,44.0269C63.3469,44.5505,62.81,45.1191,62.5127,45.6603L58.3696,45.6603C58.8743,44.6094,59.9354,43.5858,61.5097,42.7139ZM84.6091,39.22353C83.51480000000001,39.76641,82.6182,40.20693,82.1543,40.43415C79.74680000000001,39.59653,76.8524,39.01882,73.67349999999999,38.867689999999996L73.6305,37.219229999999996C77.78710000000001,37.37786,81.533,38.13349,84.6091,39.22353ZM76.6599,48.4213C76.6132,48.4476,76.3751,48.5821,76.0493,48.7188C75.11670000000001,49.1121,73.8595,49.3881,72.4416,49.4358L72.43299999999999,49.4364C72.39750000000001,49.4374,72.23140000000001,49.4439,71.9922,49.4439C71.9562,49.4439,71.77879999999999,49.4439,71.54390000000001,49.4358L71.5423,49.4358C70.12440000000001,49.3881,68.8661,49.1121,67.93719999999999,48.7198L67.9362,48.719300000000004C67.6088,48.5816,67.3712,48.4476,67.3245,48.4213C66.4564,47.927800000000005,66.013,47.3297,65.97370000000001,46.7397L65.97370000000001,46.7359C65.9721,46.7198,65.9651,46.6443,65.9743,46.536C65.9753,46.5199,65.98230000000001,46.4396,66.0076,46.3334C66.142,45.7584,66.6628,45.1807,67.5594,44.7139C67.60669999999999,44.6893,67.848,44.5644,68.17,44.4374L68.1711,44.4369C69.0784,44.0773,70.26089999999999,43.825900000000004,71.5762,43.7831C71.79599999999999,43.7755,71.9594,43.7755,71.9927,43.7755C72.2137,43.7755,72.3609,43.7809,72.39320000000001,43.7825L72.4007,43.7825C73.7278,43.825900000000004,74.9082,44.0783,75.8134,44.4369L75.8144,44.4369C76.13640000000001,44.563900000000004,76.3788,44.6893,76.4256,44.7139C77.3221,45.1807,77.843,45.7584,77.9768,46.3329C78.0021,46.4385,78.00909999999999,46.5199,78.0102,46.536C78.0193,46.6453,78.0128,46.7166,78.0112,46.7322L78.0112,46.7359C77.97200000000001,47.3281,77.5296,47.9267,76.6599,48.4213ZM49.9829,47.428799999999995L54.194199999999995,47.428799999999995C54.160399999999996,49.0944,55.2042,50.687200000000004,57.1946,52.022099999999995C55.6579,52.699,54.3953,53.2488,53.6723,53.5634C51.0143,51.8029,49.7114,49.6706,49.9829,47.428799999999995Z" fill-rule="evenodd" fill="#FFFFFF" fill-opacity="1"/></g></g><g><g><path d="M72.29917907714844,92.39386749267578L72.29917907714844,79.26886749267578L85.46327907714844,79.26886749267578L85.46327907714844,92.39386749267578L72.29917907714844,92.39386749267578ZM92.04507907714844,92.39386749267578L92.04507907714844,79.26886749267578L105.20917907714843,79.26886749267578L105.20917907714843,92.39386749267578L92.04507907714844,92.39386749267578Z" fill-rule="evenodd" fill="#FFFFFF" fill-opacity="1"/></g></g></g></g></g></svg>