<svg xmlns="http://www.w3.org/2000/svg" xmlns:xlink="http://www.w3.org/1999/xlink" fill="none" version="1.1" width="208"
    height="78" viewBox="0 0 208 78">
    <g>
        <g>
            <g style="opacity:0.5;">
                <path d="M34,0L45,0L45,58L34,58L34,0Z" fill="#000000" fill-opacity="0.05000000074505806" />
            </g>
            <g style="opacity:0.5;">
                <path
                    d="M11.3156,78L0,78L20.3263,67.5929L23.1552,67.5929L23.7838,66.7434L24.5172,66.7434L23.1552,63.34513L55.8448,63.34513L54.4828,66.7434L55.2162,66.7434L55.8448,67.5929L58.6737,67.5929L79,78L67.6843,78L64.7507,76.0885L57.212,71.3865C56.7984,71.1284,56.3199,70.9974,55.8343,71.0091L54.6893,71.0367C53.8842,71.0562,53.5667,72.10300000000001,54.222,72.5774L61.7122,78L50.1208,78C48.619,74.4562,44.6896,72.1593,40.1286,72.1593C35.5677,72.1593,31.6383,74.4562,30.1365,78L17.2878,78L24.778,72.5774C25.4332,72.10300000000001,25.1158,71.0562,24.3107,71.0367L23.1657,71.0091C22.6801,70.9974,22.2016,71.1284,21.788,71.3865L14.2493,76.0885L11.3156,78ZM52.4759,62.28319L50.6061,60.58407L28.3939,60.58407L26.5241,62.28319L52.4759,62.28319ZM30.4894,59.52212L48.5106,59.52212L48.5106,57.07965Q47.9081,56.44248,47.4629,55.69912Q47.0176,54.955752,46.7294,54.106195L44.5292,54.106195L44.5292,54.530973L43.1671,54.530973L43.1671,54L39.9191,54L39.9191,54.530973L39.0809,54.530973L39.0809,54L35.8329,54L35.8329,54.530973L34.4708,54.530973L34.4708,54.106195L32.2706,54.106195Q31.9824,54.955752,31.5371,55.69912Q31.0918,56.44248,30.4894,57.07965L30.4894,59.52212Z"
                    fill-rule="evenodd" fill="#DADBDD" fill-opacity="1" />
            </g>
        </g>
        <g>
            <g style="opacity:0.30000001192092896;">
                <path d="M178,0L186,0L186,65L178,65L178,0Z" fill="#000000" fill-opacity="0.05000000074505806" />
            </g>
            <g style="opacity:0.30000001192092896;">
                <path
                    d="M163.44828,78L156,78L169.3793,71.06195L171.2414,71.06195L171.6552,70.49557L172.1379,70.49557L171.2414,68.23009L192.7586,68.23009L191.8621,70.49557L192.3448,70.49557L192.7586,71.06195L194.6207,71.06195L208,78L200.55169999999998,78L198.6207,76.7257L193.6586,73.591C193.3863,73.419,193.0713,73.3316,192.7517,73.3394L191.998,73.3578C191.4681,73.3708,191.2591,74.0686,191.6905,74.3849L196.6207,78L188.9909,78C188.0024,75.6375,185.4159,74.1062,182.4138,74.1062C179.4117,74.1062,176.8252,75.6375,175.8367,78L167.3793,78L172.3095,74.3849C172.7409,74.0686,172.5319,73.3708,172.002,73.3578L171.2483,73.3394C170.9287,73.3316,170.6137,73.419,170.3414,73.591L165.37931,76.7257L163.44828,78ZM190.5411,67.52212L189.31029999999998,66.38938L174.6897,66.38938L173.4589,67.52212L190.5411,67.52212ZM176.069,65.68142L187.931,65.68142L187.931,64.0531Q187.5345,63.62832,187.2414,63.13274Q186.9483,62.637168,186.7586,62.0707965L185.3103,62.0707965L185.3103,62.353982L184.4138,62.353982L184.4138,62L182.2759,62L182.2759,62.353982L181.7241,62.353982L181.7241,62L179.5862,62L179.5862,62.353982L178.6897,62.353982L178.6897,62.0707965L177.2414,62.0707965Q177.0517,62.637168,176.7586,63.13274Q176.4655,63.62832,176.069,64.0531L176.069,65.68142Z"
                    fill-rule="evenodd" fill="#DADBDD" fill-opacity="1" />
            </g>
        </g>
        <g>
            <g>
                <path d="M109,0L127,0L127,39L109,39L109,0Z" fill="#000000" fill-opacity="0.05000000074505806" />
            </g>
            <g>
                <path
                    d="M61.631299999999996,78L39,78L79.6525,57.6195L85.3103,57.6195L86.5676,55.955799999999996L88.03450000000001,55.955799999999996L85.3103,49.3009L150.69,49.3009L147.966,55.955799999999996L149.43200000000002,55.955799999999996L150.69,57.6195L156.34699999999998,57.6195L197,78L174.369,78L168.501,74.25659999999999L153.424,65.04849999999999C152.59699999999998,64.5432,151.64,64.28649999999999,150.66899999999998,64.3095L148.37900000000002,64.36359999999999C146.768,64.4017,146.13299999999998,66.4516,147.44400000000002,67.38069999999999L162.424,78L139.24200000000002,78C136.238,71.06,128.3791,66.56190000000001,119.2573,66.56190000000001C110.1355,66.56190000000001,102.2766,71.06,99.273,78L73.57560000000001,78L88.55590000000001,67.38069999999999C89.8665,66.4516,89.2316,64.4017,87.6214,64.36359999999999L85.3314,64.3095C84.3603,64.28649999999999,83.4032,64.5432,82.57589999999999,65.04849999999999L67.4987,74.25659999999999L61.631299999999996,78ZM143.952,47.221199999999996L140.212,43.8938L95.7878,43.8938L92.04820000000001,47.221199999999996L143.952,47.221199999999996ZM99.9788,41.8142L136.0212,41.8142L136.0212,37.030969999999996Q134.8163,35.78319,133.9257,34.32743Q133.0351,32.87168,132.4589,31.207965L128.0584,31.207965L128.0584,32.03982L125.3342,32.03982L125.3342,31L118.8382,31L118.8382,32.03982L117.1618,32.03982L117.1618,31L110.6658,31L110.6658,32.03982L107.9416,32.03982L107.9416,31.207965L103.5411,31.207965Q102.9649,32.87168,102.0743,34.32743Q101.1837,35.78319,99.9788,37.030969999999996L99.9788,41.8142Z"
                    fill-rule="evenodd" fill="#DADBDD" fill-opacity="1" />
            </g>
        </g>
    </g>
</svg>