<svg xmlns="http://www.w3.org/2000/svg" xmlns:xlink="http://www.w3.org/1999/xlink" fill="none" version="1.1" width="800" height="1200" viewBox="0 0 800 1200"><g><g><rect x="0" y="0" width="800" height="1200" rx="0" fill="#BC1314" fill-opacity="1"/></g><g><rect x="25" y="165" width="750" height="990" rx="0" fill="#FFFFFF" fill-opacity="1"/></g><g><rect x="36" y="276" width="728" height="868" rx="0" fill-opacity="0" stroke-opacity="1" stroke="#000000" fill="none" stroke-width="22"/></g><g><path d="M367.68,77L362.304,77Q360.896,77,360.896,75.656L360.896,43.592Q360.896,42.888000000000005,360.192,42.888000000000005L352.896,42.888000000000005Q351.552,42.888000000000005,351.552,41.544L351.552,37.192Q351.552,35.848,352.896,35.848L377.088,35.848Q378.432,35.848,378.432,37.192L378.432,41.544Q378.432,42.888000000000005,377.088,42.888000000000005L369.79200000000003,42.888000000000005Q369.024,42.888000000000005,369.024,43.592L369.024,75.656Q369.024,77,367.68,77ZM387.584,77L381.44,77Q380.288,77,380.672,75.656L390.784,37.192Q391.23199999999997,35.848,392.704,35.848L401.216,35.848Q402.81600000000003,35.848,403.136,37.192L413.248,75.656Q413.632,77,412.48,77L406.336,77Q405.632,77,405.376,76.712Q405.12,76.424,404.992,75.656L403.2,68.616L390.72,68.616L388.928,75.656Q388.8,76.424,388.512,76.712Q388.224,77,387.584,77ZM396.864,43.592L392.256,62.088L401.728,62.088L397.12,43.592L396.864,43.592ZM435.84000000000003,77L428.86400000000003,77Q423.808,77,421.056,74.312Q418.304,71.624,418.304,66.568L418.304,46.28Q418.304,41.224000000000004,421.056,38.536Q423.808,35.848,428.86400000000003,35.848L435.84000000000003,35.848Q440.832,35.848,443.616,38.568Q446.4,41.288,446.4,46.28L446.4,49.288Q446.4,50.696,444.992,50.696L439.616,50.696Q438.272,50.696,438.272,49.288L438.272,46.664Q438.272,44.616,437.408,43.751999999999995Q436.544,42.888000000000005,434.496,42.888000000000005L430.144,42.888000000000005Q428.15999999999997,42.888000000000005,427.296,43.751999999999995Q426.432,44.616,426.432,46.664L426.432,66.184Q426.432,68.232,427.296,69.096Q428.15999999999997,69.96000000000001,430.144,69.96000000000001L434.496,69.96000000000001Q436.544,69.96000000000001,437.408,69.096Q438.272,68.232,438.272,66.184L438.272,63.56Q438.272,62.152,439.616,62.152L444.992,62.152Q446.4,62.152,446.4,63.56L446.4,66.568Q446.4,71.56,443.616,74.28Q440.832,77,435.84000000000003,77Z" fill="#FFFFFF" fill-opacity="1"/></g><g><path d="M281.428,105L279.412,105Q278.884,105,278.884,104.496L278.884,92.472Q278.884,92.208,278.62,92.208L275.883995,92.208Q275.379995,92.208,275.379995,91.70400000000001L275.379995,90.072Q275.379995,89.568,275.883995,89.568L284.956,89.568Q285.46,89.568,285.46,90.072L285.46,91.70400000000001Q285.46,92.208,284.956,92.208L282.22,92.208Q281.932,92.208,281.932,92.472L281.932,104.496Q281.932,105,281.428,105ZM290.452,90.072L290.452,104.496Q290.452,105,289.948,105L287.908,105Q287.404,105,287.404,104.496L287.404,90.072Q287.404,89.568,287.908,89.568L289.948,89.568Q290.452,89.568,290.452,90.072ZM296.188,105L294.196,105Q293.692,105,293.692,104.496L293.692,90.072Q293.692,89.568,294.196,89.568L295.996,89.568Q296.5,89.568,296.668,89.904L301.516,99L301.612,99L301.612,90.072Q301.612,89.568,302.116,89.568L304.108,89.568Q304.612,89.568,304.612,90.072L304.612,104.496Q304.612,105,304.108,105L302.356,105Q301.828,105,301.588,104.52L296.788,95.592L296.692,95.592L296.692,104.496Q296.692,105,296.188,105ZM311.044,102.36L313.65999999999997,102.36Q314.428,102.36,314.752,102.036Q315.076,101.712,315.076,100.944L315.076,93.624Q315.076,92.856,314.752,92.532Q314.428,92.208,313.65999999999997,92.208L311.044,92.208Q310.78,92.208,310.78,92.472L310.78,102.096Q310.78,102.36,311.044,102.36ZM307.73199999999997,104.496L307.73199999999997,90.072Q307.73199999999997,89.568,308.236,89.568L314.164,89.568Q316.036,89.568,317.08,90.588Q318.124,91.608,318.124,93.48L318.124,101.088Q318.124,102.96000000000001,317.08,103.98Q316.036,105,314.164,105L308.236,105Q307.73199999999997,105,307.73199999999997,104.496ZM329.356,105L321.508,105Q321.004,105,321.004,104.496L321.004,90.072Q321.004,89.568,321.508,89.568L329.356,89.568Q329.836,89.568,329.836,90.072L329.836,91.70400000000001Q329.836,92.208,329.356,92.208L324.34000000000003,92.208Q324.052,92.208,324.052,92.472L324.052,95.592Q324.052,95.856,324.34000000000003,95.856L328.444,95.856Q328.948,95.856,328.948,96.36L328.948,97.992Q328.948,98.496,328.444,98.496L324.34000000000003,98.496Q324.052,98.496,324.052,98.76L324.052,102.096Q324.052,102.36,324.34000000000003,102.36L329.356,102.36Q329.836,102.36,329.836,102.864L329.836,104.496Q329.836,105,329.356,105ZM335.044,105L333.004,105Q332.5,105,332.5,104.496L332.5,90.072Q332.5,89.568,333.004,89.568L338.716,89.568Q340.58799999999997,89.568,341.644,90.6Q342.7,91.632,342.7,93.504L342.7,95.376Q342.7,98.088,340.56399999999996,98.976L340.56399999999996,99.072L343.132,104.424Q343.348,105,342.724,105L340.78,105Q340.348,105,340.156,104.904Q339.964,104.80799999999999,339.844,104.496L337.444,99.312L335.836,99.312Q335.548,99.312,335.548,99.576L335.548,104.496Q335.548,105,335.044,105ZM335.812,96.864L338.164,96.864Q338.932,96.864,339.29200000000003,96.53999999999999Q339.652,96.216,339.652,95.496L339.652,93.624Q339.652,92.88,339.29200000000003,92.544Q338.932,92.208,338.164,92.208L335.812,92.208Q335.548,92.208,335.548,92.472L335.548,96.6Q335.548,96.864,335.812,96.864ZM352.516,105L350.212,105Q349.78,105,349.924,104.496L353.716,90.072Q353.884,89.568,354.43600000000004,89.568L357.628,89.568Q358.228,89.568,358.348,90.072L362.14,104.496Q362.284,105,361.852,105L359.548,105Q359.284,105,359.188,104.892Q359.092,104.78399999999999,359.044,104.496L358.372,101.856L353.692,101.856L353.02,104.496Q352.972,104.78399999999999,352.86400000000003,104.892Q352.756,105,352.516,105ZM355.996,92.472L354.26800000000003,99.408L357.82,99.408L356.092,92.472L355.996,92.472ZM366.82,105L364.78,105Q364.276,105,364.276,104.496L364.276,90.072Q364.276,89.568,364.78,89.568L370.492,89.568Q372.36400000000003,89.568,373.42,90.6Q374.476,91.632,374.476,93.504L374.476,95.376Q374.476,98.088,372.34000000000003,98.976L372.34000000000003,99.072L374.908,104.424Q375.124,105,374.5,105L372.556,105Q372.124,105,371.932,104.904Q371.74,104.80799999999999,371.62,104.496L369.22,99.312L367.61199999999997,99.312Q367.324,99.312,367.324,99.576L367.324,104.496Q367.324,105,366.82,105ZM367.58799999999997,96.864L369.94,96.864Q370.70799999999997,96.864,371.068,96.53999999999999Q371.428,96.216,371.428,95.496L371.428,93.624Q371.428,92.88,371.068,92.544Q370.70799999999997,92.208,369.94,92.208L367.58799999999997,92.208Q367.324,92.208,367.324,92.472L367.324,96.6Q367.324,96.864,367.58799999999997,96.864ZM383.74,105L381.124,105Q379.228,105,378.196,103.992Q377.164,102.98400000000001,377.164,101.088L377.164,93.48Q377.164,91.584,378.196,90.576Q379.228,89.568,381.124,89.568L383.74,89.568Q385.61199999999997,89.568,386.656,90.588Q387.7,91.608,387.7,93.48L387.7,94.608Q387.7,95.136,387.172,95.136L385.156,95.136Q384.652,95.136,384.652,94.608L384.652,93.624Q384.652,92.856,384.328,92.532Q384.004,92.208,383.236,92.208L381.604,92.208Q380.86,92.208,380.536,92.532Q380.212,92.856,380.212,93.624L380.212,100.944Q380.212,101.712,380.536,102.036Q380.86,102.36,381.604,102.36L383.236,102.36Q384.004,102.36,384.328,102.036Q384.652,101.712,384.652,100.944L384.652,99.96000000000001Q384.652,99.432,385.156,99.432L387.172,99.432Q387.7,99.432,387.7,99.96000000000001L387.7,101.088Q387.7,102.96000000000001,386.656,103.98Q385.61199999999997,105,383.74,105ZM392.86,105L390.82,105Q390.31600000000003,105,390.31600000000003,104.496L390.31600000000003,90.072Q390.31600000000003,89.568,390.82,89.568L392.86,89.568Q393.36400000000003,89.568,393.36400000000003,90.072L393.36400000000003,95.712Q393.36400000000003,95.976,393.652,95.976L397.70799999999997,95.976Q397.972,95.976,397.972,95.712L397.972,90.072Q397.972,89.568,398.476,89.568L400.516,89.568Q401.02,89.568,401.02,90.072L401.02,104.496Q401.02,105,400.516,105L398.476,105Q397.972,105,397.972,104.496L397.972,98.88Q397.972,98.616,397.70799999999997,98.616L393.652,98.616Q393.36400000000003,98.616,393.36400000000003,98.88L393.36400000000003,104.496Q393.36400000000003,105,392.86,105ZM407.308,90.072L407.308,104.496Q407.308,105,406.804,105L404.764,105Q404.26,105,404.26,104.496L404.26,90.072Q404.26,89.568,404.764,89.568L406.804,89.568Q407.308,89.568,407.308,90.072ZM416.836,105L413.692,105Q413.188,105,413.092,104.496L409.372,90.12Q409.204,89.568,409.852,89.568L412.108,89.568Q412.58799999999997,89.568,412.68399999999997,90.072L415.204,101.88L415.3,101.88L417.82,90.072Q417.916,89.568,418.39599999999996,89.568L420.652,89.568Q421.252,89.568,421.132,90.12L417.41200000000003,104.496Q417.29200000000003,105,416.836,105ZM431.404,105L423.55600000000004,105Q423.052,105,423.052,104.496L423.052,90.072Q423.052,89.568,423.55600000000004,89.568L431.404,89.568Q431.884,89.568,431.884,90.072L431.884,91.70400000000001Q431.884,92.208,431.404,92.208L426.38800000000003,92.208Q426.1,92.208,426.1,92.472L426.1,95.592Q426.1,95.856,426.38800000000003,95.856L430.49199999999996,95.856Q430.996,95.856,430.996,96.36L430.996,97.992Q430.996,98.496,430.49199999999996,98.496L426.38800000000003,98.496Q426.1,98.496,426.1,98.76L426.1,102.096Q426.1,102.36,426.38800000000003,102.36L431.404,102.36Q431.884,102.36,431.884,102.864L431.884,104.496Q431.884,105,431.404,105ZM434.164,101.064L434.164,100.584Q434.164,100.08,434.668,100.08L436.70799999999997,100.08Q437.212,100.08,437.212,100.584L437.212,100.776Q437.212,101.688,437.572,102.024Q437.932,102.36,438.892,102.36L440.02,102.36Q440.956,102.36,441.328,102Q441.7,101.64,441.7,100.656L441.7,100.368Q441.7,99.672,441.13599999999997,99.3Q440.572,98.928,439.73199999999997,98.856Q438.892,98.78399999999999,437.91999999999996,98.58Q436.948,98.376,436.108,98.05199999999999Q435.26800000000003,97.728,434.704,96.78Q434.14,95.832,434.14,94.344L434.14,93.504Q434.14,91.632,435.196,90.6Q436.252,89.568,438.124,89.568L440.524,89.568Q442.41999999999996,89.568,443.476,90.6Q444.53200000000004,91.632,444.53200000000004,93.504L444.53200000000004,93.96000000000001Q444.53200000000004,94.464,444.028,94.464L441.988,94.464Q441.48400000000004,94.464,441.48400000000004,93.96000000000001L441.48400000000004,93.816Q441.48400000000004,92.88,441.124,92.544Q440.764,92.208,439.804,92.208L438.868,92.208Q437.884,92.208,437.536,92.58Q437.188,92.952,437.188,94.032L437.188,94.488Q437.188,95.616,439.156,95.784Q441.196,95.952,442.78,96.6Q443.62,96.96000000000001,444.18399999999997,97.884Q444.748,98.80799999999999,444.748,100.248L444.748,101.064Q444.748,102.936,443.692,103.968Q442.63599999999997,105,440.764,105L438.148,105Q436.276,105,435.22,103.968Q434.164,102.936,434.164,101.064ZM459.1,105L456.48400000000004,105Q454.58799999999997,105,453.55600000000004,103.992Q452.524,102.98400000000001,452.524,101.088L452.524,93.48Q452.524,91.584,453.55600000000004,90.576Q454.58799999999997,89.568,456.48400000000004,89.568L459.1,89.568Q460.972,89.568,462.01599999999996,90.588Q463.06,91.608,463.06,93.48L463.06,94.608Q463.06,95.136,462.53200000000004,95.136L460.51599999999996,95.136Q460.012,95.136,460.012,94.608L460.012,93.624Q460.012,92.856,459.688,92.532Q459.36400000000003,92.208,458.596,92.208L456.964,92.208Q456.22,92.208,455.89599999999996,92.532Q455.572,92.856,455.572,93.624L455.572,100.944Q455.572,101.712,455.89599999999996,102.036Q456.22,102.36,456.964,102.36L458.596,102.36Q459.36400000000003,102.36,459.688,102.036Q460.012,101.712,460.012,100.944L460.012,99.96000000000001Q460.012,99.432,460.51599999999996,99.432L462.53200000000004,99.432Q463.06,99.432,463.06,99.96000000000001L463.06,101.088Q463.06,102.96000000000001,462.01599999999996,103.98Q460.972,105,459.1,105ZM474.028,105L466.18,105Q465.676,105,465.676,104.496L465.676,90.072Q465.676,89.568,466.18,89.568L474.028,89.568Q474.50800000000004,89.568,474.50800000000004,90.072L474.50800000000004,91.70400000000001Q474.50800000000004,92.208,474.028,92.208L469.012,92.208Q468.724,92.208,468.724,92.472L468.724,95.592Q468.724,95.856,469.012,95.856L473.116,95.856Q473.62,95.856,473.62,96.36L473.62,97.992Q473.62,98.496,473.116,98.496L469.012,98.496Q468.724,98.496,468.724,98.76L468.724,102.096Q468.724,102.36,469.012,102.36L474.028,102.36Q474.50800000000004,102.36,474.50800000000004,102.864L474.50800000000004,104.496Q474.50800000000004,105,474.028,105ZM479.668,105L477.676,105Q477.172,105,477.172,104.496L477.172,90.072Q477.172,89.568,477.676,89.568L479.476,89.568Q479.98,89.568,480.148,89.904L484.996,99L485.092,99L485.092,90.072Q485.092,89.568,485.596,89.568L487.58799999999997,89.568Q488.092,89.568,488.092,90.072L488.092,104.496Q488.092,105,487.58799999999997,105L485.836,105Q485.308,105,485.068,104.52L480.26800000000003,95.592L480.172,95.592L480.172,104.496Q480.172,105,479.668,105ZM495.988,105L493.972,105Q493.44399999999996,105,493.44399999999996,104.496L493.44399999999996,92.472Q493.44399999999996,92.208,493.18,92.208L490.44399999999996,92.208Q489.94,92.208,489.94,91.70400000000001L489.94,90.072Q489.94,89.568,490.44399999999996,89.568L499.51599999999996,89.568Q500.02,89.568,500.02,90.072L500.02,91.70400000000001Q500.02,92.208,499.51599999999996,92.208L496.78,92.208Q496.49199999999996,92.208,496.49199999999996,92.472L496.49199999999996,104.496Q496.49199999999996,105,495.988,105ZM510.196,105L502.348,105Q501.844,105,501.844,104.496L501.844,90.072Q501.844,89.568,502.348,89.568L510.196,89.568Q510.676,89.568,510.676,90.072L510.676,91.70400000000001Q510.676,92.208,510.196,92.208L505.18,92.208Q504.892,92.208,504.892,92.472L504.892,95.592Q504.892,95.856,505.18,95.856L509.284,95.856Q509.788,95.856,509.788,96.36L509.788,97.992Q509.788,98.496,509.284,98.496L505.18,98.496Q504.892,98.496,504.892,98.76L504.892,102.096Q504.892,102.36,505.18,102.36L510.196,102.36Q510.676,102.36,510.676,102.864L510.676,104.496Q510.676,105,510.196,105ZM515.884,105L513.844,105Q513.34,105,513.34,104.496L513.34,90.072Q513.34,89.568,513.844,89.568L519.556,89.568Q521.428,89.568,522.484,90.6Q523.54,91.632,523.54,93.504L523.54,95.376Q523.54,98.088,521.404,98.976L521.404,99.072L523.972,104.424Q524.188,105,523.564,105L521.62,105Q521.188,105,520.996,104.904Q520.804,104.80799999999999,520.684,104.496L518.284,99.312L516.6759999999999,99.312Q516.388,99.312,516.388,99.576L516.388,104.496Q516.388,105,515.884,105ZM516.652,96.864L519.004,96.864Q519.7719999999999,96.864,520.1320000000001,96.53999999999999Q520.492,96.216,520.492,95.496L520.492,93.624Q520.492,92.88,520.1320000000001,92.544Q519.7719999999999,92.208,519.004,92.208L516.652,92.208Q516.388,92.208,516.388,92.472L516.388,96.6Q516.388,96.864,516.652,96.864Z" fill="#FFFFFF" fill-opacity="1"/></g><g><path d="M52.46,242L61.34,242L61.34,226.22L67.28,226.22C76.82,226.22,84.44,221.66,84.44,211.52C84.44,201.02,76.88,197.54,67.03999999999999,197.54L52.46,197.54L52.46,242ZM61.34,219.2L61.34,204.62L66.38,204.62C72.5,204.62,75.74,206.36,75.74,211.52C75.74,216.62,72.8,219.2,66.68,219.2L61.34,219.2ZM101.36,218.18L101.36,204.62L107.12,204.62C112.82,204.62,115.94,206.24,115.94,211.04C115.94,215.78,112.82,218.18,107.12,218.18L101.36,218.18ZM116.66,242L126.56,242L116.18,223.82C121.28,221.84,124.64,217.7,124.64,211.04C124.64,200.84,117.26,197.54,107.9,197.54L92.47999999999999,197.54L92.47999999999999,242L101.36,242L101.36,225.2L107.53999999999999,225.2L116.66,242ZM151.04000000000002,242.84C162.8,242.84,170.9,234.02,170.9,219.56C170.9,205.16,162.8,196.76,151.04000000000002,196.76C139.28,196.76,131.18,205.16,131.18,219.56C131.18,234.02,139.28,242.84,151.04000000000002,242.84ZM151.04000000000002,235.16C144.44,235.16,140.3,229.04,140.3,219.56C140.3,210.07999999999998,144.44,204.38,151.04000000000002,204.38C157.64,204.38,161.84,210.07999999999998,161.84,219.56C161.84,229.04,157.64,235.16,151.04000000000002,235.16ZM179.6,242L188.48,242L188.48,222.8L205.28,222.8L205.28,242L214.1,242L214.1,197.54L205.28,197.54L205.28,215.12L188.48,215.12L188.48,197.54L179.6,197.54L179.6,242ZM225.02,242L233.9,242L233.9,197.54L225.02,197.54L225.02,242ZM244.82,242L260.65999999999997,242C270.44,242,277.82,237.86,277.82,228.92000000000002C277.82,222.98,274.34000000000003,219.56,269.53999999999996,218.42000000000002L269.53999999999996,218.18C273.32,216.8,275.6,212.66,275.6,208.52C275.6,200.24,268.64,197.54,259.52,197.54L244.82,197.54L244.82,242ZM253.7,215.66L253.7,204.38L258.98,204.38C264.32,204.38,266.96000000000004,205.94,266.96000000000004,209.84C266.96000000000004,213.38,264.56,215.66,258.91999999999996,215.66L253.7,215.66ZM253.7,235.16L253.7,222.2L259.88,222.2C266,222.2,269.18,224.06,269.18,228.38C269.18,233,265.88,235.16,259.88,235.16L253.7,235.16ZM285.68,242L294.56,242L294.56,197.54L285.68,197.54L285.68,242ZM314.3,242L323.18,242L323.18,204.98L335.72,204.98L335.72,197.54L301.82,197.54L301.82,204.98L314.3,204.98L314.3,242ZM342.98,242L370.88,242L370.88,234.56L351.86,234.56L351.86,222.68L367.4,222.68L367.4,215.24L351.86,215.24L351.86,204.98L370.22,204.98L370.22,197.54L342.98,197.54L342.98,242ZM379.88,242L392.54,242C405.68,242,414.02,234.56,414.02,219.56C414.02,204.62,405.68,197.54,392.06,197.54L379.88,197.54L379.88,242ZM388.76,234.8L388.76,204.68L391.46,204.68C399.8,204.68,404.96,208.76,404.96,219.56C404.96,230.36,399.8,234.8,391.46,234.8L388.76,234.8ZM449.96,242L465.8,242C475.58,242,482.96,237.86,482.96,228.92000000000002C482.96,222.98,479.48,219.56,474.68,218.42000000000002L474.68,218.18C478.46,216.8,480.74,212.66,480.74,208.52C480.74,200.24,473.78,197.54,464.66,197.54L449.96,197.54L449.96,242ZM458.84,215.66L458.84,204.38L464.12,204.38C469.46,204.38,472.1,205.94,472.1,209.84C472.1,213.38,469.7,215.66,464.06,215.66L458.84,215.66ZM458.84,235.16L458.84,222.2L465.02,222.2C471.14,222.2,474.32,224.06,474.32,228.38C474.32,233,471.02,235.16,465.02,235.16L458.84,235.16ZM490.82,242L518.72,242L518.72,234.56L499.7,234.56L499.7,222.68L515.24,222.68L515.24,215.24L499.7,215.24L499.7,204.98L518.06,204.98L518.06,197.54L490.82,197.54L490.82,242ZM527.72,242L536.6,242L536.6,222.8L553.4,222.8L553.4,242L562.22,242L562.22,197.54L553.4,197.54L553.4,215.12L536.6,215.12L536.6,197.54L527.72,197.54L527.72,242ZM567.44,242L576.44,242L579.56,230.6L593.9,230.6L597.02,242L606.38,242L592.16,197.54L581.66,197.54L567.44,242ZM581.48,223.7L582.8,218.84C584.12,214.22,585.38,209.18,586.58,204.32L586.82,204.32C588.14,209.06,589.34,214.22,590.72,218.84L592.04,223.7L581.48,223.7ZM618.26,242L628.88,242L642.44,197.54L633.44,197.54L627.68,219.2C626.3,224.12,625.34,228.56,623.9,233.54L623.6,233.54C622.22,228.56,621.26,224.12,619.88,219.2L614.06,197.54L604.7,197.54L618.26,242ZM647.6,242L656.48,242L656.48,197.54L647.6,197.54L647.6,242ZM685.04,242.84C696.8,242.84,704.9,234.02,704.9,219.56C704.9,205.16,696.8,196.76,685.04,196.76C673.28,196.76,665.18,205.16,665.18,219.56C665.18,234.02,673.28,242.84,685.04,242.84ZM685.04,235.16C678.44,235.16,674.3,229.04,674.3,219.56C674.3,210.07999999999998,678.44,204.38,685.04,204.38C691.64,204.38,695.84,210.07999999999998,695.84,219.56C695.84,229.04,691.64,235.16,685.04,235.16ZM722.48,218.18L722.48,204.62L728.24,204.62C733.94,204.62,737.06,206.24,737.06,211.04C737.06,215.78,733.94,218.18,728.24,218.18L722.48,218.18ZM737.78,242L747.68,242L737.3,223.82C742.4,221.84,745.76,217.7,745.76,211.04C745.76,200.84,738.38,197.54,729.02,197.54L713.6,197.54L713.6,242L722.48,242L722.48,225.2L728.66,225.2L737.78,242Z" fill="#BC1314" fill-opacity="1"/></g><g><rect x="65" y="985" width="670" height="130" rx="0" fill="#BC1314" fill-opacity="1"/></g><g><path d="M151.34,1084.176C167.804,1084.176,179.144,1071.828,179.144,1051.584C179.144,1031.424,167.804,1019.664,151.34,1019.664C134.876,1019.664,123.536,1031.424,123.536,1051.584C123.536,1071.828,134.876,1084.176,151.34,1084.176ZM151.34,1073.424C142.1,1073.424,136.304,1064.856,136.304,1051.584C136.304,1038.312,142.1,1030.332,151.34,1030.332C160.57999999999998,1030.332,166.46,1038.312,166.46,1051.584C166.46,1064.856,160.57999999999998,1073.424,151.34,1073.424ZM191.324,1083L229.04000000000002,1083L229.04000000000002,1072.584L203.756,1072.584L203.756,1020.756L191.324,1020.756L191.324,1083ZM239.876,1083L257.6,1083C275.996,1083,287.672,1072.584,287.672,1051.584C287.672,1030.668,275.996,1020.756,256.928,1020.756L239.876,1020.756L239.876,1083ZM252.308,1072.92L252.308,1030.752L256.08799999999997,1030.752C267.764,1030.752,274.988,1036.464,274.988,1051.584C274.988,1066.704,267.764,1072.92,256.08799999999997,1072.92L252.308,1072.92ZM324.8,1083L340.004,1083L346.808,1052.172C347.73199999999997,1047.384,348.656,1042.596,349.58000000000004,1037.892L349.916,1037.892C350.58799999999997,1042.596,351.512,1047.384,352.52,1052.172L359.49199999999996,1083L374.948,1083L386.456,1020.756L374.696,1020.756L369.74,1051.164C368.81600000000003,1057.632,367.892,1064.268,366.96799999999996,1070.988L366.548,1070.988C365.204,1064.268,364.028,1057.548,362.6,1051.164L355.376,1020.756L344.70799999999997,1020.756L337.568,1051.164C336.224,1057.632,334.88,1064.268,333.62,1070.988L333.284,1070.988C332.36,1064.268,331.352,1057.716,330.344,1051.164L325.55600000000004,1020.756L312.872,1020.756L324.8,1083ZM395.78,1083L434.84,1083L434.84,1072.584L408.212,1072.584L408.212,1055.952L429.968,1055.952L429.968,1045.536L408.212,1045.536L408.212,1031.172L433.916,1031.172L433.916,1020.756L395.78,1020.756L395.78,1083ZM447.44,1083L469.616,1083C483.308,1083,493.64,1077.204,493.64,1064.688C493.64,1056.372,488.768,1051.584,482.048,1049.988L482.048,1049.652C487.34,1047.72,490.532,1041.924,490.532,1036.128C490.532,1024.536,480.788,1020.756,468.02,1020.756L447.44,1020.756L447.44,1083ZM459.872,1046.124L459.872,1030.332L467.264,1030.332C474.74,1030.332,478.436,1032.516,478.436,1037.976C478.436,1042.932,475.076,1046.124,467.18,1046.124L459.872,1046.124ZM459.872,1073.424L459.872,1055.28L468.524,1055.28C477.092,1055.28,481.544,1057.884,481.544,1063.932C481.544,1070.4,476.924,1073.424,468.524,1073.424L459.872,1073.424ZM521.6120000000001,1084.176C535.976,1084.176,544.46,1075.524,544.46,1065.36C544.46,1056.372,539.504,1051.5,531.944,1048.392L523.796,1045.116C518.504,1042.932,514.136,1041.336,514.136,1036.884C514.136,1032.768,517.496,1030.332,522.956,1030.332C528.164,1030.332,532.28,1032.264,536.2280000000001,1035.456L542.528,1027.728C537.488,1022.604,530.264,1019.664,522.956,1019.664C510.44,1019.664,501.452,1027.56,501.452,1037.64C501.452,1046.712,507.836,1051.752,514.136,1054.272L522.3679999999999,1057.884C527.912,1060.236,531.7760000000001,1061.664,531.7760000000001,1066.284C531.7760000000001,1070.652,528.332,1073.424,521.864,1073.424C516.404,1073.424,510.44,1070.652,506.072,1066.536L498.932,1075.104C504.98,1080.984,513.296,1084.176,521.6120000000001,1084.176ZM555.4639999999999,1083L567.896,1083L567.896,1020.756L555.4639999999999,1020.756L555.4639999999999,1083ZM595.5319999999999,1083L607.9639999999999,1083L607.9639999999999,1031.172L625.52,1031.172L625.52,1020.756L578.06,1020.756L578.06,1031.172L595.5319999999999,1031.172L595.5319999999999,1083ZM635.684,1083L674.744,1083L674.744,1072.584L648.116,1072.584L648.116,1055.952L669.872,1055.952L669.872,1045.536L648.116,1045.536L648.116,1031.172L673.82,1031.172L673.82,1020.756L635.684,1020.756L635.684,1083Z" fill="#FFFFFF" fill-opacity="1"/></g><g><g><path d="M774.5835,66.00970000000001L774.7727,67.50139999999999C774.923,68.9803,775,70.4813,775,72C775,81.87219999999999,771.7488,90.985,766.2589,98.326L766.2572,98.3276L763.9545,94.339L764.3833,93.7139C768.1043,88.0042,770.4005999999999,81.2813,770.7672,74.04910000000001L770.8053,72.55199999999999L774.5835,66.00970000000001ZM766.1077,54.6201L771.1249,63.3101L756.0734,89.37989999999999L751.0567,80.6899L766.1077,54.6201ZM751.0567,54.6201L756.0739,63.3101L741.0224,89.37989999999999L736.0053,80.6899L751.0567,54.6201ZM741.0461,45.9306L746.0633,54.6201L725.9947,89.37989999999999L741.0224,89.37989999999999L756.0734,89.37989999999999Q756.0739,89.37989999999999,756.0739,89.37989999999999L761.0906,98.0694L720.9776,98.0694L715.9604,89.37989999999999L736.029,54.6201L731.0118,54.6201L710.9433,89.37989999999999L705.9266,80.6899L720.9776,54.6201L705.9266,54.6201L700.9094,45.9306L741.0461,45.9306ZM695.74285,45.672L698.0413,49.6525L697.9816,49.7367C693.68783,56.091899999999995,691.18074,63.7532,691.18074,72C691.18074,93.9915,709.0085,111.8193,731,111.8193C740.3207,111.8193,748.8933,108.6167,755.6777,103.2521L756.6893,102.4136L762.7795,102.4136L762.1128,103.1128C754.1501,111.0751,743.1503,116,731,116C706.6995,116,687,96.3005,687,72C687,62.1278,690.25122,53.015,695.74115,45.674099999999996L695.74285,45.672ZM731,28C744.669,28,756.8823,34.23323,764.9526,44.0119L766.2563,45.671099999999996L763.9587,49.6525L762.9086,48.1757C755.6468,38.466,744.0574,32.18074,731,32.18074C721.3788,32.18074,712.5543,35.59322,705.6713,41.2737L705.3115,41.5856L699.2218,41.5856L699.8872,40.8872C707.85,32.92487,718.8497,28,731,28Z" fill-rule="evenodd" fill="#FFFFFF" fill-opacity="1"/></g></g><g><g><g><g><path d="M102.3631,31L119,66.6626L119,105L25,105L25,66.6626L41.6375,31L102.3631,31ZM111.7915,97.8124L111.7915,73.8503L32.20906,73.8503L32.20906,97.8124L111.7915,97.8124ZM105.3672,46.282L105.3656,46.2799C103.4391,42.4347,98.7703,39.02953,92.7347,36.6308C92.3278,36.46896,92.0289,36.35642,91.9671,36.33337C86.7613,34.37409,80.08330000000001,32.955,72.4448,32.90141L72.4416,32.90141C72.1486,32.90034,72.0352,32.90034,71.99969999999999,32.90034C71.85249999999999,32.90034,71.5955,32.90141,71.5601,32.90141L71.55680000000001,32.90141C63.9092,32.955,57.2328,34.37569,52.0308,36.33444C51.6335,36.48289,51.3234,36.60722,51.262699999999995,36.63187C45.2291,39.03007,40.5603,42.4352,38.6355,46.2772L38.6344,46.2793C38.5511,46.4508,38.5205,46.5157,38.5113,46.536C38.5017,46.5564,38.4705,46.6228,38.3958,46.7916L38.3947,46.7933C36.4935,51.1936,38.5248,55.3898,43.8816,58.6572C43.9418,58.6947,44.2444,58.8812,44.6486,59.1074C50.9133,62.6272,60.7045,64.675,71.30850000000001,64.7607L71.31389999999999,64.7607C71.36869999999999,64.7607,71.7713,64.7628,71.99969999999999,64.7628C72.2303,64.7628,72.6238,64.7607,72.6781,64.7607L72.6834,64.7607C83.2906,64.675,93.0819,62.6288,99.3487,59.1074C99.7454,58.887699999999995,100.0577,58.6947,100.1179,58.6572C105.4747,55.3898,107.5059,51.1936,105.6064,46.7954L105.6053,46.792699999999996C105.5962,46.7724,105.5284,46.622299999999996,105.4887,46.536C105.479,46.5157,105.4489,46.4513,105.3672,46.282ZM49.1981,58.1004C50.486999999999995,57.5441,51.760400000000004,56.989999999999995,52.9859,56.453C57.3129,58.4739,63.2717,59.7237,69.7755,59.9568L69.711,62.4204C61.6973,62.172799999999995,54.3619,60.6288,49.1981,58.1004ZM97.4255,56.6042C95.7565,55.8968,94.4165,55.3228,93.6473,54.9927C96.8837,52.848,98.3973,50.2134,97.8356,47.4251L102.0352,47.4251C102.9839,50.7986,101.3192,54.002300000000005,97.4255,56.6042ZM74.297,62.419799999999995L74.2325,59.9563C80.7359,59.7226,86.6925,58.472899999999996,91.0189,56.4503C92.6707,57.1738,94.0295,57.762299999999996,94.8068,58.0977C89.6429,60.628299999999996,82.307,62.1717,74.297,62.419799999999995ZM58.0304,47.428799999999995L62.2757,47.428799999999995C62.4358,48.0012,62.8497,48.605199999999996,63.5883,49.17C62.1359,49.826,60.9421,50.3592,60.289,50.6507C58.905,49.689800000000005,58.1385,48.5768,58.0304,47.428799999999995ZM83.7147,50.6475C82.24199999999999,49.991,81.0578,49.457300000000004,80.4058,49.1625C81.1385,48.600300000000004,81.5507,47.9974,81.7098,47.4251L85.969,47.4251C85.8621,48.5741,85.0972,49.687200000000004,83.7147,50.6475ZM56.7474,40.317859999999996C57.838,40.87306,58.733,41.3243,59.1957,41.5569C56.9533,42.7043,55.348299999999995,44.126,54.626400000000004,45.6603L50.517700000000005,45.6603C51.5045,43.6276,53.7207,41.7712,56.7474,40.317859999999996ZM56.3083,54.9889C57.508,54.4568,58.6953,53.9267,59.8391,53.411699999999996C62.5428,54.535,66.0415,55.2713,69.89269999999999,55.4696L69.832,57.788C64.6165,57.5693,59.8601,56.5677,56.3083,54.9889ZM70.2786,40.42076L70.2319,42.2021C68.9773,42.314099999999996,67.8152,42.5456,66.8187,42.849000000000004C65.6238,42.2766,64.6611,41.8104,64.1591,41.567099999999996C65.906,40.98024,67.98830000000001,40.5617,70.2786,40.42076ZM41.9627,47.428799999999995L46.1633,47.428799999999995C45.6027,50.2177,47.1195,52.8517,50.3564,54.9959C48.709,55.7033,47.353899999999996,56.2789,46.5788,56.6074C42.6824,54.0055,41.0156,50.8013,41.9627,47.428799999999995ZM62.939,52.009299999999996C64.05799999999999,51.4996,65.1728,50.9884,66.2425,50.4942C67.2955,50.842600000000004,68.5763,51.1148,70.0029,51.247699999999995L69.9459,53.43C67.282,53.256299999999996,64.8692,52.7483,62.939,52.009299999999996ZM70.4404,34.25512L70.40010000000001,35.78139C65.3852,35.94269,60.897,36.85428,57.2392,38.15546C56.205600000000004,37.63724,55.3698,37.21441,54.963899999999995,37.00862C59.2393,35.49253,64.51169999999999,34.41642,70.4404,34.25512ZM90.3315,53.560199999999995C88.77590000000001,52.8839,87.5262,52.334599999999995,86.8092,52.0189C88.79849999999999,50.6834,89.8407,49.0907,89.8052,47.4251L94.0161,47.4251C94.2897,49.6673,92.9878,51.8003,90.3315,53.560199999999995ZM70.3625,37.219229999999996L70.3195,38.867689999999996C67.1396,39.01935,64.2456,39.59813,61.8397,40.4363C60.7373,39.89556,59.8477,39.45504,59.3849,39.22568C62.4611,38.1351,66.20750000000001,37.3784,70.3625,37.219229999999996ZM74.17609999999999,57.787400000000005L74.1154,55.4691C77.96719999999999,55.2703,81.4647,54.5329,84.1662,53.4096C85.3106,53.924099999999996,86.4974,54.4546,87.6971,54.9862C84.148,56.5656,79.39320000000001,57.5677,74.17609999999999,57.787400000000005ZM79.83500000000001,41.5649C78.6476,42.141,77.6731,42.6083,77.1695,42.8495C76.1708,42.5456,75.0098,42.3147,73.7606,42.2021L73.71379999999999,40.42022C76.0106,40.56116,78.0929,40.98024,79.83500000000001,41.5649ZM85.6288,45.6571L81.4701,45.6571C81.1734,45.1185,80.6386,44.551500000000004,79.821,44.028C81.01859999999999,43.4401,81.9829,42.9615,82.4854,42.7118C84.062,43.584199999999996,85.1241,44.6078,85.6288,45.6571ZM101.3041,45.6571L97.2067,45.6571C95.935,43.17,93.1222,40.9304,89.3881,39.21871C90.4191,38.68762,91.2517,38.25461,91.6559,38.044C96.1984,40.038650000000004,99.6841,42.6935,101.3041,45.6571ZM89.0301,37.00701C88.0024,37.52791,87.16069999999999,37.95021,86.75489999999999,38.15386C83.0961,36.85213,78.6084,35.94162,73.5929,35.78085L73.5531,34.25512C79.49369999999999,34.41696,84.76339999999999,35.49414,89.0301,37.00701ZM93.4802,45.6571L89.3715,45.6571C88.648,44.1228,87.0424,42.701,84.79939999999999,41.5542C85.89920000000001,41.0011,86.7855,40.55044,87.24719999999999,40.31518C90.275,41.7691,92.4922,43.6244,93.4802,45.6571ZM52.3382,38.04614C53.3622,38.57991,54.2018,39.01292,54.606,39.22085C50.873000000000005,40.933080000000004,48.0613,43.1732,46.7911,45.6603L42.693200000000004,45.6603C44.313199999999995,42.6957,47.7973,40.04079,52.3382,38.04614ZM74.0616,53.4294L74.00460000000001,51.245599999999996C75.4285,51.1111,76.7062,50.8378,77.7564,50.4894C78.82820000000001,50.9841,79.9452,51.4964,81.0664,52.0066C79.1346,52.746700000000004,76.72120000000001,53.2553,74.0616,53.4294ZM61.5097,42.7139C62.6922,43.3023,63.6635,43.7804,64.16550000000001,44.0269C63.3469,44.5505,62.81,45.1191,62.5127,45.6603L58.3696,45.6603C58.8743,44.6094,59.9354,43.5858,61.5097,42.7139ZM84.6091,39.22353C83.51480000000001,39.76641,82.6182,40.20693,82.1543,40.43415C79.74680000000001,39.59653,76.8524,39.01882,73.67349999999999,38.867689999999996L73.6305,37.219229999999996C77.78710000000001,37.37786,81.533,38.13349,84.6091,39.22353ZM76.6599,48.4213C76.6132,48.4476,76.3751,48.5821,76.0493,48.7188C75.11670000000001,49.1121,73.8595,49.3881,72.4416,49.4358L72.43299999999999,49.4364C72.39750000000001,49.4374,72.23140000000001,49.4439,71.9922,49.4439C71.9562,49.4439,71.77879999999999,49.4439,71.54390000000001,49.4358L71.5423,49.4358C70.12440000000001,49.3881,68.8661,49.1121,67.93719999999999,48.7198L67.9362,48.719300000000004C67.6088,48.5816,67.3712,48.4476,67.3245,48.4213C66.4564,47.927800000000005,66.013,47.3297,65.97370000000001,46.7397L65.97370000000001,46.7359C65.9721,46.7198,65.9651,46.6443,65.9743,46.536C65.9753,46.5199,65.98230000000001,46.4396,66.0076,46.3334C66.142,45.7584,66.6628,45.1807,67.5594,44.7139C67.60669999999999,44.6893,67.848,44.5644,68.17,44.4374L68.1711,44.4369C69.0784,44.0773,70.26089999999999,43.825900000000004,71.5762,43.7831C71.79599999999999,43.7755,71.9594,43.7755,71.9927,43.7755C72.2137,43.7755,72.3609,43.7809,72.39320000000001,43.7825L72.4007,43.7825C73.7278,43.825900000000004,74.9082,44.0783,75.8134,44.4369L75.8144,44.4369C76.13640000000001,44.563900000000004,76.3788,44.6893,76.4256,44.7139C77.3221,45.1807,77.843,45.7584,77.9768,46.3329C78.0021,46.4385,78.00909999999999,46.5199,78.0102,46.536C78.0193,46.6453,78.0128,46.7166,78.0112,46.7322L78.0112,46.7359C77.97200000000001,47.3281,77.5296,47.9267,76.6599,48.4213ZM49.9829,47.428799999999995L54.194199999999995,47.428799999999995C54.160399999999996,49.0944,55.2042,50.687200000000004,57.1946,52.022099999999995C55.6579,52.699,54.3953,53.2488,53.6723,53.5634C51.0143,51.8029,49.7114,49.6706,49.9829,47.428799999999995Z" fill-rule="evenodd" fill="#FFFFFF" fill-opacity="1"/></g></g><g><g><path d="M72.29917907714844,92.39386749267578L72.29917907714844,79.26886749267578L85.46327907714844,79.26886749267578L85.46327907714844,92.39386749267578L72.29917907714844,92.39386749267578ZM92.04507907714844,92.39386749267578L92.04507907714844,79.26886749267578L105.20917907714843,79.26886749267578L105.20917907714843,92.39386749267578L92.04507907714844,92.39386749267578Z" fill-rule="evenodd" fill="#FFFFFF" fill-opacity="1"/></g></g></g></g><g><g><path d="M223.118,438.317L245.85399999999998,500.88599999999997L260.789,500.88599999999997L232.92700000000002,424.2394L167.9832,424.2482L145.27609999999999,486.80600000000004L133.0391,486.80600000000004L133.0391,367.0775L164.23239999999998,367.0775L171.0981,385.9925L186.0525,385.9925L174.0914,353L119,353L119,500.88599999999997L155.1119,500.88300000000004L177.8317,438.317L223.118,438.317Z" fill-rule="evenodd" fill="#000000" fill-opacity="1"/></g><g><path d="M324,522L324,371.915L203.74110000000002,371.915L196.87529999999998,353L181.9201,353L193.8956,385.9925L309.961,385.9925L309.961,507.923L119,507.923L119,522L324,522Z" fill-rule="evenodd" fill="#000000" fill-opacity="1"/></g><g><path d="M236.31170364379884,500.8859737426758L231.20200364379883,486.8084737426758L193.97360364379884,486.8084737426758L187.72740364379882,469.60027374267577L224.95580364379884,469.60027374267577L219.84570364379883,455.5227737426758L180.09030364379882,455.5227737426758L173.72670364379883,472.2299737426758L184.12250364379884,500.8859737426758L236.31170364379884,500.8859737426758Z" fill-rule="evenodd" fill="#000000" fill-opacity="1"/></g><g><path d="M246.9438185913086,438.6835396850586L241.6418685913086,424.0847396850586L279.3132685913086,424.0847396850586L284.61526859130856,438.6835396850586L246.9438185913086,438.6835396850586ZM258.3051685913086,469.9668396850586L253.0031685913086,455.3679396850586L290.6746685913086,455.3679396850586L295.9765685913086,469.9668396850586L258.3051685913086,469.9668396850586Z" fill-rule="evenodd" fill="#000000" fill-opacity="1"/></g></g><g transform="matrix(0.9688239693641663,-0.24775008857250214,0.24775008857250214,0.9688239693641663,-132.10470031178102,64.4415104676118)"><path d="M190,596.1265258789062Q200.25,662.0015258789062,226,713.6265258789062Q251.75,765.2515258789062,293,802.6265258789062L251.5,832.6265258789062L356,821.1265258789062L356,726.6265258789062L329.5,775.6265258789062Q298.125,750.8765258789062,278.5,697.6265258789062Q258.875,644.3765258789062,260.5,557.1265258789062L241,614.6265258789062L190,596.1265258789062Z" fill="#BC1314" fill-opacity="1"/><path d="M329.344,774.8645258789063Q298.4,750.1745258789063,278.9692,697.4535258789062Q259.3763,644.2893258789063,260.9999,557.1358365889063L261.0598,553.9189158789062L240.6905,613.9823258789063L189.376004,595.3683258789063L189.505945,596.2034258789063Q199.76792,662.1555258789062,225.55259999999998,713.8495258789062Q251.2024,765.2745258789063,292.20799999999997,802.5825258789063L249.6725,833.3305258789062L356.5,821.5745258789062L356.5,724.6505258789063L329.344,774.8645258789063ZM259.9475,560.3124358789063Q258.7339,645.4390258789062,278.0308,697.7995258789063Q297.703,751.1815258789063,329.19,776.0195258789063L329.65700000000004,776.3875258789062L355.5,728.6025258789062L355.5,820.6785258789063L253.3275,831.9225258789063L293.793,802.6705258789062L293.336,802.2555258789063Q252.1556,764.9445258789062,226.44740000000002,713.4035258789063Q200.8955,662.1755258789062,190.624753,596.8850258789063L241.3095,615.2707258789062L259.9475,560.3124358789063Z" fill-rule="evenodd" fill="#D8D8D8" fill-opacity="1"/></g><g><g><g><g><g><path d="M633.9830624389649,679L660.8220624389648,736.6715L660.8220624389648,798.668L509.17806243896484,798.668L509.17806243896484,736.6715L536.0181624389649,679L633.9830624389649,679ZM649.1930624389648,787.045L649.1930624389648,748.2949L520.8079624389649,748.2949L520.8079624389649,787.045L649.1930624389648,787.045ZM638.8290624389649,703.7132L638.8260624389649,703.7097C635.7190624389648,697.4915,628.1870624389649,691.9849,618.4500624389649,688.1058C617.7930624389649,687.84408,617.3110624389649,687.66208,617.2110624389649,687.62482C608.8134624389648,684.45638,598.0402624389649,682.16151,585.7175624389648,682.07484L585.7123624389649,682.07484C585.2397624389648,682.07311,585.0567624389648,682.07311,584.9995624389649,682.07311C584.7619624389648,682.07311,584.3474624389648,682.07484,584.2902624389649,682.07484L584.2850624389648,682.07484C571.9475624389648,682.16151,561.1769624389649,684.45898,552.7849624389648,687.62655C552.1441624389648,687.86661,551.6437624389648,688.06767,551.5458624389648,688.10754C541.8123624389649,691.9858,534.2804624389648,697.4924,531.1752624389649,703.7054L531.1735624389648,703.7088C531.0391624389648,703.9861,530.9897624389648,704.091,530.9749624389649,704.1239C530.9593624389648,704.1569,530.9090624389648,704.2643,530.7885624389648,704.5373L530.7868624389648,704.5399C527.7198624389648,711.6559,530.9966624389648,718.4417,539.6384624389649,723.7256C539.7355624389648,723.7863,540.2237624389649,724.0879,540.8758624389649,724.4536C550.9821624389648,730.1457,566.7777624389648,733.4572000000001,583.8844624389649,733.5958L583.8930624389649,733.5958C583.9815624389648,733.5958,584.6310624389648,733.5993,584.9995624389649,733.5993C585.3715624389648,733.5993,586.0062624389649,733.5958,586.0938624389648,733.5958L586.1025624389648,733.5958C603.2143624389648,733.4572000000001,619.0100624389648,730.1483,629.1200624389649,724.4536C629.7600624389648,724.0983,630.2630624389649,723.7863,630.3610624389648,723.7256C639.0020624389649,718.4417,642.2790624389648,711.6559,639.2150624389649,704.5434L639.2130624389648,704.5391C639.1980624389648,704.5061,639.0890624389649,704.2635,639.0250624389648,704.1239C639.0090624389649,704.091,638.9610624389649,703.987,638.8290624389649,703.7132ZM548.2151624389649,722.8252C550.2945624389648,721.9256,552.3487624389649,721.0295,554.3258624389648,720.1611C561.3061624389649,723.4292,570.9191624389648,725.4503,581.4113624389648,725.8272L581.3073624389649,729.8112C568.3793624389648,729.4108,556.5456624389649,726.914,548.2151624389649,722.8252ZM626.0170624389648,720.4055C623.3250624389649,719.2616,621.1630624389649,718.3334,619.9220624389649,717.7995C625.1430624389649,714.3312,627.5850624389649,710.0708,626.6790624389648,705.5617L633.4540624389648,705.5617C634.9840624389649,711.0172,632.2990624389648,716.198,626.0170624389648,720.4055ZM588.7056624389649,729.8103L588.6015624389648,725.8264C599.0929624389648,725.4485,608.7024624389649,723.4275,615.6820624389649,720.1568C618.3470624389648,721.3268,620.5390624389648,722.2784,621.7920624389649,722.8209C613.4620624389648,726.9131,601.6275624389648,729.4091,588.7056624389649,729.8103ZM562.4638624389648,705.5678L569.3123624389649,705.5678C569.5707624389648,706.4933,570.2384624389648,707.47,571.4298624389648,708.3835C569.0868624389649,709.4443,567.1610624389648,710.3066,566.1074624389648,710.778C563.8746624389648,709.2241,562.6380624389649,707.4241,562.4638624389648,705.5678ZM603.8985624389649,710.7728C601.5226624389649,709.7112,599.6123624389649,708.848,598.5605624389648,708.3714C599.7424624389648,707.4622,600.4075624389649,706.4873,600.6641624389648,705.5617L607.5352624389649,705.5617C607.3627624389649,707.4198,606.1287624389648,709.2198,603.8985624389649,710.7728ZM560.3939624389649,694.0683C562.1533624389648,694.9661,563.5971624389648,695.6959,564.3437624389649,696.072C560.7260624389648,697.9275,558.1368624389648,700.2267,556.9722624389649,702.7078L550.3439624389648,702.7078C551.9360624389649,699.4207,555.5111624389649,696.4186,560.3939624389649,694.0683ZM559.6855624389649,717.7935C561.6209624389649,716.9329,563.5364624389648,716.0758,565.3816624389649,715.243C569.7433624389648,717.0594,575.3874624389648,718.2502,581.6003624389648,718.5709L581.5024624389648,722.32C573.0886624389649,721.9664,565.4154624389648,720.3466,559.6855624389649,717.7935ZM582.2229624389648,694.2347L582.1475624389649,697.1154C580.1236624389649,697.2965,578.2489624389648,697.6709,576.6413624389648,698.1614C574.7136624389649,697.2359,573.1606624389649,696.4819,572.3507624389648,696.0884C575.1689624389649,695.1395,578.5281624389648,694.4626,582.2229624389648,694.2347ZM536.5428624389648,705.5678L543.3193624389648,705.5678C542.4149624389648,710.0778,544.8620624389648,714.3373,550.0838624389648,717.8047C547.4261624389649,718.9487,545.2400624389649,719.8795,543.9896624389648,720.4107C537.7038624389648,716.2032,535.0149624389649,711.0215000000001,536.5428624389648,705.5678ZM570.3823624389648,712.975C572.1877624389648,712.1508,573.9861624389648,711.324,575.7117624389648,710.525C577.4104624389648,711.0883,579.4768624389649,711.5285,581.7781624389648,711.7435L581.6862624389648,715.2724C577.3887624389648,714.9916,573.4962624389649,714.17,570.3823624389648,712.975ZM582.4840624389649,684.26398L582.4189624389649,686.73218C574.3286624389648,686.99304,567.0881624389649,688.46719,561.1873624389649,690.5714C559.5199624389649,689.7334,558.1715624389649,689.0496,557.5168624389648,688.71679C564.4139624389649,686.26506,572.9196624389648,684.52484,582.4840624389649,684.26398ZM614.5730624389648,715.483C612.0630624389648,714.3893,610.0470624389649,713.501,608.8905624389648,712.9906C612.1000624389649,710.8309,613.7810624389648,708.2552,613.7240624389649,705.5617L620.5170624389648,705.5617C620.9580624389648,709.1877,618.8580624389649,712.637,614.5730624389648,715.483ZM582.3582624389649,689.0574L582.2888624389649,691.7232C577.1589624389649,691.9684,572.4903624389649,692.9044,568.6091624389649,694.2598C566.8306624389649,693.3854,565.3955624389648,692.673,564.6489624389649,692.3021C569.6115624389648,690.5385,575.6553624389649,689.3148,582.3582624389649,689.0574ZM588.5105624389648,722.3191L588.4125624389649,718.57C594.6263624389649,718.2485,600.2687624389648,717.056,604.6269624389648,715.2395C606.4730624389648,716.0715,608.3876624389649,716.9294,610.3230624389648,717.7891C604.5974624389648,720.3431,596.9268624389648,721.9638,588.5105624389648,722.3191ZM597.6396624389648,696.085C595.7241624389649,697.0166,594.1520624389649,697.7723,593.3395624389649,698.1623C591.7284624389648,697.6709,589.8554624389649,697.2974,587.8402624389648,697.1154L587.7647624389648,694.2338C591.4700624389649,694.4618,594.8292624389649,695.1395,597.6396624389648,696.085ZM606.9863624389649,702.7027L600.2774624389649,702.7027C599.7987624389648,701.8317,598.9359624389649,700.9148,597.6170624389648,700.0681C599.5490624389648,699.1174,601.1046624389649,698.3434,601.9154624389648,697.9396C604.4587624389649,699.3505,606.1721624389648,701.0058,606.9863624389649,702.7027ZM632.2740624389648,702.7027L625.6640624389648,702.7027C623.6130624389648,698.6806,619.0750624389649,695.0589,613.0510624389649,692.2908C614.7140624389649,691.432,616.0570624389649,690.7317,616.7090624389648,690.3911C624.0370624389649,693.6168,629.6610624389648,697.9101,632.2740624389648,702.7027ZM612.4730624389648,688.71419C610.8160624389649,689.5566,609.4580624389648,690.2395,608.8029624389649,690.5688C602.9004624389648,688.46373,595.6608624389648,686.9913,587.5697624389649,686.73131L587.5055624389648,684.26398C597.0890624389649,684.52571,605.5903624389648,686.26766,612.4730624389648,688.71419ZM619.6520624389649,702.7027L613.0240624389648,702.7027C611.8570624389648,700.2215,609.2670624389648,697.9223,605.6483624389648,696.0676C607.4225624389649,695.1733,608.8524624389648,694.4444,609.5970624389648,694.064C614.4820624389648,696.4152,618.0590624389648,699.4155,619.6520624389649,702.7027ZM553.2809624389648,690.3946C554.9328624389649,691.2578,556.2872624389648,691.958,556.9393624389648,692.2943C550.9171624389649,695.0632,546.3812624389649,698.6858,544.3322624389648,702.7078L537.7212624389648,702.7078C540.3347624389648,697.9136,545.9554624389648,693.6202,553.2809624389648,690.3946ZM588.3258624389648,715.2715000000001L588.2339624389648,711.74C590.5309624389648,711.5225,592.5920624389648,711.0805,594.2864624389648,710.5172C596.0155624389648,711.3171,597.8173624389649,712.1456000000001,599.6262624389649,712.9706C596.5097624389648,714.1675,592.6163624389649,714.9899,588.3258624389648,715.2715000000001ZM568.0767624389648,697.9431C569.9843624389648,698.8946,571.5512624389648,699.6677,572.3611624389648,700.0663C571.0405624389648,700.913,570.1742624389649,701.8325,569.6947624389649,702.7078L563.0109624389648,702.7078C563.8251624389649,701.0084,565.5368624389648,699.3531,568.0767624389648,697.9431ZM605.3414624389649,692.2986C603.5759624389649,693.1765,602.1296624389648,693.8889,601.3812624389649,694.2564C597.4974624389648,692.9018,592.8279624389648,691.9676,587.6997624389649,691.7232L587.6303624389649,689.0574C594.3358624389648,689.3139,600.3788624389648,690.5359,605.3414624389649,692.2986ZM592.5175624389649,707.1728C592.4420624389649,707.2153,592.0579624389649,707.4328,591.5324624389648,707.6538C590.0279624389649,708.2899,587.9997624389648,708.7362,585.7123624389649,708.8133L585.6984624389648,708.8142C585.6412624389649,708.8159,585.3732624389648,708.8263,584.9873624389649,708.8263C584.9293624389649,708.8263,584.6431624389649,708.8263,584.2642624389648,708.8133L584.2616624389649,708.8133C581.9741624389649,708.7362,579.9441624389649,708.2899,578.4458624389648,707.6555L578.4440624389648,707.6546C577.9159624389648,707.4319,577.5327624389648,707.2153,577.4572624389648,707.1728C576.0568624389648,706.3746,575.3414624389649,705.4074,575.2781624389648,704.4533L575.2781624389648,704.4472C575.2755624389648,704.4212,575.2643624389648,704.299,575.2790624389648,704.1239C575.2807624389649,704.0979,575.2920624389649,703.9679,575.3328624389649,703.7964C575.5495624389648,702.8664,576.3898624389649,701.9322,577.8362624389648,701.1774C577.9125624389649,701.1375,578.3018624389648,700.9356,578.8212624389648,700.7302L578.8230624389648,700.7293C580.2867624389648,700.1478,582.1943624389648,699.7413,584.3162624389648,699.672C584.6708624389648,699.6599,584.9344624389648,699.6599,584.9882624389649,699.6599C585.3446624389649,699.6599,585.5822624389648,699.6685,585.6342624389648,699.6711L585.6463624389648,699.6711C587.7873624389648,699.7413,589.6915624389649,700.1495,591.1517624389649,700.7293L591.1535624389649,700.7293C591.6729624389649,700.9347,592.0640624389648,701.1375,592.1394624389649,701.1774C593.5858624389648,701.9322,594.4260624389649,702.8664,594.6419624389648,703.7955C594.6827624389648,703.9662,594.6940624389648,704.0979,594.6957624389648,704.1239C594.7104624389649,704.3007,594.7000624389649,704.416,594.6974624389649,704.4411L594.6974624389649,704.4472C594.6341624389648,705.4048,593.9205624389649,706.3729,592.5175624389649,707.1728ZM549.4811624389648,705.5678L556.2751624389648,705.5678C556.2204624389649,708.2613,557.9044624389649,710.8369,561.1154624389649,712.9958C558.6363624389649,714.0903,556.5994624389648,714.9795,555.4331624389648,715.4882C551.1452624389649,712.6413,549.0432624389648,709.1929,549.4811624389648,705.5678Z" fill-rule="evenodd" fill="#000000" fill-opacity="1"/></g></g><g><g><path d="M585.4826202392578,778.2824866699219L585.4826202392578,757.0575866699219L606.7194202392578,757.0575866699219L606.7194202392578,778.2824866699219L585.4826202392578,778.2824866699219ZM617.3373202392578,778.2824866699219L617.3373202392578,757.0575866699219L638.5741202392578,757.0575866699219L638.5741202392578,778.2824866699219L617.3373202392578,778.2824866699219Z" fill-rule="evenodd" fill="#000000" fill-opacity="1"/></g></g></g></g><g><g><g transform="matrix(0,1,-1,0,1319.2478256225586,322.5021743774414)"><g><path d="M518.8233256225586,840.856C519.3556256225586,841.3888,519.6544256225586,842.1122,519.6544256225586,842.8656C519.6544256225586,847.5531,519.6544256225586,864.815,519.6544256225586,868.5374C519.6544256225586,868.7256,519.5799256225586,868.9064,519.4468256225585,869.0394C519.3137256225586,869.1732,519.1331256225586,869.2478,518.9448256225586,869.2478C515.7041256225586,869.2478,502.3232056225586,869.2478,499.0819346225586,869.2478C498.6903856225586,869.2478,498.3728256225586,868.9299,498.3728256225586,868.5374C498.3728256225586,863.0324,498.3728256225586,827.24605,498.3728256225586,821.230177C498.3728256225586,821.086631,498.4589825225586,820.9568452,498.5915216225586,820.9017038C498.7240936225586,820.8473542,498.8765196225586,820.87739996,498.9781146225586,820.978773C501.9890956225586,823.99482,515.3440256225585,837.3712,518.8233256225586,840.856Z" fill-rule="evenodd" fill="#000000" fill-opacity="1"/></g></g><g transform="matrix(0,1,-1,0,1376.698127746582,265.05187225341797)"><g><path d="M640.9479277465821,894.0154C640.9479277465821,894.408,640.633127746582,894.7264,640.2410277465821,894.7264C634.022527746582,894.7264,588.859727746582,894.7264,580.966227746582,894.7264C580.214027746582,894.7264,579.492227746582,894.4269,578.959827746582,893.8935C575.265127746582,890.193,560.3489577465821,875.253,556.6542927465821,871.5518C556.121912746582,871.0189,555.823127746582,870.2959,555.823127746582,869.5423L555.823127746582,821.230081C555.823127746582,821.086614,555.909284646582,820.9568273,556.041823746582,820.9021733C556.174395746582,820.8469902,556.326821746582,820.87747642,556.428416746582,820.978894C559.439387746582,823.99472,572.794327746582,837.3713,576.2736277465821,840.8559C576.805927746582,841.3892,577.1047277465821,842.1118,577.1047277465821,842.8659C577.1047277465821,846.6658,577.1047277465821,858.5194,577.1047277465821,861.3014000000001C577.1047277465821,861.6782,577.254427746582,862.0398,577.5200277465821,862.3062C579.315427746582,864.1043999999999,586.395527746582,871.1955,588.190427746582,872.9938C588.4566277465821,873.2601999999999,588.817727746582,873.41,589.193827746582,873.41C594.521627746582,873.41,634.414627746582,873.41,640.2410277465821,873.41C640.428827746582,873.41,640.6110277465821,873.4853,640.743627746582,873.6182C640.876127746582,873.7517,640.9479277465821,873.9325,640.9479277465821,874.1206C640.9479277465821,877.3671,640.9479277465821,890.7694,640.9479277465821,894.0154Z" fill-rule="evenodd" fill="#000000" fill-opacity="1"/></g></g><g transform="matrix(0,1,-1,0,1540.874984741211,100.87501525878906)"><g><path d="M744.4692847412109,905.6363C744.1925847412109,905.9137000000001,743.743084741211,905.9137000000001,743.466384741211,905.6363C740.442784741211,902.6078,724.6484447412109,886.7877,720.831149741211,882.9647C720.2987697412109,882.4313,719.9999847412109,881.7088,719.9999847412109,880.9547C719.9999847412109,873.0491,719.9999847412109,827.8121,719.9999847412109,821.585468C719.9999847412109,821.192916,720.3175447412109,820.875,720.709093741211,820.875C723.9503647412109,820.875,737.331284741211,820.875,740.5719847412109,820.875C740.760284741211,820.875,740.940884741211,820.9496197,741.0739847412109,821.083095C741.2070847412109,821.216042,741.281584741211,821.39681,741.281584741211,821.585468C741.281584741211,827.42166,741.281584741211,867.3774,741.281584741211,872.7143C741.281584741211,873.0911,741.4312847412109,873.4527,741.696884741211,873.7191C743.4923847412109,875.5168,750.572384741211,882.6084,752.3672847412109,884.4067C752.633484741211,884.6731,752.9946847412109,884.8229,753.3706847412109,884.8229C755.384884741211,884.8229,762.014784741211,884.8229,764.3950847412109,884.8229C764.5386847412109,884.8229,764.665684741211,884.9091,764.7209847412109,885.042C764.776184741211,885.175,764.742984741211,885.3274,764.6435847412109,885.4293C761.528784741211,888.5513,747.3261847412109,902.7749,744.4692847412109,905.6363Z" fill-rule="evenodd" fill="#000000" fill-opacity="1"/></g></g><g transform="matrix(0,1,-1,0,1572.4383544921875,132.43838500976562)"><g><path d="M751.8683847412109,905.2824697509766C752.133384741211,905.0160697509766,752.2825847412109,904.6544697509765,752.2825847412109,904.2776697509765C752.2825847412109,898.9407697509765,752.2825847412109,858.9850297509765,752.2825847412109,853.1488377509766C752.2825847412109,852.9601797509765,752.3543847412109,852.7794107509766,752.4868847412109,852.6464647509765C752.6249847412109,852.5129895509766,752.8017847412109,852.4383697509766,752.989484741211,852.4383697509766C756.231284741211,852.4383697509766,769.612684741211,852.4383697509766,772.854484741211,852.4383697509766C773.246684741211,852.4383697509766,773.561384741211,852.7562857509765,773.561384741211,853.1488377509766C773.561384741211,859.3754697509765,773.561384741211,904.6124697509765,773.561384741211,912.5180697509766C773.561384741211,913.2721697509766,773.2631847412109,913.9946697509765,772.7329847412109,914.5280697509766C769.038384741211,918.2286697509766,754.121684741211,933.1690697509765,750.426884741211,936.8696697509765C749.891184741211,937.4024697509766,749.173284741211,937.7020697509765,748.4221847412109,937.7020697509765C743.5014847412109,937.7020697509765,724.612854741211,937.7020697509765,720.354893741211,937.7020697509765C720.211298741211,937.7020697509765,720.082063041211,937.6152697509766,720.026849841211,937.4828697509765C719.972175841211,937.3499697509766,720.0025465312109,937.1970697509765,720.1036027412109,937.0955697509766C724.250564741211,932.9420697509765,748.3945847412109,908.7586697509765,751.8683847412109,905.2824697509766Z" fill-rule="evenodd" fill="#000000" fill-opacity="1"/></g></g><g transform="matrix(0,1,-1,0,1422.4596699178219,219.87727245688438)"><g><path d="M686.1226987304688,879.3815711873531C686.1226987304688,879.7741711873531,685.8078987304688,880.0925711873531,685.4157987304687,880.0925711873531C679.1966987304687,880.0925711873531,634.0342987304688,880.0925711873531,626.1406987304688,880.0925711873531C625.3884987304688,880.0925711873531,624.6666987304687,879.7930711873531,624.1342987304688,879.2596711873531C620.3170987304687,875.4366711873531,604.5227687304688,859.6165711873531,601.4991247304688,856.5880711873531C601.2218788304688,856.3106711873531,601.2218788304688,855.8607711873532,601.4991247304688,855.5833711873531C604.3559887304688,852.7214711873531,618.5569987304688,838.4983711873531,621.6734987304687,835.3763711873531C621.7750987304687,835.2743711873532,621.9274987304688,835.2444711873532,622.0599987304688,835.2990711873531C622.1925987304687,835.3542711873531,622.2792987304688,835.4835711873532,622.2792987304688,835.6275711873532C622.2792987304688,838.0069711873531,622.2792987304688,844.6498711873531,622.2792987304688,846.6677711873531C622.2792987304688,847.0445711873531,622.4288987304687,847.4060711873532,622.6945987304688,847.6724711873532C624.4623987304687,849.4434711873531,631.3546987304687,856.3463711873532,633.2792987304688,858.2738711873532C633.5559987304688,858.5513711873531,634.0049987304687,858.5513711873531,634.2821987304687,858.2738711873532C636.2068987304688,856.3463711873532,643.1007987304688,849.4434711873531,644.8680987304688,847.6724711873532C645.1331987304687,847.4060711873532,645.2822987304687,847.0445711873531,645.2822987304687,846.6677711873531C645.2822987304687,843.2178711873531,645.2822987304687,825.6436111873531,645.2822987304687,821.8789391873531C645.2822987304687,821.4869321873531,645.6025987304688,821.1684711873531,645.9891987304687,821.1684711873531C649.2309987304687,821.1684711873531,662.6126987304688,821.1684711873531,665.8544987304688,821.1684711873531C666.2465987304688,821.1684711873531,666.5663987304688,821.4869321873531,666.5663987304688,821.8789391873531C666.5663987304688,826.2421711873532,666.5663987304688,849.3987711873531,666.5663987304688,854.9085711873531C666.5663987304688,855.6621711873531,666.2631987304687,856.3852711873532,665.7324987304687,856.9180711873531C665.3298987304688,857.3227711873532,664.8548987304688,857.8004711873531,664.4843987304688,858.1698711873531C664.3799987304687,858.2712711873531,664.3517987304688,858.4241711873532,664.4075987304687,858.5571711873531C664.4627987304688,858.6895711873532,664.5897987304687,858.7762711873531,664.7333987304687,858.7762711873531C668.3231987304688,858.7762711873531,682.1187987304687,858.7762711873531,685.4157987304687,858.7762711873531C685.8078987304688,858.7762711873531,686.1226987304688,859.0947711873531,686.1226987304688,859.4867711873532C686.1226987304688,862.7332711873531,686.1226987304688,876.1355711873531,686.1226987304688,879.3815711873531Z" fill-rule="evenodd" fill="#000000" fill-opacity="1"/></g></g><g transform="matrix(0,1,1,0,-246.8921356201172,246.8921356201172)"><g><path d="M658.4007643798828,853.2085C658.5885643798828,853.2085,658.7707643798828,853.2836,658.9033643798828,853.4166C659.0358643798828,853.5501,659.1076643798829,853.7308,659.1076643798829,853.919C659.1076643798829,857.1655,659.1076643798829,870.5678,659.1076643798829,873.8137C659.1076643798829,874.2062,658.7928643798828,874.5247,658.4007643798828,874.5247C652.1822643798828,874.5247,607.0194643798828,874.5247,599.1259643798828,874.5247C598.3737643798828,874.5247,597.6519643798828,874.2252,597.1195643798828,873.6918000000001C593.4248643798828,869.9913,578.5086943798829,855.0514000000001,574.8140293798829,851.3503C574.2816493798828,850.8175,573.9828643798828,850.0944,573.9828643798828,849.3408C573.9828643798828,844.4122,573.9828643798828,825.49532,573.9828643798828,821.230354C573.9828643798828,821.086375,574.0690212798828,820.9570853,574.2015603798828,820.9019183C574.3341323798828,820.8472644,574.4865583798828,820.87722139,574.5881533798828,820.979184C578.7351443798829,825.13217,602.8796643798828,849.3161,606.3501643798828,852.7923C606.6163643798828,853.0587,606.9774643798828,853.2085,607.3535643798828,853.2085C612.6813643798828,853.2085,652.5743643798828,853.2085,658.4007643798828,853.2085Z" fill-rule="evenodd" fill="#000000" fill-opacity="1"/></g></g></g></g></g><g transform="matrix(0.7954456210136414,0.606024980545044,-0.606024980545044,0.7954456210136414,438.86232295695663,-202.19960899392026)"><path d="M530.8242443359375,662.855L560.5188443359375,648.1036L556.0698443359375,639.1478L548.4960443359375,642.9103L556.1952443359376,621.1699L537.2305443359375,617.9763L560.4799443359375,608.5801L536.4353443359375,593.5988L566.6242443359375,593.5988L553.8562443359375,569.6376L581.3810443359375,588.8543L585.8650443359375,566.2083L592.4934443359375,582.2772L601.7378443359376,578.4638L582.4854443359375,531.7917L574.5465443359375,571.8867L525.4639843359375,537.6193L549.9645443359375,583.5988L501.4755443359375,583.5988L538.5097443359375,606.6735L500.6803443359375,621.9623L542.7945443359375,629.0541000000001L530.8242443359375,662.855Z" fill-rule="evenodd" fill="#BC1314" fill-opacity="1"/></g></g></svg>