<svg xmlns="http://www.w3.org/2000/svg" xmlns:xlink="http://www.w3.org/1999/xlink" fill="none" version="1.1" width="20"
    height="20" viewBox="0 0 20 20">
    <defs>
        <clipPath id="master_svg0_312_569">
            <rect x="0" y="0" width="20" height="20" rx="0" />
        </clipPath>
    </defs>
    <g clip-path="url(#master_svg0_312_569)">
        <g>
            <path
                d="M4.5524559765625,3.694166494140625C6.0645859765625,2.383880494140625,7.9991159765625,1.663872564140625,9.9999559765625,1.666664044060625C14.6024259765625,1.666664044060625,18.3333259765625,5.397496494140626,18.3333259765625,9.999996494140625C18.3333259765625,11.779956494140626,17.7749259765625,13.429956494140624,16.8249259765625,14.783356494140625L14.1666259765625,9.999996494140625L16.6666259765625,9.999996494140625C16.6668259765625,7.328276494140625,15.0720259765625,4.914476494140625,12.6142259765625,3.866766494140625C10.1565459765625,2.819056494140625,7.3107159765625,3.339826494140625,5.383295976562501,5.189996494140625L4.5524559765625,3.694166494140625ZM15.4474259765625,16.305856494140627C13.9353259765625,17.616156494140625,12.0008259765625,18.336156494140624,9.9999559765625,18.333356494140624C5.3974559765625,18.333356494140624,1.6666259765625,14.602456494140625,1.6666259765625,9.999996494140625C1.6666259765625,8.219996494140625,2.2249589765625,6.569996494140625,3.1749559765625,5.216666494140625L5.8332959765625,9.999996494140625L3.3332959765625,9.999996494140625C3.3330759765625,12.671756494140626,4.9279259765625,15.085556494140626,7.3856459765625,16.133256494140625C9.8433659765625,17.180956494140624,12.6892259765625,16.660156494140622,14.6166259765625,14.809956494140625L15.4474259765625,16.305856494140627Z"
                fill="#000000" fill-opacity="1" />
        </g>
    </g>
</svg>