<svg xmlns="http://www.w3.org/2000/svg" xmlns:xlink="http://www.w3.org/1999/xlink" fill="none" version="1.1" width="1295" height="29.995849609375" viewBox="0 0 1295 29.995849609375"><g><g transform="matrix(0,1,-1,0,520,-520)"><rect x="522.5" y="2.5" width="24.995834350585938" height="145" rx="0" fill-opacity="0" stroke-opacity="0.699999988079071" stroke="#FFFFFF" fill="none" stroke-width="5"/></g><g transform="matrix(0,1,-1,0,705,-705)"><rect x="705" y="0" width="29.995834350585938" height="150" rx="0" fill="#FFFFFF" fill-opacity="1"/></g><g transform="matrix(0,1,-1,0,891,-891)"><rect x="891" y="0" width="29.995834350585938" height="150" rx="0" fill="#FFFFFF" fill-opacity="1"/></g><g transform="matrix(0,1,-1,0,1076,-1076)"><rect x="1078.5" y="2.5" width="24.995834350585938" height="145" rx="0" fill-opacity="0" stroke-opacity="0.699999988079071" stroke="#FFFFFF" fill="none" stroke-width="5"/></g><g transform="matrix(0,1,-1,0,335,-335)"><rect x="335" y="0" width="29.995834350585938" height="150" rx="0" fill="#FFFFFF" fill-opacity="1"/></g><g transform="matrix(0,1,-1,0,150,-150)"><rect x="150" y="0" width="29.995834350585938" height="150" rx="0" fill="#FFFFFF" fill-opacity="1"/></g><g transform="matrix(0,1,-1,0,1295,-1295)"><rect x="1295" y="0" width="29.995834350585938" height="184" rx="0" fill="#FFFFFF" fill-opacity="1"/></g></g></svg>