<svg xmlns="http://www.w3.org/2000/svg" xmlns:xlink="http://www.w3.org/1999/xlink" fill="none" version="1.1"
    width="1989.7921142578125" height="268.7039794921875" viewBox="0 0 1989.7921142578125 268.7039794921875">
    <g>
        <g>
            <path
                d="M263.808,226.65599853515624Q256.608,241.63199853515624,241.344,250.70399853515624Q226.08,259.77599853515625,209.088,259.1999985351563L136.224,259.1999985351563Q120.672,259.1999985351563,110.304,248.83199853515626Q102.528,241.05599853515625,100.368,231.55199853515626Q98.208,222.04799853515624,98.208,215.99999853515624L98.208,106.27199853515626L85.248,109.15199853515625L79.776,84.67199853515625L98.208,80.63999853515625L98.208,22.17599853515625L123.552,22.17599853515625L123.552,75.45599853515625L158.112,67.96799853515626L158.112,9.215998535156249L183.168,9.215998535156249L183.168,62.78399853515625L232.992,52.12799853515625Q238.752,51.26399853515625,243.648,54.71999853515625Q245.664,56.44799853515625,246.96,59.03999853515625Q248.256,61.63199853515625,248.256,64.22399853515626L248.256,163.87199853515625Q248.256,177.69599853515626,240.192,187.19999853515625Q232.128,196.70399853515624,221.184,201.45599853515625Q210.24,206.20799853515626,200.16,207.35999853515625L197.568,182.30399853515624Q208.224,180.28799853515625,215.28,176.25599853515624Q222.336,172.22399853515626,222.912,163.87199853515625L222.912,79.77599853515625L183.168,88.12799853515625L183.168,208.51199853515624L158.112,208.51199853515624L158.112,93.59999853515625L123.552,101.08799853515625L123.552,216.28799853515625Q123.552,219.45599853515625,124.704,223.91999853515625Q125.856,228.38399853515625,128.16,231.26399853515625Q128.448,231.55199853515626,130.32,232.70399853515624Q132.192,233.85599853515626,136.224,233.85599853515626L209.088,233.85599853515626Q218.88,234.14399853515624,227.52,229.53599853515624Q236.16,224.92799853515626,240.48,216.57599853515626L263.808,226.65599853515624ZM52.704,209.95199853515626Q65.664,204.47999853515626,76.32,197.85599853515626L89.568,219.45599853515625Q52.992,241.34399853515626,4.608,251.42399853515624L0,226.65599853515624Q15.264,223.19999853515625,27.648,219.45599853515625L27.648,89.85599853515625L2.304,89.85599853515625L2.304,64.22399853515626L27.648,64.22399853515626L27.648,12.096008535156251L52.704,12.096008535156251L52.704,64.22399853515626L78.048,64.22399853515626L78.048,89.85599853515625L52.704,89.85599853515625L52.704,209.95199853515626ZM475.488,101.08799853515625Q504.288,171.64799853515626,551.52,204.76799853515624L537.12,225.50399853515626Q501.408,200.44799853515624,475.488,157.53599853515624L475.488,220.31999853515626Q475.488,233.85599853515626,467.136,242.92799853515626Q458.784,251.99999853515624,446.976,256.3199985351563Q435.168,260.6399985351562,423.936,261.50399853515626L422.208,236.15999853515626Q423.36,235.87199853515625,431.136,234.71999853515624Q438.912,233.56799853515625,444.096,229.82399853515625Q449.28,226.07999853515625,450.432,220.31999853515626L450.432,166.46399853515624Q438.912,181.72799853515625,424.8,194.68799853515625Q410.688,207.64799853515626,391.68,222.33599853515625L377.28,201.88799853515624Q395.424,187.48799853515624,408.96,174.95999853515625Q422.496,162.43199853515625,432.864,148.03199853515625L450.432,160.70399853515624L450.432,71.71199853515625L384.48,71.71199853515625L384.48,46.36799853515625L450.432,46.36799853515625L450.432,10.07999853515625L475.488,10.07999853515625L475.488,46.36799853515625L505.152,46.36799853515625L492.768,16.99199853515625L516.384,7.20001253515625L529.344,39.45599853515625L511.776,46.36799853515625L550.08,46.36799853515625L550.08,71.71199853515625L475.488,71.71199853515625L475.488,101.08799853515625ZM345.6,207.35999853515625Q355.968,202.75199853515625,364.896,197.56799853515625L377.856,218.87999853515626Q339.84,241.63199853515624,291.744,249.40799853515625L288,224.35199853515624Q303.552,221.75999853515626,320.544,216.86399853515624L320.544,132.19199853515624L292.32,132.19199853515624L292.32,107.13599853515625L320.544,107.13599853515625L320.544,50.68799853515625L292.32,50.68799853515625L292.32,25.34399853515625L374.112,25.34399853515625L374.112,50.68799853515625L345.6,50.68799853515625L345.6,107.13599853515625L371.52,107.13599853515625L371.52,132.19199853515624L345.6,132.19199853515624L345.6,207.35999853515625ZM490.752,126.14399853515626L522.144,81.21599853515625L542.88,95.32799853515625L511.776,140.54399853515625L490.752,126.14399853515626ZM430.848,132.47999853515626L406.944,140.83199853515626L389.664,89.85599853515625L413.568,81.79199853515625L430.848,132.47999853515626ZM771.84,146.59199853515625Q775.584,165.31199853515625,785.52,182.15999853515626Q795.456,199.00799853515625,807.84,212.83199853515626Q820.224,226.65599853515624,838.08,243.64799853515626L821.952,262.94399853515625Q800.352,243.35999853515625,784.08,223.77599853515625Q767.808,204.19199853515624,757.728,182.87999853515626Q747.648,204.19199853515624,731.088,223.77599853515625Q714.528,243.35999853515625,692.928,262.94399853515625L676.8,243.64799853515626Q703.584,218.59199853515625,720.864,195.83999853515624Q738.144,173.08799853515626,743.328,146.59199853515625L685.152,146.59199853515625L685.152,121.53599853515625L745.056,121.53599853515625L745.056,65.66399853515625L692.64,65.66399853515625L692.64,40.31999853515625L713.664,40.31999853515625L702.72,17.279998535156253L725.472,6.33599853515625L741.6,40.31999853515625L775.296,40.31999853515625L791.136,6.33599853515625L813.888,17.279998535156253L803.232,40.31999853515625L827.424,40.31999853515625L827.424,65.66399853515625L770.112,65.66399853515625L770.112,121.53599853515625L835.2,121.53599853515625L835.2,146.59199853515625L771.84,146.59199853515625ZM675.36,213.40799853515625L675.36,262.36799853515623L650.304,262.36799853515623L650.304,218.59199853515625Q628.416,222.33599853515625,609.12,222.33599853515625L578.016,222.33599853515625L578.016,196.70399853515624L590.4,196.70399853515624L590.4,42.62399853515625L579.168,42.62399853515625L579.168,17.56799853515625L687.456,17.56799853515625L687.456,42.62399853515625L675.36,42.62399853515625L675.36,187.19999853515625L684.288,184.60799853515624L692.64,208.22399853515626L675.36,213.40799853515625ZM615.456,42.62399853515625L615.456,73.15199853515625L650.304,73.15199853515625L650.304,42.62399853515625L615.456,42.62399853515625ZM615.456,135.35999853515625L650.304,135.35999853515625L650.304,98.49599853515625L615.456,98.49599853515625L615.456,135.35999853515625ZM615.456,196.41599853515626Q631.008,196.12799853515625,650.304,192.67199853515626L650.304,160.70399853515624L615.456,160.70399853515624L615.456,196.41599853515626ZM1044.86,15.84000853515625Q1082.02,72.57599853515624,1126.08,97.05599853515625L1113.98,119.23199853515625Q1086.05,104.25599853515625,1063.87,80.35199853515626Q1041.7,56.44799853515625,1027.3,35.13599853515625L965.088,35.13599853515625Q950.976,56.15999853515625,928.512,80.20799853515625Q906.048,104.25599853515625,878.112,119.23199853515625L866.016,97.05599853515625Q910.368,72.57599853515624,947.52,15.84000853515625Q949.248,13.247998535156249,952.128,11.66399853515625Q955.008,10.07999853515625,958.176,10.07999853515625L1033.92,10.07999853515625Q1037.09,10.07999853515625,1040.11,11.66399853515625Q1043.14,13.247998535156249,1044.86,15.84000853515625ZM1076.26,120.67199853515625L914.688,120.67199853515625L914.688,95.32799853515625L1076.26,95.32799853515625L1076.26,120.67199853515625ZM1076.26,146.87999853515626Q1081.73,146.87999853515626,1085.33,150.47999853515626Q1088.93,154.07999853515625,1088.93,159.26399853515625L1088.93,258.9119985351563L1063.87,258.9119985351563L1063.87,247.10399853515625L925.92,247.10399853515625L925.92,258.9119985351563L900.576,258.9119985351563L900.576,159.26399853515625Q900.576,154.07999853515625,904.176,150.47999853515626Q907.776,146.87999853515626,912.96,146.87999853515626L1076.26,146.87999853515626ZM1063.87,221.47199853515625L1063.87,171.93599853515624L925.92,171.93599853515624L925.92,221.47199853515625L1063.87,221.47199853515625Z"
                fill="#000000" fill-opacity="1" />
        </g>
        <g>
            <path
                d="M1262.88008203125,44.352Q1248.76808203125,62.496,1233.50408203125,76.608L1216.80008203125,57.6Q1243.58408203125,33.696,1260.86408203125,0L1283.61608203125,10.656Q1280.73608203125,16.416,1279.00808203125,19.296L1392.19208203125,19.296Q1395.36008203125,19.296,1398.24008203125,20.88Q1401.12008203125,22.464,1402.84808203125,24.768Q1404.86408203125,27.648,1404.86408203125,31.68Q1404.86408203125,34.56,1403.71208203125,36.864L1388.4480820312501,72.288L1365.40808203125,62.208L1372.89608203125,44.352L1262.88008203125,44.352ZM1184.25608203125,52.704L1166.40008203125,15.552L1188.86408203125,4.608L1207.00808203125,41.76L1184.25608203125,52.704ZM1310.97608203125,93.024Q1294.84808203125,108,1269.21608203125,116.496Q1243.58408203125,124.992,1221.40808203125,129.312L1216.80008203125,104.256Q1235.23208203125,101.088,1254.81608203125,94.608Q1274.40008203125,88.128,1287.50408203125,79.92Q1300.60808203125,71.712,1300.60808203125,63.936L1300.60808203125,48.96L1325.66408203125,48.96L1325.66408203125,63.936Q1325.66408203125,67.968,1324.80008203125,71.424L1410.33608203125,105.984L1400.83208203125,129.6L1310.97608203125,93.024ZM1210.17608203125,65.664Q1201.82408203125,86.112,1194.48008203125,101.952Q1187.13608203125,117.792,1178.20808203125,131.904L1157.18408203125,118.368Q1165.53608203125,105.12,1172.01608203125,91.008Q1178.49608203125,76.896,1186.56008203125,56.736L1210.17608203125,65.664ZM1351.58408203125,218.016L1351.58408203125,155.52L1213.34408203125,155.52L1213.34408203125,218.016L1188.28808203125,218.016L1188.28808203125,142.848Q1188.28808203125,137.664,1191.88808203125,133.92Q1195.48808203125,130.176,1200.67208203125,130.176L1363.96808203125,130.176Q1369.44008203125,130.176,1373.04008203125,133.92Q1376.64008203125,137.664,1376.64008203125,142.848L1376.64008203125,218.016L1351.58408203125,218.016ZM1295.13608203125,191.232Q1295.13608203125,194.688,1294.84808203125,196.128L1406.88008203125,245.376L1396.51208203125,268.704L1283.61608203125,218.304Q1265.47208203125,238.176,1230.33608203125,249.408Q1195.20008203125,260.64,1166.40008203125,265.536L1162.08008203125,240.48Q1185.69608203125,236.736,1210.89608203125,228.816Q1236.09608203125,220.896,1252.94408203125,210.816Q1269.79208203125,200.736,1269.79208203125,191.232L1269.79208203125,164.736L1295.13608203125,164.736L1295.13608203125,191.232ZM1469.37608203125,65.664L1444.60808203125,12.96L1467.64808203125,2.304L1492.12808203125,55.008L1469.37608203125,65.664ZM1631.23208203125,168.48L1631.23208203125,226.656Q1631.23208203125,245.088,1615.39208203125,254.016Q1599.55208203125,262.944,1584.86408203125,266.688L1579.39208203125,241.92Q1589.18408203125,239.616,1597.5360820312499,235.008Q1605.88808203125,230.4,1605.88808203125,226.656L1605.88808203125,168.48L1566.72008203125,168.48Q1561.24808203125,168.48,1557.64808203125,164.88Q1554.04808203125,161.28,1554.04808203125,156.096L1554.04808203125,70.56Q1554.04808203125,65.376,1557.64808203125,61.632Q1561.24808203125,57.888,1566.72008203125,57.888L1586.0160820312499,57.888L1592.9280820312501,38.016L1537.05608203125,38.016L1537.05608203125,158.112Q1536.19208203125,209.088,1512.57608203125,259.776L1490.1120820312499,248.832Q1511.71208203125,201.024,1512.00008203125,158.112L1512.00008203125,25.344Q1512.00008203125,19.872,1515.60008203125,16.272Q1519.20008203125,12.672,1524.67208203125,12.672L1695.74408203125,12.672L1695.74408203125,38.016L1619.42408203125,38.016L1612.80008203125,57.888L1670.97608203125,57.888Q1676.16008203125,57.888,1679.90408203125,61.632Q1683.64808203125,65.376,1683.64808203125,70.56L1683.64808203125,156.096Q1683.64808203125,161.28,1679.90408203125,164.88Q1676.16008203125,168.48,1670.68808203125,168.48L1631.23208203125,168.48ZM1469.37608203125,136.512L1444.60808203125,83.808L1467.64808203125,73.152L1492.12808203125,125.568L1469.37608203125,136.512ZM1579.10408203125,83.232L1579.10408203125,100.8L1658.0160820312499,100.8L1658.0160820312499,83.232L1579.10408203125,83.232ZM1579.10408203125,143.424L1658.0160820312499,143.424L1658.0160820312499,125.856L1579.10408203125,125.856L1579.10408203125,143.424ZM1492.99208203125,147.744Q1486.36808203125,206.496,1463.90408203125,259.488L1440.86408203125,249.408Q1460.7360820312501,201.312,1468.22408203125,145.152L1492.99208203125,147.744ZM1591.77608203125,185.184Q1581.12008203125,222.048,1554.33608203125,252.864L1535.61608203125,236.16Q1557.50408203125,210.816,1567.29608203125,178.848L1591.77608203125,185.184ZM1671.26408203125,178.848Q1680.7680820312498,209.952,1702.94408203125,236.16L1684.22408203125,252.864Q1658.30408203125,223.2,1646.78408203125,185.184L1671.26408203125,178.848ZM1921.8240820312499,78.624L1921.8240820312499,124.992L1967.04008203125,124.992Q1972.22408203125,124.992,1975.8240820312499,128.592Q1979.42408203125,132.192,1979.42408203125,137.376L1979.42408203125,258.336L1954.36808203125,258.336L1954.36808203125,252.864L1872.8640820312498,252.864L1872.8640820312498,258.336L1847.80808203125,258.336L1847.80808203125,137.376Q1847.80808203125,132.192,1851.4080820312502,128.592Q1855.00808203125,124.992,1860.19208203125,124.992L1896.7680820312498,124.992L1896.7680820312498,10.656L1921.8240820312499,10.656L1921.8240820312499,53.28L1989.79208203125,53.28L1989.79208203125,78.624L1921.8240820312499,78.624ZM1838.30408203125,65.952L1732.32008203125,65.952L1732.32008203125,40.32L1770.62408203125,40.32L1762.84808203125,19.584L1786.75208203125,10.944L1797.4080820312502,40.32L1838.30408203125,40.32L1838.30408203125,65.952ZM1810.94408203125,214.848Q1823.61608203125,210.24,1831.96808203125,205.92L1844.6400820312501,227.808Q1826.20808203125,237.888,1804.32008203125,242.928Q1782.43208203125,247.968,1759.68008203125,247.968L1729.7280820312499,247.968L1729.7280820312499,222.624L1759.68008203125,222.624Q1771.77608203125,222.624,1783.00808203125,220.896Q1791.93608203125,188.928,1796.68808203125,155.664Q1801.4400820312499,122.4,1804.89608203125,80.064L1830.24008203125,81.792Q1826.49608203125,123.552,1822.32008203125,154.512Q1818.14408203125,185.472,1810.94408203125,214.848ZM1739.80808203125,86.688L1764.57608203125,83.808L1779.84008203125,207.648L1754.49608203125,210.528L1739.80808203125,86.688ZM1954.36808203125,150.048L1872.8640820312498,150.048L1872.8640820312498,227.52L1954.36808203125,227.52L1954.36808203125,150.048Z"
                fill="#EC2021" fill-opacity="1" />
        </g>
    </g>
</svg>