<svg xmlns="http://www.w3.org/2000/svg" xmlns:xlink="http://www.w3.org/1999/xlink" fill="none" version="1.1" width="1982.6639404296875" height="153.74581909179688" viewBox="0 0 1982.6639404296875 153.74581909179688"><g><path d="M0,2.79481L0.1005,2.79481Q0.204141,2.79481,0.405141,2.79481L24.522,2.79481L24.522,2.89531Q24.522,2.99582,24.522,3.19682L24.522,94.7083Q24.522,105.342,28.5546,113.269Q32.5871,121.196,39.7446,125.512Q46.9052,129.827,56.1795,129.827Q65.4538,129.827,72.7118,125.6Q79.9729,121.372,83.9049,113.32Q87.837,105.267,87.837,94.5953L87.837,2.79481L87.9375,2.79481Q88.0411,2.79481,88.2421,2.79481L112.56,2.79481L112.56,2.89531Q112.56,2.99582,112.56,3.19682L112.56,94.7303Q112.56,110.788,104.834,124.34Q97.1113,137.889,84.1688,145.819Q71.2262,153.746,56.1795,153.746Q40.9318,153.746,27.9893,145.797Q15.0467,137.845,7.5218,124.262Q0,110.675,0,94.5733L0,2.79481ZM231.753,2.79481L231.854,2.79481Q231.957,2.79481,232.158,2.79481L256.275,2.79481L256.275,2.89531Q256.275,2.99582,256.275,3.19682L256.275,151.334L256.174,151.334Q256.077,151.334,255.876,151.334L234.768,151.334Q234.567,151.334,234.366,151.334Q234.165,151.334,234.165,151.133L168.036,47.6178L168.036,151.334L167.936,151.334Q167.835,151.334,167.631,151.334L143.514,151.334L143.514,151.233Q143.514,151.133,143.514,150.932L143.514,2.79481L143.611,2.79481Q143.712,2.79481,143.913,2.79481L164.82,2.79481Q165.021,2.79481,165.222,2.79481Q165.423,2.79481,165.423,2.99582L231.753,106.511L231.753,2.79481ZM311.55,151.334L311.45,151.334Q311.349,151.334,311.148,151.334L287.229,151.334L287.229,151.233Q287.229,151.133,287.229,150.932L287.229,2.79481L287.33,2.79481Q287.43,2.79481,287.631,2.79481L311.55,2.79481L311.55,2.89531Q311.55,2.99582,311.55,3.19682L311.55,151.334ZM395.769,151.334L395.665,151.334Q395.565,151.334,395.364,151.334L371.046,151.334L371.046,151.233Q371.046,151.133,371.046,150.932L371.046,13.6488L395.769,13.6488L395.769,151.334ZM436.17,2.79481L436.17,2.89531Q436.17,2.99582,436.17,3.19682L436.17,26.3118L436.07,26.3118Q435.969,26.3118,435.768,26.3118L330.243,26.3118L330.243,26.2113Q330.243,26.1108,330.243,25.9098L330.243,2.79481L330.344,2.79481Q330.444,2.79481,330.645,2.79481L436.17,2.79481ZM454.863,151.535L454.863,151.434Q454.863,151.334,454.863,151.133L454.863,2.79481L454.96,2.79481Q455.061,2.79481,455.262,2.79481L479.385,2.79481L479.385,151.535L454.863,151.535ZM544.71,2.59381L544.71,2.69746Q544.71,2.79795,544.71,2.99896L544.71,26.3118L544.609,26.3118Q544.509,26.3118,544.308,26.3118L467.124,26.3118L467.124,2.59381L544.71,2.59381ZM544.71,127.616L544.71,127.719Q544.71,127.82,544.71,128.021L544.71,151.334L544.609,151.334Q544.509,151.334,544.308,151.334L467.124,151.334L467.124,127.616L544.71,127.616ZM538.077,65.9088L538.077,66.0125Q538.077,66.113,538.077,66.3139L538.077,87.8178L537.977,87.8178Q537.876,87.8178,537.675,87.8178L467.124,87.8178L467.124,65.9088L538.077,65.9088ZM571.041,151.535L571.041,151.434Q571.041,151.334,571.041,151.133L571.041,2.79481L571.138,2.79481Q571.239,2.79481,571.44,2.79481L595.563,2.79481L595.563,151.535L571.041,151.535ZM583.905,127.616L620.286,127.616Q635.763,127.616,646.316,121.184Q656.868,114.752,662.094,103.395Q667.32,92.0388,667.32,77.1648Q667.32,61.8888,662.195,50.5323Q657.069,39.1758,646.517,32.8443Q635.964,26.5128,620.286,26.5128L583.905,26.5128L583.905,2.59381L620.286,2.59381Q642.597,2.59381,658.878,12.8448Q675.159,23.0958,683.601,40.1808Q692.043,57.2658,692.043,77.1648Q692.043,96.6618,683.601,113.747Q675.159,130.832,658.878,141.183Q642.597,151.535,620.286,151.535L583.905,151.535L583.905,127.616ZM784.302,151.535L784.302,151.434Q784.302,151.334,784.302,151.133L784.302,2.79481L784.399,2.79481Q784.5,2.79481,784.701,2.79481L808.824,2.79481L808.824,151.535L784.302,151.535ZM874.149,2.59381L874.149,2.69746Q874.149,2.79795,874.149,2.99896L874.149,26.3118L874.049,26.3118Q873.948,26.3118,873.747,26.3118L796.563,26.3118L796.563,2.59381L874.149,2.59381ZM874.149,127.616L874.149,127.719Q874.149,127.82,874.149,128.021L874.149,151.334L874.049,151.334Q873.948,151.334,873.747,151.334L796.563,151.334L796.563,127.616L874.149,127.616ZM867.516,65.9088L867.516,66.0125Q867.516,66.113,867.516,66.3139L867.516,87.8178L867.416,87.8178Q867.315,87.8178,867.114,87.8178L796.563,87.8178L796.563,65.9088L867.516,65.9088ZM1018.27,151.334L1018.06,151.334L992.739,151.334Q992.337,151.334,992.237,151.233Q992.136,151.133,992.136,150.932L946.308,26.5128L956.76,26.5128L910.932,151.334L910.831,151.334Q910.731,151.334,910.329,151.334L885.003,151.334Q884.802,151.334,884.802,151.233Q884.802,151.133,884.802,150.932L939.273,2.79481L939.675,2.79481L963.192,2.79481Q963.795,2.79481,963.795,3.19682L1018.27,151.334ZM985.101,87.8178L985.101,111.938L917.967,111.938L917.967,87.8178L985.101,87.8178ZM1058.06,151.334L1057.96,151.334Q1057.86,151.334,1057.66,151.334L1033.54,151.334L1033.54,151.233Q1033.54,151.133,1033.54,150.932L1033.54,2.79481L1033.64,2.79481Q1033.74,2.79481,1033.94,2.79481L1058.06,2.79481L1058.06,151.334ZM1045.8,68.5218L1082.79,68.5218Q1090.02,68.5218,1095.25,65.7078Q1100.47,62.8938,1103.19,58.0698Q1105.9,53.2458,1105.9,47.2158Q1105.9,41.5878,1103.19,36.8643Q1100.47,32.1408,1095.25,29.3268Q1090.02,26.5128,1082.79,26.5128L1050.02,26.5128L1050.02,2.59381L1082.79,2.59381Q1096.25,2.59381,1107.21,9.02581Q1118.16,15.4578,1124.39,25.8093Q1130.62,36.1608,1130.62,47.4168Q1130.62,58.4718,1124.39,68.8233Q1118.16,79.1748,1107.21,85.8078Q1096.25,92.4408,1082.79,92.4408L1045.8,92.4408L1045.8,68.5218ZM1097.06,79.7778L1138.06,151.334Q1138.26,151.334,1138.06,151.334Q1137.86,151.334,1137.66,151.334L1110.12,151.334Q1109.92,151.334,1109.82,151.334Q1109.72,151.334,1109.72,151.133L1072.33,79.7778L1097.06,79.7778ZM1213.84,151.334L1213.74,151.334Q1213.63,151.334,1213.43,151.334L1189.12,151.334L1189.12,151.233Q1189.12,151.133,1189.12,150.932L1189.12,13.6488L1213.84,13.6488L1213.84,151.334ZM1254.24,2.79481L1254.24,2.89531Q1254.24,2.99582,1254.24,3.19682L1254.24,26.3118L1254.14,26.3118Q1254.04,26.3118,1253.84,26.3118L1148.31,26.3118L1148.31,26.2113Q1148.31,26.1108,1148.31,25.9098L1148.31,2.79481L1148.41,2.79481Q1148.51,2.79481,1148.71,2.79481L1254.24,2.79481ZM1297.25,151.334L1297.15,151.334Q1297.05,151.334,1296.85,151.334L1272.93,151.334L1272.93,151.233Q1272.93,151.133,1272.93,150.932L1272.93,2.79481L1273.03,2.79481Q1273.13,2.79481,1273.33,2.79481L1297.25,2.79481L1297.25,2.89531Q1297.25,2.99582,1297.25,3.19682L1297.25,151.334ZM1390.72,151.334L1390.62,151.334Q1390.52,151.334,1390.32,151.334L1366.4,151.334L1366.4,151.233Q1366.4,151.133,1366.4,150.932L1366.4,2.79481L1366.5,2.79481Q1366.6,2.79481,1366.8,2.79481L1390.72,2.79481L1390.72,2.89531Q1390.72,2.99582,1390.72,3.19682L1390.72,151.334ZM1378.86,86.6118L1285.39,86.6118L1285.39,62.4918L1378.86,62.4918L1378.86,86.6118ZM1514.13,151.334L1514.03,151.334Q1513.93,151.334,1513.73,151.334L1489.61,151.334L1489.61,151.233Q1489.61,151.133,1489.61,150.932L1489.61,2.79481L1489.71,2.79481Q1489.81,2.79481,1490.01,2.79481L1514.13,2.79481L1514.13,151.334ZM1579.46,2.59381L1579.46,2.69746Q1579.46,2.79795,1579.46,2.99896L1579.46,26.3118L1579.36,26.3118Q1579.26,26.3118,1579.06,26.3118L1501.87,26.3118L1501.87,2.59381L1579.46,2.59381ZM1572.82,64.9038L1572.82,65.0075Q1572.82,65.108,1572.82,65.309L1572.82,88.8228L1572.72,88.8228Q1572.62,88.8228,1572.42,88.8228L1501.87,88.8228L1501.87,64.9038L1572.82,64.9038ZM1626.49,151.334L1626.39,151.334Q1626.29,151.334,1626.09,151.334L1602.17,151.334L1602.17,151.233Q1602.17,151.133,1602.17,150.932L1602.17,2.79481L1602.27,2.79481Q1602.37,2.79481,1602.57,2.79481L1626.49,2.79481L1626.49,2.89531Q1626.49,2.99582,1626.49,3.19682L1626.49,151.334ZM1657.45,151.535L1657.45,151.434Q1657.45,151.334,1657.45,151.133L1657.45,2.79481L1657.55,2.79481Q1657.65,2.79481,1657.85,2.79481L1681.77,2.79481L1681.77,2.89531Q1681.77,2.99582,1681.77,3.19682L1681.77,151.535L1657.45,151.535ZM1746.29,127.616L1746.29,127.719Q1746.29,127.82,1746.29,128.021L1746.29,151.334L1746.19,151.334Q1746.09,151.334,1745.89,151.334L1673.12,151.334L1673.12,127.616L1746.29,127.616ZM1763.98,151.535L1763.98,151.434Q1763.98,151.334,1763.98,151.133L1763.98,2.79481L1764.07,2.79481Q1764.17,2.79481,1764.37,2.79481L1788.5,2.79481L1788.5,151.535L1763.98,151.535ZM1853.82,2.59381L1853.82,2.69746Q1853.82,2.79795,1853.82,2.99896L1853.82,26.3118L1853.72,26.3118Q1853.62,26.3118,1853.42,26.3118L1776.24,26.3118L1776.24,2.59381L1853.82,2.59381ZM1853.82,127.616L1853.82,127.719Q1853.82,127.82,1853.82,128.021L1853.82,151.334L1853.72,151.334Q1853.62,151.334,1853.42,151.334L1776.24,151.334L1776.24,127.616L1853.82,127.616ZM1847.19,65.9088L1847.19,66.0125Q1847.19,66.113,1847.19,66.3139L1847.19,87.8178L1847.09,87.8178Q1846.99,87.8178,1846.79,87.8178L1776.24,87.8178L1776.24,65.9088L1847.19,65.9088ZM1871.31,110.33Q1871.31,110.129,1871.41,110.028Q1871.51,109.928,1871.71,109.928L1895.43,106.712Q1895.63,106.712,1895.73,106.812Q1895.83,106.913,1895.83,107.114Q1898.05,119.375,1909.04,126.108Q1920.03,132.842,1933.04,131.133Q1946.04,129.425,1953.51,118.973Q1957.54,113.144,1957.54,106.913Q1957.54,100.682,1953.83,95.7573Q1950.12,90.8328,1943.5,88.6218Q1938.69,87.2148,1925.26,85.2048Q1922.65,85.0038,1911.43,83.1948Q1896.79,80.5818,1887.77,68.8233Q1878.75,57.0648,1878.75,42.0903Q1878.75,27.1158,1889,15.8598Q1900.66,2.79481,1918.65,0.483318Q1936.64,-1.82819,1952.92,6.91531Q1969.2,15.6588,1976.63,33.5478Q1976.83,33.7488,1976.73,33.8493Q1976.63,33.9498,1976.43,34.1508L1954.52,42.7938Q1954.32,42.9948,1954.22,42.8943Q1954.12,42.7938,1953.92,42.5928Q1949.28,31.9398,1940.8,26.8143Q1932.33,21.6888,1923.25,22.9953Q1914.17,24.3018,1907.31,31.7388Q1902.67,36.7638,1902.67,43.1958Q1902.67,49.6278,1906.76,54.7533Q1910.87,59.8788,1917.67,61.6878Q1920.27,62.2908,1923.66,62.7933Q1927.07,63.2958,1930.66,63.6978Q1944.46,64.9038,1951.86,67.5168Q1967.06,72.7428,1974.86,83.5968Q1982.66,94.4508,1982.66,107.717Q1982.66,120.983,1974.4,132.641Q1961.91,150.329,1938.44,153.143Q1914.97,155.957,1894.95,144.098Q1874.93,132.239,1871.31,110.33Z" fill="#FFFFFF" fill-opacity="1"/></g></svg>