<svg xmlns="http://www.w3.org/2000/svg" xmlns:xlink="http://www.w3.org/1999/xlink" fill="none" version="1.1"
    width="1976.8079833984375" height="159.46400451660156" viewBox="0 0 1976.8079833984375 159.46400451660156">
    <g>
        <path
            d="M84.568,0L100.192,0Q104.656,0,104.656,3.968L104.656,121.024Q104.656,139.128,94.364,149.296Q84.072,159.464,65.968,159.464L38.44,159.464Q20.336,159.464,10.168,149.296Q0,139.128,0,121.024L0,4.216Q0,0,4.216,0L19.84,0Q24.056,0,24.056,4.216L24.056,120.032Q24.056,138.384,41.912,138.384L62.248,138.384Q80.352,138.384,80.352,120.032L80.352,4.216Q80.352,0,84.568,0ZM158.968,159.464L143.592,159.464Q139.376,159.464,139.376,155.248L139.376,4.216Q139.376,0,143.592,0L157.48,0Q161.448,0,162.936,2.72801L222.952,110.608L223.944,110.608L223.944,4.216Q223.944,0,228.16,0L243.536,0Q247.752,0,247.752,4.216L247.752,155.248Q247.752,159.464,243.536,159.464L230.144,159.464Q226.176,159.464,223.696,155.496L164.176,48.856L163.184,48.856L163.184,155.248Q163.184,159.464,158.968,159.464ZM309.256,4.216L309.256,155.248Q309.256,159.464,305.04,159.464L289.416,159.464Q285.2,159.464,285.2,155.248L285.2,4.216Q285.2,0,289.416,0L305.04,0Q309.256,0,309.256,4.216ZM390.352,159.464L374.728,159.464Q370.264,159.464,370.264,155.248L370.264,23.56Q370.264,21.08,367.784,21.08L336.536,21.08Q332.072,21.08,332.072,16.864L332.072,4.216Q332.072,0,336.536,0L428.544,0Q433.008,0,433.008,4.216L433.008,16.864Q433.008,21.08,428.544,21.08L397.296,21.08Q394.568,21.08,394.568,23.56L394.568,155.248Q394.568,159.464,390.352,159.464ZM537.912,159.464L458.552,159.464Q454.336,159.464,454.336,155.248L454.336,4.216Q454.336,0,458.552,0L537.912,0Q541.88,0,541.88,4.216L541.88,16.864Q541.88,21.08,537.912,21.08L481.368,21.08Q478.392,21.08,478.392,23.56L478.392,65.472Q478.392,67.952,481.368,67.952L529.232,67.952Q533.696,67.952,533.696,72.168L533.696,84.816Q533.696,89.032,529.232,89.032L481.368,89.032Q478.392,89.032,478.392,91.512L478.392,135.656Q478.392,138.384,481.368,138.384L537.912,138.384Q541.88,138.384,541.88,142.6L541.88,155.248Q541.88,159.464,537.912,159.464ZM600.16,138.384L635.128,138.384Q652.984,138.384,652.984,120.032L652.984,39.432Q652.984,21.08,635.128,21.08L600.16,21.08Q597.432,21.08,597.432,23.56L597.432,135.656Q597.432,138.384,600.16,138.384ZM573.376,155.248L573.376,4.216Q573.376,0,577.592,0L638.6,0Q656.704,0,666.996,10.044Q677.288,20.088,677.288,38.44L677.288,121.024Q677.288,139.128,666.996,149.296Q656.704,159.464,638.6,159.464L577.592,159.464Q573.376,159.464,573.376,155.248ZM853.616,159.464L774.256,159.464Q770.04,159.464,770.04,155.248L770.04,4.216Q770.04,0,774.256,0L853.616,0Q857.584,0,857.584,4.216L857.584,16.864Q857.584,21.08,853.616,21.08L797.072,21.08Q794.096,21.08,794.096,23.56L794.096,65.472Q794.096,67.952,797.072,67.952L844.936,67.952Q849.4,67.952,849.4,72.168L849.4,84.816Q849.4,89.032,844.936,89.032L797.072,89.032Q794.096,89.032,794.096,91.512L794.096,135.656Q794.096,138.384,797.072,138.384L853.616,138.384Q857.584,138.384,857.584,142.6L857.584,155.248Q857.584,159.464,853.616,159.464ZM897.76,159.464L879.904,159.464Q876.432,159.464,877.424,155.248L920.576,4.216Q921.816,0,926.528,0L951.328,0Q956.288,0,957.28,4.216L1000.43,155.248Q1001.42,159.464,997.704,159.464L980.096,159.464Q977.864,159.464,976.996,158.596Q976.128,157.728,975.632,155.248L966.208,123.008L911.648,123.008L902.224,155.248Q901.232,159.464,897.76,159.464ZM938.432,23.808L916.608,103.168L961.496,103.168L939.424,23.808L938.432,23.808ZM1044.82,159.464L1029.2,159.464Q1024.98,159.464,1024.98,155.248L1024.98,4.216Q1024.98,0,1029.2,0L1087.23,0Q1105.34,0,1115.63,10.292Q1125.92,20.584,1125.92,38.688L1125.92,59.52Q1125.92,88.04,1102.36,95.48L1102.36,96.472L1129.89,154.504Q1132.62,159.464,1126.66,159.464L1111.29,159.464Q1105.34,159.464,1103.6,155.248L1077.06,98.208L1052.02,98.208Q1049.04,98.208,1049.04,100.688L1049.04,155.248Q1049.04,159.464,1044.82,159.464ZM1051.77,78.368L1083.26,78.368Q1101.62,78.368,1101.62,60.264L1101.62,39.432Q1101.62,21.08,1083.26,21.08L1051.77,21.08Q1049.04,21.08,1049.04,23.56L1049.04,75.888Q1049.04,78.368,1051.77,78.368ZM1203.05,159.464L1187.42,159.464Q1182.96,159.464,1182.96,155.248L1182.96,23.56Q1182.96,21.08,1180.48,21.08L1149.23,21.08Q1144.77,21.08,1144.77,16.864L1144.77,4.216Q1144.77,0,1149.23,0L1241.24,0Q1245.7,0,1245.7,4.216L1245.7,16.864Q1245.7,21.08,1241.24,21.08L1209.99,21.08Q1207.26,21.08,1207.26,23.56L1207.26,155.248Q1207.26,159.464,1203.05,159.464ZM1286.87,159.464L1271.25,159.464Q1267.03,159.464,1267.03,155.248L1267.03,4.216Q1267.03,0,1271.25,0L1286.87,0Q1291.09,0,1291.09,4.216L1291.09,66.216Q1291.09,68.696,1294.06,68.696L1346.39,68.696Q1348.87,68.696,1348.87,66.216L1348.87,4.216Q1348.87,0,1353.09,0L1368.96,0Q1373.18,0,1373.18,4.216L1373.18,155.248Q1373.18,159.464,1368.96,159.464L1353.09,159.464Q1348.87,159.464,1348.87,155.248L1348.87,92.504Q1348.87,90.024,1346.39,90.024L1294.06,90.024Q1291.09,90.024,1291.09,92.504L1291.09,155.248Q1291.09,159.464,1286.87,159.464ZM1488.25,159.464L1472.62,159.464Q1468.41,159.464,1468.41,155.248L1468.41,4.216Q1468.41,0,1472.62,0L1550.5,0Q1554.71,0,1554.71,4.216L1554.71,16.864Q1554.71,21.08,1550.5,21.08L1495.44,21.08Q1492.46,21.08,1492.46,23.56L1492.46,70.432Q1492.46,73.16,1495.44,73.16L1543.3,73.16Q1547.77,73.16,1547.77,77.376L1547.77,89.776Q1547.77,94.24,1543.3,94.24L1495.44,94.24Q1492.46,94.24,1492.46,96.72L1492.46,155.248Q1492.46,159.464,1488.25,159.464ZM1606.3,4.216L1606.3,155.248Q1606.3,159.464,1602.08,159.464L1586.46,159.464Q1582.24,159.464,1582.24,155.248L1582.24,4.216Q1582.24,0,1586.46,0L1602.08,0Q1606.3,0,1606.3,4.216ZM1728.31,159.464L1647.96,159.464Q1643.74,159.464,1643.74,155.248L1643.74,4.216Q1643.74,0,1647.96,0L1663.58,0Q1667.8,0,1667.8,4.216L1667.8,135.408Q1667.8,137.888,1670.78,137.888L1728.31,137.888Q1732.53,137.888,1732.53,142.352L1732.53,155.248Q1732.53,159.464,1728.31,159.464ZM1838.92,159.464L1759.56,159.464Q1755.34,159.464,1755.34,155.248L1755.34,4.216Q1755.34,0,1759.56,0L1838.92,0Q1842.89,0,1842.89,4.216L1842.89,16.864Q1842.89,21.08,1838.92,21.08L1782.38,21.08Q1779.4,21.08,1779.4,23.56L1779.4,65.472Q1779.4,67.952,1782.38,67.952L1830.24,67.952Q1834.7,67.952,1834.7,72.168L1834.7,84.816Q1834.7,89.032,1830.24,89.032L1782.38,89.032Q1779.4,89.032,1779.4,91.512L1779.4,135.656Q1779.4,138.384,1782.38,138.384L1838.92,138.384Q1842.89,138.384,1842.89,142.6L1842.89,155.248Q1842.89,159.464,1838.92,159.464ZM1871.41,120.776L1871.41,114.328Q1871.41,110.112,1875.62,110.112L1891.5,110.112Q1895.71,110.112,1895.71,114.328L1895.71,118.792Q1895.71,129.208,1900.3,133.796Q1904.89,138.384,1915.55,138.384L1932.66,138.384Q1943.33,138.384,1948.04,133.548Q1952.75,128.712,1952.75,117.8L1952.75,112.096Q1952.75,104.16,1946.68,99.572Q1940.6,94.984,1931.67,93.62Q1922.74,92.256,1912.08,89.776Q1901.42,87.296,1892.49,84.072Q1883.56,80.848,1877.48,71.92Q1871.41,62.992,1871.41,49.104L1871.41,38.688Q1871.41,20.584,1881.7,10.292Q1891.99,0,1910.1,0L1936.38,0Q1954.74,0,1965.03,10.292Q1975.32,20.584,1975.32,38.688L1975.32,44.144Q1975.32,48.36,1971.1,48.36L1955.23,48.36Q1951.02,48.36,1951.02,44.144L1951.02,40.92Q1951.02,30.256,1946.43,25.668Q1941.84,21.08,1931.18,21.08L1915.55,21.08Q1904.89,21.08,1900.3,25.916Q1895.71,30.752,1895.71,42.408L1895.71,50.096Q1895.71,61.256,1911.83,65.224Q1919.02,66.96,1927.58,68.2Q1936.14,69.44,1944.82,71.92Q1953.5,74.4,1960.69,78.492Q1967.88,82.584,1972.34,90.892Q1976.81,99.2,1976.81,111.104L1976.81,120.776Q1976.81,138.88,1966.52,149.172Q1956.22,159.464,1938.12,159.464L1910.34,159.464Q1892.24,159.464,1881.82,149.172Q1871.41,138.88,1871.41,120.776Z"
            fill="#000000" fill-opacity="1" />
    </g>
</svg>