<svg xmlns="http://www.w3.org/2000/svg" xmlns:xlink="http://www.w3.org/1999/xlink" fill="none" version="1.1" width="800" height="1200" viewBox="0 0 800 1200"><defs><clipPath id="master_svg0_335_959"><rect x="220" y="504.98229217529297" width="188" height="188" rx="0"/></clipPath><clipPath id="master_svg1_335_963"><rect x="424.13134765625" y="491.99999237060547" width="120.31103515625" height="117.05238342285156" rx="0"/></clipPath></defs><g><g><g><rect x="0" y="0" width="800" height="1200" rx="0" fill="#BC1314" fill-opacity="1"/></g><g><rect x="25" y="165" width="750" height="990" rx="0" fill="#FFFFFF" fill-opacity="1"/></g><g><rect x="36" y="276" width="728" height="868" rx="0" fill-opacity="0" stroke-opacity="1" stroke="#000000" fill="none" stroke-width="22"/></g><g><path d="M377.216,35.848L382.592,35.848Q384,35.848,384,37.128L384,66.568Q384,71.56,381.216,74.28Q378.432,77,373.44,77L366.4,77Q361.344,77,358.592,74.312Q355.84,71.624,355.84,66.568L355.84,37.192Q355.84,35.848,357.184,35.848L362.624,35.848Q363.968,35.848,363.968,37.192L363.968,66.184Q363.968,68.232,364.832,69.096Q365.696,69.96000000000001,367.68,69.96000000000001L372.096,69.96000000000001Q374.144,69.96000000000001,375.008,69.096Q375.872,68.232,375.872,66.184L375.872,37.192Q375.872,35.848,377.216,35.848ZM414.272,77L393.344,77Q392,77,392,75.656L392,37.192Q392,35.848,393.344,35.848L414.272,35.848Q415.552,35.848,415.552,37.192L415.552,41.544Q415.552,42.888000000000005,414.272,42.888000000000005L400.896,42.888000000000005Q400.128,42.888000000000005,400.128,43.592L400.128,51.912Q400.128,52.616,400.896,52.616L411.84000000000003,52.616Q413.18399999999997,52.616,413.18399999999997,53.96L413.18399999999997,58.312Q413.18399999999997,59.656,411.84000000000003,59.656L400.896,59.656Q400.128,59.656,400.128,60.36L400.128,69.256Q400.128,69.96000000000001,400.896,69.96000000000001L414.272,69.96000000000001Q415.552,69.96000000000001,415.552,71.304L415.552,75.656Q415.552,77,414.272,77ZM429.44,77L424,77Q422.656,77,422.656,75.656L422.656,37.192Q422.656,35.848,424,35.848L444.416,35.848Q445.696,35.848,445.696,37.192L445.696,41.544Q445.696,42.888000000000005,444.416,42.888000000000005L431.552,42.888000000000005Q430.784,42.888000000000005,430.784,43.592L430.784,53.512Q430.784,54.28,431.552,54.28L442.496,54.28Q443.84000000000003,54.28,443.84000000000003,55.624L443.84000000000003,59.912Q443.84000000000003,61.32,442.496,61.32L431.552,61.32Q430.784,61.32,430.784,62.024L430.784,75.656Q430.784,77,429.44,77Z" fill="#FFFFFF" fill-opacity="1"/></g><g><path d="M288.456,89.568L290.472,89.568Q291,89.568,291,90.048L291,101.088Q291,102.96000000000001,289.956,103.98Q288.912,105,287.04,105L284.4,105Q282.504,105,281.472,103.992Q280.44,102.98400000000001,280.44,101.088L280.44,90.072Q280.44,89.568,280.944,89.568L282.984,89.568Q283.488,89.568,283.488,90.072L283.488,100.944Q283.488,101.712,283.812,102.036Q284.136,102.36,284.88,102.36L286.536,102.36Q287.304,102.36,287.628,102.036Q287.952,101.712,287.952,100.944L287.952,90.072Q287.952,89.568,288.456,89.568ZM296.496,105L294.504,105Q294,105,294,104.496L294,90.072Q294,89.568,294.504,89.568L296.304,89.568Q296.808,89.568,296.976,89.904L301.824,99L301.92,99L301.92,90.072Q301.92,89.568,302.424,89.568L304.416,89.568Q304.92,89.568,304.92,90.072L304.92,104.496Q304.92,105,304.416,105L302.664,105Q302.136,105,301.896,104.52L297.096,95.592L297,95.592L297,104.496Q297,105,296.496,105ZM311.20799999999997,90.072L311.20799999999997,104.496Q311.20799999999997,105,310.704,105L308.664,105Q308.16,105,308.16,104.496L308.16,90.072Q308.16,89.568,308.664,89.568L310.704,89.568Q311.20799999999997,89.568,311.20799999999997,90.072ZM319.224,105L317.20799999999997,105Q316.68,105,316.68,104.496L316.68,92.472Q316.68,92.208,316.416,92.208L313.68,92.208Q313.176,92.208,313.176,91.70400000000001L313.176,90.072Q313.176,89.568,313.68,89.568L322.752,89.568Q323.256,89.568,323.256,90.072L323.256,91.70400000000001Q323.256,92.208,322.752,92.208L320.016,92.208Q319.728,92.208,319.728,92.472L319.728,104.496Q319.728,105,319.224,105ZM333.432,105L325.584,105Q325.08,105,325.08,104.496L325.08,90.072Q325.08,89.568,325.584,89.568L333.432,89.568Q333.912,89.568,333.912,90.072L333.912,91.70400000000001Q333.912,92.208,333.432,92.208L328.416,92.208Q328.128,92.208,328.128,92.472L328.128,95.592Q328.128,95.856,328.416,95.856L332.52,95.856Q333.024,95.856,333.024,96.36L333.024,97.992Q333.024,98.496,332.52,98.496L328.416,98.496Q328.128,98.496,328.128,98.76L328.128,102.096Q328.128,102.36,328.416,102.36L333.432,102.36Q333.912,102.36,333.912,102.864L333.912,104.496Q333.912,105,333.432,105ZM339.888,102.36L342.504,102.36Q343.272,102.36,343.596,102.036Q343.92,101.712,343.92,100.944L343.92,93.624Q343.92,92.856,343.596,92.532Q343.272,92.208,342.504,92.208L339.888,92.208Q339.624,92.208,339.624,92.472L339.624,102.096Q339.624,102.36,339.888,102.36ZM336.576,104.496L336.576,90.072Q336.576,89.568,337.08,89.568L343.008,89.568Q344.88,89.568,345.924,90.588Q346.968,91.608,346.968,93.48L346.968,101.088Q346.968,102.96000000000001,345.924,103.98Q344.88,105,343.008,105L337.08,105Q336.576,105,336.576,104.496ZM363.48,105L355.632,105Q355.128,105,355.128,104.496L355.128,90.072Q355.128,89.568,355.632,89.568L363.48,89.568Q363.96,89.568,363.96,90.072L363.96,91.70400000000001Q363.96,92.208,363.48,92.208L358.464,92.208Q358.176,92.208,358.176,92.472L358.176,95.592Q358.176,95.856,358.464,95.856L362.568,95.856Q363.072,95.856,363.072,96.36L363.072,97.992Q363.072,98.496,362.568,98.496L358.464,98.496Q358.176,98.496,358.176,98.76L358.176,102.096Q358.176,102.36,358.464,102.36L363.48,102.36Q363.96,102.36,363.96,102.864L363.96,104.496Q363.96,105,363.48,105ZM368.23199999999997,105L365.928,105Q365.496,105,365.64,104.496L369.432,90.072Q369.6,89.568,370.152,89.568L373.344,89.568Q373.944,89.568,374.06399999999996,90.072L377.856,104.496Q378,105,377.568,105L375.264,105Q375,105,374.904,104.892Q374.808,104.78399999999999,374.76,104.496L374.08799999999997,101.856L369.408,101.856L368.736,104.496Q368.688,104.78399999999999,368.58,104.892Q368.472,105,368.23199999999997,105ZM371.712,92.472L369.984,99.408L373.536,99.408L371.808,92.472L371.712,92.472ZM382.536,105L380.496,105Q379.992,105,379.992,104.496L379.992,90.072Q379.992,89.568,380.496,89.568L386.20799999999997,89.568Q388.08,89.568,389.13599999999997,90.6Q390.192,91.632,390.192,93.504L390.192,95.376Q390.192,98.088,388.056,98.976L388.056,99.072L390.624,104.424Q390.84000000000003,105,390.216,105L388.272,105Q387.84000000000003,105,387.648,104.904Q387.456,104.80799999999999,387.336,104.496L384.93600000000004,99.312L383.328,99.312Q383.04,99.312,383.04,99.576L383.04,104.496Q383.04,105,382.536,105ZM383.304,96.864L385.656,96.864Q386.424,96.864,386.784,96.53999999999999Q387.144,96.216,387.144,95.496L387.144,93.624Q387.144,92.88,386.784,92.544Q386.424,92.208,385.656,92.208L383.304,92.208Q383.04,92.208,383.04,92.472L383.04,96.6Q383.04,96.864,383.304,96.864ZM397.896,105L395.88,105Q395.352,105,395.352,104.496L395.352,92.472Q395.352,92.208,395.08799999999997,92.208L392.352,92.208Q391.848,92.208,391.848,91.70400000000001L391.848,90.072Q391.848,89.568,392.352,89.568L401.424,89.568Q401.928,89.568,401.928,90.072L401.928,91.70400000000001Q401.928,92.208,401.424,92.208L398.688,92.208Q398.4,92.208,398.4,92.472L398.4,104.496Q398.4,105,397.896,105ZM406.296,105L404.256,105Q403.752,105,403.752,104.496L403.752,90.072Q403.752,89.568,404.256,89.568L406.296,89.568Q406.8,89.568,406.8,90.072L406.8,95.712Q406.8,95.976,407.08799999999997,95.976L411.144,95.976Q411.408,95.976,411.408,95.712L411.408,90.072Q411.408,89.568,411.91200000000003,89.568L413.952,89.568Q414.456,89.568,414.456,90.072L414.456,104.496Q414.456,105,413.952,105L411.91200000000003,105Q411.408,105,411.408,104.496L411.408,98.88Q411.408,98.616,411.144,98.616L407.08799999999997,98.616Q406.8,98.616,406.8,98.88L406.8,104.496Q406.8,105,406.296,105ZM425.4,105L423.36,105Q422.856,105,422.856,104.496L422.856,90.072Q422.856,89.568,423.36,89.568L431.01599999999996,89.568Q431.496,89.568,431.496,90.072L431.496,91.70400000000001Q431.496,92.208,431.01599999999996,92.208L426.192,92.208Q425.904,92.208,425.904,92.472L425.904,96.19200000000001Q425.904,96.48,426.192,96.48L430.296,96.48Q430.8,96.48,430.8,96.984L430.8,98.592Q430.8,99.12,430.296,99.12L426.192,99.12Q425.904,99.12,425.904,99.384L425.904,104.496Q425.904,105,425.4,105ZM436.824,90.072L436.824,104.496Q436.824,105,436.32,105L434.28,105Q433.776,105,433.776,104.496L433.776,90.072Q433.776,89.568,434.28,89.568L436.32,89.568Q436.824,89.568,436.824,90.072ZM448.464,105L440.568,105Q440.06399999999996,105,440.06399999999996,104.496L440.06399999999996,90.072Q440.06399999999996,89.568,440.568,89.568L442.608,89.568Q443.11199999999997,89.568,443.11199999999997,90.072L443.11199999999997,102.072Q443.11199999999997,102.336,443.4,102.336L448.464,102.336Q448.94399999999996,102.336,448.94399999999996,102.864L448.94399999999996,104.496Q448.94399999999996,105,448.464,105ZM459.192,105L451.344,105Q450.84000000000003,105,450.84000000000003,104.496L450.84000000000003,90.072Q450.84000000000003,89.568,451.344,89.568L459.192,89.568Q459.672,89.568,459.672,90.072L459.672,91.70400000000001Q459.672,92.208,459.192,92.208L454.176,92.208Q453.88800000000003,92.208,453.88800000000003,92.472L453.88800000000003,95.592Q453.88800000000003,95.856,454.176,95.856L458.28,95.856Q458.784,95.856,458.784,96.36L458.784,97.992Q458.784,98.496,458.28,98.496L454.176,98.496Q453.88800000000003,98.496,453.88800000000003,98.76L453.88800000000003,102.096Q453.88800000000003,102.36,454.176,102.36L459.192,102.36Q459.672,102.36,459.672,102.864L459.672,104.496Q459.672,105,459.192,105ZM461.952,101.064L461.952,100.584Q461.952,100.08,462.456,100.08L464.496,100.08Q465,100.08,465,100.584L465,100.776Q465,101.688,465.36,102.024Q465.72,102.36,466.68,102.36L467.808,102.36Q468.744,102.36,469.116,102Q469.488,101.64,469.488,100.656L469.488,100.368Q469.488,99.672,468.924,99.3Q468.36,98.928,467.52,98.856Q466.68,98.78399999999999,465.70799999999997,98.58Q464.736,98.376,463.89599999999996,98.05199999999999Q463.05600000000004,97.728,462.49199999999996,96.78Q461.928,95.832,461.928,94.344L461.928,93.504Q461.928,91.632,462.98400000000004,90.6Q464.03999999999996,89.568,465.91200000000003,89.568L468.312,89.568Q470.20799999999997,89.568,471.264,90.6Q472.32,91.632,472.32,93.504L472.32,93.96000000000001Q472.32,94.464,471.81600000000003,94.464L469.776,94.464Q469.272,94.464,469.272,93.96000000000001L469.272,93.816Q469.272,92.88,468.91200000000003,92.544Q468.552,92.208,467.592,92.208L466.656,92.208Q465.672,92.208,465.324,92.58Q464.976,92.952,464.976,94.032L464.976,94.488Q464.976,95.616,466.94399999999996,95.784Q468.98400000000004,95.952,470.568,96.6Q471.408,96.96000000000001,471.972,97.884Q472.536,98.80799999999999,472.536,100.248L472.536,101.064Q472.536,102.936,471.48,103.968Q470.424,105,468.552,105L465.93600000000004,105Q464.06399999999996,105,463.00800000000004,103.968Q461.952,102.936,461.952,101.064ZM480.168,101.064L480.168,100.584Q480.168,100.08,480.672,100.08L482.712,100.08Q483.216,100.08,483.216,100.584L483.216,100.776Q483.216,101.688,483.576,102.024Q483.93600000000004,102.36,484.89599999999996,102.36L486.024,102.36Q486.96000000000004,102.36,487.332,102Q487.704,101.64,487.704,100.656L487.704,100.368Q487.704,99.672,487.14,99.3Q486.576,98.928,485.736,98.856Q484.89599999999996,98.78399999999999,483.924,98.58Q482.952,98.376,482.11199999999997,98.05199999999999Q481.272,97.728,480.70799999999997,96.78Q480.144,95.832,480.144,94.344L480.144,93.504Q480.144,91.632,481.2,90.6Q482.256,89.568,484.128,89.568L486.528,89.568Q488.424,89.568,489.48,90.6Q490.536,91.632,490.536,93.504L490.536,93.96000000000001Q490.536,94.464,490.03200000000004,94.464L487.99199999999996,94.464Q487.488,94.464,487.488,93.96000000000001L487.488,93.816Q487.488,92.88,487.128,92.544Q486.76800000000003,92.208,485.808,92.208L484.872,92.208Q483.88800000000003,92.208,483.53999999999996,92.58Q483.192,92.952,483.192,94.032L483.192,94.488Q483.192,95.616,485.15999999999997,95.784Q487.2,95.952,488.784,96.6Q489.624,96.96000000000001,490.188,97.884Q490.752,98.80799999999999,490.752,100.248L490.752,101.064Q490.752,102.936,489.696,103.968Q488.64,105,486.76800000000003,105L484.152,105Q482.28,105,481.224,103.968Q480.168,102.936,480.168,101.064ZM496.656,90.072L496.656,104.496Q496.656,105,496.152,105L494.11199999999997,105Q493.608,105,493.608,104.496L493.608,90.072Q493.608,89.568,494.11199999999997,89.568L496.152,89.568Q496.656,89.568,496.656,90.072ZM504.672,105L502.656,105Q502.128,105,502.128,104.496L502.128,92.472Q502.128,92.208,501.86400000000003,92.208L499.128,92.208Q498.624,92.208,498.624,91.70400000000001L498.624,90.072Q498.624,89.568,499.128,89.568L508.2,89.568Q508.704,89.568,508.704,90.072L508.704,91.70400000000001Q508.704,92.208,508.2,92.208L505.464,92.208Q505.176,92.208,505.176,92.472L505.176,104.496Q505.176,105,504.672,105ZM518.88,105L511.03200000000004,105Q510.528,105,510.528,104.496L510.528,90.072Q510.528,89.568,511.03200000000004,89.568L518.88,89.568Q519.36,89.568,519.36,90.072L519.36,91.70400000000001Q519.36,92.208,518.88,92.208L513.864,92.208Q513.576,92.208,513.576,92.472L513.576,95.592Q513.576,95.856,513.864,95.856L517.968,95.856Q518.472,95.856,518.472,96.36L518.472,97.992Q518.472,98.496,517.968,98.496L513.864,98.496Q513.576,98.496,513.576,98.76L513.576,102.096Q513.576,102.36,513.864,102.36L518.88,102.36Q519.36,102.36,519.36,102.864L519.36,104.496Q519.36,105,518.88,105Z" fill="#FFFFFF" fill-opacity="1"/></g><g><g><path d="M69.6944,72.3481L79.4542,99.00460000000001L85.8654,99.00460000000001L73.9053,66.3505L46.0269,66.35419999999999L36.2795,93.0061L31.02654,93.0061L31.02654,41.9975L44.4169,41.9975L47.3641,50.056L53.783500000000004,50.056L48.649,36L25,36L25,99.0047L40.5017,99.00319999999999L50.254599999999996,72.3481L69.6944,72.3481Z" fill-rule="evenodd" fill="#FFFFFF" fill-opacity="1"/></g><g><path d="M113,108L113,44.05845L61.3767,44.05846L58.4294,36L52.0096,36L57.1503,50.056L106.9735,50.056L106.9735,102.0025L25,102.0025L25,108L113,108Z" fill-rule="evenodd" fill="#FFFFFF" fill-opacity="1"/></g><g><path d="M75.35823927001954,99.00464854125977L73.16473927001954,93.00714854125977L57.183799270019534,93.00714854125977L54.50251927001953,85.67584854125977L70.48343927001953,85.67584854125977L68.28983927001953,79.67834854125977L51.22412927001953,79.67834854125977L48.49243927001953,86.79618854125977L52.95503927001953,99.00464854125977L75.35823927001954,99.00464854125977Z" fill-rule="evenodd" fill="#FFFFFF" fill-opacity="1"/></g><g><path d="M79.92222693725586,72.50425600708007L77.64626693725586,66.28462600708008L93.81746693725586,66.28462600708008L96.09336693725587,72.50425600708007L79.92222693725586,72.50425600708007ZM84.79927693725585,85.83202600708007L82.52331693725586,79.61242600708007L98.69446693725587,79.61242600708007L100.97046693725586,85.83202600708007L84.79927693725585,85.83202600708007Z" fill-rule="evenodd" fill="#FFFFFF" fill-opacity="1"/></g></g><g><path d="M52.46,242L61.34,242L61.34,226.22L67.28,226.22C76.82,226.22,84.44,221.66,84.44,211.52C84.44,201.02,76.88,197.54,67.03999999999999,197.54L52.46,197.54L52.46,242ZM61.34,219.2L61.34,204.62L66.38,204.62C72.5,204.62,75.74,206.36,75.74,211.52C75.74,216.62,72.8,219.2,66.68,219.2L61.34,219.2ZM101.36,218.18L101.36,204.62L107.12,204.62C112.82,204.62,115.94,206.24,115.94,211.04C115.94,215.78,112.82,218.18,107.12,218.18L101.36,218.18ZM116.66,242L126.56,242L116.18,223.82C121.28,221.84,124.64,217.7,124.64,211.04C124.64,200.84,117.26,197.54,107.9,197.54L92.47999999999999,197.54L92.47999999999999,242L101.36,242L101.36,225.2L107.53999999999999,225.2L116.66,242ZM151.04000000000002,242.84C162.8,242.84,170.9,234.02,170.9,219.56C170.9,205.16,162.8,196.76,151.04000000000002,196.76C139.28,196.76,131.18,205.16,131.18,219.56C131.18,234.02,139.28,242.84,151.04000000000002,242.84ZM151.04000000000002,235.16C144.44,235.16,140.3,229.04,140.3,219.56C140.3,210.07999999999998,144.44,204.38,151.04000000000002,204.38C157.64,204.38,161.84,210.07999999999998,161.84,219.56C161.84,229.04,157.64,235.16,151.04000000000002,235.16ZM179.6,242L188.48,242L188.48,222.8L205.28,222.8L205.28,242L214.1,242L214.1,197.54L205.28,197.54L205.28,215.12L188.48,215.12L188.48,197.54L179.6,197.54L179.6,242ZM225.02,242L233.9,242L233.9,197.54L225.02,197.54L225.02,242ZM244.82,242L260.65999999999997,242C270.44,242,277.82,237.86,277.82,228.92000000000002C277.82,222.98,274.34000000000003,219.56,269.53999999999996,218.42000000000002L269.53999999999996,218.18C273.32,216.8,275.6,212.66,275.6,208.52C275.6,200.24,268.64,197.54,259.52,197.54L244.82,197.54L244.82,242ZM253.7,215.66L253.7,204.38L258.98,204.38C264.32,204.38,266.96000000000004,205.94,266.96000000000004,209.84C266.96000000000004,213.38,264.56,215.66,258.91999999999996,215.66L253.7,215.66ZM253.7,235.16L253.7,222.2L259.88,222.2C266,222.2,269.18,224.06,269.18,228.38C269.18,233,265.88,235.16,259.88,235.16L253.7,235.16ZM285.68,242L294.56,242L294.56,197.54L285.68,197.54L285.68,242ZM314.3,242L323.18,242L323.18,204.98L335.72,204.98L335.72,197.54L301.82,197.54L301.82,204.98L314.3,204.98L314.3,242ZM342.98,242L370.88,242L370.88,234.56L351.86,234.56L351.86,222.68L367.4,222.68L367.4,215.24L351.86,215.24L351.86,204.98L370.22,204.98L370.22,197.54L342.98,197.54L342.98,242ZM379.88,242L392.54,242C405.68,242,414.02,234.56,414.02,219.56C414.02,204.62,405.68,197.54,392.06,197.54L379.88,197.54L379.88,242ZM388.76,234.8L388.76,204.68L391.46,204.68C399.8,204.68,404.96,208.76,404.96,219.56C404.96,230.36,399.8,234.8,391.46,234.8L388.76,234.8ZM449.96,242L465.8,242C475.58,242,482.96,237.86,482.96,228.92000000000002C482.96,222.98,479.48,219.56,474.68,218.42000000000002L474.68,218.18C478.46,216.8,480.74,212.66,480.74,208.52C480.74,200.24,473.78,197.54,464.66,197.54L449.96,197.54L449.96,242ZM458.84,215.66L458.84,204.38L464.12,204.38C469.46,204.38,472.1,205.94,472.1,209.84C472.1,213.38,469.7,215.66,464.06,215.66L458.84,215.66ZM458.84,235.16L458.84,222.2L465.02,222.2C471.14,222.2,474.32,224.06,474.32,228.38C474.32,233,471.02,235.16,465.02,235.16L458.84,235.16ZM490.82,242L518.72,242L518.72,234.56L499.7,234.56L499.7,222.68L515.24,222.68L515.24,215.24L499.7,215.24L499.7,204.98L518.06,204.98L518.06,197.54L490.82,197.54L490.82,242ZM527.72,242L536.6,242L536.6,222.8L553.4,222.8L553.4,242L562.22,242L562.22,197.54L553.4,197.54L553.4,215.12L536.6,215.12L536.6,197.54L527.72,197.54L527.72,242ZM567.44,242L576.44,242L579.56,230.6L593.9,230.6L597.02,242L606.38,242L592.16,197.54L581.66,197.54L567.44,242ZM581.48,223.7L582.8,218.84C584.12,214.22,585.38,209.18,586.58,204.32L586.82,204.32C588.14,209.06,589.34,214.22,590.72,218.84L592.04,223.7L581.48,223.7ZM618.26,242L628.88,242L642.44,197.54L633.44,197.54L627.68,219.2C626.3,224.12,625.34,228.56,623.9,233.54L623.6,233.54C622.22,228.56,621.26,224.12,619.88,219.2L614.06,197.54L604.7,197.54L618.26,242ZM647.6,242L656.48,242L656.48,197.54L647.6,197.54L647.6,242ZM685.04,242.84C696.8,242.84,704.9,234.02,704.9,219.56C704.9,205.16,696.8,196.76,685.04,196.76C673.28,196.76,665.18,205.16,665.18,219.56C665.18,234.02,673.28,242.84,685.04,242.84ZM685.04,235.16C678.44,235.16,674.3,229.04,674.3,219.56C674.3,210.07999999999998,678.44,204.38,685.04,204.38C691.64,204.38,695.84,210.07999999999998,695.84,219.56C695.84,229.04,691.64,235.16,685.04,235.16ZM722.48,218.18L722.48,204.62L728.24,204.62C733.94,204.62,737.06,206.24,737.06,211.04C737.06,215.78,733.94,218.18,728.24,218.18L722.48,218.18ZM737.78,242L747.68,242L737.3,223.82C742.4,221.84,745.76,217.7,745.76,211.04C745.76,200.84,738.38,197.54,729.02,197.54L713.6,197.54L713.6,242L722.48,242L722.48,225.2L728.66,225.2L737.78,242Z" fill="#BC1314" fill-opacity="1"/></g><g><rect x="65" y="985" width="670" height="130" rx="0" fill="#BC1314" fill-opacity="1"/></g><g><path d="M124.34,1084.176C140.804,1084.176,152.144,1071.828,152.144,1051.584C152.144,1031.424,140.804,1019.664,124.34,1019.664C107.876,1019.664,96.536,1031.424,96.536,1051.584C96.536,1071.828,107.876,1084.176,124.34,1084.176ZM124.34,1073.424C115.1,1073.424,109.304,1064.856,109.304,1051.584C109.304,1038.312,115.1,1030.332,124.34,1030.332C133.57999999999998,1030.332,139.46,1038.312,139.46,1051.584C139.46,1064.856,133.57999999999998,1073.424,124.34,1073.424ZM164.324,1083L202.04000000000002,1083L202.04000000000002,1072.584L176.756,1072.584L176.756,1020.756L164.324,1020.756L164.324,1083ZM212.876,1083L230.6,1083C248.996,1083,260.672,1072.584,260.672,1051.584C260.672,1030.668,248.996,1020.756,229.928,1020.756L212.876,1020.756L212.876,1083ZM225.308,1072.92L225.308,1030.752L229.088,1030.752C240.764,1030.752,247.988,1036.464,247.988,1051.584C247.988,1066.704,240.764,1072.92,229.088,1072.92L225.308,1072.92ZM291.91999999999996,1083L314.096,1083C327.788,1083,338.12,1077.204,338.12,1064.688C338.12,1056.372,333.248,1051.584,326.528,1049.988L326.528,1049.652C331.82,1047.72,335.012,1041.924,335.012,1036.128C335.012,1024.536,325.26800000000003,1020.756,312.5,1020.756L291.91999999999996,1020.756L291.91999999999996,1083ZM304.352,1046.124L304.352,1030.332L311.744,1030.332C319.22,1030.332,322.916,1032.516,322.916,1037.976C322.916,1042.932,319.55600000000004,1046.124,311.65999999999997,1046.124L304.352,1046.124ZM304.352,1073.424L304.352,1055.28L313.004,1055.28C321.572,1055.28,326.024,1057.884,326.024,1063.932C326.024,1070.4,321.404,1073.424,313.004,1073.424L304.352,1073.424ZM361.556,1049.652L361.556,1030.668L369.62,1030.668C377.6,1030.668,381.968,1032.936,381.968,1039.656C381.968,1046.292,377.6,1049.652,369.62,1049.652L361.556,1049.652ZM382.976,1083L396.836,1083L382.304,1057.548C389.444,1054.776,394.148,1048.98,394.148,1039.656C394.148,1025.376,383.816,1020.756,370.712,1020.756L349.124,1020.756L349.124,1083L361.556,1083L361.556,1059.48L370.208,1059.48L382.976,1083ZM431.108,1084.176C447.572,1084.176,458.912,1071.828,458.912,1051.584C458.912,1031.424,447.572,1019.664,431.108,1019.664C414.644,1019.664,403.304,1031.424,403.304,1051.584C403.304,1071.828,414.644,1084.176,431.108,1084.176ZM431.108,1073.424C421.868,1073.424,416.072,1064.856,416.072,1051.584C416.072,1038.312,421.868,1030.332,431.108,1030.332C440.348,1030.332,446.228,1038.312,446.228,1051.584C446.228,1064.856,440.348,1073.424,431.108,1073.424ZM489.656,1084.176C504.02,1084.176,512.504,1075.524,512.504,1065.36C512.504,1056.372,507.548,1051.5,499.988,1048.392L491.84,1045.116C486.548,1042.932,482.18,1041.336,482.18,1036.884C482.18,1032.768,485.54,1030.332,491,1030.332C496.208,1030.332,500.324,1032.264,504.272,1035.456L510.572,1027.728C505.532,1022.604,498.308,1019.664,491,1019.664C478.484,1019.664,469.496,1027.56,469.496,1037.64C469.496,1046.712,475.88,1051.752,482.18,1054.272L490.412,1057.884C495.956,1060.236,499.82,1061.664,499.82,1066.284C499.82,1070.652,496.376,1073.424,489.908,1073.424C484.448,1073.424,478.484,1070.652,474.116,1066.536L466.976,1075.104C473.024,1080.984,481.34,1084.176,489.656,1084.176ZM529.3879999999999,1083L544.592,1083L551.396,1052.172C552.3199999999999,1047.384,553.244,1042.596,554.168,1037.892L554.504,1037.892C555.1759999999999,1042.596,556.1,1047.384,557.108,1052.172L564.0799999999999,1083L579.5360000000001,1083L591.044,1020.756L579.284,1020.756L574.328,1051.164C573.404,1057.632,572.48,1064.268,571.556,1070.988L571.136,1070.988C569.7919999999999,1064.268,568.616,1057.548,567.188,1051.164L559.9639999999999,1020.756L549.296,1020.756L542.156,1051.164C540.812,1057.632,539.4680000000001,1064.268,538.2080000000001,1070.988L537.8720000000001,1070.988C536.948,1064.268,535.94,1057.716,534.932,1051.164L530.144,1020.756L517.46,1020.756L529.3879999999999,1083ZM600.3679999999999,1083L639.428,1083L639.428,1072.584L612.8,1072.584L612.8,1055.952L634.556,1055.952L634.556,1045.536L612.8,1045.536L612.8,1031.172L638.504,1031.172L638.504,1020.756L600.3679999999999,1020.756L600.3679999999999,1083ZM664.46,1049.652L664.46,1030.668L672.524,1030.668C680.504,1030.668,684.872,1032.936,684.872,1039.656C684.872,1046.292,680.504,1049.652,672.524,1049.652L664.46,1049.652ZM685.88,1083L699.74,1083L685.208,1057.548C692.348,1054.776,697.052,1048.98,697.052,1039.656C697.052,1025.376,686.72,1020.756,673.616,1020.756L652.028,1020.756L652.028,1083L664.46,1083L664.46,1059.48L673.112,1059.48L685.88,1083Z" fill="#FFFFFF" fill-opacity="1"/></g></g><g><g transform="matrix(0.928134024143219,-0.37224623560905457,0.37224623560905457,0.928134024143219,-172.16724262299272,118.18521705156354)" clip-path="url(#master_svg0_335_959)"><g><path d="M287.4603,662.5888826293946C265.96569999999997,674.2608826293945,247.4085,676.6808826293945,237.15468,666.4268826293945C226.62667,655.9308826293945,232.235341,628.4278826293945,247.4398,600.8387826293945C255.1639,586.8050826293945,264.7093,573.8540826293945,275.8278,562.3222826293945C277.2927,560.8573826293946,284.6403,553.5175826293945,285.126,553.5175826293945Q281.2093,555.9693826293945,280.7237,555.9693826293945C265.44870000000003,564.5468826293945,252.0302,580.0960826293946,249.1005,583.5818826293945C256.7605,549.4039826293945,288.3413,526.0252326293945,323.2665,528.6780826293946C347.51099999999997,517.6957426293945,370.063,515.1577426293945,379.60400000000004,524.6830726293946C388.416,533.4798826293945,387.923,548.1438826293945,380.58299999999997,565.7453826293945C380.505,565.9098826293946,380.442,566.0822826293945,380.372,566.2467826293945C385.673,576.3429826293946,388.43399999999997,587.5788826293946,388.416,598.9822826293945C388.416,601.9588826293946,388.236,604.8807826293945,387.876,607.7555826293946L381.578,607.7555826293946C381.207,607.7698826293945,380.836,607.7776826293946,380.46500000000003,607.7790826293946L288.0635,607.7790826293946L288.0635,609.2438826293945C288.5492,624.8868826293946,302.2575,638.5718826293945,318.9033,638.5718826293945C330.6533,638.5718826293945,341.90999999999997,632.2188826293946,346.806,622.9288826293946L384.249,622.9288826293946C370.077,662.1838826293945,325.1028,680.6118826293946,287.4603,662.5888826293946ZM282.70550000000003,660.0748826293946C268.2844,651.7418826293945,257.2662,638.5878826293945,251.5915,622.9288826293946C242.497,640.8048826293946,240.15484,655.7508826293945,247.9177,663.5058826293946C254.2862,669.8658826293945,267.0153,668.3938826293945,282.682,660.0898826293945L282.70550000000003,660.0748826293946ZM378.014,562.1028826293946C378.053,562.0140826293946,378.092,561.9252826293946,378.131,561.8365826293946C384.006,549.1308826293945,384.5,538.3835826293945,379.11,532.0228826293945C372.303,525.2235726293945,359.214,526.1479026293945,343.688,533.3388826293946C357.943,538.9571826293945,369.988,549.0510826293945,378.014,562.1028826293946ZM349.743,589.2062826293945L349.743,588.7283826293946C348.764,572.5917826293945,336.03499999999997,560.3717826293945,320.3682,560.3717826293945C303.7224,560.3717826293945,289.5362,573.5708826293945,288.557,588.7283826293946L288.557,589.2140826293945L349.743,589.2140826293945L349.743,589.2062826293945Z" fill="#BC1314" fill-opacity="1"/></g></g><g transform="matrix(0.9850996136665344,0.1719849556684494,-0.1719849556684494,0.9850996136665344,90.93631781294755,-65.61322106187572)" clip-path="url(#master_svg1_335_963)"><g><path d="M507.8477265625,525.1650089721679L477.1985265625,543.630008972168L458.2194265625,573.449108972168L457.6981265625,572.941908972168L450.6047265625,579.838208972168L454.1539265625,583.291208972168L461.2422265625,576.390008972168L460.7259265625,575.887708972168L491.3751265625,557.427508972168L510.3542265625,527.603608972168L510.8755265625,528.110808972168L517.9689265625,521.214508972168L514.4197265625,517.7614089721679L507.3314265625,524.662608972168L507.8527265625,525.169908972168L507.8477265625,525.1650089721679ZM484.2868265625,599.2982089721679C456.6002265625,599.2982089721679,434.1572265625,577.4630089721679,434.1572265625,550.526308972168C434.1572265625,523.589608972168,456.6002265625,501.75450897216797,484.2868265625,501.75450897216797C511.9734265625,501.75450897216797,534.4162265625,523.589608972168,534.4162265625,550.526308972168C534.4162265625,577.4630089721679,511.9734265625,599.2982089721679,484.2868265625,599.2982089721679ZM481.7803265625,506.631688972168L481.7803265625,516.3860089721679L486.7933265625,516.3860089721679L486.7933265625,506.631688972168L481.7803265625,506.631688972168ZM481.7803265625,584.666608972168L481.7803265625,594.421008972168L486.7933265625,594.421008972168L486.7933265625,584.666608972168L481.7803265625,584.666608972168ZM464.7062265625,510.90409897216796L468.5411265625,519.917108972168L473.1731265625,518.0540089721679L469.3382265625,509.041018972168L464.7062265625,510.90409897216796ZM495.4005265625,582.998608972168L499.2354265625,592.011608972168L503.8674265625,590.148608972168L500.0325265625,581.1355089721679L495.4005265625,582.998608972168ZM499.2354265625,509.041018972168L495.4005265625,518.0540089721679L500.0325265625,519.917108972168L503.8674265625,510.90409897216796L499.2354265625,509.041018972168ZM468.5461265625,581.1355089721679L464.7112265625,590.148608972168L469.3432265625,592.011608972168L473.1781265625,582.998608972168L468.5461265625,581.1355089721679ZM529.4034265625,548.087708972168L519.3775265625,548.087708972168L519.3775265625,552.964908972168L529.4034265625,552.964908972168L529.4034265625,548.087708972168ZM449.1961265625,548.087708972168L439.1701865625,548.087708972168L439.1701865625,552.964908972168L449.1961265625,552.964908972168L449.1961265625,548.087708972168ZM526.6864265625,565.718808972168L517.4876265625,561.846308972168L515.4975265625,566.3235089721679L524.6963265625,570.196008972168L526.6864265625,565.718808972168ZM453.0761265625,534.729108972168L443.8823665625,530.8566089721679L441.8922265625,535.3339089721679L451.0910265625,539.206408972168L453.0761265625,534.729108972168L453.0761265625,534.729108972168ZM525.0121265625,531.4761089721679L515.7481265625,535.2071089721679L517.6631265625,539.713608972168L526.9270265625,535.982608972168L525.0121265625,531.4761089721679ZM450.9105265625,561.339008972168L441.6465865625,565.070108972168L443.5615365625,569.576608972168L452.8255265625,565.845608972168L450.9105265625,561.339008972168ZM517.9639265625,579.838208972168L510.8705265625,572.941908972168L507.3264265625,576.390008972168L514.4147265624999,583.2913089721679L517.9639265625,579.838208972168ZM461.2472265625,524.662608972168L454.1589265625,517.7614089721679L450.6097265625,521.214508972168L457.7031265625,528.110808972168L461.2472265625,524.662608972168ZM480.8379265625,547.170808972168L498.9397265625,536.270308972168L487.7357265625,553.8770089721679L480.8379265625,547.170808972168Z" fill="#BC1314" fill-opacity="1"/></g></g><g transform="matrix(-1,0,0,1,1170,0)"><path d="M585,580L630.12,878L915.88,878L961,580L585,580Z" fill="#FFFFFF" fill-opacity="1"/><path d="M924.48,888L972.6279999999999,570L573.3719,570L621.5201,888L924.48,888ZM949.3720000000001,590L907.28,868L638.7199,868L596.6281,590L949.3720000000001,590Z" fill-rule="evenodd" fill="#FFFFFF" fill-opacity="1"/></g><g><g transform="matrix(-1,0,0,1,1050,0)"><path d="M752.2909999999999,888L784.048,570L513.9516,570L545.7089,888L752.2909999999999,888ZM761.952,590L734.189,868L563.8111,868L536.0484,590L761.952,590Z" fill-rule="evenodd" fill="#000000" fill-opacity="1"/></g><g><line x1="299.3199996948242" y1="823.3000030517578" x2="505.16002655029297" y2="823.3000030517578" fill-opacity="0" stroke-opacity="1" stroke="#000000" fill="none" stroke-width="20"/></g><g><path d="M451.00991998291016,712.26568359375L461.13491998291016,729.82778359375C467.52991998291014,740.91338359375,463.73391998291015,755.09168359375,452.6699199829102,761.48868359375C449.14491998291015,763.52168359375,445.15691998291015,764.59468359375,441.09691998291015,764.59468359375L427.4532199829101,764.59468359375L427.4532199829101,777.83868359375L394.38651998291016,754.66068359375L427.4532199829101,731.48338359375L427.4532199829101,744.72778359375L441.08991998291015,744.72778359375C441.67191998291014,744.72778359375,442.24091998291016,744.57548359375,442.74291998291017,744.28408359375C444.15191998291016,743.46958359375,444.73391998291015,741.78088359375,444.20491998291016,740.3041835937499L443.9539199829102,739.76108359375L433.82851998291017,722.19898359375L451.00991998291016,712.26568359375ZM372.80721998291017,694.29298359375L376.31231998291014,734.55608359375L364.87121998291013,727.93378359375L358.0463199829102,739.76108359375C357.7553199829102,740.26438359375,357.60321998291016,740.83388359375,357.60321998291016,741.41668359375C357.60321998291016,743.03908359375,358.77381998291014,744.39668359375,360.31471998291016,744.67478359375L360.90991998291014,744.72778359375L381.15991998291014,744.72778359375L381.15991998291014,764.59468359375L360.90991998291014,764.59468359375C348.12631998291016,764.59468359375,337.76320998291015,754.21768359375,337.76320998291015,741.41668359375C337.76320998291015,737.35058359375,338.8345699829102,733.35078359375,340.86486998291014,729.82778359375L347.68321998291015,718.00048359375L336.22891998291016,711.37828359375L372.80721998291017,694.29298359375L372.80721998291017,694.29298359375ZM412.57321998291013,651.81137359375C416.09151998291014,653.84440359375,419.0146199829102,656.77142359375,421.0449199829102,660.29448359375L427.85661998291016,672.12178359375L439.31791998291015,665.49948359375L435.81251998291015,705.76258359375L399.22751998291017,688.67728359375L410.68181998291016,682.0550835937499L403.86351998291013,670.22778359375C403.57251998291014,669.72448359375,403.15581998291015,669.30068359375,402.6532199829102,669.01588359375C401.24461998291014,668.20138359375,399.49201998291016,668.53908359375,398.48021998291017,669.74438359375L398.13631998291015,670.22778359375L388.01791998291014,687.78988359375L370.82991998291016,677.85658359375L380.94831998291016,660.29448359375C387.3434199829102,649.20884759375,401.50251998291014,645.40769359375,412.57321998291013,651.81137359375Z" fill="#BC1314" fill-opacity="1"/></g></g></g><g><g><path d="M619,378L646.5,498.5L672.5,498.5L672.5,378L619,378Z" fill="#000000" fill-opacity="1"/></g><g><ellipse cx="668" cy="537.5" rx="19.5" ry="19.5" fill="#000000" fill-opacity="1"/></g></g><g><g><g><path d="M153.71030381469726,356.17488C152.96740381469726,354.31183,151.14460381469726,353,148.99780381469725,353C146.85540381469727,353,145.03260381469727,354.31183,144.28970381469728,356.17488C124.44190381469727,358.48233,109.00000381469727,375.2114,109.00000381469727,395.4443C109.00000381469727,417.2497,126.93860381469727,435,148.99780381469725,435C171.06140381469726,435,189.00000381469727,417.2625,189.00000381469727,395.4443C189.00000381469727,375.613,174.0246038146973,358.75581,154.16390381469728,356.21761C154.01700381469726,356.20052,153.85720381469727,356.1877,153.71030381469726,356.17488ZM184.65340381469727,395.4278C184.65340381469727,377.7458,171.29770381469726,362.70467,153.59240381469726,360.43995C153.53630381469725,360.42713,153.47580381469726,360.42713,153.41960381469727,360.42713C152.83650381469727,361.4783,151.88610381469726,362.30296,150.71990381469726,362.72177L150.71990381469726,376.5665C160.49050381469726,377.4424,168.16180381469727,385.5484,168.16180381469727,395.4448C168.16180381469727,405.9137,159.55750381469727,414.4086,148.98350381469726,414.4086C138.41380381469727,414.4086,129.82250381469726,405.9137,129.82250381469726,395.4448C129.82250381469726,385.5484,137.49380381469726,377.4296,147.26430381469726,376.5665L147.26430381469726,362.72177C146.11100381469726,362.31582,145.14790381469726,361.4954,144.56470381469728,360.43995C126.98030381469727,362.60639,113.31802381469727,377.4723,113.33095381469727,395.4406C113.33095381469727,414.8957,129.32580381469728,430.7188,149.00080381469726,430.7188L148.98350381469726,430.7017C168.65850381469727,430.7017,184.65340381469727,414.8829,184.65340381469727,395.4278Z" fill-rule="evenodd" fill="#BC1314" fill-opacity="1"/></g><g><path d="M153.21436983032225,365.9345807127564L152.61396983032228,370.16063151275637C165.27416983032225,371.92113151275635,174.81146983032227,382.7789615127563,174.81146983032227,395.42726151275633C174.81146983032227,409.50266151275633,163.23106983032227,420.9544615127563,148.99856983032225,420.9544615127563C134.76606983032227,420.9544615127563,123.19004983032227,409.50266151275633,123.19004983032227,395.42726151275633C123.19004983032227,382.76616151275636,132.74026983032226,371.8912215127564,145.39616983032226,370.14782151275637L144.80006983032226,365.92176151275635C130.01476983032228,367.95574151275633,118.85766983032227,380.64676151275637,118.85766983032227,395.42726151275633C118.85766983032227,411.85286151275636,132.37746983032227,425.2232615127563,148.98566983032225,425.2232615127563C165.59376983032226,425.2232615127563,179.11356983032226,411.85286151275636,179.11356983032226,395.42726151275633C179.11356983032226,380.65956151275634,167.96946983032228,367.96856151275637,153.20136983032228,365.92176151275635L153.21436983032225,365.9345807127564Z" fill-rule="evenodd" fill="#BC1314" fill-opacity="1"/></g></g><g><g transform="matrix(0.7071067690849304,0.7071067690849304,-0.7071067690849304,0.7071067690849304,269.1407284527647,32.035865946679394)"><path d="M95.89966106414795,345.89953231811523L247.39966106414795,345.89953231811523Q247.52266106414794,345.89953231811523,247.64466106414795,345.89351231811526Q247.76766106414794,345.88748231811525,247.88966106414796,345.8754523181152Q248.01166106414794,345.8634223181152,248.13366106414796,345.8454123181152Q248.25466106414794,345.8274023181152,248.37466106414794,345.80346231811524Q248.49566106414795,345.7795123181152,248.61466106414795,345.74969231811525Q248.73366106414795,345.71986231811525,248.85066106414794,345.6842323181152Q248.96866106414794,345.64860231811525,249.08366106414795,345.60725231811523Q249.19966106414796,345.5659023181152,249.31266106414796,345.5189323181152Q249.42666106414794,345.47196231811523,249.53766106414795,345.41948231811523Q249.64866106414794,345.3670023181152,249.75666106414795,345.3091423181152Q249.86466106414795,345.2512823181152,249.96966106414794,345.1881723181152Q250.07566106414794,345.12507231811526,250.17766106414794,345.05688231811524Q250.27966106414794,344.9886923181152,250.37766106414796,344.9155723181152Q250.47666106414795,344.84245231811525,250.57166106414795,344.76458231811523Q250.66666106414795,344.6867123181152,250.75766106414795,344.60429231811526Q250.84866106414796,344.5218623181152,250.93566106414795,344.43506231811523Q251.02166106414796,344.3482723181152,251.10466106414796,344.25732231811526Q251.18666106414796,344.1663823181152,251.26466106414796,344.0715023181152Q251.34266106414796,343.97661231811526,251.41566106414794,343.87803231811523Q251.48866106414795,343.77944231811523,251.55666106414796,343.67738231811524Q251.62566106414795,343.57532231811524,251.68866106414794,343.47004231811525Q251.75166106414795,343.36476231811525,251.80966106414795,343.25651231811526Q251.86666106414796,343.14826231811526,251.91966106414796,343.03731231811526Q251.97166106414795,342.9263523181152,252.01866106414795,342.8129523181152Q252.06566106414795,342.69955231811525,252.10766106414795,342.58398231811526Q252.14866106414794,342.4684123181152,252.18466106414795,342.3509523181152Q252.21966106414794,342.23350231811526,252.24966106414794,342.11443231811523Q252.27966106414794,341.99537231811524,252.30366106414795,341.87498331811526Q252.32766106414795,341.75459931811525,252.34566106414795,341.63318431811524Q252.36366106414795,341.5117703181152,252.37566106414795,341.38961831811525Q252.38766106414795,341.2674663181152,252.39366106414795,341.14487031811524Q252.39966106414795,341.02227531811525,252.39966106414795,340.89953231811523Q252.39966106414795,340.7767893181152,252.39366106414795,340.65419431811523Q252.38766106414795,340.53159831811524,252.37566106414795,340.4094463181152Q252.36366106414795,340.28729431811524,252.34566106414795,340.1658803181152Q252.32766106414795,340.0444653181152,252.30366106414795,339.9240813181152Q252.27966106414794,339.8036923181152,252.24966106414794,339.68463231811523Q252.21966106414794,339.5655623181152,252.18466106414795,339.44811231811525Q252.14866106414794,339.33065231811526,252.10766106414795,339.2150823181152Q252.06566106414795,339.0995123181152,252.01866106414795,338.98611231811526Q251.97166106414795,338.87271231811525,251.91966106414796,338.7617523181152Q251.86666106414796,338.6508023181152,251.80966106414795,338.5425523181152Q251.75166106414795,338.4343023181152,251.68866106414794,338.3290223181152Q251.62566106414795,338.2237423181152,251.55666106414796,338.12168231811523Q251.48866106414795,338.01962231811524,251.41566106414794,337.92103231811524Q251.34266106414796,337.8224523181152,251.26466106414796,337.72756231811525Q251.18666106414796,337.63268231811526,251.10466106414796,337.5417423181152Q251.02166106414796,337.45079231811525,250.93566106414795,337.36400231811524Q250.84866106414796,337.27720231811526,250.75766106414795,337.1947723181152Q250.66666106414795,337.11235231811526,250.57166106414795,337.03448231811524Q250.47666106414795,336.9566123181152,250.37766106414796,336.88349231811526Q250.27966106414794,336.81037231811524,250.17766106414794,336.7421823181152Q250.07566106414794,336.6739923181152,249.96966106414794,336.61089231811525Q249.86466106414795,336.54778231811525,249.75666106414795,336.48992231811525Q249.64866106414794,336.43206231811524,249.53766106414795,336.37958231811524Q249.42666106414794,336.32710231811524,249.31266106414796,336.28013231811525Q249.19966106414796,336.23316231811526,249.08366106414795,336.19181231811524Q248.96866106414794,336.1504623181152,248.85066106414794,336.11483231811525Q248.73366106414795,336.0792023181152,248.61466106414795,336.0493723181152Q248.49566106414795,336.01955231811525,248.37466106414794,335.99560231811523Q248.25466106414794,335.97166231811525,248.13366106414796,335.95365231811525Q248.01166106414794,335.93564231811524,247.88966106414796,335.92361231811526Q247.76766106414794,335.9115823181152,247.64466106414795,335.9055523181152Q247.52266106414794,335.89953231811523,247.39966106414795,335.89953231811523L95.89966106414795,335.89953231811523Q95.77691806414795,335.89953231811523,95.65432306414795,335.9055523181152Q95.53172706414794,335.9115823181152,95.40957506414794,335.92361231811526Q95.28742306414794,335.93564231811524,95.16600906414794,335.95365231811525Q95.04459406414794,335.97166231811525,94.92421006414794,335.99560231811523Q94.80382106414795,336.01955231811525,94.68476106414795,336.0493723181152Q94.56569106414796,336.0792023181152,94.44824106414795,336.11483231811525Q94.33078106414794,336.1504623181152,94.21521106414795,336.19181231811524Q94.09964106414795,336.23316231811526,93.98624106414795,336.28013231811525Q93.87284106414795,336.32710231811524,93.76188106414794,336.37958231811524Q93.65093106414795,336.43206231811524,93.54268106414796,336.48992231811525Q93.43443106414794,336.54778231811525,93.32915106414795,336.61089231811525Q93.22387106414794,336.6739923181152,93.12181106414795,336.7421823181152Q93.01975106414795,336.81037231811524,92.92116106414795,336.88349231811526Q92.82258106414795,336.9566123181152,92.72769106414795,337.03448231811524Q92.63281106414794,337.11235231811526,92.54187106414795,337.1947723181152Q92.45092106414795,337.27720231811526,92.36413106414795,337.36400231811524Q92.27733106414794,337.45079231811525,92.19490106414796,337.5417423181152Q92.11248106414794,337.63268231811526,92.03461106414795,337.72756231811525Q91.95674106414795,337.8224523181152,91.88362106414795,337.92103231811524Q91.81050106414796,338.01962231811524,91.74231106414796,338.12168231811523Q91.67412106414795,338.2237423181152,91.61102106414795,338.3290223181152Q91.54791106414795,338.4343023181152,91.49005106414795,338.5425523181152Q91.43219106414794,338.6508023181152,91.37971106414795,338.7617523181152Q91.32723106414795,338.87271231811525,91.28026106414795,338.98611231811526Q91.23329106414795,339.0995123181152,91.19194106414795,339.2150823181152Q91.15059106414795,339.33065231811526,91.11496106414795,339.44811231811525Q91.07933106414795,339.5655623181152,91.04950106414795,339.68463231811523Q91.01968106414795,339.8036923181152,90.99573106414795,339.9240813181152Q90.97179106414795,340.0444653181152,90.95378106414795,340.1658803181152Q90.93577106414794,340.28729431811524,90.92374106414795,340.4094463181152Q90.91171106414795,340.53159831811524,90.90568106414796,340.65419431811523Q90.89966106414795,340.7767893181152,90.89966106414795,340.89953231811523Q90.89966106414795,341.02227531811525,90.90568106414796,341.14487031811524Q90.91171106414795,341.2674663181152,90.92374106414795,341.38961831811525Q90.93577106414794,341.5117703181152,90.95378106414795,341.63318431811524Q90.97179106414795,341.75459931811525,90.99573106414795,341.87498331811526Q91.01968106414795,341.99537231811524,91.04950106414795,342.11443231811523Q91.07933106414795,342.23350231811526,91.11496106414795,342.3509523181152Q91.15059106414795,342.4684123181152,91.19194106414795,342.58398231811526Q91.23329106414795,342.69955231811525,91.28026106414795,342.8129523181152Q91.32723106414795,342.9263523181152,91.37971106414795,343.03731231811526Q91.43219106414794,343.14826231811526,91.49005106414795,343.25651231811526Q91.54791106414795,343.36476231811525,91.61102106414795,343.47004231811525Q91.67412106414795,343.57532231811524,91.74231106414796,343.67738231811524Q91.81050106414796,343.77944231811523,91.88362106414795,343.87803231811523Q91.95674106414795,343.97661231811526,92.03461106414795,344.0715023181152Q92.11248106414794,344.1663823181152,92.19490106414796,344.25732231811526Q92.27733106414794,344.3482723181152,92.36413106414795,344.43506231811523Q92.45092106414795,344.5218623181152,92.54187106414795,344.60429231811526Q92.63281106414794,344.6867123181152,92.72769106414795,344.76458231811523Q92.82258106414795,344.84245231811525,92.92116106414795,344.9155723181152Q93.01975106414795,344.9886923181152,93.12181106414795,345.05688231811524Q93.22387106414794,345.12507231811526,93.32915106414795,345.1881723181152Q93.43443106414794,345.2512823181152,93.54268106414796,345.3091423181152Q93.65093106414795,345.3670023181152,93.76188106414794,345.41948231811523Q93.87284106414795,345.47196231811523,93.98624106414795,345.5189323181152Q94.09964106414795,345.5659023181152,94.21521106414795,345.60725231811523Q94.33078106414794,345.64860231811525,94.44824106414795,345.6842323181152Q94.56569106414796,345.71986231811525,94.68476106414795,345.74969231811525Q94.80382106414795,345.7795123181152,94.92421006414794,345.80346231811524Q95.04459406414794,345.8274023181152,95.16600906414794,345.8454123181152Q95.28742306414794,345.8634223181152,95.40957506414794,345.8754523181152Q95.53172706414794,345.88748231811525,95.65432306414795,345.89351231811526Q95.77691806414795,345.89953231811523,95.89966106414795,345.89953231811523Z" fill-rule="evenodd" fill="#BC1314" fill-opacity="1"/></g><g><path d="M87.41447286102294,339.48519L86.00012207002295,340.89954L87.41435286102295,342.3138L90.94991286102295,345.84929999999997L203.02600286102296,457.926L204.44100286102295,456.51099999999997L203.02600286102296,455.097L92.36423286102296,344.4349L90.24290286102296,342.3136L87.41447286102294,339.48519ZM95.89942286102294,333.82866L94.48521286102294,332.41445L95.89966286102295,331L100.84940286102295,335.94979L212.92600286102294,448.026L211.51100286102294,449.44100000000003L210.09700286102293,448.026L210.09700286102293,448.026L99.43520286102294,337.364L97.31390286102295,335.24265L95.89965286102294,333.82843L95.89942286102294,333.82866Z" fill-rule="evenodd" fill="#FFFFFF" fill-opacity="1"/></g></g><g><path d="M89.00000286102295,334L208.00000286102295,334L208.00000286102295,453L89.00000286102295,453L89.00000286102295,334ZM94.00000286102295,339L94.00000286102295,448L203.00000286102295,448L203.00000286102295,339L94.00000286102295,339Z" fill-rule="evenodd" fill="#BC1314" fill-opacity="1"/></g></g><g><g><path d="M774.5835,66.00970000000001L774.7727,67.50139999999999C774.923,68.9803,775,70.4813,775,72C775,81.87219999999999,771.7488,90.985,766.2589,98.326L766.2572,98.3276L763.9545,94.339L764.3833,93.7139C768.1043,88.0042,770.4005999999999,81.2813,770.7672,74.04910000000001L770.8053,72.55199999999999L774.5835,66.00970000000001ZM766.1077,54.6201L771.1249,63.3101L756.0734,89.37989999999999L751.0567,80.6899L766.1077,54.6201ZM751.0567,54.6201L756.0739,63.3101L741.0224,89.37989999999999L736.0053,80.6899L751.0567,54.6201ZM741.0461,45.9306L746.0633,54.6201L725.9947,89.37989999999999L741.0224,89.37989999999999L756.0734,89.37989999999999Q756.0739,89.37989999999999,756.0739,89.37989999999999L761.0906,98.0694L720.9776,98.0694L715.9604,89.37989999999999L736.029,54.6201L731.0118,54.6201L710.9433,89.37989999999999L705.9266,80.6899L720.9776,54.6201L705.9266,54.6201L700.9094,45.9306L741.0461,45.9306ZM695.74285,45.672L698.0413,49.6525L697.9816,49.7367C693.68783,56.091899999999995,691.18074,63.7532,691.18074,72C691.18074,93.9915,709.0085,111.8193,731,111.8193C740.3207,111.8193,748.8933,108.6167,755.6777,103.2521L756.6893,102.4136L762.7795,102.4136L762.1128,103.1128C754.1501,111.0751,743.1503,116,731,116C706.6995,116,687,96.3005,687,72C687,62.1278,690.25122,53.015,695.74115,45.674099999999996L695.74285,45.672ZM731,28C744.669,28,756.8823,34.23323,764.9526,44.0119L766.2563,45.671099999999996L763.9587,49.6525L762.9086,48.1757C755.6468,38.466,744.0574,32.18074,731,32.18074C721.3788,32.18074,712.5543,35.59322,705.6713,41.2737L705.3115,41.5856L699.2218,41.5856L699.8872,40.8872C707.85,32.92487,718.8497,28,731,28Z" fill-rule="evenodd" fill="#FFFFFF" fill-opacity="1"/></g></g><g><path d="M601.0519,907.341Q609.8663,908.4518,612.4858,910.476Q621.4412,917.3961,640.9628,921.2018Q657.828,924.4897,678.26,924.7893Q687.5699999999999,924.9259,696.065,924.3715Q704.567,923.8166,711.078,922.6459Q717.953,921.4097,721.809,919.6144Q727.014,917.1911,727.014,913.4977Q727.014,909.8416,723.24,907.5055Q720.585,905.8624,715.722,904.8033Q711.91,903.973,706.125,903.3741Q702.722,903.0219,695.6949999999999,902.5018Q690.191,902.0944,687.674,901.8561Q683.563,901.4667,680.971,901.0041Q678.08,900.4881,676.668,899.8333Q676.663,899.8309,676.658,899.8284Q678.0219999999999,899.2255,680.735,898.6933Q683.5,898.1511,687.961,897.6509Q690.6800000000001,897.3461,696.58,896.8051Q703.527,896.1681,706.781,895.7821Q712.302,895.1271,715.681,894.3352Q720.144,893.2888,722.1,891.6924Q723.653,890.4255,723.951,888.7182Q724.263,886.92786,723.117,885.14595Q721.871,883.20687,718.484,881.77861Q715.698,880.60389,711.237,879.63717Q702.992,877.850343,689.341,876.79733Q676.477,875.80497,660.294,875.56912Q644.4929999999999,875.33882,627.8766,875.86113Q611.0264999999999,876.39079,595.9575,877.613857Q580.1415,878.897551,568.3957,880.78031Q555.6756,882.81925,548.88352,885.39429Q545.03217,886.85443,543.0129648,888.5379Q540.21839,890.8677,540.52871,893.764Q540.97204,897.9019,545.61422,900.4683Q549.0778,902.3832,555.2993,903.5526Q560.2691,904.4868,567.8159,905.0861Q572.2858,905.441,581.6404,905.9224Q588.5874,906.2798,591.8765,906.5021Q597.3071,906.869,601.0519,907.341ZM641.9195,916.2942Q623.561,912.7153,615.543,906.5196Q613.4606,904.9104,609.6094,903.8532Q606.422,902.9782,601.6771,902.3802Q597.7886,901.8902,592.2135,901.5134Q588.8844,901.2885,581.8974,900.929Q572.6122,900.4512,568.2117,900.1017Q560.9307,899.5236,556.223,898.6387Q550.79254,897.6179,548.03341,896.0925Q545.66661,894.784,545.50025,893.2313Q545.49739,893.2047,545.54531,893.1148Q545.71634,892.7938,546.21475,892.3783Q547.58938,891.2322,550.65603,890.0696Q556.9709,887.67545,569.1871,885.71729Q580.7404,883.86539,596.362,882.59747Q611.3075,881.38443,628.0337,880.85866Q644.535,880.33997,660.222,880.56859Q676.248,880.80216,688.956,881.78251Q702.266,882.80926,710.178,884.52374Q714.184,885.39189,716.5409999999999,886.38579Q718.4929999999999,887.20884,718.908,887.84378Q717.83,888.6958,714.539,889.4671Q711.434,890.195,706.192,890.8169Q703.005,891.1951,696.124,891.826Q690.173,892.3716,687.404,892.682Q682.739,893.2051,679.773,893.7868Q675.9929999999999,894.5282,674.016,895.5518Q672.609,896.28,671.856,897.2636Q670.766,898.6874,671.047,900.4022Q671.462,902.9301,674.564,904.3691Q676.564,905.2966,680.093,905.9264000000001Q682.887,906.425,687.203,906.8338Q689.77,907.077,695.326,907.4882Q702.28,908.0028,705.61,908.3475Q711.1179999999999,908.9177,714.658,909.6887Q718.683,910.5654,720.609,911.7572Q721.986,912.6096,722.014,913.4624Q721.952,913.5906,721.765,913.7787Q721.134,914.4136,719.6990000000001,915.0816Q716.431,916.6033,710.193,917.7248Q703.96,918.8456,695.739,919.3821Q687.444,919.9235,678.333,919.7899Q658.347,919.4967,641.9195,916.2942Z" fill-rule="evenodd" fill="#BC1314" fill-opacity="1"/></g><g><ellipse cx="159.5" cy="906" rx="46" ry="8.5" fill-opacity="0" stroke-opacity="1" stroke="#BC1314" fill="none" stroke-width="5"/></g></g></svg>