<svg xmlns="http://www.w3.org/2000/svg" xmlns:xlink="http://www.w3.org/1999/xlink" fill="none" version="1.1" width="72" height="97" viewBox="0 0 72 97"><defs><linearGradient x1="0.5" y1="0" x2="0.5" y2="1" id="master_svg0_186_3098"><stop offset="0%" stop-color="#EC2021" stop-opacity="1"/><stop offset="79.2853832244873%" stop-color="#EC2021" stop-opacity="1"/><stop offset="100%" stop-color="#FA3E00" stop-opacity="0"/></linearGradient></defs><g transform="matrix(-1,0,0,1,144,0)"><g><path d="M87.6516,7.78953C87.6516,12.0916,84.14789999999999,15.5791,79.82581,15.5791C75.50373,15.5791,72,12.0916,72,7.78953C72,3.48749,75.50373,0,79.82581,0C84.14789999999999,0,87.6516,3.48749,87.6516,7.78953ZM76.81587999999999,7.78953Q76.81587999999999,9.0305,77.69747,9.908Q78.57906,10.7855,79.82581,10.7855Q81.07257,10.7855,81.95415,9.908Q82.8357,9.0305,82.8357,7.78953Q82.8357,6.54855,81.95415,5.67105Q81.07257,4.79356,79.82581,4.79356Q78.57906,4.79356,77.69747,5.67105Q76.81587999999999,6.54855,76.81587999999999,7.78953Z" fill-rule="evenodd" fill="#EC2021" fill-opacity="1"/></g><g transform="matrix(0.8153883814811707,-0.5789144039154053,0.5824915766716003,0.8128367066383362,6.873521635367979,49.89151360460829)"><rect x="81.63176822662354" y="14.071707725524902" width="3.6062746047973633" height="102.02330780029297" rx="0" fill="url(#master_svg0_186_3098)" fill-opacity="1"/></g></g></svg>