<svg xmlns="http://www.w3.org/2000/svg" xmlns:xlink="http://www.w3.org/1999/xlink" fill="none" version="1.1" width="891.0872802734375" height="891" viewBox="0 0 891.0872802734375 891"><g><g><g><path d="M447.9756,446.7445L468.71500000000003,503.76L482.339,503.76L456.924,433.9164L397.6822,433.9244L376.9689,490.93L365.8064,490.93L365.8064,381.828L394.2608,381.828L400.5237,399.0641L414.1649,399.0641L403.2541,369L353,369L353,503.76L385.9411,503.757L406.666,446.7445L447.9756,446.7445Z" fill-rule="evenodd" fill="#EC2021" fill-opacity="1"/></g><g><path d="M540,523L540,386.2361L430.30039999999997,386.2362L424.0375,369L410.3954,369L421.3194,399.0641L527.194,399.0641L527.194,510.172L353,510.172L353,523L540,523Z" fill-rule="evenodd" fill="#000000" fill-opacity="1"/></g><g><path d="M460.0111324951172,503.7599262207031L455.3501324951172,490.9320262207031L421.3905324951172,490.9320262207031L415.69283249511716,475.2511262207031L449.6523324951172,475.2511262207031L444.9909324951172,462.4231262207031L408.7262724951172,462.4231262207031L402.9214324951172,477.6474262207031L412.4044624951172,503.7599262207031L460.0111324951172,503.7599262207031Z" fill-rule="evenodd" fill="#000000" fill-opacity="1"/></g><g><path d="M469.7097315332031,447.0785516601562L464.8733215332031,433.77545166015625L499.2370215332031,433.77545166015625L504.07342153320315,447.0785516601562L469.7097315332031,447.0785516601562ZM480.07342153320315,475.58515166015627L475.2370215332031,462.28205166015624L509.6007215332031,462.28205166015624L514.4372215332031,475.58515166015627L480.07342153320315,475.58515166015627Z" fill-rule="evenodd" fill="#000000" fill-opacity="1"/></g></g><g><path d="M94,0C42.0852,0,0,42.0852,0,94C0,145.915,42.0852,188,94,188C145.915,188,188,145.915,188,94C188,42.0852,145.915,0,94,0ZM512.656,12.5C512.656,19.4036,507.059,25,500.156,25C493.252,25,487.656,19.4036,487.656,12.5C487.656,5.59644,493.252,0,500.156,0C507.059,0,512.656,5.59644,512.656,12.5ZM566.656,12.5C566.656,19.4036,561.059,25,554.156,25C547.252,25,541.656,19.4036,541.656,12.5C541.656,5.59644,547.252,0,554.156,0C561.059,0,566.656,5.59644,566.656,12.5ZM620.656,12.5C620.656,19.4036,615.059,25,608.156,25C601.252,25,595.656,19.4036,595.656,12.5C595.656,5.59644,601.252,0,608.156,0C615.059,0,620.656,5.59644,620.656,12.5ZM797,0C745.085,0,703,42.0852,703,94C703,145.915,745.085,188,797,188C848.915,188,891,145.915,891,94C891,42.0852,848.915,0,797,0ZM647.691,12.5167C647.691,19.4203,642.095,25.0167,635.191,25.0167C628.288,25.0167,622.691,19.4203,622.691,12.5167C622.691,5.61316,628.288,0.0167236,635.191,0.0167236C642.095,0.0167236,647.691,5.61316,647.691,12.5167ZM674.691,12.5167C674.691,19.4203,669.095,25.0167,662.191,25.0167C655.288,25.0167,649.691,19.4203,649.691,12.5167C649.691,5.61316,655.288,0.0167236,662.191,0.0167236C669.095,0.0167236,674.691,5.61316,674.691,12.5167ZM350.604,12.537C350.604,19.4406,345.008,25.037,338.104,25.037C331.201,25.037,325.604,19.4406,325.604,12.537C325.604,5.63342,331.201,0.0369873,338.104,0.0369873C345.008,0.0369873,350.604,5.63342,350.604,12.537ZM242.031,12.6292C242.031,19.5327,236.434,25.1292,229.531,25.1292C222.627,25.1292,217.031,19.5327,217.031,12.6292C217.031,5.72559,222.627,0.12915,229.531,0.12915C236.434,0.12915,242.031,5.72559,242.031,12.6292ZM29.8446,119.399Q25,107.161,25,94Q25,80.8387,29.8446,68.6015Q35.1048,55.3145,45.2096,45.2096Q55.3145,35.1048,68.6015,29.8446Q80.8387,25,94,25Q107.161,25,119.399,29.8446Q132.686,35.1048,142.79,45.2096Q152.895,55.3145,158.155,68.6015Q163,80.8387,163,94Q163,107.161,158.155,119.399Q152.895,132.686,142.79,142.79Q132.686,152.895,119.399,158.155Q107.161,163,94,163Q80.8387,163,68.6015,158.155Q55.3145,152.895,45.2096,142.79Q35.1048,132.686,29.8446,119.399ZM732.845,119.399Q728,107.161,728,94Q728,80.8387,732.845,68.6015Q738.105,55.3145,748.21,45.2096Q758.314,35.1048,771.601,29.8446Q783.839,25,797,25Q810.161,25,822.399,29.8446Q835.686,35.1048,845.79,45.2096Q855.895,55.3145,861.155,68.6015Q866,80.8387,866,94Q866,107.161,861.155,119.399Q855.895,132.686,845.79,142.79Q835.686,152.895,822.399,158.155Q810.161,163,797,163Q783.839,163,771.601,158.155Q758.314,152.895,748.21,142.79Q738.105,132.686,732.845,119.399ZM485.744,39.5C485.744,46.4036,480.148,52,473.244,52C466.34,52,460.744,46.4036,460.744,39.5C460.744,32.5964,466.34,27,473.244,27C480.148,27,485.744,32.5964,485.744,39.5ZM512.744,39.5C512.744,46.4036,507.148,52,500.244,52C493.34,52,487.744,46.4036,487.744,39.5C487.744,32.5964,493.34,27,500.244,27C507.148,27,512.744,32.5964,512.744,39.5ZM539.656,39.5C539.656,46.4036,534.059,52,527.156,52C520.252,52,514.656,46.4036,514.656,39.5C514.656,32.5964,520.252,27,527.156,27C534.059,27,539.656,32.5964,539.656,39.5ZM647.691,39.5167C647.691,46.4203,642.095,52.0167,635.191,52.0167C628.288,52.0167,622.691,46.4203,622.691,39.5167C622.691,32.6132,628.288,27.0167,635.191,27.0167C642.095,27.0167,647.691,32.6132,647.691,39.5167ZM323.485,39.5206C323.485,46.4242,317.889,52.0206,310.985,52.0206C304.082,52.0206,298.485,46.4242,298.485,39.5206C298.485,32.6171,304.082,27.0206,310.985,27.0206C317.889,27.0206,323.485,32.6171,323.485,39.5206ZM350.485,39.5206C350.485,46.4242,344.889,52.0206,337.985,52.0206C331.082,52.0206,325.485,46.4242,325.485,39.5206C325.485,32.6171,331.082,27.0206,337.985,27.0206C344.889,27.0206,350.485,32.6171,350.485,39.5206ZM377.485,39.5206C377.485,46.4242,371.889,52.0206,364.985,52.0206C358.082,52.0206,352.485,46.4242,352.485,39.5206C352.485,32.6171,358.082,27.0206,364.985,27.0206C371.889,27.0206,377.485,32.6171,377.485,39.5206ZM404.485,39.5206C404.485,46.4242,398.889,52.0206,391.985,52.0206C385.082,52.0206,379.485,46.4242,379.485,39.5206C379.485,32.6171,385.082,27.0206,391.985,27.0206C398.889,27.0206,404.485,32.6171,404.485,39.5206ZM431.485,39.5206C431.485,46.4242,425.889,52.0206,418.985,52.0206C412.082,52.0206,406.485,46.4242,406.485,39.5206C406.485,32.6171,412.082,27.0206,418.985,27.0206C425.889,27.0206,431.485,32.6171,431.485,39.5206ZM134,94C134,116.091,116.091,134,94,134C71.9086,134,54,116.091,54,94C54,71.9086,71.9086,54,94,54C116.091,54,134,71.9086,134,94ZM837,94C837,116.091,819.091,134,797,134C774.909,134,757,116.091,757,94C757,71.9086,774.909,54,797,54C819.091,54,837,71.9086,837,94ZM296.485,66.5206C296.485,73.4242,290.889,79.0206,283.985,79.0206C277.082,79.0206,271.485,73.4242,271.485,66.5206C271.485,59.6171,277.082,54.0206,283.985,54.0206C290.889,54.0206,296.485,59.6171,296.485,66.5206ZM377.499,66.537C377.499,73.4406,371.903,79.037,364.999,79.037C358.095,79.037,352.499,73.4406,352.499,66.537C352.499,59.6334,358.095,54.037,364.999,54.037C371.903,54.037,377.499,59.6334,377.499,66.537ZM647.63,66.5393C647.63,73.4429,642.033,79.0393,635.13,79.0393C628.226,79.0393,622.63,73.4429,622.63,66.5393C622.63,59.6357,628.226,54.0393,635.13,54.0393C642.033,54.0393,647.63,59.6357,647.63,66.5393ZM674.63,66.5393C674.63,73.4429,669.033,79.0393,662.13,79.0393C655.226,79.0393,649.63,73.4429,649.63,66.5393C649.63,59.6357,655.226,54.0393,662.13,54.0393C669.033,54.0393,674.63,59.6357,674.63,66.5393ZM458.659,66.5571C458.659,73.4607,453.063,79.0571,446.159,79.0571C439.256,79.0571,433.659,73.4607,433.659,66.5571C433.659,59.6536,439.256,54.0571,446.159,54.0571C453.063,54.0571,458.659,59.6536,458.659,66.5571ZM269.027,66.6292C269.027,73.5327,263.431,79.1292,256.527,79.1292C249.624,79.1292,244.027,73.5327,244.027,66.6292C244.027,59.7256,249.624,54.1292,256.527,54.1292C263.431,54.1292,269.027,59.7256,269.027,66.6292ZM512.692,93.527C512.692,100.431,507.096,106.027,500.192,106.027C493.288,106.027,487.692,100.431,487.692,93.527C487.692,86.6234,493.288,81.027,500.192,81.027C507.096,81.027,512.692,86.6234,512.692,93.527ZM539.692,93.527C539.692,100.431,534.096,106.027,527.192,106.027C520.288,106.027,514.692,100.431,514.692,93.527C514.692,86.6234,520.288,81.027,527.192,81.027C534.096,81.027,539.692,86.6234,539.692,93.527ZM566.692,93.527C566.692,100.431,561.096,106.027,554.192,106.027C547.288,106.027,541.692,100.431,541.692,93.527C541.692,86.6234,547.288,81.027,554.192,81.027C561.096,81.027,566.692,86.6234,566.692,93.527ZM620.651,93.527C620.651,100.431,615.055,106.027,608.151,106.027C601.248,106.027,595.651,100.431,595.651,93.527C595.651,86.6234,601.248,81.027,608.151,81.027C615.055,81.027,620.651,86.6234,620.651,93.527ZM485.634,93.5292C485.634,100.433,480.038,106.029,473.134,106.029C466.231,106.029,460.634,100.433,460.634,93.5292C460.634,86.6256,466.231,81.0292,473.134,81.0292C480.038,81.0292,485.634,86.6256,485.634,93.5292ZM323.519,93.537C323.519,100.441,317.922,106.037,311.019,106.037C304.115,106.037,298.519,100.441,298.519,93.537C298.519,86.6334,304.115,81.037,311.019,81.037C317.922,81.037,323.519,86.6334,323.519,93.537ZM674.651,93.5393C674.651,100.443,669.055,106.039,662.151,106.039C655.248,106.039,649.651,100.443,649.651,93.5393C649.651,86.6357,655.248,81.0393,662.151,81.0393C669.055,81.0393,674.651,86.6357,674.651,93.5393ZM458.659,93.5571C458.659,100.461,453.063,106.057,446.159,106.057C439.256,106.057,433.659,100.461,433.659,93.5571C433.659,86.6536,439.256,81.0571,446.159,81.0571C453.063,81.0571,458.659,86.6536,458.659,93.5571ZM242.027,93.6292C242.027,100.533,236.431,106.129,229.527,106.129C222.624,106.129,217.027,100.533,217.027,93.6292C217.027,86.7256,222.624,81.1292,229.527,81.1292C236.431,81.1292,242.027,86.7256,242.027,93.6292ZM431.678,93.6292C431.678,100.533,426.082,106.129,419.178,106.129C412.275,106.129,406.678,100.533,406.678,93.6292C406.678,86.7256,412.275,81.1292,419.178,81.1292C426.082,81.1292,431.678,86.7256,431.678,93.6292ZM512.692,120.527C512.692,127.431,507.096,133.027,500.192,133.027C493.288,133.027,487.692,127.431,487.692,120.527C487.692,113.623,493.288,108.027,500.192,108.027C507.096,108.027,512.692,113.623,512.692,120.527ZM539.692,120.527C539.692,127.431,534.096,133.027,527.192,133.027C520.288,133.027,514.692,127.431,514.692,120.527C514.692,113.623,520.288,108.027,527.192,108.027C534.096,108.027,539.692,113.623,539.692,120.527ZM323.519,120.537C323.519,127.441,317.922,133.037,311.019,133.037C304.115,133.037,298.519,127.441,298.519,120.537C298.519,113.633,304.115,108.037,311.019,108.037C317.922,108.037,323.519,113.633,323.519,120.537ZM431.659,120.557C431.659,127.461,426.063,133.057,419.159,133.057C412.256,133.057,406.659,127.461,406.659,120.557C406.659,113.654,412.256,108.057,419.159,108.057C426.063,108.057,431.659,113.654,431.659,120.557ZM458.659,120.557C458.659,127.461,453.063,133.057,446.159,133.057C439.256,133.057,433.659,127.461,433.659,120.557C433.659,113.654,439.256,108.057,446.159,108.057C453.063,108.057,458.659,113.654,458.659,120.557ZM269.031,120.629C269.031,127.533,263.434,133.129,256.531,133.129C249.627,133.129,244.031,127.533,244.031,120.629C244.031,113.726,249.627,108.129,256.531,108.129C263.434,108.129,269.031,113.726,269.031,120.629ZM566.653,120.631C566.653,127.535,561.057,133.131,554.153,133.131C547.249,133.131,541.653,127.535,541.653,120.631C541.653,113.728,547.249,108.131,554.153,108.131C561.057,108.131,566.653,113.728,566.653,120.631ZM620.653,120.631C620.653,127.535,615.057,133.131,608.153,133.131C601.249,133.131,595.653,127.535,595.653,120.631C595.653,113.728,601.249,108.131,608.153,108.131C615.057,108.131,620.653,113.728,620.653,120.631ZM674.653,120.631C674.653,127.535,669.057,133.131,662.153,133.131C655.249,133.131,649.653,127.535,649.653,120.631C649.653,113.728,655.249,108.131,662.153,108.131C669.057,108.131,674.653,113.728,674.653,120.631ZM296.519,147.537C296.519,154.441,290.922,160.037,284.019,160.037C277.115,160.037,271.519,154.441,271.519,147.537C271.519,140.633,277.115,135.037,284.019,135.037C290.922,135.037,296.519,140.633,296.519,147.537ZM350.519,147.537C350.519,154.441,344.922,160.037,338.019,160.037C331.115,160.037,325.519,154.441,325.519,147.537C325.519,140.633,331.115,135.037,338.019,135.037C344.922,135.037,350.519,140.633,350.519,147.537ZM566.653,147.631C566.653,154.535,561.057,160.131,554.153,160.131C547.249,160.131,541.653,154.535,541.653,147.631C541.653,140.728,547.249,135.131,554.153,135.131C561.057,135.131,566.653,140.728,566.653,147.631ZM620.653,147.631C620.653,154.535,615.057,160.131,608.153,160.131C601.249,160.131,595.653,154.535,595.653,147.631C595.653,140.728,601.249,135.131,608.153,135.131C615.057,135.131,620.653,140.728,620.653,147.631ZM647.653,147.631C647.653,154.535,642.057,160.131,635.153,160.131C628.249,160.131,622.653,154.535,622.653,147.631C622.653,140.728,628.249,135.131,635.153,135.131C642.057,135.131,647.653,140.728,647.653,147.631ZM674.653,147.631C674.653,154.535,669.057,160.131,662.153,160.131C655.249,160.131,649.653,154.535,649.653,147.631C649.653,140.728,655.249,135.131,662.153,135.131C669.057,135.131,674.653,140.728,674.653,147.631ZM539.653,147.685C539.653,154.589,534.057,160.185,527.153,160.185C520.249,160.185,514.653,154.589,514.653,147.685C514.653,140.782,520.249,135.185,527.153,135.185C534.057,135.185,539.653,140.782,539.653,147.685ZM404.596,147.724C404.596,154.627,399,160.224,392.096,160.224C385.193,160.224,379.596,154.627,379.596,147.724C379.596,140.82,385.193,135.224,392.096,135.224C399,135.224,404.596,140.82,404.596,147.724ZM431.637,147.724C431.637,154.627,426.04,160.224,419.137,160.224C412.233,160.224,406.637,154.627,406.637,147.724C406.637,140.82,412.233,135.224,419.137,135.224C426.04,135.224,431.637,140.82,431.637,147.724ZM296.521,174.606C296.521,181.509,290.925,187.106,284.021,187.106C277.118,187.106,271.521,181.509,271.521,174.606C271.521,167.702,277.118,162.106,284.021,162.106C290.925,162.106,296.521,167.702,296.521,174.606ZM350.521,174.606C350.521,181.509,344.925,187.106,338.021,187.106C331.118,187.106,325.521,181.509,325.521,174.606C325.521,167.702,331.118,162.106,338.021,162.106C344.925,162.106,350.521,167.702,350.521,174.606ZM404.531,174.66C404.531,181.564,398.934,187.16,392.031,187.16C385.127,187.16,379.531,181.564,379.531,174.66C379.531,167.757,385.127,162.16,392.031,162.16C398.934,162.16,404.531,167.757,404.531,174.66ZM242.139,174.682C242.139,181.586,236.542,187.182,229.639,187.182C222.735,187.182,217.139,181.586,217.139,174.682C217.139,167.779,222.735,162.182,229.639,162.182C236.542,162.182,242.139,167.779,242.139,174.682ZM566.653,174.685C566.653,181.589,561.057,187.185,554.153,187.185C547.249,187.185,541.653,181.589,541.653,174.685C541.653,167.782,547.249,162.185,554.153,162.185C561.057,162.185,566.653,167.782,566.653,174.685ZM620.653,174.685C620.653,181.589,615.057,187.185,608.153,187.185C601.249,187.185,595.653,181.589,595.653,174.685C595.653,167.782,601.249,162.185,608.153,162.185C615.057,162.185,620.653,167.782,620.653,174.685ZM674.748,174.691C674.748,181.594,669.152,187.191,662.248,187.191C655.345,187.191,649.748,181.594,649.748,174.691C649.748,167.787,655.345,162.191,662.248,162.191C669.152,162.191,674.748,167.787,674.748,174.691ZM458.615,174.718C458.615,181.621,453.018,187.218,446.115,187.218C439.211,187.218,433.615,181.621,433.615,174.718C433.615,167.814,439.211,162.218,446.115,162.218C453.018,162.218,458.615,167.814,458.615,174.718ZM512.673,174.718C512.673,181.621,507.076,187.218,500.173,187.218C493.269,187.218,487.673,181.621,487.673,174.718C487.673,167.814,493.269,162.218,500.173,162.218C507.076,162.218,512.673,167.814,512.673,174.718ZM377.596,201.628C377.596,208.532,372,214.128,365.096,214.128C358.193,214.128,352.596,208.532,352.596,201.628C352.596,194.725,358.193,189.128,365.096,189.128C372,189.128,377.596,194.725,377.596,201.628ZM431.531,201.66C431.531,208.564,425.934,214.16,419.031,214.16C412.127,214.16,406.531,208.564,406.531,201.66C406.531,194.757,412.127,189.16,419.031,189.16C425.934,189.16,431.531,194.757,431.531,201.66ZM458.531,201.66C458.531,208.564,452.934,214.16,446.031,214.16C439.127,214.16,433.531,208.564,433.531,201.66C433.531,194.757,439.127,189.16,446.031,189.16C452.934,189.16,458.531,194.757,458.531,201.66ZM296.602,201.664C296.602,208.568,291.005,214.164,284.102,214.164C277.198,214.164,271.602,208.568,271.602,201.664C271.602,194.76,277.198,189.164,284.102,189.164C291.005,189.164,296.602,194.76,296.602,201.664ZM323.521,201.664C323.521,208.568,317.925,214.164,311.021,214.164C304.118,214.164,298.521,208.568,298.521,201.664C298.521,194.76,304.118,189.164,311.021,189.164C317.925,189.164,323.521,194.76,323.521,201.664ZM269.139,201.682C269.139,208.586,263.542,214.182,256.639,214.182C249.735,214.182,244.139,208.586,244.139,201.682C244.139,194.779,249.735,189.182,256.639,189.182C263.542,189.182,269.139,194.779,269.139,201.682ZM566.653,201.685C566.653,208.589,561.057,214.185,554.153,214.185C547.249,214.185,541.653,208.589,541.653,201.685C541.653,194.782,547.249,189.185,554.153,189.185C561.057,189.185,566.653,194.782,566.653,201.685ZM593.653,201.685C593.653,208.589,588.057,214.185,581.153,214.185C574.249,214.185,568.653,208.589,568.653,201.685C568.653,194.782,574.249,189.185,581.153,189.185C588.057,189.185,593.653,194.782,593.653,201.685ZM647.748,201.691C647.748,208.594,642.152,214.191,635.248,214.191C628.345,214.191,622.748,208.594,622.748,201.691C622.748,194.787,628.345,189.191,635.248,189.191C642.152,189.191,647.748,194.787,647.748,201.691ZM485.615,201.718C485.615,208.621,480.018,214.218,473.115,214.218C466.211,214.218,460.615,208.621,460.615,201.718C460.615,194.814,466.211,189.218,473.115,189.218C480.018,189.218,485.615,194.814,485.615,201.718ZM701.74,228.62C701.74,235.524,696.144,241.12,689.24,241.12C682.337,241.12,676.74,235.524,676.74,228.62C676.74,221.716,682.337,216.12,689.24,216.12C696.144,216.12,701.74,221.716,701.74,228.62ZM890.819,228.645C890.819,235.548,885.223,241.145,878.319,241.145C871.416,241.145,865.819,235.548,865.819,228.645C865.819,221.741,871.416,216.145,878.319,216.145C885.223,216.145,890.819,221.741,890.819,228.645ZM674.655,228.647C674.655,235.55,669.058,241.147,662.155,241.147C655.251,241.147,649.655,235.55,649.655,228.647C649.655,221.743,655.251,216.147,662.155,216.147C669.058,216.147,674.655,221.743,674.655,228.647ZM593.753,228.654C593.753,235.558,588.157,241.154,581.253,241.154C574.349,241.154,568.753,235.558,568.753,228.654C568.753,221.751,574.349,216.154,581.253,216.154C588.157,216.154,593.753,221.751,593.753,228.654ZM404.531,228.66C404.531,235.564,398.934,241.16,392.031,241.16C385.127,241.16,379.531,235.564,379.531,228.66C379.531,221.757,385.127,216.16,392.031,216.16C398.934,216.16,404.531,221.757,404.531,228.66ZM431.531,228.66C431.531,235.564,425.934,241.16,419.031,241.16C412.127,241.16,406.531,235.564,406.531,228.66C406.531,221.757,412.127,216.16,419.031,216.16C425.934,216.16,431.531,221.757,431.531,228.66ZM458.531,228.66C458.531,235.564,452.934,241.16,446.031,241.16C439.127,241.16,433.531,235.564,433.531,228.66C433.531,221.757,439.127,216.16,446.031,216.16C452.934,216.16,458.531,221.757,458.531,228.66ZM485.531,228.66C485.531,235.564,479.934,241.16,473.031,241.16C466.127,241.16,460.531,235.564,460.531,228.66C460.531,221.757,466.127,216.16,473.031,216.16C479.934,216.16,485.531,221.757,485.531,228.66ZM134.031,228.677C134.031,235.581,128.434,241.177,121.531,241.177C114.627,241.177,109.031,235.581,109.031,228.677C109.031,221.774,114.627,216.177,121.531,216.177C128.434,216.177,134.031,221.774,134.031,228.677ZM161.031,228.677C161.031,235.581,155.434,241.177,148.531,241.177C141.627,241.177,136.031,235.581,136.031,228.677C136.031,221.774,141.627,216.177,148.531,216.177C155.434,216.177,161.031,221.774,161.031,228.677ZM323.602,228.696C323.602,235.6,318.005,241.196,311.102,241.196C304.198,241.196,298.602,235.6,298.602,228.696C298.602,221.792,304.198,216.196,311.102,216.196C318.005,216.196,323.602,221.792,323.602,228.696ZM350.529,228.705C350.529,235.608,344.932,241.205,338.029,241.205C331.125,241.205,325.529,235.608,325.529,228.705C325.529,221.801,331.125,216.205,338.029,216.205C344.932,216.205,350.529,221.801,350.529,228.705ZM80.0824,228.707C80.0824,235.61,74.486,241.207,67.5824,241.207C60.6788,241.207,55.0824,235.61,55.0824,228.707C55.0824,221.803,60.6788,216.207,67.5824,216.207C74.486,216.207,80.0824,221.803,80.0824,228.707ZM269.275,228.722C269.275,235.626,263.679,241.222,256.775,241.222C249.871,241.222,244.275,235.626,244.275,228.722C244.275,221.818,249.871,216.222,256.775,216.222C263.679,216.222,269.275,221.818,269.275,228.722ZM242.166,228.725C242.166,235.628,236.569,241.225,229.666,241.225C222.762,241.225,217.166,235.628,217.166,228.725C217.166,221.821,222.762,216.225,229.666,216.225C236.569,216.225,242.166,221.821,242.166,228.725ZM188.195,228.729C188.195,235.632,182.599,241.229,175.695,241.229C168.792,241.229,163.195,235.632,163.195,228.729C163.195,221.825,168.792,216.229,175.695,216.229C182.599,216.229,188.195,221.825,188.195,228.729ZM809.832,228.766C809.832,235.67,804.236,241.266,797.332,241.266C790.429,241.266,784.832,235.67,784.832,228.766C784.832,221.863,790.429,216.266,797.332,216.266C804.236,216.266,809.832,221.863,809.832,228.766ZM674.593,255.619C674.593,262.523,668.997,268.119,662.093,268.119C655.19,268.119,649.593,262.523,649.593,255.619C649.593,248.716,655.19,243.119,662.093,243.119C668.997,243.119,674.593,248.716,674.593,255.619ZM377.603,255.627C377.603,262.53,372.006,268.127,365.103,268.127C358.199,268.127,352.603,262.53,352.603,255.627C352.603,248.723,358.199,243.127,365.103,243.127C372.006,243.127,377.603,248.723,377.603,255.627ZM431.603,255.627C431.603,262.53,426.006,268.127,419.103,268.127C412.199,268.127,406.603,262.53,406.603,255.627C406.603,248.723,412.199,243.127,419.103,243.127C426.006,243.127,431.603,248.723,431.603,255.627ZM26.0309,255.639C26.0309,262.543,20.4344,268.139,13.5309,268.139C6.62732,268.139,1.03088,262.543,1.03088,255.639C1.03088,248.735,6.62732,243.139,13.5309,243.139C20.4344,243.139,26.0309,248.735,26.0309,255.639ZM728.814,255.642C728.814,262.545,723.218,268.142,716.314,268.142C709.411,268.142,703.814,262.545,703.814,255.642C703.814,248.738,709.411,243.142,716.314,243.142C723.218,243.142,728.814,248.738,728.814,255.642ZM863.819,255.645C863.819,262.548,858.223,268.145,851.319,268.145C844.416,268.145,838.819,262.548,838.819,255.645C838.819,248.741,844.416,243.145,851.319,243.145C858.223,243.145,863.819,248.741,863.819,255.645ZM890.819,255.645C890.819,262.548,885.223,268.145,878.319,268.145C871.416,268.145,865.819,262.548,865.819,255.645C865.819,248.741,871.416,243.145,878.319,243.145C885.223,243.145,890.819,248.741,890.819,255.645ZM620.779,255.654C620.779,262.558,615.182,268.154,608.279,268.154C601.375,268.154,595.779,262.558,595.779,255.654C595.779,248.751,601.375,243.154,608.279,243.154C615.182,243.154,620.779,248.751,620.779,255.654ZM215.031,255.673C215.031,262.577,209.434,268.173,202.531,268.173C195.627,268.173,190.031,262.577,190.031,255.673C190.031,248.769,195.627,243.173,202.531,243.173C209.434,243.173,215.031,248.769,215.031,255.673ZM107.082,255.697C107.082,262.6,101.486,268.197,94.5824,268.197C87.6788,268.197,82.0824,262.6,82.0824,255.697C82.0824,248.793,87.6788,243.197,94.5824,243.197C101.486,243.197,107.082,248.793,107.082,255.697ZM485.599,255.723C485.599,262.627,480.002,268.223,473.099,268.223C466.195,268.223,460.599,262.627,460.599,255.723C460.599,248.819,466.195,243.223,473.099,243.223C480.002,243.223,485.599,248.819,485.599,255.723ZM350.558,255.74C350.558,262.644,344.961,268.24,338.058,268.24C331.154,268.24,325.558,262.644,325.558,255.74C325.558,248.837,331.154,243.24,338.058,243.24C344.961,243.24,350.558,248.837,350.558,255.74ZM134.031,255.756C134.031,262.66,128.434,268.256,121.531,268.256C114.627,268.256,109.031,262.66,109.031,255.756C109.031,248.853,114.627,243.256,121.531,243.256C128.434,243.256,134.031,248.853,134.031,255.756ZM836.944,255.822C836.944,262.725,831.347,268.322,824.444,268.322C817.54,268.322,811.944,262.725,811.944,255.822C811.944,248.918,817.54,243.322,824.444,243.322C831.347,243.322,836.944,248.918,836.944,255.822ZM188.195,282.87C188.195,289.774,182.599,295.37,175.695,295.37C168.792,295.37,163.195,289.774,163.195,282.87C163.195,275.967,168.792,270.37,175.695,270.37C182.599,270.37,188.195,275.967,188.195,282.87ZM215.256,282.958C215.256,289.861,209.659,295.458,202.756,295.458C195.852,295.458,190.256,289.861,190.256,282.958C190.256,276.054,195.852,270.458,202.756,270.458C209.659,270.458,215.256,276.054,215.256,282.958ZM674.782,282.961C674.782,289.864,669.185,295.461,662.282,295.461C655.378,295.461,649.782,289.864,649.782,282.961C649.782,276.057,655.378,270.461,662.282,270.461C669.185,270.461,674.782,276.057,674.782,282.961ZM782.656,282.971C782.656,289.875,777.059,295.471,770.156,295.471C763.252,295.471,757.656,289.875,757.656,282.971C757.656,276.068,763.252,270.471,770.156,270.471C777.059,270.471,782.656,276.068,782.656,282.971ZM809.656,282.971C809.656,289.875,804.059,295.471,797.156,295.471C790.252,295.471,784.656,289.875,784.656,282.971C784.656,276.068,790.252,270.471,797.156,270.471C804.059,270.471,809.656,276.068,809.656,282.971ZM728.656,282.982C728.656,289.885,723.059,295.482,716.156,295.482C709.252,295.482,703.656,289.885,703.656,282.982C703.656,276.078,709.252,270.482,716.156,270.482C723.059,270.482,728.656,276.078,728.656,282.982ZM107.041,283.009C107.041,289.912,101.444,295.509,94.5409,295.509C87.6373,295.509,82.0409,289.912,82.0409,283.009C82.0409,276.105,87.6373,270.509,94.5409,270.509C101.444,270.509,107.041,276.105,107.041,283.009ZM134.031,283.009C134.031,289.912,128.434,295.509,121.531,295.509C114.627,295.509,109.031,289.912,109.031,283.009C109.031,276.105,114.627,270.509,121.531,270.509C128.434,270.509,134.031,276.105,134.031,283.009ZM161.031,283.009C161.031,289.912,155.434,295.509,148.531,295.509C141.627,295.509,136.031,289.912,136.031,283.009C136.031,276.105,141.627,270.509,148.531,270.509C155.434,270.509,161.031,276.105,161.031,283.009ZM26.041,283.055C26.041,289.958,20.4446,295.555,13.541,295.555C6.63745,295.555,1.04102,289.958,1.04102,283.055C1.04102,276.151,6.63745,270.555,13.541,270.555C20.4446,270.555,26.041,276.151,26.041,283.055ZM53.041,283.055C53.041,289.958,47.4446,295.555,40.541,295.555C33.6375,295.555,28.041,289.958,28.041,283.055C28.041,276.151,33.6375,270.555,40.541,270.555C47.4446,270.555,53.041,276.151,53.041,283.055ZM80.041,283.055C80.041,289.958,74.4446,295.555,67.541,295.555C60.6375,295.555,55.041,289.958,55.041,283.055C55.041,276.151,60.6375,270.555,67.541,270.555C74.4446,270.555,80.041,276.151,80.041,283.055ZM863.819,283.068C863.819,289.971,858.223,295.568,851.319,295.568C844.416,295.568,838.819,289.971,838.819,283.068C838.819,276.164,844.416,270.568,851.319,270.568C858.223,270.568,863.819,276.164,863.819,283.068ZM890.819,283.068C890.819,289.971,885.223,295.568,878.319,295.568C871.416,295.568,865.819,289.971,865.819,283.068C865.819,276.164,871.416,270.568,878.319,270.568C885.223,270.568,890.819,276.164,890.819,283.068ZM350.642,283.086C350.642,289.99,345.045,295.586,338.142,295.586C331.238,295.586,325.642,289.99,325.642,283.086C325.642,276.183,331.238,270.586,338.142,270.586C345.045,270.586,350.642,276.183,350.642,283.086ZM377.642,283.086C377.642,289.99,372.045,295.586,365.142,295.586C358.238,295.586,352.642,289.99,352.642,283.086C352.642,276.183,358.238,270.586,365.142,270.586C372.045,270.586,377.642,276.183,377.642,283.086ZM593.735,283.091C593.735,289.994,588.139,295.591,581.235,295.591C574.332,295.591,568.735,289.994,568.735,283.091C568.735,276.187,574.332,270.591,581.235,270.591C588.139,270.591,593.735,276.187,593.735,283.091ZM566.735,283.094C566.735,289.997,561.139,295.594,554.235,295.594C547.332,295.594,541.735,289.997,541.735,283.094C541.735,276.19,547.332,270.594,554.235,270.594C561.139,270.594,566.735,276.19,566.735,283.094ZM512.531,283.094C512.531,289.998,506.934,295.594,500.031,295.594C493.127,295.594,487.531,289.998,487.531,283.094C487.531,276.191,493.127,270.594,500.031,270.594C506.934,270.594,512.531,276.191,512.531,283.094ZM296.544,283.217C296.544,290.121,290.947,295.717,284.044,295.717C277.14,295.717,271.544,290.121,271.544,283.217C271.544,276.313,277.14,270.717,284.044,270.717C290.947,270.717,296.544,276.313,296.544,283.217ZM215.195,309.87C215.195,316.774,209.599,322.37,202.695,322.37C195.792,322.37,190.195,316.774,190.195,309.87C190.195,302.967,195.792,297.37,202.695,297.37C209.599,297.37,215.195,302.967,215.195,309.87ZM674.782,309.961C674.782,316.864,669.185,322.461,662.282,322.461C655.378,322.461,649.782,316.864,649.782,309.961C649.782,303.057,655.378,297.461,662.282,297.461C669.185,297.461,674.782,303.057,674.782,309.961ZM242.181,309.964C242.181,316.868,236.585,322.464,229.681,322.464C222.778,322.464,217.181,316.868,217.181,309.964C217.181,303.061,222.778,297.464,229.681,297.464C236.585,297.464,242.181,303.061,242.181,309.964ZM647.857,310.001C647.857,316.905,642.261,322.501,635.357,322.501C628.454,322.501,622.857,316.905,622.857,310.001C622.857,303.098,628.454,297.501,635.357,297.501C642.261,297.501,647.857,303.098,647.857,310.001ZM269.031,310.004C269.031,316.908,263.434,322.504,256.531,322.504C249.627,322.504,244.031,316.908,244.031,310.004C244.031,303.1,249.627,297.504,256.531,297.504C263.434,297.504,269.031,303.1,269.031,310.004ZM107.041,310.009C107.041,316.912,101.444,322.509,94.5409,322.509C87.6373,322.509,82.0409,316.912,82.0409,310.009C82.0409,303.105,87.6373,297.509,94.5409,297.509C101.444,297.509,107.041,303.105,107.041,310.009ZM134.031,310.009C134.031,316.912,128.434,322.509,121.531,322.509C114.627,322.509,109.031,316.912,109.031,310.009C109.031,303.105,114.627,297.509,121.531,297.509C128.434,297.509,134.031,303.105,134.031,310.009ZM26.041,310.055C26.041,316.958,20.4446,322.555,13.541,322.555C6.63745,322.555,1.04102,316.958,1.04102,310.055C1.04102,303.151,6.63745,297.555,13.541,297.555C20.4446,297.555,26.041,303.151,26.041,310.055ZM350.661,310.056C350.661,316.959,345.064,322.556,338.161,322.556C331.257,322.556,325.661,316.959,325.661,310.056C325.661,303.152,331.257,297.556,338.161,297.556C345.064,297.556,350.661,303.152,350.661,310.056ZM566.735,310.128C566.735,317.031,561.139,322.628,554.235,322.628C547.332,322.628,541.735,317.031,541.735,310.128C541.735,303.224,547.332,297.628,554.235,297.628C561.139,297.628,566.735,303.224,566.735,310.128ZM404.643,310.128C404.643,317.032,399.047,322.628,392.143,322.628C385.24,322.628,379.643,317.032,379.643,310.128C379.643,303.225,385.24,297.628,392.143,297.628C399.047,297.628,404.643,303.225,404.643,310.128ZM485.718,310.128C485.718,317.032,480.122,322.628,473.218,322.628C466.315,322.628,460.718,317.032,460.718,310.128C460.718,303.225,466.315,297.628,473.218,297.628C480.122,297.628,485.718,303.225,485.718,310.128ZM539.531,310.128C539.531,317.032,533.934,322.628,527.031,322.628C520.127,322.628,514.531,317.032,514.531,310.128C514.531,303.225,520.127,297.628,527.031,297.628C533.934,297.628,539.531,303.225,539.531,310.128ZM323.63,310.19C323.63,317.094,318.033,322.69,311.13,322.69C304.226,322.69,298.63,317.094,298.63,310.19C298.63,303.286,304.226,297.69,311.13,297.69C318.033,297.69,323.63,303.286,323.63,310.19ZM188.195,336.87C188.195,343.774,182.599,349.37,175.695,349.37C168.792,349.37,163.195,343.774,163.195,336.87C163.195,329.967,168.792,324.37,175.695,324.37C182.599,324.37,188.195,329.967,188.195,336.87ZM809.593,336.952C809.593,343.855,803.997,349.452,797.093,349.452C790.19,349.452,784.593,343.855,784.593,336.952C784.593,330.048,790.19,324.452,797.093,324.452C803.997,324.452,809.593,330.048,809.593,336.952ZM674.898,336.963C674.898,343.866,669.302,349.463,662.398,349.463C655.494,349.463,649.898,343.866,649.898,336.963C649.898,330.059,655.494,324.463,662.398,324.463C669.302,324.463,674.898,330.059,674.898,336.963ZM782.656,336.971C782.656,343.875,777.059,349.471,770.156,349.471C763.252,349.471,757.656,343.875,757.656,336.971C757.656,330.068,763.252,324.471,770.156,324.471C777.059,324.471,782.656,330.068,782.656,336.971ZM701.593,336.982C701.593,343.885,695.997,349.482,689.093,349.482C682.19,349.482,676.593,343.885,676.593,336.982C676.593,330.078,682.19,324.482,689.093,324.482C695.997,324.482,701.593,330.078,701.593,336.982ZM728.593,336.982C728.593,343.885,722.997,349.482,716.093,349.482C709.19,349.482,703.593,343.885,703.593,336.982C703.593,330.078,709.19,324.482,716.093,324.482C722.997,324.482,728.593,330.078,728.593,336.982ZM134.031,337.009C134.031,343.912,128.434,349.509,121.531,349.509C114.627,349.509,109.031,343.912,109.031,337.009C109.031,330.105,114.627,324.509,121.531,324.509C128.434,324.509,134.031,330.105,134.031,337.009ZM26.041,337.055C26.041,343.958,20.4446,349.555,13.541,349.555C6.63745,349.555,1.04102,343.958,1.04102,337.055C1.04102,330.151,6.63745,324.555,13.541,324.555C20.4446,324.555,26.041,330.151,26.041,337.055ZM53.041,337.055C53.041,343.958,47.4446,349.555,40.541,349.555C33.6375,349.555,28.041,343.958,28.041,337.055C28.041,330.151,33.6375,324.555,40.541,324.555C47.4446,324.555,53.041,330.151,53.041,337.055ZM107.041,337.055C107.041,343.958,101.444,349.555,94.5409,349.555C87.6373,349.555,82.0409,343.958,82.0409,337.055C82.0409,330.151,87.6373,324.555,94.5409,324.555C101.444,324.555,107.041,330.151,107.041,337.055ZM323.675,337.056C323.675,343.959,318.078,349.556,311.175,349.556C304.271,349.556,298.675,343.959,298.675,337.056C298.675,330.152,304.271,324.556,311.175,324.556C318.078,324.556,323.675,330.152,323.675,337.056ZM890.819,337.068C890.819,343.972,885.223,349.568,878.319,349.568C871.416,349.568,865.819,343.972,865.819,337.068C865.819,330.164,871.416,324.568,878.319,324.568C885.223,324.568,890.819,330.164,890.819,337.068ZM269.031,337.26C269.031,344.164,263.434,349.76,256.531,349.76C249.627,349.76,244.031,344.164,244.031,337.26C244.031,330.357,249.627,324.76,256.531,324.76C263.434,324.76,269.031,330.357,269.031,337.26ZM809.531,363.952C809.531,370.855,803.934,376.452,797.031,376.452C790.127,376.452,784.531,370.855,784.531,363.952C784.531,357.048,790.127,351.452,797.031,351.452C803.934,351.452,809.531,357.048,809.531,363.952ZM836.593,363.952C836.593,370.855,830.997,376.452,824.093,376.452C817.19,376.452,811.593,370.855,811.593,363.952C811.593,357.048,817.19,351.452,824.093,351.452C830.997,351.452,836.593,357.048,836.593,363.952ZM728.593,363.982C728.593,370.885,722.997,376.482,716.093,376.482C709.19,376.482,703.593,370.885,703.593,363.982C703.593,357.078,709.19,351.482,716.093,351.482C722.997,351.482,728.593,357.078,728.593,363.982ZM242.222,364.037C242.222,370.941,236.625,376.537,229.722,376.537C222.818,376.537,217.222,370.941,217.222,364.037C217.222,357.134,222.818,351.537,229.722,351.537C236.625,351.537,242.222,357.134,242.222,364.037ZM674.898,364.047C674.898,370.95,669.302,376.547,662.398,376.547C655.494,376.547,649.898,370.95,649.898,364.047C649.898,357.143,655.494,351.547,662.398,351.547C669.302,351.547,674.898,357.143,674.898,364.047ZM53.041,364.055C53.041,370.958,47.4446,376.555,40.541,376.555C33.6375,376.555,28.041,370.958,28.041,364.055C28.041,357.151,33.6375,351.555,40.541,351.555C47.4446,351.555,53.041,357.151,53.041,364.055ZM107.041,364.055C107.041,370.958,101.444,376.555,94.5409,376.555C87.6373,376.555,82.0409,370.958,82.0409,364.055C82.0409,357.151,87.6373,351.555,94.5409,351.555C101.444,351.555,107.041,357.151,107.041,364.055ZM134.031,364.055C134.031,370.958,128.434,376.555,121.531,376.555C114.627,376.555,109.031,370.958,109.031,364.055C109.031,357.151,114.627,351.555,121.531,351.555C128.434,351.555,134.031,357.151,134.031,364.055ZM891.041,364.057C891.041,370.96,885.444,376.557,878.541,376.557C871.637,376.557,866.041,370.96,866.041,364.057C866.041,357.153,871.637,351.557,878.541,351.557C885.444,351.557,891.041,357.153,891.041,364.057ZM863.819,364.068C863.819,370.972,858.223,376.568,851.319,376.568C844.416,376.568,838.819,370.972,838.819,364.068C838.819,357.164,844.416,351.568,851.319,351.568C858.223,351.568,863.819,357.164,863.819,364.068ZM296.642,364.22C296.642,371.124,291.045,376.72,284.142,376.72C277.238,376.72,271.642,371.124,271.642,364.22C271.642,357.317,277.238,351.72,284.142,351.72C291.045,351.72,296.642,357.317,296.642,364.22ZM809.531,390.952C809.531,397.855,803.934,403.452,797.031,403.452C790.127,403.452,784.531,397.855,784.531,390.952C784.531,384.048,790.127,378.452,797.031,378.452C803.934,378.452,809.531,384.048,809.531,390.952ZM836.531,390.952C836.531,397.855,830.934,403.452,824.031,403.452C817.127,403.452,811.531,397.855,811.531,390.952C811.531,384.048,817.127,378.452,824.031,378.452C830.934,378.452,836.531,384.048,836.531,390.952ZM161.222,391.037C161.222,397.941,155.625,403.537,148.722,403.537C141.818,403.537,136.222,397.941,136.222,391.037C136.222,384.134,141.818,378.537,148.722,378.537C155.625,378.537,161.222,384.134,161.222,391.037ZM215.222,391.037C215.222,397.941,209.625,403.537,202.722,403.537C195.818,403.537,190.222,397.941,190.222,391.037C190.222,384.134,195.818,378.537,202.722,378.537C209.625,378.537,215.222,384.134,215.222,391.037ZM242.222,391.037C242.222,397.941,236.625,403.537,229.722,403.537C222.818,403.537,217.222,397.941,217.222,391.037C217.222,384.134,222.818,378.537,229.722,378.537C236.625,378.537,242.222,384.134,242.222,391.037ZM674.898,391.047C674.898,397.95,669.302,403.547,662.398,403.547C655.494,403.547,649.898,397.95,649.898,391.047C649.898,384.143,655.494,378.547,662.398,378.547C669.302,378.547,674.898,384.143,674.898,391.047ZM701.898,391.047C701.898,397.95,696.302,403.547,689.398,403.547C682.494,403.547,676.898,397.95,676.898,391.047C676.898,384.143,682.494,378.547,689.398,378.547C696.302,378.547,701.898,384.143,701.898,391.047ZM728.865,391.047C728.865,397.95,723.268,403.547,716.365,403.547C709.461,403.547,703.865,397.95,703.865,391.047C703.865,384.143,709.461,378.547,716.365,378.547C723.268,378.547,728.865,384.143,728.865,391.047ZM755.718,391.049C755.718,397.952,750.122,403.549,743.218,403.549C736.315,403.549,730.718,397.952,730.718,391.049C730.718,384.145,736.315,378.549,743.218,378.549C750.122,378.549,755.718,384.145,755.718,391.049ZM296.676,391.056C296.676,397.959,291.079,403.556,284.176,403.556C277.272,403.556,271.676,397.959,271.676,391.056C271.676,384.152,277.272,378.556,284.176,378.556C291.079,378.556,296.676,384.152,296.676,391.056ZM323.676,391.056C323.676,397.959,318.079,403.556,311.176,403.556C304.272,403.556,298.676,397.959,298.676,391.056C298.676,384.152,304.272,378.556,311.176,378.556C318.079,378.556,323.676,384.152,323.676,391.056ZM26.041,391.057C26.041,397.96,20.4446,403.557,13.541,403.557C6.63745,403.557,1.04102,397.96,1.04102,391.057C1.04102,384.153,6.63745,378.557,13.541,378.557C20.4446,378.557,26.041,384.153,26.041,391.057ZM891.041,391.057C891.041,397.96,885.444,403.557,878.541,403.557C871.637,403.557,866.041,397.96,866.041,391.057C866.041,384.153,871.637,378.557,878.541,378.557C885.444,378.557,891.041,384.153,891.041,391.057ZM863.977,391.073C863.977,397.976,858.381,403.573,851.477,403.573C844.574,403.573,838.977,397.976,838.977,391.073C838.977,384.169,844.574,378.573,851.477,378.573C858.381,378.573,863.977,384.169,863.977,391.073ZM593.781,391.078C593.781,397.982,588.184,403.578,581.281,403.578C574.377,403.578,568.781,397.982,568.781,391.078C568.781,384.175,574.377,378.578,581.281,378.578C588.184,378.578,593.781,384.175,593.781,391.078ZM188.031,391.09C188.031,397.993,182.434,403.59,175.531,403.59C168.627,403.59,163.031,397.993,163.031,391.09C163.031,384.186,168.627,378.59,175.531,378.59C182.434,378.59,188.031,384.186,188.031,391.09ZM890.968,417.976C890.968,424.88,885.372,430.476,878.468,430.476C871.565,430.476,865.968,424.88,865.968,417.976C865.968,411.073,871.565,405.476,878.468,405.476C885.372,405.476,890.968,411.073,890.968,417.976ZM323.676,418.008C323.676,424.912,318.079,430.508,311.176,430.508C304.272,430.508,298.676,424.912,298.676,418.008C298.676,411.105,304.272,405.508,311.176,405.508C318.079,405.508,323.676,411.105,323.676,418.008ZM296.676,418.012C296.676,424.916,291.079,430.512,284.176,430.512C277.272,430.512,271.676,424.916,271.676,418.012C271.676,411.109,277.272,405.512,284.176,405.512C291.079,405.512,296.676,411.109,296.676,418.012ZM620.781,418.041C620.781,424.945,615.184,430.541,608.281,430.541C601.377,430.541,595.781,424.945,595.781,418.041C595.781,411.138,601.377,405.541,608.281,405.541C615.184,405.541,620.781,411.138,620.781,418.041ZM674.898,418.047C674.898,424.95,669.302,430.547,662.398,430.547C655.494,430.547,649.898,424.95,649.898,418.047C649.898,411.143,655.494,405.547,662.398,405.547C669.302,405.547,674.898,411.143,674.898,418.047ZM26.0309,418.067C26.0309,424.97,20.4344,430.567,13.5309,430.567C6.62732,430.567,1.03088,424.97,1.03088,418.067C1.03088,411.163,6.62732,405.567,13.5309,405.567C20.4344,405.567,26.0309,411.163,26.0309,418.067ZM133.998,418.076C133.998,424.98,128.402,430.576,121.498,430.576C114.595,430.576,108.998,424.98,108.998,418.076C108.998,411.172,114.595,405.576,121.498,405.576C128.402,405.576,133.998,411.172,133.998,418.076ZM593.593,418.122C593.593,425.026,587.997,430.622,581.093,430.622C574.19,430.622,568.593,425.026,568.593,418.122C568.593,411.219,574.19,405.622,581.093,405.622C587.997,405.622,593.593,411.219,593.593,418.122ZM809.656,418.131C809.656,425.034,804.059,430.631,797.156,430.631C790.252,430.631,784.656,425.034,784.656,418.131C784.656,411.227,790.252,405.631,797.156,405.631C804.059,405.631,809.656,411.227,809.656,418.131ZM863.898,418.131C863.898,425.034,858.302,430.631,851.398,430.631C844.495,430.631,838.898,425.034,838.898,418.131C838.898,411.227,844.495,405.631,851.398,405.631C858.302,405.631,863.898,411.227,863.898,418.131ZM161.031,418.145C161.031,425.049,155.434,430.645,148.531,430.645C141.627,430.645,136.031,425.049,136.031,418.145C136.031,411.242,141.627,405.645,148.531,405.645C155.434,405.645,161.031,411.242,161.031,418.145ZM53.0404,418.151C53.0404,425.054,47.444,430.651,40.5404,430.651C33.6368,430.651,28.0404,425.054,28.0404,418.151C28.0404,411.247,33.6368,405.651,40.5404,405.651C47.444,405.651,53.0404,411.247,53.0404,418.151ZM80.0404,418.151C80.0404,425.054,74.444,430.651,67.5404,430.651C60.6368,430.651,55.0404,425.054,55.0404,418.151C55.0404,411.247,60.6368,405.651,67.5404,405.651C74.444,405.651,80.0404,411.247,80.0404,418.151ZM269.185,444.963C269.185,451.867,263.589,457.463,256.685,457.463C249.782,457.463,244.185,451.867,244.185,444.963C244.185,438.06,249.782,432.463,256.685,432.463C263.589,432.463,269.185,438.06,269.185,444.963ZM323.676,445.008C323.676,451.912,318.079,457.508,311.176,457.508C304.272,457.508,298.676,451.912,298.676,445.008C298.676,438.105,304.272,432.508,311.176,432.508C318.079,432.508,323.676,438.105,323.676,445.008ZM188.222,445.037C188.222,451.941,182.625,457.537,175.722,457.537C168.818,457.537,163.222,451.941,163.222,445.037C163.222,438.134,168.818,432.537,175.722,432.537C182.625,432.537,188.222,438.134,188.222,445.037ZM620.781,445.041C620.781,451.945,615.184,457.541,608.281,457.541C601.377,457.541,595.781,451.945,595.781,445.041C595.781,438.138,601.377,432.541,608.281,432.541C615.184,432.541,620.781,438.138,620.781,445.041ZM701.898,445.047C701.898,451.95,696.302,457.547,689.398,457.547C682.494,457.547,676.898,451.95,676.898,445.047C676.898,438.143,682.494,432.547,689.398,432.547C696.302,432.547,701.898,438.143,701.898,445.047ZM647.898,445.053C647.898,451.957,642.302,457.553,635.398,457.553C628.494,457.553,622.898,451.957,622.898,445.053C622.898,438.15,628.494,432.553,635.398,432.553C642.302,432.553,647.898,438.15,647.898,445.053ZM52.9606,445.073C52.9606,451.976,47.3641,457.573,40.4606,457.573C33.557,457.573,27.9606,451.976,27.9606,445.073C27.9606,438.169,33.557,432.573,40.4606,432.573C47.3641,432.573,52.9606,438.169,52.9606,445.073ZM106.998,445.076C106.998,451.98,101.402,457.576,94.4983,457.576C87.5947,457.576,81.9983,451.98,81.9983,445.076C81.9983,438.172,87.5947,432.576,94.4983,432.576C101.402,432.576,106.998,438.172,106.998,445.076ZM782.812,445.113C782.812,452.016,777.216,457.613,770.312,457.613C763.409,457.613,757.812,452.016,757.812,445.113C757.812,438.209,763.409,432.613,770.312,432.613C777.216,432.613,782.812,438.209,782.812,445.113ZM809.812,445.113C809.812,452.016,804.216,457.613,797.312,457.613C790.409,457.613,784.812,452.016,784.812,445.113C784.812,438.209,790.409,432.613,797.312,432.613C804.216,432.613,809.812,438.209,809.812,445.113ZM593.593,445.122C593.593,452.026,587.997,457.622,581.093,457.622C574.19,457.622,568.593,452.026,568.593,445.122C568.593,438.219,574.19,432.622,581.093,432.622C587.997,432.622,593.593,438.219,593.593,445.122ZM728.856,445.129C728.856,452.032,723.26,457.629,716.356,457.629C709.453,457.629,703.856,452.032,703.856,445.129C703.856,438.225,709.453,432.629,716.356,432.629C723.26,432.629,728.856,438.225,728.856,445.129ZM864.031,445.18C864.031,452.083,858.434,457.68,851.531,457.68C844.627,457.68,839.031,452.083,839.031,445.18C839.031,438.276,844.627,432.68,851.531,432.68C858.434,432.68,864.031,438.276,864.031,445.18ZM269.117,471.963C269.117,478.867,263.52,484.463,256.617,484.463C249.713,484.463,244.117,478.867,244.117,471.963C244.117,465.06,249.713,459.463,256.617,459.463C263.52,459.463,269.117,465.06,269.117,471.963ZM296.676,472.012C296.676,478.916,291.079,484.512,284.176,484.512C277.272,484.512,271.676,478.916,271.676,472.012C271.676,465.109,277.272,459.512,284.176,459.512C291.079,459.512,296.676,465.109,296.676,472.012ZM133.998,472.076C133.998,478.98,128.402,484.576,121.498,484.576C114.595,484.576,108.998,478.98,108.998,472.076C108.998,465.172,114.595,459.576,121.498,459.576C128.402,459.576,133.998,465.172,133.998,472.076ZM701.856,472.129C701.856,479.032,696.26,484.629,689.356,484.629C682.453,484.629,676.856,479.032,676.856,472.129C676.856,465.225,682.453,459.629,689.356,459.629C696.26,459.629,701.856,465.225,701.856,472.129ZM809.656,472.145C809.656,479.048,804.059,484.645,797.156,484.645C790.252,484.645,784.656,479.048,784.656,472.145C784.656,465.241,790.252,459.645,797.156,459.645C804.059,459.645,809.656,465.241,809.656,472.145ZM836.656,472.145C836.656,479.048,831.059,484.645,824.156,484.645C817.252,484.645,811.656,479.048,811.656,472.145C811.656,465.241,817.252,459.645,824.156,459.645C831.059,459.645,836.656,465.241,836.656,472.145ZM728.826,472.152C728.826,479.056,723.229,484.652,716.326,484.652C709.422,484.652,703.826,479.056,703.826,472.152C703.826,465.249,709.422,459.652,716.326,459.652C723.229,459.652,728.826,465.249,728.826,472.152ZM891.087,472.22C891.087,479.123,885.491,484.72,878.587,484.72C871.684,484.72,866.087,479.123,866.087,472.22C866.087,465.316,871.684,459.72,878.587,459.72C885.491,459.72,891.087,465.316,891.087,472.22ZM79.9723,472.235C79.9723,479.139,74.3759,484.735,67.4723,484.735C60.5687,484.735,54.9723,479.139,54.9723,472.235C54.9723,465.331,60.5687,459.735,67.4723,459.735C74.3759,459.735,79.9723,465.331,79.9723,472.235ZM323.676,499.012C323.676,505.916,318.079,511.512,311.176,511.512C304.272,511.512,298.676,505.916,298.676,499.012C298.676,492.109,304.272,486.512,311.176,486.512C318.079,486.512,323.676,492.109,323.676,499.012ZM593.71,499.041C593.71,505.945,588.113,511.541,581.21,511.541C574.306,511.541,568.71,505.945,568.71,499.041C568.71,492.138,574.306,486.541,581.21,486.541C588.113,486.541,593.71,492.138,593.71,499.041ZM891.004,499.068C891.004,505.972,885.407,511.568,878.504,511.568C871.6,511.568,866.004,505.972,866.004,499.068C866.004,492.165,871.6,486.568,878.504,486.568C885.407,486.568,891.004,492.165,891.004,499.068ZM188.031,499.075C188.031,505.978,182.434,511.575,175.531,511.575C168.627,511.575,163.031,505.978,163.031,499.075C163.031,492.171,168.627,486.575,175.531,486.575C182.434,486.575,188.031,492.171,188.031,499.075ZM53.0035,499.091C53.0035,505.995,47.4071,511.591,40.5035,511.591C33.6,511.591,28.0035,505.995,28.0035,499.091C28.0035,492.188,33.6,486.591,40.5035,486.591C47.4071,486.591,53.0035,492.188,53.0035,499.091ZM836.656,499.145C836.656,506.048,831.059,511.645,824.156,511.645C817.252,511.645,811.656,506.048,811.656,499.145C811.656,492.241,817.252,486.645,824.156,486.645C831.059,486.645,836.656,492.241,836.656,499.145ZM755.826,499.149C755.826,506.052,750.229,511.649,743.326,511.649C736.422,511.649,730.826,506.052,730.826,499.149C730.826,492.245,736.422,486.649,743.326,486.649C750.229,486.649,755.826,492.245,755.826,499.149ZM728.826,499.152C728.826,506.056,723.229,511.652,716.326,511.652C709.422,511.652,703.826,506.056,703.826,499.152C703.826,492.249,709.422,486.652,716.326,486.652C723.229,486.652,728.826,492.249,728.826,499.152ZM134.031,499.201C134.031,506.105,128.434,511.701,121.531,511.701C114.627,511.701,109.031,506.105,109.031,499.201C109.031,492.297,114.627,486.701,121.531,486.701C128.434,486.701,134.031,492.297,134.031,499.201ZM161.031,499.299C161.031,506.203,155.434,511.799,148.531,511.799C141.627,511.799,136.031,506.203,136.031,499.299C136.031,492.395,141.627,486.799,148.531,486.799C155.434,486.799,161.031,492.395,161.031,499.299ZM269.117,525.963C269.117,532.867,263.52,538.463,256.617,538.463C249.713,538.463,244.117,532.867,244.117,525.963C244.117,519.06,249.713,513.463,256.617,513.463C263.52,513.463,269.117,519.06,269.117,525.963ZM296.634,526.013C296.634,532.916,291.037,538.513,284.134,538.513C277.23,538.513,271.634,532.916,271.634,526.013C271.634,519.109,277.23,513.513,284.134,513.513C291.037,513.513,296.634,519.109,296.634,526.013ZM593.71,526.041C593.71,532.945,588.113,538.541,581.21,538.541C574.306,538.541,568.71,532.945,568.71,526.041C568.71,519.138,574.306,513.541,581.21,513.541C588.113,513.541,593.71,519.138,593.71,526.041ZM620.726,526.118C620.726,533.022,615.13,538.618,608.226,538.618C601.322,538.618,595.726,533.022,595.726,526.118C595.726,519.215,601.322,513.618,608.226,513.618C615.13,513.618,620.726,519.215,620.726,526.118ZM782.718,526.123C782.718,533.027,777.122,538.623,770.218,538.623C763.315,538.623,757.718,533.027,757.718,526.123C757.718,519.22,763.315,513.623,770.218,513.623C777.122,513.623,782.718,519.22,782.718,526.123ZM134.084,526.16C134.084,533.063,128.488,538.66,121.584,538.66C114.681,538.66,109.084,533.063,109.084,526.16C109.084,519.256,114.681,513.66,121.584,513.66C128.488,513.66,134.084,519.256,134.084,526.16ZM728.718,553.123C728.718,560.027,723.122,565.623,716.218,565.623C709.315,565.623,703.718,560.027,703.718,553.123C703.718,546.22,709.315,540.623,716.218,540.623C723.122,540.623,728.718,546.22,728.718,553.123ZM755.718,553.123C755.718,560.027,750.122,565.623,743.218,565.623C736.315,565.623,730.718,560.027,730.718,553.123C730.718,546.22,736.315,540.623,743.218,540.623C750.122,540.623,755.718,546.22,755.718,553.123ZM809.656,553.145C809.656,560.048,804.059,565.645,797.156,565.645C790.252,565.645,784.656,560.048,784.656,553.145C784.656,546.241,790.252,540.645,797.156,540.645C804.059,540.645,809.656,546.241,809.656,553.145ZM323.728,553.155C323.728,560.058,318.131,565.655,311.228,565.655C304.324,565.655,298.728,560.058,298.728,553.155C298.728,546.251,304.324,540.655,311.228,540.655C318.131,540.655,323.728,546.251,323.728,553.155ZM80.0844,553.164C80.0844,560.067,74.4879,565.664,67.5844,565.664C60.6808,565.664,55.0844,560.067,55.0844,553.164C55.0844,546.26,60.6808,540.664,67.5844,540.664C74.4879,540.664,80.0844,546.26,80.0844,553.164ZM674.838,553.193C674.838,560.096,669.241,565.693,662.338,565.693C655.434,565.693,649.838,560.096,649.838,553.193C649.838,546.289,655.434,540.693,662.338,540.693C669.241,540.693,674.838,546.289,674.838,553.193ZM161.031,553.201C161.031,560.105,155.434,565.701,148.531,565.701C141.627,565.701,136.031,560.105,136.031,553.201C136.031,546.297,141.627,540.701,148.531,540.701C155.434,540.701,161.031,546.297,161.031,553.201ZM188.031,553.201C188.031,560.105,182.434,565.701,175.531,565.701C168.627,565.701,163.031,560.105,163.031,553.201C163.031,546.297,168.627,540.701,175.531,540.701C182.434,540.701,188.031,546.297,188.031,553.201ZM269.177,553.225C269.177,560.129,263.581,565.725,256.677,565.725C249.774,565.725,244.177,560.129,244.177,553.225C244.177,546.322,249.774,540.725,256.677,540.725C263.581,540.725,269.177,546.322,269.177,553.225ZM593.707,553.229C593.707,560.132,588.11,565.729,581.207,565.729C574.303,565.729,568.707,560.132,568.707,553.229C568.707,546.325,574.303,540.729,581.207,540.729C588.11,540.729,593.707,546.325,593.707,553.229ZM404.731,580.002C404.731,586.906,399.134,592.502,392.231,592.502C385.327,592.502,379.731,586.906,379.731,580.002C379.731,573.099,385.327,567.502,392.231,567.502C399.134,567.502,404.731,573.099,404.731,580.002ZM836.914,580.068C836.914,586.972,831.317,592.568,824.414,592.568C817.51,592.568,811.914,586.972,811.914,580.068C811.914,573.165,817.51,567.568,824.414,567.568C831.317,567.568,836.914,573.165,836.914,580.068ZM863.914,580.068C863.914,586.972,858.317,592.568,851.414,592.568C844.51,592.568,838.914,586.972,838.914,580.068C838.914,573.165,844.51,567.568,851.414,567.568C858.317,567.568,863.914,573.165,863.914,580.068ZM890.914,580.068C890.914,586.972,885.317,592.568,878.414,592.568C871.51,592.568,865.914,586.972,865.914,580.068C865.914,573.165,871.51,567.568,878.414,567.568C885.317,567.568,890.914,573.165,890.914,580.068ZM431.565,580.103C431.565,587.006,425.968,592.603,419.065,592.603C412.161,592.603,406.565,587.006,406.565,580.103C406.565,573.199,412.161,567.603,419.065,567.603C425.968,567.603,431.565,573.199,431.565,580.103ZM458.565,580.103C458.565,587.006,452.968,592.603,446.065,592.603C439.161,592.603,433.565,587.006,433.565,580.103C433.565,573.199,439.161,567.603,446.065,567.603C452.968,567.603,458.565,573.199,458.565,580.103ZM485.565,580.103C485.565,587.006,479.968,592.603,473.065,592.603C466.161,592.603,460.565,587.006,460.565,580.103C460.565,573.199,466.161,567.603,473.065,567.603C479.968,567.603,485.565,573.199,485.565,580.103ZM701.718,580.123C701.718,587.027,696.122,592.623,689.218,592.623C682.315,592.623,676.718,587.027,676.718,580.123C676.718,573.22,682.315,567.623,689.218,567.623C696.122,567.623,701.718,573.22,701.718,580.123ZM215.165,580.137C215.165,587.04,209.568,592.637,202.665,592.637C195.761,592.637,190.165,587.04,190.165,580.137C190.165,573.233,195.761,567.637,202.665,567.637C209.568,567.637,215.165,573.233,215.165,580.137ZM674.815,580.153C674.815,587.057,669.219,592.653,662.315,592.653C655.411,592.653,649.815,587.057,649.815,580.153C649.815,573.25,655.411,567.653,662.315,567.653C669.219,567.653,674.815,573.25,674.815,580.153ZM107.084,580.158C107.084,587.062,101.488,592.658,94.5844,592.658C87.6808,592.658,82.0844,587.062,82.0844,580.158C82.0844,573.255,87.6808,567.658,94.5844,567.658C101.488,567.658,107.084,573.255,107.084,580.158ZM134.084,580.158C134.084,587.062,128.488,592.658,121.584,592.658C114.681,592.658,109.084,587.062,109.084,580.158C109.084,573.255,114.681,567.658,121.584,567.658C128.488,567.658,134.084,573.255,134.084,580.158ZM80.0844,580.164C80.0844,587.067,74.4879,592.664,67.5844,592.664C60.6808,592.664,55.0844,587.067,55.0844,580.164C55.0844,573.26,60.6808,567.664,67.5844,567.664C74.4879,567.664,80.0844,573.26,80.0844,580.164ZM323.759,580.173C323.759,587.077,318.163,592.673,311.259,592.673C304.356,592.673,298.759,587.077,298.759,580.173C298.759,573.27,304.356,567.673,311.259,567.673C318.163,567.673,323.759,573.27,323.759,580.173ZM296.768,580.177C296.768,587.08,291.171,592.677,284.268,592.677C277.364,592.677,271.768,587.08,271.768,580.177C271.768,573.273,277.364,567.677,284.268,567.677C291.171,567.677,296.768,573.273,296.768,580.177ZM269.031,580.206C269.031,587.109,263.434,592.706,256.531,592.706C249.627,592.706,244.031,587.109,244.031,580.206C244.031,573.302,249.627,567.706,256.531,567.706C263.434,567.706,269.031,573.302,269.031,580.206ZM566.741,580.229C566.741,587.132,561.144,592.729,554.241,592.729C547.337,592.729,541.741,587.132,541.741,580.229C541.741,573.325,547.337,567.729,554.241,567.729C561.144,567.729,566.741,573.325,566.741,580.229ZM593.721,580.229C593.721,587.132,588.124,592.729,581.221,592.729C574.317,592.729,568.721,587.132,568.721,580.229C568.721,573.325,574.317,567.729,581.221,567.729C588.124,567.729,593.721,573.325,593.721,580.229ZM512.584,580.236C512.584,587.14,506.987,592.736,500.084,592.736C493.18,592.736,487.584,587.14,487.584,580.236C487.584,573.332,493.18,567.736,500.084,567.736C506.987,567.736,512.584,573.332,512.584,580.236ZM647.721,580.237C647.721,587.141,642.124,592.737,635.221,592.737C628.317,592.737,622.721,587.141,622.721,580.237C622.721,573.333,628.317,567.737,635.221,567.737C642.124,567.737,647.721,573.333,647.721,580.237ZM242.181,580.276C242.181,587.18,236.585,592.776,229.681,592.776C222.778,592.776,217.181,587.18,217.181,580.276C217.181,573.373,222.778,567.776,229.681,567.776C236.585,567.776,242.181,573.373,242.181,580.276ZM836.914,607.068C836.914,613.972,831.317,619.568,824.414,619.568C817.51,619.568,811.914,613.972,811.914,607.068C811.914,600.165,817.51,594.568,824.414,594.568C831.317,594.568,836.914,600.165,836.914,607.068ZM890.914,607.068C890.914,613.972,885.317,619.568,878.414,619.568C871.51,619.568,865.914,613.972,865.914,607.068C865.914,600.165,871.51,594.568,878.414,594.568C885.317,594.568,890.914,600.165,890.914,607.068ZM188.031,607.083C188.031,613.986,182.434,619.583,175.531,619.583C168.627,619.583,163.031,613.986,163.031,607.083C163.031,600.179,168.627,594.583,175.531,594.583C182.434,594.583,188.031,600.179,188.031,607.083ZM809.718,607.12C809.718,614.023,804.122,619.62,797.218,619.62C790.315,619.62,784.718,614.023,784.718,607.12C784.718,600.216,790.315,594.62,797.218,594.62C804.122,594.62,809.718,600.216,809.718,607.12ZM728.718,607.123C728.718,614.027,723.122,619.623,716.218,619.623C709.315,619.623,703.718,614.027,703.718,607.123C703.718,600.22,709.315,594.623,716.218,594.623C723.122,594.623,728.718,600.22,728.718,607.123ZM620.721,607.147C620.721,614.05,615.124,619.647,608.221,619.647C601.317,619.647,595.721,614.05,595.721,607.147C595.721,600.243,601.317,594.647,608.221,594.647C615.124,594.647,620.721,600.243,620.721,607.147ZM215.119,607.148C215.119,614.052,209.523,619.648,202.619,619.648C195.716,619.648,190.119,614.052,190.119,607.148C190.119,600.245,195.716,594.648,202.619,594.648C209.523,594.648,215.119,600.245,215.119,607.148ZM674.815,607.153C674.815,614.057,669.219,619.653,662.315,619.653C655.411,619.653,649.815,614.057,649.815,607.153C649.815,600.25,655.411,594.653,662.315,594.653C669.219,594.653,674.815,600.25,674.815,607.153ZM161.084,607.158C161.084,614.062,155.488,619.658,148.584,619.658C141.681,619.658,136.084,614.062,136.084,607.158C136.084,600.255,141.681,594.658,148.584,594.658C155.488,594.658,161.084,600.255,161.084,607.158ZM566.737,607.162C566.737,614.065,561.141,619.662,554.237,619.662C547.333,619.662,541.737,614.065,541.737,607.162C541.737,600.258,547.333,594.662,554.237,594.662C561.141,594.662,566.737,600.258,566.737,607.162ZM26.0844,607.164C26.0844,614.067,20.4879,619.664,13.5844,619.664C6.68079,619.664,1.08435,614.067,1.08435,607.164C1.08435,600.26,6.68079,594.664,13.5844,594.664C20.4879,594.664,26.0844,600.26,26.0844,607.164ZM323.759,607.173C323.759,614.077,318.163,619.673,311.259,619.673C304.356,619.673,298.759,614.077,298.759,607.173C298.759,600.27,304.356,594.673,311.259,594.673C318.163,594.673,323.759,600.27,323.759,607.173ZM350.762,607.173C350.762,614.077,345.166,619.673,338.262,619.673C331.359,619.673,325.762,614.077,325.762,607.173C325.762,600.27,331.359,594.673,338.262,594.673C345.166,594.673,350.762,600.27,350.762,607.173ZM539.53,607.177C539.53,614.081,533.934,619.677,527.03,619.677C520.127,619.677,514.53,614.081,514.53,607.177C514.53,600.274,520.127,594.677,527.03,594.677C533.934,594.677,539.53,600.274,539.53,607.177ZM269.082,607.225C269.082,614.129,263.485,619.725,256.582,619.725C249.678,619.725,244.082,614.129,244.082,607.225C244.082,600.322,249.678,594.725,256.582,594.725C263.485,594.725,269.082,600.322,269.082,607.225ZM647.721,607.237C647.721,614.141,642.124,619.737,635.221,619.737C628.317,619.737,622.721,614.141,622.721,607.237C622.721,600.333,628.317,594.737,635.221,594.737C642.124,594.737,647.721,600.333,647.721,607.237ZM242.181,607.276C242.181,614.18,236.585,619.776,229.681,619.776C222.778,619.776,217.181,614.18,217.181,607.276C217.181,600.373,222.778,594.776,229.681,594.776C236.585,594.776,242.181,600.373,242.181,607.276ZM431.565,607.314C431.565,614.218,425.968,619.814,419.065,619.814C412.161,619.814,406.565,614.218,406.565,607.314C406.565,600.411,412.161,594.814,419.065,594.814C425.968,594.814,431.565,600.411,431.565,607.314ZM53,634.082C53,640.986,47.4036,646.582,40.5,646.582C33.5964,646.582,28,640.986,28,634.082C28,627.179,33.5964,621.582,40.5,621.582C47.4036,621.582,53,627.179,53,634.082ZM80,634.082C80,640.986,74.4036,646.582,67.5,646.582C60.5964,646.582,55,640.986,55,634.082C55,627.179,60.5964,621.582,67.5,621.582C74.4036,621.582,80,627.179,80,634.082ZM161.031,634.083C161.031,640.986,155.434,646.583,148.531,646.583C141.627,646.583,136.031,640.986,136.031,634.083C136.031,627.179,141.627,621.583,148.531,621.583C155.434,621.583,161.031,627.179,161.031,634.083ZM242.095,634.087C242.095,640.99,236.498,646.587,229.595,646.587C222.691,646.587,217.095,640.99,217.095,634.087C217.095,627.183,222.691,621.587,229.595,621.587C236.498,621.587,242.095,627.183,242.095,634.087ZM809.718,634.12C809.718,641.023,804.122,646.62,797.218,646.62C790.315,646.62,784.718,641.023,784.718,634.12C784.718,627.216,790.315,621.62,797.218,621.62C804.122,621.62,809.718,627.216,809.718,634.12ZM782.718,634.123C782.718,641.027,777.122,646.623,770.218,646.623C763.315,646.623,757.718,641.027,757.718,634.123C757.718,627.22,763.315,621.623,770.218,621.623C777.122,621.623,782.718,627.22,782.718,634.123ZM701.844,634.149C701.844,641.052,696.248,646.649,689.344,646.649C682.441,646.649,676.844,641.052,676.844,634.149C676.844,627.245,682.441,621.649,689.344,621.649C696.248,621.649,701.844,627.245,701.844,634.149ZM674.531,634.151C674.531,641.054,668.934,646.651,662.031,646.651C655.127,646.651,649.531,641.054,649.531,634.151C649.531,627.247,655.127,621.651,662.031,621.651C668.934,621.651,674.531,627.247,674.531,634.151ZM296.584,634.173C296.584,641.077,290.987,646.673,284.084,646.673C277.18,646.673,271.584,641.077,271.584,634.173C271.584,627.27,277.18,621.673,284.084,621.673C290.987,621.673,296.584,627.27,296.584,634.173ZM458.511,634.207C458.511,641.11,452.914,646.707,446.011,646.707C439.107,646.707,433.511,641.11,433.511,634.207C433.511,627.303,439.107,621.707,446.011,621.707C452.914,621.707,458.511,627.303,458.511,634.207ZM539.511,634.207C539.511,641.11,533.914,646.707,527.011,646.707C520.107,646.707,514.511,641.11,514.511,634.207C514.511,627.303,520.107,621.707,527.011,621.707C533.914,621.707,539.511,627.303,539.511,634.207ZM404.585,634.211C404.585,641.114,398.988,646.711,392.085,646.711C385.181,646.711,379.585,641.114,379.585,634.211C379.585,627.307,385.181,621.711,392.085,621.711C398.988,621.711,404.585,627.307,404.585,634.211ZM431.585,634.211C431.585,641.114,425.988,646.711,419.085,646.711C412.181,646.711,406.585,641.114,406.585,634.211C406.585,627.307,412.181,621.711,419.085,621.711C425.988,621.711,431.585,627.307,431.585,634.211ZM593.753,634.241C593.753,641.145,588.157,646.741,581.253,646.741C574.349,646.741,568.753,641.145,568.753,634.241C568.753,627.338,574.349,621.741,581.253,621.741C588.157,621.741,593.753,627.338,593.753,634.241ZM26,661.082C26,667.986,20.4036,673.582,13.5,673.582C6.59644,673.582,1,667.986,1,661.082C1,654.179,6.59644,648.582,13.5,648.582C20.4036,648.582,26,654.179,26,661.082ZM107.031,661.086C107.031,667.989,101.434,673.586,94.5309,673.586C87.6273,673.586,82.0309,667.989,82.0309,661.086C82.0309,654.182,87.6273,648.586,94.5309,648.586C101.434,648.586,107.031,654.182,107.031,661.086ZM134.176,661.088C134.176,667.991,128.579,673.588,121.676,673.588C114.772,673.588,109.176,667.991,109.176,661.088C109.176,654.184,114.772,648.588,121.676,648.588C128.579,648.588,134.176,654.184,134.176,661.088ZM161.176,661.088C161.176,667.991,155.579,673.588,148.676,673.588C141.772,673.588,136.176,667.991,136.176,661.088C136.176,654.184,141.772,648.588,148.676,648.588C155.579,648.588,161.176,654.184,161.176,661.088ZM188.142,661.114C188.142,668.017,182.545,673.614,175.642,673.614C168.738,673.614,163.142,668.017,163.142,661.114C163.142,654.21,168.738,648.614,175.642,648.614C182.545,648.614,188.142,654.21,188.142,661.114ZM755.718,661.123C755.718,668.027,750.122,673.623,743.218,673.623C736.315,673.623,730.718,668.027,730.718,661.123C730.718,654.22,736.315,648.623,743.218,648.623C750.122,648.623,755.718,654.22,755.718,661.123ZM782.718,661.123C782.718,668.027,777.122,673.623,770.218,673.623C763.315,673.623,757.718,668.027,757.718,661.123C757.718,654.22,763.315,648.623,770.218,648.623C777.122,648.623,782.718,654.22,782.718,661.123ZM674.531,661.127C674.531,668.03,668.934,673.627,662.031,673.627C655.127,673.627,649.531,668.03,649.531,661.127C649.531,654.223,655.127,648.627,662.031,648.627C668.934,648.627,674.531,654.223,674.531,661.127ZM701.531,661.148C701.531,668.051,695.934,673.648,689.031,673.648C682.127,673.648,676.531,668.051,676.531,661.148C676.531,654.244,682.127,648.648,689.031,648.648C695.934,648.648,701.531,654.244,701.531,661.148ZM728.844,661.149C728.844,668.052,723.248,673.649,716.344,673.649C709.441,673.649,703.844,668.052,703.844,661.149C703.844,654.245,709.441,648.649,716.344,648.649C723.248,648.649,728.844,654.245,728.844,661.149ZM864.033,661.161C864.033,668.065,858.437,673.661,851.533,673.661C844.63,673.661,839.033,668.065,839.033,661.161C839.033,654.258,844.63,648.661,851.533,648.661C858.437,648.661,864.033,654.258,864.033,661.161ZM647.531,661.175C647.531,668.078,641.934,673.675,635.031,673.675C628.127,673.675,622.531,668.078,622.531,661.175C622.531,654.271,628.127,648.675,635.031,648.675C641.934,648.675,647.531,654.271,647.531,661.175ZM377.632,661.201C377.632,668.105,372.036,673.701,365.132,673.701C358.229,673.701,352.632,668.105,352.632,661.201C352.632,654.298,358.229,648.701,365.132,648.701C372.036,648.701,377.632,654.298,377.632,661.201ZM458.571,661.209C458.571,668.113,452.975,673.709,446.071,673.709C439.167,673.709,433.571,668.113,433.571,661.209C433.571,654.306,439.167,648.709,446.071,648.709C452.975,648.709,458.571,654.306,458.571,661.209ZM512.571,661.209C512.571,668.113,506.975,673.709,500.071,673.709C493.167,673.709,487.571,668.113,487.571,661.209C487.571,654.306,493.167,648.709,500.071,648.709C506.975,648.709,512.571,654.306,512.571,661.209ZM404.637,661.211C404.637,668.114,399.041,673.711,392.137,673.711C385.234,673.711,379.637,668.114,379.637,661.211C379.637,654.307,385.234,648.711,392.137,648.711C399.041,648.711,404.637,654.307,404.637,661.211ZM269.031,661.226C269.031,668.13,263.434,673.726,256.531,673.726C249.627,673.726,244.031,668.13,244.031,661.226C244.031,654.322,249.627,648.726,256.531,648.726C263.434,648.726,269.031,654.322,269.031,661.226ZM593.593,661.234C593.593,668.138,587.997,673.734,581.093,673.734C574.19,673.734,568.593,668.138,568.593,661.234C568.593,654.331,574.19,648.734,581.093,648.734C587.997,648.734,593.593,654.331,593.593,661.234ZM620.593,661.234C620.593,668.138,614.997,673.734,608.093,673.734C601.19,673.734,595.593,668.138,595.593,661.234C595.593,654.331,601.19,648.734,608.093,648.734C614.997,648.734,620.593,654.331,620.593,661.234ZM323.555,661.259C323.555,668.162,317.958,673.759,311.055,673.759C304.151,673.759,298.555,668.162,298.555,661.259C298.555,654.355,304.151,648.759,311.055,648.759C317.958,648.759,323.555,654.355,323.555,661.259ZM350.415,661.29C350.415,668.194,344.819,673.79,337.915,673.79C331.012,673.79,325.415,668.194,325.415,661.29C325.415,654.387,331.012,648.79,337.915,648.79C344.819,648.79,350.415,654.387,350.415,661.29ZM539.741,661.294C539.741,668.198,534.144,673.794,527.241,673.794C520.337,673.794,514.741,668.198,514.741,661.294C514.741,654.391,520.337,648.794,527.241,648.794C534.144,648.794,539.741,654.391,539.741,661.294ZM809.989,688.085C809.989,694.989,804.393,700.585,797.489,700.585C790.586,700.585,784.989,694.989,784.989,688.085C784.989,681.182,790.586,675.585,797.489,675.585C804.393,675.585,809.989,681.182,809.989,688.085ZM782.593,688.148C782.593,695.051,776.997,700.648,770.093,700.648C763.19,700.648,757.593,695.051,757.593,688.148C757.593,681.244,763.19,675.648,770.093,675.648C776.997,675.648,782.593,681.244,782.593,688.148ZM891.033,688.161C891.033,695.065,885.437,700.661,878.533,700.661C871.63,700.661,866.033,695.065,866.033,688.161C866.033,681.258,871.63,675.661,878.533,675.661C885.437,675.661,891.033,681.258,891.033,688.161ZM674.646,688.193C674.646,695.097,669.05,700.693,662.146,700.693C655.243,700.693,649.646,695.097,649.646,688.193C649.646,681.289,655.243,675.693,662.146,675.693C669.05,675.693,674.646,681.289,674.646,688.193ZM242.031,688.226C242.031,695.13,236.434,700.726,229.531,700.726C222.627,700.726,217.031,695.13,217.031,688.226C217.031,681.322,222.627,675.726,229.531,675.726C236.434,675.726,242.031,681.322,242.031,688.226ZM296.555,688.259C296.555,695.162,290.959,700.759,284.055,700.759C277.152,700.759,271.555,695.162,271.555,688.259C271.555,681.355,277.152,675.759,284.055,675.759C290.959,675.759,296.555,681.355,296.555,688.259ZM647.646,688.267C647.646,695.17,642.05,700.767,635.146,700.767C628.243,700.767,622.646,695.17,622.646,688.267C622.646,681.363,628.243,675.767,635.146,675.767C642.05,675.767,647.646,681.363,647.646,688.267ZM593.713,688.27C593.713,695.174,588.117,700.77,581.213,700.77C574.31,700.77,568.713,695.174,568.713,688.27C568.713,681.367,574.31,675.77,581.213,675.77C588.117,675.77,593.713,681.367,593.713,688.27ZM539.718,688.31C539.718,695.213,534.122,700.81,527.218,700.81C520.315,700.81,514.718,695.213,514.718,688.31C514.718,681.406,520.315,675.81,527.218,675.81C534.122,675.81,539.718,681.406,539.718,688.31ZM269.031,688.329C269.031,695.233,263.434,700.829,256.531,700.829C249.627,700.829,244.031,695.233,244.031,688.329C244.031,681.426,249.627,675.829,256.531,675.829C263.434,675.829,269.031,681.426,269.031,688.329ZM620.696,688.344C620.696,695.248,615.099,700.844,608.196,700.844C601.292,700.844,595.696,695.248,595.696,688.344C595.696,681.441,601.292,675.844,608.196,675.844C615.099,675.844,620.696,681.441,620.696,688.344ZM377.637,688.363C377.637,695.267,372.041,700.863,365.137,700.863C358.234,700.863,352.637,695.267,352.637,688.363C352.637,681.46,358.234,675.863,365.137,675.863C372.041,675.863,377.637,681.46,377.637,688.363ZM863.891,715.084C863.891,721.988,858.294,727.584,851.391,727.584C844.487,727.584,838.891,721.988,838.891,715.084C838.891,708.181,844.487,702.584,851.391,702.584C858.294,702.584,863.891,708.181,863.891,715.084ZM891.013,715.161C891.013,722.065,885.416,727.661,878.513,727.661C871.609,727.661,866.013,722.065,866.013,715.161C866.013,708.258,871.609,702.661,878.513,702.661C885.416,702.661,891.013,708.258,891.013,715.161ZM728.798,715.169C728.798,722.072,723.202,727.669,716.298,727.669C709.395,727.669,703.798,722.072,703.798,715.169C703.798,708.265,709.395,702.669,716.298,702.669C723.202,702.669,728.798,708.265,728.798,715.169ZM782.593,715.185C782.593,722.089,776.997,727.685,770.093,727.685C763.19,727.685,757.593,722.089,757.593,715.185C757.593,708.282,763.19,702.685,770.093,702.685C776.997,702.685,782.593,708.282,782.593,715.185ZM810.027,715.207C810.027,722.111,804.43,727.707,797.527,727.707C790.623,727.707,785.027,722.111,785.027,715.207C785.027,708.304,790.623,702.707,797.527,702.707C804.43,702.707,810.027,708.304,810.027,715.207ZM431.637,715.211C431.637,722.114,426.041,727.711,419.137,727.711C412.234,727.711,406.637,722.114,406.637,715.211C406.637,708.307,412.234,702.711,419.137,702.711C426.041,702.711,431.637,708.307,431.637,715.211ZM458.637,715.211C458.637,722.114,453.041,727.711,446.137,727.711C439.234,727.711,433.637,722.114,433.637,715.211C433.637,708.307,439.234,702.711,446.137,702.711C453.041,702.711,458.637,708.307,458.637,715.211ZM485.637,715.211C485.637,722.114,480.041,727.711,473.137,727.711C466.234,727.711,460.637,722.114,460.637,715.211C460.637,708.307,466.234,702.711,473.137,702.711C480.041,702.711,485.637,708.307,485.637,715.211ZM647.531,715.257C647.531,722.161,641.934,727.757,635.031,727.757C628.127,727.757,622.531,722.161,622.531,715.257C622.531,708.354,628.127,702.757,635.031,702.757C641.934,702.757,647.531,708.354,647.531,715.257ZM674.646,715.267C674.646,722.17,669.05,727.767,662.146,727.767C655.243,727.767,649.646,722.17,649.646,715.267C649.646,708.363,655.243,702.767,662.146,702.767C669.05,702.767,674.646,708.363,674.646,715.267ZM836.891,715.269C836.891,722.173,831.294,727.769,824.391,727.769C817.487,727.769,811.891,722.173,811.891,715.269C811.891,708.366,817.487,702.769,824.391,702.769C831.294,702.769,836.891,708.366,836.891,715.269ZM620.531,715.278C620.531,722.182,614.934,727.778,608.031,727.778C601.127,727.778,595.531,722.182,595.531,715.278C595.531,708.375,601.127,702.778,608.031,702.778C614.934,702.778,620.531,708.375,620.531,715.278ZM323.416,715.329C323.416,722.233,317.819,727.829,310.916,727.829C304.012,727.829,298.416,722.233,298.416,715.329C298.416,708.426,304.012,702.829,310.916,702.829C317.819,702.829,323.416,708.426,323.416,715.329ZM350.416,715.329C350.416,722.233,344.819,727.829,337.916,727.829C331.012,727.829,325.416,722.233,325.416,715.329C325.416,708.426,331.012,702.829,337.916,702.829C344.819,702.829,350.416,708.426,350.416,715.329ZM94,703C42.0852,703,0,745.085,0,797C0,848.915,42.0852,891,94,891C145.915,891,188,848.915,188,797C188,745.085,145.915,703,94,703ZM29.8446,822.399Q25,810.161,25,797Q25,783.839,29.8446,771.601Q35.1048,758.314,45.2096,748.21Q55.3145,738.105,68.6015,732.845Q80.8387,728,94,728Q107.161,728,119.399,732.845Q132.686,738.105,142.79,748.21Q152.895,758.314,158.155,771.601Q163,783.839,163,797Q163,810.161,158.155,822.399Q152.895,835.686,142.79,845.79Q132.686,855.895,119.399,861.155Q107.161,866,94,866Q80.8387,866,68.6015,861.155Q55.3145,855.895,45.2096,845.79Q35.1048,835.686,29.8446,822.399ZM782.593,742.185C782.593,749.089,776.997,754.685,770.093,754.685C763.19,754.685,757.593,749.089,757.593,742.185C757.593,735.282,763.19,729.685,770.093,729.685C776.997,729.685,782.593,735.282,782.593,742.185ZM539.593,742.233C539.593,749.137,533.997,754.733,527.093,754.733C520.19,754.733,514.593,749.137,514.593,742.233C514.593,735.329,520.19,729.733,527.093,729.733C533.997,729.733,539.593,735.329,539.593,742.233ZM458.693,742.237C458.693,749.14,453.096,754.737,446.193,754.737C439.289,754.737,433.693,749.14,433.693,742.237C433.693,735.333,439.289,729.737,446.193,729.737C453.096,729.737,458.693,735.333,458.693,742.237ZM810.072,742.24C810.072,749.143,804.476,754.74,797.572,754.74C790.669,754.74,785.072,749.143,785.072,742.24C785.072,735.336,790.669,729.74,797.572,729.74C804.476,729.74,810.072,735.336,810.072,742.24ZM674.531,742.257C674.531,749.161,668.934,754.757,662.031,754.757C655.127,754.757,649.531,749.161,649.531,742.257C649.531,735.354,655.127,729.757,662.031,729.757C668.934,729.757,674.531,735.354,674.531,742.257ZM593.656,742.278C593.656,749.182,588.059,754.778,581.156,754.778C574.252,754.778,568.656,749.182,568.656,742.278C568.656,735.375,574.252,729.778,581.156,729.778C588.059,729.778,593.656,735.375,593.656,742.278ZM620.656,742.278C620.656,749.182,615.059,754.778,608.156,754.778C601.252,754.778,595.656,749.182,595.656,742.278C595.656,735.375,601.252,729.778,608.156,729.778C615.059,729.778,620.656,735.375,620.656,742.278ZM242.031,742.329C242.031,749.233,236.434,754.829,229.531,754.829C222.627,754.829,217.031,749.233,217.031,742.329C217.031,735.426,222.627,729.829,229.531,729.829C236.434,729.829,242.031,735.426,242.031,742.329ZM269.031,742.329C269.031,749.233,263.434,754.829,256.531,754.829C249.627,754.829,244.031,749.233,244.031,742.329C244.031,735.426,249.627,729.829,256.531,729.829C263.434,729.829,269.031,735.426,269.031,742.329ZM323.416,742.329C323.416,749.233,317.819,754.829,310.916,754.829C304.012,754.829,298.416,749.233,298.416,742.329C298.416,735.426,304.012,729.829,310.916,729.829C317.819,729.829,323.416,735.426,323.416,742.329ZM404.637,742.363C404.637,749.267,399.041,754.863,392.137,754.863C385.234,754.863,379.637,749.267,379.637,742.363C379.637,735.46,385.234,729.863,392.137,729.863C399.041,729.863,404.637,735.46,404.637,742.363ZM891.072,742.587C891.072,749.491,885.475,755.087,878.572,755.087C871.668,755.087,866.072,749.491,866.072,742.587C866.072,735.683,871.668,730.087,878.572,730.087C885.475,730.087,891.072,735.683,891.072,742.587ZM755.656,769.154C755.656,776.057,750.059,781.654,743.156,781.654C736.252,781.654,730.656,776.057,730.656,769.154C730.656,762.25,736.252,756.654,743.156,756.654C750.059,756.654,755.656,762.25,755.656,769.154ZM728.531,769.185C728.531,776.089,722.934,781.685,716.031,781.685C709.127,781.685,703.531,776.089,703.531,769.185C703.531,762.282,709.127,756.685,716.031,756.685C722.934,756.685,728.531,762.282,728.531,769.185ZM485.593,769.218C485.593,776.121,479.997,781.718,473.093,781.718C466.19,781.718,460.593,776.121,460.593,769.218C460.593,762.314,466.19,756.718,473.093,756.718C479.997,756.718,485.593,762.314,485.593,769.218ZM566.656,769.278C566.656,776.182,561.059,781.778,554.156,781.778C547.252,781.778,541.656,776.182,541.656,769.278C541.656,762.375,547.252,756.778,554.156,756.778C561.059,756.778,566.656,762.375,566.656,769.278ZM620.656,769.278C620.656,776.182,615.059,781.778,608.156,781.778C601.252,781.778,595.656,776.182,595.656,769.278C595.656,762.375,601.252,756.778,608.156,756.778C615.059,756.778,620.656,762.375,620.656,769.278ZM674.629,769.308C674.629,776.212,669.032,781.808,662.129,781.808C655.225,781.808,649.629,776.212,649.629,769.308C649.629,762.404,655.225,756.808,662.129,756.808C669.032,756.808,674.629,762.404,674.629,769.308ZM242.031,769.329C242.031,776.233,236.434,781.829,229.531,781.829C222.627,781.829,217.031,776.233,217.031,769.329C217.031,762.426,222.627,756.829,229.531,756.829C236.434,756.829,242.031,762.426,242.031,769.329ZM269.031,769.329C269.031,776.233,263.434,781.829,256.531,781.829C249.627,781.829,244.031,776.233,244.031,769.329C244.031,762.426,249.627,756.829,256.531,756.829C263.434,756.829,269.031,762.426,269.031,769.329ZM323.556,769.363C323.556,776.266,317.96,781.863,311.056,781.863C304.152,781.863,298.556,776.266,298.556,769.363C298.556,762.459,304.152,756.863,311.056,756.863C317.96,756.863,323.556,762.459,323.556,769.363ZM350.556,769.363C350.556,776.266,344.96,781.863,338.056,781.863C331.152,781.863,325.556,776.266,325.556,769.363C325.556,762.459,331.152,756.863,338.056,756.863C344.96,756.863,350.556,762.459,350.556,769.363ZM701.63,769.367C701.63,776.27,696.034,781.867,689.13,781.867C682.227,781.867,676.63,776.27,676.63,769.367C676.63,762.463,682.227,756.867,689.13,756.867C696.034,756.867,701.63,762.463,701.63,769.367ZM134,797C134,819.091,116.091,837,94,837C71.9086,837,54,819.091,54,797C54,774.909,71.9086,757,94,757C116.091,757,134,774.909,134,797ZM864.072,769.511C864.072,776.414,858.475,782.011,851.572,782.011C844.668,782.011,839.072,776.414,839.072,769.511C839.072,762.607,844.668,757.011,851.572,757.011C858.475,757.011,864.072,762.607,864.072,769.511ZM783.083,769.512C783.083,776.416,777.486,782.012,770.583,782.012C763.679,782.012,758.083,776.416,758.083,769.512C758.083,762.609,763.679,757.012,770.583,757.012C777.486,757.012,783.083,762.609,783.083,769.512ZM431.593,796.218C431.593,803.121,425.997,808.718,419.093,808.718C412.19,808.718,406.593,803.121,406.593,796.218C406.593,789.314,412.19,783.718,419.093,783.718C425.997,783.718,431.593,789.314,431.593,796.218ZM539.718,796.238C539.718,803.141,534.122,808.738,527.218,808.738C520.315,808.738,514.718,803.141,514.718,796.238C514.718,789.334,520.315,783.738,527.218,783.738C534.122,783.738,539.718,789.334,539.718,796.238ZM350.602,796.241C350.602,803.144,345.005,808.741,338.102,808.741C331.198,808.741,325.602,803.144,325.602,796.241C325.602,789.337,331.198,783.741,338.102,783.741C345.005,783.741,350.602,789.337,350.602,796.241ZM404.602,796.241C404.602,803.144,399.005,808.741,392.102,808.741C385.198,808.741,379.602,803.144,379.602,796.241C379.602,789.337,385.198,783.741,392.102,783.741C399.005,783.741,404.602,789.337,404.602,796.241ZM620.656,796.278C620.656,803.182,615.059,808.778,608.156,808.778C601.252,808.778,595.656,803.182,595.656,796.278C595.656,789.375,601.252,783.778,608.156,783.778C615.059,783.778,620.656,789.375,620.656,796.278ZM296.593,796.281C296.593,803.185,290.997,808.781,284.093,808.781C277.19,808.781,271.593,803.185,271.593,796.281C271.593,789.378,277.19,783.781,284.093,783.781C290.997,783.781,296.593,789.378,296.593,796.281ZM323.593,796.281C323.593,803.185,317.997,808.781,311.093,808.781C304.19,808.781,298.593,803.185,298.593,796.281C298.593,789.378,304.19,783.781,311.093,783.781C317.997,783.781,323.593,789.378,323.593,796.281ZM674.739,796.308C674.739,803.212,669.143,808.808,662.239,808.808C655.336,808.808,649.739,803.212,649.739,796.308C649.739,789.404,655.336,783.808,662.239,783.808C669.143,783.808,674.739,789.404,674.739,796.308ZM269.031,796.329C269.031,803.233,263.434,808.829,256.531,808.829C249.627,808.829,244.031,803.233,244.031,796.329C244.031,789.426,249.627,783.829,256.531,783.829C263.434,783.829,269.031,789.426,269.031,796.329ZM783.011,796.512C783.011,803.416,777.415,809.012,770.511,809.012C763.608,809.012,758.011,803.416,758.011,796.512C758.011,789.609,763.608,784.012,770.511,784.012C777.415,784.012,783.011,789.609,783.011,796.512ZM485.593,823.198C485.593,830.101,479.997,835.698,473.093,835.698C466.19,835.698,460.593,830.101,460.593,823.198C460.593,816.294,466.19,810.698,473.093,810.698C479.997,810.698,485.593,816.294,485.593,823.198ZM377.602,823.241C377.602,830.144,372.005,835.741,365.102,835.741C358.198,835.741,352.602,830.144,352.602,823.241C352.602,816.337,358.198,810.741,365.102,810.741C372.005,810.741,377.602,816.337,377.602,823.241ZM620.656,823.272C620.656,830.176,615.059,835.772,608.156,835.772C601.252,835.772,595.656,830.176,595.656,823.272C595.656,816.369,601.252,810.772,608.156,810.772C615.059,810.772,620.656,816.369,620.656,823.272ZM701.695,823.4C701.695,830.304,696.099,835.9,689.195,835.9C682.292,835.9,676.695,830.304,676.695,823.4C676.695,816.496,682.292,810.9,689.195,810.9C696.099,810.9,701.695,816.496,701.695,823.4ZM755.779,823.47C755.779,830.373,750.183,835.97,743.279,835.97C736.376,835.97,730.779,830.373,730.779,823.47C730.779,816.566,736.376,810.97,743.279,810.97C750.183,810.97,755.779,816.566,755.779,823.47ZM783.011,823.512C783.011,830.416,777.415,836.012,770.511,836.012C763.608,836.012,758.011,830.416,758.011,823.512C758.011,816.609,763.608,811.012,770.511,811.012C777.415,811.012,783.011,816.609,783.011,823.512ZM810.011,823.512C810.011,830.416,804.415,836.012,797.511,836.012C790.608,836.012,785.011,830.416,785.011,823.512C785.011,816.609,790.608,811.012,797.511,811.012C804.415,811.012,810.011,816.609,810.011,823.512ZM837.011,823.512C837.011,830.416,831.415,836.012,824.511,836.012C817.608,836.012,812.011,830.416,812.011,823.512C812.011,816.609,817.608,811.012,824.511,811.012C831.415,811.012,837.011,816.609,837.011,823.512ZM891.036,823.581C891.036,830.485,885.44,836.081,878.536,836.081C871.633,836.081,866.036,830.485,866.036,823.581C866.036,816.678,871.633,811.081,878.536,811.081C885.44,811.081,891.036,816.678,891.036,823.581ZM242.031,823.589C242.031,830.492,236.434,836.089,229.531,836.089C222.627,836.089,217.031,830.492,217.031,823.589C217.031,816.685,222.627,811.089,229.531,811.089C236.434,811.089,242.031,816.685,242.031,823.589ZM269.031,823.589C269.031,830.492,263.434,836.089,256.531,836.089C249.627,836.089,244.031,830.492,244.031,823.589C244.031,816.685,249.627,811.089,256.531,811.089C263.434,811.089,269.031,816.685,269.031,823.589ZM539.656,850.272C539.656,857.176,534.059,862.772,527.156,862.772C520.252,862.772,514.656,857.176,514.656,850.272C514.656,843.369,520.252,837.772,527.156,837.772C534.059,837.772,539.656,843.369,539.656,850.272ZM593.656,850.272C593.656,857.176,588.059,862.772,581.156,862.772C574.252,862.772,568.656,857.176,568.656,850.272C568.656,843.369,574.252,837.772,581.156,837.772C588.059,837.772,593.656,843.369,593.656,850.272ZM647.63,850.279C647.63,857.182,642.033,862.779,635.13,862.779C628.226,862.779,622.63,857.182,622.63,850.279C622.63,843.375,628.226,837.779,635.13,837.779C642.033,837.779,647.63,843.375,647.63,850.279ZM674.63,850.279C674.63,857.182,669.033,862.779,662.13,862.779C655.226,862.779,649.63,857.182,649.63,850.279C649.63,843.375,655.226,837.779,662.13,837.779C669.033,837.779,674.63,843.375,674.63,850.279ZM512.718,850.351C512.718,857.255,507.122,862.851,500.218,862.851C493.315,862.851,487.718,857.255,487.718,850.351C487.718,843.448,493.315,837.851,500.218,837.851C507.122,837.851,512.718,843.448,512.718,850.351ZM701.695,850.4C701.695,857.304,696.099,862.9,689.195,862.9C682.292,862.9,676.695,857.304,676.695,850.4C676.695,843.496,682.292,837.9,689.195,837.9C696.099,837.9,701.695,843.496,701.695,850.4ZM755.81,850.402C755.81,857.306,750.214,862.902,743.31,862.902C736.406,862.902,730.81,857.306,730.81,850.402C730.81,843.498,736.406,837.902,743.31,837.902C750.214,837.902,755.81,843.498,755.81,850.402ZM863.972,850.581C863.972,857.485,858.375,863.081,851.472,863.081C844.568,863.081,838.972,857.485,838.972,850.581C838.972,843.678,844.568,838.081,851.472,838.081C858.375,838.081,863.972,843.678,863.972,850.581ZM296.656,850.595C296.656,857.498,291.059,863.095,284.156,863.095C277.252,863.095,271.656,857.498,271.656,850.595C271.656,843.691,277.252,838.095,284.156,838.095C291.059,838.095,296.656,843.691,296.656,850.595ZM350.656,850.595C350.656,857.498,345.059,863.095,338.156,863.095C331.252,863.095,325.656,857.498,325.656,850.595C325.656,843.691,331.252,838.095,338.156,838.095C345.059,838.095,350.656,843.691,350.656,850.595ZM377.656,850.595C377.656,857.498,372.059,863.095,365.156,863.095C358.252,863.095,352.656,857.498,352.656,850.595C352.656,843.691,358.252,838.095,365.156,838.095C372.059,838.095,377.656,843.691,377.656,850.595ZM566.656,877.272C566.656,884.176,561.059,889.772,554.156,889.772C547.252,889.772,541.656,884.176,541.656,877.272C541.656,870.369,547.252,864.772,554.156,864.772C561.059,864.772,566.656,870.369,566.656,877.272ZM620.656,877.272C620.656,884.176,615.059,889.772,608.156,889.772C601.252,889.772,595.656,884.176,595.656,877.272C595.656,870.369,601.252,864.772,608.156,864.772C615.059,864.772,620.656,870.369,620.656,877.272ZM728.656,877.272C728.656,884.176,723.059,889.772,716.156,889.772C709.252,889.772,703.656,884.176,703.656,877.272C703.656,870.369,709.252,864.772,716.156,864.772C723.059,864.772,728.656,870.369,728.656,877.272ZM674.63,877.279C674.63,884.182,669.033,889.779,662.13,889.779C655.226,889.779,649.63,884.182,649.63,877.279C649.63,870.375,655.226,864.779,662.13,864.779C669.033,864.779,674.63,870.375,674.63,877.279ZM701.63,877.279C701.63,884.182,696.033,889.779,689.13,889.779C682.226,889.779,676.63,884.182,676.63,877.279C676.63,870.375,682.226,864.779,689.13,864.779C696.033,864.779,701.63,870.375,701.63,877.279ZM783.022,877.355C783.022,884.258,777.426,889.855,770.522,889.855C763.619,889.855,758.022,884.258,758.022,877.355C758.022,870.451,763.619,864.855,770.522,864.855C777.426,864.855,783.022,870.451,783.022,877.355ZM864.063,877.424C864.063,884.328,858.467,889.924,851.563,889.924C844.66,889.924,839.063,884.328,839.063,877.424C839.063,870.521,844.66,864.924,851.563,864.924C858.467,864.924,864.063,870.521,864.063,877.424ZM891.063,877.424C891.063,884.328,885.467,889.924,878.563,889.924C871.66,889.924,866.063,884.328,866.063,877.424C866.063,870.521,871.66,864.924,878.563,864.924C885.467,864.924,891.063,870.521,891.063,877.424ZM431.656,877.43C431.656,884.333,426.059,889.93,419.156,889.93C412.252,889.93,406.656,884.333,406.656,877.43C406.656,870.526,412.252,864.93,419.156,864.93C426.059,864.93,431.656,870.526,431.656,877.43ZM756.058,877.442C756.058,884.346,750.461,889.942,743.558,889.942C736.654,889.942,731.058,884.346,731.058,877.442C731.058,870.538,736.654,864.942,743.558,864.942C750.461,864.942,756.058,870.538,756.058,877.442ZM269.031,877.486C269.031,884.39,263.434,889.986,256.531,889.986C249.627,889.986,244.031,884.39,244.031,877.486C244.031,870.582,249.627,864.986,256.531,864.986C263.434,864.986,269.031,870.582,269.031,877.486ZM539.656,877.5C539.656,884.404,534.059,890,527.156,890C520.252,890,514.656,884.404,514.656,877.5C514.656,870.597,520.252,865,527.156,865C534.059,865,539.656,870.597,539.656,877.5ZM377.604,877.537C377.604,884.441,372.008,890.037,365.104,890.037C358.201,890.037,352.604,884.441,352.604,877.537C352.604,870.633,358.201,865.037,365.104,865.037C372.008,865.037,377.604,870.633,377.604,877.537ZM404.604,877.537C404.604,884.441,399.008,890.037,392.104,890.037C385.201,890.037,379.604,884.441,379.604,877.537C379.604,870.633,385.201,865.037,392.104,865.037C399.008,865.037,404.604,870.633,404.604,877.537ZM296.656,877.595C296.656,884.498,291.059,890.095,284.156,890.095C277.252,890.095,271.656,884.498,271.656,877.595C271.656,870.691,277.252,865.095,284.156,865.095C291.059,865.095,296.656,870.691,296.656,877.595ZM350.656,877.595C350.656,884.498,345.059,890.095,338.156,890.095C331.252,890.095,325.656,884.498,325.656,877.595C325.656,870.691,331.252,865.095,338.156,865.095C345.059,865.095,350.656,870.691,350.656,877.595ZM485.718,877.614C485.718,884.517,480.122,890.114,473.218,890.114C466.315,890.114,460.718,884.517,460.718,877.614C460.718,870.71,466.315,865.114,473.218,865.114C480.122,865.114,485.718,870.71,485.718,877.614Z" fill-rule="evenodd" fill="#000000" fill-opacity="1" style="mix-blend-mode:passthrough"/></g></g></svg>