<svg xmlns="http://www.w3.org/2000/svg" xmlns:xlink="http://www.w3.org/1999/xlink" fill="none" version="1.1" width="704.5327758789062" height="176" viewBox="0 0 704.5327758789062 176"><g><path d="M106.185,2.01049C106.231,1.48176,106.556,0.977215,107.186,0L108.983,0.554688C111.668,2.31602,112.466,4.23168,113.671,7.15234L114.436,9.125C114.963,10.419,115.489,11.7132,116.014,13.0078L117.186,16C118.147,15.4224,118.65,15.1202,119.194,14.9981C119.79,14.8641,120.435,14.9471,121.788,15.1211L124.811,15.4375C126.603,15.6195,128.395,15.8053,130.186,16L131.186,21L122.186,24C122.186,26,122.186,26,122.885,27.7773L123.874,29.9375L124.964,32.3359C125.835,34.235,126.702,36.1363,127.565,38.0391C128.769,40.6941,129.977,43.3476,131.186,46C132.186,45,132.186,45,132.667,43.2341L133.159,40.9648L133.696,38.5137L134.249,35.9375C134.615,34.2592,134.981,32.5808,135.346,30.9023L136.186,27L139.186,27C140.458,31.1502,139.929,34.4319,139.159,38.5938L138.214,43.4062L137.78,45.75C136.897,50.2294,137.515,53.5199,139.401,57.679L140.909,60.5195L142.54,63.6152L144.249,66.8125C146.221,70.5452,148.197,74.2763,150.186,78L150.186,68L153.186,72C156.837,75.9642,158.962,79.1636,160.549,84.3262L161.186,86.5625C161.279,86.8491,161.371,87.1291,161.461,87.4031C162.728,91.2555,163.615,93.9553,161.96,97.9883C160.348,100.193,160.348,100.193,157.811,100.625C154.91,99.9343,153.515,98.9224,151.553,96.6992L150.186,95C144.964,88.767,141.668,81.9605,138.436,74.5625L137.295,71.8689L136.202,69.3164C134.92,66.246,133.674,64.2274,131.186,62L130.186,64L132.186,65C132.232,67.2161,132.25,68.1037,132.188,68.9857C132.147,69.575,132.069,70.1618,131.94,71.1406C131.344,73.1631,131.344,73.1631,129.339,74.0469L127.124,74.75L124.901,75.4844L123.186,76C123.768,79.6207,125.183,81.3736,127.686,84C130.189,86.6264,131.604,88.3793,132.186,92L130.085,93.4766C124.66,96.328,117.814,95.8646,111.924,94.4609C107.374,92.6646,104.293,89.9926,101.936,85.75L101.186,84L99.1862,84L99.1862,86C97.8335,88.773,97.033,90.6031,94.1862,91.9375C93.2214,92.0481,92.6572,92.1127,92.1356,91.9927C91.4013,91.8236,90.7513,91.2885,89.1862,90C90.5704,85.1907,90.5704,85.1907,93.78,81.2227C97.0304,77.2408,99.9089,74.1093,101.186,69L93.1862,63C93.3078,66.6745,93.3316,70.3258,93.1862,74C92.5109,79.1771,91.1252,83.3987,87.1862,87C85.8102,87.2625,85.1547,87.3876,84.5019,87.3752C83.908,87.3639,83.3162,87.2388,82.1862,87C79.8021,83.3887,79.8021,83.3887,79.1862,79L81.3737,76.375L82.8034,74.8711C89.4268,65.9089,88.1116,49.5382,87.1862,39L86.1862,38C86.1456,36.3338,86.1435,34.6661,86.1862,33C88.595,33.1134,88.595,33.1134,91.1862,34C93.4826,36.9297,94.1748,38.9127,94.6628,42.6289C94.6996,43.6039,94.7218,44.5818,94.7439,45.5602C94.8392,49.7592,94.9347,53.9684,96.1862,58C98.7188,55.8292,100.939,54.1098,103.999,52.75L106.186,52C106.1,51.0214,106.05,50.462,106.195,49.9583C106.388,49.2859,106.927,48.7129,108.186,47.375L110.186,45L98.1862,51L97.1862,46C98.8036,44.6073,100.479,43.2806,102.186,42C104.482,41.4458,106.128,41.0363,108.151,39.7734C110.121,38.3767,112.036,37.1026,114.186,36C117.081,36.0214,117.081,36.0214,119.186,37C119.266,38.1284,119.307,38.7206,119.311,39.313C119.316,39.9674,119.274,40.6221,119.186,42L117.186,45L121.186,48C120.843,49.6648,120.513,51.332,120.186,53C119.857,56.0564,119.857,56.0564,119.186,59C117.683,61.577,116.59,62.7691,113.999,64.25L112.186,65L112.186,69L116.186,69L117.186,73L123.186,73L122.186,70L117.186,69C118.413,67.5201,118.413,67.5201,120.186,66C121.864,65.361,123.532,64.6966,125.186,64C126.804,59.1477,127.611,55.449,126.147,50.457L124.561,46.8125C124.004,45.505,123.447,44.1977,122.889,42.8906C121.791,40.3884,120.721,37.8828,119.671,35.3594C118.52,32.5683,117.357,29.7826,116.186,27L113.186,27.4375C111.852,27.6222,110.519,27.8099,109.186,28C106.499,28.4438,103.909,28.7692,101.186,29L99.1862,27C99.5082,23.9007,99.5082,23.9007,100.186,21L110.186,19C110.666,14.5575,109.689,11.3446,108.124,7.25L106.964,4.39062C106.406,3.16682,106.136,2.57488,106.185,2.01049ZM126.928,9.16797C124.859,8.03815,124.859,8.03815,124.186,5C129.69,4.67625,133.623,4.46714,138.186,8L136.186,12C134.589,12.0989,133.874,12.1431,133.197,12.003C132.649,11.8895,132.126,11.655,131.178,11.2305L129.061,10.1875L126.928,9.16797ZM468.186,18L470.186,16C470.642,15.9817,470.929,15.9702,471.212,16.0007C471.695,16.0527,472.165,16.2271,473.436,16.6992L476.186,17.6875L478.936,18.6367C481.452,19.8198,481.452,19.8198,481.999,22.6445L482.186,25L484.635,24.457L487.874,23.8125C491.037,23.0636,491.037,23.0636,494.186,23C497.9,24.7333,499.722,26.14,501.186,30C498.549,33.3568,495.905,34.615,491.999,36.0625C489.331,36.9727,489.331,36.9727,487.186,38C485.469,43.1516,483.929,45.4457,479.438,48.7598C475.659,51.4732,471.706,53.44,470.186,58C472.249,59.2734,472.249,59.2734,475.186,60C478.561,58.2266,478.561,58.2266,480.358,56.9766C480.902,56.5743,481.436,56.1671,481.964,55.764C485.681,52.9262,489.132,50.2917,494.186,51C494.402,53.2609,494.488,54.1682,494.211,54.9458C494.025,55.467,493.676,55.9299,493.092,56.7031L489.186,61C491.524,61.2976,493.858,61.6324,496.186,62C497.265,63.0784,497.265,63.0784,504.124,64.875C507.891,65.7904,507.891,65.7904,511.186,67C512.266,69.3166,512.816,70.4957,512.954,71.7212C513.097,72.9915,512.797,74.3115,512.186,77C496.946,75.4524,496.946,75.4524,481.956,71.8047L478.186,71C478.666,74.985,479.139,78.9497,479.319,82.9609L479.311,85.375L479.319,87.8359C479.134,90.854,478.631,92.5711,476.436,94.6875C473.799,96.2256,472.189,96.2502,469.186,96L468.186,93C467.158,93.1044,466.632,93.1578,466.181,92.9982C465.709,92.8311,465.319,92.4302,464.522,91.6094C461.113,88.3768,457.919,85.6487,453.686,83.5625L450.186,82L450.186,79C452.843,78.5593,454.459,77.8275,456.764,76.3711L459.436,74.4375C461.024,73.2974,462.608,72.1533,464.186,71L455.186,72L454.186,75L450.186,74L450.186,71L452.311,69.625C455.992,67.5444,459.186,65.0005,462.186,62C458.165,64.9684,455.185,66.5239,450.186,67C449.92,63.891,450.131,62.1214,451.436,59.25C452.945,56.9008,452.945,56.9008,455.061,56.3125C457.495,55.9545,457.495,55.9545,462.186,54C462.076,52.9683,462.02,52.4378,462.189,51.9928C462.368,51.522,462.799,51.1469,463.686,50.375L465.186,49L462.186,47L462.186,44C465.135,40.8552,468.009,39.6367,472.061,38.5C479.169,36.5356,484.198,33.442,489.186,28C481.708,28.9995,475.222,31.5002,468.385,34.5625C466.362,35.4719,464.323,36.3511,462.268,37.1875L460.186,38C458.566,43.4001,458.566,43.4001,454.725,47.9492L453.186,49.875L451.749,51.6797C451.045,52.3918,450.627,52.8142,450.121,53.0359C449.384,53.3591,448.459,53.2553,446.186,53L445.495,51.1016L444.624,48.625L443.745,46.1641C443.336,45.0683,443.131,44.5204,443.186,44C443.241,43.4794,443.556,42.9863,444.186,42C451.532,31.9798,457.368,24.9884,469.842,22.4102L472.186,22L468.186,18ZM561.186,30C562.701,28.0599,562.701,28.0599,565.186,26L565.352,25.9058C569.877,23.3301,573.99,20.9887,579.186,23C579.713,30.3787,576.452,34.9232,571.959,40.406C566.995,46.377,562.275,52.3832,558.186,59C560.786,58.9078,563.08,58.9775,565.631,59.519L568.171,60.2422L571.007,61.0352C576.574,62.6312,582.145,64.2135,587.752,65.6636L590.135,66.2344C592.398,66.777,594.014,67.0196,596.333,66.7559C600.93,65.842,604.735,66.1127,609.278,67.1118L611.436,67.625C616.987,68.8599,620.412,70.5972,624.186,75L623.471,76.9219C622.369,79.1641,622.369,79.1641,620.12,79.8281C602.574,82.7936,587.501,78.6755,571.592,71.3438C566.816,69.0671,562.195,66.785,557.061,65.4375C554.492,65.1475,553.626,65.0497,552.921,65.3411C552.563,65.4893,552.246,65.738,551.768,66.1133L550.186,68L547.768,70.6719C541.362,77.806,534.956,86.8018,525.186,89C522.707,87.0985,522.135,85.8343,521.202,82.7852L520.436,79.0625C520.343,78.6264,520.246,78.1952,520.149,77.768C519.394,74.4133,518.695,71.3061,520.186,68C522.677,66.7034,522.677,66.7034,525.186,66L523.186,70C525.124,69.6875,525.124,69.6875,527.186,69L528.186,66L531.249,64.8125L534.186,64L534.186,62L537.186,62L537.186,60L542.186,58L542.186,56C543.874,55.8125,543.874,55.8125,546.186,55C549.776,52.1985,551.487,49.689,552.874,45.4375C554.037,41.3192,555.031,38.141,558.132,35.0781L560.311,33.25L562.507,31.3906L564.186,30L561.186,30ZM474.424,26.0234L476.186,27L474.534,27.6992C469.533,29.862,464.815,32.2604,460.132,35.0469C458.186,36,458.186,36,455.186,36C456.015,31.2137,456.379,29.6299,460.311,26.5625C464.879,24.3404,469.699,23.8627,474.424,26.0234ZM228.624,34C228.166,31.015,228.312,28.9013,229.186,26C230.852,25.9573,232.52,25.9594,234.186,26C234.729,26.4488,235.032,26.6998,235.199,27.0214C235.411,27.4292,235.405,27.9506,235.392,29.1331L235.503,31.9102L235.63,34.9082L235.749,38.0625C235.872,41.0404,235.995,44.0182,236.11,46.9963L236.186,49L244.186,50L245.186,55C243.713,56.1775,243.003,56.7446,242.196,56.9973C241.445,57.232,240.61,57.1955,238.999,57.125L236.186,57C236.869,60.4749,237.212,62.2217,237.368,63.9851C237.525,65.7676,237.49,67.5671,237.421,71.1855C237.427,73.3805,237.436,75.5745,237.467,77.7693C237.488,79.2041,237.502,80.639,237.509,82.074L237.514,84.1289C237.572,86.1304,237.599,87.0541,237.543,87.9729C237.495,88.7604,237.387,89.5443,237.186,91L234.186,93C228.041,91.1565,222.662,87.5904,218.186,83C217.607,78.9912,217.314,76.9575,217.544,74.9853C217.782,72.9547,218.576,70.9892,220.186,67L229.186,67L230.186,59C223.691,60.2372,218.127,62.1068,212.186,65C212.285,72.0162,212.221,78.9785,211.698,85.9766C211.08,88.4184,210.088,89.399,208.186,91L206.944,88.6992L205.311,85.6875C203.692,82.6949,202.075,79.8329,200.186,77L199.186,82L194.186,83C193.137,80.3781,192.537,79.2063,190.061,77.75L188.186,77L191.186,65L193.186,65C192.428,61.6545,192.153,59.1902,192.745,55.7891L193.624,52.625C194.133,50.7469,194.65,48.8708,195.186,47L197.186,47C197.847,43.3297,198.222,40.2773,197.749,36.5625L197.186,34C198.9,33.1761,200.618,32.3587,202.362,31.6016C204.623,30.856,206.017,31.0453,208.186,32C208.333,33.5701,208.403,34.3265,208.189,34.9912C207.99,35.6092,207.545,36.1479,206.686,37.1875L205.186,39L206.936,38.375C209.706,37.9134,210.832,38.5705,213.186,40C212.827,41.6172,212.576,42.7438,212.407,43.8824C212.019,46.4966,212.058,49.1743,212.186,58C214.899,56.9229,217.603,55.8276,220.299,54.7109L223.499,53.375C225.395,52.5837,227.291,51.7921,229.186,51L229.187,50.9421C229.274,45.2572,229.359,39.6475,228.624,34ZM293.186,33C291.961,29.9915,291.961,29.9915,291.186,27C295.273,26.7596,298.363,27.5774,302.186,29L302.186,31L299.374,32.5625C297.772,33.5078,296.994,33.967,296.198,33.9997C295.446,34.0306,294.679,33.6806,293.186,33ZM275.186,33C275.299,30.1598,275.299,30.1598,276.186,28L278.186,28C281.987,34.7702,285.527,41.5121,288.499,48.6875C289.85,52.0163,290.648,54.4621,293.186,57L295.186,46L297.186,46C300.591,48.0868,302.608,50.3183,304.186,54C303.709,56.7775,303.709,56.7775,302.186,59L299.186,60L299.181,60.1005C298.969,64.2061,298.819,67.0921,300.374,70.9375C301.438,72.7356,302.487,74.5431,303.499,76.3711C304.716,78.5877,305.947,80.7957,307.186,83L308.186,80L310.186,79C311.303,82.1274,312.206,85.1049,312.811,88.375L313.186,91L315.186,91C315.784,93.7626,316.186,96.1603,316.186,99L314.253,99.0352L311.749,99.0625C310.228,99.0839,308.706,99.0718,307.186,99C299.727,89.1096,299.727,89.1096,294.507,77.7461L293.186,75L291.186,75C288.988,76.7367,288.988,76.7367,286.186,78C282.428,77.2961,282.428,77.2961,279.186,76L279.186,73L288.186,70C289.471,65.2858,288.956,62.496,287.141,58.1406L286.249,56.125C285.243,53.7425,284.226,51.3683,283.186,49C282.197,50.3417,281.195,51.673,280.186,53C274.436,59.686,272.481,64.0958,273.007,72.9922C273.217,76.5132,272.828,79.5493,272.186,83C270.017,83.1273,269.088,83.1819,268.205,83.0053C267.544,82.873,266.908,82.6109,265.796,82.1523L263.186,81L260.327,79.8164L257.436,78.5625L254.514,77.3164C251.868,76.1635,251.868,76.1635,251.186,73L253.233,71.5391L255.936,69.625C257.67,68.3932,259.419,67.1833,261.186,66L263.467,65.125C265.186,64,265.186,64,265.796,61.3984L265.936,58.375C266.038,56.5843,266.126,54.7926,266.186,53C264.46,53.6138,262.732,54.2255,261.001,54.8262L258.874,55.5625C258.408,55.7291,257.958,55.8961,257.521,56.0586C254.322,57.2468,251.77,58.1948,248.186,57L249.186,54L250.952,53.2922L253.221,52.832L255.673,52.3145L258.249,51.8125C259.927,51.4642,261.605,51.1165,263.284,50.7695L267.186,50L266.186,45C258.737,46.3465,258.737,46.3465,251.186,47L251.186,46L254.436,44.375C256.024,43.5924,257.607,42.7994,259.186,42L262.249,40.3281L265.436,38.625C268.337,36.9371,268.337,36.9371,271.186,36C273.521,36.7065,273.521,36.7065,275.186,38L274.186,42L269.186,43L270.186,45C272.034,45.4141,272.034,45.4141,278.186,46L278.193,45.9765C279.024,43.1367,279.657,40.9755,278.327,38.2188C277.232,36.509,276.207,34.7549,275.186,33ZM177.186,43C175.81,40.3379,174.816,37.937,174.186,35C179.509,34.7634,181.496,35.7926,185.811,38.875C188.212,41.0229,188.851,41.8755,189.186,45L187.186,46C185.559,45.9397,184.716,45.9085,183.873,45.9064C182.968,45.9041,182.063,45.9353,180.186,46C176.709,47.7387,176.709,47.7387,171.186,56C174.39,56,176.28,55.2567,179.186,54L179.186,52L185.186,52C184.694,56.5245,184.189,61.0465,183.624,65.5625L183.186,69C184.068,66.6465,184.068,66.6465,187.186,66C186.888,67.0219,186.577,68.0476,186.265,69.0771C184.597,74.5828,182.895,80.199,182.936,85.9375L183.186,89L179.186,89L177.499,86.9375C175.138,81.655,174.996,76.7433,175.809,71.0527L176.124,69.0625C176.32,67.72,176.516,66.3775,176.714,65.0352L177.186,62L175.186,62C172.374,63.3542,172.374,63.3542,169.186,64C166.296,62.2559,166.296,62.2559,164.186,60C164.57,57.7743,164.857,56.3459,166.436,54.6875C167.824,53.349,169.149,51.9444,170.448,50.5195L172.874,47.8125C174.312,46.209,175.75,44.6051,177.186,43ZM392.561,53.375C395.152,47.9943,398.794,43.351,402.874,39C406.31,36.0285,407.478,36.5277,411.186,39L411.374,42.625L411.186,46C414.932,45.0369,417.451,45.0495,421.186,46C426.883,48.4112,431.773,51.0772,434.186,57C435.156,66.0603,431.132,73.6595,426.186,81C423.664,83.8059,422.424,85.849,418.624,86.3125C415.834,85.0902,415.834,85.0902,414.249,81.5625C412.733,78.0942,410.976,75.0032,408.936,71.8125C406.693,68.3751,405.639,66.1451,406.186,62C409.592,59.1952,412.864,58.5025,417.186,58L420.186,64C417.101,66.2688,415.764,67.0545,411.874,66.6875L409.186,66C411.539,68.7243,413.811,69.8142,417.186,71C421.235,64.2517,423.509,59.0673,423.186,51C418.662,51.4922,414.14,51.997,409.624,52.5625L406.186,53C404.203,50.0829,404.199,48.8762,404.561,45.25L405.186,42L403.385,42.7383C398.424,45.585,395.731,51.2754,394.061,56.5625C394.185,59.9659,394.527,60.928,396.124,63.75C397.424,67.3743,398.08,69.2049,398.344,71.0905C398.612,73.0148,398.471,74.9963,398.186,79C397.198,79.635,396.705,79.9516,396.187,79.9999C395.672,80.048,395.133,79.831,394.057,79.3984L391.624,78.375C389.164,77.499,389.164,77.499,387.186,76C386.018,72.9625,386.169,71.0942,386.745,67.8867L387.624,64.6875L388.495,61.4492L389.186,59L387.186,58C390.176,56.9689,391.069,56.2246,392.561,53.375ZM322.186,42L322.186,40L326.186,40C328.601,41.4129,328.601,41.4129,330.186,44C330.687,47.4708,330.785,50.802,329.186,54L326.061,59C324.366,61.6875,324.366,61.6875,323.186,64C323.773,65.7982,324.069,66.7049,324.206,67.6351C324.346,68.581,324.322,69.5511,324.274,71.5078L324.249,73.625C324.233,76.0835,324.213,78.5416,324.186,81L320.186,81C318.79,77.5494,318.146,75.3643,318.561,71.625L319.186,69L313.186,70L311.186,61L315.186,60C320.358,55.2158,320.358,55.2158,324.186,42L322.186,42ZM349.186,45L347.186,43C347.384,42.9033,347.58,42.8067,347.774,42.7108C352.351,40.4564,356.267,38.5276,360.753,42.3274C362.862,47.5935,363.941,50.2899,364.417,53.0889C364.916,56.0259,364.75,59.0759,364.411,65.3262C364.392,67.5821,364.374,69.8375,364.372,72.0935C364.372,73.303,364.398,74.5248,364.424,75.752C364.527,80.5556,364.631,85.4421,363.186,90L360.186,90C353.247,87.1459,347.91,81.3618,344.186,75L356.186,75C356.179,74.321,356.171,73.6414,356.162,72.9615C356.076,65.9598,355.989,58.9199,357.186,52L358.186,51C358.227,48.667,358.229,46.3329,358.186,44L356.288,44.2891L353.811,44.625C352.554,44.8332,351.955,44.9325,351.351,44.9766C350.8,45.0168,350.246,45.011,349.186,45ZM374.186,49C376.918,48.0739,379.561,47.1822,382.186,46C387.052,41.6208,388.933,41.7282,395.186,43L396.186,46L394.471,46.7344L392.249,47.75L390.034,48.7344C388.186,50,388.186,50,387.53,52C386.459,55.2937,386.459,55.2937,384.186,58L383.186,56L381.186,57L383.186,59C383.868,60.5213,384.199,61.2588,384.187,61.9904C384.175,62.6786,383.86,63.3618,383.249,64.6875L382.186,67L384.186,68L384.221,70.7734L384.249,74.375C384.254,74.8776,384.266,75.3636,384.279,75.837C384.345,78.3851,384.402,80.5677,383.186,83C381.681,83.1311,380.887,83.2002,380.171,82.9961C379.372,82.7684,378.671,82.2008,377.186,81C376.954,78.9854,376.857,78.1424,376.823,77.2969C376.798,76.6886,376.807,76.079,376.821,75.0308L376.874,72.625C376.943,65.9552,377.468,59.5546,378.749,52.9922L379.186,51L374.186,50L374.186,49ZM336.374,49.8125C334.911,47.5797,334.541,45.6266,334.186,43L336.936,42.8125C340.515,43.019,341.808,43.3468,344.186,46C344.361,47.3771,344.445,48.0321,344.436,48.6859C344.429,49.279,344.345,49.871,344.186,51C343.945,51.0161,343.71,51.0328,343.479,51.0493C340.8,51.2402,338.773,51.3847,336.374,49.8125ZM275.186,52C273.249,51.4375,273.249,51.4375,271.186,51L270.186,52C270.624,54.0625,270.624,54.0625,271.186,56L275.186,52ZM105.186,62C108.106,58.9443,110.186,57.3369,110.186,53L108.69,53.9531L106.749,55.25L104.815,56.5156C102.887,58.2725,102.571,59.4609,102.186,62L105.186,62ZM333.565,58.4297L334.186,55L335.186,55C335.79,60.9732,336.092,63.9628,336.217,66.9598C336.343,69.9628,336.291,72.9732,336.186,79L333.186,79C332.118,77.0353,331.121,75.0314,330.186,73C331.299,70.7734,331.299,70.7734,332.341,65.1367L332.749,62.875C333.021,61.3932,333.293,59.9115,333.565,58.4297ZM206.186,61L205.186,58L202.186,60C201.536,61.3414,200.87,62.6753,200.186,64L197.186,65L197.186,67C200.186,67,200.186,67,201.792,65.6875L203.374,64C204.319,63.0069,205.258,62.0089,206.186,61ZM391.186,63L393.186,63L393.186,72L390.186,71L391.186,63ZM206.186,78C206.993,74.0552,207.186,72,206.186,68L201.186,75L206.186,78ZM266.186,76L259.186,75L259.186,73C261.748,70.7035,262.666,70,266.186,70L266.186,76ZM107.186,72C109.186,73,109.186,73,110.561,76.5C111.768,80.0346,111.768,80.0346,114.124,81C116.316,81,118.103,80.6698,120.186,80C121.312,81.6883,121.804,82.4265,121.952,83.2283C122.067,83.8512,121.975,84.5124,121.811,85.6874L121.186,88C113.863,87.7288,109.213,85.0385,103.186,81C103.838,77.1842,104.655,74.9712,107.186,72ZM223.186,74C225.186,73.9575,227.187,73.9592,229.186,74C230.774,75.5875,230.922,78.5043,231.048,80.9912C231.084,81.711,231.119,82.3949,231.186,83C225.81,82.4027,225.81,82.4027,223.249,80.75C222.784,79.9848,222.523,79.5542,222.402,79.0872C222.246,78.4862,222.323,77.8249,222.499,76.3125L223.186,74ZM470.811,79.3125C470.944,77.8757,471.072,76.4384,471.186,75C470.186,75,470.186,75,468.12,76.75L465.624,79C464.142,80.331,462.663,81.6637,461.186,83C463.408,85.2219,465.271,85.926,468.186,87C470.186,84,470.186,84,470.6,81.7383L470.811,79.3125ZM631.8,95.1901C631.865,92.42,631.891,91.2948,634.186,89C636.411,90.8112,636.411,90.8112,636.46,93.3555C636.691,99.802,637.483,103.709,641.186,109C643.72,112.113,645.369,114.081,646.186,118C643.534,119.571,641.393,120.895,639.186,123C638.384,124.614,637.85,125.689,637.51,126.822C636.832,129.077,636.921,131.563,637.186,139C640.186,138,640.186,138,642.229,136.152L644.374,133.938L646.542,131.715L648.186,130C648.241,131.507,648.269,132.26,648.186,133C648.104,133.739,647.913,134.466,647.53,135.918L646.686,139.188C646.19,141.126,645.691,143.064,645.186,145C643.66,145.088,642.908,145.132,642.188,145C641.488,144.872,640.819,144.579,639.499,144L637.186,143C637.225,147.239,637.246,151.478,637.254,155.718C637.252,156.832,637.333,158.233,637.422,159.783C637.747,165.408,638.184,173.002,635.186,176L632.186,175C627.579,167.966,626.468,161.249,627.186,153L629.186,152L630.186,160L631.186,145C627.998,147.55,625.367,149.735,622.624,152.625C620.304,155.079,618.283,156.631,615.186,158C613.561,155.167,613.561,155.167,612.186,152C612.954,149.105,612.954,149.105,614.398,147.517L615.917,145.961L617.594,144.213C623.112,138.514,628.187,132.903,632.186,126C630.559,126.576,628.925,127.137,627.264,127.609C623.109,128.39,618.914,128.059,615.249,125.812C613.638,122.085,613.638,122.085,613.186,118C615.078,117.319,615.078,117.319,617.186,117L619.186,119L631.186,114C631.267,111.307,631.35,108.614,631.444,105.922L631.561,102.625L631.655,99.3516L631.772,96.2266C631.784,95.8559,631.792,95.5119,631.8,95.1901ZM37.9362,103.438C38.6707,99.8923,39.1445,98.0625,41.1862,95C44.9531,95,46.0981,95.2354,49.1862,97L49.1862,100L52.1862,101C51.9939,104.353,51.9939,104.353,51.1862,108C47.1235,112.063,46.3135,114.363,45.1862,120C47.1862,120,47.1862,120,48.8469,119.19L50.819,118.066C52.3184,117.235,53.8157,116.401,55.3112,115.562C58.9089,113.502,62.3604,111.433,66.4218,110.47C70.5258,109.905,73.6572,109.647,77.1862,112C77.7296,113.208,77.9996,113.808,78.1236,114.437C78.2462,115.059,78.2261,115.708,78.1862,117C73.9683,123.327,69.3871,127.502,62.1862,130L61.1862,127C64.4415,123.977,66.8044,120.743,69.1862,117C63.2799,117,59.4721,118.761,54.5612,121.938C51.3047,124.11,48.4654,125.897,44.7878,127.254L42.1862,128C42.2627,128.994,42.3032,129.521,42.1844,130.009C42.0504,130.559,41.7141,131.06,40.9987,132.125C39.3271,134.22,39.3271,134.22,36.7487,134.438C33.532,133.888,32.2766,133.555,30.1862,131C29.2318,124.987,30.179,121.546,32.9987,116.188C35.3026,111.959,36.8423,108.131,37.9362,103.438ZM225.186,103L225.186,100C225.564,99.9364,225.94,99.8727,226.317,99.809C232.612,98.7438,238.771,97.7016,245.186,98L247.186,102C243.121,106.615,239.1,111.256,235.186,116C237.191,114.997,238.607,113.882,240.311,112.438L243.186,110C242.413,112.982,241.774,115.976,241.186,119L243.749,116.25C243.887,116.086,244.018,115.932,244.143,115.786C245.694,113.964,246.214,113.354,245.999,110.625L245.186,109C248.19,109.695,248.19,109.695,251.186,111C251.732,111.957,252.001,112.429,252.123,112.936C252.243,113.43,252.224,113.958,252.186,115C251.518,118.113,251.518,118.113,249.124,119.188L247.186,120L254.186,121C255.152,122.678,255.152,122.678,255.186,125C252.929,128.32,251.563,130.405,247.862,132.004C245.186,133,245.186,133,242.362,134.332L239.499,135.812L236.612,137.27C233.805,139.272,233.134,140.737,232.186,144C235.923,141.081,239.246,138.141,244.186,138L246.186,140L246.03,142.137C245.686,144.688,245.686,144.688,245.604,147.398C246.357,150.763,246.357,150.763,250.999,153.812C255.027,156.074,257.183,157.764,259.186,162C258.98,164.253,258.98,164.253,258.186,166C255.218,165.011,253.358,163.84,250.811,162.062C248.459,160.418,246.167,158.991,243.604,157.695C242.608,157.409,242.022,157.24,241.445,157.268C240.623,157.308,239.821,157.747,237.874,158.812C233.928,161.359,230.879,161.844,226.186,162L223.186,160L219.186,162C218.392,155.779,220.251,152.746,223.874,147.723L225.186,146L224.186,144L228.186,141L223.186,141L222.186,139L223.186,136C226.121,134.266,228.744,133.106,232.061,132.312L234.186,132L233.186,130C230.347,131.047,230.347,131.047,227.924,131.316L225.499,131.562L223.049,131.816L221.186,132L221.186,135C219.299,138.114,217.541,139.612,214.186,141L213.049,139.379C212.506,138.22,212.221,137.61,212.185,136.987C212.146,136.295,212.414,135.586,212.979,134.09L214.374,130.938C215.909,127.358,217.198,124.547,220.186,122C221.01,122.412,221.495,122.654,222.008,122.788C222.739,122.979,223.529,122.95,225.444,122.879L229.311,122.562C231.603,122.38,233.895,122.194,236.186,122L232.186,118C229.269,119.945,227.561,120.453,224.186,121L223.186,118L221.186,118L221.186,116L222.542,114.668C226.312,111.621,229.811,108.478,233.186,105C229.982,105,228.092,104.257,225.186,103ZM18.6862,102.125L19.1862,99L21.1862,99C23.861,100.553,25.2125,102.039,26.9362,104.625C29.3636,111.179,28.5061,116.529,26.1862,123C22.563,132.878,21.9294,141.616,22.1237,152.125L22.2463,155.719L22.3386,159.133C22.5275,163.766,21.8537,166.182,19.1862,170C16.2366,168.902,16.2366,168.902,13.1862,167C10.3874,162.75,9.8587,159.367,9.92255,154.43L9.99872,152.125C10.0253,150.586,10.0526,149.047,10.0807,147.508L10.1862,144L4.18622,147C2.04043,145.441,2.04043,145.441,0.186218,143C-0.391968,138.049,0.331932,134.986,2.9809,130.762C3.80515,129.514,4.61393,128.256,5.40912,126.99L6.65887,124.992C11.2014,117.843,16.6063,110.401,18.6862,102.125ZM506.624,112.438C507.181,108.996,507.519,105.89,509.659,103.035C510.389,102.439,510.763,102.133,511.19,101.999C511.639,101.858,512.146,101.904,513.186,102C513.657,104.085,513.893,105.134,513.889,106.183C513.884,107.244,513.632,108.304,513.124,110.438L513.092,110.575C512.431,113.45,511.994,115.349,512.842,118.223C514.56,120.494,514.56,120.494,518.749,122C521.173,122.792,521.173,122.792,523.186,124C524.027,126.046,524.027,126.046,524.186,128C522.284,128.442,520.382,128.891,518.491,129.379L516.186,130C513.353,130.745,510.699,131.467,508.186,133C506.686,136.188,506.686,136.188,506.186,139C511.5,136.91,515.474,135.389,521.186,137C522.154,140.113,522.443,141.48,520.971,144.457L519.249,146.812L517.534,149.207L516.186,151C518.186,154,518.186,154,520.768,155.027L523.999,155.938L527.499,156.949C529.985,157.658,532.464,158.39,534.936,159.145C537.223,159.854,539.511,160.561,541.799,161.266L544.186,162L545.186,167C536.096,167,526.082,163.474,518.202,159.148C516.228,158.024,514.224,157.001,512.186,156C510.501,157.544,508.793,159.049,507.049,160.527C503.309,163.483,501.145,164.094,496.374,163.625L493.186,163C492.919,164.985,492.919,164.985,492.186,167L489.186,168C486.396,165.088,485.235,162.083,484.866,158.055C485.737,154.996,485.737,154.996,488.186,152.812C492.859,148.788,492.859,148.788,499.186,136L495.936,138C492.876,139.883,492.053,140,488.186,140C486.188,135.879,486.008,132.548,486.186,128L489.186,127C489.753,122.96,489.753,122.96,491.319,119.137L492.186,116.875C493.183,114.249,494.182,111.624,495.186,109L497.186,109C499.534,111.342,500.156,112.685,500.479,116.016L500.374,119.25L500.292,122.516L500.186,125L503.186,124C505.153,121.151,505.153,121.151,506.624,112.438ZM339.186,109C340.397,106.427,340.397,106.427,342.186,104L346.186,104C347.186,107,347.186,107,349.249,109.688L351.186,112L348.186,116L346.499,115.875C342.211,113.26,342.211,113.26,339.186,109ZM99.6706,107.723L100.186,106L102.186,106C103.979,111.062,105.118,115.806,103.186,121L100.643,123.508C99.5449,124.767,98.8458,125.568,98.4091,126.493C97.6443,128.114,97.6846,130.115,97.7956,135.619C97.8888,137.736,97.9671,139.853,98.03,141.971L98.1081,145.082C98.2083,148.863,98.1227,152.502,97.7018,156.262L97.1862,160L99.1862,161L99.1862,165C96.789,165.68,96.789,165.68,94.1862,166L92.1862,164C91.8294,159.337,91.9977,154.671,92.1862,150C92.9081,144.947,93.115,141.057,92.1862,136L89.1862,136L86.7487,138.5C85.565,139.937,84.9548,140.678,84.1717,141.006C83.3386,141.356,82.3097,141.24,80.1862,141L81.5534,134.945C82.4471,132.198,83.7985,131.205,86.3112,129.875L88.1862,129C88.1862,125.894,88.7256,124.647,90.1862,122L93.1862,122C96.0531,117.354,98.0355,112.932,99.6706,107.723ZM331.186,113C331.186,110.379,331.499,108.491,332.186,106C334.517,106.875,334.517,106.875,335.186,109.871C336.139,113.269,337.072,116.652,338.186,120C340.186,122,340.186,122,343.499,122.5C346.771,122.944,349.206,123.645,352.186,125L352.186,127L342.186,131L342.186,136C344.186,135,344.186,135,345.811,132.438L347.186,130L350.186,131C349.976,133.315,349.976,133.315,349.186,136C346.999,138.25,346.999,138.25,345.186,141C345.435,144.135,346.223,147.014,347.186,150L349.186,150C349.575,144.251,349.57,138.232,352.186,133C354.216,132.319,354.216,132.319,356.186,132C356.207,136.012,356.224,140.025,356.235,144.037C356.239,145.671,356.244,147.304,356.249,148.938C356.261,151.352,356.274,153.767,356.28,156.182L356.284,158.465C356.294,159.898,356.3,161.332,356.3,162.765C356.459,164.654,356.52,165.388,356.23,165.935C356.046,166.283,355.72,166.555,355.186,167C354.055,167.024,353.452,167.037,352.869,166.937C352.202,166.823,351.561,166.561,350.186,166C345.318,159.986,343.052,153.191,341.518,145.723L341.186,144L334.186,146L336.249,144C337.191,142.542,337.765,141.652,338.028,140.679C338.438,139.156,338.087,137.429,337.186,133L334.733,134.957C331.808,138.451,331.585,140.01,331.44,144.385C331.439,145.19,331.461,146.023,331.483,146.868C331.575,150.337,331.672,154.028,330.186,157C329.163,157.076,328.657,157.114,328.187,157C327.727,156.889,327.302,156.633,326.46,156.125L321.186,153L321.186,149C323.186,146,323.186,146,324.257,143.957L325.311,141.812C325.938,140.543,326.564,139.272,327.186,138L324.991,139.277L322.061,140.938C318.054,143.234,314.784,144.461,310.186,145L308.186,140C311.335,137.376,314.412,134.692,317.467,131.961L319.686,129.875L321.78,127.93C322.534,126.894,322.884,126.415,323.008,125.882C323.115,125.422,323.054,124.923,322.94,123.992C321.719,119.577,321.719,119.577,321.186,115C324.255,113.883,324.255,113.883,327.874,113.438L331.186,113ZM556.186,111L551.186,107C552.898,106.981,554.611,106.963,556.323,106.951L558.436,106.938C558.717,106.934,558.997,106.93,559.277,106.926C562.995,106.874,566.589,106.823,570.186,108L570.436,110.312C570.442,111.726,570.445,112.418,570.188,112.995C569.941,113.55,569.454,113.997,568.499,114.875C567.363,115.562,566.794,115.905,566.186,116C565.575,116.095,564.926,115.939,563.624,115.625L561.186,115C555.554,116.877,555.554,116.877,546.186,128L548.186,128C553.425,124.934,557.286,124.646,563.186,125C563.766,127.465,564.231,129.671,565.186,132C567.81,134.962,569.099,136.529,569.831,140.48L569.999,144.188C570.027,144.692,570.062,145.179,570.096,145.653C570.286,148.273,570.446,150.481,569.186,153L566.186,153L564.374,152.312C563.367,152.169,562.705,152.074,562.059,152.137C560.819,152.258,559.636,152.958,556.186,155C552.77,157.833,550.659,159.489,546.186,160C542.918,154.772,542.923,151.83,544.186,146C546.186,144,546.186,144,547.257,142.055L548.311,139.875C548.94,138.585,549.566,137.294,550.186,136C545.582,136.321,542.797,135.992,539.186,133C538.3,130.409,538.3,130.409,538.186,128L541.186,127C544.104,123.081,544.104,123.081,548.124,120.125C551.523,117.445,554.636,115.193,556.186,111ZM286.186,113L284.186,109C289.311,106.072,292.401,106.81,297.186,110L296.186,116L295.581,119.508L294.999,123.125C294.936,123.499,294.873,123.861,294.812,124.213C294.3,127.138,293.913,129.356,295.159,132.289C295.773,133.111,296.092,133.537,296.188,134.009C296.292,134.519,296.136,135.081,295.811,136.25L295.186,138L299.186,139L299.186,143C297.186,144,297.186,144,295.561,145.062C295.031,145.81,294.661,146.33,294.415,146.903C293.852,148.212,293.93,149.796,294.186,155C305.398,156.384,305.398,156.384,316.186,160L316.186,162L314.561,163.625C309.992,164.571,307.65,165.056,305.321,165.002C302.873,164.947,300.439,164.297,295.448,162.965C293.432,162.542,291.417,162.121,289.398,161.714L287.378,161.309L283.514,160.508C279.863,159.754,277.829,159.643,275.186,157C276.067,153.249,276.629,151.422,279.753,149.059C282.692,147.468,285.502,145.995,288.186,144C289.026,141.285,289.026,141.285,289.186,139L287.139,139.621L284.436,140.438C281.367,141.366,278.304,142.25,275.186,143L275.186,140C278.122,136.874,278.122,136.874,282.374,135.812L286.186,135L286.186,132C283.093,132.994,281.283,132.878,278.186,132L278.038,129.516L277.811,126.25C277.603,123.062,277.423,120.545,276.147,117.609L275.186,116C276.315,115.921,276.907,115.879,277.499,115.875C278.154,115.871,278.808,115.912,280.186,116C281.623,116.958,282.448,117.508,283.356,117.805C284.581,118.205,285.956,118.144,289.186,118L289.186,113L286.186,113ZM528.186,115C526.641,112.681,525.39,110.494,524.186,108L526.561,107.875C527.925,107.796,528.622,107.755,529.193,108.003C529.788,108.261,530.248,108.833,531.186,110C531.272,111.335,531.314,111.98,531.311,112.625C531.309,113.228,531.267,113.832,531.186,115L528.186,115ZM585.561,120.188C585.848,116.507,586.078,115.162,588.186,112C589.521,111.871,590.166,111.808,590.811,111.812C591.414,111.816,592.018,111.879,593.186,112L593.186,114L591.186,115C590.561,117.562,590.561,117.562,590.186,120L593.186,122L593.186,125C595.373,124.965,597.476,125.094,599.651,125.332C604.073,126.497,607.524,129.315,610.186,133C610.677,136.031,610.61,137.398,608.831,139.926C607.186,142,607.186,142,606.01,144.918C604.162,150.236,602.274,155.294,599.249,160.062C595.783,164.872,592.588,167.579,586.624,168.625C582.966,167.96,582.528,167.696,580.311,165L578.186,162L574.186,162L571.186,168L569.186,166C569.542,163.022,569.542,163.022,570.078,160.895L570.624,158.812C572.518,151.356,575.378,144.594,578.796,137.719L580.186,135C578.166,134.399,576.165,133.726,574.186,133C572.766,130.999,572.766,130.999,572.186,129C577.033,128.409,580.794,127.021,585.186,125L585.335,122.918L585.561,120.188ZM671.186,115L667.186,114C670.675,112.075,672.781,111.079,676.362,113.426C677.484,115.54,678.05,116.606,678.319,117.743C678.592,118.898,678.557,120.126,678.487,122.603C678.41,124.35,678.352,126.098,678.311,127.847L678.26,130.559C678.17,134.884,678.278,139.159,678.535,143.478L678.686,145.75C678.844,148.167,679.011,150.584,679.186,153L681.014,153.359L683.436,153.75C686.555,154.3,687.708,154.306,690.409,152.578C692.565,149.451,692.852,147.171,693.2,143.445C693.316,141.814,693.443,140.184,693.583,138.555L693.792,136.188C694.005,133.35,694.435,130.747,695.186,128L696.186,130L698.186,129L700.186,130L700.038,132.152L699.811,134.938C699.654,137.644,699.654,137.644,699.186,140L697.186,141L698.186,145L701.186,145C702.426,147.377,703.407,149.451,704.186,152C704.708,157.003,705.027,160.739,702.186,165C700.131,165.213,699.277,165.302,698.421,165.328C697.813,165.347,697.204,165.334,696.163,165.312L693.811,165.25C690.93,165.231,688.059,165.233,685.186,165C678.725,163.605,673.658,160.257,669.624,155C663.752,144.357,667.604,128.283,670.565,117.105L671.186,115ZM452.186,117L452.186,115L459.186,115L459.186,124C461.324,123.299,462.406,122.943,463.516,122.814C464.655,122.681,465.821,122.787,468.186,123C472.519,124.471,474.746,126.298,477.186,130.188C479.559,139.233,476.25,147.818,472.186,156C469.342,159.334,467.57,160.513,463.186,161L461.561,157.75C460.775,156.164,459.983,154.581,459.186,153L457.549,149.902L455.874,146.688L454.26,143.637C453.57,142.339,453.215,141.671,453.186,140.989C453.155,140.265,453.492,139.525,454.186,138C458.902,137.075,461.859,136.771,466.186,139L466.186,142L455.186,140C456.448,143.787,456.448,143.787,462.186,147L465.186,146C468.087,140.446,468.698,134.149,469.186,128L455.186,130C452.882,126.543,452.928,125.051,453.186,121L454.186,119C450.24,120.315,448.885,121.989,446.546,125.375L444.936,128L443.296,130.625C442.787,131.715,442.511,132.304,442.459,132.913C442.397,133.632,442.645,134.377,443.186,136C445.44,141.922,446.533,146.641,446.186,153L444.499,154.188C443.35,154.736,442.758,155.018,442.176,155C441.555,154.98,440.945,154.62,439.686,153.875C436.638,151.589,434.253,150.144,433.077,146.885C433.072,146.195,433.067,145.504,433.061,144.812L433.04,143.381C433.851,140.454,435.251,138.271,437.092,135.539L438.186,134L436.186,134C439.186,132,439.186,132,440.163,130.164C441.157,127.908,441.157,127.908,442.772,125.711L444.561,123.375C446.408,120.927,447.744,119.253,450.413,117.727L452.186,117ZM433.04,143.381L433.01,141.326L432.991,137.957L432.959,134.863C433.2,131.828,433.805,129.705,435.186,127C437.569,125.418,437.569,125.418,440.311,124.188L443.069,122.918L445.186,122L444.186,119C438.998,117.902,437.261,117.764,433.186,121C430.221,121.857,427.222,122.449,424.186,123L424.186,125L429.186,127L429.003,128.73C428.823,130.464,428.652,132.199,428.487,133.934C428.277,136.074,428.043,138.212,427.792,140.348C427.262,144.551,427,146.624,427.319,148.604C427.629,150.531,428.489,152.371,430.186,156L433.186,157L433.154,154.784C433.121,152.151,433.098,149.519,433.077,146.885C432.897,146.386,432.745,145.844,432.624,145.25C432.738,144.59,432.877,143.971,433.04,143.381ZM122.186,117C125.832,118.094,126.797,118.176,130.374,116.562C134.695,114.162,138.174,115.308,142.186,118C146.807,125.265,146.807,125.265,146.942,134.236L146.999,138.062C147.027,139.01,147.063,139.958,147.098,140.906C147.272,145.537,147.445,150.17,146.794,154.767C144.292,159.626,144.292,159.626,139.624,162.812C138.436,163.56,137.816,163.949,137.169,164.002C136.464,164.059,135.727,163.716,134.186,163L134.186,161C129.664,158.78,129.664,158.78,126.186,155C129.305,153.488,131.355,152.997,134.87,152.938L138.186,153C138.205,150.863,138.223,148.725,138.235,146.588L138.249,143.938C138.328,135.904,137.981,128.638,135.186,121C132.312,122.09,131.285,122.843,129.624,125.5C128.287,128.254,128.287,128.254,125.186,130C119.538,126.109,117.826,122.601,116.186,116C118.187,116.326,120.187,116.661,122.186,117ZM366.186,136C371.362,131.203,371.362,131.203,375.186,118L373.186,118L373.186,116L377.186,116C379.601,117.413,379.601,117.413,381.186,120C382.376,126.059,380.773,129.123,377.624,134.375C376.427,136.218,375.267,138.087,374.186,140C374.773,141.798,375.069,142.705,375.206,143.635C375.346,144.581,375.322,145.551,375.274,147.508L375.249,149.625C375.233,152.083,375.213,154.542,375.186,157L371.186,158C369.586,154.8,369.049,152.219,369.061,148.688L369.186,145C367.929,146.429,367.929,146.429,364.186,147L361.186,138C363.374,137.375,363.374,137.375,366.186,136ZM410.186,119L399.186,121L399.186,119C404.155,116.416,406.96,115.03,412.186,118C415.088,122.374,415.534,125.97,415.552,131.058L415.514,133.738C415.51,135.628,415.505,137.518,415.499,139.408C415.467,142.376,415.436,145.342,415.426,148.31C415.423,150.256,415.416,152.202,415.407,154.148L415.389,156.926C415.386,157.6,415.433,158.374,415.482,159.193C415.651,162,415.852,165.334,414.186,167C410.83,166.315,408.145,165.6,405.233,163.777C400.795,160.281,399.185,157.546,398.186,152L407.186,152C407.141,148.992,407.099,146.006,407.186,143C407.86,139.633,408.229,136.684,408.186,133.25C408.149,131.834,408.139,130.416,408.186,129C409.311,127.875,409.311,127.875,410.186,119ZM179.186,120L180.186,117L184.186,117L186.186,119L185.811,122.625L185.186,126C188.055,125.357,190.288,124.885,193.186,125C197.791,127.867,200.5,130.847,202.186,136C203.132,143.961,202.371,152.009,198.186,159C194.704,161.534,192.494,162.369,188.186,162C187.521,160.333,186.854,158.666,186.186,157C184.039,151.708,181.907,146.45,180.186,141C181.881,139.332,181.881,139.332,184.186,138C186.885,138.222,186.885,138.222,189.186,139L190.186,145L184.186,144L184.186,146C186.148,147.389,188.148,148.726,190.186,150C193.51,144.317,194.727,139.784,195.206,133.223C195.186,131,195.186,131,194.186,130L191.464,130.34L188.124,130.938L184.776,131.527L182.186,132C180.908,130.438,180.373,129.785,180.194,129.047C180.065,128.517,180.118,127.943,180.21,126.957L181.186,121L175.186,126L174.186,124C175.549,121.96,175.549,121.96,177.186,120L179.186,120ZM385.186,124L386.186,119L389.499,119.188C393.286,119.63,393.286,119.63,395.186,122.375C395.831,123.666,396.165,124.334,396.187,125.011C396.21,125.737,395.877,126.474,395.186,128L389.186,127L389.186,125L385.186,124ZM654.186,125L652.186,125L655.186,120L660.186,122C661.141,130.167,661.25,137.986,660.59,146.183L660.311,149.312C659.935,153.544,660.107,158.159,658.186,162L655.186,163C651.131,156.918,649.569,149.254,650.186,142C651.299,139.773,651.299,139.773,652.341,134.492L652.749,132.375C653.231,129.917,653.711,127.459,654.186,125ZM287.186,122L283.186,121L283.124,123.938C283.186,127,283.186,127,284.186,128L288.186,126L287.186,122ZM166.186,125L167.186,122L173.186,122L174.186,124C169.277,127.905,164.743,131.087,163.507,137.559L163.311,141.438C163.057,145.494,163.017,148.462,164.241,152.348L165.186,155L164.186,157L162.499,156.875C158.99,155.547,156.857,153.284,155.186,150C155.186,145.542,155.948,142.31,157.686,138.25C158.837,135.757,159.653,133.664,160.186,131L156.186,130L156.186,128L158.339,127.449L161.124,126.688C163.901,125.949,163.901,125.949,166.186,125ZM325.186,125C327.186,127,327.186,127,327.311,130.625L327.186,134C325.732,134.697,324.273,135.382,322.811,136.062L320.35,137.223L318.186,138L316.186,137C317.498,135.187,318.81,133.374,320.124,131.562L322.339,128.504C324.186,126,324.186,126,325.186,125ZM172.163,127.898L173.186,126L174.186,126C172.586,131.488,171.395,136.107,173.624,141.438C175.083,144.766,175.42,146.366,175.436,149.875C175.429,150.24,175.432,150.585,175.436,150.913C175.452,152.51,175.465,153.721,174.186,155C170.118,153.151,167.177,151.336,164.186,148L167.186,138L166.186,137C168.186,135,168.186,135,169.475,132.836L170.811,130.375L172.163,127.898ZM330.186,126L336.186,127L335.186,130C333.124,130.688,333.124,130.688,331.186,131L330.186,126ZM50.428,131.067C50.4212,130.307,50.6739,129.545,51.1862,128C54.146,128.4,54.146,128.4,57.1862,130C60.3706,136.08,60.5511,141.616,60.5475,148.412L60.4987,152.188C60.5016,153.302,60.5319,154.431,60.5624,155.565C60.7054,160.878,60.8515,166.31,58.1862,171C56.1452,171.887,56.1452,171.887,54.1862,172C52.9519,170.489,51.7158,168.979,50.4714,167.477L48.9362,165.625C46.0413,162.069,43.6515,158.595,39.1862,157C38.3893,159.909,38.3893,159.909,36.9362,161.688C35.4003,162.496,34.6205,162.907,33.7915,163.076C32.9365,163.25,32.0292,163.168,30.1862,163C28.0361,156.684,27.0354,150.452,29.1862,144C30.6043,143.878,31.3328,143.816,32.0616,143.812C32.8316,143.809,33.602,143.871,35.1862,144L37.1862,147L36.3112,150.188L35.1862,153C37.1384,151.048,38.7182,150.152,41.1862,149L43.1862,152C43.9987,154.125,43.9987,154.125,45.1862,156C47.8112,156.75,47.8112,156.75,50.1862,157C51.4298,149.383,51.5063,141.702,51.1862,134C50.6874,132.544,50.4347,131.807,50.428,131.067ZM383.186,148C382.965,141.902,383.175,136.784,385.186,131L386.186,131C386.757,137.231,387.043,140.348,387.168,143.472C387.293,146.598,387.257,149.731,387.186,156C385.197,155.214,385.197,155.214,383.186,154C381.894,150.958,381.894,150.958,381.186,148L383.186,148ZM597.186,133C597.033,141.877,593.339,148.377,589.186,156C585.533,154.75,584.406,154.329,582.186,151C583.501,148.322,584.831,145.657,586.186,143L587.46,140.5L588.749,138.063L589.94,135.785C591.885,132.999,593.838,133,597.068,133L597.186,133ZM107.124,144.375C107.139,140.917,107.157,137.458,107.186,134C109.731,135.145,109.731,135.145,112.186,137C114.347,143.625,113.008,150.465,111.186,157L108.186,157C107.609,156.014,107.324,155.527,107.187,155.001C107.052,154.487,107.059,153.936,107.073,152.845L107.089,150.211L107.098,147.359L107.124,144.375ZM561.186,137L559.186,136C558.186,137,558.186,137,557.214,139.066L556.124,141.562C555.476,143.041,554.829,144.52,554.186,146L560.186,144L561.186,137ZM441.186,138L440.186,138C439.061,139.125,439.061,139.125,438.186,146L441.186,147L441.186,138ZM516.186,138L517.186,141C512.866,145.68,512.866,145.68,510.061,147C508.186,147,508.186,147,506.436,145.688C505.186,144,505.186,144,505.186,142L516.186,138ZM259.776,144.174L262.061,143.438C262.724,143.218,263.385,142.966,264.044,142.715C266.771,141.674,269.471,140.643,272.186,142L272.186,145C266.521,148.089,261.678,150.577,255.186,151L254.186,146C256.048,145.387,257.911,144.776,259.776,144.174ZM241.186,147L242.186,142L240.186,142C239.061,143.125,239.061,143.125,237.186,147L241.186,147ZM67.1237,144.688L66.1862,143C69.2123,142.624,70.7798,142.43,72.2325,142.752C73.7937,143.098,75.2223,144.042,78.1862,146C81.6461,148.865,83.1107,151.232,83.5612,155.812C83.5369,158.856,83.5369,158.856,82.1862,160C78.7346,160.199,75.6938,160.11,72.3112,159.375C69.8876,158.144,69.8876,158.144,69.4362,155.188C69.141,151.424,68.7056,148.13,67.1237,144.688ZM502.186,145C505.347,146.37,506.179,146.989,508.186,150C499.924,157.667,499.924,157.667,495.186,159L496.999,155.938C499.033,152.39,500.642,148.784,502.186,145ZM231.186,149L234.186,150C234.874,152.062,234.874,152.062,235.186,154C232.648,155.813,231.606,156.558,230.46,156.784C229.662,156.942,228.814,156.847,227.374,156.688L225.186,156L226.186,153L228.186,153L229.186,150L231.186,149Z" fill-rule="evenodd" fill="#000000" fill-opacity="1"/></g></svg>