<svg xmlns="http://www.w3.org/2000/svg" xmlns:xlink="http://www.w3.org/1999/xlink" fill="none" version="1.1" width="788.511962890625" height="648.270263671875" viewBox="0 0 788.511962890625 648.270263671875"><g><g><path d="M400.478,327.269L487.929,567.278L545.376,567.278L438.209,273.269L188.409,273.302L101.068,513.269L54,513.269L54,54L173.982,54L200.39,126.556L257.911,126.556L211.903,0L0,0L0,567.279L138.901,567.266L226.29,327.269L400.478,327.269Z" fill-rule="evenodd" fill="#FFFFFF" fill-opacity="1"/></g><g><path d="M788.512,648.27L788.512,72.5563L325.948,72.5564L299.54,0L242.016,0L288.079,126.556L734.512,126.556L734.512,594.27L0,594.27L0,648.27L788.512,648.27Z" fill-rule="evenodd" fill="#FFFFFF" fill-opacity="1"/></g><g><path d="M451.2277934570312,567.27804296875L431.57379345703123,513.27804296875L288.37849345703125,513.27804296875L264.35329345703127,447.26904296875L407.5477934570313,447.26904296875L387.89279345703125,393.26904296875L234.97769345703125,393.26904296875L210.50079345703125,457.35634296875L250.48729345703126,567.27804296875L451.2277934570312,567.27804296875Z" fill-rule="evenodd" fill="#FFFFFF" fill-opacity="1"/></g><g><path d="M492.12307529296874,328.67529296875L471.72967529296875,272.67529296875L616.6286752929688,272.67529296875L637.0226752929688,328.67529296875L492.12307529296874,328.67529296875ZM535.8232752929688,448.67529296875L515.4298752929687,392.67529296875L660.3296752929688,392.67529296875L680.7226752929687,448.67529296875L535.8232752929688,448.67529296875Z" fill-rule="evenodd" fill="#FFFFFF" fill-opacity="1"/></g></g></svg>