<svg xmlns="http://www.w3.org/2000/svg" xmlns:xlink="http://www.w3.org/1999/xlink" fill="none" version="1.1" width="1997.904296875" height="270.81591796875" viewBox="0 0 1997.904296875 270.81591796875"><g><g><path d="M1220.01623046875,62.495958984375Q1220.30433046875,62.207858984375,1220.88023046875,62.783858984375L1234.70423046875,84.671758984375Q1235.28043046875,84.959858984375,1234.41613046875,85.535758984375L1172.20813046875,126.432458984375Q1171.63223046875,126.719458984375,1171.05623046875,126.143458984375L1157.23229976875,104.256458984375Q1156.94421346875,103.967458984375,1157.52014146875,103.392458984375L1220.01623046875,62.495958984375ZM1191.50423046875,1.1519819843749999Q1192.08023046875,0.863896984375,1192.65633046875,1.439828984375L1215.98423046875,48.383958984375Q1216.56023046875,48.959858984375,1215.69643046875,49.535758984375L1191.50423046875,61.055758984375Q1190.92833046875,61.343858984375,1190.35213046875,60.767958984375L1167.02429046875,13.823858984375Q1166.44836046875,13.247958984375,1167.31213046875,12.671758984375L1191.50423046875,1.1519819843749999ZM1273.00823046875,2.015998984375Q1273.87223046875,2.015998984375,1273.87223046875,2.591918984375L1273.87223046875,15.551858984375L1411.53623046875,15.551858984375Q1411.82423046875,15.551858984375,1411.9682304687499,15.695958984375Q1412.11223046875,15.839958984375,1412.11223046875,16.127858984375003L1412.11223046875,60.767958984375Q1412.11223046875,61.343858984375,1411.53623046875,61.343858984375L1385.04023046875,61.343858984375Q1384.46423046875,61.343858984375,1384.46423046875,60.767958984375L1384.46423046875,41.471758984375L1246.80043046875,41.471758984375Q1246.22423046875,41.471758984375,1246.08023046875,41.327958984375Q1245.93613046875,41.183958984375,1245.93613046875,40.895858984375L1245.93613046875,2.591918984375Q1245.93613046875,2.015998984375,1246.80043046875,2.015998984375L1273.00823046875,2.015998984375ZM1337.52023046875,57.311858984375Q1338.09623046875,57.311858984375,1338.24023046875,57.455958984375Q1338.38423046875,57.599958984375,1338.38423046875,57.887858984375Q1338.67223046875,73.151958984375,1357.68023046875,84.527958984375Q1376.68823046875,95.903958984375,1417.8722304687499,102.815458984375Q1419.02423046875,102.815458984375,1418.73623046875,103.679458984375L1414.70423046875,128.447458984375Q1414.41623046875,129.023458984375,1414.27223046875,129.167458984375Q1414.12823046875,129.311458984375,1413.84023046875,129.311458984375Q1380.72023046875,123.840458984375,1357.24823046875,113.615458984375Q1333.7762304687499,103.392458984375,1321.82423046875,89.135858984375Q1309.8722304687499,74.879758984375,1309.58423046875,58.175858984375Q1309.58423046875,57.887858984375,1309.72823046875,57.599958984375Q1309.8722304687499,57.311858984375,1310.44823046875,57.311858984375L1337.52023046875,57.311858984375ZM1309.58423046875,49.247958984375Q1309.58423046875,48.671758984375,1310.44823046875,48.671758984375L1337.52023046875,48.671758984375Q1338.09623046875,48.671758984375,1338.24023046875,48.815758984375Q1338.38423046875,48.959858984375,1338.38423046875,49.247958984375L1338.38423046875,57.311858984375Q1338.38423046875,74.303858984375,1326.43223046875,88.415858984375Q1314.48023046875,102.528458984375,1291.58423046875,113.039458984375Q1268.68823046875,123.551458984375,1236.43223046875,129.023458984375Q1235.56823046875,129.023458984375,1235.28043046875,128.159458984375L1231.24813046875,103.392458984375Q1230.96013046875,102.815458984375,1231.24813046875,102.671458984375Q1231.53623046875,102.528458984375,1231.82433046875,102.528458984375Q1259.18423046875,97.919758984375,1276.32023046875,91.151958984375Q1293.45623046875,84.383958984375,1301.52023046875,75.743758984375Q1309.58423046875,67.103858984375,1309.58423046875,57.311858984375L1309.58423046875,49.247958984375ZM1393.68023046875,134.207458984375Q1393.9682304687499,134.207458984375,1394.11223046875,134.496458984375Q1394.25623046875,134.783458984375,1394.25623046875,135.071458984375L1394.25623046875,215.423458984375Q1394.25623046875,216.288458984375,1393.68023046875,216.288458984375L1365.74423046875,216.288458984375Q1365.16823046875,216.288458984375,1365.16823046875,215.423458984375L1365.16823046875,161.279458984375L1214.83213046875,161.279458984375L1214.83213046875,217.727458984375Q1214.83213046875,218.303458984375,1214.25623046875,218.303458984375L1186.32023046875,218.303458984375Q1185.74423046875,218.303458984375,1185.74423046875,217.727458984375L1185.74423046875,135.071458984375Q1185.74423046875,134.783458984375,1185.88833046875,134.496458984375Q1186.03233046875,134.207458984375,1186.32023046875,134.207458984375L1393.68023046875,134.207458984375ZM1417.00823046875,243.647458984375Q1417.8722304687499,244.224458984375,1417.5842304687499,244.799458984375L1410.09623046875,269.567458984375Q1409.80823046875,270.431458984375,1409.23223046875,270.143458984375L1299.79223046875,235.583458984375Q1298.92823046875,235.007458984375,1299.21623046875,234.719458984375L1306.70423046875,209.663458984375Q1307.28023046875,209.087458984375,1307.56823046875,209.375458984375L1417.00823046875,243.647458984375ZM1275.31223046875,172.799458984375Q1275.31223046875,172.511458984375,1275.60023046875,172.224458984375Q1275.88823046875,171.935458984375,1276.17623046875,171.935458984375L1303.82423046875,171.935458984375Q1304.68823046875,171.935458984375,1304.68823046875,172.511458984375Q1304.4002304687501,213.407458984375,1268.25623046875,237.455458984375Q1232.11243046875,261.503458984375,1169.32823046875,270.719458984375Q1168.46423046875,270.719458984375,1168.46423046875,270.143458984375L1164.43225046875,244.224458984375Q1164.43225046875,243.647458984375,1165.29626046875,243.359458984375Q1220.59243046875,235.871458984375,1247.95223046875,218.879458984375Q1275.31223046875,201.887458984375,1275.31223046875,172.799458984375ZM1564.17623046875,61.055758984375Q1564.17623046875,60.479858984375,1565.04023046875,60.479858984375L1704.7202304687498,60.479858984375Q1705.2962304687499,60.479858984375,1705.2962304687499,61.055758984375L1705.2962304687499,180.863458984375Q1705.2962304687499,181.727458984375,1704.7202304687498,181.727458984375L1565.04023046875,181.727458984375Q1564.17623046875,181.727458984375,1564.17623046875,180.863458984375L1564.17623046875,61.055758984375ZM1677.64823046875,86.687858984375L1592.11223046875,86.687858984375L1592.11223046875,155.231458984375L1677.64823046875,155.231458984375L1677.64823046875,86.687858984375ZM1499.66423046875,154.367458984375Q1500.52823046875,154.367458984375,1500.24023046875,155.231458984375Q1486.70423046875,212.256458984375,1466.83223046875,264.383458984375Q1466.25623046875,264.959458984375,1465.9682304687499,264.671458984375L1440.62423046875,255.167458984375Q1439.76023046875,254.591458984375,1440.04823046875,254.016458984375Q1450.12823046875,227.808458984375,1457.90423046875,201.743458984375Q1465.6802304687499,175.679458984375,1472.01623046875,148.895458984375Q1472.3042304687501,148.319458984375,1472.8802304687501,148.031458984375L1499.66423046875,154.367458984375ZM1592.11223046875,194.111458984375Q1592.97623046875,194.111458984375,1592.97623046875,194.687458984375Q1589.52023046875,225.215458984375,1578.00023046875,260.927458984375Q1577.71223046875,261.791458984375,1577.13623046875,261.503458984375L1552.65623046875,253.727458984375Q1552.08023046875,253.439458984375,1552.08023046875,252.863458984375Q1557.26423046875,235.871458984375,1560.72023046875,221.184458984375Q1564.17623046875,206.496458984375,1565.61623046875,192.095458984375Q1565.61623046875,191.231458984375,1566.19223046875,191.231458984375L1592.11223046875,194.111458984375ZM1471.15223046875,74.879758984375Q1471.72823046875,74.303858984375,1472.3042304687501,75.167858984375L1495.34423046875,127.583458984375Q1495.63223046875,127.871458984375,1494.76823046875,128.447458984375L1470.00023046875,139.103458984375Q1469.42423046875,139.392458984375,1468.84823046875,138.815458984375L1446.09623046875,86.399758984375Q1445.80823046875,85.823858984375,1446.38423046875,85.247958984375L1471.15223046875,74.879758984375ZM1647.40823046875,168.479458984375Q1648.27223046875,168.479458984375,1648.27223046875,169.055458984375L1648.27223046875,265.823458984375Q1648.27223046875,266.687458984375,1647.40823046875,266.687458984375L1601.04023046875,266.687458984375Q1600.17623046875,266.687458984375,1600.17623046875,265.823458984375L1600.17623046875,241.055458984375Q1600.17623046875,240.191458984375,1601.04023046875,240.191458984375L1620.33623046875,240.191458984375L1620.33623046875,169.055458984375Q1620.33623046875,168.479458984375,1621.20023046875,168.479458984375L1647.40823046875,168.479458984375ZM1471.15223046875,0.575810984375Q1471.72823046875,-0.0001170156249999943,1472.3042304687501,0.863896984375L1495.34423046875,53.279958984375Q1495.63223046875,53.567758984375,1494.76823046875,54.143958984375L1470.00023046875,64.799958984375Q1469.42423046875,65.087758984375,1468.84823046875,64.511858984375L1446.09623046875,12.095858984375Q1445.80823046875,11.519858984375,1446.38423046875,10.943958984375L1471.15223046875,0.575810984375ZM1698.96023046875,191.519458984375Q1699.53623046875,191.519458984375,1699.53623046875,192.095458984375Q1701.5522304687502,217.727458984375,1713.0722304687501,252.575458984375Q1713.3602304687502,253.151458984375,1712.4962304687501,253.727458984375L1688.01623046875,261.791458984375Q1687.72823046875,262.079458984375,1687.15223046875,261.215458984375Q1681.6802304687499,244.224458984375,1677.79223046875,227.519458984375Q1673.90423046875,210.815458984375,1672.17623046875,194.687458984375Q1672.17623046875,193.823458984375,1673.04023046875,193.823458984375L1698.96023046875,191.519458984375ZM1708.17623046875,10.943958984375Q1709.04023046875,10.943958984375,1709.04023046875,11.807958984375L1709.04023046875,36.575858984375Q1709.04023046875,37.439858984375,1708.17623046875,37.439858984375L1548.33623046875,37.439858984375L1548.33623046875,136.224458984375Q1548.33623046875,171.359458984375,1543.44023046875,204.048458984375Q1538.54423046875,236.736458984375,1527.88823046875,268.415458984375Q1527.60023046875,268.704458984375,1527.45623046875,268.847458984375Q1527.31223046875,268.991458984375,1527.02423046875,268.704458984375L1501.6802304687499,260.927458984375Q1500.81623046875,260.351458984375,1501.10423046875,260.063458984375Q1511.18423046875,230.399458984375,1515.64823046875,200.159458984375Q1520.11223046875,169.919458984375,1520.11223046875,136.224458984375L1520.11223046875,11.807958984375Q1520.11223046875,11.231858984375,1520.25623046875,11.087758984375Q1520.4002304687501,10.943958984375,1520.6882304687501,10.943958984375L1708.17623046875,10.943958984375ZM1690.89623046875,108.288458984375Q1691.47223046875,108.288458984375,1691.47223046875,108.863458984375L1691.47223046875,133.055458984375Q1691.47223046875,133.631458984375,1690.89623046875,133.631458984375L1578.86423046875,133.631458984375Q1578.00023046875,133.631458984375,1578.00023046875,133.055458984375L1578.00023046875,108.863458984375Q1578.00023046875,108.288458984375,1578.86423046875,108.288458984375L1690.89623046875,108.288458984375ZM1647.98423046875,24.191758984375Q1648.56023046875,24.191758984375,1648.56023046875,24.767958984375L1648.56023046875,72.863858984375Q1648.56023046875,73.439858984375,1647.98423046875,73.439858984375L1621.4882304687499,73.439858984375Q1620.91223046875,73.439858984375,1620.91223046875,72.863858984375L1620.91223046875,24.767958984375Q1620.91223046875,24.191758984375,1621.4882304687499,24.191758984375L1647.98423046875,24.191758984375ZM1862.83223046875,124.127458984375Q1862.83223046875,123.551458984375,1862.9762304687501,123.407458984375Q1863.12023046875,123.263458984375,1863.69623046875,123.263458984375L1992.7202304687498,123.263458984375Q1993.0082304687498,123.263458984375,1993.15223046875,123.407458984375Q1993.2962304687499,123.551458984375,1993.2962304687499,124.127458984375L1993.2962304687499,262.079458984375Q1993.2962304687499,262.655458984375,1993.15223046875,262.799458984375Q1993.0082304687498,262.944458984375,1992.7202304687498,262.944458984375L1863.69623046875,262.944458984375Q1863.12023046875,262.944458984375,1862.9762304687501,262.799458984375Q1862.83223046875,262.655458984375,1862.83223046875,262.079458984375L1862.83223046875,124.127458984375ZM1964.2082304687501,152.063458984375L1891.92023046875,152.063458984375L1891.92023046875,234.143458984375L1964.2082304687501,234.143458984375L1964.2082304687501,152.063458984375ZM1846.41623046875,224.927458984375Q1847.28023046875,224.927458984375,1847.28023046875,225.503458984375L1847.28023046875,253.439458984375Q1847.28023046875,254.016458984375,1846.41623046875,254.016458984375L1735.53623046875,254.016458984375Q1734.96023046875,254.016458984375,1734.96023046875,253.439458984375L1734.96023046875,225.503458984375Q1734.96023046875,224.927458984375,1735.53623046875,224.927458984375L1846.41623046875,224.927458984375ZM1769.80823046875,85.247958984375Q1770.67223046875,85.247958984375,1770.67223046875,85.823858984375L1779.88823046875,206.207458984375Q1779.88823046875,206.783458984375,1779.31223046875,206.783458984375L1753.3922304687499,208.799458984375Q1752.52823046875,208.799458984375,1752.52823046875,207.935458984375L1743.31223046875,87.839958984375Q1743.31223046875,86.975958984375,1743.88823046875,86.975958984375L1769.80823046875,85.247958984375ZM1838.0642304687499,86.975958984375Q1838.64023046875,86.975958984375,1838.64023046875,87.839958984375L1829.42423046875,207.935458984375Q1829.42423046875,208.799458984375,1828.56023046875,208.799458984375L1802.64023046875,206.783458984375Q1802.0642304687499,206.783458984375,1802.0642304687499,206.207458984375L1811.28023046875,85.823858984375Q1811.28023046875,85.247958984375,1812.14423046875,85.247958984375L1838.0642304687499,86.975958984375ZM1842.96023046875,40.031858984375Q1843.53623046875,40.031858984375,1843.53623046875,40.895858984375L1843.53623046875,68.543858984375Q1843.53623046875,69.407858984375,1842.96023046875,69.407858984375L1739.28023046875,69.407858984375Q1738.41623046875,69.407858984375,1738.41623046875,68.543858984375L1738.41623046875,40.895858984375Q1738.41623046875,40.031858984375,1739.28023046875,40.031858984375L1842.96023046875,40.031858984375ZM1805.52023046875,4.319948984374999Q1806.38423046875,4.319948984374999,1806.38423046875,4.895878984375L1806.38423046875,54.143958984375Q1806.38423046875,54.719858984375,1805.52023046875,54.719858984375L1776.43223046875,54.719858984375Q1775.85623046875,54.719858984375,1775.85623046875,54.143958984375L1775.85623046875,4.895878984375Q1775.85623046875,4.319948984374999,1776.43223046875,4.319948984374999L1805.52023046875,4.319948984374999ZM1938.00023046875,4.319948984374999Q1938.86423046875,4.319948984374999,1938.86423046875,4.895878984375L1938.86423046875,137.087458984375Q1938.86423046875,137.663458984375,1938.00023046875,137.663458984375L1910.35223046875,137.663458984375Q1909.4882304687499,137.663458984375,1909.4882304687499,137.087458984375L1909.4882304687499,4.895878984375Q1909.4882304687499,4.319948984374999,1910.35223046875,4.319948984374999L1938.00023046875,4.319948984374999ZM1997.32823046875,44.063858984375Q1997.90423046875,44.063858984375,1997.90423046875,44.639758984375L1997.90423046875,71.711758984375Q1997.90423046875,72.287958984375,1997.32823046875,72.287958984375L1924.75223046875,72.287958984375Q1924.17623046875,72.287958984375,1924.17623046875,71.711758984375L1924.17623046875,44.639758984375Q1924.17623046875,44.063858984375,1924.75223046875,44.063858984375L1997.32823046875,44.063858984375Z" fill="#EC2021" fill-opacity="1"/></g><g><path d="M744.816,0.575928Q744.816,0,744.24,0L716.88,4.03198Q716.362,4.03198,716.258,4.23932Q716.189,4.37754,716.304,4.60791L723.216,49.824Q723.216,50.3999,723.792,50.3999L751.152,46.3679Q751.671,46.3679,751.774,46.1605Q751.843,46.0223,751.728,45.792L744.816,0.575928ZM825.456,4.60791Q825.456,4.03198,824.88,4.03198L797.52,0Q796.656,0,796.656,0.575928L789.744,45.792Q789.744,46.3679,790.32,46.3679L817.68,50.3999Q818.256,50.3999,818.544,49.824L825.456,4.60791ZM970.176,3.6001Q969.744,3.7439,969.744,4.03198Q949.296,33.1201,923.232,57.312Q897.168,81.5039,865.2,100.512Q864.624,101.088,864.912,101.376L878.736,124.992Q879.312,125.568,879.888,125.28Q910.416,107.136,937.056,83.52Q963.696,59.9041,984.72,32.2561L1019.57,32.2561Q1040.3,59.616,1066.8,83.2319Q1093.3,106.848,1124.11,125.28Q1124.69,125.568,1125.26,124.992L1139.09,101.376Q1139.38,101.088,1138.8,100.512Q1106.54,81.2161,1080.62,57.168Q1054.7,33.1201,1034.83,4.32007Q1034.26,3.7439,1033.68,3.45605L970.896,3.45605Q970.608,3.45605,970.176,3.6001ZM486.768,4.60791Q486.768,4.03198,485.904,4.03198L459.12,4.03198Q458.544,4.03198,458.544,4.60791L458.544,37.728L389.136,37.728Q388.56,37.728,388.56,38.304L388.56,64.512Q388.56,65.0879,389.136,65.0879L458.544,65.0879L458.544,238.176L435.504,238.176Q434.928,238.176,434.928,239.04L434.928,265.248Q434.928,266.112,435.504,266.112L485.904,266.112Q486.48,266.112,486.624,265.824Q486.768,265.536,486.768,265.248L486.768,65.0879L553.008,65.0879Q553.296,65.0879,553.584,64.9441Q553.872,64.8,553.872,64.512L553.872,15.552Q553.872,14.9761,553.008,14.9761L527.952,14.9761Q527.376,14.9761,527.376,15.552L527.376,37.728L486.768,37.728L486.768,4.60791ZM199.056,5.18408Q199.056,4.32007,198.192,4.32007L171.408,4.32007Q170.832,4.32007,170.832,5.18408L170.832,73.2072L134.832,88.9152L134.832,24.7681Q134.832,24.1919,134.256,24.1919L107.472,24.1919Q106.608,24.1919,106.608,24.7681L106.608,101.23L77.2322,114.048Q76.6562,114.624,76.9441,115.2L87.8882,140.544Q88.3489,141.005,88.6254,140.913Q88.6945,140.89,88.7522,140.832L106.608,133.029L106.608,262.944Q106.608,263.808,107.472,263.808L272.496,263.808Q273.36,263.808,273.36,262.944L273.36,209.664Q273.36,209.088,272.496,209.088L245.712,209.088Q245.136,209.088,245.136,209.664L245.136,234.432L134.832,234.432L134.832,120.695L170.832,104.962L170.832,199.008Q170.832,199.584,171.408,199.584L198.192,199.584Q199.056,199.584,199.056,199.008L199.056,92.6283L235.056,76.896L235.056,158.112L218.64,158.112Q217.776,158.112,217.776,158.976L217.776,186.624Q217.776,187.488,218.64,187.488L262.704,187.488Q263.28,187.488,263.28,186.624L263.28,33.408Q263.28,33.1201,263.136,32.9761Q262.992,32.832,262.704,33.1201L199.056,60.892L199.056,5.18408ZM62.832,6.0481Q62.832,5.47192,61.9683,5.47192L34.3201,5.47192Q33.4561,5.47192,33.4561,6.0481L33.4561,72.2881L8.97607,72.2881Q8.40015,72.2881,8.40015,72.864L8.40015,100.8Q8.40015,101.376,8.97607,101.376L33.4561,101.376L33.4561,224.886L0.384033,239.316Q-0.191895,239.892,0.0959473,240.468L11.04,265.812Q11.616,266.388,11.9041,266.1L93.7812,230.319L82.1262,203.649L62.832,212.068L62.832,101.376L87.3123,101.376Q88.176,101.376,88.176,100.8L88.176,72.864Q88.176,72.2881,87.3123,72.2881L62.832,72.2881L62.832,6.0481ZM696.72,12.0959Q696.72,11.52,696.144,11.52L580.08,11.52Q579.216,11.52,579.216,12.0959L579.216,39.4561Q579.216,40.3201,580.08,40.3201L591.312,40.3201L591.312,208.8L578.928,208.8Q578.064,208.8,578.064,209.664L578.064,236.736Q578.064,237.6,578.928,237.6L657.84,237.6L657.84,267.552Q657.84,268.128,658.416,268.128L683.76,268.128Q684.624,268.128,684.624,267.552L684.624,40.3201L696.144,40.3201Q696.72,40.3201,696.72,39.4561L696.72,12.0959ZM657.84,40.3201L618.384,40.3201L618.384,80.3521L657.84,80.3521L657.84,40.3201ZM657.84,109.44L618.384,109.44L618.384,139.392L657.84,139.392L657.84,109.44ZM657.84,168.48L618.384,168.48L618.384,208.8L657.84,208.8L657.84,168.48ZM380.208,19.8721Q380.208,19.2959,379.344,19.2959L294.384,19.2959Q293.808,19.2959,293.808,19.8721L293.808,46.9441Q293.808,47.8081,294.384,47.8081L322.32,47.8081L322.32,110.592L297.264,110.592Q296.4,110.592,296.4,111.168L296.4,138.24Q296.4,138.816,297.264,138.816L322.32,138.816L322.32,224.072L287.384,239.316Q286.808,239.892,287.096,240.468L298.04,265.812Q298.616,266.388,298.904,266.1L380.781,230.319L369.126,203.649L351.12,211.506L351.12,138.816L376.752,138.816Q377.328,138.816,377.328,138.24L377.328,111.168Q377.328,110.592,376.752,110.592L351.12,110.592L351.12,47.8081L379.344,47.8081Q380.208,47.8081,380.208,46.9441L380.208,19.8721ZM843.312,54.4321Q843.312,53.856,842.448,53.856L697.584,53.856Q697.008,53.856,697.008,54.4321L697.008,81.5039Q697.008,82.0801,697.584,82.0801L752.88,82.0801L752.88,116.352Q752.88,124.88,752.238,133.056L694.128,133.056Q693.552,133.056,693.552,133.92L693.552,160.704Q693.552,161.28,694.128,161.28L747.862,161.28Q744.211,176.624,737.904,190.512Q722.928,223.488,689.232,246.816Q688.656,247.392,688.944,247.68L704.784,270.432Q704.928,270.72,705.144,270.792Q705.36,270.864,705.648,270.72Q745.68,243.36,763.824,203.04Q770.297,188.655,774.461,173.5Q779.788,193.745,789.456,212.544Q805.008,242.784,832.656,268.992Q833.232,269.568,833.808,268.992L853.392,248.832Q853.68,248.544,853.104,247.968Q828.624,224.64,815.376,199.584Q805.911,181.682,801.444,161.28L846.48,161.28Q847.056,161.28,847.056,160.704L847.056,133.92Q847.056,133.056,846.48,133.056L781.365,133.056Q781.968,124.805,781.968,116.352L781.968,82.0801L842.448,82.0801Q843.312,82.0801,843.312,81.5039L843.312,54.4321ZM420.617,84.684Q420.401,84.5222,419.952,84.6719L394.032,89.28Q393.456,89.5679,393.456,90.144L405.552,151.488Q405.552,151.903,405.751,152.052Q405.967,152.214,406.416,152.064L432.336,147.456Q432.912,147.168,432.912,146.592L420.816,85.248Q420.816,84.8333,420.617,84.684ZM547.536,90.144Q547.536,89.5679,546.96,89.28L521.04,84.6719Q520.591,84.5222,520.375,84.6839Q520.176,84.8332,520.176,85.248L508.08,146.592Q508.08,147.168,508.656,147.456L534.576,152.064Q535.025,152.214,535.241,152.052Q535.44,151.903,535.44,151.488L547.536,90.144ZM1065.36,85.824Q1065.36,85.248,1064.78,85.248L939.216,85.248Q938.64,85.248,938.64,85.824L938.64,112.896Q938.64,113.472,939.216,113.472L1064.78,113.472Q1065.36,113.472,1065.36,112.896L1065.36,85.824ZM902.008,146.16Q901.864,146.304,901.864,146.88L901.864,264.096Q901.864,264.672,902.008,264.816Q902.152,264.96,902.44,264.96L1102.56,264.96Q1102.85,264.96,1102.99,264.816Q1103.14,264.672,1103.14,264.096L1103.14,146.88Q1103.14,146.304,1102.99,146.16Q1102.85,146.016,1102.56,146.016L902.44,146.016Q902.152,146.016,902.008,146.16ZM432.912,174.24Q432.912,173.664,432.336,173.376L406.416,168.768Q406.06,168.649,405.851,168.775Q405.552,168.954,405.552,169.632Q401.52,189.792,395.616,207.504Q389.712,225.216,381.648,241.632Q381.36,242.208,381.936,242.784L405.84,253.44Q405.898,253.498,405.967,253.521Q406.243,253.613,406.704,253.152Q424.272,217.44,432.912,174.24ZM534,169.632Q534,168.768,533.136,168.768L507.216,173.376Q506.64,173.376,506.64,174.24Q510.672,195.552,517.296,215.28Q523.92,235.008,532.848,253.152Q533.309,253.613,533.586,253.521Q533.655,253.498,533.712,253.44L557.616,242.784Q558.192,242.208,557.904,241.632Q549.84,225.504,543.792,207.648Q537.744,189.792,534,169.632ZM930.952,174.816L1074.05,174.816L1074.05,236.16L930.952,236.16L930.952,174.816Z" fill-rule="evenodd" fill="#000000" fill-opacity="1"/></g></g></svg>