<svg width="7492" height="779" xmlns="http://www.w3.org/2000/svg" xmlns:xlink="http://www.w3.org/1999/xlink"
    xml:space="preserve" overflow="hidden">
    <defs>
        <clipPath id="clip0">
            <rect x="822" y="3898" width="7492" height="779" />
        </clipPath>
    </defs>
    <g clip-path="url(#clip0)" transform="translate(-822 -3898)">
        <path
            d="M2544.78 4287.58 2469.8 4417.35 2394.83 4547.13 2544.78 4547.13 2469.8 4417.35 2619.76 4417.35 2694.74 4287.58 2544.78 4287.58ZM5017.39 4287.45 4867.43 4546.93 5017.25 4546.93 5167.23 4287.45 5017.39 4287.45ZM5915.86 4287.24 5765.91 4546.79 5915.72 4546.79 6065.63 4287.24 5915.86 4287.24ZM3968.88 4158.04 4043.85 4287.77 3893.91 4547.25 3968.88 4676.97 3818.95 4676.97 3743.96 4547.27 3893.91 4287.79 3818.94 4287.79 3594.02 4677 3519.05 4547.27 3668.99 4287.79 3594.02 4287.79 3369.11 4676.97 3294.14 4547.25 3444.08 4287.79 3369.11 4158.06 3968.88 4158.04ZM2844.51 4157.95 3294.34 4157.95 3369.36 4287.69 3219.37 4547.12 3294.28 4676.9 3144.34 4676.9 2994.48 4417.43 3144.37 4417.43 3219.34 4287.69 3069.45 4287.69 3069.43 4287.69 2844.51 4676.9 2769.54 4547.17 2919.48 4287.69 2844.51 4157.95ZM4043.5 4157.84 4343.37 4157.84 4118.46 4547.14 4193.43 4676.9 4043.5 4676.9 3968.53 4547.14 4118.46 4287.61 4043.5 4157.84ZM2319.85 4157.8 2769.71 4157.8 2844.69 4287.58 2694.74 4547.13 2769.71 4676.9 2319.85 4676.9 2244.87 4547.13 2394.83 4287.58 2319.85 4157.8ZM4942.42 4157.71 5242.11 4157.71 5317.13 4287.37 5167.23 4546.93 5242.16 4676.66 4792.46 4676.66 4717.45 4546.93 4942.42 4157.71ZM4867.81 4157.71 4642.82 4547 4717.74 4676.81 4567.79 4676.81 4494.09 4549.19 4642.79 4287.54 4492.9 4287.54 4492.87 4287.54 4267.95 4676.81 4192.97 4547.05 4417.93 4157.78 4867.81 4157.71ZM6215.29 4157.47 6665.19 4157.51 6740.2 4287.27 6590.22 4546.75 6665.13 4676.57 6515.2 4676.57 6365.36 4417.04 6515.23 4417.04 6590.19 4287.27 6440.32 4287.27 6440.29 4287.27 6215.41 4676.57 6065.37 4676.57 6290.25 4287.23 6215.29 4157.47ZM5691.01 4157.47 6140.58 4157.47 6215.58 4287.24 5990.67 4676.57 5691.05 4676.57 5616.05 4546.88 5765.91 4287.24 5765.93 4287.2 5691.01 4157.47ZM1796.48 4027.94 1871.47 4157.76 1646.5 4547.19 1571.52 4417.38 1796.48 4027.94ZM1571.52 4027.94 1646.5 4157.76 1421.55 4547.19 1346.56 4417.38 1571.52 4027.94ZM2207.64 3963.2 2357.61 3963.2 2245.22 4157.84 2320.02 4287.61 2170.06 4287.61 2020.27 4547.14 2170.23 4547.14 2245.22 4676.9 1945.29 4676.9 1870.31 4547.14 2020.1 4287.61 1945.11 4157.84 2095.08 4157.84 2207.64 3963.2ZM4305.89 3963.19 4455.83 3963.19 4380.86 4092.96 4230.92 4092.96 4305.89 3963.19ZM5578.93 3962.95 5728.87 3962.95 5616.42 4157.6 5691.22 4287.37 5541.28 4287.37 5391.51 4546.9 5541.45 4546.9 5616.42 4676.66 5316.54 4676.66 5241.57 4546.9 5391.34 4287.37 5316.37 4157.6 5466.31 4157.6 5578.93 3962.95ZM7939.15 3898.33 8014.13 4028.11 7639.23 4676.99 7564.25 4547.22 7939.15 3898.33ZM8239.02 3898.33 8314 4028.11 8314 4028.11 7939.1 4676.99 7864.12 4547.22 8239.02 3898.33ZM822 3898.13 1421.89 3898.13 1496.89 4027.94 1196.94 4547.19 1421.55 4547.19 1646.5 4547.19 1721.49 4677 1121.95 4677 1046.97 4547.19 1346.91 4027.94 1271.92 4027.94 971.969 4547.19 896.985 4417.38 1121.95 4027.94 896.985 4027.94 822 3898.13ZM7264.36 3898.1 7714.27 3898.1 7789.25 4027.88 7639.29 4287.44 7339.37 4287.44 7189.12 4546.49 7489.33 4546.99 7564.31 4676.77 7114.43 4676.77 7039.45 4546.99 7264.39 4157.66 7564.31 4157.66 7639.29 4027.88 7339.36 4027.88 7264.36 3898.1ZM6739.97 3898 7189.85 3898 7264.83 4027.78 7114.87 4287.33 6964.91 4287.33 6739.97 4676.66 6664.99 4546.89 6889.93 4157.55 7039.89 4157.55 7114.87 4027.78 6814.95 4027.78 6739.97 3898Z"
            fill="#000000" fill-rule="evenodd" />
    </g>
</svg>