<svg xmlns="http://www.w3.org/2000/svg" xmlns:xlink="http://www.w3.org/1999/xlink" fill="none" version="1.1" width="101"
    height="39" viewBox="0 0 101 39">
    <g>
        <g>
            <path
                d="M0,13.68734359741211L4.13616,13.68734359741211L4.13616,31.61714359741211C4.13616,33.36464359741211,5.52507,34.781243597412114,7.23828,34.781243597412114L13.4425,34.781243597412114C15.1557,34.781243597412114,16.5446,33.36464359741211,16.5446,31.61714359741211L16.5446,13.68734359741211L20.6808,13.68734359741211L20.6808,31.61714359741211C20.6808,35.69454359741211,17.4402,39.00004359741211,13.4425,39.00004359741211L7.23828,39.00004359741211C3.24063,39.00004359741211,0,35.69454359741211,0,31.61714359741211L0,13.68734359741211Z"
                fill-rule="evenodd" fill="#2A52BE" fill-opacity="1" />
        </g>
        <g transform="matrix(-1,0,0,1,86.83070373535156,0)">
            <path
                d="M56.84275186767578,13.68734359741211L50.06430186767578,13.68734359741211L48.95613186767578,17.90611359741211L56.84275186767578,17.906133597412108C58.555851867675784,17.906133597412108,59.944551867675784,19.32273359741211,59.944551867675784,21.07021359741211L59.944551867675784,31.61714359741211C59.944551867675784,33.36464359741211,58.555851867675784,34.781243597412114,56.84275186767578,34.781243597412114L44.52351186767578,34.781243597412114L43.41535186767578,39.00004359741211L56.84275186767578,39.00004359741211C60.83995186767578,39.00004359741211,64.08025186767578,35.69454359741211,64.08025186767578,31.61714359741211L64.08025186767578,21.07021359741211C64.08025186767578,16.992763597412107,60.83995186767578,13.68734359741211,56.84275186767578,13.68734359741211Z"
                fill-rule="evenodd" fill="#000000" fill-opacity="1" />
        </g>
        <g>
            <path
                d="M28.959489822387695,24.32223129272461L39.5684898223877,24.32223129272461L40.6769898223877,28.54371129272461L28.959489822387695,28.54371129272461L28.959489822387695,24.32223129272461Z"
                fill-rule="evenodd" fill="#2A52BE" fill-opacity="1" />
        </g>
        <g>
            <path
                d="M38.925758361816406,13.68734359741211L43.205838361816404,13.68734359741211L48.57361836181641,34.10044359741211L45.56255836181641,38.98374359741211L38.925758361816406,13.68734359741211Z"
                fill-rule="evenodd" fill="#2A52BE" fill-opacity="1" />
        </g>
        <g>
            <path
                d="M65.26087603759765,13.68734359741211L69.54097603759766,13.68734359741211L62.904076037597655,38.98374359741211L54.23640603759765,24.927243597412108L50.080656037597656,31.66644359741211L48.621376037597656,26.10904359741211L54.20980603759766,17.04878359741211L61.35777603759766,28.55154359741211L65.26087603759765,13.68734359741211Z"
                fill-rule="evenodd" fill="#000000" fill-opacity="1" />
        </g>
        <g>
            <path
                d="M0,0L4.136,0L11.3741,0C15.3625,0.177789,16.6067,4.11627,18.6121,4.19859L35.859,4.19859C39.8563,4.19859,43.0969,7.5019,43.0969,11.5766L38.9609,11.5766C38.9609,9.83037,37.572,8.41455,35.859,8.41455L18.6121,8.41455C14.471,7.9773,14.6947,4.4561,11.3741,4.21596L4.136,4.21596L4.136,11.5766L0,11.5766L0,0Z"
                fill-rule="evenodd" fill="#2A52BE" fill-opacity="1" />
        </g>
        <g>
            <path
                d="M73.64832883544922,13.995837211608887C74.35327883544922,13.995837211608887,74.95667883544922,14.257246211608887,75.45865883544921,14.780059211608886C75.96078883544922,15.302877211608887,76.21169883544921,15.912877211608887,76.21169883544921,16.610067211608886C76.21169883544921,17.307097211608887,75.96078883544922,17.911587211608886,75.45865883544921,18.423527211608885C74.95667883544922,18.935457211608885,74.35327883544922,19.191507211608887,73.64832883544922,19.191507211608887C72.96484883544922,19.191507211608887,72.37213883544922,18.935457211608885,71.87015783544922,18.423527211608885C71.36802283544922,17.911587211608886,71.11711883544922,17.307097211608887,71.11711883544922,16.610067211608886C71.11711883544922,15.912877211608887,71.36802283544922,15.302877211608887,71.87015783544922,14.780059211608886C72.37213883544922,14.257246211608887,72.96484883544922,13.995837211608887,73.64832883544922,13.995837211608887Z"
                fill-rule="evenodd" fill="#2A52BE" fill-opacity="1" />
        </g>
        <g>
            <path
                d="M98.43678839599609,13.995837211608887C99.14206839599609,13.995837211608887,99.7454583959961,14.257246211608887,100.24695839599609,14.780059211608886C100.7484583959961,15.302877211608887,100.99999839599609,15.912877211608887,100.99999839599609,16.610067211608886C100.99999839599609,17.307097211608887,100.7484583959961,17.911587211608886,100.24695839599609,18.423527211608885C99.7454583959961,18.935457211608885,99.14206839599609,19.191507211608887,98.43678839599609,19.191507211608887C97.7537883959961,19.191507211608887,97.1599583959961,18.935457211608885,96.6584573959961,18.423527211608885C96.1569603959961,17.911587211608886,95.9054183959961,17.307097211608887,95.9054183959961,16.610067211608886C95.9054183959961,15.912877211608887,96.1569603959961,15.302877211608887,96.6584573959961,14.780059211608886C97.1599583959961,14.257246211608887,97.7537883959961,13.995837211608887,98.43678839599609,13.995837211608887Z"
                fill-rule="evenodd" fill="#2A52BE" fill-opacity="1" />
        </g>
        <g>
            <path
                d="M79.53909301757812,13.68734359741211L83.67843301757813,13.68734359741211L83.67843301757813,29.47394359741211L89.19649301757812,21.93677359741211L92.61149301757813,21.93677359741211L94.13669301757812,21.93677359741211L87.68883301757812,30.36654359741211L94.32929301757812,39.00004359741211L89.51651301757812,39.00004359741211L83.67843301757813,31.247443597412108L83.67843301757813,39.00004359741211L79.53909301757812,39.00004359741211L79.53909301757812,13.68734359741211Z"
                fill-rule="evenodd" fill="#000000" fill-opacity="1" />
        </g>
        <g>
            <path
                d="M71.59473419189453,21.935470581054688L75.73407419189454,21.935470581054688L75.73407419189454,38.99997058105468L71.59473419189453,38.99997058105468L71.59473419189453,21.935470581054688Z"
                fill-rule="evenodd" fill="#000000" fill-opacity="1" />
        </g>
        <g>
            <path
                d="M96.38304138183594,21.935470581054688L100.52238138183594,21.935470581054688L100.52238138183594,38.99997058105468L96.38304138183594,38.99997058105468L96.38304138183594,21.935470581054688Z"
                fill-rule="evenodd" fill="#000000" fill-opacity="1" />
        </g>
    </g>
</svg>