<svg xmlns="http://www.w3.org/2000/svg" xmlns:xlink="http://www.w3.org/1999/xlink" fill="none" version="1.1" width="240.65765380859375" height="63.08099365234375" viewBox="0 0 240.65765380859375 63.08099365234375"><g><path d="M188.83,0.225005Q188.794,0.584994,189.586,1.16099Q190.522,1.95301,190.882,5.69701Q190.954,7.06501,191.17,8.61301Q191.386,10.161,191.53,12.465Q191.674,14.769,191.746,15.021Q191.818,15.273,190.594,16.137L187.138,18.297Q182.314,21.465,181.162,21.609Q180.442,21.753,180.37,21.933Q180.298,22.113,179.794,21.969Q179.65,21.969,179.578,22.041Q179.506,22.113,179.362,22.401Q179.362,22.761,179.542,22.941Q179.722,23.121,180.37,23.265Q181.234,23.553,181.666,23.913Q182.098,24.273,183.502,24.993Q184.906,25.713,185.05,26.037Q185.194,26.361,185.59,26.217Q185.986,26.073,187.138,26.361Q189.514,27.153,190.09,27.009Q190.45,26.937,190.846,26.793Q191.242,26.649,191.386,26.469Q191.53,26.289,191.458,26.217L191.818,26.217Q192.178,26.289,192.25,26.721Q192.322,27.153,192.322,29.169L192.322,31.905L191.53,32.481Q190.81,33.057,190.594,33.057Q190.378,33.057,190.27,33.417Q190.162,33.777,189.874,33.777Q189.586,33.777,188.83,34.569Q188.074,35.361,187.786,35.361Q187.601,35.361,187.535,35.4495Q187.498,35.4992,187.498,35.577Q187.498,35.6342,187.472,35.6762Q187.402,35.793,187.138,35.793Q186.778,35.793,186.526,36.225Q186.274,36.657,185.986,36.657Q185.842,36.657,184.222,38.097Q182.602,39.537,181.594,40.545Q179.722,42.417,178.93,42.201Q178.498,42.129,178.39,42.165Q178.282,42.201,178.282,42.561Q178.282,42.8159,178.156,42.9204Q178.069,42.993,177.922,42.993Q177.562,42.993,177.13,43.425Q176.698,43.857,176.95,44.217Q177.144,44.4942,177.295,44.4726Q177.34,44.4661,177.382,44.433Q177.408,44.4116,177.438,44.4053Q177.61,44.3692,177.886,44.829Q178.21,45.369,178.894,45.621Q179.578,45.873,179.578,46.089Q179.578,46.305,180.046,46.701Q180.396,46.9971,180.343,47.1724Q180.325,47.2316,180.262,47.277Q180.199,47.3217,180.174,47.382Q180.099,47.5644,180.37,47.889Q180.579,48.1404,180.764,48.1236Q180.897,48.1115,181.018,47.961Q181.097,47.8613,181.188,47.85Q181.425,47.8203,181.738,48.393Q182.17,49.185,182.53,49.005Q182.89,48.825,183.394,49.329Q184.352,50.175,184.781,49.9607Q184.9,49.9014,184.978,49.761Q185.194,49.401,185.986,48.897Q186.778,48.393,186.706,48.105Q186.706,48.033,186.742,47.997Q186.778,47.961,186.85,47.961Q187.21,48.033,191.314,43.713Q192.322,42.561,192.466,42.561Q192.61,42.849,192.574,44.721Q192.538,46.593,192.394,48.825Q192.25,51.057,192.106,51.273Q191.89,51.489,191.854,51.489Q191.818,51.489,191.746,51.201Q191.53,50.769,190.954,50.625Q190.378,50.481,189.766,49.473Q189.154,48.465,189.01,48.465Q189.006,48.465,189.002,48.4657Q188.867,48.4908,188.902,49.437Q188.938,50.409,190.414,53.181Q191.89,55.953,191.89,56.385Q191.89,56.817,192.538,57.573Q193.186,58.329,193.186,58.545Q193.186,58.905,194.41,60.201Q194.986,60.633,195.85,62.577L196.138,63.081L196.138,62.361Q196.282,62.289,196.282,62.217Q196.343,61.7905,196.455,61.7765Q196.476,61.7739,196.498,61.785Q196.642,61.785,196.642,61.569Q196.498,61.137,197.146,60.489Q197.794,59.841,197.794,59.337Q197.794,58.977,197.938,58.833Q198.035,58.6386,198.103,58.6483Q198.186,58.6602,198.226,58.977Q198.275,59.0587,198.316,59.0551Q198.458,59.0428,198.514,58.041Q199.162,50.985,198.586,43.281L198.37,38.817L198.226,36.945L199.594,35.793Q200.962,34.641,201.034,34.425Q201.106,34.209,201.43,34.209Q201.754,34.209,201.97,33.849Q202.258,33.489,203.338,32.985Q204.418,32.481,204.526,32.697Q204.634,32.913,204.49,38.133Q204.346,43.353,204.274,45.009Q204.058,46.233,204.13,46.629Q204.202,47.025,203.842,47.493Q203.482,47.961,203.482,48.393Q203.482,48.825,203.266,49.077Q203.05,49.329,203.194,49.617Q203.626,50.409,203.194,51.273Q202.997,51.5092,203.026,51.713Q203.05,51.8821,203.23,52.029Q203.626,52.353,203.986,52.497Q204.346,52.641,204.346,53.433Q204.346,54.0894,204.593,54.2018Q204.644,54.225,204.706,54.225Q205.066,54.225,205.138,54.657Q205.21,55.017,205.75,55.341Q206.29,55.665,206.722,55.665Q206.866,55.665,206.938,55.737Q207.01,55.809,207.01,55.953Q207.01,56.241,207.622,56.889Q208.234,57.537,208.522,57.537Q208.882,57.537,209.026,55.953Q209.026,55.593,209.314,55.449Q209.495,55.2679,209.585,55.3054Q209.674,55.3425,209.674,55.593Q209.674,55.8125,209.781,55.8982Q209.849,55.953,209.962,55.953Q210.25,55.953,210.322,56.241Q210.466,56.313,210.538,56.313Q210.61,56.313,210.862,56.133Q211.114,55.953,211.51,55.665Q211.906,55.377,212.59,54.801Q213.274,54.225,213.562,54.225Q213.695,54.225,213.736,54.2863Q213.783,54.3579,213.706,54.513Q213.562,54.801,213.382,54.801Q213.202,54.801,212.914,55.017Q212.626,55.233,212.482,55.521Q212.338,55.809,212.482,55.881Q212.698,55.953,212.842,55.593Q212.986,55.233,213.31,55.233Q213.557,55.233,213.616,55.1279Q213.634,55.0955,213.634,55.053Q213.634,54.873,214.39,54.621Q215.146,54.369,217.234,52.389Q219.322,50.409,219.538,50.121Q220.834,48.969,220.834,48.465Q220.834,48.249,221.374,48.141Q221.914,48.033,222.49,48.249Q223.354,48.465,223.714,48.465Q224.362,48.465,227.998,49.977Q231.634,51.489,232.066,51.921Q232.138,52.137,233.578,52.857Q236.458,54.297,238.186,55.593Q239.554,56.673,239.842,56.673Q240.13,56.673,240.274,56.997Q240.348,57.1635,240.431,57.1684Q240.51,57.173,240.598,57.033Q240.778,56.745,240.418,56.025Q239.698,54.729,240.274,54.369L240.13,54.153Q239.986,53.937,239.698,53.613Q239.41,53.289,239.05,52.857Q237.322,50.985,237.322,49.689Q237.322,49.401,236.962,49.293Q236.808,49.247,236.772,49.1551Q236.724,49.0315,236.89,48.825Q237.034,48.681,237.034,48.609Q237.034,48.6004,237.03,48.5948Q236.999,48.5543,236.746,48.681Q236.53,48.753,236.206,48.321Q235.882,47.889,236.098,47.601Q236.189,47.4184,236.135,47.3516Q236.105,47.313,236.026,47.313Q235.81,47.313,234.766,46.377Q233.722,45.441,233.47,45.441Q233.218,45.441,232.354,44.793Q231.49,44.145,231.094,44.253Q230.698,44.361,230.554,44.001Q230.41,43.641,229.798,43.749Q229.329,43.8317,229.262,43.7033Q229.241,43.664,229.258,43.605Q229.33,43.353,229.222,43.317Q229.114,43.281,227.962,42.705Q226.81,42.129,226.45,42.129Q226.09,42.129,226.018,41.769Q225.802,41.265,227.458,37.089Q227.746,36.513,227.818,36.297Q228.322,33.849,228.682,33.705Q229.042,33.489,228.79,31.077Q228.538,28.665,228.106,28.233Q227.818,27.873,227.422,27.729Q227.026,27.585,227.026,27.297Q227.026,27.009,225.802,26.757Q224.578,26.505,224.326,26.181Q224.074,25.857,223.678,25.857Q223.282,25.857,223.21,25.605Q223.138,25.353,222.274,25.353Q221.528,25.353,221.365,25.0448Q221.118,24.5789,222.202,23.409Q223.066,22.473,223.318,21.861Q223.57,21.249,223.966,21.249Q224.362,21.249,224.362,20.961Q224.362,20.673,224.866,19.701Q225.37,18.729,225.55,18.153Q225.73,17.577,226.342,16.281Q226.954,14.985,227.098,14.373Q227.242,13.761,227.566,13.437Q227.89,13.113,227.638,12.321Q227.386,11.529,226.99,11.133Q226.594,10.737,226.594,10.377Q226.594,10.017,225.694,9.909Q224.794,9.80101,224.182,9.33301Q223.57,8.865,221.662,8.181Q219.754,7.497,218.998,7.785Q218.242,8.073,217.954,8.289Q217.666,8.505,215.074,9.873Q209.026,12.897,207.226,14.409Q206.794,14.769,205.282,14.769Q203.77,14.769,203.266,15.201Q202.738,15.6847,202.828,15.873Q202.885,15.993,203.194,15.993Q203.482,15.993,203.698,16.425Q203.914,16.857,203.77,16.965Q203.626,17.073,203.446,17.073Q203.266,17.073,203.266,16.857Q203.266,16.641,202.51,15.921Q201.754,15.201,201.754,14.877Q201.754,14.553,201.358,14.301Q200.962,14.049,200.602,14.049Q199.882,14.049,198.838,13.401Q197.794,12.753,197.722,12.321Q197.578,11.817,197.578,8.82899Q197.578,5.841,197.722,5.625Q197.938,5.337,197.326,4.401Q196.714,3.465,195.922,2.74499Q194.986,1.809,193.33,1.017Q191.674,0.224994,190.378,0.0809927Q188.959,-0.121726,188.84,0.182944Q188.832,0.202887,188.83,0.225005ZM102.256,1.73136Q101.29,1.21812,100.517,1.41058Q99.9538,1.55079,99.9483,1.71015Q99.9438,1.84246,100.324,1.98798Q100.388,2.05213,100.453,2.05213Q100.839,2.30876,100.775,2.43707Q100.646,2.56538,100.388,2.50122Q100.188,2.47274,100.07,2.55806Q99.9229,2.66493,99.905,2.95031Q99.8751,3.42675,99.984,3.46092Q99.9924,3.46355,100.002,3.46355Q100.13,3.46355,100.485,4.04095Q100.839,4.61835,101.097,8.17897Q101.354,11.7396,101.354,12.0283L101.354,13.568Q101.354,14.819,101.548,15.5247Q101.741,16.2305,101.612,16.9362Q101.612,17.3211,101.451,17.4815Q101.29,17.6419,100.388,18.0268Q99.1642,18.4759,98.52,18.9891Q97.2961,19.9515,96.652,19.759Q96.3299,19.6948,95.1704,20.2081Q91.9496,21.7478,90.7902,21.7478Q90.4037,21.7478,90.0816,22.0686Q89.8883,22.3894,89.8883,23.0951Q89.8883,23.8008,90.0816,23.9932Q90.2104,24.1216,91.3055,24.3461Q92.4006,24.5706,93.2057,25.116Q94.0109,25.6613,94.2042,25.6613Q94.5263,25.6613,95.5247,25.9821Q96.5232,26.3028,96.9096,26.4953Q97.3605,26.7519,98.4878,26.9123Q99.6151,27.0727,99.8728,26.9444Q100.13,26.8161,100.646,26.7519Q101.097,26.7519,101.225,26.8481Q101.354,26.9444,101.419,27.4576Q101.548,28.2275,101.612,30.4729L101.805,32.7825L101.354,32.7184Q98.9709,32.0126,98.0047,32.0447Q97.0385,32.0768,94.8483,32.8467Q93.56,33.2958,92.465,33.2958Q91.3699,33.2958,91.3699,32.8467Q91.3699,32.3976,91.0156,32.0447Q90.6613,31.6919,90.2104,31.4994Q89.9453,31.424,89.9029,31.282Q89.8731,31.1825,89.9528,31.0503Q90.0888,30.8245,90.0333,30.7577Q90.01,30.7295,89.9528,30.7295Q89.7595,30.7295,89.7595,30.2484Q89.7595,29.7672,89.212,29.7672Q88.6644,29.7672,88.6,29.5747Q88.5356,29.3823,87.505,29.0615Q86.732,28.9332,86.6353,28.837Q86.5387,28.7407,86.5387,28.2916Q86.5387,27.5859,86.6676,24.6348L86.7964,21.6837L90.146,20.0798Q92.1429,19.1174,92.6582,18.7967Q93.1273,18.5843,93.1165,18.4001Q93.1109,18.306,92.9803,18.2193Q92.465,18.0268,91.7564,17.3532Q91.0478,16.6795,91.0478,16.4871Q91.0478,16.1663,90.4681,15.621Q89.8883,15.0757,89.8239,14.819Q89.7595,14.5624,89.7595,14.2737Q89.7595,13.985,88.2779,13.3435Q86.7964,12.7019,86.6031,12.8302Q86.5948,12.8553,86.5777,12.8705Q86.4633,12.9726,85.959,12.6378Q85.3148,12.2528,85.186,12.2528Q85.0572,12.2528,84.7351,12.6378Q84.4774,13.0227,82.0296,14.2416Q79.5818,15.4606,78.1003,16.2305Q75.0727,17.9626,73.72,18.1551Q72.8182,18.4117,72.7216,18.5721Q72.6249,18.7325,73.1403,19.3741Q73.72,20.0156,73.6556,20.2722Q73.5912,20.5289,74.2031,21.0421Q74.8151,21.5553,75.2016,21.5553Q75.4592,21.5553,76.1678,22.2931Q76.8764,23.0309,77.5849,23.1271Q78.2935,23.2234,78.4223,23.5121Q78.5512,23.8008,78.9055,23.8008Q79.2598,23.8008,79.3886,24.0895Q79.5174,24.3782,79.8395,24.3782Q79.9071,24.3782,79.9673,24.3993Q80.5956,24.6193,80.4192,27.1368Q80.4192,29.0615,80.387,30.3125Q80.3548,31.5636,80.0327,31.6919L79.3886,31.9485Q78.3579,32.6542,78.1325,32.7184Q77.907,32.7825,77.7782,32.5259Q77.6494,32.3334,76.7475,32.8467Q74.1709,34.3864,71.7875,34.9638Q70.8213,35.2204,70.5958,35.3167Q70.3704,35.4129,70.4348,35.7337Q70.4992,36.7601,70.6603,37.0488Q70.8213,37.3375,71.4655,37.7225Q72.3029,38.1716,72.5927,38.1716Q72.8826,38.1716,73.6234,38.8131Q74.3642,39.4547,75.4914,39.6471Q76.6187,39.8396,77.4239,40.0321Q78.2291,40.2245,78.7444,40.2245Q79.0665,40.2887,79.1309,40.4811Q79.1953,40.6736,79.1953,41.7001Q79.1953,43.1115,78.68,43.8172Q78.1647,44.5229,78.2291,44.8758Q78.2935,45.2286,77.9392,45.8702Q77.6731,46.3521,77.7523,46.4177Q77.7785,46.4395,77.8426,46.4155Q78.1003,46.3193,78.2935,46.7684Q78.4223,47.1533,78.2291,47.3778Q78.0359,47.6024,76.7475,48.3081Q74.2353,49.9761,73.4623,50.2007Q72.6894,50.4252,71.5299,49.6553Q71.401,49.527,71.2722,49.4629Q70.9414,49.2652,70.8145,49.3552Q70.6942,49.4404,70.7569,49.7837Q70.8543,50.1231,70.7492,50.206Q70.7153,50.2327,70.6603,50.2327Q70.6087,50.2327,70.5723,50.2562Q70.4495,50.3355,70.4992,50.6818Q70.4992,52.1574,70.0483,53.0556Q69.8551,53.5047,70.4348,53.8575Q71.0145,54.2104,71.9164,54.3387Q73.0114,54.467,73.0114,54.6915Q73.0114,54.9161,73.0759,55.3972Q73.1403,55.8784,73.6556,56.0067L74.6218,56.4558Q75.0727,56.5841,75.5881,56.9049Q76.7475,57.4823,78.2291,56.52Q78.9377,56.0709,79.7751,55.3652Q80.6125,54.6595,80.6125,54.467Q80.6125,54.45,80.604,54.442Q80.5484,54.3897,80.1294,54.7236Q79.6462,55.1086,79.5174,55.0444Q79.5142,55.0428,79.512,55.0402Q79.4275,54.9423,80.9346,53.4726Q82.4805,51.9649,82.4805,51.7725Q82.4805,51.58,83.1247,51.0026Q83.7689,50.4252,83.7689,50.2327Q83.7689,50.0403,83.9621,49.7837Q84.8639,48.693,84.8639,48.5647Q84.8639,48.4364,85.347,48.2119Q85.8301,47.9873,85.8301,47.6345Q85.8301,47.2816,86.2489,46.8967Q86.6021,46.5719,86.5427,46.4527Q86.5317,46.4306,86.5065,46.4155Q86.3455,46.3193,85.959,46.7042Q85.5725,47.025,85.4437,47.025Q85.345,47.025,85.3135,46.979Q85.2216,46.8448,85.7013,46.3193Q86.188,45.8345,86.1299,45.7567Q86.1188,45.7419,86.0878,45.7419Q86.0114,45.7165,85.9728,45.6636Q85.8159,45.4488,86.2811,44.7795Q86.5241,44.5859,86.4921,44.4654Q86.4816,44.4261,86.4421,44.3946Q86.3657,44.3337,86.3763,44.3017Q86.3881,44.2663,86.5065,44.2663Q86.732,44.2663,86.732,44.4909Q86.732,44.5856,86.7664,44.6004Q86.8135,44.6207,86.9252,44.4909Q87.1185,44.2663,86.9896,43.8172L86.9896,43.6889Q86.9896,43.6298,87.0169,43.6116Q87.0489,43.5901,87.1185,43.6248Q87.2501,43.7121,87.292,43.6805Q87.3117,43.6657,87.3117,43.6248Q87.3117,43.304,87.7304,42.9832Q88.1491,42.6624,88.2779,42.7266L88.4712,42.7266Q88.4332,42.7013,88.4176,42.6661Q88.354,42.5225,88.6644,42.2133Q88.9594,41.9195,89.1043,41.9808Q89.1493,41.9998,89.1798,42.053Q89.21,42.1057,89.2509,42.116Q89.3842,42.1494,89.6307,41.7322Q89.9528,41.1869,90.5969,40.7378Q91.2411,40.2887,91.2411,40.1604Q91.2411,40.1182,91.2619,40.1003Q91.3045,40.0637,91.4343,40.1283Q91.5194,40.1707,91.5671,40.1446Q91.6276,40.1115,91.6276,39.9679Q91.6276,39.7113,92.2717,38.9414Q92.5294,38.749,92.5938,38.6848L91.4343,39.4547Q89.7595,40.7378,89.6307,40.7378Q89.5018,40.7378,88.9221,41.251Q87.8223,42.0334,87.3612,41.7556Q87.2551,41.6917,87.1829,41.5718Q87.1449,41.4771,87.0788,41.4495Q86.921,41.3835,86.6031,41.7001L86.0878,42.085L86.6031,41.8284Q86.9896,41.7642,87.054,41.7963Q87.1185,41.8284,87.1185,42.085Q87.1185,42.2133,86.9896,42.2775Q86.9132,42.2013,86.8317,42.1955Q86.7072,42.1866,86.5709,42.3416Q86.3455,42.5983,85.959,42.3416Q85.5081,42.1492,85.347,41.8284Q85.186,41.5076,85.4437,41.251Q85.6369,41.0585,85.6369,40.6736Q85.6369,39.7754,85.8301,39.4547Q86.0234,39.3905,86.0234,38.749Q86.0234,37.7866,86.4099,37.4338Q86.7964,37.0809,88.6644,36.2469Q89.6951,35.7978,90.146,35.6053Q91.2498,35.1107,91.4079,35.3223Q91.4343,35.3577,91.4343,35.4129Q91.4343,35.7337,92.1429,35.7978Q93.0447,35.9261,93.3346,36.0865Q93.6244,36.2469,94.0109,36.7601Q94.4619,37.4017,94.7195,37.4017Q94.9772,37.4017,95.5569,37.7225Q95.9288,37.9447,96.024,38.2525Q96.176,38.7444,95.6213,39.4547Q95.1704,40.2245,94.8483,40.9302Q93.56,43.3681,89.1154,48.8855Q88.4068,49.7195,87.6016,51.2913Q86.8186,52.8198,87.0406,52.9832Q87.0469,52.9879,87.054,52.9914Q87.0788,53.0407,87.094,53.0379Q87.1185,53.0335,87.1185,52.8952Q87.1185,52.6707,87.3117,52.6707Q87.505,52.6707,87.505,52.9273Q87.505,53.0105,87.5456,53.0431Q87.6302,53.1111,87.8914,52.9593Q88.2779,52.7348,88.6322,53.1839Q88.9865,53.633,89.373,53.5367Q89.6672,53.4635,89.7375,53.5575Q89.7595,53.587,89.7595,53.633Q89.7595,53.9538,89.985,54.0179Q90.2104,54.0821,90.5325,53.9538Q90.919,53.8254,91.1122,53.8896Q91.1148,53.8921,91.1176,53.8942Q91.2595,53.999,92.1751,53.0556Q93.1091,52.0933,93.1091,51.9008Q93.1091,51.7083,93.56,51.7083Q93.8821,51.7083,94.5263,51.1309Q95.1704,50.5535,95.1704,50.3611Q95.1704,50.2327,95.6535,49.7195Q96.1367,49.2063,97.3928,47.3778Q98.6489,45.5494,99.2286,44.9399Q99.8083,44.3305,100.807,42.1813Q101.805,40.0321,101.902,40.0321Q101.998,40.0321,101.998,41.5718Q101.934,42.7907,101.934,45.2286L101.934,48.0515Q101.934,48.5647,101.837,50.1044Q101.741,51.6442,101.548,51.9649Q101.37,52.4368,101.437,52.4748Q101.443,52.4782,101.451,52.4782Q101.469,52.4782,101.477,52.4871Q101.511,52.5261,101.354,52.7348Q100.968,53.1839,100.195,52.9593Q99.4219,52.7348,99.0354,52.1574Q98.7191,51.7375,98.5754,51.79Q98.5435,51.8016,98.52,51.8366Q98.3912,52.0291,98.6489,52.6065Q99.0354,53.3764,99.1642,53.7934Q99.293,54.2104,99.7117,54.884Q100.13,55.5576,100.388,56.3275Q100.646,57.0974,100.903,57.0974Q101.032,57.0974,102.127,58.0918Q103.222,59.0862,103.544,59.5994Q103.867,59.9843,103.641,60.3372Q103.516,60.5327,103.569,60.6199Q103.612,60.6901,103.77,60.6901Q104.124,60.6901,104.865,61.5241Q105.606,62.3581,105.799,62.3581Q105.992,62.3581,106.282,61.5241Q106.572,60.6901,106.572,60.0485Q106.572,59.2786,106.83,59.1503Q107.087,59.022,107.216,57.8031Q107.409,55.6218,107.731,54.8519Q107.86,54.4028,107.925,50.5535Q107.989,43.0474,108.182,42.8549Q108.311,42.7266,108.891,43.2719Q109.471,43.8172,110.952,44.5871Q112.949,45.5494,114.431,46.5438Q115.912,47.5382,115.912,47.9873Q115.912,48.1798,116.556,48.3722Q117.201,48.5647,118.006,49.1421Q118.811,49.7195,119.777,50.1686L120.679,50.6177L120.357,50.1686Q119.777,49.3987,120.164,48.9496Q120.421,48.5647,120.325,47.9232Q120.228,47.2816,120.615,47.025Q121.001,46.7684,121.098,46.1268Q121.194,45.4853,120.872,45.2286Q120.615,44.972,119.777,43.7531Q118.94,42.5341,117.651,41.7322Q116.363,40.9302,115.912,40.834Q115.461,40.7378,114.914,40.2245Q114.366,39.7113,114.076,39.6792Q113.787,39.6471,113.497,39.6471Q113.207,39.6471,112.885,39.3905Q112.691,39.198,112.788,38.9735Q112.885,38.749,113.722,37.9149Q114.753,36.8885,115.204,36.0865Q115.655,35.2846,115.912,33.809Q116.234,32.3334,115.848,30.7295Q115.461,29.1257,114.882,28.5483Q113.658,27.2652,112.498,27.2652Q112.289,27.2652,112.231,27.3589Q112.181,27.4386,112.241,27.5859Q112.344,27.8438,112.281,27.8944Q112.266,27.9067,112.241,27.9067Q112.112,27.9067,112.112,28.869Q111.983,29.9597,111.468,30.8899Q110.952,31.8202,109.664,33.1674Q107.989,34.7713,107.86,34.7713Q107.796,34.7713,107.796,32.173Q107.796,29.5747,107.828,26.8161Q107.86,24.0574,107.925,23.6725Q107.925,23.5442,113.207,22.0044Q114.753,21.5553,115.171,21.5553Q115.59,21.5553,115.751,21.2987Q115.84,21.1575,115.802,21.0746Q115.771,21.0068,115.655,20.9779Q115.333,20.9138,115.139,20.3364Q114.946,19.759,115.139,19.2458Q115.204,18.7967,114.495,18.54Q114.237,18.4117,114.076,18.2513Q113.938,18.1132,113.966,18.0465Q113.971,18.0357,113.98,18.0268Q114.109,17.8985,114.237,17.9626Q114.366,18.0268,114.688,17.706Q114.797,17.5795,114.783,17.4682Q114.748,17.1846,113.915,17.0003Q113.464,16.8078,113.11,16.4871Q112.756,16.1663,112.434,16.1663Q112.112,16.1663,111.725,15.8776Q111.339,15.5889,111.017,15.5889Q110.695,15.5889,109.728,15.1398Q108.543,14.5775,108.297,14.853Q108.263,14.8918,108.247,14.9473Q108.054,15.204,107.764,15.204Q107.474,15.204,107.474,13.9529Q107.474,12.7019,107.667,11.6113Q107.86,10.5206,107.893,9.94324Q107.925,9.36584,107.925,8.33935Q107.925,5.90145,106.314,4.29757Q104.253,2.18045,103.48,2.18045Q103.222,2.18045,102.256,1.73136ZM112.627,4.42588L112.241,5.00328Q111.854,5.64483,111.854,5.93353Q111.854,6.22223,111.757,6.51093Q111.661,6.79963,112.756,7.9865Q113.851,9.17337,114.173,9.94324Q115.204,12.5736,116.75,13.6642Q117.651,14.3058,117.909,14.9153Q118.167,15.5247,118.682,15.7493Q119.197,15.9738,120.164,17.0965Q121.13,18.2193,121.388,18.2193Q121.645,18.2193,121.967,18.508Q122.24,18.7523,122.328,18.6979Q122.344,18.6881,122.354,18.6684Q122.389,18.6568,122.405,18.6327Q122.477,18.5232,122.161,18.1551Q121.903,17.8985,121.903,17.8023Q121.903,17.706,122.225,17.4494Q122.676,17.1286,122.901,17.0645Q122.96,17.0478,122.984,17.0096Q123.052,16.9004,122.837,16.6154Q122.547,16.2305,122.547,15.6531Q122.547,15.0757,122.193,13.8888Q121.839,12.7019,121.839,12.2528Q121.839,11.7396,121.452,10.9056Q121.066,10.0715,120.615,9.5583Q120.099,9.04506,120.099,8.78844Q120.099,8.40351,118.65,7.28079Q117.201,6.15807,116.363,5.8373L114.302,5.00328L112.627,4.42588ZM7.88969,8.74899Q7.8897,8.85699,9.25771,10.153Q10.6257,11.593,11.1297,13.537Q11.6337,15.481,11.7777,20.521Q11.9217,24.409,11.9937,25.849L12.0657,27.289L11.0577,28.081Q6.37771,31.033,3.13771,31.537Q1.4097,31.825,0.5457,32.077Q-0.00684553,32.2381,0.0000854852,32.3699Q0.00399257,32.4441,0.185684,32.509Q0.689713,32.689,0.797714,33.013Q0.905701,33.337,1.2657,33.337Q1.62569,33.337,2.05769,33.733Q2.4897,34.129,3.2097,34.201Q3.8577,34.417,5.58571,34.957Q7.31369,35.497,7.67369,35.713Q8.0337,35.857,9.25771,35.929Q10.7697,36.289,11.0217,36.433Q11.2737,36.577,11.2017,37.369Q10.6257,41.977,9.61769,46.081Q9.40168,46.945,9.18568,47.125Q8.96969,47.305,8.17769,47.665Q7.0257,48.025,5.4417,48.061Q3.85769,48.097,3.78569,48.385Q3.7137,48.673,3.1017,49.285Q2.4897,49.897,2.4897,50.113Q2.48969,50.329,2.12968,50.473Q1.76971,50.617,1.80571,51.013Q1.84171,51.409,2.20171,51.481Q2.48969,51.481,2.56169,51.625Q2.75896,51.8223,2.71842,51.9114Q2.68499,51.985,2.4897,51.985Q2.20171,51.985,2.20171,52.417Q2.20171,52.561,2.30971,52.633Q2.41771,52.705,2.52571,52.705Q2.63369,52.705,2.66969,52.849Q2.7057,52.993,2.7057,53.209Q2.67432,53.4287,2.76605,53.5663Q2.88477,53.7444,3.2097,53.785Q3.78568,53.929,4.79369,54.613Q5.80168,55.297,6.01768,55.693Q6.2337,56.089,6.8817,56.377Q7.67369,56.593,7.88969,56.233Q8.32169,56.017,9.50969,55.153Q10.6977,54.289,10.9137,54.001Q11.1297,53.713,11.5257,53.713Q11.9217,53.713,11.9937,53.389Q12.0657,53.065,12.2817,53.065Q12.5697,53.065,13.2537,52.345Q13.9377,51.625,14.3697,50.833Q15.0897,50.041,15.3417,50.041Q15.5937,50.041,15.9537,49.105Q16.0977,48.673,16.2777,48.457Q16.3935,48.318,16.4945,48.3281Q16.5504,48.3337,16.6017,48.385Q16.9617,48.457,17.1417,47.953Q17.3217,47.449,18.3297,46.297Q20.2141,44.4126,19.8701,43.8184Q19.8329,43.7541,19.7697,43.705L19.8417,43.633Q19.9655,43.7073,20.0723,43.6879Q20.276,43.6508,20.4177,43.273Q20.4177,43.057,20.4897,42.913Q20.5377,42.817,20.5857,42.817Q20.6097,42.817,20.6337,42.841Q20.7057,42.841,21.2457,42.373Q21.7857,41.905,21.7857,41.689Q21.7857,41.617,22.3977,40.537Q23.0097,39.457,22.8657,39.313L22.7217,39.385Q22.7217,39.601,22.5057,39.673Q22.4367,39.696,22.386,39.6749Q22.2782,39.63,22.2537,39.385Q22.2177,39.025,22.6137,38.881Q23.0097,38.737,23.4057,38.197Q23.8017,37.657,24.6657,37.765Q25.5297,37.873,26.4657,37.585Q27.9057,37.441,28.2297,37.693Q28.5537,37.945,28.7697,39.025Q29.0577,40.393,29.2737,41.761Q29.3457,42.913,29.6337,43.921Q29.9217,44.929,30.2097,44.929Q30.2817,44.929,30.4257,44.497L30.4257,44.785Q30.3537,45.145,30.8937,45.829Q31.4337,46.513,33.5937,48.961Q35.5377,50.977,36.5457,50.977Q36.9057,50.977,36.9777,51.481L37.1217,51.553Q37.2657,51.265,37.3377,51.265Q37.3776,51.265,37.4076,51.2822Q37.5404,51.3581,37.4817,51.769Q37.4097,51.985,37.4817,52.093Q37.5537,52.201,37.7337,52.165Q37.9137,52.129,38.1297,51.913Q38.4177,51.769,38.9577,52.093Q39.4977,52.417,43.3857,52.417Q49.0017,52.345,49.1457,51.985Q49.3617,51.841,50.1897,51.625Q51.0177,51.409,51.5937,51.265Q51.8817,51.265,51.9537,51.373Q52.0257,51.481,51.9897,51.661Q51.9537,51.841,51.9897,51.877Q52.0257,51.913,52.3857,51.841Q52.8177,51.625,53.1057,51.625Q53.2447,51.625,53.2663,51.5747Q53.2894,51.5207,53.1777,51.409Q53.1777,51.265,53.3577,51.121Q53.5377,50.977,53.8257,50.905Q54.6177,50.833,54.9777,50.725Q55.1943,50.66,55.2806,50.7384Q55.3377,50.7903,55.3377,50.905Q55.3377,51.265,55.9137,51.265Q56.4897,51.265,56.6337,50.977Q56.6517,50.923,56.6337,50.887Q56.5797,50.779,56.2017,50.833Q55.8417,50.905,55.7697,50.833Q55.6328,50.7189,55.626,50.5976Q55.6115,50.3361,56.2017,50.041Q56.7057,49.681,56.9577,50.005Q57.2097,50.329,57.6417,50.257Q57.7857,50.257,57.7857,50.185Q57.8976,50.185,57.926,50.2337Q57.989,50.3417,57.6417,50.689L57.2097,51.121L57.7137,50.833Q58.2897,50.617,58.2177,49.681Q58.2177,49.609,58.2537,49.573Q58.2609,49.5658,58.2695,49.5629Q58.3041,49.5514,58.3617,49.609Q58.5777,49.897,59.0097,50.185L59.5137,50.329Q59.4417,50.185,59.6577,49.969Q59.8737,49.753,60.2337,49.645Q60.5937,49.537,61.0257,49.537Q61.4577,49.537,61.5297,48.889Q61.5297,48.673,61.4577,48.601Q61.3807,48.1775,61.2626,48.1657Q61.1597,48.1554,61.0257,48.457Q60.9537,48.601,60.6657,48.601Q60.4497,48.529,60.4497,47.881Q60.4497,47.665,60.5217,47.557Q60.5937,47.449,60.6657,47.449Q61.0977,47.521,61.2057,47.377Q61.3137,47.233,62.3217,46.657Q62.4657,46.585,62.5377,46.513Q63.1084,46.2536,63.0809,46.1437Q63.0703,46.1011,62.9697,46.081Q62.6817,46.009,62.5737,45.541Q62.4657,45.073,61.8537,45.073Q61.2417,45.073,60.7737,44.785Q60.3057,44.497,59.5857,44.713Q58.8657,44.929,58.4697,44.713Q58.0737,44.497,57.1377,44.497Q56.9217,44.497,56.8497,44.425Q56.6464,44.425,56.6344,44.3772Q56.621,44.3233,56.8497,44.209Q57.1114,43.9473,57.0687,43.7522Q56.994,43.4105,55.9857,43.273Q55.1937,43.129,54.9057,42.841Q54.6177,42.553,54.3657,42.553Q54.1137,42.553,53.3577,41.941Q52.6017,41.329,52.2777,41.653Q51.9537,41.977,52.4577,42.517Q52.9617,43.057,52.9617,43.201Q52.9617,43.345,52.0257,43.489Q51.0897,43.633,50.4777,44.029Q49.8657,44.425,49.4697,44.353Q49.0737,44.281,48.8937,44.461Q48.7137,44.641,48.2097,44.641Q47.7057,44.641,47.6697,44.425Q47.6681,44.4156,47.6646,44.407Q47.5865,44.2184,46.5537,44.425Q45.4737,44.641,42.1617,44.641Q38.8497,44.641,37.4097,44.353Q35.9697,44.065,35.5377,43.885Q35.1057,43.705,35.0337,43.273Q34.9617,43.057,34.8897,42.913Q34.8177,42.769,34.6017,42.769Q34.564,42.7815,34.533,42.7722Q34.3857,42.728,34.3857,42.193Q34.3857,41.545,34.0977,40.321Q33.1617,35.929,33.1617,34.777Q33.1617,34.6645,33.2179,34.6082Q33.3417,34.4845,33.7377,34.633Q34.3137,34.849,34.3137,35.029Q34.3137,35.209,35.2857,35.821Q36.2577,36.433,36.1857,36.937Q36.1857,37.369,36.2577,37.441Q36.3297,37.513,36.8337,37.585Q37.4097,37.657,37.6977,37.441Q37.9155,37.2777,37.9686,37.3202Q37.9857,37.3339,37.9857,37.369Q37.9857,37.657,38.4897,37.801Q38.9937,37.945,39.2817,37.585Q39.6835,37.4702,39.765,37.5842Q39.7857,37.6132,39.7857,37.657Q39.7857,37.873,38.7057,38.305L37.6977,38.737L38.5617,38.737Q39.2222,38.737,39.2768,38.9188Q39.2817,38.9352,39.2817,38.953Q39.2817,38.9879,39.2986,39.0096Q39.3864,39.1225,39.9297,38.881Q40.5777,38.593,41.0817,38.521Q41.5857,38.449,41.8737,38.269Q42.0743,38.1436,42.0653,38.0357Q42.0614,37.9887,42.0177,37.945Q42.0177,37.873,42.0897,37.729Q42.1617,37.585,42.3777,37.585Q42.8097,37.585,42.9897,37.333Q43.1697,37.081,44.4657,35.857L45.4017,35.209Q45.0417,35.641,45.1497,35.785Q45.1713,35.8138,45.2001,35.8282Q45.3153,35.8858,45.5457,35.713Q45.8697,35.551,45.9507,35.632Q45.9777,35.659,45.9777,35.713Q45.9777,35.929,44.8617,37.081Q43.7457,38.233,43.7457,38.449Q43.7457,38.475,43.7586,38.4863Q43.8885,38.6007,45.3297,37.225Q45.9777,36.577,46.0497,36.577Q46.1937,36.577,46.6977,36.037Q47.2017,35.497,47.2017,35.353Q47.2017,35.281,47.7057,34.777L48.2097,34.345L47.9937,34.849Q47.9217,35.065,47.9217,35.137Q47.9217,35.141,47.9237,35.1428Q47.9575,35.1732,48.5697,34.561Q49.3617,33.841,49.4697,33.409Q49.5777,32.977,50.1537,32.797Q50.7297,32.617,50.7297,32.437Q50.7297,32.257,51.3777,31.537Q52.745,30.0394,52.4637,29.6017Q52.4339,29.5554,52.3857,29.521Q52.2202,29.4548,52.2069,29.3658Q52.1912,29.2612,52.3857,29.125Q52.6572,28.935,52.7239,28.9906Q52.7457,29.0087,52.7457,29.053Q52.7457,29.0773,52.7575,29.0865Q52.8331,29.1456,53.3937,28.585Q54.0417,27.865,54.2577,27.001Q54.3297,26.785,54.8337,26.281Q55.3377,25.777,55.8417,24.769Q55.9857,24.409,56.2017,24.157Q56.4177,23.905,56.4897,23.941Q56.5617,23.977,56.7057,23.833Q56.8497,23.689,56.9937,23.473Q57.2097,22.897,57.1377,21.745Q57.1377,21.457,56.1657,20.881Q55.1937,20.305,54.4737,20.233Q53.6097,20.089,53.5737,19.801Q53.5377,19.513,51.4497,19.657Q47.9937,19.729,44.8257,21.313Q43.5297,21.961,43.2777,21.853Q43.0257,21.745,42.9537,20.089Q42.6657,17.425,42.5577,17.353Q42.5543,17.3507,42.551,17.3509Q42.4497,17.3554,42.4497,19.657Q42.3777,22.465,42.1257,22.465Q42.1209,22.465,42.1163,22.4643Q41.875,22.4262,41.9457,20.413Q42.0177,18.361,41.5137,16.705Q41.3697,16.201,41.2977,15.985Q41.0496,15.3897,40.87,15.4096Q40.7889,15.4186,40.7217,15.553Q40.6497,15.697,40.5777,15.697Q40.5636,15.7111,40.5474,15.7142Q40.3984,15.7421,40.0737,14.833Q39.1377,13.033,37.5537,12.745Q37.1217,12.673,37.0137,12.817Q36.9057,12.961,37.2657,13.681Q37.5537,14.329,37.8417,16.129Q38.1297,17.929,38.1297,19.009Q38.1297,19.657,37.8417,22.357Q37.5537,25.057,37.4817,25.057L35.4657,26.281Q33.4497,27.505,33.1977,27.505Q33.0077,27.505,32.961,27.5868Q32.9457,27.6136,32.9457,27.649Q32.9457,27.793,32.2617,28.261Q31.5777,28.729,31.3617,28.729Q31.0737,28.729,30.7857,28.009Q30.4977,27.649,30.4257,27.577Q30.3969,27.577,30.3911,27.5885Q30.3825,27.6058,30.4257,27.649Q30.7857,28.729,30.5697,28.801L30.1377,28.009Q28.9857,26.137,28.1937,25.525Q27.4017,24.913,26.3937,25.201Q25.5297,25.273,25.3137,25.057Q25.0977,24.841,23.4777,24.949Q21.8577,25.057,21.5697,24.805Q21.2817,24.553,20.6337,24.553Q19.9857,24.553,19.8777,24.301Q19.7697,24.049,18.9057,24.193Q18.2577,24.265,18.1497,24.157Q18.0417,24.049,18.0417,23.617Q18.0417,23.041,18.1857,22.933Q18.3297,22.825,18.3297,21.457Q18.7617,14.977,18.4017,14.761Q18.1857,14.401,18.4017,13.969Q18.8337,13.249,17.6817,11.809Q17.4657,11.521,16.5297,10.945Q14.0911,9.177,13.9238,9.37064Q13.8936,9.40569,13.9377,9.505L13.9377,9.649Q13.9377,9.65148,13.9368,9.65362Q13.9129,9.71355,13.2177,9.505Q12.4257,9.14499,11.9217,8.85699Q11.7057,8.713,10.7337,8.677Q9.7617,8.641,8.8257,8.641Q7.90199,8.64099,7.88986,8.74617L7.88969,8.74899ZM155.559,9.49699Q155.307,9.569,155.451,10.145Q155.523,10.793,155.127,10.937Q154.731,11.081,154.515,10.937Q154.396,10.8576,154.321,10.8877Q154.26,10.9122,154.227,11.009Q153.867,11.441,151.563,12.341Q149.259,13.241,148.539,13.241Q147.963,13.241,147.639,13.457Q147.315,13.673,146.523,13.817Q145.731,13.961,144.075,14.609Q142.419,15.257,141.699,15.473Q140.979,15.689,140.223,15.941Q139.467,16.193,137.955,15.545Q135.363,14.177,133.923,14.105Q133.438,14.0746,133.374,14.2236Q133.288,14.4278,133.995,14.969Q134.787,15.617,135.507,16.301Q136.227,16.985,136.011,17.489Q135.795,17.849,135.723,18.101Q135.651,18.353,135.651,18.497Q135.651,18.641,135.723,18.677Q135.795,18.713,136.011,18.713Q136.659,18.713,136.803,19.577Q136.875,19.937,136.983,20.513Q137.091,21.089,137.091,21.233Q137.019,21.593,136.443,30.521Q136.155,34.265,136.371,34.697Q136.587,35.057,136.371,36.713Q136.155,38.369,135.867,38.585Q135.785,38.6397,135.776,38.7048Q135.761,38.8111,135.939,38.945Q136.227,39.161,136.083,39.593Q135.867,40.169,135.723,43.193Q135.651,44.201,135.255,44.633Q134.859,45.065,135.003,45.209Q135.147,45.353,134.787,45.749Q134.427,46.145,134.463,47.117Q134.499,48.089,135.111,48.377Q135.723,48.665,135.579,48.989Q135.435,49.313,135.147,49.205Q134.931,49.1238,134.877,49.1851Q134.859,49.2053,134.859,49.241Q134.859,49.385,135.219,49.529Q135.579,49.673,135.507,50.285Q135.435,50.897,136.155,51.077Q136.875,51.257,136.875,51.473Q136.875,51.689,137.127,51.689Q137.379,51.689,138.387,52.697Q139.395,53.705,139.791,53.489Q140.187,53.273,140.187,52.949Q140.187,52.8915,140.216,52.8579Q140.347,52.7016,141.087,53.057Q141.987,53.489,142.167,53.201Q142.347,52.913,143.427,52.661Q144.507,52.409,144.579,52.625Q144.588,52.6598,144.607,52.6872Q144.747,52.8869,145.443,52.697Q146.235,52.481,147.063,52.085Q147.891,51.689,147.963,51.401Q148.107,50.969,148.827,51.113Q149.547,51.257,149.799,50.933Q150.051,50.609,150.267,50.753Q150.483,50.825,151.455,50.429Q152.427,50.033,152.427,49.817Q152.427,49.601,152.571,49.493Q152.715,49.385,153.219,49.385Q153.723,49.313,154.875,49.169L155.955,49.097L155.883,49.961Q155.752,50.7483,155.92,50.8182Q155.936,50.825,155.955,50.825Q156.171,50.825,156.171,51.149Q156.171,51.473,156.387,51.473Q156.603,51.473,156.603,51.977Q156.603,52.409,156.819,53.129Q157.035,53.849,157.251,53.849Q157.295,53.849,157.324,53.8697Q157.438,53.9512,157.323,54.353Q157.179,54.785,157.575,55.181Q157.971,55.577,158.475,55.649Q159.051,55.793,159.735,56.477Q160.419,57.161,160.923,57.449Q161.283,57.593,161.355,57.557Q161.427,57.521,161.427,57.161Q161.427,56.873,161.571,56.549Q161.715,56.225,161.895,56.081Q162.075,55.937,162.147,56.009Q162.247,56.0422,162.301,56.0064Q162.363,55.9647,162.363,55.829Q162.363,55.7241,162.413,55.6878Q162.483,55.6369,162.651,55.721Q162.939,55.865,163.227,55.361Q163.227,55.145,163.299,55.073Q163.532,54.6853,163.681,54.7151Q163.809,54.7407,163.875,55.073Q163.932,55.3552,164.033,55.3719Q164.06,55.3766,164.091,55.361Q164.523,55.217,164.667,53.849Q164.739,52.697,164.955,52.553Q165.603,52.049,165.603,50.969Q165.603,50.465,165.819,50.393Q166.035,50.321,166.107,47.405Q166.179,44.489,166.359,44.309Q166.539,44.129,166.539,43.661Q166.539,43.193,166.323,43.193Q166.251,43.193,166.215,42.617Q166.179,42.041,166.287,41.825Q166.395,41.609,166.359,41.033Q166.323,40.457,166.251,40.457Q166.211,40.457,166.18,40.4402Q165.989,40.3364,166.143,39.593Q166.323,38.729,166.035,38.513Q165.747,38.297,165.963,37.865Q166.179,37.433,166.179,36.209Q166.179,34.985,165.963,34.193Q165.873,33.8317,165.924,33.8103Q165.955,33.7976,166.035,33.905Q166.169,34.0836,166.276,34.0684Q166.341,34.0591,166.395,33.977Q166.539,33.761,166.179,33.473Q165.819,33.185,166.035,32.897Q166.251,32.609,166.143,30.809Q166.035,29.009,166.107,28.217Q166.179,27.425,166.035,25.409Q165.893,18.643,166.525,18.5698Q166.532,18.569,166.539,18.569Q166.683,18.569,166.683,18.353Q166.683,18.137,166.395,18.137Q166.368,18.1642,166.346,18.1606Q166.31,18.1545,166.287,18.065Q166.251,17.921,166.215,17.669Q166.179,17.417,166.179,16.985L166.179,15.977Q166.179,13.601,165.891,13.529Q165.603,13.457,165.603,13.169Q165.603,13.025,164.127,12.269Q162.651,11.513,162.363,11.513Q162.147,11.513,162.075,11.297Q162.003,11.081,159.987,11.009Q158.619,11.009,158.259,10.901Q157.899,10.793,157.899,10.577Q157.899,10.3365,157.81,10.2968Q157.739,10.2653,157.611,10.361Q157.451,10.5216,157.268,10.5535Q156.794,10.6358,156.171,9.85699Q155.811,9.42499,155.559,9.49699ZM228.335,13.5384Q228.151,13.574,228.106,14.337Q227.972,15.0074,228.087,15.0536Q228.096,15.057,228.106,15.057Q228.25,15.057,228.502,14.517Q228.754,13.977,228.61,13.761Q228.447,13.517,228.335,13.5384ZM218.098,16.209Q218.314,16.425,218.098,17.577Q217.738,19.233,214.066,27.009Q213.202,28.809,213.13,29.241Q213.058,29.529,211.87,30.249Q210.682,30.969,210.322,30.969Q210.25,30.969,210.214,25.497Q210.178,20.025,209.962,19.449L209.818,18.801L211.042,18.945Q211.906,19.089,212.338,18.945Q212.77,18.801,214.282,18.081Q216.37,17.001,216.658,16.641Q217.594,15.777,218.098,16.209ZM203.73,17.311Q203.77,17.3529,203.77,17.433Q203.77,17.577,203.194,17.937L202.762,18.369L203.41,18.081Q203.842,17.793,203.914,17.793Q203.986,17.793,204.058,18.153Q204.202,18.657,204.454,18.657Q204.473,18.657,204.489,18.6637Q204.689,18.7449,204.49,19.809L204.634,20.601Q204.85,20.601,204.922,25.641Q204.922,30.537,204.562,30.645Q204.376,30.7008,204.286,30.6316Q204.202,30.567,204.202,30.393Q204.202,30.2778,204.156,30.1856Q203.971,29.817,203.05,29.817Q202.834,29.817,202.762,29.745Q202.726,29.709,202.726,29.673Q202.726,29.637,202.762,29.601Q202.863,29.4655,202.837,29.3618Q202.808,29.2452,202.618,29.169Q202.486,29.1165,202.465,29.0353Q202.428,28.8937,202.726,28.665Q203.037,28.4254,202.998,28.3293Q202.978,28.281,202.87,28.269Q202.546,28.233,201.322,28.125Q200.098,28.017,199.234,28.017L198.226,28.017L198.154,27.153Q198.082,26.217,198.082,23.949Q198.082,21.6901,197.939,21.681L197.938,21.681Q197.794,21.681,197.794,21.213Q197.794,20.9471,197.91,20.8788Q197.998,20.8268,198.154,20.889Q198.514,21.033,199.054,20.457Q199.496,19.9847,199.673,20.0691Q199.712,20.0876,199.738,20.133Q199.754,20.1622,199.779,20.1817Q199.965,20.3308,200.602,19.917Q201.205,19.525,201.151,19.3856Q201.141,19.3585,201.106,19.341Q200.89,19.233,200.566,19.629Q200.339,19.9062,200.218,19.8659Q200.166,19.8486,200.134,19.773Q200.026,19.521,200.458,19.233Q200.89,18.945,200.89,18.657Q200.89,18.369,201.214,18.369Q201.538,18.369,202.186,17.937Q203.518,17.0892,203.73,17.311ZM156.279,22.421Q156.603,26.561,156.531,26.633Q156.315,26.849,155.163,26.921Q154.011,26.993,153.795,26.921Q153.435,26.705,152.787,27.353Q152.168,27.9722,152.075,27.9011Q152.071,27.8978,152.067,27.893Q151.995,27.785,150.843,28.217Q149.547,28.649,145.011,30.881Q142.779,32.033,142.563,31.889Q142.491,31.745,142.527,30.377Q142.563,29.009,142.707,27.929Q142.779,27.281,142.923,24.833Q142.995,23.249,143.103,22.853Q143.211,22.457,143.499,22.457Q143.931,22.457,143.931,22.241Q143.931,22.025,144.579,22.025Q145.227,22.025,145.227,22.313Q145.227,22.457,145.659,22.493Q146.091,22.529,146.703,22.421Q147.315,22.313,147.603,22.097Q148.073,21.7842,148.032,21.5657Q148.017,21.4825,147.927,21.413Q147.657,21.2027,147.537,21.2682Q147.513,21.2811,147.495,21.305Q147.447,21.3697,147.42,21.3617Q147.387,21.3519,147.387,21.233Q147.387,21.017,147.999,21.017Q148.611,21.017,149.655,20.585Q150.699,20.153,150.951,20.153Q151.203,20.153,152.283,19.577Q153.363,19.001,153.759,19.001Q154.155,19.001,154.911,18.461Q155.667,17.921,155.811,18.101Q155.955,18.281,156.279,22.421ZM202.368,18.417Q202.271,18.3555,201.898,18.729Q201.787,18.9503,201.828,18.9827Q201.866,19.0135,202.042,18.873Q202.402,18.585,202.402,18.513Q202.402,18.4385,202.368,18.417ZM199.311,20.8565Q199.278,20.8195,198.802,21.177Q198.494,21.4331,198.533,21.507Q198.549,21.537,198.622,21.537Q198.874,21.537,199.162,21.177Q199.306,21.033,199.306,20.889Q199.318,20.8642,199.311,20.8565ZM145.947,23.105Q146.091,23.321,146.415,23.321Q146.61,23.321,146.649,23.2432Q146.675,23.1914,146.631,23.105Q146.523,22.889,146.163,22.889Q145.946,22.889,145.912,22.9677Q145.89,23.0193,145.947,23.105ZM46.5177,24.049Q46.7697,24.049,46.8417,24.337Q47.0577,24.697,46.4817,26.101Q45.9057,27.505,45.1137,28.585L43.6737,30.745Q43.3857,31.105,42.7737,31.789Q42.1617,32.473,41.7297,32.977Q41.2977,33.481,41.1537,33.481Q40.9377,33.265,42.1617,28.153Q42.5217,26.569,42.8457,26.533Q43.1697,26.497,44.8977,25.705Q45.8337,25.129,46.1577,24.841Q46.4817,24.553,46.4817,24.409Q46.3388,24.1708,46.4007,24.0902Q46.4324,24.049,46.5177,24.049ZM25.6737,26.749Q26.2497,27.073,26.6457,28.009Q27.0417,28.945,27.3657,30.061Q27.6897,31.177,27.4737,31.249Q27.2577,31.321,26.6097,31.861Q25.9617,32.401,25.8177,32.401Q25.6737,32.401,24.5217,33.265Q22.5057,34.489,21.6417,34.417Q21.1377,34.417,21.0297,34.633Q20.9217,34.849,20.4537,34.849Q19.9857,34.849,19.9857,35.029Q19.9857,35.209,19.3377,35.281Q19.1937,35.353,18.9777,35.497Q18.7672,35.5496,18.749,35.6407Q18.7423,35.6742,18.7617,35.713Q18.8337,35.857,19.2657,35.857Q19.6977,35.857,19.8417,36.145Q19.9857,36.433,20.3457,37.369Q20.4897,37.945,19.1937,39.169Q17.6817,40.537,17.1777,40.681Q17.0833,40.681,17.0275,40.6346Q16.9133,40.5394,16.9617,40.249Q17.1083,40.0046,17.0393,39.8763Q17.0066,39.8157,16.9257,39.781Q16.827,39.7387,16.8001,39.6687Q16.7583,39.5602,16.8897,39.385Q16.8897,39.313,16.8537,39.241Q16.8465,39.2266,16.835,39.2208Q16.7889,39.1978,16.6737,39.313Q16.3857,39.385,16.3497,40.177Q16.3137,40.969,16.0977,40.969Q16.0545,40.969,16.0199,40.9863Q15.8817,41.0554,15.8817,41.401Q15.8817,41.617,15.7377,41.833Q15.5937,42.049,15.4137,42.121Q15.2337,42.193,15.0897,42.121Q14.9457,41.977,15.1257,41.653Q15.3057,41.329,15.7017,39.601Q16.0977,37.873,16.3857,36.937Q16.4577,36.577,16.4577,36.433Q16.52,36.2773,16.5553,36.2832Q16.6017,36.2909,16.6017,36.577Q16.6737,37.081,16.8897,37.585Q16.9617,38.089,17.0337,38.089Q17.1057,38.089,17.2497,37.873Q17.4657,37.369,17.5017,37.045Q17.5377,36.721,17.6817,35.857Q17.9697,34.633,18.0417,32.977Q18.0417,32.833,19.0857,32.185Q20.1297,31.537,21.1377,30.637Q22.1457,29.737,23.0097,29.161Q23.5137,28.873,23.8017,28.549Q24.0897,28.225,24.0897,28.009Q24.0897,27.793,23.9457,27.721Q23.8017,27.577,23.4057,27.901Q23.0097,28.225,22.9377,28.225L22.9377,27.793Q22.9377,27.433,22.9737,26.929Q23.0097,26.425,23.1177,26.389Q23.2257,26.353,23.8017,26.101Q24.2642,25.8987,24.3785,26.0212Q24.4066,26.0513,24.4137,26.101Q24.4248,26.1784,24.4596,26.1913Q24.5382,26.2202,24.7377,25.921Q24.9537,25.705,24.9897,25.705L24.9908,25.7051Q25.0257,25.7094,25.0257,25.993Q25.0977,26.425,25.6737,26.749ZM41.2051,27.8643Q41.3399,27.9221,41.1537,28.729L40.8657,29.233Q40.7937,29.161,40.9377,28.369Q41.0097,27.865,41.1537,27.865Q41.1835,27.8551,41.2051,27.8643ZM50.9814,31.1863Q50.9292,31.249,50.8017,31.249Q50.6916,31.249,50.6657,31.2023Q50.6407,31.1573,50.6937,31.069Q50.8017,30.889,50.9097,30.889Q51.0177,30.889,51.0177,31.069Q51.0177,31.1428,50.9814,31.1863ZM34.8551,32.5466Q34.8226,32.617,34.6377,32.617Q34.4134,32.617,34.3444,32.5135Q34.3137,32.4675,34.3137,32.401Q34.3137,32.2735,34.3764,32.2213Q34.4199,32.185,34.4937,32.185Q34.6737,32.185,34.8177,32.401Q34.8795,32.4937,34.8551,32.5466ZM156.603,34.733L156.603,36.353Q156.603,39.737,156.531,40.889Q156.315,41.681,156.243,41.861Q156.171,42.041,155.523,42.113Q154.875,42.185,154.515,41.969Q154.155,41.753,153.903,41.969Q153.651,42.185,152.499,42.401Q150.915,42.545,147.891,43.337Q144.867,44.129,143.571,44.705Q143.139,44.921,142.419,44.921L141.843,44.993L141.915,42.977Q141.987,41.105,142.023,40.637Q142.059,40.169,142.059,39.017L142.131,37.793L143.931,37.793Q145.299,37.793,145.983,37.577Q146.667,37.361,149.475,36.137Q156.099,33.185,156.387,33.041Q156.531,33.041,156.567,33.509Q156.603,33.977,156.603,34.733ZM47.2017,34.237Q47.2017,34.345,46.9857,34.453Q46.8694,34.5111,46.8157,34.4754Q46.7697,34.4447,46.7697,34.345Q46.7697,34.129,46.9857,34.129Q47.2017,34.129,47.2017,34.237ZM219.616,35.8341Q219.754,35.9425,219.754,36.225Q219.754,37.593,218.53,39.537L217.882,40.401L215.938,40.185Q213.922,40.041,212.05,40.041Q210.178,40.041,209.962,39.861Q209.746,39.681,209.782,38.205Q209.818,36.729,209.602,36.477Q209.482,36.3368,209.506,36.2301Q209.526,36.1449,209.638,36.081Q209.89,35.937,210.178,36.297Q210.538,36.729,214.066,37.233Q214.858,37.377,215.938,36.945Q217.018,36.513,217.306,36.585Q217.469,36.6257,217.539,36.5628Q217.594,36.5145,217.594,36.405Q217.594,36.2974,217.646,36.2555Q217.717,36.1991,217.882,36.261Q218.17,36.369,218.674,36.009Q219.368,35.6384,219.616,35.8341ZM22.7577,37.729Q22.7937,37.873,22.6497,38.089Q21.4977,39.601,21.0657,39.313Q20.7777,39.097,20.9217,38.701Q21.0657,38.305,21.4977,37.981Q21.9297,37.657,22.3617,37.657Q22.7217,37.585,22.7577,37.729ZM20.6337,39.097Q20.7057,39.169,20.4897,39.673Q20.4177,39.817,20.3457,39.889Q19.9691,40.1715,19.8387,40.0845Q19.7697,40.0385,19.7697,39.889Q19.7697,39.817,20.1657,39.421Q20.549,39.0377,20.6287,39.0929Q20.6314,39.0947,20.6337,39.097ZM22.1587,40.1452Q22.2111,40.1949,21.7137,40.825Q20.9937,41.545,20.9577,41.617Q20.9521,41.6281,20.9432,41.634Q20.894,41.6668,20.7417,41.545Q20.7237,41.5306,20.7147,41.5118Q20.6338,41.3433,21.2817,40.825Q22.0973,40.0871,22.1587,40.1452ZM210.754,45.297L212.77,45.873L213.85,46.161L213.13,46.881Q212.77,47.241,211.942,47.961Q211.114,48.681,210.394,49.221L209.674,49.761Q209.674,49.545,209.602,48.357Q209.53,47.169,209.53,46.089L209.53,45.009Q209.746,45.009,210.754,45.297ZM87.666,45.4211Q87.5694,45.4853,87.1185,45.7419Q86.7672,46.0417,86.8068,46.108Q86.8181,46.1268,86.8608,46.1268Q87.054,46.1268,87.4083,45.7419Q87.6993,45.4257,87.6861,45.4125Q87.6833,45.4096,87.666,45.4211ZM6.05256,49.1768Q6.06004,49.2066,6.01768,49.249Q5.94569,49.537,5.51369,49.537Q5.36971,49.537,5.2617,49.465Q5.1537,49.393,5.1537,49.249Q5.36971,49.105,5.80171,49.105Q5.94569,49.105,6.01768,49.141Q6.04733,49.1558,6.05256,49.1768ZM54.2577,50.401Q54.2577,50.617,54.0417,50.617Q53.8257,50.617,53.8257,50.401Q53.8257,50.185,54.0417,50.185Q54.1497,50.185,54.2037,50.239Q54.2577,50.293,54.2577,50.401ZM56.0309,50.5452Q56.0924,50.617,56.2377,50.617Q56.3613,50.617,56.3896,50.565Q56.4191,50.5111,56.3457,50.401Q56.2017,50.185,56.0937,50.185Q56.0721,50.185,56.0548,50.1936Q55.9857,50.2282,55.9857,50.401Q55.9857,50.4925,56.0309,50.5452ZM51.5247,50.6374Q51.5937,50.6835,51.5937,50.833Q51.5937,50.977,51.1257,50.977Q50.8689,50.977,50.8614,50.9337Q50.8552,50.898,51.0177,50.833Q51.3943,50.5505,51.5247,50.6374ZM43.0874,50.9564Q43.1491,51.0182,43.0257,51.265Q42.8097,51.553,42.5937,51.553Q42.53,51.553,42.5038,51.5216Q42.4414,51.4468,42.5937,51.193Q42.9537,50.905,43.0617,50.941Q43.0771,50.9461,43.0874,50.9564ZM47.2017,51.265Q47.2017,51.553,46.9857,51.553Q46.9067,51.553,46.8758,51.5144Q46.8224,51.4476,46.9137,51.265Q47.0577,50.977,47.1297,50.977Q47.1339,50.977,47.1379,50.978Q47.2017,50.994,47.2017,51.265ZM52.9174,51.1397Q52.9617,51.1728,52.9617,51.265Q52.9617,51.3774,52.9069,51.4459Q52.8212,51.553,52.6017,51.553Q52.4347,51.553,52.4071,51.491Q52.3753,51.4194,52.5297,51.265Q52.8234,51.0692,52.9174,51.1397ZM209.502,52.7449Q209.478,52.7329,209.458,52.713Q209.386,52.641,209.638,52.389Q209.89,52.137,210.286,51.813Q210.682,51.489,210.898,51.489Q210.912,51.489,210.918,51.4961Q210.974,51.5603,210.358,52.209Q209.737,52.8625,209.502,52.7449ZM51.4497,51.841L50.5857,51.985Q50.2516,52.0685,50.2566,52.1036Q50.2603,52.129,50.4417,52.129Q50.8737,52.129,51.3057,51.985Q51.4497,51.913,51.4497,51.841Z" fill-rule="evenodd" fill="#FFFFFF" fill-opacity="1"/></g></svg>