<svg width="1024" height="335" viewBox="0 0 1024 335" fill="none" xmlns="http://www.w3.org/2000/svg">
<path d="M250.632 258.413H254.475C255.166 258.413 255.512 258.067 255.512 257.376V241.942C255.512 241.535 255.756 241.332 256.244 241.332H269.116C269.522 241.332 269.726 241.535 269.726 241.942V257.376C269.726 258.067 270.071 258.413 270.763 258.413H274.667C275.358 258.413 275.704 258.067 275.704 257.376V220.225C275.704 219.534 275.358 219.188 274.667 219.188H270.763C270.071 219.188 269.726 219.534 269.726 220.225V235.476C269.726 235.882 269.522 236.086 269.116 236.086H256.244C255.756 236.086 255.512 235.882 255.512 235.476V220.225C255.512 219.534 255.166 219.188 254.475 219.188H250.632C249.941 219.188 249.595 219.534 249.595 220.225V257.376C249.595 258.067 249.941 258.413 250.632 258.413Z" fill="black"/>
<path d="M305.059 219.188H308.903C309.635 219.188 310.001 219.513 310.001 220.164V248.957C310.001 251.926 309.147 254.244 307.439 255.912C305.771 257.579 303.453 258.413 300.484 258.413H293.713C290.744 258.413 288.426 257.579 286.759 255.912C285.091 254.244 284.258 251.926 284.258 248.957V220.225C284.258 219.534 284.603 219.188 285.295 219.188H289.138C289.829 219.188 290.175 219.534 290.175 220.225V248.713C290.175 251.723 291.639 253.227 294.567 253.227H299.569C302.538 253.227 304.022 251.723 304.022 248.713V220.225C304.022 219.534 304.368 219.188 305.059 219.188Z" fill="black"/>
<path d="M352.131 219.188H345.299C344.77 219.188 344.465 219.412 344.384 219.859L335.966 243.406H335.661L327.303 219.859C327.1 219.412 326.775 219.188 326.327 219.188H319.495C318.804 219.188 318.458 219.534 318.458 220.225V257.376C318.458 258.067 318.804 258.413 319.495 258.413H323.216C323.623 258.413 323.887 258.352 324.009 258.23C324.172 258.067 324.253 257.782 324.253 257.376V226.508H324.497L332.611 248.896C332.855 249.547 333.282 249.872 333.892 249.872H337.796C338.447 249.872 338.894 249.547 339.138 248.896L347.068 226.569H347.312V257.376C347.312 258.067 347.658 258.413 348.349 258.413H352.131C352.823 258.413 353.169 258.067 353.169 257.376V220.225C353.169 219.534 352.823 219.188 352.131 219.188Z" fill="black"/>
<path fill-rule="evenodd" clip-rule="evenodd" d="M364.139 258.413H359.747C359.178 258.413 358.975 258.067 359.137 257.376L369.752 220.225C369.955 219.534 370.443 219.188 371.216 219.188H377.316C378.129 219.188 378.617 219.534 378.78 220.225L389.394 257.376C389.557 258.067 389.333 258.413 388.723 258.413H384.392C384.026 258.413 383.762 258.352 383.599 258.23C383.477 258.067 383.376 257.782 383.294 257.376L380.976 249.445H367.556L365.237 257.376C365.075 258.067 364.709 258.413 364.139 258.413ZM374.144 225.044L368.776 244.565H379.817L374.388 225.044H374.144Z" fill="black"/>
<path d="M396.401 258.413H400.183C400.874 258.413 401.22 258.067 401.22 257.376V231.206H401.464L416.104 257.437C416.511 258.087 417.04 258.413 417.691 258.413H420.985C421.676 258.413 422.022 258.067 422.022 257.376V220.225C422.022 219.534 421.676 219.188 420.985 219.188H417.202C416.511 219.188 416.165 219.534 416.165 220.225V246.395H415.921L401.159 219.859C400.915 219.412 400.467 219.188 399.817 219.188H396.401C395.709 219.188 395.364 219.534 395.364 220.225V257.376C395.364 258.067 395.709 258.413 396.401 258.413Z" fill="black"/>
<path d="M430.136 248.896V247.31C430.136 246.619 430.481 246.273 431.173 246.273H435.077C435.768 246.273 436.114 246.619 436.114 247.31V248.408C436.114 250.116 436.48 251.357 437.212 252.129C437.985 252.861 439.245 253.227 440.994 253.227H445.203C446.952 253.227 448.213 252.841 448.985 252.068C449.758 251.255 450.144 249.954 450.144 248.164V246.761C450.144 245.46 449.636 244.443 448.619 243.711C447.643 242.938 446.423 242.45 444.959 242.247C443.495 242.003 441.889 241.678 440.14 241.271C438.391 240.864 436.785 240.397 435.321 239.868C433.857 239.339 432.616 238.343 431.6 236.879C430.624 235.415 430.136 233.544 430.136 231.267V228.704C430.136 225.736 430.969 223.418 432.637 221.75C434.345 220.042 436.683 219.188 439.652 219.188H446.118C449.128 219.188 451.466 220.042 453.134 221.75C454.842 223.418 455.696 225.736 455.696 228.704V230.047C455.696 230.738 455.35 231.084 454.659 231.084H450.754C450.063 231.084 449.717 230.738 449.717 230.047V229.254C449.717 227.505 449.331 226.264 448.558 225.532C447.826 224.76 446.586 224.373 444.837 224.373H440.994C439.245 224.373 437.985 224.78 437.212 225.593C436.48 226.366 436.114 227.708 436.114 229.62V231.511C436.114 233.341 437.436 234.581 440.079 235.232C441.258 235.516 442.539 235.76 443.922 235.964C445.346 236.167 446.769 236.472 448.192 236.879C449.616 237.286 450.917 237.835 452.096 238.526C453.276 239.177 454.232 240.193 454.964 241.576C455.696 242.918 456.062 244.565 456.062 246.517V248.896C456.062 251.865 455.208 254.204 453.5 255.912C451.832 257.579 449.514 258.413 446.545 258.413H439.713C436.744 258.413 434.406 257.579 432.698 255.912C430.99 254.204 430.136 251.865 430.136 248.896Z" fill="black"/>
<path d="M468.07 222.909V220.164C468.07 219.513 467.745 219.188 467.094 219.188H463.617C462.966 219.188 462.641 219.534 462.641 220.225V232.792C462.641 233.442 462.905 233.768 463.434 233.768C463.841 233.768 464.146 233.585 464.349 233.219L466.972 227.24C467.704 225.492 468.07 224.048 468.07 222.909Z" fill="black"/>
<path d="M510.582 258.413H490.818C490.126 258.413 489.781 258.067 489.781 257.376V220.225C489.781 219.534 490.126 219.188 490.818 219.188H494.661C495.352 219.188 495.698 219.534 495.698 220.225V252.495C495.698 252.902 495.942 253.105 496.43 253.105H510.582C511.274 253.105 511.619 253.471 511.619 254.204V257.376C511.619 258.067 511.274 258.413 510.582 258.413Z" fill="black"/>
<path fill-rule="evenodd" clip-rule="evenodd" d="M514.926 258.413H519.318C519.887 258.413 520.253 258.067 520.416 257.376L522.734 249.445H536.154L538.473 257.376C538.554 257.782 538.655 258.067 538.778 258.23C538.94 258.352 539.205 258.413 539.571 258.413H543.902C544.512 258.413 544.735 258.067 544.573 257.376L533.958 220.225C533.796 219.534 533.308 219.188 532.494 219.188H526.394C525.621 219.188 525.133 219.534 524.93 220.225L514.316 257.376C514.153 258.067 514.356 258.413 514.926 258.413ZM523.954 244.565L529.322 225.044H529.566L534.995 244.565H523.954Z" fill="black"/>
<path d="M549.81 248.896V247.31C549.81 246.619 550.155 246.273 550.847 246.273H554.751C555.442 246.273 555.788 246.619 555.788 247.31V248.408C555.788 250.116 556.154 251.357 556.886 252.129C557.659 252.861 558.92 253.227 560.668 253.227H564.877C566.626 253.227 567.887 252.841 568.66 252.068C569.432 251.255 569.819 249.954 569.819 248.164V246.761C569.819 245.46 569.31 244.443 568.294 243.711C567.318 242.938 566.097 242.45 564.633 242.247C563.169 242.003 561.563 241.678 559.814 241.271C558.065 240.864 556.459 240.397 554.995 239.868C553.531 239.339 552.291 238.343 551.274 236.879C550.298 235.415 549.81 233.544 549.81 231.267V228.704C549.81 225.736 550.644 223.418 552.311 221.75C554.019 220.042 556.357 219.188 559.326 219.188H565.792C568.802 219.188 571.14 220.042 572.808 221.75C574.516 223.418 575.37 225.736 575.37 228.704V230.047C575.37 230.738 575.024 231.084 574.333 231.084H570.429C569.737 231.084 569.392 230.738 569.392 230.047V229.254C569.392 227.505 569.005 226.264 568.233 225.532C567.501 224.76 566.26 224.373 564.511 224.373H560.668C558.92 224.373 557.659 224.78 556.886 225.593C556.154 226.366 555.788 227.708 555.788 229.62V231.511C555.788 233.341 557.11 234.581 559.753 235.232C560.933 235.516 562.214 235.76 563.596 235.964C565.02 236.167 566.443 236.472 567.867 236.879C569.29 237.286 570.591 237.835 571.771 238.526C572.95 239.177 573.906 240.193 574.638 241.576C575.37 242.918 575.736 244.565 575.736 246.517V248.896C575.736 251.865 574.882 254.204 573.174 255.912C571.506 257.579 569.188 258.413 566.219 258.413H559.387C556.418 258.413 554.08 257.579 552.372 255.912C550.664 254.204 549.81 251.865 549.81 248.896Z" fill="black"/>
<path d="M590.794 258.413H594.638C595.329 258.413 595.675 258.067 595.675 257.376V224.983C595.675 224.577 595.898 224.373 596.346 224.373H604.032C604.764 224.373 605.13 224.028 605.13 223.336V220.225C605.13 219.534 604.764 219.188 604.032 219.188H581.4C580.668 219.188 580.302 219.534 580.302 220.225V223.336C580.302 224.028 580.668 224.373 581.4 224.373H589.086C589.493 224.373 589.696 224.577 589.696 224.983V257.376C589.696 258.067 590.062 258.413 590.794 258.413Z" fill="black"/>
<path fill-rule="evenodd" clip-rule="evenodd" d="M640.687 258.413H633.611C630.601 258.413 628.263 257.579 626.595 255.912C624.969 254.244 624.155 251.926 624.155 248.957V228.643C624.155 225.634 624.969 223.316 626.595 221.689C628.263 220.022 630.601 219.188 633.611 219.188H640.687C643.696 219.188 646.035 220.022 647.702 221.689C649.37 223.316 650.203 225.634 650.203 228.643V248.957C650.203 251.926 649.37 254.244 647.702 255.912C646.035 257.579 643.696 258.413 640.687 258.413ZM634.465 253.227H639.772C642.741 253.227 644.225 251.723 644.225 248.713V228.888C644.225 225.878 642.741 224.373 639.772 224.373H634.465C631.537 224.373 630.073 225.878 630.073 228.888V248.713C630.073 251.723 631.537 253.227 634.465 253.227Z" fill="black"/>
<path d="M659.4 258.413H679.165C679.856 258.413 680.202 258.067 680.202 257.376V254.204C680.202 253.471 679.856 253.105 679.165 253.105H665.012C664.524 253.105 664.28 252.902 664.28 252.495V220.225C664.28 219.534 663.934 219.188 663.243 219.188H659.4C658.708 219.188 658.363 219.534 658.363 220.225V257.376C658.363 258.067 658.708 258.413 659.4 258.413Z" fill="black"/>
<path d="M698.758 258.413H694.854C694.163 258.413 693.817 258.067 693.817 257.376V243.894L682.41 220.286C682.247 219.961 682.247 219.696 682.41 219.493C682.572 219.29 682.796 219.188 683.081 219.188H687.961C688.49 219.188 688.896 219.534 689.181 220.225L696.684 237.001H697.05L704.432 220.225C704.675 219.534 705.082 219.188 705.652 219.188H710.532C710.857 219.188 711.081 219.29 711.203 219.493C711.365 219.696 711.365 219.961 711.203 220.286L699.795 243.894V257.376C699.795 258.067 699.45 258.413 698.758 258.413Z" fill="black"/>
<path d="M750.355 219.188H743.523C742.994 219.188 742.689 219.412 742.608 219.859L734.189 243.406H733.884L725.527 219.859C725.324 219.412 724.998 219.188 724.551 219.188H717.719C717.027 219.188 716.682 219.534 716.682 220.225V257.376C716.682 258.067 717.027 258.413 717.719 258.413H721.44C721.847 258.413 722.111 258.352 722.233 258.23C722.396 258.067 722.477 257.782 722.477 257.376V226.508H722.721L730.834 248.896C731.078 249.547 731.505 249.872 732.115 249.872H736.019C736.67 249.872 737.117 249.547 737.361 248.896L745.292 226.569H745.536V257.376C745.536 258.067 745.881 258.413 746.573 258.413H750.355C751.046 258.413 751.392 258.067 751.392 257.376V220.225C751.392 219.534 751.046 219.188 750.355 219.188Z" fill="black"/>
<path fill-rule="evenodd" clip-rule="evenodd" d="M765.108 258.413H761.265C760.574 258.413 760.228 258.067 760.228 257.376V220.225C760.228 219.534 760.574 219.188 761.265 219.188H775.784C778.752 219.188 781.071 220.022 782.738 221.689C784.405 223.316 785.239 225.634 785.239 228.643V234.988C785.239 237.957 784.405 240.275 782.738 241.942C781.071 243.609 778.752 244.443 775.784 244.443H766.877C766.389 244.443 766.145 244.646 766.145 245.053V257.376C766.145 258.067 765.8 258.413 765.108 258.413ZM766.816 239.197H774.93C777.817 239.197 779.261 237.692 779.261 234.683V228.888C779.261 225.878 777.817 224.373 774.93 224.373H766.816C766.369 224.373 766.145 224.577 766.145 224.983V238.587C766.145 238.994 766.369 239.197 766.816 239.197Z" fill="black"/>
<path d="M798.618 257.376V220.225C798.618 219.534 798.272 219.188 797.581 219.188H793.738C793.047 219.188 792.701 219.534 792.701 220.225V257.376C792.701 258.067 793.047 258.413 793.738 258.413H797.581C798.272 258.413 798.618 258.067 798.618 257.376Z" fill="black"/>
<path d="M823.686 258.413H816.609C813.6 258.413 811.262 257.579 809.594 255.912C807.967 254.244 807.154 251.926 807.154 248.957V228.643C807.154 225.634 807.967 223.316 809.594 221.689C811.262 220.022 813.6 219.188 816.609 219.188H823.686C826.655 219.188 828.973 220.022 830.64 221.689C832.307 223.316 833.141 225.634 833.141 228.643V231.572C833.141 232.304 832.775 232.67 832.043 232.67H828.2C827.509 232.67 827.163 232.304 827.163 231.572V228.888C827.163 225.878 825.699 224.373 822.771 224.373H817.464C814.535 224.373 813.071 225.878 813.071 228.888V248.713C813.071 251.723 814.535 253.227 817.464 253.227H822.771C825.699 253.227 827.163 251.723 827.163 248.713V246.029C827.163 245.297 827.509 244.931 828.2 244.931H832.043C832.775 244.931 833.141 245.297 833.141 246.029V248.957C833.141 251.926 832.307 254.244 830.64 255.912C828.973 257.579 826.655 258.413 823.686 258.413Z" fill="black"/>
<path d="M863.967 258.413H870.494C873.463 258.413 875.781 257.579 877.448 255.912C879.116 254.244 879.95 251.926 879.95 248.957V238.709C879.95 237.855 879.523 237.428 878.669 237.428H868.42C867.729 237.428 867.383 237.774 867.383 238.465V241.576C867.383 242.267 867.729 242.613 868.42 242.613H873.361C873.809 242.613 874.032 242.816 874.032 243.223V248.713C874.032 251.723 872.568 253.227 869.64 253.227H864.821C861.893 253.227 860.429 251.723 860.429 248.713V228.888C860.429 225.878 861.893 224.373 864.821 224.373H869.64C872.568 224.373 874.032 225.878 874.032 228.888V230.84C874.032 231.572 874.378 231.938 875.069 231.938H878.913C879.604 231.938 879.95 231.572 879.95 230.84V228.643C879.95 225.634 879.116 223.316 877.448 221.689C875.822 220.022 873.504 219.188 870.494 219.188H863.967C860.957 219.188 858.619 220.022 856.952 221.689C855.325 223.316 854.512 225.634 854.512 228.643V248.957C854.512 251.926 855.325 254.244 856.952 255.912C858.619 257.579 860.957 258.413 863.967 258.413Z" fill="black"/>
<path fill-rule="evenodd" clip-rule="evenodd" d="M890.318 258.413H885.926C885.357 258.413 885.153 258.067 885.316 257.376L895.93 220.225C896.134 219.534 896.622 219.188 897.394 219.188H903.495C904.308 219.188 904.796 219.534 904.959 220.225L915.573 257.376C915.736 258.067 915.512 258.413 914.902 258.413H910.571C910.205 258.413 909.941 258.352 909.778 258.23C909.656 258.067 909.554 257.782 909.473 257.376L907.155 249.445H893.734L891.416 257.376C891.254 258.067 890.887 258.413 890.318 258.413ZM900.323 225.044L894.954 244.565H905.996L900.567 225.044H900.323Z" fill="black"/>
<path d="M955.216 219.188H948.383C947.855 219.188 947.55 219.412 947.468 219.859L939.05 243.406H938.745L930.388 219.859C930.184 219.412 929.859 219.188 929.412 219.188H922.579C921.888 219.188 921.542 219.534 921.542 220.225V257.376C921.542 258.067 921.888 258.413 922.579 258.413H926.301C926.707 258.413 926.972 258.352 927.094 258.23C927.256 258.067 927.338 257.782 927.338 257.376V226.508H927.582L935.695 248.896C935.939 249.547 936.366 249.872 936.976 249.872H940.88C941.531 249.872 941.978 249.547 942.222 248.896L950.152 226.569H950.397V257.376C950.397 258.067 950.742 258.413 951.434 258.413H955.216C955.907 258.413 956.253 258.067 956.253 257.376V220.225C956.253 219.534 955.907 219.188 955.216 219.188Z" fill="black"/>
<path d="M985.646 258.413H966.125C965.434 258.413 965.088 258.067 965.088 257.376V220.225C965.088 219.534 965.434 219.188 966.125 219.188H985.646C986.297 219.188 986.622 219.534 986.622 220.225V223.336C986.622 224.028 986.297 224.373 985.646 224.373H971.738C971.25 224.373 971.006 224.577 971.006 224.983V235.293C971.006 235.699 971.25 235.903 971.738 235.903H983.511C984.243 235.903 984.609 236.248 984.609 236.94V240.051C984.609 240.742 984.243 241.088 983.511 241.088H971.738C971.25 241.088 971.006 241.291 971.006 241.698V252.556C971.006 253.004 971.25 253.227 971.738 253.227H985.646C986.297 253.227 986.622 253.573 986.622 254.265V257.376C986.622 258.067 986.297 258.413 985.646 258.413Z" fill="black"/>
<path d="M993.605 248.896V247.31C993.605 246.619 993.951 246.273 994.642 246.273H998.546C999.238 246.273 999.583 246.619 999.583 247.31V248.408C999.583 250.116 999.949 251.357 1000.68 252.129C1001.45 252.861 1002.71 253.227 1004.46 253.227H1008.67C1010.42 253.227 1011.68 252.841 1012.45 252.068C1013.23 251.255 1013.61 249.954 1013.61 248.164V246.761C1013.61 245.46 1013.11 244.443 1012.09 243.711C1011.11 242.938 1009.89 242.45 1008.43 242.247C1006.96 242.003 1005.36 241.678 1003.61 241.271C1001.86 240.864 1000.25 240.397 998.79 239.868C997.326 239.339 996.086 238.343 995.069 236.879C994.093 235.415 993.605 233.544 993.605 231.267V228.704C993.605 225.736 994.439 223.418 996.106 221.75C997.814 220.042 1000.15 219.188 1003.12 219.188H1009.59C1012.6 219.188 1014.94 220.042 1016.6 221.75C1018.31 223.418 1019.17 225.736 1019.17 228.704V230.047C1019.17 230.738 1018.82 231.084 1018.13 231.084H1014.22C1013.53 231.084 1013.19 230.738 1013.19 230.047V229.254C1013.19 227.505 1012.8 226.264 1012.03 225.532C1011.3 224.76 1010.06 224.373 1008.31 224.373H1004.46C1002.71 224.373 1001.45 224.78 1000.68 225.593C999.949 226.366 999.583 227.708 999.583 229.62V231.511C999.583 233.341 1000.91 234.581 1003.55 235.232C1004.73 235.516 1006.01 235.76 1007.39 235.964C1008.82 236.167 1010.24 236.472 1011.66 236.879C1013.09 237.286 1014.39 237.835 1015.57 238.526C1016.75 239.177 1017.7 240.193 1018.43 241.576C1019.17 242.918 1019.53 244.565 1019.53 246.517V248.896C1019.53 251.865 1018.68 254.204 1016.97 255.912C1015.3 257.579 1012.98 258.413 1010.01 258.413H1003.18C1000.21 258.413 997.875 257.579 996.167 255.912C994.459 254.204 993.605 251.865 993.605 248.896Z" fill="black"/>
<path d="M774.49 295.336H781.323C782.014 295.336 782.36 295.682 782.36 296.373V333.524C782.36 334.215 782.014 334.561 781.323 334.561H777.54C776.849 334.561 776.503 334.215 776.503 333.524V302.717H776.259L768.329 325.044C768.085 325.695 767.638 326.02 766.987 326.02H763.083C762.473 326.02 762.046 325.695 761.802 325.044L753.688 302.656H753.444V333.524C753.444 333.93 753.363 334.215 753.2 334.378C753.078 334.5 752.814 334.561 752.407 334.561H748.686C747.995 334.561 747.649 334.215 747.649 333.524V296.373C747.649 295.682 747.995 295.336 748.686 295.336H755.519C755.966 295.336 756.291 295.56 756.495 296.007L764.852 319.554H765.157L773.575 296.007C773.657 295.56 773.962 295.336 774.49 295.336Z" fill="black"/>
<path d="M719.438 334.561H738.958C739.609 334.561 739.934 334.215 739.934 333.524V330.412C739.934 329.721 739.609 329.375 738.958 329.375H725.05C724.562 329.375 724.318 329.152 724.318 328.704V317.846C724.318 317.439 724.562 317.236 725.05 317.236H736.823C737.555 317.236 737.921 316.89 737.921 316.199V313.088C737.921 312.396 737.555 312.051 736.823 312.051H725.05C724.562 312.051 724.318 311.847 724.318 311.441V301.131C724.318 300.725 724.562 300.521 725.05 300.521H738.958C739.609 300.521 739.934 300.176 739.934 299.484V296.373C739.934 295.682 739.609 295.336 738.958 295.336H719.438C718.746 295.336 718.401 295.682 718.401 296.373V333.524C718.401 334.215 718.746 334.561 719.438 334.561Z" fill="black"/>
<path d="M702.748 334.561H698.904C698.172 334.561 697.806 334.215 697.806 333.524V301.131C697.806 300.725 697.603 300.521 697.196 300.521H689.51C688.778 300.521 688.412 300.176 688.412 299.484V296.373C688.412 295.682 688.778 295.336 689.51 295.336H712.142C712.874 295.336 713.24 295.682 713.24 296.373V299.484C713.24 300.176 712.874 300.521 712.142 300.521H704.456C704.008 300.521 703.785 300.725 703.785 301.131V333.524C703.785 334.215 703.439 334.561 702.748 334.561Z" fill="black"/>
<path d="M657.92 323.458V325.044C657.92 328.013 658.774 330.351 660.482 332.059C662.19 333.727 664.529 334.561 667.497 334.561H674.33C677.298 334.561 679.616 333.727 681.284 332.059C682.992 330.351 683.846 328.013 683.846 325.044V322.665C683.846 320.713 683.48 319.066 682.748 317.724C682.016 316.341 681.06 315.324 679.881 314.674C678.701 313.982 677.4 313.433 675.977 313.027C674.553 312.62 673.13 312.315 671.706 312.112C670.324 311.908 669.043 311.664 667.863 311.38C665.22 310.729 663.898 309.489 663.898 307.659V305.767C663.898 303.856 664.264 302.514 664.996 301.741C665.769 300.928 667.03 300.521 668.778 300.521H672.621C674.37 300.521 675.611 300.908 676.343 301.68C677.115 302.412 677.502 303.653 677.502 305.401V306.194C677.502 306.886 677.847 307.231 678.539 307.231H682.443C683.134 307.231 683.48 306.886 683.48 306.194V304.852C683.48 301.884 682.626 299.566 680.918 297.898C679.25 296.19 676.912 295.336 673.903 295.336H667.436C664.468 295.336 662.129 296.19 660.421 297.898C658.754 299.566 657.92 301.884 657.92 304.852V307.415C657.92 309.692 658.408 311.563 659.384 313.027C660.401 314.491 661.641 315.487 663.105 316.016C664.569 316.545 666.176 317.012 667.924 317.419C669.673 317.826 671.279 318.151 672.744 318.395C674.208 318.598 675.428 319.086 676.404 319.859C677.42 320.591 677.929 321.608 677.929 322.909V324.312C677.929 326.102 677.542 327.403 676.77 328.216C675.997 328.989 674.736 329.375 672.988 329.375H668.778C667.03 329.375 665.769 329.009 664.996 328.277C664.264 327.505 663.898 326.264 663.898 324.556V323.458C663.898 322.767 663.552 322.421 662.861 322.421H658.957C658.266 322.421 657.92 322.767 657.92 323.458Z" fill="black"/>
<path d="M640.729 334.561H636.825C636.133 334.561 635.787 334.215 635.787 333.524V320.042L624.38 296.434C624.217 296.109 624.217 295.844 624.38 295.641C624.543 295.438 624.766 295.336 625.051 295.336H629.931C630.46 295.336 630.867 295.682 631.151 296.373L638.655 313.149H639.021L646.402 296.373C646.646 295.682 647.053 295.336 647.622 295.336H652.502C652.828 295.336 653.051 295.438 653.173 295.641C653.336 295.844 653.336 296.109 653.173 296.434L641.766 320.042V333.524C641.766 334.215 641.42 334.561 640.729 334.561Z" fill="black"/>
<path d="M593.644 323.458V325.044C593.644 328.013 594.498 330.351 596.206 332.059C597.914 333.727 600.252 334.561 603.221 334.561H610.053C613.022 334.561 615.34 333.727 617.008 332.059C618.716 330.351 619.57 328.013 619.57 325.044V322.665C619.57 320.713 619.204 319.066 618.472 317.724C617.74 316.341 616.784 315.324 615.605 314.674C614.425 313.982 613.124 313.433 611.701 313.027C610.277 312.62 608.854 312.315 607.43 312.112C606.048 311.908 604.767 311.664 603.587 311.38C600.944 310.729 599.622 309.489 599.622 307.659V305.767C599.622 303.856 599.988 302.514 600.72 301.741C601.493 300.928 602.754 300.521 604.502 300.521H608.345C610.094 300.521 611.335 300.908 612.067 301.68C612.839 302.412 613.226 303.653 613.226 305.401V306.194C613.226 306.886 613.571 307.231 614.263 307.231H618.167C618.858 307.231 619.204 306.886 619.204 306.194V304.852C619.204 301.884 618.35 299.566 616.642 297.898C614.974 296.19 612.636 295.336 609.626 295.336H603.16C600.191 295.336 597.853 296.19 596.145 297.898C594.478 299.566 593.644 301.884 593.644 304.852V307.415C593.644 309.692 594.132 311.563 595.108 313.027C596.125 314.491 597.365 315.487 598.829 316.016C600.293 316.545 601.899 317.012 603.648 317.419C605.397 317.826 607.003 318.151 608.467 318.395C609.931 318.598 611.152 319.086 612.128 319.859C613.144 320.591 613.653 321.608 613.653 322.909V324.312C613.653 326.102 613.266 327.403 612.494 328.216C611.721 328.989 610.46 329.375 608.711 329.375H604.502C602.754 329.375 601.493 329.009 600.72 328.277C599.988 327.505 599.622 326.264 599.622 324.556V323.458C599.622 322.767 599.276 322.421 598.585 322.421H594.681C593.99 322.421 593.644 322.767 593.644 323.458Z" fill="black"/>
<path fill-rule="evenodd" clip-rule="evenodd" d="M551.78 334.561H547.936C547.245 334.561 546.899 334.215 546.899 333.524V296.373C546.899 295.682 547.245 295.336 547.936 295.336H562.211C565.18 295.336 567.498 296.19 569.165 297.898C570.873 299.566 571.727 301.884 571.727 304.852V309.977C571.727 314.653 569.796 317.602 565.932 318.822V319.066L572.703 333.341C573.151 334.154 572.886 334.561 571.91 334.561H568.128C567.152 334.561 566.522 334.215 566.237 333.524L559.71 319.493H553.549C553.061 319.493 552.817 319.696 552.817 320.103V333.524C552.817 334.215 552.471 334.561 551.78 334.561ZM553.488 314.613H561.235C564.244 314.613 565.749 313.128 565.749 310.16V305.035C565.749 302.026 564.244 300.521 561.235 300.521H553.488C553.04 300.521 552.817 300.725 552.817 301.131V314.003C552.817 314.409 553.04 314.613 553.488 314.613Z" fill="black"/>
<path fill-rule="evenodd" clip-rule="evenodd" d="M511.283 334.561H515.675C516.245 334.561 516.611 334.215 516.773 333.524L519.091 325.593H532.512L534.83 333.524C534.911 333.93 535.013 334.215 535.135 334.378C535.298 334.5 535.562 334.561 535.928 334.561H540.259C540.869 334.561 541.093 334.215 540.93 333.524L530.316 296.373C530.153 295.682 529.665 295.336 528.852 295.336H522.751C521.979 295.336 521.491 295.682 521.287 296.373L510.673 333.524C510.51 334.215 510.714 334.561 511.283 334.561ZM520.311 320.713L525.68 301.192H525.924L531.353 320.713H520.311Z" fill="black"/>
<path d="M506.94 334.561H487.175C486.484 334.561 486.138 334.215 486.138 333.524V296.373C486.138 295.682 486.484 295.336 487.175 295.336H491.018C491.71 295.336 492.055 295.682 492.055 296.373V328.643C492.055 329.05 492.299 329.253 492.787 329.253H506.94C507.631 329.253 507.977 329.619 507.977 330.351V333.524C507.977 334.215 507.631 334.561 506.94 334.561Z" fill="black"/>
<path fill-rule="evenodd" clip-rule="evenodd" d="M461.386 334.561H468.462C471.471 334.561 473.81 333.727 475.477 332.059C477.145 330.392 477.978 328.074 477.978 325.105V304.791C477.978 301.782 477.145 299.464 475.477 297.837C473.81 296.17 471.471 295.336 468.462 295.336H461.386C458.376 295.336 456.038 296.17 454.37 297.837C452.744 299.464 451.93 301.782 451.93 304.791V325.105C451.93 328.074 452.744 330.392 454.37 332.059C456.038 333.727 458.376 334.561 461.386 334.561ZM467.547 329.375H462.24C459.311 329.375 457.847 327.871 457.847 324.861V305.035C457.847 302.026 459.311 300.521 462.24 300.521H467.547C470.516 300.521 472 302.026 472 305.035V324.861C472 327.871 470.516 329.375 467.547 329.375Z" fill="black"/>
<path d="M418.449 325.044V323.458C418.449 322.767 418.795 322.421 419.486 322.421H423.39C424.082 322.421 424.427 322.767 424.427 323.458V324.556C424.427 326.264 424.793 327.505 425.525 328.277C426.298 329.009 427.559 329.375 429.308 329.375H433.517C435.265 329.375 436.526 328.989 437.299 328.216C438.072 327.403 438.458 326.102 438.458 324.312V322.909C438.458 321.608 437.95 320.591 436.933 319.859C435.957 319.086 434.737 318.598 433.273 318.395C431.809 318.151 430.202 317.826 428.453 317.419C426.705 317.012 425.098 316.545 423.634 316.016C422.17 315.487 420.93 314.491 419.913 313.027C418.937 311.563 418.449 309.692 418.449 307.415V304.852C418.449 301.884 419.283 299.566 420.95 297.898C422.658 296.19 424.997 295.336 427.965 295.336H434.432C437.441 295.336 439.78 296.19 441.447 297.898C443.155 299.566 444.009 301.884 444.009 304.852V306.194C444.009 306.886 443.663 307.231 442.972 307.231H439.068C438.377 307.231 438.031 306.886 438.031 306.194V305.401C438.031 303.653 437.645 302.412 436.872 301.68C436.14 300.908 434.899 300.521 433.151 300.521H429.308C427.559 300.521 426.298 300.928 425.525 301.741C424.793 302.514 424.427 303.856 424.427 305.767V307.659C424.427 309.489 425.749 310.729 428.392 311.38C429.572 311.664 430.853 311.908 432.236 312.112C433.659 312.315 435.082 312.62 436.506 313.027C437.929 313.433 439.231 313.982 440.41 314.674C441.589 315.324 442.545 316.341 443.277 317.724C444.009 319.066 444.375 320.713 444.375 322.665V325.044C444.375 328.013 443.521 330.351 441.813 332.059C440.146 333.727 437.828 334.561 434.859 334.561H428.026C425.058 334.561 422.719 333.727 421.011 332.059C419.303 330.351 418.449 328.013 418.449 325.044Z" fill="black"/>
<path d="M376.495 334.561H396.016C396.666 334.561 396.992 334.215 396.992 333.524V330.412C396.992 329.721 396.666 329.375 396.016 329.375H382.107C381.619 329.375 381.375 329.152 381.375 328.704V317.846C381.375 317.439 381.619 317.236 382.107 317.236H393.88C394.612 317.236 394.978 316.89 394.978 316.199V313.088C394.978 312.396 394.612 312.051 393.88 312.051H382.107C381.619 312.051 381.375 311.847 381.375 311.441V301.131C381.375 300.725 381.619 300.521 382.107 300.521H396.016C396.666 300.521 396.992 300.176 396.992 299.484V296.373C396.992 295.682 396.666 295.336 396.016 295.336H376.495C375.803 295.336 375.458 295.682 375.458 296.373V333.524C375.458 334.215 375.803 334.561 376.495 334.561Z" fill="black"/>
<path d="M345.37 334.561H341.527C340.835 334.561 340.49 334.215 340.49 333.524V296.373C340.49 295.682 340.835 295.336 341.527 295.336H345.37C346.061 295.336 346.407 295.682 346.407 296.373V311.624C346.407 312.03 346.651 312.234 347.139 312.234H360.011C360.417 312.234 360.621 312.03 360.621 311.624V296.373C360.621 295.682 360.966 295.336 361.658 295.336H365.562C366.253 295.336 366.599 295.682 366.599 296.373V333.524C366.599 334.215 366.253 334.561 365.562 334.561H361.658C360.966 334.561 360.621 334.215 360.621 333.524V318.09C360.621 317.683 360.417 317.48 360.011 317.48H347.139C346.651 317.48 346.407 317.683 346.407 318.09V333.524C346.407 334.215 346.061 334.561 345.37 334.561Z" fill="black"/>
<path d="M320.994 334.561H324.837C325.528 334.561 325.874 334.215 325.874 333.524V301.131C325.874 300.725 326.098 300.521 326.545 300.521H334.231C334.963 300.521 335.329 300.176 335.329 299.484V296.373C335.329 295.682 334.963 295.336 334.231 295.336H311.599C310.867 295.336 310.501 295.682 310.501 296.373V299.484C310.501 300.176 310.867 300.521 311.599 300.521H319.286C319.692 300.521 319.896 300.725 319.896 301.131V333.524C319.896 334.215 320.262 334.561 320.994 334.561Z" fill="black"/>
<path d="M268.941 334.561H265.159C264.468 334.561 264.122 334.215 264.122 333.524V296.373C264.122 295.682 264.468 295.336 265.159 295.336H268.575C269.226 295.336 269.673 295.56 269.917 296.007L284.68 322.543H284.924V296.373C284.924 295.682 285.27 295.336 285.961 295.336H289.743C290.434 295.336 290.78 295.682 290.78 296.373V333.524C290.78 334.215 290.434 334.561 289.743 334.561H286.449C285.798 334.561 285.27 334.235 284.863 333.585L270.222 307.354H269.978V333.524C269.978 334.215 269.633 334.561 268.941 334.561Z" fill="black"/>
<path d="M254.976 333.524V296.373C254.976 295.682 254.63 295.336 253.939 295.336H250.095C249.404 295.336 249.058 295.682 249.058 296.373V333.524C249.058 334.215 249.404 334.561 250.095 334.561H253.939C254.63 334.561 254.976 334.215 254.976 333.524Z" fill="black"/>
<path d="M307.346 57.9819H261.535L249.479 68.7174V88.7077L288.799 128.505V137.942H268.397V126.28H249.479V149.604H307.346V118.692L268.397 79.4514V69.6429H289.169V79.8231H307.346V57.9819Z" fill="black"/>
<path d="M315.877 149.604V57.9819H334.309V85.0605H364.47V149.604H346.413V97.4869H334.309V149.604H315.877Z" fill="black"/>
<path fill-rule="evenodd" clip-rule="evenodd" d="M372.631 85.0604V105.405H390.992V97.0814H402.306V105.034L372.631 123.711V149.604H390.992L402.306 142.577V149.604H420.853V85.0604H372.631ZM390.807 124.484V138.105L402.306 130.954V117.332L390.807 124.484Z" fill="black"/>
<path d="M480.203 149.604V85.0604H429.755V149.604H448.302V97.1856H461.656V149.604H480.203Z" fill="black"/>
<path fill-rule="evenodd" clip-rule="evenodd" d="M488.364 97.4616V149.472H520.176V164.28H507.58V159.097H488.364V177.053H526.816L539.924 164.28V85.0604H501.121L488.364 97.4616ZM520.635 97.6722H507.282V137.363H520.635V97.6722Z" fill="black"/>
<path fill-rule="evenodd" clip-rule="evenodd" d="M584.066 85.0608V57.9819H603.355V149.604H584.066V98.0437H567.003V149.604H547.714V57.9819H567.003V85.0608H584.066Z" fill="black"/>
<path fill-rule="evenodd" clip-rule="evenodd" d="M611.145 85.0604V105.405H629.506V97.0814H640.82V105.034L611.145 123.711V149.604H629.506L640.82 142.577V149.604H659.367V85.0604H611.145ZM629.321 124.484V138.105L640.82 130.954V117.332L629.321 124.484Z" fill="black"/>
<path fill-rule="evenodd" clip-rule="evenodd" d="M687.187 57.9819H667.899V80.6092H687.187V57.9819ZM687.187 85.0604H667.898V149.604H687.187V85.0604Z" fill="black"/>
<path d="M721.685 81.4324V70.9184L734.111 57.9819H779.551V90.2612L740.417 129.501V138.902H779.551V149.604H721.685V119.564L761.19 80.3196V71.6603H740.417V81.4324H721.685Z" fill="black"/>
<path fill-rule="evenodd" clip-rule="evenodd" d="M787.712 70.9717V149.604H832.172L849.659 132.448V57.9819H801.104L787.712 70.9717ZM805.888 71.3356V139.217H820.022L831.483 128.15V71.3356H805.888Z" fill="black"/>
<path fill-rule="evenodd" clip-rule="evenodd" d="M857.077 89.8182L889.353 57.9819H914.874V120.36H920.879V132.022L903.239 149.604H897.047V132.393H857.077V89.8182ZM892.781 75.7868H897.139V120.67H875.995V92.574L892.781 75.7868Z" fill="black"/>
<path fill-rule="evenodd" clip-rule="evenodd" d="M928.298 89.8182L960.574 57.9819H986.094V120.36H992.099V132.022L974.46 149.604H968.267V132.393H928.298V89.8182ZM964.002 75.7868H968.36V120.67H947.216V92.574L964.002 75.7868Z" fill="black"/>
<rect x="1004.71" y="57.9819" width="19.2888" height="23.7401" fill="#EE334E"/>
<path d="M69.1037 50.9557L55.6344 52.7061L31.2334 28.5897L36.3088 24.5054L64.0283 44.9266C64.0283 44.9266 65.5512 41.8055 67.6345 35.2413L40.6033 16.7259L44.3123 13.6141L69.3463 29.453C69.7143 28.1193 70.0902 26.696 70.4702 25.1818C73.85 11.7125 75.5456 0 75.5456 0H80.8162C80.8162 0 79.1244 13.4196 76.1312 26.8393C73.138 40.2589 69.1037 50.9557 69.1037 50.9557Z" fill="#0081C8"/>
<path d="M95.652 3.12336V63.3789L74.1791 73.3982C74.1791 73.3982 77.5866 63.853 82.5584 45.0808C87.5303 26.3087 88.7354 3.12336 88.7354 3.12336H95.652Z" fill="#0081C8"/>
<path d="M99.5561 3.12336V63.3789L121.029 73.3982C121.029 73.3982 117.621 63.853 112.65 45.0808C107.678 26.3087 106.473 3.12336 106.473 3.12336H99.5561Z" fill="#0081C8"/>
<path d="M139.574 52.7061L126.104 50.9557C126.104 50.9557 122.07 40.2589 119.077 26.8393C116.084 13.4196 114.392 0 114.392 0H119.663C119.663 0 121.358 11.7125 124.738 25.1818C125.118 26.696 125.494 28.1193 125.862 29.453L150.896 13.6141L154.605 16.7259L127.574 35.2413C129.657 41.8056 131.18 44.9266 131.18 44.9266L158.899 24.5054L163.975 28.5897L139.574 52.7061Z" fill="#0081C8"/>
<path d="M50.9557 126.104L52.7061 139.574L28.5897 163.975L24.5054 158.899L44.9266 131.18C44.9266 131.18 41.8056 129.657 35.2414 127.574L16.726 154.605L13.6142 150.896L29.4531 125.862C28.1194 125.494 26.6961 125.118 25.1818 124.738C11.7125 121.358 0 119.662 0 119.662V114.392C0 114.392 13.4196 116.084 26.8393 119.077C40.2589 122.07 50.9557 126.104 50.9557 126.104Z" fill="#FCB131"/>
<path d="M3.12325 99.5561H63.3788L73.3981 121.029C73.3981 121.029 63.8529 117.621 45.0807 112.65C26.3086 107.678 3.12325 106.473 3.12325 106.473V99.5561Z" fill="#FCB131"/>
<path d="M3.12325 95.652H63.3788L73.3981 74.1792C73.3981 74.1792 63.8529 77.5867 45.0807 82.5585C26.3086 87.5303 3.12325 88.7355 3.12325 88.7355V95.652Z" fill="#FCB131"/>
<path d="M52.7061 55.6344L50.9557 69.1037C50.9557 69.1037 40.2589 73.138 26.8393 76.1312C13.4196 79.1244 0 80.8162 0 80.8162V75.5456C0 75.5456 11.7125 73.85 25.1818 70.4702C26.696 70.0902 28.1194 69.7143 29.453 69.3463L13.6142 44.3123L16.726 40.6033L35.2413 67.6345C41.8056 65.5512 44.9266 64.0283 44.9266 64.0283L24.5054 36.3088L28.5897 31.2334L52.7061 55.6344Z" fill="#FCB131"/>
<path d="M144.252 126.104L142.502 139.574L166.618 163.975L170.702 158.899L150.281 131.18C150.281 131.18 153.402 129.657 159.966 127.574L178.482 154.605L181.593 150.896L165.755 125.862C167.088 125.494 168.512 125.118 170.026 124.738C183.495 121.358 195.208 119.662 195.208 119.662V114.392C195.208 114.392 181.788 116.084 168.368 119.077C154.949 122.07 144.252 126.104 144.252 126.104Z" fill="#EE334E"/>
<path d="M192.084 99.5561H131.829L121.81 121.029C121.81 121.029 131.355 117.621 150.127 112.65C168.899 107.678 192.084 106.473 192.084 106.473V99.5561Z" fill="#EE334E"/>
<path d="M192.084 95.652H131.829L121.81 74.1792C121.81 74.1792 131.355 77.5867 150.127 82.5585C168.899 87.5303 192.084 88.7355 192.084 88.7355V95.652Z" fill="#EE334E"/>
<path d="M142.502 55.6344L144.252 69.1037C144.252 69.1037 154.949 73.138 168.368 76.1312C181.788 79.1244 195.208 80.8162 195.208 80.8162V75.5456C195.208 75.5456 183.495 73.85 170.026 70.4702C168.512 70.0902 167.088 69.7143 165.755 69.3462L181.593 44.3123L178.482 40.6033L159.966 67.6344C153.402 65.5512 150.281 64.0283 150.281 64.0283L170.702 36.3088L166.618 31.2334L142.502 55.6344Z" fill="#EE334E"/>
<path fill-rule="evenodd" clip-rule="evenodd" d="M69.1037 144.252L55.6344 142.502L31.2334 166.618L36.3088 170.702L64.0283 150.281C64.0283 150.281 65.5512 153.402 67.6344 159.966L40.6033 178.482L44.3123 181.594L69.3462 165.755C69.7143 167.088 70.0902 168.512 70.4702 170.026C73.85 183.495 75.5456 195.208 75.5456 195.208H80.8162C80.8162 195.208 79.1244 181.788 76.1312 168.369C73.138 154.949 69.1037 144.252 69.1037 144.252ZM95.652 192.084V131.829L74.1791 121.81C74.1791 121.81 77.5866 131.355 82.5585 150.127C87.5303 168.899 88.7355 192.084 88.7355 192.084H95.652ZM99.5561 192.084V131.829L121.029 121.81C121.029 121.81 117.621 131.355 112.65 150.127C107.678 168.899 106.473 192.084 106.473 192.084H99.5561ZM139.574 142.502L126.104 144.252C126.104 144.252 122.07 154.949 119.077 168.369C116.084 181.788 114.392 195.208 114.392 195.208H119.663C119.663 195.208 121.358 183.495 124.738 170.026C125.118 168.512 125.494 167.088 125.862 165.755L150.896 181.594L154.605 178.482L127.574 159.967C129.657 153.402 131.18 150.281 131.18 150.281L158.899 170.702L163.975 166.618L139.574 142.502Z" fill="#00A651"/>
</svg>
