<svg width="1025" height="333" viewBox="0 0 1025 333" fill="none" xmlns="http://www.w3.org/2000/svg">
<path fill-rule="evenodd" clip-rule="evenodd" d="M482.777 166.944C485.509 174.208 486.522 181.968 487.824 189.618C498.735 253.72 554.554 302.527 621.764 302.527C639.712 302.527 656.847 299.047 672.531 292.725L682.796 320.928C663.907 328.407 643.316 332.518 621.764 332.518C538.004 332.518 468.746 270.427 457.505 189.763C456.964 185.886 456.295 182.003 454.953 178.326C441.723 142.062 406.851 116.164 365.914 116.164C340.189 116.164 316.86 126.391 299.791 142.99C297.904 144.827 296.091 146.74 294.361 148.727L268.051 133.393L306.899 7.11523H435.045V37.1059H332.361L313.777 97.522C329.642 90.2367 347.302 86.1736 365.914 86.1736C419.416 86.1736 465.036 119.767 482.777 166.944ZM72.7199 7.1153H196.942V37.106H98.3324L79.637 97.523C95.5999 90.2371 113.369 86.1737 132.096 86.1737C201.439 86.1737 257.653 142.11 257.653 210.842C257.653 210.914 257.653 210.769 257.653 210.842C259.133 261.727 301.202 302.527 352.876 302.527C389.404 302.527 421.13 282.14 437.113 252.215L453.144 282.929C430.238 313.048 393.85 332.518 352.876 332.518C283.727 332.518 227.639 277.064 227.373 208.558C226.265 157.344 184.032 116.164 132.096 116.164C106.214 116.164 82.7417 126.391 65.568 142.989C63.6695 144.826 61.8455 146.739 60.1049 148.727L33.6335 133.392L72.7199 7.1153ZM118.022 332.518C63.1739 332.518 16.6131 297.036 0.0410156 247.773L28.4516 238.142C41.0113 275.565 76.3681 302.527 118.022 302.527C153.869 302.527 185.053 282.558 201.056 253.137C204.464 264.733 209.154 275.781 214.962 286.116C192.15 314.414 157.2 332.518 118.022 332.518Z" fill="black"/>
<path fill-rule="evenodd" clip-rule="evenodd" d="M625.854 0.855094L721.142 262.657C743.626 241.245 757.639 211.018 757.639 177.518C757.639 124.426 722.443 79.5546 674.111 64.9629L661.961 31.5831C733.074 42.1531 787.629 103.464 787.629 177.518C787.629 235.281 754.436 285.292 706.083 309.515C705.952 309.593 705.82 309.67 705.689 309.747L604.55 31.8765C550.386 38.7249 506.161 77.4618 491.278 128.684L468.718 102.636C493.769 42.8244 552.86 0.805664 621.764 0.805664C623.128 0.805664 624.491 0.822213 625.854 0.855094Z" fill="black"/>
<path fill-rule="evenodd" clip-rule="evenodd" d="M987.242 7.11523H1024.04L928.778 309.251H894.15L818.586 69.5914L802.371 121.018C796.855 105.172 789.083 90.3821 779.441 77.0332L801.486 7.11523H835.686L911.464 247.453L987.242 7.11523Z" fill="black"/>
</svg>
