<svg width="1024" height="356" viewBox="0 0 1024 356" fill="none" xmlns="http://www.w3.org/2000/svg">
<path fill-rule="evenodd" clip-rule="evenodd" d="M642.082 353.671C563.22 343.254 500.682 281.077 489.717 202.389C489.138 198.239 488.422 194.082 486.985 190.146C472.823 151.326 435.492 123.602 391.669 123.602C364.13 123.602 339.156 134.549 320.883 152.319C318.863 154.285 316.923 156.333 315.071 158.46L286.906 142.045L328.493 6.86426H465.673V38.9694H355.75L335.856 103.645C352.839 95.8462 371.745 91.4966 391.669 91.4966C448.942 91.4966 497.78 127.459 516.772 177.962C519.269 184.603 520.424 191.632 521.577 198.644C521.774 199.842 521.971 201.04 522.174 202.234C533.855 270.856 593.609 323.104 665.558 323.104C690.45 323.1 713.88 316.843 734.364 305.818C741.555 314.285 749.445 322.14 757.945 329.293C731.025 345.735 699.385 355.209 665.532 355.209C657.583 355.209 649.755 354.687 642.082 353.674L642.082 353.671ZM210.784 6.86433H77.8031L35.9609 142.045L64.2986 158.46C66.162 156.332 68.1145 154.284 70.1469 152.318C88.5315 134.549 113.658 123.602 141.365 123.602C196.963 123.602 242.174 167.684 243.36 222.51C243.645 295.846 303.687 355.209 377.712 355.209C421.575 355.209 460.528 334.367 485.049 302.124L467.888 269.245C450.778 301.28 416.815 323.104 377.712 323.104C322.394 323.104 277.359 279.427 275.775 224.954C275.775 151.377 215.598 91.4967 141.365 91.4967C121.318 91.4967 102.296 95.8466 85.2079 103.646L105.221 38.9695H210.784V6.86433ZM0 264.49C17.7405 317.226 67.5841 355.209 126.299 355.209C168.239 355.209 205.653 335.829 230.074 305.535C223.856 294.472 218.836 282.646 215.187 270.232C198.056 301.727 164.674 323.104 126.299 323.104C81.7085 323.104 43.8589 294.241 30.4137 254.179L0 264.49Z" fill="black"/>
<path fill-rule="evenodd" clip-rule="evenodd" d="M502.5 107.236C529.762 44.2125 592.497 0.11377 665.533 0.11377C710.047 0.11377 750.736 16.4959 781.898 43.5601C790.219 50.7877 797.863 58.7773 804.718 67.4201C796.019 73.7987 788.104 81.1821 781.142 89.3991C760.971 113.207 748.807 144.014 748.807 177.662C748.807 211.345 760.997 242.18 781.205 265.998C795.108 247.16 803.326 223.87 803.326 198.66C803.326 175.447 796.358 153.862 784.4 135.881C788.869 125.089 795.016 115.168 802.517 106.444C823.087 131.556 835.431 163.666 835.431 198.66C835.431 235.667 821.626 269.45 798.886 295.14L798.766 295.02C793.522 300.968 787.886 306.563 781.898 311.763C741.824 280.781 716.019 232.235 716.019 177.662C716.019 134.723 731.994 95.5164 758.324 65.6597C733.143 44.7742 700.804 32.2187 665.533 32.2187C599.663 32.2187 544.02 76.0067 526.126 136.062C519.225 125.668 511.302 116.012 502.5 107.236Z" fill="black"/>
<path fill-rule="evenodd" clip-rule="evenodd" d="M826.567 54.3378C844.39 45.8163 864.35 41.0448 885.423 41.0448C932.091 41.0448 973.294 64.4444 997.938 100.151L1023.87 80.0083C993.192 36.6007 942.618 8.25684 885.423 8.25684C855.805 8.25684 827.962 15.8579 803.738 29.2157C812.025 36.9342 819.665 45.3384 826.567 54.3378ZM885.423 314.278C932.049 314.278 973.22 290.92 997.872 255.268L1024 275.125C993.339 318.64 942.701 347.066 885.423 347.066C855.805 347.066 827.962 339.465 803.738 326.107C812.025 318.389 819.665 309.984 826.567 300.985C844.39 309.507 864.35 314.278 885.423 314.278Z" fill="black"/>
</svg>
