<svg width="1024" height="459" viewBox="0 0 1024 459" fill="none" xmlns="http://www.w3.org/2000/svg">
<path d="M1002.21 443.745V442.411C1002.21 441.83 1002.5 441.54 1003.08 441.54H1006.36C1006.94 441.54 1007.23 441.83 1007.23 442.411V443.334C1007.23 444.77 1007.54 445.813 1008.16 446.462C1008.81 447.078 1009.87 447.385 1011.34 447.385H1014.87C1016.34 447.385 1017.4 447.06 1018.05 446.411C1018.7 445.727 1019.03 444.633 1019.03 443.129V441.95C1019.03 440.856 1018.6 440.001 1017.74 439.386C1016.92 438.737 1015.9 438.326 1014.67 438.156C1013.44 437.95 1012.09 437.677 1010.62 437.335C1009.15 436.993 1007.8 436.6 1006.57 436.156C1005.34 435.711 1004.29 434.874 1003.44 433.643C1002.62 432.413 1002.21 430.84 1002.21 428.926V426.772C1002.21 424.277 1002.91 422.329 1004.31 420.927C1005.75 419.491 1007.71 418.773 1010.21 418.773H1015.64C1018.17 418.773 1020.14 419.491 1021.54 420.927C1022.97 422.329 1023.69 424.277 1023.69 426.772V427.9C1023.69 428.482 1023.4 428.772 1022.82 428.772H1019.54C1018.96 428.772 1018.67 428.482 1018.67 427.9V427.234C1018.67 425.764 1018.34 424.721 1017.69 424.106C1017.08 423.457 1016.04 423.132 1014.57 423.132H1011.34C1009.87 423.132 1008.81 423.474 1008.16 424.157C1007.54 424.807 1007.23 425.935 1007.23 427.542V429.131C1007.23 430.669 1008.34 431.712 1010.57 432.259C1011.56 432.498 1012.63 432.703 1013.8 432.874C1014.99 433.045 1016.19 433.301 1017.39 433.643C1018.58 433.985 1019.68 434.447 1020.67 435.028C1021.66 435.575 1022.46 436.429 1023.08 437.592C1023.69 438.72 1024 440.104 1024 441.745V443.745C1024 446.24 1023.28 448.206 1021.85 449.641C1020.45 451.043 1018.5 451.744 1016 451.744H1010.26C1007.76 451.744 1005.8 451.043 1004.36 449.641C1002.93 448.206 1002.21 446.24 1002.21 443.745Z" fill="black"/>
<path d="M978.827 451.744H975.596C975.015 451.744 974.725 451.453 974.725 450.872V419.645C974.725 419.064 975.015 418.773 975.596 418.773H987.595C990.09 418.773 992.039 419.491 993.44 420.927C994.876 422.329 995.594 424.277 995.594 426.772V431.08C995.594 435.011 993.97 437.489 990.723 438.515V438.72L996.414 450.718C996.79 451.402 996.568 451.744 995.748 451.744H992.569C991.748 451.744 991.218 451.453 990.979 450.872L985.493 439.079H980.314C979.903 439.079 979.698 439.249 979.698 439.591V450.872C979.698 451.453 979.408 451.744 978.827 451.744ZM980.262 434.976H986.774C989.304 434.976 990.569 433.729 990.569 431.233V426.926C990.569 424.397 989.304 423.132 986.774 423.132H980.262C979.886 423.132 979.698 423.303 979.698 423.645V434.464C979.698 434.806 979.886 434.976 980.262 434.976Z" fill="black"/>
<path d="M967.061 451.744H950.652C950.071 451.744 949.781 451.453 949.781 450.872V419.645C949.781 419.064 950.071 418.773 950.652 418.773H967.061C967.608 418.773 967.881 419.064 967.881 419.645V422.26C967.881 422.841 967.608 423.132 967.061 423.132H955.37C954.96 423.132 954.755 423.303 954.755 423.645V432.31C954.755 432.652 954.96 432.823 955.37 432.823H965.266C965.881 432.823 966.189 433.113 966.189 433.695V436.31C966.189 436.891 965.881 437.181 965.266 437.181H955.37C954.96 437.181 954.755 437.352 954.755 437.694V446.821C954.755 447.197 954.96 447.385 955.37 447.385H967.061C967.608 447.385 967.881 447.676 967.881 448.257V450.872C967.881 451.453 967.608 451.744 967.061 451.744Z" fill="black"/>
<path d="M936.265 451.744H933.034C932.419 451.744 932.112 451.453 932.112 450.872V423.645C932.112 423.303 931.941 423.132 931.599 423.132H925.138C924.523 423.132 924.215 422.841 924.215 422.26V419.645C924.215 419.064 924.523 418.773 925.138 418.773H944.161C944.777 418.773 945.084 419.064 945.084 419.645V422.26C945.084 422.841 944.777 423.132 944.161 423.132H937.701C937.325 423.132 937.137 423.303 937.137 423.645V450.872C937.137 451.453 936.846 451.744 936.265 451.744Z" fill="black"/>
<path d="M903.244 451.744H900.013C899.432 451.744 899.142 451.453 899.142 450.872V419.645C899.142 419.064 899.432 418.773 900.013 418.773H912.012C914.507 418.773 916.456 419.491 917.857 420.927C919.293 422.329 920.011 424.277 920.011 426.772V431.08C920.011 435.011 918.387 437.489 915.14 438.515V438.72L920.831 450.718C921.207 451.402 920.985 451.744 920.165 451.744H916.986C916.165 451.744 915.635 451.453 915.396 450.872L909.91 439.079H904.731C904.32 439.079 904.115 439.249 904.115 439.591V450.872C904.115 451.453 903.825 451.744 903.244 451.744ZM904.679 434.976H911.191C913.721 434.976 914.986 433.729 914.986 431.233V426.926C914.986 424.397 913.721 423.132 911.191 423.132H904.679C904.303 423.132 904.115 423.303 904.115 423.645V434.464C904.115 434.806 904.303 434.976 904.679 434.976Z" fill="black"/>
<path d="M872.538 451.744H868.846C868.367 451.744 868.196 451.453 868.333 450.872L877.255 419.645C877.426 419.064 877.836 418.773 878.486 418.773H883.613C884.297 418.773 884.707 419.064 884.844 419.645L893.766 450.872C893.902 451.453 893.714 451.744 893.202 451.744H889.561C889.253 451.744 889.031 451.692 888.894 451.59C888.792 451.453 888.706 451.214 888.638 450.872L886.69 444.206H875.409L873.46 450.872C873.324 451.453 873.016 451.744 872.538 451.744ZM880.947 423.696L876.434 440.104H885.715L881.152 423.696H880.947Z" fill="black"/>
<path d="M859.122 418.773H862.352C862.967 418.773 863.275 419.047 863.275 419.594V443.796C863.275 446.291 862.557 448.24 861.121 449.641C859.72 451.043 857.771 451.744 855.276 451.744H849.584C847.089 451.744 845.141 451.043 843.739 449.641C842.337 448.24 841.637 446.291 841.637 443.796V419.645C841.637 419.064 841.927 418.773 842.508 418.773H845.739C846.32 418.773 846.61 419.064 846.61 419.645V443.591C846.61 446.12 847.841 447.385 850.302 447.385H854.507C857.002 447.385 858.25 446.12 858.25 443.591V419.645C858.25 419.064 858.541 418.773 859.122 418.773Z" fill="black"/>
<path d="M821.154 447.385H825.615C828.077 447.385 829.307 446.12 829.307 443.591V426.926C829.307 424.397 828.077 423.132 825.615 423.132H821.154C818.693 423.132 817.463 424.397 817.463 426.926V443.591C817.463 446.12 818.693 447.385 821.154 447.385ZM830.743 458.563H827.871C827.119 458.563 826.573 458.273 826.231 457.692L822.744 451.744H820.385C817.856 451.744 815.89 451.043 814.489 449.641C813.087 448.24 812.386 446.291 812.386 443.796V426.721C812.386 424.192 813.087 422.243 814.489 420.876C815.89 419.474 817.856 418.773 820.385 418.773H826.333C828.863 418.773 830.811 419.474 832.179 420.876C833.58 422.243 834.281 424.192 834.281 426.721V443.796C834.281 446.018 833.717 447.812 832.589 449.18C831.495 450.513 829.94 451.316 827.923 451.59L831.358 457.486C831.529 457.828 831.546 458.085 831.409 458.256C831.273 458.461 831.051 458.563 830.743 458.563Z" fill="black"/>
<path d="M789.431 447.385H796.661C799.122 447.385 800.353 446.12 800.353 443.591V426.926C800.353 424.397 799.122 423.132 796.661 423.132H789.431C789.055 423.132 788.867 423.303 788.867 423.645V446.821C788.867 447.197 789.055 447.385 789.431 447.385ZM783.893 450.872V419.645C783.893 419.064 784.184 418.773 784.765 418.773H797.379C799.874 418.773 801.823 419.474 803.224 420.876C804.66 422.243 805.378 424.192 805.378 426.721V443.796C805.378 446.291 804.66 448.24 803.224 449.641C801.823 451.043 799.874 451.744 797.379 451.744H784.765C784.184 451.744 783.893 451.453 783.893 450.872Z" fill="black"/>
<path d="M757.289 451.744H753.597C753.119 451.744 752.948 451.453 753.084 450.872L762.006 419.645C762.177 419.064 762.588 418.773 763.237 418.773H768.364C769.048 418.773 769.458 419.064 769.595 419.645L778.517 450.872C778.654 451.453 778.466 451.744 777.953 451.744H774.312C774.005 451.744 773.783 451.692 773.646 451.59C773.543 451.453 773.458 451.214 773.39 450.872L771.441 444.206H760.16L758.212 450.872C758.075 451.453 757.768 451.744 757.289 451.744ZM765.698 423.696L761.186 440.104H770.467L765.903 423.696H765.698Z" fill="black"/>
<path d="M747.83 451.744H731.422C730.841 451.744 730.55 451.453 730.55 450.872V419.645C730.55 419.064 730.841 418.773 731.422 418.773H747.83C748.377 418.773 748.651 419.064 748.651 419.645V422.26C748.651 422.841 748.377 423.132 747.83 423.132H736.139C735.729 423.132 735.524 423.303 735.524 423.645V432.31C735.524 432.652 735.729 432.823 736.139 432.823H746.036C746.651 432.823 746.958 433.113 746.958 433.695V436.31C746.958 436.891 746.651 437.181 746.036 437.181H736.139C735.729 437.181 735.524 437.352 735.524 437.694V446.821C735.524 447.197 735.729 447.385 736.139 447.385H747.83C748.377 447.385 748.651 447.676 748.651 448.257V450.872C748.651 451.453 748.377 451.744 747.83 451.744Z" fill="black"/>
<path d="M704.901 451.744H701.671C701.09 451.744 700.799 451.453 700.799 450.872V419.645C700.799 419.064 701.09 418.773 701.671 418.773H704.901C705.483 418.773 705.773 419.064 705.773 419.645V432.464C705.773 432.806 705.978 432.977 706.388 432.977H717.207C717.549 432.977 717.72 432.806 717.72 432.464V419.645C717.72 419.064 718.011 418.773 718.592 418.773H721.874C722.455 418.773 722.745 419.064 722.745 419.645V450.872C722.745 451.453 722.455 451.744 721.874 451.744H718.592C718.011 451.744 717.72 451.453 717.72 450.872V437.899C717.72 437.557 717.549 437.386 717.207 437.386H706.388C705.978 437.386 705.773 437.557 705.773 437.899V450.872C705.773 451.453 705.483 451.744 704.901 451.744Z" fill="black"/>
<path d="M673.047 451.744H667.56C665.03 451.744 663.065 451.043 661.663 449.641C660.296 448.24 659.612 446.291 659.612 443.796V426.721C659.612 424.192 660.296 422.243 661.663 420.876C663.065 419.474 665.03 418.773 667.56 418.773H673.047C675.576 418.773 677.525 419.474 678.892 420.876C680.293 422.243 680.994 424.192 680.994 426.721V428.567C680.994 429.182 680.704 429.49 680.123 429.49H676.892C676.311 429.49 676.02 429.182 676.02 428.567V426.926C676.02 424.397 674.79 423.132 672.329 423.132H668.278C665.817 423.132 664.586 424.397 664.586 426.926V443.591C664.586 446.12 665.817 447.385 668.278 447.385H672.329C674.79 447.385 676.02 446.12 676.02 443.591V438.976C676.02 438.634 675.833 438.463 675.456 438.463H671.303C670.722 438.463 670.431 438.173 670.431 437.592V434.976C670.431 434.395 670.722 434.105 671.303 434.105H679.917C680.635 434.105 680.994 434.464 680.994 435.182V443.796C680.994 446.291 680.293 448.24 678.892 449.641C677.49 451.043 675.542 451.744 673.047 451.744Z" fill="black"/>
<path d="M633.974 451.744H630.795C630.214 451.744 629.923 451.453 629.923 450.872V419.645C629.923 419.064 630.214 418.773 630.795 418.773H633.666C634.213 418.773 634.589 418.961 634.794 419.337L647.203 441.642H647.408V419.645C647.408 419.064 647.699 418.773 648.28 418.773H651.459C652.04 418.773 652.331 419.064 652.331 419.645V450.872C652.331 451.453 652.04 451.744 651.459 451.744H648.69C648.143 451.744 647.699 451.47 647.357 450.923L635.051 428.875H634.846V450.872C634.846 451.453 634.555 451.744 633.974 451.744Z" fill="black"/>
<path d="M621.877 419.645V450.872C621.877 451.453 621.586 451.744 621.005 451.744H617.775C617.193 451.744 616.903 451.453 616.903 450.872V419.645C616.903 419.064 617.193 418.773 617.775 418.773H621.005C621.586 418.773 621.877 419.064 621.877 419.645Z" fill="black"/>
<path d="M605.023 418.773H608.253C608.834 418.773 609.125 419.047 609.125 419.594V443.796C609.125 446.291 608.424 448.24 607.022 449.641C605.621 451.043 603.672 451.744 601.177 451.744H596.05C593.52 451.744 591.554 451.043 590.153 449.641C588.751 448.24 588.051 446.291 588.051 443.796V439.181C588.051 438.6 588.358 438.309 588.973 438.309H592.204C592.785 438.309 593.076 438.6 593.076 439.181V443.591C593.076 446.12 594.306 447.385 596.767 447.385H600.408C602.869 447.385 604.1 446.12 604.1 443.591V419.645C604.1 419.064 604.407 418.773 605.023 418.773Z" fill="black"/>
<path d="M582.004 419.645V450.872C582.004 451.453 581.713 451.744 581.132 451.744H577.902C577.321 451.744 577.03 451.453 577.03 450.872V419.645C577.03 419.064 577.321 418.773 577.902 418.773H581.132C581.713 418.773 582.004 419.064 582.004 419.645Z" fill="black"/>
<path d="M569.109 451.744H552.701C552.12 451.744 551.83 451.453 551.83 450.872V419.645C551.83 419.064 552.12 418.773 552.701 418.773H569.109C569.656 418.773 569.93 419.064 569.93 419.645V422.26C569.93 422.841 569.656 423.132 569.109 423.132H557.419C557.008 423.132 556.803 423.303 556.803 423.645V432.31C556.803 432.652 557.008 432.823 557.419 432.823H567.315C567.93 432.823 568.238 433.113 568.238 433.695V436.31C568.238 436.891 567.93 437.181 567.315 437.181H557.419C557.008 437.181 556.803 437.352 556.803 437.694V446.821C556.803 447.197 557.008 447.385 557.419 447.385H569.109C569.656 447.385 569.93 447.676 569.93 448.257V450.872C569.93 451.453 569.656 451.744 569.109 451.744Z" fill="black"/>
<path d="M528.768 447.488H535.947C538.511 447.488 539.792 446.257 539.792 443.796V440.617C539.792 438.156 538.442 436.925 535.742 436.925H528.768C528.392 436.925 528.204 437.096 528.204 437.438V446.975C528.204 447.317 528.392 447.488 528.768 447.488ZM528.768 432.823H535.434C538.032 432.823 539.331 431.575 539.331 429.08V426.721C539.331 424.26 538.066 423.029 535.537 423.029H528.768C528.392 423.029 528.204 423.2 528.204 423.542V432.31C528.204 432.652 528.392 432.823 528.768 432.823ZM523.23 450.872V419.645C523.23 419.064 523.521 418.773 524.102 418.773H536.254C538.784 418.773 540.75 419.457 542.151 420.824C543.553 422.192 544.253 424.123 544.253 426.619V429.131C544.253 432.105 542.852 434.019 540.049 434.874C541.382 435.045 542.476 435.626 543.33 436.617C544.219 437.609 544.664 438.942 544.664 440.617V443.898C544.664 446.394 543.963 448.325 542.561 449.693C541.16 451.06 539.211 451.744 536.716 451.744H524.102C523.521 451.744 523.23 451.453 523.23 450.872Z" fill="black"/>
<path d="M486.708 451.744H483.478C482.897 451.744 482.606 451.453 482.606 450.872V419.645C482.606 419.064 482.897 418.773 483.478 418.773H495.476C497.972 418.773 499.92 419.491 501.322 420.927C502.757 422.329 503.475 424.277 503.475 426.772V431.08C503.475 435.011 501.852 437.489 498.604 438.515V438.72L504.296 450.718C504.672 451.402 504.45 451.744 503.629 451.744H500.45C499.63 451.744 499.1 451.453 498.861 450.872L493.374 439.079H488.195C487.785 439.079 487.58 439.249 487.58 439.591V450.872C487.58 451.453 487.289 451.744 486.708 451.744ZM488.144 434.976H494.656C497.186 434.976 498.45 433.729 498.45 431.233V426.926C498.45 424.397 497.186 423.132 494.656 423.132H488.144C487.768 423.132 487.58 423.303 487.58 423.645V434.464C487.58 434.806 487.768 434.976 488.144 434.976Z" fill="black"/>
<path d="M474.942 451.744H458.534C457.953 451.744 457.662 451.453 457.662 450.872V419.645C457.662 419.064 457.953 418.773 458.534 418.773H474.942C475.489 418.773 475.762 419.064 475.762 419.645V422.26C475.762 422.841 475.489 423.132 474.942 423.132H463.251C462.841 423.132 462.636 423.303 462.636 423.645V432.31C462.636 432.652 462.841 432.823 463.251 432.823H473.147C473.763 432.823 474.07 433.113 474.07 433.695V436.31C474.07 436.891 473.763 437.181 473.147 437.181H463.251C462.841 437.181 462.636 437.352 462.636 437.694V446.821C462.636 447.197 462.841 447.385 463.251 447.385H474.942C475.489 447.385 475.762 447.676 475.762 448.257V450.872C475.762 451.453 475.489 451.744 474.942 451.744Z" fill="black"/>
<path d="M444.146 451.744H440.916C440.301 451.744 439.993 451.453 439.993 450.872V423.645C439.993 423.303 439.822 423.132 439.48 423.132H433.019C432.404 423.132 432.096 422.841 432.096 422.26V419.645C432.096 419.064 432.404 418.773 433.019 418.773H452.043C452.658 418.773 452.966 419.064 452.966 419.645V422.26C452.966 422.841 452.658 423.132 452.043 423.132H445.582C445.206 423.132 445.018 423.303 445.018 423.645V450.872C445.018 451.453 444.727 451.744 444.146 451.744Z" fill="black"/>
<path d="M408.971 451.744H405.792C405.211 451.744 404.92 451.453 404.92 450.872V419.645C404.92 419.064 405.211 418.773 405.792 418.773H408.663C409.21 418.773 409.586 418.961 409.791 419.337L422.2 441.642H422.405V419.645C422.405 419.064 422.696 418.773 423.277 418.773H426.456C427.037 418.773 427.328 419.064 427.328 419.645V450.872C427.328 451.453 427.037 451.744 426.456 451.744H423.687C423.14 451.744 422.696 451.47 422.354 450.923L410.048 428.875H409.843V450.872C409.843 451.453 409.552 451.744 408.971 451.744Z" fill="black"/>
<path d="M397.256 451.744H380.848C380.267 451.744 379.976 451.453 379.976 450.872V419.645C379.976 419.064 380.267 418.773 380.848 418.773H397.256C397.803 418.773 398.077 419.064 398.077 419.645V422.26C398.077 422.841 397.803 423.132 397.256 423.132H385.565C385.155 423.132 384.95 423.303 384.95 423.645V432.31C384.95 432.652 385.155 432.823 385.565 432.823H395.461C396.077 432.823 396.384 433.113 396.384 433.695V436.31C396.384 436.891 396.077 437.181 395.461 437.181H385.565C385.155 437.181 384.95 437.352 384.95 437.694V446.821C384.95 447.197 385.155 447.385 385.565 447.385H397.256C397.803 447.385 398.077 447.676 398.077 448.257V450.872C398.077 451.453 397.803 451.744 397.256 451.744Z" fill="black"/>
<path d="M365.361 451.744H359.413C356.883 451.744 354.917 451.043 353.516 449.641C352.149 448.24 351.465 446.291 351.465 443.796V426.721C351.465 424.192 352.149 422.243 353.516 420.876C354.917 419.474 356.883 418.773 359.413 418.773H365.361C367.856 418.773 369.804 419.474 371.206 420.876C372.607 422.243 373.308 424.192 373.308 426.721V429.182C373.308 429.798 373.001 430.105 372.385 430.105H369.155C368.574 430.105 368.283 429.798 368.283 429.182V426.926C368.283 424.397 367.053 423.132 364.591 423.132H360.13C357.669 423.132 356.439 424.397 356.439 426.926V443.591C356.439 446.12 357.669 447.385 360.13 447.385H364.591C367.053 447.385 368.283 446.12 368.283 443.591V441.335C368.283 440.719 368.574 440.412 369.155 440.412H372.385C373.001 440.412 373.308 440.719 373.308 441.335V443.796C373.308 446.291 372.607 448.24 371.206 449.641C369.804 451.043 367.856 451.744 365.361 451.744Z" fill="black"/>
<path d="M325.936 451.744H322.706C322.091 451.744 321.783 451.453 321.783 450.872V423.645C321.783 423.303 321.612 423.132 321.27 423.132H314.809C314.194 423.132 313.886 422.841 313.886 422.26V419.645C313.886 419.064 314.194 418.773 314.809 418.773H333.833C334.448 418.773 334.756 419.064 334.756 419.645V422.26C334.756 422.841 334.448 423.132 333.833 423.132H327.372C326.996 423.132 326.808 423.303 326.808 423.645V450.872C326.808 451.453 326.517 451.744 325.936 451.744Z" fill="black"/>
<path d="M309.248 451.744H292.839C292.258 451.744 291.968 451.453 291.968 450.872V419.645C291.968 419.064 292.258 418.773 292.839 418.773H309.248C309.795 418.773 310.068 419.064 310.068 419.645V422.26C310.068 422.841 309.795 423.132 309.248 423.132H297.557C297.147 423.132 296.941 423.303 296.941 423.645V432.31C296.941 432.652 297.147 432.823 297.557 432.823H307.453C308.068 432.823 308.376 433.113 308.376 433.695V436.31C308.376 436.891 308.068 437.181 307.453 437.181H297.557C297.147 437.181 296.941 437.352 296.941 437.694V446.821C296.941 447.197 297.147 447.385 297.557 447.385H309.248C309.795 447.385 310.068 447.676 310.068 448.257V450.872C310.068 451.453 309.795 451.744 309.248 451.744Z" fill="black"/>
<path d="M265.817 451.744H262.638C262.057 451.744 261.766 451.453 261.766 450.872V419.645C261.766 419.064 262.057 418.773 262.638 418.773H265.509C266.056 418.773 266.432 418.961 266.637 419.337L279.046 441.642H279.251V419.645C279.251 419.064 279.542 418.773 280.123 418.773H283.302C283.883 418.773 284.174 419.064 284.174 419.645V450.872C284.174 451.453 283.883 451.744 283.302 451.744H280.533C279.986 451.744 279.542 451.47 279.2 450.923L266.894 428.875H266.689V450.872C266.689 451.453 266.398 451.744 265.817 451.744Z" fill="black"/>
<path d="M237.77 451.744H234.539C233.958 451.744 233.668 451.453 233.668 450.872V419.645C233.668 419.064 233.958 418.773 234.539 418.773H246.538C249.033 418.773 250.982 419.491 252.383 420.927C253.819 422.329 254.537 424.277 254.537 426.772V431.08C254.537 435.011 252.913 437.489 249.666 438.515V438.72L255.357 450.718C255.733 451.402 255.511 451.744 254.691 451.744H251.512C250.691 451.744 250.161 451.453 249.922 450.872L244.436 439.079H239.257C238.847 439.079 238.641 439.249 238.641 439.591V450.872C238.641 451.453 238.351 451.744 237.77 451.744ZM239.205 434.976H245.717C248.247 434.976 249.512 433.729 249.512 431.233V426.926C249.512 424.397 248.247 423.132 245.717 423.132H239.205C238.829 423.132 238.641 423.303 238.641 423.645V434.464C238.641 434.806 238.829 434.976 239.205 434.976Z" fill="black"/>
<path d="M226.003 451.744H209.595C209.014 451.744 208.724 451.453 208.724 450.872V419.645C208.724 419.064 209.014 418.773 209.595 418.773H226.003C226.55 418.773 226.824 419.064 226.824 419.645V422.26C226.824 422.841 226.55 423.132 226.003 423.132H214.313C213.902 423.132 213.697 423.303 213.697 423.645V432.31C213.697 432.652 213.902 432.823 214.313 432.823H224.209C224.824 432.823 225.132 433.113 225.132 433.695V436.31C225.132 436.891 224.824 437.181 224.209 437.181H214.313C213.902 437.181 213.697 437.352 213.697 437.694V446.821C213.697 447.197 213.902 447.385 214.313 447.385H226.003C226.55 447.385 226.824 447.676 226.824 448.257V450.872C226.824 451.453 226.55 451.744 226.003 451.744Z" fill="black"/>
<path d="M195.208 451.744H191.977C191.362 451.744 191.054 451.453 191.054 450.872V423.645C191.054 423.303 190.883 423.132 190.542 423.132H184.081C183.466 423.132 183.158 422.841 183.158 422.26V419.645C183.158 419.064 183.466 418.773 184.081 418.773H203.104C203.719 418.773 204.027 419.064 204.027 419.645V422.26C204.027 422.841 203.719 423.132 203.104 423.132H196.643C196.267 423.132 196.079 423.303 196.079 423.645V450.872C196.079 451.453 195.789 451.744 195.208 451.744Z" fill="black"/>
<path d="M160.032 451.744H156.853C156.272 451.744 155.981 451.453 155.981 450.872V419.645C155.981 419.064 156.272 418.773 156.853 418.773H159.725C160.271 418.773 160.648 418.961 160.853 419.337L173.261 441.642H173.466V419.645C173.466 419.064 173.757 418.773 174.338 418.773H177.517C178.098 418.773 178.389 419.064 178.389 419.645V450.872C178.389 451.453 178.098 451.744 177.517 451.744H174.748C174.201 451.744 173.757 451.47 173.415 450.923L161.109 428.875H160.904V450.872C160.904 451.453 160.613 451.744 160.032 451.744Z" fill="black"/>
<path d="M147.935 419.645V450.872C147.935 451.453 147.644 451.744 147.063 451.744H143.833C143.252 451.744 142.961 451.453 142.961 450.872V419.645C142.961 419.064 143.252 418.773 143.833 418.773H147.063C147.644 418.773 147.935 419.064 147.935 419.645Z" fill="black"/>
<path d="M103.575 451.744H99.883C99.4045 451.744 99.2336 451.453 99.3703 450.872L108.292 419.645C108.463 419.064 108.873 418.773 109.523 418.773H114.65C115.334 418.773 115.744 419.064 115.881 419.645L124.803 450.872C124.94 451.453 124.752 451.744 124.239 451.744H120.598C120.291 451.744 120.068 451.692 119.932 451.59C119.829 451.453 119.744 451.214 119.675 450.872L117.727 444.206H106.446L104.498 450.872C104.361 451.453 104.053 451.744 103.575 451.744ZM111.984 423.696L107.472 440.104H116.753L112.189 423.696H111.984Z" fill="black"/>
<path d="M75.6294 451.744H72.4503C71.8692 451.744 71.5786 451.453 71.5786 450.872V419.645C71.5786 419.064 71.8692 418.773 72.4503 418.773H75.3217C75.8687 418.773 76.2447 418.961 76.4498 419.337L88.8585 441.642H89.0636V419.645C89.0636 419.064 89.3541 418.773 89.9352 418.773H93.1143C93.6954 418.773 93.986 419.064 93.986 419.645V450.872C93.986 451.453 93.6954 451.744 93.1143 451.744H90.3454C89.7985 451.744 89.3541 451.47 89.0123 450.923L76.7062 428.875H76.5011V450.872C76.5011 451.453 76.2105 451.744 75.6294 451.744Z" fill="black"/>
<path d="M63.5318 419.645V450.872C63.5318 451.453 63.2413 451.744 62.6601 451.744H59.4298C58.8487 451.744 58.5581 451.453 58.5581 450.872V419.645C58.5581 419.064 58.8487 418.773 59.4298 418.773H62.6601C63.2413 418.773 63.5318 419.064 63.5318 419.645Z" fill="black"/>
<path d="M32.6528 451.744H29.4225C28.8413 451.744 28.5508 451.453 28.5508 450.872V419.645C28.5508 419.064 28.8413 418.773 29.4225 418.773H32.6528C33.2339 418.773 33.5245 419.064 33.5245 419.645V432.464C33.5245 432.806 33.7296 432.977 34.1398 432.977H44.9589C45.3008 432.977 45.4717 432.806 45.4717 432.464V419.645C45.4717 419.064 45.7623 418.773 46.3434 418.773H49.625C50.2061 418.773 50.4967 419.064 50.4967 419.645V450.872C50.4967 451.453 50.2061 451.744 49.625 451.744H46.3434C45.7623 451.744 45.4717 451.453 45.4717 450.872V437.899C45.4717 437.557 45.3008 437.386 44.9589 437.386H34.1398C33.7296 437.386 33.5245 437.557 33.5245 437.899V450.872C33.5245 451.453 33.2339 451.744 32.6528 451.744Z" fill="black"/>
<path d="M13.9352 451.744H7.98725C5.45766 451.744 3.4921 451.043 2.09057 449.641C0.723224 448.24 0.0395508 446.291 0.0395508 443.796V426.721C0.0395508 424.192 0.723224 422.243 2.09057 420.876C3.4921 419.474 5.45766 418.773 7.98725 418.773H13.9352C16.4306 418.773 18.3791 419.474 19.7806 420.876C21.1821 422.243 21.8829 424.192 21.8829 426.721V429.182C21.8829 429.798 21.5753 430.105 20.96 430.105H17.7296C17.1485 430.105 16.8579 429.798 16.8579 429.182V426.926C16.8579 424.397 15.6273 423.132 13.1661 423.132H8.70511C6.24389 423.132 5.01327 424.397 5.01327 426.926V443.591C5.01327 446.12 6.24389 447.385 8.70511 447.385H13.1661C15.6273 447.385 16.8579 446.12 16.8579 443.591V441.335C16.8579 440.719 17.1485 440.412 17.7296 440.412H20.96C21.5753 440.412 21.8829 440.719 21.8829 441.335V443.796C21.8829 446.291 21.1821 448.24 19.7806 449.641C18.3791 451.043 16.4306 451.744 13.9352 451.744Z" fill="black"/>
<path d="M971.389 336.749H963.849V366.907C966.305 366.335 969.076 365.536 972.16 364.508V369.648C967.933 371.533 964.335 372.932 961.365 373.846C958.395 374.703 953.825 375.845 947.657 377.273L945.429 377.787V370.077L948.856 369.563C951.141 369.277 952.997 368.991 954.425 368.706V336.749H945.258V331.18H954.425V309.076H963.849V331.18H971.389V335.464V336.749ZM984.069 378.73H1013.28V364.336H1020.99V383.613H974.645V341.461L967.191 343.517V337.948L974.645 335.892V315.758H984.069V333.322L991.351 331.351V309.076H1000.35V328.867L1016.97 324.326L1017.14 361.766H1001.55V356.197H1007.72L1007.54 332.208L1000.35 334.179V371.019H999.062H991.351V336.749L984.069 338.805V378.73Z" fill="black"/>
<path d="M909.274 370.419L893.767 370.334V378.045L924.439 378.13V382.414V383.699L853.756 383.528V377.959L884.342 378.045V370.334L868.921 370.248V365.193C863.78 368.278 857.526 370.819 850.158 372.818V367.249C853.299 366.336 856.641 364.793 860.182 362.623C863.78 360.395 867.15 357.397 870.292 353.627L850.158 353.541V347.972H864.209V321.584H853.157V316.015H864.209V308.133H873.633V316.101H904.219V308.133H913.644V316.187H924.781V321.756H913.644V348.144H927.523V353.713L907.903 353.627C910.988 357.397 914.3 360.395 917.842 362.623C921.44 364.793 924.81 366.336 927.951 367.249V372.818C920.64 370.819 914.415 368.278 909.274 365.193V369.134V370.419ZM873.633 326.554H904.219V321.67H873.633V326.554ZM904.219 337.263V332.122H873.633V337.263H904.219ZM904.219 348.058V342.832H873.633V348.058H904.219ZM869.692 364.679L884.342 364.765V356.883H893.767V364.765L908.674 364.85C903.534 361.595 899.421 357.854 896.337 353.627H881.772C878.688 357.911 874.661 361.595 869.692 364.679Z" fill="black"/>
<path d="M795.326 308.133L799.952 317.472H831.652V323.041H756.343V317.472H790.956L784.188 308.133H795.326ZM823.085 329.809V355.512H799.267V384.642H775.706V379.073H789.843V355.512H764.654V329.809H823.085ZM813.66 349.943V335.378H774.078V349.943H813.66ZM770.737 360.31H781.018C780.047 363.451 778.105 366.65 775.192 369.905C772.279 373.104 768.938 375.903 765.168 378.302C761.455 380.7 757.971 382.328 754.716 383.185V377.188C758.085 375.588 761.17 373.304 763.969 370.334C766.767 367.307 769.023 363.965 770.737 360.31ZM806.806 360.31H817.087C818.801 363.965 821.057 367.307 823.856 370.334C826.654 373.304 829.739 375.588 833.109 377.188V383.185C829.853 382.328 826.34 380.7 822.571 378.302C818.858 375.903 815.545 373.104 812.632 369.905C809.719 366.65 807.777 363.451 806.806 360.31Z" fill="black"/>
<path d="M661.929 336.92V331.351H681.634V309.247H691.059V386.012H681.634V366.821L659.958 379.672V370.248L681.634 358.682V336.92H661.929ZM730.041 378.987V359.282H737.752V384.556H703.482V309.247H712.906V337.177C720.103 332.151 724.929 327.01 727.385 321.756H737.666C735.21 326.439 731.84 330.666 727.556 334.436C723.273 338.148 718.389 341.29 712.906 343.86V378.987H730.041Z" fill="black"/>
<path d="M617.035 335.721H609.753L593.303 309.676H604.441L617.035 335.721ZM627.231 382.843H586.021V325.868H595.445V377.274H618.663V356.883H619.948H627.231V382.843ZM642.823 364.765H635.541C634.97 362.652 633.828 359.396 632.114 354.998C630.458 350.6 628.601 346.231 626.545 341.89C624.489 337.549 622.661 334.293 621.062 332.123H632.2C633.856 335.436 635.855 340.805 638.197 348.23C640.596 355.655 642.138 361.167 642.823 364.765ZM571.456 367.25H564.173C566.172 362.909 568.114 357.511 569.999 351.057C571.884 344.546 573.026 338.406 573.426 332.637H583.707C582.565 339.377 580.966 345.402 578.91 350.714C576.853 355.969 574.626 360.967 572.227 365.708L571.456 367.25Z" fill="black"/>
<path d="M513.625 324.926H541.726V363.308H513.625V385.841H504.2V363.308H475.499V324.926H504.2V308.133H513.625V324.926ZM504.2 330.495H485.009V357.739H504.2V330.495ZM513.625 330.495V357.739H532.302V330.495H513.625Z" fill="black"/>
<path d="M378.943 311.389H448.683V384.727H426.664V379.158H440.115V316.958H387.51V386.012H387.082H378.943V311.389ZM414.327 360.566V366.992C411.243 365.05 408.33 362.566 405.588 359.538C401.533 367.935 396.306 374.246 389.909 378.473V372.047C394.364 367.249 397.963 360.909 400.704 353.027C395.792 345.373 391.966 335.749 389.224 324.154H397.534C398.448 331.694 400.305 338.462 403.103 344.459C404.531 338.291 405.531 331.008 406.102 322.612H414.498C413.984 327.867 413.242 333.036 412.271 338.119C411.357 343.203 409.986 348.229 408.158 353.198C409.758 355.483 411.814 357.939 414.327 360.566ZM437.716 367.592V374.017C433.432 371.39 429.606 367.078 426.236 361.08C421.438 370.048 415.669 376.559 408.929 380.614V374.189C411.385 371.847 413.756 368.848 416.04 365.193C418.325 361.48 420.438 357.396 422.38 352.941C420.495 348.258 418.953 343.403 417.754 338.376C416.612 333.35 415.812 328.781 415.355 324.668H423.665C423.665 330.951 424.408 337.12 425.893 343.174C428.063 336.32 429.349 329.723 429.748 323.383H438.145C436.26 334.921 433.404 345.202 429.577 354.226C431.805 359.538 434.518 363.993 437.716 367.592Z" fill="black"/>
<path d="M337.562 346.944H355.896V351.228V352.513H338.761C340.246 357.768 342.531 362.908 345.615 367.935C348.757 372.961 352.098 376.874 355.639 379.672V385.241C351.869 384.042 347.843 381.3 343.559 377.016C339.275 372.733 335.677 367.935 332.764 362.623C330.022 367.992 326.624 372.818 322.568 377.102C318.513 381.329 314.629 384.042 310.917 385.241V379.672C314.401 376.931 317.571 373.075 320.427 368.106C323.282 363.08 325.339 357.882 326.595 352.513H310.831V346.944H327.623C327.795 345.459 327.88 344.06 327.88 342.746V330.666H312.887V325.097H336.619C338.104 322.984 339.589 320.299 341.074 317.043C342.617 313.788 343.587 311.075 343.987 308.904H355.125C350.442 316.901 346.872 322.298 344.416 325.097H354.268V329.381V330.666H337.305V342.746C337.305 344.06 337.39 345.459 337.562 346.944ZM311.773 308.99H322.911L329.937 322.441H322.911L311.773 308.99ZM314.344 361.937V367.935C311.716 368.734 309.746 369.306 308.432 369.648V386.012H307.147H299.693V371.619C293.582 372.932 286.87 373.961 279.559 374.703V366.992L282.815 366.735V318.586H279.816V313.017H312.801V317.301V318.586H308.432V363.137C309.746 362.908 311.716 362.509 314.344 361.937ZM291.554 331.351H299.693V318.586H291.554V331.351ZM299.693 349.086V336.92H291.554V349.086H299.693ZM291.554 354.655V365.793C294.924 365.393 297.637 365.022 299.693 364.679V354.655H291.554Z" fill="black"/>
<path d="M209.391 333.408H251.029L247.945 376.588H262.167V382.157H184.459V376.588H238.606L239.549 362.623H197.139L201.509 318.5H187.886V312.931H258.911V318.5H210.933L209.391 333.408ZM241.177 338.977H208.877L206.992 357.054H239.977L241.177 338.977Z" fill="black"/>
<path d="M91.844 311.132H163.212V384.042H91.844V311.132ZM153.787 316.701H101.268V378.473H153.787V316.701ZM148.304 343.346V348.915H133.14V364.679H151.646V370.248H105.124V364.679H123.715V348.915H108.465V343.346H123.715V330.837H107.437V325.268H149.332V330.837H133.14V343.346H148.304ZM150.532 362.966H143.506L135.024 352.256H144.449L150.532 362.966Z" fill="black"/>
<path d="M38.1256 324.926H66.2272V363.308H38.1256V385.841H28.7013V363.308H0V324.926H28.7013V308.133H38.1256V324.926ZM28.7013 330.495H9.50998V357.739H28.7013V330.495ZM38.1256 330.495V357.739H56.8029V330.495H38.1256Z" fill="black"/>
<path d="M425.809 67.2611C427.624 68.7137 429.335 70.3148 430.922 72.0561L436.581 78.2633C431.746 90.1691 429.081 103.188 429.081 116.83C429.081 173.468 474.995 219.381 531.632 219.381C552.724 219.381 572.328 213.012 588.628 202.094C594.417 203.893 600.29 205.446 606.233 206.743C585.996 223.552 559.995 233.66 531.632 233.66C467.109 233.66 414.802 181.354 414.802 116.83C414.802 99.1086 418.748 82.3089 425.809 67.2611Z" fill="black"/>
<path d="M397.826 30.1811C418.09 30.1812 437.417 38.7153 451.069 53.6911L515.571 124.45C550.343 162.595 599.572 184.332 651.187 184.332C653.625 184.332 655.602 182.356 655.602 179.917V50.3019C655.602 47.0757 652.987 44.4604 649.761 44.4604H614.062V30.1811H649.761C660.873 30.1811 669.881 39.1895 669.881 50.3019V179.917C669.881 190.242 661.512 198.611 651.187 198.611C595.556 198.611 542.496 175.183 505.018 134.07L440.516 63.3109C429.57 51.3034 414.073 44.4605 397.826 44.4604H374.885C371.659 44.4604 369.043 47.0757 369.043 50.3019V178.491C369.043 181.717 371.659 184.332 374.885 184.332H410.583V198.611H374.885C363.773 198.611 354.764 189.603 354.764 178.491V50.3019C354.764 39.1895 363.773 30.1811 374.885 30.1811H397.826Z" fill="black"/>
<path d="M531.632 0C544.38 0 556.65 2.0432 568.135 5.81743L563.674 19.3855C553.593 16.0726 542.822 14.2793 531.632 14.2793C503.566 14.2793 478.134 25.5549 459.617 43.8221C456.313 40.3268 452.743 37.142 448.951 34.2885C470.099 13.1054 499.335 0 531.632 0Z" fill="black"/>
</svg>
