<svg width="1024" height="531" viewBox="0 0 1024 531" fill="none" xmlns="http://www.w3.org/2000/svg">
<path d="M980.427 508.225V505.986C980.427 505.01 980.915 504.522 981.891 504.522H987.403C988.379 504.522 988.867 505.01 988.867 505.986V507.536C988.867 509.948 989.384 511.699 990.417 512.79C991.508 513.824 993.288 514.34 995.757 514.34H1001.7C1004.17 514.34 1005.95 513.795 1007.04 512.704C1008.13 511.556 1008.68 509.718 1008.68 507.192V505.211C1008.68 503.374 1007.96 501.938 1006.52 500.905C1005.14 499.814 1003.42 499.125 1001.36 498.838C999.288 498.493 997.02 498.034 994.551 497.46C992.082 496.885 989.814 496.225 987.747 495.479C985.68 494.732 983.929 493.325 982.493 491.258C981.115 489.191 980.427 486.55 980.427 483.335V479.717C980.427 475.526 981.604 472.253 983.958 469.899C986.369 467.488 989.671 466.282 993.862 466.282H1002.99C1007.24 466.282 1010.54 467.488 1012.9 469.899C1015.31 472.253 1016.51 475.526 1016.51 479.717V481.612C1016.51 482.588 1016.03 483.076 1015.05 483.076H1009.54C1008.56 483.076 1008.07 482.588 1008.07 481.612V480.493C1008.07 478.024 1007.53 476.272 1006.44 475.239C1005.4 474.148 1003.65 473.602 1001.18 473.602H995.757C993.288 473.602 991.508 474.177 990.417 475.325C989.384 476.416 988.867 478.311 988.867 481.009V483.679C988.867 486.263 990.733 488.014 994.465 488.933C996.13 489.335 997.939 489.679 999.891 489.967C1001.9 490.254 1003.91 490.684 1005.92 491.258C1007.93 491.833 1009.77 492.608 1011.43 493.584C1013.1 494.503 1014.45 495.938 1015.48 497.89C1016.51 499.785 1017.03 502.11 1017.03 504.866V508.225C1017.03 512.417 1015.82 515.718 1013.41 518.13C1011.06 520.484 1007.79 521.661 1003.59 521.661H993.948C989.757 521.661 986.455 520.484 984.044 518.13C981.632 515.718 980.427 512.417 980.427 508.225Z" fill="black"/>
<path d="M938.754 521.661H932.553C931.749 521.661 931.462 521.173 931.692 520.197L946.678 467.746C946.965 466.77 947.654 466.282 948.745 466.282H957.358C958.506 466.282 959.195 466.77 959.425 467.746L974.411 520.197C974.64 521.173 974.324 521.661 973.463 521.661H967.348C966.831 521.661 966.458 521.575 966.229 521.403C966.056 521.173 965.913 520.771 965.798 520.197L962.525 509.001H943.577L940.304 520.197C940.075 521.173 939.558 521.661 938.754 521.661ZM952.879 474.55L945.3 502.11H960.889L953.223 474.55H952.879Z" fill="black"/>
<path d="M913.171 521.661H903.18C898.931 521.661 895.63 520.484 893.276 518.13C890.979 515.776 889.831 512.503 889.831 508.311V479.631C889.831 475.382 890.979 472.11 893.276 469.813C895.63 467.459 898.931 466.282 903.18 466.282H913.171C917.362 466.282 920.635 467.459 922.989 469.813C925.343 472.11 926.52 475.382 926.52 479.631V483.765C926.52 484.799 926.004 485.316 924.97 485.316H919.544C918.568 485.316 918.08 484.799 918.08 483.765V479.976C918.08 475.727 916.013 473.602 911.879 473.602H904.386C900.252 473.602 898.185 475.727 898.185 479.976V507.967C898.185 512.216 900.252 514.34 904.386 514.34H911.879C916.013 514.34 918.08 512.216 918.08 507.967V504.177C918.08 503.144 918.568 502.627 919.544 502.627H924.97C926.004 502.627 926.52 503.144 926.52 504.177V508.311C926.52 512.503 925.343 515.776 922.989 518.13C920.635 520.484 917.362 521.661 913.171 521.661Z" fill="black"/>
<path d="M862.572 509.69V516.407C862.572 517.785 862.026 519.508 860.935 521.575L856.37 529.929C856.141 530.446 855.71 530.704 855.079 530.704C854.275 530.704 853.873 530.245 853.873 529.326V509.69C853.873 508.771 854.361 508.312 855.337 508.312H861.194C862.112 508.312 862.572 508.771 862.572 509.69Z" fill="black"/>
<path d="M845.048 521.661H817.487C816.511 521.661 816.023 521.173 816.023 520.197V467.746C816.023 466.77 816.511 466.282 817.487 466.282H845.048C845.966 466.282 846.426 466.77 846.426 467.746V472.138C846.426 473.114 845.966 473.602 845.048 473.602H825.411C824.722 473.602 824.377 473.89 824.377 474.464V489.019C824.377 489.593 824.722 489.88 825.411 489.88H842.033C843.067 489.88 843.583 490.368 843.583 491.345V495.737C843.583 496.713 843.067 497.201 842.033 497.201H825.411C824.722 497.201 824.377 497.488 824.377 498.062V513.393C824.377 514.025 824.722 514.34 825.411 514.34H845.048C845.966 514.34 846.426 514.828 846.426 515.805V520.197C846.426 521.173 845.966 521.661 845.048 521.661Z" fill="black"/>
<path d="M785.267 521.661H779.841C778.865 521.661 778.377 521.173 778.377 520.197V467.746C778.377 466.77 778.865 466.282 779.841 466.282H806.885C807.861 466.282 808.349 466.77 808.349 467.746V472.138C808.349 473.114 807.861 473.602 806.885 473.602H787.765C787.076 473.602 786.731 473.89 786.731 474.464V490.742C786.731 491.373 787.076 491.689 787.765 491.689H804.387C805.421 491.689 805.937 492.177 805.937 493.153V497.46C805.937 498.493 805.421 499.01 804.387 499.01H787.765C787.076 499.01 786.731 499.297 786.731 499.871V520.197C786.731 521.173 786.243 521.661 785.267 521.661Z" fill="black"/>
<path d="M766.842 467.746V520.197C766.842 521.173 766.354 521.661 765.378 521.661H759.952C758.976 521.661 758.488 521.173 758.488 520.197V467.746C758.488 466.77 758.976 466.282 759.952 466.282H765.378C766.354 466.282 766.842 466.77 766.842 467.746Z" fill="black"/>
<path d="M750.116 521.661H722.211C721.235 521.661 720.747 521.173 720.747 520.197V467.746C720.747 466.77 721.235 466.282 722.211 466.282H727.637C728.614 466.282 729.102 466.77 729.102 467.746V513.307C729.102 513.881 729.446 514.168 730.135 514.168H750.116C751.093 514.168 751.581 514.685 751.581 515.718V520.197C751.581 521.173 751.093 521.661 750.116 521.661Z" fill="black"/>
<path d="M693.749 521.661H665.844C664.868 521.661 664.38 521.173 664.38 520.197V467.746C664.38 466.77 664.868 466.282 665.844 466.282H671.27C672.246 466.282 672.734 466.77 672.734 467.746V513.307C672.734 513.881 673.078 514.168 673.767 514.168H693.749C694.725 514.168 695.213 514.685 695.213 515.718V520.197C695.213 521.173 694.725 521.661 693.749 521.661Z" fill="black"/>
<path d="M621.674 521.661H615.472C614.669 521.661 614.382 521.173 614.611 520.197L629.597 467.746C629.884 466.77 630.573 466.282 631.664 466.282H640.277C641.425 466.282 642.114 466.77 642.344 467.746L657.33 520.197C657.56 521.173 657.244 521.661 656.383 521.661H650.268C649.751 521.661 649.378 521.575 649.148 521.403C648.976 521.173 648.832 520.771 648.717 520.197L645.445 509.001H626.497L623.224 520.197C622.994 521.173 622.477 521.661 621.674 521.661ZM635.798 474.55L628.219 502.11H643.808L636.143 474.55H635.798Z" fill="black"/>
<path d="M597.938 521.661H592.512C591.478 521.661 590.961 521.173 590.961 520.197V474.464C590.961 473.89 590.674 473.602 590.1 473.602H579.248C578.215 473.602 577.698 473.114 577.698 472.138V467.746C577.698 466.77 578.215 466.282 579.248 466.282H611.201C612.235 466.282 612.752 466.77 612.752 467.746V472.138C612.752 473.114 612.235 473.602 611.201 473.602H600.349C599.718 473.602 599.402 473.89 599.402 474.464V520.197C599.402 521.173 598.914 521.661 597.938 521.661Z" fill="black"/>
<path d="M571.244 467.746V520.197C571.244 521.173 570.756 521.661 569.78 521.661H564.354C563.378 521.661 562.89 521.173 562.89 520.197V467.746C562.89 466.77 563.378 466.282 564.354 466.282H569.78C570.756 466.282 571.244 466.77 571.244 467.746Z" fill="black"/>
<path d="M538.863 521.661H529.648C525.399 521.661 522.098 520.484 519.743 518.13C517.447 515.776 516.298 512.503 516.298 508.311V479.631C516.298 475.382 517.447 472.11 519.743 469.813C522.098 467.459 525.399 466.282 529.648 466.282H538.863C543.112 466.282 546.385 467.459 548.682 469.813C551.036 472.11 552.213 475.382 552.213 479.631V482.732C552.213 483.765 551.725 484.282 550.749 484.282H545.323C544.347 484.282 543.859 483.765 543.859 482.732V479.976C543.859 475.727 541.792 473.602 537.658 473.602H530.854C526.72 473.602 524.653 475.727 524.653 479.976V507.967C524.653 512.216 526.72 514.34 530.854 514.34H537.658C541.792 514.34 543.859 512.216 543.859 507.967V500.216C543.859 499.641 543.543 499.354 542.911 499.354H535.935C534.959 499.354 534.471 498.866 534.471 497.89V493.498C534.471 492.522 534.959 492.034 535.935 492.034H550.404C551.61 492.034 552.213 492.636 552.213 493.842V508.311C552.213 512.503 551.036 515.776 548.682 518.13C546.328 520.484 543.055 521.661 538.863 521.661Z" fill="black"/>
<path d="M505.625 467.746V520.197C505.625 521.173 505.137 521.661 504.161 521.661H498.735C497.759 521.661 497.271 521.173 497.271 520.197V467.746C497.271 466.77 497.759 466.282 498.735 466.282H504.161C505.137 466.282 505.625 466.77 505.625 467.746Z" fill="black"/>
<path d="M459.832 514.34H471.976C476.11 514.34 478.177 512.216 478.177 507.967V479.976C478.177 475.727 476.11 473.602 471.976 473.602H459.832C459.201 473.602 458.885 473.89 458.885 474.464V513.393C458.885 514.025 459.201 514.34 459.832 514.34ZM450.531 520.197V467.746C450.531 466.77 451.019 466.282 451.995 466.282H473.182C477.374 466.282 480.646 467.459 483 469.813C485.412 472.11 486.618 475.382 486.618 479.631V508.311C486.618 512.503 485.412 515.776 483 518.13C480.646 520.484 477.374 521.661 473.182 521.661H451.995C451.019 521.661 450.531 521.173 450.531 520.197Z" fill="black"/>
<path d="M400.717 521.661H395.291C394.314 521.661 393.826 521.173 393.826 520.197V467.746C393.826 466.77 394.314 466.282 395.291 466.282H422.334C423.31 466.282 423.798 466.77 423.798 467.746V472.138C423.798 473.114 423.31 473.602 422.334 473.602H403.214C402.525 473.602 402.181 473.89 402.181 474.464V490.742C402.181 491.373 402.525 491.689 403.214 491.689H419.837C420.87 491.689 421.387 492.177 421.387 493.153V497.46C421.387 498.493 420.87 499.01 419.837 499.01H403.214C402.525 499.01 402.181 499.297 402.181 499.871V520.197C402.181 521.173 401.693 521.661 400.717 521.661Z" fill="black"/>
<path d="M361.464 514.34H368.957C373.148 514.34 375.244 512.216 375.244 507.967V479.976C375.244 475.727 373.148 473.602 368.957 473.602H361.464C357.33 473.602 355.263 475.727 355.263 479.976V507.967C355.263 512.216 357.33 514.34 361.464 514.34ZM370.249 521.661H360.258C356.009 521.661 352.707 520.484 350.353 518.13C348.057 515.776 346.908 512.503 346.908 508.311V479.631C346.908 475.382 348.057 472.11 350.353 469.813C352.707 467.459 356.009 466.282 360.258 466.282H370.249C374.497 466.282 377.799 467.459 380.153 469.813C382.507 472.11 383.684 475.382 383.684 479.631V508.311C383.684 512.503 382.507 515.776 380.153 518.13C377.799 520.484 374.497 521.661 370.249 521.661Z" fill="black"/>
<path d="M317.819 521.661H290.259C289.282 521.661 288.794 521.173 288.794 520.197V467.746C288.794 466.77 289.282 466.282 290.259 466.282H317.819C318.738 466.282 319.197 466.77 319.197 467.746V472.138C319.197 473.114 318.738 473.602 317.819 473.602H298.182C297.493 473.602 297.149 473.89 297.149 474.464V489.019C297.149 489.593 297.493 489.88 298.182 489.88H314.805C315.838 489.88 316.355 490.368 316.355 491.345V495.737C316.355 496.713 315.838 497.201 314.805 497.201H298.182C297.493 497.201 297.149 497.488 297.149 498.062V513.393C297.149 514.025 297.493 514.34 298.182 514.34H317.819C318.738 514.34 319.197 514.828 319.197 515.805V520.197C319.197 521.173 318.738 521.661 317.819 521.661Z" fill="black"/>
<path d="M268.073 521.661H262.647C261.614 521.661 261.097 521.173 261.097 520.197V474.464C261.097 473.89 260.81 473.602 260.235 473.602H249.384C248.35 473.602 247.833 473.114 247.833 472.138V467.746C247.833 466.77 248.35 466.282 249.384 466.282H281.336C282.37 466.282 282.887 466.77 282.887 467.746V472.138C282.887 473.114 282.37 473.602 281.336 473.602H270.485C269.853 473.602 269.537 473.89 269.537 474.464V520.197C269.537 521.173 269.049 521.661 268.073 521.661Z" fill="black"/>
<path d="M235.376 466.282H240.802C241.835 466.282 242.352 466.741 242.352 467.66V508.311C242.352 512.503 241.146 515.776 238.735 518.13C236.381 520.484 233.108 521.661 228.916 521.661H219.356C215.165 521.661 211.892 520.484 209.538 518.13C207.184 515.776 206.007 512.503 206.007 508.311V467.746C206.007 466.77 206.495 466.282 207.471 466.282H212.897C213.873 466.282 214.361 466.77 214.361 467.746V507.967C214.361 512.216 216.428 514.34 220.562 514.34H227.625C231.816 514.34 233.912 512.216 233.912 507.967V467.746C233.912 466.77 234.4 466.282 235.376 466.282Z" fill="black"/>
<path d="M185.716 521.661H180.29C179.256 521.661 178.74 521.173 178.74 520.197V474.464C178.74 473.89 178.452 473.602 177.878 473.602H167.026C165.993 473.602 165.476 473.114 165.476 472.138V467.746C165.476 466.77 165.993 466.282 167.026 466.282H198.979C200.013 466.282 200.53 466.77 200.53 467.746V472.138C200.53 473.114 200.013 473.602 198.979 473.602H188.127C187.496 473.602 187.18 473.89 187.18 474.464V520.197C187.18 521.173 186.692 521.661 185.716 521.661Z" fill="black"/>
<path d="M159.022 467.746V520.197C159.022 521.173 158.534 521.661 157.558 521.661H152.132C151.156 521.661 150.668 521.173 150.668 520.197V467.746C150.668 466.77 151.156 466.282 152.132 466.282H157.558C158.534 466.282 159.022 466.77 159.022 467.746Z" fill="black"/>
<path d="M129.516 521.661H124.09C123.057 521.661 122.54 521.173 122.54 520.197V474.464C122.54 473.89 122.253 473.602 121.679 473.602H110.827C109.793 473.602 109.276 473.114 109.276 472.138V467.746C109.276 466.77 109.793 466.282 110.827 466.282H142.78C143.813 466.282 144.33 466.77 144.33 467.746V472.138C144.33 473.114 143.813 473.602 142.78 473.602H131.928C131.296 473.602 130.98 473.89 130.98 474.464V520.197C130.98 521.173 130.492 521.661 129.516 521.661Z" fill="black"/>
<path d="M67.604 508.225V505.986C67.604 505.01 68.0921 504.522 69.0682 504.522H74.5803C75.5564 504.522 76.0444 505.01 76.0444 505.986V507.536C76.0444 509.948 76.5612 511.699 77.5947 512.79C78.6856 513.824 80.4656 514.34 82.9345 514.34H88.8773C91.3462 514.34 93.1262 513.795 94.2171 512.704C95.3081 511.556 95.8535 509.718 95.8535 507.192V505.211C95.8535 503.374 95.1358 501.938 93.7003 500.905C92.3223 499.814 90.5998 499.125 88.5328 498.838C86.4657 498.493 84.1977 498.034 81.7288 497.46C79.2598 496.885 76.9918 496.225 74.9248 495.479C72.8577 494.732 71.1065 493.325 69.671 491.258C68.293 489.191 67.604 486.55 67.604 483.335V479.717C67.604 475.526 68.7811 472.253 71.1352 469.899C73.5467 467.488 76.8483 466.282 81.0397 466.282H90.1692C94.4181 466.282 97.7196 467.488 100.074 469.899C102.485 472.253 103.691 475.526 103.691 479.717V481.612C103.691 482.588 103.203 483.076 102.227 483.076H96.7148C95.7387 483.076 95.2506 482.588 95.2506 481.612V480.493C95.2506 478.024 94.7052 476.272 93.6142 475.239C92.5807 474.148 90.8295 473.602 88.3605 473.602H82.9345C80.4656 473.602 78.6856 474.177 77.5947 475.325C76.5612 476.416 76.0444 478.311 76.0444 481.009V483.679C76.0444 486.263 77.9105 488.014 81.6426 488.933C83.3078 489.335 85.1164 489.679 87.0686 489.967C89.0782 490.254 91.0878 490.684 93.0975 491.258C95.1071 491.833 96.9445 492.608 98.6096 493.584C100.275 494.503 101.624 495.938 102.658 497.89C103.691 499.785 104.208 502.11 104.208 504.866V508.225C104.208 512.417 103.002 515.718 100.59 518.13C98.2364 520.484 94.9635 521.661 90.7721 521.661H81.1259C76.9344 521.661 73.6329 520.484 71.2213 518.13C68.8098 515.718 67.604 512.417 67.604 508.225Z" fill="black"/>
<path d="M26.6932 521.661H21.3533C20.3772 521.661 19.8892 521.173 19.8892 520.197V467.746C19.8892 466.77 20.3772 466.282 21.3533 466.282H26.1764C27.0951 466.282 27.7267 466.598 28.0712 467.229L48.9138 504.694H49.2583V467.746C49.2583 466.77 49.7464 466.282 50.7225 466.282H56.0623C57.0384 466.282 57.5265 466.77 57.5265 467.746V520.197C57.5265 521.173 57.0384 521.661 56.0623 521.661H51.4115C50.4928 521.661 49.7464 521.202 49.1722 520.283L28.5018 483.249H28.1573V520.197C28.1573 521.173 27.6693 521.661 26.6932 521.661Z" fill="black"/>
<path d="M8.35428 467.746V520.197C8.35428 521.173 7.86623 521.661 6.89012 521.661H1.46415C0.488051 521.661 0 521.173 0 520.197V467.746C0 466.77 0.488051 466.282 1.46415 466.282H6.89012C7.86623 466.282 8.35428 466.77 8.35428 467.746Z" fill="black"/>
<path d="M49.5415 369.294C49.5415 368.771 49.9337 368.248 50.7183 367.725C50.9798 367.464 51.5028 366.81 52.2873 365.765C53.5949 364.196 54.6409 362.889 55.4255 361.844C55.687 361.582 55.8177 361.19 55.8177 360.667C55.8177 360.406 55.687 360.275 55.4255 360.275H53.8564C53.3334 360.275 53.0719 360.275 53.0719 360.275C53.0719 360.536 52.6796 360.667 51.8951 360.667C51.6336 360.667 51.372 360.667 51.1105 360.667C50.5875 360.929 50.0645 361.19 49.5415 361.451C49.2799 361.451 49.0184 361.451 48.7569 361.451C48.4954 361.451 48.3647 361.451 48.3647 361.451H47.5801C47.0571 361.451 46.6648 361.713 46.4033 362.236C46.4033 364.066 46.4033 365.503 46.4033 366.549C46.4033 367.595 46.6648 368.902 47.1879 370.47C47.4494 370.732 47.7109 370.732 47.9724 370.47C47.9724 370.47 48.4954 370.078 49.5415 369.294ZM12.276 375.176C12.5376 377.006 13.3221 378.574 14.6296 379.881C14.8912 379.881 15.0219 379.881 15.0219 379.881C15.2834 380.665 15.4142 381.057 15.4142 381.057C16.1987 381.842 16.591 382.234 16.591 382.234C16.8525 382.234 17.114 382.495 17.3755 383.018C17.3755 382.757 17.5063 383.018 17.7678 383.802L18.1601 384.587C18.1601 384.325 18.5523 384.979 19.3369 386.547C19.3369 386.809 19.4676 387.201 19.7291 387.723C19.9906 388.246 20.2521 388.769 20.5137 389.292C20.5137 389.553 20.7752 389.553 21.2982 389.292C21.0367 389.553 21.2982 389.292 22.0827 388.508C22.3442 388.246 22.6058 387.854 22.8673 387.331C23.3903 386.809 23.7826 386.416 24.0441 386.155C24.5671 385.894 24.9594 385.501 25.2209 384.979C25.4824 384.456 25.6131 384.325 25.6131 384.587C26.3977 383.802 27.4437 383.018 28.7513 382.234C29.7973 381.188 30.0588 381.057 29.5358 381.842C30.0588 381.319 30.5819 381.188 31.1049 381.45L31.4971 381.057C32.0202 380.796 32.1509 380.665 31.8894 380.665C33.197 380.404 33.72 379.881 33.4585 379.097C33.4585 378.835 33.5892 378.051 33.8508 376.744C33.8508 376.483 33.8508 376.091 33.8508 375.568C33.8508 375.045 33.8508 374.522 33.8508 373.999C34.1123 373.999 34.243 372.954 34.243 370.862C34.243 370.078 34.243 369.555 34.243 369.294C34.5045 367.203 34.5045 366.026 34.243 365.765C34.243 365.503 34.1123 365.242 33.8508 364.98C33.3277 364.98 33.0662 365.111 33.0662 365.373C32.2817 365.634 31.4971 365.765 30.7126 365.765C30.9741 365.765 30.4511 365.634 29.1435 365.373C28.882 365.634 28.2283 365.765 27.1822 365.765C25.8746 365.765 25.0901 365.765 24.8286 365.765C24.8286 366.026 24.0441 366.418 22.475 366.941L20.1214 367.725C19.0753 368.248 18.2908 368.51 17.7678 368.51C17.7678 368.51 17.7678 368.64 17.7678 368.902C17.2448 369.163 16.9832 369.294 16.9832 369.294L15.4142 370.078C16.1987 369.555 16.1987 369.686 15.4142 370.47C14.1066 371.516 13.3221 372.169 13.0606 372.431C12.5376 372.954 12.276 373.607 12.276 374.391V375.176ZM33.8508 411.251C34.1123 410.989 33.9815 410.597 33.4585 410.074C33.4585 409.029 33.4585 408.506 33.4585 408.506C33.197 407.199 33.0662 406.676 33.0662 406.937C32.8047 406.153 32.674 404.977 32.674 403.408V401.056C32.674 401.056 32.8047 400.794 33.0662 400.271C33.0662 399.749 32.9355 399.487 32.674 399.487V398.703C32.674 398.441 32.674 398.049 32.674 397.527V396.742C32.674 395.958 32.674 394.52 32.674 392.429C32.674 391.645 32.2817 391.253 31.4971 391.253C31.2356 391.775 31.1049 392.037 31.1049 392.037C30.8434 392.037 30.7126 392.037 30.7126 392.037C30.4511 391.775 30.1896 391.775 29.9281 392.037L29.5358 392.429C29.0128 392.952 28.359 393.213 27.5745 393.213C27.5745 393.213 27.4437 393.344 27.1822 393.605C26.6592 394.39 25.8746 394.52 24.8286 393.997H24.0441C22.7365 393.475 22.0827 393.213 22.0827 393.213C21.8212 392.952 21.4289 392.56 20.9059 392.037C20.6444 391.775 20.3829 391.775 20.1214 392.037C19.3369 393.082 18.8138 393.736 18.5523 393.997C18.2908 393.997 17.8985 394.128 17.3755 394.39C15.8064 394.651 15.0219 394.782 15.0219 394.782C14.4989 395.043 13.9759 394.912 13.4528 394.39H13.0606C12.7991 394.39 12.276 394.128 11.4915 393.605C11.4915 393.605 11.0992 393.213 10.3147 392.429C10.0532 392.168 9.66092 391.906 9.1379 391.645C9.1379 391.383 9.00714 391.253 8.74563 391.253C7.69958 391.253 6.91505 390.86 6.39203 390.076C5.60749 388.246 4.95371 386.939 4.43069 386.155C5.21522 387.201 4.95371 386.547 3.64615 384.194C3.64615 383.933 3.38464 383.672 2.86162 383.41C2.33859 383.149 2.20784 382.757 2.46935 382.234C2.46935 381.972 2.46935 381.711 2.46935 381.45L2.07708 379.881C2.33859 379.097 2.33859 378.182 2.07708 377.136C1.81557 376.613 1.68481 376.221 1.68481 375.96V374.391C1.68481 373.346 1.81557 372.431 2.07708 371.647C2.33859 368.51 2.46935 367.333 2.46935 368.117C2.46935 365.242 2.46935 363.935 2.46935 364.196L2.86162 362.236C3.12313 361.713 3.25388 361.451 3.25388 361.451C2.99237 360.406 3.12313 359.36 3.64615 358.314C3.64615 357.53 4.03842 357.007 4.82296 356.746L5.60749 355.962C6.13051 356.485 6.65354 356.485 7.17656 355.962C7.43807 355.962 7.56883 356.092 7.56883 356.354C8.87639 357.661 9.66092 358.707 9.92243 359.491C10.1839 361.321 10.1839 362.366 9.92243 362.628C9.92243 362.889 10.0532 363.543 10.3147 364.588C10.3147 364.85 10.4455 364.98 10.707 364.98C10.4455 364.98 11.4915 364.458 13.8451 363.412C15.4142 362.628 16.591 361.974 17.3755 361.451C15.8064 362.236 16.591 361.974 19.7291 360.667C21.2982 359.883 22.0827 359.491 22.0827 359.491C23.9133 358.968 24.8286 358.707 24.8286 358.707L26.0054 358.314C25.2209 358.576 25.3516 358.576 26.3977 358.314C26.6592 358.053 26.9207 357.922 27.1822 357.922C27.7052 357.661 27.836 357.661 27.5745 357.922C27.836 357.661 28.2283 357.53 28.7513 357.53C29.2743 357.53 29.6666 357.53 29.9281 357.53C30.9741 357.269 31.2356 357.138 30.7126 357.138L31.4971 357.53H31.8894C32.1509 357.269 32.5432 357.138 33.0662 357.138C33.5892 357.138 33.9815 357.007 34.243 356.746C34.766 356.485 35.1583 356.223 35.4198 355.962C35.4198 355.7 35.5506 355.177 35.8121 354.393C35.8121 354.132 35.8121 353.74 35.8121 353.217V352.04C36.0736 348.381 36.2044 347.466 36.2044 349.296C36.2044 347.989 36.2044 346.812 36.2044 345.767C36.2044 345.767 36.2044 345.244 36.2044 344.198C35.9429 342.368 35.8121 341.845 35.8121 342.63L35.4198 341.061C35.4198 340.538 35.4198 340.277 35.4198 340.277C34.8968 339.493 34.766 338.97 35.0276 338.708C35.0276 338.708 34.8968 338.447 34.6353 337.924L33.8508 336.748C33.8508 336.486 33.8508 335.964 33.8508 335.179L34.6353 334.395C36.2044 334.134 37.2504 334.003 37.7734 334.003C40.3885 336.094 41.1731 336.486 40.127 335.179H40.9116C41.6961 335.441 42.0884 335.571 42.0884 335.571C42.0884 335.571 42.4806 335.833 43.2652 336.356C43.5267 336.356 43.7882 336.356 44.0497 336.356C44.0497 336.356 44.3112 336.617 44.8342 337.14C45.0958 337.401 45.2265 337.663 45.2265 337.924C45.488 337.924 45.6188 337.924 45.6188 337.924C45.6188 336.878 46.0111 337.401 46.7956 339.493C47.0571 339.493 47.4494 340.015 47.9724 341.061C47.4494 341.584 47.4494 341.976 47.9724 342.237C47.7109 344.067 47.5801 344.982 47.5801 344.982C47.5801 345.767 47.5801 346.289 47.5801 346.551C47.8416 347.596 47.8416 348.381 47.5801 348.904C47.0571 349.688 46.9263 350.733 47.1879 352.04H47.5801C49.1492 350.733 49.5415 350.733 48.7569 352.04C49.0184 352.04 49.2799 351.91 49.5415 351.648C50.5875 351.387 51.372 351.256 51.8951 351.256C51.6336 351.256 52.1566 351.256 53.4641 351.256C56.8638 350.995 57.7791 350.864 56.21 350.864C57.5176 350.864 58.4329 350.864 58.9559 350.864C60.7865 351.126 62.3555 351.256 63.6631 351.256C64.1861 351.518 64.9707 351.91 66.0167 352.433C67.3243 352.955 68.3703 353.478 69.1548 354.001C69.6779 354.263 70.5932 354.916 71.9007 355.962C72.4237 356.485 72.816 357.007 73.0775 357.53C72.293 356.485 72.816 357.138 74.6466 359.491C74.6466 359.491 74.7773 359.491 75.0388 359.491L75.8234 359.883C76.0849 360.667 76.3464 361.19 76.6079 361.451C76.3464 361.19 76.3464 361.582 76.6079 362.628C76.6079 362.889 76.6079 363.151 76.6079 363.412V363.804C76.6079 364.327 76.6079 364.719 76.6079 364.98C76.6079 364.98 76.3464 365.373 75.8234 366.157C75.5619 366.68 75.0389 366.941 74.2543 366.941C74.2543 366.941 73.8621 367.072 73.0775 367.333L72.6852 367.725L72.293 366.941C72.0315 366.941 71.6392 367.072 71.1162 367.333C71.1162 367.333 70.8547 367.595 70.3316 368.117L69.9394 367.725C69.9394 367.725 69.6779 367.725 69.1548 367.725H68.3703C68.1088 367.464 67.978 367.333 67.978 367.333C67.455 367.072 67.1935 367.203 67.1935 367.725C67.1935 367.725 67.0627 367.725 66.8012 367.725L66.0167 368.51C66.0167 368.771 65.7552 368.771 65.2322 368.51C64.9707 368.51 64.7091 368.51 64.4476 368.51L63.2708 369.686H62.8786C62.3555 369.425 61.8325 369.555 61.3095 370.078C61.3095 369.817 61.3095 369.686 61.3095 369.686C61.3095 369.163 61.1787 369.032 60.9172 369.294C59.6097 369.555 59.2174 369.555 59.7404 369.294C59.4789 369.555 59.2174 369.817 58.9559 370.078C58.9559 370.339 58.8251 370.47 58.5636 370.47C58.0406 369.947 57.6483 369.947 57.3868 370.47C57.3868 370.732 57.5176 370.862 57.7791 370.862H58.5636V371.254C58.8251 371.777 59.3481 372.039 60.1327 372.039C60.3942 372.039 60.525 372.169 60.525 372.431C61.048 372.692 61.048 372.954 60.525 373.215L60.1327 373.607C60.3942 373.869 60.525 373.999 60.525 373.999H60.9172C61.9633 373.999 62.617 374.391 62.8786 375.176C63.6631 375.437 64.0554 375.96 64.0554 376.744C64.0554 377.528 63.7938 378.051 63.2708 378.313V378.705C62.7478 378.443 62.094 378.574 61.3095 379.097C60.7865 378.835 60.2634 379.097 59.7404 379.881C59.4789 380.142 59.0866 380.273 58.5636 380.273L56.9945 380.665C57.5176 380.927 57.9098 381.057 58.1713 381.057C57.9098 381.58 57.6483 381.711 57.3868 381.45H56.6023C56.0793 381.188 55.687 381.057 55.4255 381.057C55.4255 381.057 55.4255 381.45 55.4255 382.234C53.5949 382.495 52.5488 382.626 52.2873 382.626C53.0719 382.365 52.4181 382.495 50.326 383.018C50.0645 383.018 49.6722 383.018 49.1492 383.018C48.6262 383.018 48.3647 383.279 48.3647 383.802C48.3647 384.325 48.3647 384.979 48.3647 385.763C48.3647 385.763 48.3647 385.894 48.3647 386.155V386.939C48.3647 387.462 48.3647 388.508 48.3647 390.076C48.3647 390.076 48.2339 390.207 47.9724 390.468C47.9724 390.73 47.9724 390.73 47.9724 390.468C47.7109 391.514 47.4494 392.168 47.1879 392.429C47.1879 392.952 47.4494 393.344 47.9724 393.605C47.9724 393.605 47.9724 393.736 47.9724 393.997C47.7109 395.043 47.5801 395.827 47.5801 396.35C47.5801 396.35 47.4494 396.612 47.1879 397.134C47.1879 397.396 47.3186 397.657 47.5801 397.919C47.8416 398.18 47.9724 398.311 47.9724 398.311C47.4494 398.572 47.3186 399.095 47.5801 399.879C47.5801 399.618 47.4494 400.141 47.1879 401.448V404.585C46.6648 406.676 46.5341 407.46 46.7956 406.937V407.33V407.722C46.7956 408.244 46.7956 409.421 46.7956 411.251C46.2726 411.512 46.0111 411.774 46.0111 412.035C46.0111 412.035 46.0111 412.166 46.0111 412.427L46.4033 412.819C46.4033 413.603 46.4033 413.734 46.4033 413.211C46.4033 413.996 46.1418 414.388 45.6188 414.388V414.78C45.6188 415.041 45.8803 415.695 46.4033 416.74C46.1418 416.74 46.0111 416.479 46.0111 415.956H45.6188C45.6188 416.479 45.488 417.002 45.2265 417.525C45.2265 417.525 45.0958 418.309 44.8342 419.877C44.8342 420.4 44.7035 421.054 44.442 421.838L43.2652 422.622L42.8729 423.014C42.6114 423.799 42.0884 424.452 41.3038 424.975C41.0423 425.236 40.6501 425.759 40.127 426.543C39.8655 427.066 39.7348 427.328 39.7348 427.328C39.7348 427.328 39.604 427.589 39.3425 428.112C39.081 428.373 38.558 429.158 37.7734 430.465C37.2504 429.942 36.8581 429.942 36.5966 430.465C36.5966 430.465 36.3351 430.988 35.8121 432.033L35.4198 430.857C34.8968 426.151 34.6353 423.668 34.6353 423.407C34.3738 422.099 34.243 421.315 34.243 421.054C34.243 420.792 34.243 420.531 34.243 420.27V419.877C34.243 420.4 34.243 419.877 34.243 418.309C33.9815 417.525 33.9815 417.002 34.243 416.74V414.388C34.243 413.342 34.243 412.558 34.243 412.035L33.8508 411.251Z" fill="black"/>
<path d="M126.667 374.58C127.276 373.968 128.645 374.09 130.775 374.947C132.966 375.804 134.578 376.875 135.613 378.16C136.343 378.955 136.708 379.781 136.708 380.638C136.769 381.434 136.526 382.535 135.978 383.943C135.552 384.983 135.126 385.625 134.7 385.87C134.274 386.054 133.24 386.146 131.596 386.146C130.014 386.146 129.04 386.084 128.675 385.962C128.31 385.778 128.128 385.411 128.128 384.86C128.128 384.004 128.341 383.575 128.767 383.575C129.253 383.575 129.375 383.392 129.132 383.025C128.888 382.657 129.01 382.321 129.497 382.015C129.801 381.77 129.832 381.219 129.588 380.363C129.345 379.506 128.919 378.772 128.31 378.16C127.702 377.486 127.215 376.783 126.85 376.048C126.484 375.314 126.424 374.824 126.667 374.58ZM127.762 343.921C129.345 343.615 131.079 343.921 132.966 344.839C134.913 345.696 136.678 347.011 138.26 348.786C140.512 351.111 142.003 354.416 142.733 358.7C143.463 362.922 143.829 369.959 143.829 379.812C143.829 387.339 143.342 394.101 142.368 400.098C141.455 406.095 140.269 410.318 138.808 412.765C137.956 414.173 136.435 415.764 134.244 417.539C132.114 419.313 130.166 420.598 128.401 421.394C127.063 421.945 126.119 422.22 125.572 422.22C125.024 422.281 124.081 422.067 122.742 421.578C118.908 420.354 115.956 418.763 113.887 416.804C112.974 415.948 112.244 415.458 111.696 415.336C111.209 415.152 110.388 415.121 109.232 415.244C108.014 415.489 107.162 415.55 106.676 415.427C106.25 415.244 105.732 414.816 105.124 414.142C104.211 413.102 103.359 412.582 102.568 412.582C102.142 412.582 101.685 412.46 101.198 412.215C100.772 411.909 100.468 411.603 100.286 411.297C100.164 410.93 100.164 410.685 100.286 410.562C100.59 410.256 101.32 410.348 102.476 410.838C103.694 411.266 104.424 411.358 104.667 411.113C104.972 410.868 104.88 410.318 104.393 409.461C103.907 408.543 103.45 408.084 103.024 408.084C102.476 408.084 101.107 408.757 98.9163 410.103C96.7254 411.45 95.63 412.307 95.63 412.674C95.63 413.163 94.778 413.255 93.074 412.949C91.5526 412.765 90.305 412.245 89.3313 411.389C88.3576 410.471 87.2926 408.88 86.1363 406.615C85.4669 405.453 85.1018 404.29 85.0409 403.127C84.9801 401.965 85.0105 399.272 85.1322 395.049C85.4974 387.033 85.9234 380.087 86.4102 374.213C86.9579 368.277 87.4143 365.309 87.7795 365.309C88.3881 365.309 89.453 366.165 90.9745 367.879C92.5567 369.531 93.5913 370.908 94.0782 372.009C94.6867 373.539 94.991 375.62 94.991 378.251C94.991 380.822 94.6867 382.994 94.0782 384.769C93.1653 387.278 92.8306 391.255 93.074 396.702C93.3783 402.148 94.0173 405.147 94.991 405.697C95.9039 406.126 97.1514 405.973 98.7337 405.238C100.377 404.504 101.99 403.372 103.572 401.842C104.789 400.557 105.519 399.609 105.763 398.997C106.067 398.385 106.219 397.314 106.219 395.784C106.219 392.234 105.093 390.46 102.842 390.46C101.746 390.46 101.138 390.276 101.016 389.909C100.955 389.542 101.198 388.716 101.746 387.431C102.476 385.962 104.15 384.34 106.767 382.566C110.357 380.24 112.427 378.68 112.974 377.884C113.583 377.089 114.009 375.345 114.252 372.652C114.435 369.47 114.404 367.879 114.161 367.879C113.918 367.879 112.579 368.43 110.144 369.531C107.771 370.633 105.58 371.061 103.572 370.816C100.894 370.51 99.6466 370.143 99.8291 369.715C99.89 369.531 100.042 369.409 100.286 369.347C100.894 369.164 102.781 368.093 105.945 366.135C109.171 364.115 111.209 362.8 112.061 362.188C112.731 361.637 113.248 361.331 113.613 361.27C114.039 361.147 114.648 361.3 115.439 361.729C116.413 362.218 117.082 363.167 117.447 364.574C117.812 365.982 117.995 368.43 117.995 371.918C118.056 373.815 118.147 375.039 118.269 375.589C118.451 376.079 118.938 376.477 119.729 376.783C121.92 377.884 121.707 380.454 119.09 384.493C117.63 386.635 116.899 388.104 116.899 388.899C116.899 389.389 117.021 389.695 117.265 389.817C117.569 389.878 118.238 389.848 119.273 389.725C120.673 389.542 122.133 389.756 123.655 390.368C125.176 390.98 126.119 391.837 126.484 392.938C126.91 393.856 127.428 394.407 128.036 394.591C128.706 394.774 129.436 396.212 130.227 398.905C131.444 403.372 132.601 405.606 133.696 405.606C134.426 405.606 135.217 403.77 136.069 400.098C136.982 396.426 137.682 392.173 138.169 387.339C138.595 382.688 138.595 377.915 138.169 373.019C137.134 361.27 136.13 354.202 135.157 351.815C134.183 349.367 131.962 348.358 128.493 348.786C124.476 349.214 121.22 349.887 118.725 350.805C116.23 351.723 113.37 353.314 110.144 355.579C106.554 358.088 103.42 358.485 100.742 356.772C99.038 355.793 98.399 354.875 98.825 354.018C99.0076 353.651 99.4336 353.467 100.103 353.467C100.833 353.467 102.203 353.131 104.211 352.458C106.28 351.723 107.497 351.173 107.862 350.805C108.106 350.499 108.684 350.346 109.597 350.346C110.51 350.346 111.362 350.071 112.153 349.52C113.005 348.908 113.826 348.511 114.617 348.327C115.469 348.082 117.66 347.317 121.19 346.032C124.72 344.747 126.91 344.043 127.762 343.921ZM125.663 396.151C125.48 396.151 124.476 397.038 122.65 398.813C120.886 400.526 119.182 402.271 117.538 404.045C115.895 405.759 115.104 406.646 115.165 406.707C115.408 406.891 117.112 406.677 120.277 406.065C123.442 405.391 125.237 404.902 125.663 404.596C126.028 404.412 126.211 402.974 126.211 400.282C126.211 397.528 126.028 396.151 125.663 396.151ZM113.066 398.629C113.066 398.446 113.035 398.323 112.974 398.262C112.974 398.14 112.944 398.109 112.883 398.17C109.718 399.394 108.136 400.465 108.136 401.383C108.136 401.995 107.832 402.576 107.223 403.127C106.371 404.045 106.25 404.657 106.858 404.963C107.223 404.963 108.349 403.984 110.236 402.026C112.122 400.067 113.066 398.935 113.066 398.629Z" fill="black"/>
<path d="M230.414 337.423C231.338 336.762 232.394 336.63 233.581 337.027C234.835 337.423 235.726 338.215 236.254 339.403C236.782 340.459 236.848 341.813 236.452 343.463C235.594 347.226 235.165 351.286 235.165 355.643C235.165 358.548 235.297 360.561 235.561 361.683C235.891 362.74 236.683 364.192 237.936 366.041C238.926 367.295 239.751 368.186 240.411 368.714C241.137 369.242 242.06 369.638 243.182 369.902C244.304 370.101 245.492 370.563 246.745 371.289C247.999 372.015 248.89 372.378 249.418 372.378C250.605 372.378 250.539 372.774 249.22 373.566C248.956 373.764 248.626 373.929 248.23 374.061C246.844 374.722 245.755 375.382 244.964 376.042C244.172 376.702 242.984 377.23 241.401 377.626C239.817 377.956 238.497 378.352 237.441 378.815L235.957 379.607L236.254 382.082C236.452 384.063 236.518 390.367 236.452 400.996C236.452 407.532 236.518 411.658 236.65 413.374C236.848 415.552 236.683 418.457 236.155 422.088C235.693 425.719 235.099 428.294 234.373 429.812C233.515 431.726 232.559 433.509 231.503 435.159C230.513 436.81 229.886 437.635 229.622 437.635C229.292 437.635 228.864 437.338 228.336 436.744C228.006 436.281 227.841 435.918 227.841 435.654C227.841 435.456 228.006 435.027 228.336 434.367C228.732 433.707 228.963 432.122 229.029 429.614C229.094 427.171 229.16 421.032 229.226 411.195C229.292 396.672 229.358 388.486 229.424 386.638C229.49 384.789 229.391 383.766 229.127 383.568C228.996 383.436 227.412 384.096 224.377 385.548C221.407 387.001 219.296 388.156 218.042 389.014C216.393 390.07 213.093 391.853 208.145 394.361C206.693 395.088 205.571 395.385 204.779 395.253C204.054 395.121 203.427 394.559 202.899 393.569C202.437 392.645 202.14 391.259 202.008 389.41C201.942 388.024 201.942 387.199 202.008 386.935C202.14 386.604 202.569 386.208 203.295 385.746C204.812 384.822 206.66 383.04 208.837 380.399C211.015 377.758 212.631 375.349 213.687 373.17C214.413 371.586 214.71 370.332 214.578 369.407C214.512 368.483 213.984 367.46 212.994 366.338C210.883 363.895 209.827 361.617 209.827 359.505C209.827 358.779 209.959 358.152 210.223 357.623C210.487 357.095 211.081 356.303 212.005 355.247C213.39 353.597 214.347 352.111 214.875 350.791L215.667 348.711L214.38 347.127C213.522 346.071 212.862 345.444 212.401 345.245C212.005 345.047 211.51 344.783 210.916 344.453C209.266 343.463 208.178 342.902 207.65 342.77C207.188 342.638 206.792 342.737 206.462 343.067C206.198 343.331 205.439 345.345 204.186 349.107C202.932 352.804 202.305 354.884 202.305 355.346C202.305 355.412 202.635 355.445 203.295 355.445C203.625 355.445 203.955 355.544 204.284 355.742C204.68 355.94 204.977 356.171 205.175 356.435C205.439 356.699 205.505 356.864 205.373 356.93C205.241 357.062 204.449 357.491 202.998 358.218C201.678 358.878 200.622 359.736 199.831 360.792C199.105 361.849 198.214 363.796 197.158 366.635C196.102 369.407 195.41 370.992 195.08 371.388C194.816 371.718 194.783 372.048 194.981 372.378C195.179 372.708 194.519 374.028 193.001 376.339C191.55 378.584 190.23 380.729 189.042 382.776L187.261 385.845L186.964 394.064C186.634 403.967 186.271 409.314 185.875 410.106C185.545 410.634 185.248 410.898 184.984 410.898C184.786 410.898 184.423 410.7 183.895 410.304C183.302 409.842 182.675 409.611 182.015 409.611C181.223 409.611 180.299 408.819 179.244 407.234C178.254 405.65 177.396 403.67 176.67 401.293C176.538 400.831 176.307 400.831 175.977 401.293C175.515 401.887 174.889 402.415 174.097 402.877C173.371 403.274 172.744 403.472 172.216 403.472C171.49 403.472 170.765 403.042 170.039 402.184C169.313 401.326 168.818 400.303 168.554 399.115C168.224 397.794 168.29 396.012 168.752 393.767C169.214 391.523 169.676 389.905 170.138 388.915C170.666 387.925 171.556 386.836 172.81 385.647C174.592 383.931 176.472 381.422 178.452 378.121C180.497 374.821 181.289 372.939 180.827 372.477C180.695 372.345 179.31 373.203 176.67 375.052C174.031 376.834 171.853 378.419 170.138 379.805C168.356 381.323 166.245 382.842 163.803 384.36L160.24 386.538L157.568 385.845C155.852 385.449 154.763 385.251 154.302 385.251C153.774 385.251 153.048 384.723 152.124 383.667C151.2 382.545 150.771 381.686 150.837 381.092C150.903 380.696 151.134 380.399 151.53 380.201C151.86 379.937 152.586 379.673 153.708 379.409C155.489 378.947 157.04 378.253 158.36 377.329C159.679 376.339 161.296 375.151 163.209 373.764C167.234 370.794 171.688 367.757 176.571 364.654C179.079 363.136 180.53 362.014 180.926 361.287C181.388 360.495 181.256 359.34 180.53 357.822C179.079 354.653 180.035 353.531 183.401 354.455C184.258 354.719 185.644 354.785 187.558 354.653C189.537 354.521 190.692 354.29 191.022 353.96C191.22 353.762 191.121 353.431 190.725 352.969C190.395 352.441 190.164 351.913 190.032 351.385C189.834 350.791 189.042 350.296 187.657 349.9C186.271 349.438 184.918 349.239 183.598 349.305C180.365 349.57 177.495 350.329 174.988 351.583C173.866 352.111 172.381 352.474 170.534 352.672C169.148 352.804 168.455 352.771 168.455 352.573C168.389 352.375 169.511 351.319 171.82 349.405C176.637 345.444 179.31 343.463 179.837 343.463C179.969 343.463 180.596 343.1 181.718 342.374C182.444 341.912 184.225 341.186 187.063 340.195C189.9 339.139 191.616 338.611 192.209 338.611C192.539 338.611 193.133 338.38 193.991 337.918C194.981 337.39 195.707 337.39 196.168 337.918C196.696 338.38 197.389 339.832 198.247 342.275C198.907 343.925 199.105 345.014 198.841 345.543C198.577 346.071 198.313 346.863 198.049 347.919C197.851 348.975 197.323 350.098 196.465 351.286C195.608 352.408 195.179 353.068 195.179 353.266C195.311 353.398 195.674 353.464 196.267 353.464C196.927 353.398 197.653 353.299 198.445 353.167C199.237 353.035 199.732 352.87 199.93 352.672C200.325 352.408 200.82 351.22 201.414 349.107C202.866 344.354 204.416 341.318 206.066 339.997C206.858 339.403 207.782 339.106 208.837 339.106C209.959 339.04 210.883 339.304 211.609 339.898C212.335 340.426 213.291 340.888 214.479 341.285C215.799 341.681 217.217 342.506 218.735 343.76C220.253 344.948 221.242 346.005 221.704 346.929C222.562 348.579 222.925 349.735 222.793 350.395C222.661 350.989 221.836 352.309 220.319 354.356C218.009 357.59 216.689 359.538 216.36 360.198C216.096 360.792 216.195 361.485 216.656 362.278C217.25 363.202 217.943 364.06 218.735 364.852C219.197 365.314 219.824 366.371 220.616 368.021C221.407 369.671 221.803 370.794 221.803 371.388C221.803 371.586 221.275 372.51 220.22 374.16C219.164 375.745 218.405 376.999 217.943 377.923C217.481 378.782 216.722 379.838 215.667 381.092C214.677 382.346 214.248 382.974 214.38 382.974C214.578 382.974 216.327 382.049 219.626 380.201C222.991 378.286 225.333 376.999 226.653 376.339L228.732 375.25L228.93 371.685C229.127 369.308 229.391 364.423 229.721 357.029C230.051 349.636 230.315 344.882 230.513 342.77C230.711 340.591 230.612 339.271 230.216 338.809C229.82 338.281 229.886 337.819 230.414 337.423Z" fill="black"/>
<path d="M421.394 391.195C421.605 390.772 421.745 390.596 421.815 390.667C421.955 390.737 421.955 391.019 421.815 391.512C421.605 392.005 421.429 392.181 421.289 392.04C421.149 391.829 421.184 391.547 421.394 391.195ZM357.102 338.06C358.014 337.99 358.785 338.06 359.417 338.272C360.118 338.483 360.469 338.765 360.469 339.117C360.469 339.469 360.644 339.645 360.995 339.645C361.556 339.645 362.854 340.138 364.889 341.124C366.923 342.11 368.256 342.884 368.887 343.448C369.799 344.293 370.536 345.631 371.097 347.462C371.518 348.8 371.693 349.751 371.623 350.314C371.623 350.807 371.377 351.863 370.886 353.483C370.185 355.666 369.834 357.11 369.834 357.814C369.834 358.448 369.589 359.469 369.097 360.878C368.677 362.004 368.501 363.307 368.571 364.786C368.712 366.195 369.027 367.216 369.518 367.849C369.869 368.272 370.045 370.349 370.045 374.082C370.045 377.744 369.589 381.195 368.677 384.434C367.975 386.829 367.098 389.293 366.046 391.829C364.994 394.293 364.152 395.843 363.521 396.477C363.17 396.899 362.889 397.462 362.679 398.167C362.398 398.73 362.188 398.977 362.047 398.906C361.837 398.765 361.276 399.012 360.364 399.646C359.592 400.209 359.066 400.526 358.785 400.596C358.505 400.596 358.119 400.35 357.628 399.857C356.435 398.589 355.769 398.941 355.629 400.913C355.488 402.463 355.629 405.667 356.05 410.526C356.681 417.216 356.821 420.843 356.471 421.406C356.26 421.759 355.594 422.005 354.471 422.146C353.7 422.287 353.138 422.251 352.788 422.04C352.507 421.899 352.051 421.442 351.42 420.667C350.438 419.47 349.912 418.519 349.841 417.815C349.631 415.843 349.14 414.399 348.368 413.484C348.088 413.202 347.842 412.639 347.632 411.794C347.491 410.949 347.386 410.209 347.316 409.575C347.316 408.941 347.421 408.589 347.632 408.519C347.912 408.519 348.228 408.801 348.579 409.364C349.07 410.35 349.42 409.998 349.631 408.308C349.771 407.251 349.876 405.385 349.947 402.709C350.017 398.131 350.122 395.279 350.262 394.153C350.403 392.955 350.578 390.491 350.788 386.758C350.999 382.955 350.859 380.314 350.368 378.835C349.876 377.357 349.631 376.124 349.631 375.138C349.631 374.434 349.666 374.082 349.736 374.082L350.683 375.772L351.841 377.99L351.946 370.596C352.086 364.117 351.806 360.561 351.104 359.927C350.683 359.575 349.876 359.645 348.684 360.138C347.912 360.49 347.316 360.631 346.895 360.561C346.544 360.49 345.878 360.173 344.896 359.61C343.563 358.765 342.3 357.638 341.108 356.23C339.985 354.751 339.003 353.483 338.161 352.427C337.53 351.723 337.179 351.23 337.109 350.948C337.039 350.596 337.144 350.068 337.425 349.363C337.846 348.307 338.547 347.638 339.529 347.356C340.511 347.004 341.669 346.37 343.002 345.455C344.405 344.539 345.211 344.082 345.422 344.082C345.632 344.082 346.264 343.694 347.316 342.92C348.649 341.934 350.403 340.913 352.577 339.856C354.752 338.729 356.26 338.131 357.102 338.06ZM359.206 354.328C359.206 352.779 359.066 352.004 358.785 352.004C358.575 352.004 357.453 352.955 355.418 354.856C353.945 356.335 353.068 357.286 352.788 357.708C352.577 358.131 352.577 358.8 352.788 359.716L353.209 361.194C353.279 361.194 353.384 360.948 353.524 360.455C353.805 359.61 353.945 359.504 353.945 360.138C354.015 360.701 354.261 360.983 354.682 360.983C355.874 360.983 356.541 365.807 356.681 375.455C356.751 380.596 356.891 383.307 357.102 383.589C357.242 383.73 357.347 383.624 357.418 383.272C357.488 383.202 357.523 383.061 357.523 382.85C357.523 382.145 357.733 381.265 358.154 380.209C359.206 377.744 359.978 374.293 360.469 369.857C361.03 365.349 360.995 362.497 360.364 361.3C359.662 360.032 359.277 357.708 359.206 354.328ZM390.353 327.497C391.966 326.581 394.737 326.933 398.666 328.553C402.243 329.962 404.558 331.898 405.61 334.363C405.961 335.279 406.102 335.842 406.031 336.053C405.961 336.265 405.575 336.546 404.874 336.898C404.243 337.251 403.716 337.427 403.296 337.427C402.945 337.427 402.278 337.251 401.296 336.898C399.893 336.335 398.315 336.018 396.561 335.948C395.369 335.948 394.492 336.053 393.931 336.265C393.369 336.405 392.598 336.863 391.616 337.638C389.722 339.117 388.354 340.596 387.512 342.075C386.67 343.553 386.109 345.42 385.828 347.673C385.477 350.068 385.477 351.3 385.828 351.37C385.898 351.37 385.969 351.335 386.039 351.265C386.6 351.053 387.196 350.913 387.827 350.842C388.459 350.772 390.178 350.068 392.984 348.73C398.385 346.194 403.26 344.504 407.61 343.659C409.153 343.307 410.837 343.377 412.661 343.87C414.555 344.363 416.133 345.138 417.396 346.194C418.097 346.758 418.553 347.251 418.764 347.673C419.044 348.096 419.184 348.694 419.184 349.469C419.184 350.525 418.939 351.652 418.448 352.849C417.957 353.976 417.466 354.539 416.975 354.539C416.554 354.539 416.063 354.856 415.502 355.49C414.94 356.124 413.958 356.547 412.555 356.758C411.573 356.899 409.96 357.462 407.715 358.448C405.47 359.434 403.541 360.385 401.928 361.3L400.349 362.356L401.928 363.202C403.05 363.694 403.997 364.293 404.769 364.997L406.031 365.948L404.348 367.427C403.296 368.413 402.419 369.011 401.717 369.223C401.086 369.364 400.349 369.927 399.507 370.913C398.736 371.899 398.175 372.392 397.824 372.392C397.473 372.392 397.613 372.04 398.245 371.335C398.806 370.631 399.016 370.314 398.876 370.385C398.525 370.455 397.438 371.265 395.614 372.814C393.229 374.997 391.686 376.441 390.984 377.145C390.353 377.779 390.107 378.272 390.248 378.624C390.388 378.976 390.072 379.54 389.301 380.314C388.739 380.807 388.143 381.547 387.512 382.533C386.88 383.448 386.565 384.082 386.565 384.434C386.565 384.434 387.722 383.906 390.037 382.85C392.352 381.793 394.702 380.666 397.087 379.469C399.472 378.272 400.735 377.603 400.875 377.462C401.016 377.321 400.84 377.11 400.349 376.828C400.069 376.617 399.928 376.441 399.928 376.3C399.998 376.089 400.209 375.807 400.56 375.455C401.121 374.962 401.401 374.786 401.401 374.927C401.401 374.997 401.331 375.173 401.191 375.455C401.121 375.878 401.191 376.089 401.401 376.089C401.822 375.807 403.225 375.913 405.61 376.406C407.996 376.899 409.363 377.357 409.714 377.779C410.065 378.272 410.24 379.012 410.24 379.997C410.24 380.631 410.03 381.265 409.609 381.899C409.188 382.533 408.241 383.554 406.768 384.962C404.383 387.216 402.454 388.976 400.981 390.244C400.77 390.455 400.454 390.737 400.034 391.089C397.508 393.272 396.07 394.575 395.719 394.998C395.439 395.42 395.614 395.878 396.245 396.371L396.456 396.582C397.438 397.357 398.14 400.772 398.56 406.829C398.701 408.871 399.016 410.35 399.507 411.265C399.858 411.97 400.209 412.392 400.56 412.533C400.981 412.674 402.173 412.709 404.137 412.639C406.663 412.568 408.101 412.357 408.452 412.005C408.802 411.653 409.223 411.477 409.714 411.477C410.205 411.477 411.468 410.984 413.502 409.998C415.677 408.871 417.22 407.533 418.132 405.984C419.044 404.364 420.026 401.336 421.078 396.899C421.71 394.223 422.306 392.181 422.867 390.772C424.13 387.251 424.937 383.483 425.287 379.469C425.358 378.483 425.287 377.99 425.077 377.99C424.726 378.202 424.551 378.659 424.551 379.364C424.551 379.997 424.411 380.314 424.13 380.314C424.06 380.314 424.025 380.174 424.025 379.892C424.025 379.61 424.06 379.223 424.13 378.73C424.2 378.237 424.305 377.709 424.446 377.145C424.867 375.103 425.112 373.589 425.182 372.603L425.287 371.758C425.358 371.899 425.463 372.357 425.603 373.131C425.743 374.047 425.849 374.54 425.919 374.61C425.989 374.681 426.094 374.575 426.235 374.293C426.235 374.152 426.305 374.011 426.445 373.871C426.655 373.378 426.761 373.096 426.761 373.026L427.182 373.871C427.182 374.011 427.217 374.223 427.287 374.504C427.497 375.702 427.497 376.476 427.287 376.828C427.146 377.04 427.111 377.181 427.182 377.251C427.252 377.251 427.322 377.216 427.392 377.145C427.602 377.075 427.743 377.216 427.813 377.568C427.883 377.779 427.953 378.061 428.023 378.413C428.093 380.948 428.269 382.216 428.549 382.216C428.83 382.216 429.041 382.04 429.181 381.688L429.391 384.54C429.391 386.793 429.426 390.667 429.496 396.16C429.707 406.653 428.269 412.885 425.182 414.857C424.27 415.35 423.499 415.878 422.867 416.442C422.236 417.005 420.412 417.709 417.396 418.554C414.379 419.47 411.678 420.068 409.293 420.35C405.646 420.843 402.804 420.702 400.77 419.928C399.858 419.575 398.666 418.66 397.192 417.181C395.719 415.773 394.983 414.787 394.983 414.223C394.983 413.66 394.597 412.603 393.825 411.054C393.404 410.068 393.124 409.118 392.984 408.202C392.843 407.287 392.773 405.702 392.773 403.448C392.843 399.857 392.773 398.061 392.563 398.061C392.352 398.061 391.966 398.554 391.405 399.54C390.844 400.526 390.563 401.23 390.563 401.653C390.563 402.146 390.178 402.744 389.406 403.448C388.704 404.082 387.757 405.103 386.565 406.512C384.11 409.54 381.935 411.547 380.041 412.533C378.848 413.167 378.252 413.625 378.252 413.906C378.112 414.118 377.761 414.223 377.2 414.223C376.709 414.223 376.077 414.118 375.306 413.906C374.604 413.765 374.078 413.554 373.727 413.273C373.236 412.92 372.956 412.322 372.886 411.477C372.815 410.702 372.57 410.174 372.149 409.892C371.798 409.681 371.728 409.082 371.939 408.096C372.149 407.11 372.114 406.512 371.833 406.301C371.553 406.019 371.412 405.561 371.412 404.927C371.483 404.223 371.693 403.589 372.044 403.026C372.395 402.392 372.745 402.146 373.096 402.286C373.517 402.427 374.78 401.547 376.884 399.646C379.76 397.04 381.128 395.913 380.988 396.265C380.988 396.265 380.146 397.11 378.463 398.801C376.148 400.984 375.13 402.075 375.411 402.075C375.902 402.075 377.27 400.984 379.515 398.801C381.76 396.547 383.092 394.962 383.513 394.047L384.566 392.04L383.198 392.462C382.005 392.744 380.707 392.815 379.304 392.674C378.883 392.674 378.673 392.427 378.673 391.934C378.673 391.441 378.392 391.054 377.831 390.772C377.34 390.491 377.2 390.138 377.41 389.716C377.691 389.293 377.831 388.413 377.831 387.075C377.901 385.737 378.182 384.998 378.673 384.857C378.883 384.716 379.024 384.681 379.094 384.751C379.164 384.821 379.094 384.998 378.883 385.279C378.252 386.336 380.497 384.364 385.618 379.364L390.248 374.716L388.564 374.188C387.442 373.906 386.67 373.483 386.249 372.92C385.758 372.286 385.548 371.617 385.618 370.913C385.688 370.138 386.004 369.68 386.565 369.54C387.126 369.399 387.442 368.589 387.512 367.11C387.582 365.631 387.722 364.716 387.933 364.363C388.213 364.011 388.739 363.941 389.511 364.152C390.423 364.293 391.931 363.694 394.036 362.356C396.14 360.948 397.228 360.138 397.298 359.927C397.438 359.645 397.754 359.504 398.245 359.504C398.736 359.504 399.051 359.258 399.192 358.765C399.402 358.272 399.683 358.025 400.034 358.025C400.735 358.025 402.699 356.652 405.926 353.906C409.153 351.089 410.766 349.399 410.766 348.835C410.766 347.99 408.452 348.413 403.822 350.103C402.068 350.737 399.858 351.476 397.192 352.321C394.597 353.166 391.686 354.328 388.459 355.807L383.724 358.025L383.408 361.089C383.198 362.779 382.707 364.821 381.935 367.216C381.163 369.61 380.462 371.3 379.83 372.286C379.269 373.061 378.673 373.906 378.042 374.821C377.48 375.666 377.2 375.913 377.2 375.561C377.2 375.138 376.814 374.821 376.042 374.61C374.359 374.188 373.026 371.582 372.044 366.793L371.307 362.99L372.886 361.3C375.481 358.624 377.165 356.476 377.936 354.856C378.217 354.152 378.498 353.694 378.778 353.483C378.989 353.342 379.445 352.603 380.146 351.265C380.848 349.927 381.198 349.152 381.198 348.941C381.198 348.659 381.724 347.708 382.777 346.089C383.829 344.469 384.46 343.659 384.671 343.659C384.951 343.659 385.162 343.377 385.302 342.814C385.513 342.18 386.775 340.701 389.09 338.377C391.405 336.053 392.563 334.715 392.563 334.363C392.563 334.011 392.808 333.729 393.299 333.518C394.422 333.096 394.211 332.532 392.668 331.828C391.826 331.405 391.616 330.983 392.036 330.56C392.528 329.926 392.317 329.574 391.405 329.504C391.054 329.434 390.633 329.469 390.142 329.61C389.371 329.821 389.02 329.645 389.09 329.081C389.09 328.518 389.511 327.99 390.353 327.497ZM387.407 380.737C387.757 380.737 388.319 380.42 389.09 379.786C389.862 379.152 390.072 378.835 389.722 378.835C389.371 378.835 388.81 379.152 388.038 379.786C387.266 380.42 387.056 380.737 387.407 380.737Z" fill="black"/>
<path d="M289.474 401.48C289.474 401.164 290.168 400.502 291.555 399.492C292.943 398.483 293.795 397.978 294.11 397.978C294.426 397.978 293.858 398.546 292.407 399.682C292.407 399.682 292.155 399.871 291.65 400.249C291.208 400.565 290.735 400.943 290.231 401.385C289.726 401.763 289.474 401.795 289.474 401.48ZM298.652 376.783C298.778 376.278 299.378 376.562 300.45 377.634C301.081 378.391 301.27 378.77 301.018 378.77C300.765 378.707 300.292 378.423 299.598 377.918C298.968 377.35 298.652 376.972 298.652 376.783ZM307.831 350.477C310.039 349.657 311.079 349.405 310.953 349.72C310.827 349.846 310.291 350.162 309.345 350.666C305.307 352.559 302.847 353.505 301.964 353.505C301.522 353.505 301.302 353.663 301.302 353.978C301.302 354.231 301.081 354.357 300.639 354.357C299.504 354.357 299.598 353.947 300.923 353.127C301.806 352.685 302.942 352.212 304.33 351.707C305.023 351.518 306.191 351.108 307.831 350.477ZM314.927 348.112C315.558 347.985 315.905 347.891 315.968 347.828L316.063 348.206C316.063 348.332 315.653 348.585 314.833 348.963C314.076 349.342 313.508 349.531 313.13 349.531C312.688 349.531 312.94 349.215 313.887 348.585C314.328 348.332 314.675 348.175 314.927 348.112ZM316.915 347.828C317.293 347.575 318.302 347.449 319.943 347.449C321.015 347.386 321.835 347.449 322.403 347.638C323.034 347.828 323.854 348.206 324.863 348.774C326.44 349.72 327.544 350.793 328.175 351.991C328.743 352.937 329.026 353.884 329.026 354.83C329.09 355.713 328.837 356.281 328.27 356.533C326.062 357.669 324.516 358.236 323.633 358.236C323.002 358.236 322.119 358.489 320.983 358.993C319.911 359.435 318.965 359.719 318.145 359.845C317.325 359.908 316.284 360.318 315.022 361.075C313.824 361.769 313.13 362.053 312.94 361.927C312.751 361.737 312.057 362.116 310.859 363.062C309.723 363.945 309.061 364.387 308.872 364.387C308.745 364.387 308.241 364.892 307.358 365.901C306.474 366.847 305.528 367.667 304.519 368.361C303.51 369.055 303.005 369.56 303.005 369.875C303.005 370.127 302.469 370.79 301.396 371.862C300.324 372.871 299.598 373.439 299.22 373.565C298.904 373.692 298.684 374.196 298.558 375.079C298.494 375.899 298.337 376.404 298.084 376.593C298.021 376.656 298.084 376.814 298.274 377.067C298.463 377.256 298.747 377.508 299.125 377.824C299.504 378.139 299.945 378.486 300.45 378.864C303.163 380.82 304.992 382.429 305.938 383.69C306.884 384.889 307.578 386.466 308.02 388.421C308.083 388.8 308.178 389.084 308.304 389.273C308.493 389.462 308.619 389.494 308.682 389.368C308.998 389.241 309.155 389.336 309.155 389.652C309.155 389.967 309.376 390.062 309.818 389.935C310.07 389.809 310.196 389.778 310.196 389.841C310.259 389.904 310.165 390.156 309.912 390.598C309.597 391.292 309.376 391.449 309.25 391.071C309.124 390.692 308.84 390.724 308.398 391.166C307.957 391.607 307.831 391.954 308.02 392.206C308.209 392.585 308.493 392.743 308.872 392.679C309.313 392.616 309.597 392.396 309.723 392.017C309.849 391.576 310.133 391.355 310.575 391.355C311.079 391.355 311.332 391.229 311.332 390.976C311.332 390.661 311.773 390.377 312.657 390.125C313.603 389.872 314.234 389.841 314.549 390.03C314.864 390.219 315.369 390.314 316.063 390.314C318.776 390.44 320.668 390.787 321.74 391.355C322.308 391.67 322.876 392.238 323.444 393.058C324.074 393.815 324.39 394.414 324.39 394.856C324.39 395.297 324.043 395.771 323.349 396.275C322.718 396.78 322.119 397.032 321.551 397.032C321.173 397.032 319.753 397.411 317.293 398.168C314.896 398.862 312.909 399.461 311.332 399.966C309.692 400.407 308.178 400.943 306.79 401.574C305.465 402.142 304.803 402.552 304.803 402.804C304.803 403.057 305.276 403.877 306.222 405.265C308.304 408.229 309.534 411.384 309.912 414.727C310.417 420.152 308.998 423.969 305.654 426.176C304.897 426.744 304.267 427.091 303.762 427.217C303.257 427.343 302.469 427.343 301.396 427.217C299.756 427.154 298.463 426.902 297.517 426.46C296.633 426.019 295.435 424.946 293.921 423.243C292.407 421.603 291.335 420.152 290.704 418.89C290.073 417.566 289.505 416.714 289 416.336C288.496 415.957 288.243 415.61 288.243 415.295C288.243 414.916 287.707 414.348 286.635 413.591C285.626 412.834 284.774 412.393 284.08 412.267C283.197 412.141 282.566 411.667 282.188 410.847C281.241 408.892 281.998 407.094 284.459 405.454C285.657 404.634 286.603 403.908 287.297 403.277C287.865 402.773 288.212 402.52 288.338 402.52C288.464 402.52 288.622 402.741 288.811 403.183C289.064 403.751 289.284 404.003 289.474 403.94C289.726 403.877 289.978 403.467 290.231 402.71C290.546 401.89 291.366 401.164 292.691 400.533C294.016 399.902 294.836 399.398 295.151 399.019C295.53 398.578 295.908 398.357 296.287 398.357C296.602 398.357 296.949 398.136 297.327 397.695C297.769 397.253 297.895 396.969 297.706 396.843C297.517 396.654 297.107 396.748 296.476 397.127C295.845 397.442 295.466 397.505 295.34 397.316C295.277 397.316 295.277 397.285 295.34 397.221C295.403 397.095 295.53 396.969 295.719 396.843C295.908 396.717 296.097 396.622 296.287 396.559C297.107 396.181 297.548 395.518 297.611 394.572C297.674 393.626 298.053 392.459 298.747 391.071C299.441 389.683 300.008 388.358 300.45 387.097L301.018 385.11L298.652 382.933C297.012 381.419 295.813 380.094 295.056 378.959C294.552 378.139 294.236 377.477 294.11 376.972C293.984 376.467 293.984 375.616 294.11 374.417C294.236 372.588 294.394 371.578 294.583 371.389C294.836 371.137 296.35 370.254 299.125 368.74C301.901 367.226 303.51 366.216 303.951 365.712C304.393 365.207 306.979 363.378 311.71 360.223C314.107 358.646 316.095 357.259 317.672 356.06C319.312 354.861 320.479 353.915 321.173 353.221C321.93 352.464 322.214 352.023 322.024 351.896C321.898 351.707 321.236 351.613 320.037 351.613C318.902 351.613 317.798 351.707 316.725 351.896C313.634 352.401 311.773 352.811 311.143 353.127C310.638 353.379 310.165 353.442 309.723 353.316C309.345 353.127 309.155 353.19 309.155 353.505C309.155 353.821 308.935 353.915 308.493 353.789C308.115 353.6 307.452 353.789 306.506 354.357C305.623 354.924 305.087 355.177 304.897 355.114C304.582 355.051 302.973 355.681 300.071 357.006C298.179 357.826 297.107 358.173 296.854 358.047C296.602 357.858 296.476 357.921 296.476 358.236C296.476 358.552 296.318 358.646 296.003 358.52C295.75 358.331 295.309 358.394 294.678 358.709C294.173 358.962 293.921 359.025 293.921 358.899C293.858 358.583 294.268 358.142 295.151 357.574C295.971 357.132 298.747 355.934 303.478 353.978C305.623 353.032 307.011 352.433 307.641 352.18C308.335 351.802 309.818 351.266 312.089 350.572C314.36 349.878 316.221 349.405 317.672 349.152C319.375 348.774 320.668 348.458 321.551 348.206L322.876 347.922L321.551 347.828C320.668 347.828 319.753 347.954 318.807 348.206C317.419 348.585 316.694 348.585 316.631 348.206C316.631 348.08 316.725 347.954 316.915 347.828ZM300.923 405.454C300.355 404.76 299.725 404.444 299.031 404.508C298.463 404.508 297.422 404.886 295.908 405.643C294.394 406.463 293.006 407.283 291.745 408.103C290.546 408.986 290.041 409.554 290.231 409.806C290.42 410.122 291.303 410.595 292.88 411.226C294.457 411.92 295.372 412.204 295.624 412.077C295.94 411.888 296.16 412.014 296.287 412.456C296.539 412.834 297.012 412.961 297.706 412.834C298.463 412.771 299.251 412.487 300.071 411.983C300.955 411.478 301.522 410.942 301.775 410.374C302.09 409.743 302.153 408.923 301.964 407.914C301.775 406.905 301.428 406.085 300.923 405.454ZM314.833 331.458C314.833 330.827 314.927 330.511 315.117 330.511C315.369 330.448 315.684 330.701 316.063 331.268C316.378 331.836 316.694 332.057 317.009 331.931C317.325 331.742 318.019 331.868 319.091 332.309C320.226 332.688 321.078 333.129 321.646 333.634C322.718 334.517 322.781 336 321.835 338.081C321.267 339.217 320.416 340.068 319.28 340.636C318.208 341.204 317.545 341.646 317.293 341.961C317.104 342.213 317.009 342.245 317.009 342.056C317.009 341.803 316.82 341.835 316.441 342.15C316 342.466 314.549 343.443 312.089 345.084C309.629 346.661 308.051 347.607 307.358 347.922C306.664 348.301 306.222 348.585 306.033 348.774C305.907 348.9 305.37 349.215 304.424 349.72C303.793 350.036 303.005 350.54 302.059 351.234C301.175 351.865 300.418 352.464 299.788 353.032C299.157 353.537 298.936 353.82 299.125 353.884C299.378 353.947 299.504 354.136 299.504 354.451C299.504 354.704 299.346 354.735 299.031 354.546C298.778 354.357 298.558 354.483 298.368 354.924C298.242 355.366 297.674 355.776 296.665 356.155C295.656 356.47 295.151 356.754 295.151 357.006C295.151 357.259 294.93 357.385 294.489 357.385C294.11 357.385 293.606 357.669 292.975 358.236C292.344 358.741 292.186 358.962 292.502 358.899C292.502 358.899 292.565 358.899 292.691 358.899C293.195 358.709 293.448 358.741 293.448 358.993C293.448 359.246 292.943 359.687 291.934 360.318C290.924 360.949 290.262 361.264 289.947 361.264C289.631 361.264 289.474 361.39 289.474 361.643C289.474 361.895 289.032 362.116 288.149 362.305C287.329 362.494 286.919 362.747 286.919 363.062C286.919 363.378 287.076 363.441 287.392 363.251C287.707 362.999 287.77 363.062 287.581 363.441C287.392 363.819 287.108 363.914 286.729 363.724C286.477 363.661 286.13 363.756 285.689 364.008C285.31 364.198 284.995 364.45 284.742 364.765C284.49 365.018 284.427 365.238 284.553 365.428C284.679 365.491 284.711 365.522 284.648 365.522C284.585 365.522 284.459 365.491 284.269 365.428C283.765 365.238 283.323 365.396 282.945 365.901C282.629 366.342 282.566 366.563 282.755 366.563C282.945 366.563 282.85 366.752 282.471 367.131C282.093 367.509 281.714 367.636 281.336 367.509C281.021 367.383 280.453 367.73 279.633 368.55C279.002 369.181 278.781 369.465 278.97 369.402C279.349 369.213 279.507 369.244 279.443 369.497C279.443 369.686 278.182 370.727 275.658 372.619C273.64 374.133 270.738 376.751 266.953 380.473C263.231 384.132 260.992 386.56 260.235 387.759C259.667 388.705 259.036 389.178 258.342 389.178C256.765 389.178 255.977 388.8 255.977 388.043C255.977 387.601 255.756 387.065 255.314 386.434C254.936 385.803 254.683 383.879 254.557 380.662L254.463 375.931L255.504 376.026C256.197 376.089 256.828 375.868 257.396 375.363C257.838 375.048 258.027 374.985 257.964 375.174C257.774 375.489 257.774 375.647 257.964 375.647C258.216 375.647 258.878 375.142 259.951 374.133C261.086 373.061 261.654 372.43 261.654 372.241C261.654 371.925 262.411 371.074 263.925 369.686C265.439 368.235 266.259 367.573 266.385 367.699C266.511 367.825 266.354 368.046 265.912 368.361C265.534 368.613 265.502 368.74 265.818 368.74C266.133 368.74 266.575 368.424 267.142 367.793C267.458 367.415 267.584 367.194 267.521 367.131C267.521 367.131 267.458 367.163 267.332 367.226C267.016 367.352 266.858 367.415 266.858 367.415C266.858 367.352 266.985 367.163 267.237 366.847C267.742 366.216 268.12 365.964 268.372 366.09C268.499 366.216 268.467 366.406 268.278 366.658C268.152 366.847 268.152 366.942 268.278 366.942C268.341 366.879 268.499 366.752 268.751 366.563C269.256 366.185 269.413 365.901 269.224 365.712C269.098 365.459 269.287 365.144 269.792 364.765C270.17 364.45 270.36 364.324 270.36 364.387C270.36 364.387 270.233 364.576 269.981 364.955C269.413 365.649 269.445 365.806 270.076 365.428C270.454 365.238 271.022 364.86 271.779 364.292C272.536 363.788 272.914 363.441 272.914 363.251C272.914 363.188 272.82 363.188 272.63 363.251C271.937 363.441 271.621 363.472 271.684 363.346C271.81 363.094 272.473 362.557 273.671 361.737L275.375 360.697C275.375 360.76 275.154 361.043 274.712 361.548L273.577 362.778L275.28 361.737C276.352 361.043 276.889 360.57 276.889 360.318C276.889 360.066 276.731 360.034 276.415 360.223C276.226 360.35 276.163 360.318 276.226 360.129C276.226 360.129 276.226 360.034 276.226 359.845C276.415 359.466 277.299 358.709 278.876 357.574C280.2 356.628 280.957 355.871 281.147 355.303C281.336 354.672 281.084 353.852 280.39 352.843C279.822 351.96 279.538 351.266 279.538 350.761C279.538 350.256 279.349 349.72 278.97 349.152C278.655 348.585 278.718 347.197 279.16 344.989C280.043 341.015 280.169 338.681 279.538 337.987C279.286 337.671 279.002 337.072 278.686 336.189C278.434 335.243 278.529 334.706 278.97 334.58C279.727 334.265 280.358 334.675 280.863 335.81C281.115 336.567 281.525 336.946 282.093 336.946C282.724 336.946 283.386 337.514 284.08 338.649C284.837 339.722 285.373 340.92 285.689 342.245C286.004 343.759 286.351 345.147 286.729 346.408C287.108 347.67 287.297 348.742 287.297 349.626C287.297 350.446 287.392 350.856 287.581 350.856C287.897 350.856 288.401 350.572 289.095 350.004C289.852 349.436 290.199 349.058 290.136 348.869C290.01 348.616 290.294 348.269 290.988 347.828C293.322 346.314 294.678 345.367 295.056 344.989C295.435 344.61 295.53 343.98 295.34 343.096C295.151 342.024 294.899 341.204 294.583 340.636C294.331 340.068 294.299 339.028 294.489 337.514C294.678 335.937 294.646 335.148 294.394 335.148C294.205 335.148 293.984 334.864 293.732 334.296C293.479 333.729 293.322 333.161 293.259 332.593C293.259 332.215 293.038 331.931 292.596 331.742C292.218 331.489 292.186 331.268 292.502 331.079C292.88 330.827 293.385 330.985 294.016 331.552C294.962 332.372 295.813 333.192 296.57 334.013C297.39 334.833 297.801 335.369 297.801 335.621C297.801 335.873 297.895 336 298.084 336C298.337 336 298.715 336.441 299.22 337.324C299.725 338.208 300.229 338.649 300.734 338.649C301.175 338.649 302.469 338.144 304.613 337.135C306.758 336.063 307.894 335.4 308.02 335.148C308.146 334.959 308.115 334.864 307.925 334.864C307.799 334.864 307.673 334.896 307.547 334.959C307.421 335.022 307.389 335.022 307.452 334.959C307.578 334.833 308.051 334.517 308.872 334.013C310.322 333.256 311.489 332.845 312.373 332.782C313.256 332.656 313.887 332.593 314.265 332.593C314.644 332.53 314.833 332.152 314.833 331.458ZM265.534 369.118C265.534 368.74 265.281 368.803 264.777 369.307C264.777 369.307 264.367 369.717 263.547 370.537L261.843 372.335L263.736 370.916C264.934 369.97 265.534 369.37 265.534 369.118Z" fill="black"/>
<path d="M999.271 338.904C1008.26 340.156 1012.76 343.036 1012.76 347.544L1009.39 352.803C995.15 354.807 985.908 357.937 981.662 362.195C973.419 364.198 967.799 365.2 964.801 365.2C957.807 365.2 951.687 360.817 946.442 352.052V351.301L947.941 350.55C955.434 351.05 960.305 351.301 962.553 351.301C968.298 351.301 980.163 347.67 998.147 340.407L999.271 338.904ZM991.029 365.576L995.15 366.327L1000.02 365.576C1001.52 371.085 1002.52 373.84 1003.02 373.84C1013.26 369.332 1019.13 367.078 1020.63 367.078C1022.88 368.08 1024 368.956 1024 369.708V377.596C1011.01 385.61 1003.52 389.617 1001.52 389.617H1000.02C997.273 389.617 994.65 384.984 992.153 375.718H991.029C984.284 382.23 980.912 386.863 980.912 389.617V397.13L974.543 409.903H973.419C973.169 409.903 968.173 404.017 958.432 392.247C956.933 392.247 956.184 391.621 956.184 390.369V386.988C956.184 385.986 957.932 384.233 961.429 381.729H963.302C964.801 381.729 966.05 384.358 967.049 389.617C968.798 388.365 970.171 387.739 971.171 387.739V382.48C971.171 380.476 969.547 378.223 966.3 375.718V372.337C966.3 371.586 968.173 370.459 971.92 368.956H974.543C978.789 368.956 980.912 371.836 980.912 377.596H981.662C985.159 375.092 987.781 371.336 989.53 366.327L991.029 365.576ZM941.571 380.977H948.69C949.939 380.977 951.812 386.111 954.31 396.379C955.559 396.63 956.184 397.13 956.184 397.882C955.434 413.409 954.56 421.172 953.561 421.172C954.06 422.424 954.31 423.301 954.31 423.802C952.312 425.555 950.813 426.431 949.814 426.431C948.066 424.177 946.442 420.797 944.943 416.289C944.444 413.033 944.194 409.026 944.194 404.268C944.194 403.016 944.194 402.139 944.194 401.638L944.943 393.75C944.943 392.998 942.82 389.868 938.574 384.358V383.607L941.571 380.977ZM1000.77 392.998H1003.02C1005.77 392.998 1007.14 400.762 1007.14 416.289C1007.14 421.798 1005.52 424.553 1002.27 424.553C1000.52 424.553 998.397 423.176 995.899 420.421V417.04C995.899 416.539 995.899 415.663 995.899 414.41V411.781C998.647 409.777 1000.02 406.897 1000.02 403.141V401.638C1000.02 399.134 999.396 396.88 998.147 394.876L1000.77 392.998Z" fill="black"/>
<path d="M892.009 332.603C892.009 333.588 893.857 334.326 897.553 334.819C900.755 337.282 902.357 338.759 902.357 339.252C902.357 342.7 900.14 344.547 895.705 344.793C895.212 346.517 891.763 348.733 885.357 351.442C885.357 351.935 883.633 352.427 880.183 352.92L877.966 349.965C884.864 347.748 888.93 344.916 890.161 341.468C887.451 338.267 886.096 336.173 886.096 335.188L888.683 334.08L892.009 332.603ZM918.987 343.315C925.639 344.793 928.965 346.394 928.965 348.118V348.856C928.965 350.334 925.27 352.058 917.878 354.028L904.944 363.633C903.712 363.633 903.096 364.002 903.096 364.741C905.806 365.726 907.284 366.957 907.531 368.435C907.531 369.912 904.821 370.898 899.4 371.39C899.4 372.868 897.183 374.961 892.748 377.67H892.009L887.575 376.931C887.575 377.916 885.973 379.517 882.77 381.733H880.183C879.444 381.733 878.705 380.995 877.966 379.517V376.931L878.705 370.282H880.923C881.662 370.282 882.524 371.759 883.509 374.715H884.249C891.64 370.528 895.458 367.696 895.705 366.218C894.719 364.741 894.227 363.633 894.227 362.894C897.922 362.894 901.495 360.677 904.944 356.244V355.506C903.219 355.506 899.154 356.86 892.748 359.569C890.285 361.539 884.495 364.495 875.379 368.435C874.147 370.405 871.684 375.7 867.988 384.319C867.495 384.319 866.879 384.566 866.14 385.058C861.213 385.058 858.749 380.379 858.749 371.021V369.543C858.749 362.155 861.459 356.983 866.879 354.028L867.249 355.506V359.569C867.249 360.062 867.126 360.308 866.879 360.308C868.111 363.756 869.589 365.972 871.314 366.957C884.125 357.106 896.444 350.334 908.27 346.64C912.705 344.424 916.277 343.315 918.987 343.315ZM903.096 376.931L906.792 378.409L908.27 377.67C910.98 378.163 912.335 378.778 912.335 379.517V380.256C910.61 382.226 909.748 383.334 909.748 383.58V390.969C908.27 392.2 906.176 399.588 903.466 413.133C904.451 415.349 906.299 416.458 909.009 416.458H910.487C919.357 414.734 923.791 412.887 923.791 410.916C924.038 401.558 924.161 396.017 924.161 394.293L925.639 393.554H927.117C930.074 393.554 932.045 398.726 933.03 409.069C936.726 410.793 938.574 412.763 938.574 414.98C938.574 417.935 934.755 419.536 927.117 419.782C925.146 419.782 919.603 421.752 910.487 425.693C900.879 425.446 896.074 421.875 896.074 414.98V413.872C899.277 398.11 900.879 388.506 900.879 385.058H900.14C892.995 388.013 889.422 394.663 889.422 405.006C886.959 409.931 881.415 416.827 872.792 425.693L871.314 426.431H870.205C867.495 426.431 865.401 422.368 863.923 414.241L865.401 413.872C865.401 414.611 867.002 415.472 870.205 416.458C873.901 416.458 877.227 412.025 880.183 403.159H878.705C873.531 407.592 870.698 409.808 870.205 409.808C865.771 408.084 863.553 406.976 863.553 406.484V405.006C865.278 402.297 871.437 397.618 882.031 390.969C882.278 386.536 883.14 384.319 884.618 384.319C887.082 384.812 888.437 385.058 888.683 385.058L903.096 376.931Z" fill="black"/>
<path d="M838.468 338.904H842.492C845.979 338.904 848.394 340.239 849.735 342.91V344.512C849.735 345.847 847.857 346.781 844.101 347.315V349.318C845.711 349.318 846.516 349.718 846.516 350.519V351.321C846.516 353.724 846.65 357.462 846.918 362.535C850.137 362.802 851.747 363.603 851.747 364.938V367.742C849.064 368.81 847.723 371.747 847.723 376.554C847.723 380.292 847.455 384.163 846.918 388.169C846.918 388.703 846.918 389.637 846.918 390.972C846.65 397.915 846.516 402.054 846.516 403.389C846.784 414.87 847.186 422.08 847.723 425.017L848.125 429.823V435.03C846.784 437.7 845.711 439.035 844.906 439.035H842.894C839.407 439.035 837.663 427.42 837.663 404.19L837.261 402.588C837.529 402.054 837.663 401.252 837.663 400.184V389.37C837.663 389.103 837.663 388.703 837.663 388.169L838.87 375.752C838.066 375.218 837.529 374.951 837.261 374.951C833.237 375.752 831.225 378.156 831.225 382.161V388.97C829.615 391.106 828.542 393.776 828.006 396.98L823.982 397.381C823.446 396.046 822.909 395.378 822.373 395.378L819.153 396.179C815.666 391.64 813.922 387.501 813.922 383.763H813.118L810.703 384.965L805.875 382.161L805.07 385.766L805.875 386.967C805.07 388.836 804.131 389.904 803.058 390.171L801.046 388.97C801.046 389.237 800.912 389.37 800.644 389.37C798.766 386.433 797.425 384.965 796.62 384.965C795.815 384.965 794.876 385.899 793.803 387.768V392.174L795.413 394.177V397.381C793.535 398.449 792.596 399.383 792.596 400.184H790.584C787.633 396.179 786.158 392.04 786.158 387.768H785.353C778.378 397.648 772.477 404.19 767.648 407.394H765.636C764.831 407.394 763.892 406.459 762.819 404.59V403.389C762.819 402.855 763.49 402.187 764.831 401.386L764.026 398.182C771.538 392.307 777.305 385.899 781.329 378.957C784.28 374.15 787.633 369.478 791.389 364.938V363.737L782.536 366.54C779.854 366.54 777.439 365.472 775.293 363.336C775.293 362.535 779.72 360.933 788.572 358.53C796.083 355.326 800.51 352.522 801.851 350.119L803.058 349.318C809.496 349.585 812.715 350.519 812.715 352.122V354.525C811.642 356.394 808.96 358.663 804.668 361.334C801.985 364.004 799.302 367.475 796.62 371.747L788.572 382.161C789.109 383.496 789.645 384.163 790.182 384.163C790.718 384.163 792.596 382.027 795.815 377.755C796.62 377.221 797.29 376.954 797.827 376.954C800.241 377.488 801.985 377.755 803.058 377.755C803.326 376.954 803.863 376.554 804.668 376.554C805.472 376.554 805.875 378.022 805.875 380.959C811.508 379.09 814.325 377.355 814.325 375.752C816.471 367.208 818.08 362.535 819.153 361.734H819.958L823.177 362.535C830.152 357.729 833.639 353.724 833.639 350.519L832.432 350.119C830.018 350.386 828.274 350.519 827.201 350.519L821.165 344.512C821.165 343.711 825.189 342.91 833.237 342.108L838.468 338.904ZM831.225 361.334V361.734H832.432C832.432 361.2 832.7 360.533 833.237 359.732H832.432C831.627 359.999 831.225 360.533 831.225 361.334ZM837.663 359.732V363.336H838.468V359.732H837.663ZM825.592 366.54C825.592 367.608 826.128 368.944 827.201 370.546C829.884 369.478 831.225 367.608 831.225 364.938L829.615 364.538C826.933 364.805 825.592 365.472 825.592 366.54Z" fill="black"/>
<path d="M718.761 331.902H719.212C720.415 331.902 721.619 334.753 722.822 340.455C722.221 341.655 721.017 343.306 719.212 345.407C719.212 346.907 722.07 348.708 727.787 350.808L735.459 358.461C739.07 360.861 743.583 364.762 748.998 370.164C750.503 370.164 752.609 371.214 755.317 373.315H756.671C765.095 373.315 770.06 374.966 771.564 378.267C772.767 378.267 773.821 379.467 774.723 381.868C774.723 382.768 773.219 383.368 770.21 383.668C766.299 383.368 763.139 383.218 760.732 383.218V382.318C760.432 382.318 760.281 382.618 760.281 383.218C751.556 381.118 745.839 377.817 743.131 373.315L731.397 363.862C731.397 364.762 728.088 365.963 721.468 367.463C719.061 369.864 716.504 371.064 713.796 371.064C713.495 370.464 713.345 369.564 713.345 368.364H712.894C709.885 368.364 705.221 369.114 698.903 370.614C692.885 379.017 689.877 383.968 689.877 385.469H691.682L693.487 384.118C693.487 384.419 693.638 384.569 693.938 384.569C693.337 386.069 693.036 387.419 693.036 388.62V389.07L694.39 391.771C703.717 386.069 708.832 382.768 709.734 381.868C715.15 382.468 717.858 383.668 717.858 385.469H718.309C719.814 384.569 720.566 383.968 720.566 383.668C719.663 382.468 719.212 381.418 719.212 380.517C720.114 380.517 721.318 378.417 722.822 374.215H723.274C725.38 374.215 726.433 375.116 726.433 376.916H730.043C730.043 375.116 732.149 374.215 736.362 374.215C740.574 376.316 742.68 381.118 742.68 388.62C742.68 394.922 739.521 400.473 733.203 405.275H731.849C731.247 404.975 729.893 403.925 727.787 402.124V403.474C727.787 406.775 727.937 410.977 728.238 416.078L727.787 417.429C727.787 417.729 727.937 417.879 728.238 417.879C727.937 423.281 727.486 425.981 726.884 425.981C726.884 426.582 727.185 426.882 727.787 426.882C727.787 429.883 725.53 433.934 721.017 439.035L720.114 438.585L720.566 434.084V429.132C720.566 425.531 720.716 423.13 721.017 421.93C720.716 418.329 720.566 415.178 720.566 412.477V390.42H720.114C714.398 395.822 710.787 400.774 709.283 405.275L705.673 405.725H704.77C703.867 405.725 703.266 403.474 702.965 398.973C703.566 398.973 704.018 397.172 704.319 393.571H703.867C699.956 395.672 698 397.022 698 397.623C698.903 399.123 699.354 401.674 699.354 405.275V405.725C699.354 406.925 697.399 407.976 693.487 408.876C692.284 405.275 691.08 403.024 689.877 402.124C688.974 395.222 688.523 390.72 688.523 388.62C688.824 388.62 688.974 388.32 688.974 387.72H688.523C687.62 388.32 684.762 392.971 679.948 401.674C679.346 401.674 677.09 405.275 673.178 412.477C671.072 414.278 666.86 416.528 660.541 419.229H660.09C659.488 419.229 659.188 418.779 659.188 417.879V414.728L664.603 410.226C672.125 402.424 679.496 392.071 686.717 379.167C690.027 373.765 694.239 367.163 699.354 359.361C699.354 358.461 701.912 354.409 707.026 347.207C713.947 337.004 717.858 331.902 718.761 331.902ZM714.247 349.008C707.327 357.11 703.867 362.212 703.867 364.312V365.213C712.593 362.212 718.309 360.111 721.017 358.911H726.433C720.415 352.309 716.354 349.008 714.247 349.008ZM726.884 384.118V386.819C726.884 389.52 728.539 391.471 731.849 392.671C733.052 390.57 733.654 388.92 733.654 387.72V384.569C733.052 383.668 732.751 382.918 732.751 382.318C731.247 382.318 729.291 382.918 726.884 384.118Z" fill="black"/>
<path d="M644.723 328.401C645.476 328.401 646.479 329.407 647.733 331.419V334.06C646.228 338.336 645.476 341.731 645.476 344.246V351.036C645.476 352.797 649.113 354.431 656.387 355.94V358.204C655.634 359.21 655.007 361.725 654.506 365.749C647.232 370.024 643.595 373.42 643.595 375.935C643.093 378.953 642.842 381.593 642.842 383.857C648.36 386.372 651.747 388.887 653.001 391.402V394.42C644.473 400.959 639.958 404.983 639.456 406.492V409.51H641.337C642.591 409.51 643.595 409.761 644.347 410.264C645.1 409.761 645.978 409.51 646.981 409.51C650.242 411.522 651.872 413.534 651.872 415.546V418.186C649.865 420.953 647.984 422.336 646.228 422.336V421.582C643.72 422.085 641.212 423.468 638.704 425.731L635.318 421.582H634.189C633.687 421.582 631.806 422.085 628.545 423.091C624.783 423.091 622.902 418.815 622.902 410.264C623.905 410.264 624.658 407.498 625.159 401.965C626.915 401.965 628.545 400.833 630.05 398.57V397.815C625.034 396.055 622.526 394.923 622.526 394.42V392.156C623.278 392.156 624.658 391.276 626.664 389.516L630.05 390.27C632.057 389.264 633.186 388.384 633.436 387.629V380.084C633.436 377.569 630.928 373.671 625.912 368.39C625.912 366.881 628.796 364.994 634.565 362.731C636.07 361.222 636.822 358.455 636.822 354.431V343.491C636.822 340.976 636.321 337.581 635.318 333.306C635.568 333.306 638.327 331.671 643.595 328.401H644.723ZM614.248 350.659C619.766 350.659 623.654 352.419 625.912 355.94V358.204C623.403 360.719 619.014 368.641 612.743 381.971L607.852 386.12H607.476C606.473 386.12 605.971 385.617 605.971 384.611V377.821C605.971 376.815 607.852 370.276 611.615 358.204C611.866 354.431 612.743 351.916 614.248 350.659Z" fill="black"/>
<path d="M562.918 329.102C570.52 329.859 574.321 332.763 574.321 337.814V338.572C573.308 340.087 570.647 340.971 566.339 341.224C563.298 345.012 561.27 346.906 560.257 346.906L559.497 345.391V343.497L562.918 337.814C562.411 335.289 561.524 333.395 560.257 332.132V331.374C560.257 330.112 561.144 329.354 562.918 329.102ZM588.005 341.981C590.286 342.486 592.694 343.37 595.228 344.633C597.255 346.148 598.269 347.158 598.269 347.664C595.734 350.694 592.82 352.209 589.526 352.209C589.526 352.967 582.937 359.533 569.76 371.908V372.287H570.52L573.941 370.393H574.321C578.883 370.645 581.163 372.287 581.163 375.317C578.122 384.661 575.715 390.849 573.941 393.879C580.023 395.647 583.824 397.541 585.345 399.561C585.345 402.592 583.697 404.991 580.403 406.759L578.502 409.411V410.926C579.516 414.209 580.023 415.977 580.023 416.229C579.263 421.533 577.616 424.185 575.081 424.185C572.547 425.952 569.886 426.205 567.099 424.942C561.017 416.861 555.569 412.82 550.754 412.82C548.22 412.82 546.699 411.936 546.193 410.168V408.274C546.193 405.749 553.161 400.95 567.099 393.879C571.154 383.777 573.181 378.6 573.181 378.348V377.211H571.66C569.38 377.211 564.438 379.61 556.836 384.409C556.076 384.409 555.189 384.914 554.175 385.924C553.668 384.914 553.415 384.283 553.415 384.03C553.415 379.737 556.836 376.075 563.678 373.044C573.561 362.185 578.502 355.871 578.502 354.103H577.742C558.99 360.165 547.713 365.847 543.912 371.15C543.405 371.15 541.378 372.918 537.83 376.454H535.929C535.423 376.454 534.029 374.938 531.748 371.908C531.748 363.574 534.536 357.008 540.111 352.209H540.491L542.011 352.967L541.251 354.103V356.755C541.251 358.27 542.011 361.048 543.532 365.089H543.912C547.966 362.564 553.668 358.649 561.017 353.346L580.403 345.391C580.403 343.118 582.937 341.981 588.005 341.981ZM561.017 407.517V409.411C561.777 409.411 562.157 409.663 562.157 410.168L567.099 410.926H569.76C569.76 410.421 570.013 410.168 570.52 410.168C570.013 405.623 569.253 403.35 568.239 403.35C563.424 404.36 561.017 405.749 561.017 407.517Z" fill="black"/>
<path d="M474.882 329.102H476.052C480.471 331.959 482.681 333.648 482.681 334.167C481.121 338.064 479.951 342.74 479.171 348.195L480.341 348.974H481.121C481.121 346.376 482.161 345.078 484.241 345.078C484.241 346.117 487.23 347.156 493.209 348.195L493.989 349.364V351.702L481.901 364.561C482.941 367.158 484.89 368.457 487.75 368.457C487.75 371.574 487.88 373.263 488.14 373.523C487.62 373.523 485.41 374.952 481.511 377.809L479.171 378.588V377.809C477.092 378.329 476.052 378.978 476.052 379.757V380.537C476.052 381.316 476.442 381.706 477.222 381.706C477.742 381.706 478.002 381.316 478.002 380.537C484.5 381.576 487.75 382.615 487.75 383.654V385.602C483.331 390.278 481.121 392.876 481.121 393.395C481.121 393.915 484.5 395.993 491.259 399.63V400.409C489.959 402.488 487.62 403.916 484.241 404.696V406.254C484.241 407.034 486.32 408.073 490.479 409.372C493.339 407.293 495.938 404.566 498.278 401.189V400.409C493.859 396.772 491.649 394.305 491.649 393.006L488.92 393.395L487.75 391.837V391.447C487.75 390.668 488.14 390.278 488.92 390.278H494.379C498.538 392.097 501.007 393.395 501.787 394.175H502.957C504.777 386.901 505.686 381.836 505.686 378.978H504.906C502.827 379.498 501.007 381.186 499.448 384.044L498.278 385.213C496.978 385.213 496.068 385.213 495.548 385.213L494.379 383.654C494.119 381.576 493.989 380.277 493.989 379.757V377.419C495.288 377.419 497.368 373.912 500.227 366.899C503.347 358.326 504.906 353.001 504.906 350.923L506.076 350.533H506.856C508.936 352.091 509.976 354.3 509.976 357.157V359.885C508.936 360.664 506.986 364.95 504.127 372.743C508.806 370.665 513.225 369.237 517.384 368.457C518.684 369.237 519.464 370.535 519.724 372.354C511.925 377.29 508.026 381.056 508.026 383.654L513.485 389.109V390.668C511.405 394.045 509.976 396.902 509.196 399.24C510.235 399.24 512.445 401.059 515.824 404.696C518.164 406.254 523.363 408.073 531.421 410.151C534.281 411.969 536.49 414.437 538.05 417.554C538.05 419.373 535.84 420.282 531.421 420.282L529.082 420.672L526.742 420.282C525.442 420.282 524.533 420.282 524.013 420.282C522.973 419.762 521.153 419.113 518.554 418.334L509.196 411.32C509.196 410.8 507.636 409.501 504.517 407.423H503.347C498.928 412.359 494.249 414.827 489.31 414.827H488.14V419.503C488.14 420.282 486.58 420.802 483.461 421.061C481.641 420.282 480.211 419.762 479.171 419.503L477.612 418.334C476.052 420.152 472.283 421.451 466.304 422.23C461.105 420.931 458.506 420.022 458.506 419.503C458.506 418.723 461.365 417.684 467.084 416.385V415.606C463.964 415.606 461.885 414.047 460.845 410.93C458.765 410.93 451.877 411.969 440.179 414.047C439.139 411.45 438.619 410.021 438.619 409.761C439.139 408.203 439.659 407.423 440.179 407.423L441.349 409.372C446.548 408.852 453.566 407.553 462.405 405.475C463.964 405.475 465.654 403.007 467.474 398.071V396.902L465.914 394.175C463.575 394.954 460.195 397.032 455.776 400.409H454.216C452.917 400.409 452.267 398.331 452.267 394.175V393.006C458.765 387.551 462.015 384.563 462.015 384.044V382.875C461.755 382.875 458.895 383.784 453.437 385.602H453.047C452.267 385.602 451.877 385.213 451.877 384.433V380.147C451.877 377.549 453.566 376.25 456.946 376.25H458.116C458.116 374.952 462.275 371.185 470.593 364.95L470.983 362.223V361.833C469.163 361.833 467.604 362.872 466.304 364.95C461.885 364.95 459.675 361.313 459.675 354.04L460.845 353.26H462.015C462.015 354.559 463.315 356.118 465.914 357.936H466.304C470.463 357.936 472.543 355.858 472.543 351.702C472.543 347.805 472.933 342.74 473.713 336.505C473.193 334.946 472.673 334.167 472.153 334.167C472.153 331.829 473.063 330.141 474.882 329.102ZM476.052 400.409H477.222C478.002 399.63 479.042 399.24 480.341 399.24V398.071H477.612C477.092 398.071 476.572 398.851 476.052 400.409ZM478.782 405.475C478.002 405.994 474.622 407.034 468.644 408.592V409.761C472.543 410.54 475.012 410.93 476.052 410.93C477.872 408.852 478.782 407.034 478.782 405.475ZM481.901 410.151V412.099H483.851V410.151H481.901Z" fill="black"/>
<path d="M445.622 18.2056C445.622 15.4986 443.427 13.3041 440.72 13.3041C438.013 13.3041 435.819 15.4986 435.819 18.2056C435.819 20.9126 438.013 23.1071 440.72 23.1071V36.4112C430.665 36.4112 422.514 28.2603 422.514 18.2056C422.514 8.15093 430.665 0 440.72 0C450.775 0 458.926 8.15093 458.926 18.2056C458.926 28.2603 450.775 36.4112 440.72 36.4112V23.1071C443.427 23.1071 445.622 20.9126 445.622 18.2056Z" fill="black"/>
<path d="M592.667 246.476C592.667 243.769 590.472 241.575 587.765 241.575C585.058 241.575 582.864 243.769 582.864 246.476C582.864 249.183 585.058 251.378 587.765 251.378V264.682C577.711 264.682 569.56 256.531 569.56 246.476C569.56 236.421 577.711 228.271 587.765 228.271C597.82 228.271 605.971 236.421 605.971 246.476C605.971 256.531 597.82 264.682 587.765 264.682V251.378C590.472 251.378 592.667 249.183 592.667 246.476Z" fill="black"/>
<path d="M531.048 47.9649C531.048 44.0977 534.183 40.9627 538.05 40.9627C541.917 40.9627 545.052 44.0977 545.052 47.9649V206.209C545.052 212.007 541.481 217.196 536.088 219.275L535.83 219.371L457.201 247.939C445.785 252.086 433.718 243.631 433.718 231.485V31.1597H447.722V231.485C447.722 233.914 450.136 235.605 452.419 234.776L531.048 206.209V47.9649Z" fill="black"/>
<path d="M580.413 31.1598C580.413 28.066 577.905 25.558 574.811 25.558H477.131C473.264 25.558 470.129 22.4231 470.129 18.5559C470.129 14.6887 473.264 11.5537 477.131 11.5537H574.811C585.64 11.5537 594.417 20.3316 594.417 31.1598V236.323H580.413V31.1598Z" fill="black"/>
</svg>
