<svg width="1024" height="499" viewBox="0 0 1024 499" fill="none" xmlns="http://www.w3.org/2000/svg">
<path d="M760.72 498.915H694.767C683.905 498.915 678.473 493.483 678.473 482.62V16.2942C678.473 5.43141 683.905 0 694.767 0H879.436C919.783 0 951.337 11.1215 974.098 33.3644C996.858 55.6074 1008.24 86.9027 1008.24 127.25V187.772C1008.24 246.224 985.219 285.02 939.181 304.159V307.263L1022.2 480.293C1026.86 492.707 1022.46 498.915 1009.01 498.915H946.165C936.853 498.915 930.129 497.88 925.991 495.811C921.852 493.742 918.49 489.345 915.904 482.62L838.312 315.022H786.326C780.118 315.022 777.015 317.867 777.015 323.557V482.62C777.015 493.483 771.583 498.915 760.72 498.915ZM785.55 235.879H861.59C878.142 235.879 890.299 232.516 898.058 225.792C905.817 218.55 909.696 207.17 909.696 191.651V131.13C909.696 115.094 905.817 103.456 898.058 96.2137C890.299 88.9718 878.142 85.3508 861.59 85.3508H785.55C779.86 85.3508 777.015 88.1959 777.015 93.8859V227.344C777.015 233.034 779.86 235.879 785.55 235.879Z" fill="black"/>
<path d="M642.308 498.915H388.583C377.72 498.915 372.289 493.483 372.289 482.62V16.2942C372.289 5.43141 377.72 0 388.583 0H642.308C652.654 0 657.826 5.43141 657.826 16.2942V69.0566C657.826 79.9194 652.654 85.3508 642.308 85.3508H480.141C473.934 85.3508 470.83 88.1959 470.83 93.8859V194.755C470.83 200.445 473.934 203.29 480.141 203.29H612.823C623.686 203.29 629.117 208.722 629.117 219.585V272.347C629.117 283.21 623.686 288.641 612.823 288.641H480.141C473.934 288.641 470.83 291.486 470.83 297.176V405.029C470.83 410.719 473.934 413.564 480.141 413.564H642.308C652.654 413.564 657.826 418.995 657.826 429.858V482.62C657.826 493.483 652.654 498.915 642.308 498.915Z" fill="black"/>
<path d="M212.601 498.915H128.026C87.1613 498.915 55.6074 488.052 33.3644 466.326C11.1215 444.6 0 413.305 0 372.44V126.474C0 85.6095 11.1215 54.3142 33.3644 32.5885C55.6074 10.8628 87.1613 0 128.026 0H212.601C252.949 0 284.244 11.1215 306.487 33.3644C329.247 55.0901 340.628 86.1268 340.628 126.474V162.943C340.628 174.323 334.938 180.013 323.557 180.013H258.38C247.518 180.013 242.086 174.323 242.086 162.943V131.13C242.086 114.577 238.465 102.938 231.223 96.2137C224.499 88.9718 212.86 85.3508 196.307 85.3508H143.545C127.509 85.3508 115.87 88.9718 108.628 96.2137C101.904 102.938 98.5415 114.577 98.5415 131.13V367.785C98.5415 384.338 101.904 396.235 108.628 403.477C115.87 410.201 127.509 413.564 143.545 413.564H196.307C212.86 413.564 224.499 410.201 231.223 403.477C238.465 396.235 242.086 384.338 242.086 367.785V335.972C242.086 324.592 247.518 318.902 258.38 318.902H323.557C334.938 318.902 340.628 324.592 340.628 335.972V372.44C340.628 412.788 329.247 444.083 306.487 466.326C284.244 488.052 252.949 498.915 212.601 498.915Z" fill="black"/>
</svg>
