<svg width="1024" height="1009" viewBox="0 0 1024 1009" fill="none" xmlns="http://www.w3.org/2000/svg">
<path fill-rule="evenodd" clip-rule="evenodd" d="M3.52197 964.61C3.52197 964.61 23.5905 964.61 25.6205 964.61C27.7086 964.668 37.8008 966.872 37.8588 976.849C37.9748 984.099 34.3788 986.187 34.3788 986.187C34.3788 986.187 38.0328 989.087 37.8588 995.467C37.9168 1006.43 27.9986 1008.29 26.2585 1008.29C24.4605 1008.29 3.52197 1008.29 3.52197 1008.29V964.61ZM11.7002 982.649H26.2585C26.2585 982.649 30.3767 982.243 30.3187 978.009C30.3187 973.137 25.6205 972.789 25.6205 972.789H11.7002V982.649ZM11.7002 1000.69H25.6205C25.6205 1000.69 30.3187 1000.34 30.3187 995.467C30.2607 990.595 25.6205 990.769 25.6205 990.769H11.7002V1000.69Z" fill="black"/>
<path fill-rule="evenodd" clip-rule="evenodd" d="M60.5955 964.609H95.5123V972.788H68.7157V982.706H90.8722V990.826H68.7157V1000.16H95.5123V1008.28H60.5955V964.609Z" fill="black"/>
<path fill-rule="evenodd" clip-rule="evenodd" d="M605.461 964.609H640.378V972.788H613.582V982.706H635.738V990.826H613.582V1000.16H640.378V1008.28H605.461V964.609Z" fill="black"/>
<path fill-rule="evenodd" clip-rule="evenodd" d="M756.787 964.609H791.762V972.788H764.966V982.706H787.064V990.826H764.966V1000.16H791.762V1008.28H756.787V964.609Z" fill="black"/>
<path fill-rule="evenodd" clip-rule="evenodd" d="M927.95 964.609H962.867V972.788H936.128V982.706H958.227V990.826H936.128V1000.16H962.867V1008.28H927.95V964.609Z" fill="black"/>
<path fill-rule="evenodd" clip-rule="evenodd" d="M117.611 964.609H125.789V1008.28H117.611V964.609Z" fill="black"/>
<path fill-rule="evenodd" clip-rule="evenodd" d="M196.783 964.609H204.961V1008.28H196.783V964.609Z" fill="black"/>
<path fill-rule="evenodd" clip-rule="evenodd" d="M227.06 964.609H235.818L255.017 994.306V964.609H263.137V1008.28H254.437L235.238 978.008V1008.28H227.06V964.609Z" fill="black"/>
<path fill-rule="evenodd" clip-rule="evenodd" d="M813.281 964.609H822.039L841.237 994.306V964.609H849.358V1008.28H840.657L821.401 978.008V1008.28H813.281V964.609Z" fill="black"/>
<path fill-rule="evenodd" clip-rule="evenodd" d="M165.926 964.609H174.104V993.726C174.104 993.726 174.394 1008.28 158.966 1008.28C143.538 1008.28 144.234 992.102 144.408 989.086C146.206 989.086 151.948 989.086 151.948 989.086C151.948 989.086 152.006 989.956 151.948 991.986C151.948 994.538 153.224 1000.05 158.966 1000.16C166.448 1000.16 165.926 993.494 165.926 990.246C165.926 987.52 165.926 964.609 165.926 964.609Z" fill="black"/>
<path fill-rule="evenodd" clip-rule="evenodd" d="M306.812 982.706H324.27C324.27 982.706 324.212 996.916 324.27 997.844C324.27 1000.92 320.79 1007.7 313.25 1008.28C311.452 1008.34 297.937 1008.23 296.951 1008.28C293.587 1008.05 285.757 1005.04 285.293 996.046C285.293 986.534 285.235 979.516 285.293 977.428C285.409 974.876 288.251 964.552 297.531 964.61C307.218 964.61 312.67 964.61 312.67 964.61C312.67 964.61 324.27 966.408 324.27 976.268C324.212 978.472 324.27 979.168 324.27 979.168H316.73C316.73 979.168 317.832 972.788 312.032 972.788C306.29 972.788 296.951 972.788 296.951 972.788C296.951 972.788 293.413 973.194 293.413 978.008C293.413 982.822 293.413 996.046 293.413 996.046C293.413 996.046 294.109 1000.22 297.531 1000.16C301.708 1000.16 312.032 1000.16 312.032 1000.16C312.032 1000.16 316.73 1000.63 316.73 996.046C316.73 991.522 316.73 990.826 316.73 990.826H306.812V982.706Z" fill="black"/>
<path fill-rule="evenodd" clip-rule="evenodd" d="M406.342 977.428C407.154 977.428 413.941 977.428 413.941 977.428C413.941 977.428 415.681 966.233 402.282 964.609C394.22 964.667 391.61 964.609 390.624 964.609C389.406 964.667 379.604 967.625 379.604 977.428C379.604 987.23 387.492 990.014 390.044 990.246C392.654 990.478 401.702 990.246 401.702 990.246C401.702 990.246 406.342 990.768 406.342 995.466C406.342 1000.22 402.05 1000.74 401.122 1000.74C400.194 1000.74 392.422 1000.74 392.422 1000.74C392.422 1000.74 388.478 1001.15 388.304 996.046C386.622 996.046 379.894 996.046 379.604 996.046C379.662 997.612 382.562 1008.34 390.624 1008.28C398.86 1008.28 402.862 1008.28 402.862 1008.28C402.862 1008.28 414.521 1006.6 414.521 995.466C414.463 984.388 403.732 982.706 402.862 982.706C401.992 982.648 391.784 982.706 391.784 982.706C391.784 982.706 387.724 982.416 387.724 977.428C387.724 972.846 391.784 972.788 391.784 972.788H402.282C402.282 972.788 405.762 973.31 406.342 977.428Z" fill="black"/>
<path fill-rule="evenodd" clip-rule="evenodd" d="M437.199 964.609H459.356C459.356 964.609 470.956 964.783 472.174 978.008C471.826 983.924 466.896 990.246 460.516 990.246C454.889 990.246 444.797 990.246 444.797 990.246V1008.28H437.199V964.609ZM444.797 982.648C444.797 982.648 458.08 982.706 458.776 982.648C459.414 982.648 463.996 982.068 463.996 978.008C463.938 972.904 459.356 972.788 459.356 972.788H444.797V982.648Z" fill="black"/>
<path fill-rule="evenodd" clip-rule="evenodd" d="M502.973 964.609H508.831L528.03 1008.28H519.271L516.371 1002.48H496.013L493.113 1008.28H484.354L502.973 964.609ZM514.051 996.046L505.873 977.428L498.333 996.046H514.051Z" fill="black"/>
<path fill-rule="evenodd" clip-rule="evenodd" d="M555.986 964.609H571.705C571.705 964.609 583.595 966.059 583.943 977.428C581.913 977.428 575.765 977.428 575.765 977.428C575.765 977.428 575.707 972.672 570.545 972.788C565.614 972.788 556.566 972.788 556.566 972.788C556.566 972.788 552.564 972.846 552.506 977.428C552.506 981.778 552.506 995.466 552.506 995.466C552.506 995.466 552.158 1000.16 557.146 1000.16C562.134 1000.16 571.705 1000.16 571.705 1000.16C571.705 1000.16 575.359 1000.92 575.765 995.466C577.795 995.582 583.943 995.466 583.943 995.466C583.943 995.466 583.769 1006.95 572.285 1008.28C562.076 1008.52 555.986 1008.28 555.986 1008.28C555.986 1008.28 546.358 1008.05 544.328 996.626C544.328 987.462 544.328 977.428 544.328 977.428C544.328 977.428 544.85 966.813 555.986 964.609Z" fill="black"/>
<path fill-rule="evenodd" clip-rule="evenodd" d="M706.152 964.609H721.871C721.871 964.609 733.819 966.059 734.109 977.428C732.079 977.428 725.931 977.428 725.931 977.428C725.931 977.428 725.873 972.672 720.71 972.788C715.838 972.788 706.732 972.788 706.732 972.788C706.732 972.788 702.73 972.846 702.672 977.428C702.73 981.778 702.672 995.466 702.672 995.466C702.672 995.466 702.324 1000.16 707.312 1000.16C712.358 1000.16 721.871 1000.16 721.871 1000.16C721.871 1000.16 725.525 1000.92 725.931 995.466C728.019 995.582 734.109 995.466 734.109 995.466C734.109 995.466 733.935 1006.95 722.451 1008.28C712.242 1008.52 706.152 1008.28 706.152 1008.28C706.152 1008.28 696.582 1008.05 694.552 996.626C694.552 987.462 694.552 977.428 694.552 977.428C694.552 977.428 695.074 966.813 706.152 964.609Z" fill="black"/>
<path fill-rule="evenodd" clip-rule="evenodd" d="M870.354 964.609H905.271V972.788H892.453V1008.28H884.274V972.788H870.354V964.609Z" fill="black"/>
<path fill-rule="evenodd" clip-rule="evenodd" d="M985.023 964.609H1008.28C1008.28 964.609 1020.06 966.059 1019.94 978.008C1019.36 988.448 1011.18 989.666 1011.18 989.666L1024 1008.28H1014.14L1001.9 990.826H993.143V1008.28H985.023V964.609ZM993.143 982.648H1007.7C1007.7 982.648 1012.46 982.184 1012.34 977.428C1012.34 973.716 1008.28 972.788 1008.28 972.788H993.143V982.648Z" fill="black"/>
<path d="M47.1964 780.107L62.3348 792.287C62.3348 792.287 64.9449 794.607 61.7548 799.305C60.2468 801.335 60.2468 800.465 60.0148 803.945C59.7247 807.483 57.9267 856.263 58.8547 859.279C61.3488 857.655 80.4313 843.618 80.3733 843.56C80.3153 843.444 84.1434 841.878 82.1133 847.62C81.3593 849.128 68.367 863.687 67.5549 865.659C67.4969 865.891 66.8589 867.283 65.8149 868.559C57.4627 879.115 21.5598 920.528 17.4997 921.572C12.9176 922.674 9.55348 922.732 7.58143 920.412C4.97136 918.15 2.36129 914.554 2.36129 914.554C2.36129 914.554 -0.364776 910.668 0.0412339 903.534C0.389243 896.342 1.66528 890.716 3.52132 888.975C4.04334 888.047 7.23342 886.713 9.90148 886.597C12.6276 886.829 14.9476 888.279 16.3396 888.975C19.7617 890.832 23.2998 887.177 23.2998 887.177C23.2998 887.177 30.318 882.537 38.4382 874.417C40.2943 871.575 40.2363 870.995 40.1783 867.979C40.1203 865.021 40.1783 843.56 40.1783 843.56C40.1783 843.56 40.5263 841.646 37.8582 843.56C35.1901 845.474 30.898 848.78 30.898 848.78C30.898 848.78 29.158 850.52 26.2579 850.52C23.2998 850.52 19.2977 848.258 16.3396 845.3C13.3816 842.284 9.72748 837.528 9.90148 833.642C10.1335 829.814 12.5116 826.102 15.1796 826.102C17.8477 826.044 19.4717 827.262 22.7198 827.262C29.796 826.856 39.5982 823.144 39.5982 823.144C39.5982 823.144 40.2363 822.738 40.1783 819.664C40.1783 816.59 40.5263 802.437 39.5982 799.885C38.7282 797.275 36.1182 791.707 36.1182 791.707C36.1182 791.707 34.3201 789.329 34.3781 786.487C34.4361 783.645 36.6402 778.889 41.3383 778.947C46.0944 778.947 47.1964 780.107 47.1964 780.107ZM87.3335 759.11C91.2196 759.11 96.5557 760.328 103.052 763.228C109.606 766.07 115.29 769.028 115.29 769.028C115.29 769.028 118.422 770.42 118.19 774.249C118.19 776.453 115.696 778.309 112.97 780.107C111.81 781.151 110.824 781.905 110.07 782.427C105.14 785.327 105.43 792.751 104.212 805.105C104.328 806.961 104.85 807.251 106.59 806.265C108.272 805.337 121.148 800.465 122.888 799.305C124.28 798.551 127.238 797.275 129.849 798.725C132.053 800.697 137.389 805.685 137.389 805.685C137.389 805.685 142.899 813.168 133.909 815.604C125.614 816.938 110.07 823.144 110.07 823.144C110.07 823.144 103.864 823.956 104.792 832.482C104.444 840.312 103.574 850.173 103.632 858.119C103.69 866.007 103.284 878.941 110.07 877.897C116.856 878.013 120.394 876.563 128.108 873.257C134.025 871.285 138.955 868.617 143.247 868.559C147.307 868.733 148.409 870.299 149.627 871.459C150.903 872.677 154.615 878.187 155.485 883.697C155.717 885.495 157.167 887.235 153.107 888.395C149.453 889.091 145.625 890.193 142.087 892.456C138.665 894.486 132.285 898.14 128.689 898.256C125.092 898.372 123.932 898.488 124.628 897.096C125.324 895.704 127.876 894.022 124.048 894.196C120.162 894.37 105.72 899.532 104.212 899.996C102.704 900.46 95.9177 902.548 92.0316 898.836C88.0875 895.124 87.2175 891.47 86.7534 886.017C86.1154 880.681 84.7814 803.017 86.7534 783.587C87.4495 778.135 87.2755 776.221 85.5934 773.669C84.5494 772.044 80.0253 766.998 79.7933 763.808C79.5033 760.85 82.2293 759.226 84.4334 759.11C86.6374 758.994 83.5054 759.11 87.3335 759.11Z" fill="black"/>
<path fill-rule="evenodd" clip-rule="evenodd" d="M255.596 742.812C257.568 742.812 264.702 745.016 270.154 745.132C273.46 745.654 276.186 749.946 275.954 753.89C275.722 757.834 273.46 765.375 272.474 767.289C271.488 769.145 267.66 771.059 265.514 773.089C263.31 775.119 258.554 776.917 257.336 772.509C256.118 768.101 255.712 770.131 253.276 767.289C250.956 764.215 246.432 759.11 246.258 755.05C245.446 751.106 247.65 748.96 248.578 746.93C249.622 744.378 252.464 742.812 255.596 742.812ZM213.661 801.626C214.705 801.278 289.933 773.089 289.933 773.089C289.933 773.089 295.269 770.769 299.851 775.989C304.375 781.267 307.101 783.645 302.751 787.647C300.779 790.199 291.673 789.967 291.673 789.967C291.673 789.967 286.453 791.243 281.232 796.405C276.012 801.51 270.096 803.714 267.254 805.106C265.978 806.034 264.992 805.57 266.674 802.206C268.124 800.175 267.37 800.291 266.094 801.046C264.122 801.742 223.173 819.606 217.779 822.564C212.327 825.58 207.281 828.422 207.281 828.422C207.281 828.422 198.812 832.076 193.302 827.262C188.546 821.578 183.964 815.604 183.964 815.604C183.964 815.604 182.166 813.4 183.384 808.006C184.486 804.41 189.184 802.902 193.302 802.786C198.58 802.786 203.742 802.844 207.281 802.786C211.051 802.612 212.269 802.09 213.661 801.626ZM229.959 825.522C230.365 824.71 230.829 822.158 234.657 822.564C238.427 822.97 238.833 826.566 238.717 829.002C238.543 831.438 237.499 840.196 237.557 844.141C237.963 847.331 237.383 848.665 241.037 848.201C241.153 849.477 241.849 858.293 242.197 863.919C242.313 870.531 239.413 874.359 234.657 874.417C228.625 874.417 222.767 867.051 222.419 866.239C222.071 865.485 220.795 862.817 222.419 852.261C224.855 838.514 227.987 829.466 229.959 825.522ZM255.016 828.422C261.918 825.464 269.4 821.984 271.314 820.824C274.736 819.432 275.78 816.938 280.014 816.764C283.553 816.822 289.411 819.78 291.673 821.984C293.761 829.234 289.353 835.382 289.353 835.382L274.214 857.539C274.214 857.539 277.694 878.419 278.274 890.136C278.506 904.346 277.636 908.696 277.694 911.654C277.578 913.742 276.94 919.774 270.734 919.832C264.702 919.89 258.67 917.86 257.336 916.874C256.118 916.352 252.928 912.35 250.376 911.074C247.766 909.798 236.281 901.388 234.657 899.416C232.975 897.502 231.467 895.82 233.497 893.616C235.469 891.412 238.427 893.79 240.457 894.776C242.487 895.762 247.302 896.922 253.276 897.676C259.25 898.43 258.728 896.342 259.076 891.876C259.946 885.496 260.178 861.077 259.076 855.741C258.322 852.029 255.538 847.737 253.276 845.591C252.928 843.735 251.478 844.141 250.956 844.141C248.984 844.083 244.982 846.983 242.197 847.041C239.413 847.099 239.355 845.301 239.297 840.022C239.181 834.802 242.777 833.062 242.777 833.062C242.777 833.062 248.578 831.148 255.016 828.422ZM263.716 839.442C263.774 840.138 265.514 840.486 266.674 841.24C272.242 846.519 272.184 841.183 273.634 838.862C275.374 836.716 273.112 835.44 272.474 835.382C269.516 836.948 263.716 838.804 263.716 839.442ZM223.579 877.897L227.639 875.577C227.639 875.577 232.279 873.141 230.539 879.057C228.103 881.958 218.591 890.6 212.501 897.676C206.469 904.752 202.466 910.494 198.522 910.494C194.636 910.494 187.676 908.232 187.502 897.096C187.27 885.96 194.288 877.781 198.522 877.317C202.002 877.201 206.701 883.466 210.761 883.118C213.951 882.712 223.579 877.897 223.579 877.897ZM309.131 859.859C316.265 859.917 320.789 858.177 324.85 858.119C330.708 858.235 338.19 861.947 338.828 872.677C338.828 874.475 338.828 875.577 338.828 875.577C338.828 875.577 336.856 876.911 335.928 879.057C334.942 881.204 329.838 886.482 323.11 886.598C316.439 886.772 305.477 877.955 302.751 875.577C300.025 873.141 290.571 864.093 290.513 859.279C290.803 857.365 291.963 856.379 293.413 856.379C294.921 856.321 299.967 858.583 302.751 859.279C304.375 859.801 306.405 859.975 309.131 859.859Z" fill="black"/>
<path d="M419.74 757.95C420.262 757.138 423.568 750.004 430.238 759.69C434.994 767.289 436.502 770.769 436.618 773.089C436.792 775.409 435.864 778.367 432.558 780.107C429.252 781.847 425.134 785.269 422.06 788.227C419.044 791.185 411.62 799.305 411.62 799.305C411.62 799.305 408.314 801.626 406.342 801.626C404.428 801.626 398.047 800.117 401.701 794.085C405.356 787.995 413.998 771.175 419.74 757.95ZM476.233 760.85C479.771 760.966 487.776 764.795 490.792 764.969C493.228 765.549 497.694 768.855 494.852 774.829C492.88 780.919 485.688 782.775 484.354 783.587C482.382 783.935 474.319 790.663 470.955 790.547C469.041 790.605 469.911 787.705 470.955 785.327C472.057 782.949 474.493 779.411 468.635 777.729C467.823 777.265 466.605 776.395 468.055 767.869C468.983 764.041 473.217 760.792 476.233 760.85ZM399.961 812.124C399.961 812.124 407.096 812.82 409.3 813.864C411.446 815.024 413.244 817.46 412.78 821.984C412.316 826.566 411.678 833.526 411.62 835.962C411.62 837.296 418 832.714 418 831.902C418 831.09 415.564 829.582 414.52 829.002C413.476 828.364 413.708 825.348 415.1 823.724C416.492 822.158 419.16 824.246 420.9 826.102C422.698 827.9 423.742 829.118 426.178 827.842C428.614 826.508 429.02 827.03 429.078 822.564C428.672 822.332 427.338 822.564 427.338 822.564C427.338 822.564 426.99 823.202 425.598 823.144C424.148 823.144 420.03 819.722 418 815.024C416.898 812.646 415.97 809.166 418 808.586C420.03 808.006 421.422 809.34 428.498 801.046C429.31 799.885 434.646 799.073 436.618 800.466C438.184 801.974 443.057 808.006 443.057 808.006C443.057 808.006 444.217 811.544 443.057 813.864C441.838 816.126 441.316 816.242 441.316 823.144C441.258 830.104 440.156 899.996 440.156 899.996C440.156 899.996 441.432 908.058 436.038 908.174C430.702 908.232 424.148 903.36 420.32 898.836C417.652 895.936 417.42 893.326 418.58 893.036C419.74 892.746 420.378 893.094 420.9 893.616C421.422 894.138 421.712 894.834 423.8 894.776C425.946 894.718 427.396 890.484 427.918 884.858C428.382 879.232 429.078 856.379 429.078 856.379C429.078 856.379 421.016 866.993 419.16 868.559C417.304 870.183 406.516 881.146 411.04 870.879C415.042 860.787 419.16 851.101 419.16 851.101C419.16 851.101 422.118 840.138 418 844.141C413.882 848.085 411.04 851.681 411.04 851.681C411.04 851.681 405.82 906.26 407.502 913.974C407.56 917.048 405.472 922.965 398.801 918.034C392.131 913.162 392.247 913.916 393.001 905.854C393.697 897.734 397.177 865.253 398.221 861.019C395.785 862.295 387.665 869.197 385.403 871.459C383.141 873.721 379.487 879.174 371.425 874.997C363.362 870.763 361.042 870.241 361.564 863.339C361.68 859.511 363.072 858.293 364.465 856.959C365.857 855.567 366.727 854.581 369.685 854.581C372.643 854.639 378.501 856.553 382.503 853.421C385.403 851.623 395.611 846.229 397.641 844.141C398.685 843.271 400.077 841.763 400.541 830.162C400.657 824.71 400.541 822.564 400.541 822.564C400.541 822.564 396.887 819.142 397.061 816.184C397.235 813.226 399.961 812.124 399.961 812.124ZM454.657 812.124C459.065 811.776 464.517 810.21 481.453 802.206C498.39 794.201 502.972 791.127 502.972 791.127C502.972 791.127 509.352 786.603 512.89 786.487C516.428 786.371 521.823 787.531 524.549 795.245C525.651 798.841 524.143 800.93 519.908 802.786C515.616 804.642 509.584 806.382 504.19 808.586C498.738 810.79 494.214 811.892 492.532 821.404C491.836 824.014 490.734 826.972 497.172 823.144C501.348 821.578 505.872 820.476 508.83 823.144C511.73 825.87 516.37 830.162 514.05 833.642C511.73 837.122 507.554 848.085 506.51 859.279C505.408 870.415 503.204 881.494 507.09 883.698C510.976 885.902 525.767 880.508 529.769 878.477C533.771 876.447 538.237 876.911 544.907 857.539C546.705 849.941 546.763 840.08 549.547 839.442C552.389 838.862 552.795 839.21 553.085 851.101C553.317 862.991 550.997 866.529 558.886 871.459C564.686 875.635 565.498 883.35 562.366 886.598C559.234 889.904 536.381 897.096 528.029 899.416C519.676 901.794 494.214 909.624 488.472 901.736C481.222 896.226 489.574 863.223 492.532 850.521C494.91 837.992 498.68 829.93 495.432 831.902C492.184 833.874 490.734 833.584 488.472 838.862C486.094 842.691 477.161 870.067 473.333 881.958C469.447 893.848 466.083 903.708 465.735 907.014C465.387 910.262 465.155 911.074 465.155 911.074C465.155 911.074 460.805 914.264 458.195 911.074C455.585 907.884 450.655 902.954 452.917 896.516C455.237 890.078 477.973 830.278 480.293 818.504C479.249 818.098 475.421 820.36 473.913 821.404C472.347 822.506 458.195 830.742 458.195 830.742C458.195 830.742 451.815 832.714 450.017 829.002C447.581 826.914 443.405 822.042 443.637 818.504C443.811 814.966 445.029 812.008 454.657 812.124Z" fill="black"/>
<path d="M625.819 777.729C628.545 777.671 642.292 774.249 650.296 771.349C657.604 767.811 662.302 767.405 667.174 769.609C671.467 772.973 673.323 777.207 667.754 783.587C664.622 785.907 655.574 789.851 645.018 792.868C637.362 795.652 631.736 797.624 631.098 798.146C629.706 799.19 620.831 802.728 617.699 796.406C614.103 790.489 613.175 785.675 618.279 779.527C619.439 777.787 624.949 777.903 625.819 777.729ZM630.459 805.686C633.476 805.744 640.958 809.224 640.958 809.224C640.958 809.224 646.178 810.384 643.278 820.244C643.278 820.94 649.6 819.548 653.776 817.344C658.242 815.72 669.03 809.166 672.395 808.586C675.817 808.064 683.241 814.27 685.213 817.924C687.127 821.578 686.779 825.58 678.833 830.742C673.671 835.441 656.792 836.253 650.296 839.443C642.698 842.111 640.842 841.009 639.218 848.781C637.246 857.481 632.142 874.012 628.719 881.378C625.355 888.744 617.815 901.91 610.101 907.594C601.227 914.323 589.742 915.135 589.742 915.135C589.742 915.135 583.942 914.961 588.582 910.495C593.223 906.028 596.645 904.288 600.241 899.416C603.779 894.022 612.073 879.696 614.741 869.72C617.467 859.801 619.439 852.841 619.439 852.841C619.439 852.841 622.513 848.143 616.539 850.521C610.565 852.957 604.823 856.147 601.401 856.379C596.065 856.205 592.817 854.117 589.742 845.881C586.668 837.587 590.322 834.571 593.223 834.223C596.181 833.875 600.937 835.905 608.941 832.483C616.887 829.93 620.599 828.422 620.599 828.422C620.599 828.422 623.325 828.828 624.079 822.564C624.891 816.358 625.239 810.384 625.239 810.384C625.239 810.384 624.775 805.628 630.459 805.686ZM643.858 847.041C643.858 847.041 645.018 840.777 649.136 845.881C654.124 850.869 665.202 866.471 674.135 872.098C683.067 877.666 698.727 885.612 712.01 890.136C725.234 894.602 729.468 896.516 729.468 896.516C729.468 896.516 737.762 899.358 730.048 904.694C723.378 910.03 720.42 913.743 708.471 913.395C695.769 913.047 690.549 909.972 681.733 903.534C674.773 898.546 664.912 889.672 660.736 883.118C656.154 876.912 651.108 870.01 649.136 865.079C647.106 860.149 644.38 855.683 643.858 852.261C643.336 848.839 643.858 847.041 643.858 847.041Z" fill="black"/>
<path fill-rule="evenodd" clip-rule="evenodd" d="M738.168 813.284L748.666 815.024C748.666 815.024 754.988 816.01 755.626 824.304C756.322 832.656 756.786 846.461 756.786 846.461C756.786 846.461 755.974 853.015 748.086 852.261C740.72 851.797 737.646 847.331 736.428 842.401C734.572 836.948 731.208 827.262 731.208 827.262C731.208 827.262 728.482 819.722 732.368 815.604C733.934 813.11 738.168 813.284 738.168 813.284ZM758.585 804.526C760.209 804.294 766.067 803.018 771.925 801.046C780.393 799.19 777.899 798.03 777.783 789.387C777.609 780.803 776.101 779.179 774.883 776.569C771.983 774.829 771.403 771.233 771.925 765.549C772.447 759.865 776.913 756.21 779.523 756.21C780.509 756.268 783.177 757.08 785.903 757.95C789.441 759.053 793.269 760.503 796.402 763.229C803.478 768.391 798.722 774.829 797.562 779.527C796.402 784.167 796.46 789.561 796.982 792.867C799.592 792.693 804.522 790.779 809.22 788.807C813.28 786.719 817.398 785.327 819.66 785.327C826.04 785.037 831.202 790.721 834.798 793.447C838.453 796.232 839.613 797.276 839.497 802.206C839.381 807.194 837.583 808.76 833.638 810.384C829.694 811.95 823.778 820.244 823.778 820.244L817.92 827.262C817.92 827.262 820.008 826.334 823.778 826.102C827.49 825.812 831.028 828.306 831.318 831.322C831.84 838.921 829.81 837.587 824.938 838.863C820.008 840.197 807.422 846.693 801.622 850.521C795.415 853.827 796.402 857.539 796.402 857.539C796.402 857.539 796.228 879.638 795.821 883.698C795.415 887.816 794.081 897.096 794.081 897.096C794.081 897.096 794.371 928.301 789.383 936.131C784.627 944.483 782.771 935.725 781.843 931.433C780.625 927.199 778.827 914.728 778.943 907.014C779.117 897.85 777.783 868.559 777.783 862.759C778.885 855.625 775.637 857.191 774.303 855.161C772.911 853.189 772.563 847.621 772.505 844.141C772.505 840.661 778.363 837.703 778.363 837.703C778.363 837.703 778.247 826.856 778.363 818.504C778.421 810.152 776.623 812.124 776.623 812.124C776.623 812.124 769.489 815.952 763.225 815.604C757.424 815.778 756.206 809.688 756.206 808.586C756.264 807.542 756.67 804.874 758.585 804.526ZM796.402 826.682C796.46 831.67 799.128 828.944 799.882 827.842C801.854 825.638 808.466 813.748 810.96 806.266C813.164 800.002 810.902 801.568 808.64 802.206C806.32 802.844 798.548 806.44 797.562 807.426C796.576 808.47 796.344 821.694 796.402 826.682Z" fill="black"/>
<path d="M871.514 832.482C875.342 832.772 877.43 837.587 876.734 847.041C877.314 852.783 878.474 858.003 878.474 862.759C878.474 867.515 875.052 883.292 864.495 883.118C853.939 883.002 852.721 872.213 852.837 868.559C852.953 864.963 858.463 854.291 859.275 849.941C860.087 845.591 862.639 831.786 871.514 832.482ZM890.712 835.963C894.656 836.369 903.24 836.717 904.69 844.141C905.966 848.259 907.59 857.945 913.971 863.339C917.393 866.529 921.685 868.617 928.529 867.979C947.67 866.181 960.662 856.379 964.606 851.101C968.318 846.345 962.054 839.501 959.386 837.123C956.776 834.802 952.426 830.742 952.426 830.742C952.426 830.742 950.454 833.758 945.987 833.642C941.579 833.584 934.561 827.842 932.589 822.564C930.675 817.344 933.169 817.866 933.807 814.444C934.445 811.022 934.329 805.744 940.187 805.686C946.045 805.686 955.152 813.168 955.906 821.984C955.558 824.768 954.108 827.494 954.166 828.422C955.5 828.48 970.406 841.299 974.524 841.821C978.642 842.285 983.282 841.821 983.282 841.821C983.282 841.821 986.589 840.951 989.083 845.881C991.577 850.811 995.637 859.047 990.823 862.759C989.373 864.731 985.892 867.457 980.962 870.879C972.03 877.144 958.806 884.452 947.147 886.598C928.993 890.02 922.265 889.672 913.971 886.018C911.013 884.742 906.488 882.77 902.95 879.638C897.556 874.708 891.582 866.413 887.812 858.699C882.592 848.433 880.562 834.976 890.712 835.963ZM974.524 795.246C979.512 795.13 983.514 798.61 997.261 798.726C1009.85 799.596 1017.85 803.424 1019.94 806.846C1022.03 810.268 1022.55 813.69 1022.26 817.924C1022.38 823.898 1015.82 824.13 1011.76 825.522C1005.21 828.248 1002.31 833.178 996.043 833.062C988.909 833.468 989.025 830.8 991.983 826.682C994.941 822.564 997.261 819.664 997.261 819.664C997.261 819.664 1000.22 816.706 993.143 816.764C988.561 816.184 977.134 816.59 973.944 815.024C970.696 813.69 967.158 809.108 966.984 804.526C966.752 799.422 968.26 795.42 974.524 795.246Z" fill="black"/>
<path fill-rule="evenodd" clip-rule="evenodd" d="M412.78 572.868C412.78 572.868 447.349 572.81 450.771 572.868C454.773 572.868 471.594 576.29 471.478 593.633C472 604.073 465.156 609.525 465.156 609.525C465.156 609.525 472.406 616.543 472.174 626.984C472.232 645.08 454.135 647.342 451.177 647.342C448.219 647.342 412.78 647.342 412.78 647.342V572.868ZM426.759 603.145H451.177C451.177 603.145 458.717 602.333 458.775 595.547C458.833 586.789 451.177 586.847 451.177 586.847H426.759V603.145ZM426.759 633.944H450.597C450.597 633.944 458.775 633.596 458.775 625.244C458.775 617.413 450.597 617.065 450.597 617.065H426.759V633.944ZM521.649 586.789H502.393C502.393 586.789 495.432 586.325 495.432 594.387C495.432 603.087 501.813 602.507 501.813 602.507C501.813 602.507 520.083 602.507 521.649 602.507C524.549 602.507 543.922 606.567 543.98 625.94C542.936 647.458 523.389 648.502 523.389 648.502C523.389 648.502 506.337 648.618 502.393 648.502C500.827 648.502 495.084 647.516 492.532 645.892C482.208 640.15 480.41 628.086 480.294 625.824C480.816 625.824 493.054 625.708 496.012 625.824C497.114 634.06 502.393 633.364 502.393 633.364C502.393 633.364 519.387 633.364 521.069 633.364C522.693 633.364 528.551 633.596 528.609 625.824C528.609 617.587 521.649 617.645 521.649 617.645C521.649 617.645 505.351 617.703 500.653 617.645C498.39 617.645 493.46 616.021 489.052 612.425C484.528 608.829 480.584 603.029 480.584 594.387C480.584 577.276 497.81 572.114 499.898 572.056C501.639 571.998 509.353 571.882 522.577 572.056C529.131 572.288 536.323 575.652 539.107 579.828C544.618 589.747 544.328 594.387 544.328 594.387C544.328 594.387 530.059 594.387 528.609 594.387C527.565 587.137 521.649 586.789 521.649 586.789ZM572.864 572.23C572.864 572.23 594.151 572.23 598.791 572.23C604.649 572.23 617.467 577.392 619.439 594.967C616.133 594.909 604.881 594.967 604.881 594.967C604.881 594.967 605.287 587.485 597.863 587.369C589.801 587.427 574.024 587.369 574.024 587.369C574.024 587.369 568.224 586.905 568.224 594.967C568.166 601.695 568.224 625.824 568.224 625.824C568.224 625.824 568.05 633.306 575.764 633.364C584.001 633.422 595.137 633.364 596.703 633.364C601.053 633.248 605.345 629.42 605.461 624.664C608.825 624.78 618.976 624.954 618.976 624.954C618.976 624.954 618.917 631.624 615.959 636.902C613.407 642.064 608.825 646.762 599.777 647.864C582.899 648.212 572.864 647.864 572.864 647.864C572.864 647.864 564.86 647.516 558.422 640.034C555.696 637.308 553.782 633.132 553.666 628.608C553.666 613.411 553.666 593.401 553.666 593.401C553.666 593.401 553.608 585.629 559.176 579.422C562.018 576.058 567.586 572.81 572.864 572.23Z" fill="black"/>
<path d="M323.69 554.192C325.662 552.045 324.328 550.305 323.11 548.971C321.892 547.579 318.47 543.113 318.47 543.113C318.47 543.113 316.266 540.503 316.73 535.573C317.194 530.643 318.238 527.221 318.47 523.335C318.702 519.449 318.47 517.535 318.47 517.535L341.149 539.633C341.149 539.633 344.687 542.939 342.889 553.032C341.613 560.166 341.381 564.574 338.829 567.59C336.74 570.722 323.284 574.028 318.47 573.97C310.408 573.448 305.652 568.17 305.652 568.17L287.033 550.131C287.033 550.131 292.833 550.711 299.852 548.391C304.666 546.999 309.596 546.941 312.032 548.391C314.526 549.841 320.21 554.192 320.21 554.192C320.21 554.192 322.472 555.874 323.69 554.192ZM291.731 520.435C293.819 518.695 292.833 516.955 291.905 515.505C290.977 514.054 288.367 509.53 288.367 509.53C288.367 509.53 286.685 506.804 287.729 502.28C288.831 497.756 290.281 494.74 290.977 491.202C291.731 487.664 291.731 485.808 291.731 485.808L309.828 509.298C309.828 509.298 312.612 512.836 309.654 521.885C307.508 528.323 306.754 532.383 303.97 534.819C301.592 537.429 288.715 538.705 284.249 538.067C276.883 536.501 273.171 530.933 273.171 530.933L258.38 511.792C258.38 511.792 263.659 513.068 270.445 511.908C275.085 511.212 279.667 511.85 281.755 513.532C283.785 515.157 288.483 519.971 288.483 519.971C288.483 519.971 290.397 521.827 291.731 520.435ZM267.081 485.808C269.227 484.474 268.531 482.734 267.835 481.284C267.139 479.892 265.399 475.368 265.399 475.368C265.399 475.368 264.181 472.641 265.747 468.639C267.313 464.637 268.995 462.085 270.097 458.895C271.257 455.705 271.547 454.081 271.547 454.081L285.061 477.92C285.061 477.92 287.207 481.516 283.321 489.462C280.537 495.088 279.261 498.684 276.419 500.54C273.925 502.628 261.919 502.164 257.974 501.004C251.42 498.626 248.694 493.058 248.694 493.058L237.558 473.627C237.558 473.627 242.256 475.484 248.636 475.252C252.986 475.252 257.104 476.354 258.786 478.152C260.469 479.95 264.181 484.938 264.181 484.938C264.181 484.938 265.631 486.852 267.081 485.808ZM248.578 450.543C250.782 449.673 250.376 447.991 249.97 446.541C249.564 445.091 248.636 440.683 248.636 440.683C248.636 440.683 247.94 438.015 249.97 434.534C252.058 431.112 254.03 429.024 255.538 426.24C257.046 423.514 257.568 422.006 257.568 422.006L266.385 446.077C266.385 446.077 267.777 449.673 263.021 456.401C259.54 461.157 257.858 464.289 254.958 465.623C252.348 467.131 241.328 464.869 237.848 463.187C232.164 459.939 230.54 454.429 230.54 454.429L223.29 434.824C223.29 434.824 227.292 437.203 233.208 438.015C237.21 438.653 240.864 440.335 242.14 442.249C243.416 444.163 246.026 449.325 246.026 449.325C246.026 449.325 247.128 451.355 248.578 450.543ZM236.456 415.278C238.544 414.756 238.486 413.132 238.312 411.798C238.138 410.406 237.906 406.172 237.906 406.172C237.906 406.172 237.674 403.62 240.052 400.72C242.43 397.878 244.576 396.195 246.374 393.875C248.172 391.555 248.868 390.279 248.868 390.279L253.508 413.712C253.508 413.712 254.262 417.25 248.868 422.76C244.982 426.646 243.01 429.314 240.11 430.068C237.5 431.112 227.698 427.4 224.74 425.37C219.983 421.6 219.229 416.264 219.229 416.264L215.401 397.066C215.401 397.066 218.765 399.908 224.102 401.474C227.698 402.692 230.772 404.722 231.7 406.694C232.57 408.666 234.252 413.77 234.252 413.77C234.252 413.77 234.948 415.8 236.456 415.278ZM229.554 380.187C231.584 380.013 231.7 378.563 231.758 377.287C231.816 376.011 232.164 372.183 232.164 372.183C232.164 372.183 232.338 369.863 234.89 367.601C237.442 365.339 239.588 364.121 241.502 362.323C243.474 360.467 244.228 359.423 244.228 359.423L245.156 381.173C245.156 381.173 245.33 384.479 239.704 388.655C235.702 391.613 233.498 393.701 230.83 393.991C228.278 394.571 219.983 389.873 217.605 387.611C213.893 383.551 214.009 378.621 214.009 378.621L213.197 360.873C213.197 360.873 215.807 363.889 220.389 366.035C223.464 367.601 225.958 369.921 226.538 371.777C227.06 373.691 227.814 378.505 227.814 378.505C227.814 378.505 228.162 380.419 229.554 380.187ZM227.292 347.126C229.148 347.242 229.438 345.908 229.612 344.748C229.844 343.646 230.656 340.166 230.656 340.166C230.656 340.166 231.12 338.02 233.73 336.28C236.34 334.54 238.486 333.728 240.458 332.278C242.488 330.828 243.358 329.958 243.358 329.958L241.444 350.026C241.444 350.026 241.212 353.1 235.47 356.232C231.41 358.379 229.148 360.061 226.654 359.945C224.276 360.177 217.257 354.782 215.401 352.404C212.443 348.228 213.197 343.762 213.197 343.762L214.705 327.348C214.705 327.348 216.735 330.422 220.679 332.974C223.29 334.83 225.262 337.266 225.552 339.064C225.784 340.862 225.9 345.386 225.9 345.386C225.9 345.386 225.958 347.184 227.292 347.126ZM229.206 315.051C230.888 315.341 231.294 314.181 231.584 313.195C231.874 312.151 232.976 309.135 232.976 309.135C232.976 309.135 233.556 307.279 236.108 306.003C238.66 304.727 240.632 304.205 242.546 303.161C244.518 302.059 245.388 301.363 245.388 301.363L241.56 319.112C241.56 319.112 241.038 321.78 235.586 323.984C231.758 325.55 229.554 326.768 227.35 326.42C225.204 326.362 219.461 320.852 218.011 318.532C215.865 314.471 216.967 310.527 216.967 310.527L220.041 296.027C220.041 296.027 221.55 299.043 224.798 301.711C226.944 303.625 228.452 306.003 228.51 307.627C228.51 309.251 228.162 313.369 228.162 313.369C228.162 313.369 228.046 314.935 229.206 315.051ZM234.658 283.151C236.108 283.499 236.572 282.571 236.92 281.701C237.268 280.831 238.544 278.278 238.544 278.278C238.544 278.278 239.24 276.712 241.56 275.842C243.938 274.972 245.678 274.682 247.534 273.928C249.332 273.174 250.144 272.652 250.144 272.652L245.156 287.849C245.156 287.849 244.402 290.169 239.472 291.561C235.934 292.547 233.904 293.475 231.932 292.953C230.076 292.721 225.61 287.327 224.508 285.123C223 281.353 224.334 278.046 224.334 278.046L228.394 265.576C228.394 265.576 229.438 268.36 232.048 271.028C233.73 272.884 234.89 275.146 234.716 276.538C234.6 277.988 233.904 281.527 233.904 281.527C233.904 281.527 233.672 282.919 234.658 283.151ZM247.998 242.144C247.998 242.144 248.172 260.588 247.998 261.342C247.882 262.096 239.994 267.606 238.718 267.2C237.21 266.62 234.542 257.108 235.238 256.122C235.934 255.136 247.998 242.144 247.998 242.144Z" fill="black"/>
<path d="M700.294 554.192C698.322 552.045 699.656 550.305 700.874 548.971C702.092 547.579 705.514 543.113 705.514 543.113C705.514 543.113 707.718 540.503 707.254 535.573C706.79 530.643 705.746 527.221 705.514 523.335C705.282 519.449 705.514 517.535 705.514 517.535L682.777 539.633C682.777 539.633 679.297 542.939 681.037 553.032C682.371 560.166 682.545 564.574 685.097 567.59C687.243 570.722 700.7 574.028 705.514 573.97C713.576 573.448 718.332 568.17 718.332 568.17L736.951 550.131C736.951 550.131 731.15 550.711 724.132 548.391C719.318 546.999 714.388 546.941 711.894 548.391C709.458 549.841 703.774 554.192 703.774 554.192C703.774 554.192 701.512 555.874 700.294 554.192ZM732.253 520.435C730.164 518.695 731.151 516.955 732.079 515.505C733.065 514.054 735.617 509.53 735.617 509.53C735.617 509.53 737.299 506.804 736.255 502.28C735.153 497.756 733.761 494.74 733.007 491.202C732.253 487.664 732.253 485.808 732.253 485.808L714.156 509.298C714.156 509.298 711.372 512.836 714.33 521.885C716.476 528.323 717.23 532.383 720.014 534.819C722.392 537.429 735.269 538.705 739.735 538.067C747.101 536.501 750.813 530.933 750.813 530.933L765.661 511.792C765.661 511.792 760.325 513.068 753.539 511.908C748.899 511.212 744.317 511.85 742.229 513.532C740.199 515.157 735.501 519.971 735.501 519.971C735.501 519.971 733.645 521.827 732.253 520.435ZM756.961 485.808C754.815 484.474 755.453 482.734 756.149 481.284C756.845 479.892 758.643 475.368 758.643 475.368C758.643 475.368 759.803 472.641 758.295 468.639C756.729 464.637 754.989 462.085 753.887 458.895C752.785 455.705 752.495 454.081 752.495 454.081L738.923 477.92C738.923 477.92 736.777 481.516 740.663 489.462C743.505 495.088 744.723 498.684 747.565 500.54C750.059 502.628 762.065 502.164 766.067 501.004C772.622 498.626 775.29 493.058 775.29 493.058L786.484 473.627C786.484 473.627 781.786 475.484 775.406 475.252C771.056 475.252 766.879 476.354 765.197 478.152C763.515 479.95 759.861 484.938 759.861 484.938C759.861 484.938 758.353 486.852 756.961 485.808ZM775.464 450.543C773.26 449.673 773.608 447.991 774.014 446.541C774.42 445.091 775.406 440.683 775.406 440.683C775.406 440.683 776.102 438.015 774.014 434.534C771.984 431.112 770.011 429.024 768.503 426.24C766.937 423.514 766.473 422.006 766.473 422.006L757.599 446.077C757.599 446.077 756.207 449.673 761.021 456.401C764.443 461.157 766.183 464.289 769.083 465.623C771.694 467.131 782.656 464.869 786.194 463.187C791.82 459.939 793.502 454.429 793.502 454.429L800.752 434.824C800.752 434.824 796.75 437.203 790.834 438.015C786.774 438.653 783.178 440.335 781.902 442.249C780.626 444.163 777.958 449.325 777.958 449.325C777.958 449.325 776.914 451.355 775.464 450.543ZM787.586 415.278C785.44 414.756 785.556 413.132 785.73 411.798C785.904 410.406 786.136 406.172 786.136 406.172C786.136 406.172 786.368 403.62 783.99 400.72C781.612 397.878 779.466 396.195 777.668 393.875C775.87 391.555 775.174 390.279 775.174 390.279L770.533 413.712C770.533 413.712 769.721 417.25 775.174 422.76C779.002 426.646 781.032 429.314 783.932 430.068C786.542 431.112 796.344 427.4 799.302 425.37C804.058 421.6 804.812 416.264 804.812 416.264L808.641 397.066C808.641 397.066 805.276 399.908 799.94 401.474C796.344 402.692 793.212 404.722 792.342 406.694C791.472 408.666 789.79 413.77 789.79 413.77C789.79 413.77 789.094 415.8 787.586 415.278ZM794.43 380.187C792.458 380.013 792.284 378.563 792.284 377.287C792.226 376.011 791.878 372.183 791.878 372.183C791.878 372.183 791.704 369.863 789.152 367.601C786.6 365.339 784.454 364.121 782.54 362.323C780.568 360.467 779.756 359.423 779.756 359.423L778.886 381.173C778.886 381.173 778.654 384.479 784.338 388.655C788.34 391.613 790.544 393.701 793.212 393.991C795.706 394.571 804.058 389.873 806.436 387.611C810.149 383.551 810.033 378.621 810.033 378.621L810.845 360.873C810.845 360.873 808.235 363.889 803.652 366.035C800.578 367.601 798.026 369.921 797.504 371.777C796.982 373.691 796.228 378.505 796.228 378.505C796.228 378.505 795.88 380.419 794.43 380.187ZM796.75 347.126C794.894 347.242 794.604 345.908 794.372 344.748C794.198 343.646 793.386 340.166 793.386 340.166C793.386 340.166 792.922 338.02 790.312 336.28C787.644 334.54 785.556 333.728 783.526 332.278C781.496 330.828 780.626 329.958 780.626 329.958L782.598 350.026C782.598 350.026 782.83 353.1 788.572 356.232C792.632 358.379 794.894 360.061 797.388 359.945C799.766 360.177 806.784 354.782 808.698 352.404C811.599 348.228 810.903 343.762 810.903 343.762L809.336 327.348C809.336 327.348 807.306 330.422 803.362 332.974C800.752 334.83 798.78 337.266 798.49 339.064C798.258 340.862 798.142 345.386 798.142 345.386C798.142 345.386 798.084 347.184 796.75 347.126ZM794.836 315.051C793.154 315.341 792.748 314.181 792.458 313.195C792.168 312.151 791.066 309.135 791.066 309.135C791.066 309.135 790.428 307.279 787.934 306.003C785.382 304.727 783.41 304.205 781.438 303.161C779.524 302.059 778.654 301.363 778.654 301.363L782.482 319.112C782.482 319.112 783.004 321.78 788.398 323.984C792.284 325.55 794.488 326.768 796.692 326.42C798.838 326.362 804.58 320.852 806.03 318.532C808.176 314.471 807.074 310.527 807.074 310.527L804 296.027C804 296.027 802.492 299.043 799.244 301.711C797.098 303.625 795.59 306.003 795.532 307.627C795.532 309.251 795.88 313.369 795.88 313.369C795.88 313.369 795.996 314.935 794.836 315.051ZM789.326 283.151C787.934 283.499 787.47 282.571 787.122 281.701C786.774 280.831 785.498 278.278 785.498 278.278C785.498 278.278 784.802 276.712 782.424 275.842C780.104 274.972 778.306 274.682 776.508 273.928C774.71 273.174 773.84 272.652 773.84 272.652L778.886 287.849C778.886 287.849 779.582 290.169 784.57 291.561C788.108 292.547 790.138 293.475 792.052 292.953C793.966 292.721 798.432 287.327 799.476 285.123C801.042 281.353 799.708 278.046 799.708 278.046L795.648 265.576C795.648 265.576 794.604 268.36 791.994 271.028C790.312 272.884 789.152 275.146 789.268 276.538C789.384 277.988 790.138 281.527 790.138 281.527C790.138 281.527 790.37 282.919 789.326 283.151ZM775.986 242.144C775.986 242.144 775.87 260.588 775.986 261.342C776.102 262.096 784.048 267.606 785.324 267.2C786.832 266.62 789.5 257.108 788.804 256.122C788.108 255.136 775.986 242.144 775.986 242.144Z" fill="black"/>
<path fill-rule="evenodd" clip-rule="evenodd" d="M462.836 164.712C462.836 164.712 477.626 159.666 490.213 158.912C490.271 159.318 406.922 467.479 406.922 467.479C406.922 467.479 387.492 450.833 385.984 448.223C386.622 445.903 462.836 164.712 462.836 164.712Z" fill="black"/>
<path fill-rule="evenodd" clip-rule="evenodd" d="M473.334 124.575C473.334 124.575 491.082 121.79 500.072 121.674C500.71 119.47 511.151 80.3194 511.151 80.3194L615.959 467.479C615.959 467.479 629.59 456.285 636.898 448.223C635.506 443.061 518.343 9.0356 516.951 4.04747C515.385 -1.57867 507.613 -1.11466 505.931 4.04747C504.249 9.2096 473.334 124.575 473.334 124.575Z" fill="black"/>
<path fill-rule="evenodd" clip-rule="evenodd" d="M625.82 504.716C625.82 504.716 638.928 496.538 647.396 488.998C648.092 490.97 679.993 608.365 679.993 608.365C679.993 608.365 680.921 611.091 677.615 613.005C674.077 615.325 671.815 613.005 671.815 613.005L511.731 461.041L350.487 613.005C350.487 613.005 347.239 614.861 344.687 612.425C342.076 609.989 343.468 606.045 343.468 606.045L375.485 488.418C375.485 488.418 390.102 500.54 397.062 504.136C396.482 506.456 385.984 544.911 385.984 544.911L498.912 438.942V146.673L525.129 151.313V439.522L636.898 544.911L625.82 504.716Z" fill="black"/>
<path fill-rule="evenodd" clip-rule="evenodd" d="M511.731 127.011C513.78 127.011 515.83 127.049 517.879 127.127L525.129 152.241C520.721 151.893 516.255 151.719 511.731 151.719C413.244 151.719 333.434 231.587 333.434 330.074C333.434 400.952 374.789 462.143 434.647 490.912L415.738 509.414C351.937 475.136 308.552 407.738 308.552 330.248C308.552 218.015 399.498 127.011 511.731 127.011ZM511.731 508.37C524.491 508.37 536.904 507.036 548.852 504.484L570.196 524.901C551.694 530.469 532.089 533.485 511.731 533.485C491.256 533.485 471.42 530.411 452.801 524.785L474.552 504.484C486.558 507.036 498.971 508.37 511.731 508.37ZM690.027 330.074C690.027 250.148 637.478 182.518 565.092 159.84L558.074 132.347C647.976 153.343 714.91 233.965 714.91 330.248C714.91 407.796 671.525 475.136 607.665 509.414L588.467 491.086C648.556 462.375 690.027 401.068 690.027 330.074Z" fill="black"/>
<path fill-rule="evenodd" clip-rule="evenodd" d="M756.033 330.538C756.033 414.93 713.17 489.346 648.034 533.195L643.104 523.741C704.876 481.748 745.477 410.87 745.477 330.538C745.477 204.152 645.076 101.2 519.677 97.1978L516.777 86.5835C649.368 89.0776 756.033 197.366 756.033 330.538ZM278.565 330.538C278.565 411.16 319.456 482.27 381.633 524.205L377.109 533.891C311.336 490.158 268.009 415.394 268.009 330.538C268.009 197.946 373.803 90.0056 505.583 86.5835L503.147 97.2558C378.327 101.896 278.565 204.559 278.565 330.538Z" fill="black"/>
</svg>
