<svg width="1025" height="393" viewBox="0 0 1025 393" fill="none" xmlns="http://www.w3.org/2000/svg">
<path d="M0.0410156 288.771V7.35303H76.2963V283.325C76.2963 307.39 95.8053 326.899 119.871 326.899H165.261C189.326 326.899 208.835 307.39 208.835 283.325V7.35303H285.091V288.771C285.091 344.924 239.57 390.445 183.417 390.445H101.715C45.5619 390.445 0.0410156 344.924 0.0410156 288.771Z" fill="black"/>
<path d="M377.686 339.608V52.7428C377.686 26.6718 398.821 5.53711 424.892 5.53711H660.92V69.0832H464.835C458.819 69.0832 453.942 73.9604 453.942 79.9768V167.126H630.055V228.856H453.942V311.514C453.942 317.512 458.79 322.381 464.787 322.407L660.92 323.268V386.814H424.892C398.821 386.814 377.686 365.679 377.686 339.608Z" fill="black"/>
<path d="M733.544 330.53V61.8208C733.544 27.728 761.182 0.090332 795.275 0.090332H962.31C996.403 0.090332 1024.04 27.728 1024.04 61.8208V113.566H949.601V81.7925C949.601 71.7652 941.472 63.6364 931.445 63.6364H835.218C821.18 63.6364 809.8 75.0167 809.8 89.0549V303.296C809.8 317.334 821.18 328.714 835.218 328.714H924.183C938.221 328.714 949.601 317.334 949.601 303.296V227.948H897.856V164.402H1024.04V330.53C1024.04 364.623 996.403 392.261 962.31 392.261H795.275C761.182 392.261 733.544 364.623 733.544 330.53Z" fill="black"/>
</svg>
