<svg width="1024" height="208" viewBox="0 0 1024 208" fill="none" xmlns="http://www.w3.org/2000/svg">
<path fill-rule="evenodd" clip-rule="evenodd" d="M15.249 48.261C13.4162 48.2609 11.8723 47.7024 10.5784 46.5958C9.37423 45.5234 8.75039 44.0684 8.75039 42.146V0.384439H0.0767822V43.5295C0.0767878 45.2225 0.432479 46.8381 1.14302 48.3686L1.27966 48.6532C1.97868 50.0638 2.93915 51.3265 4.15411 52.4402L4.16685 52.4516C5.4693 53.5912 7.03176 54.5034 8.84243 55.1957L8.85092 55.1993L8.86013 55.2021C10.6894 55.8477 12.6937 56.1657 14.8653 56.1657H24.3942C26.5163 56.1657 28.4718 55.8474 30.2521 55.2L30.2606 55.1964L30.2698 55.1929C32.0314 54.4989 33.5447 53.5841 34.7967 52.4409L34.8024 52.4353L34.8087 52.4296C36.0503 51.242 37.0268 49.8876 37.732 48.3686L37.8609 48.0811C38.4856 46.6362 38.7983 45.1169 38.7983 43.5295V0.384439H30.1247V42.146C30.1247 44.0615 29.4805 45.5154 28.2258 46.5908L28.2159 46.5993C26.9764 47.701 25.4617 48.2609 23.626 48.261H15.249Z" fill="black"/>
<path d="M89.5535 55.7048H81.105L59.2755 17.0831V55.7048H50.6019V0.384439H59.0504L80.9563 39.1576V0.384439H89.5535V55.7048Z" fill="black"/>
<path d="M110.391 55.7048H101.717V0.384439H110.391V55.7048Z" fill="black"/>
<path d="M154.166 8.28917H140.872V55.7048H132.274V8.28917H118.057V0.384439H154.166V8.28917Z" fill="black"/>
<path d="M194.576 8.28917H170.522V23.2851H192.424V31.1899H170.522V47.7993H195.344V55.7048H161.849V0.384439H194.576V8.28917Z" fill="black"/>
<path fill-rule="evenodd" clip-rule="evenodd" d="M231.359 0.460903C233.48 0.460903 235.435 0.805257 237.216 1.50377C238.985 2.14731 240.505 3.06497 241.761 4.26282L241.992 4.47876C243.131 5.57014 244.034 6.83082 244.696 8.25801L244.825 8.54617C245.45 9.99099 245.763 11.5105 245.763 13.0978V43.0685C245.763 44.6558 245.45 46.1748 244.825 47.6195L244.696 47.9077C243.991 49.4267 243.015 50.7811 241.773 51.9687L241.767 51.9744L241.761 51.98C240.509 53.1232 238.996 54.038 237.234 54.732L237.225 54.7355L237.216 54.7391C235.436 55.3865 233.481 55.7048 231.359 55.7048H206.81V0.460903H231.359ZM215.485 47.7993H230.59C232.482 47.7993 234.022 47.237 235.257 46.1384L235.267 46.1299C236.522 45.0545 237.165 43.6005 237.165 41.6851V14.4806C237.165 12.5652 236.522 11.1112 235.267 10.0358L235.257 10.0273C234.022 8.92869 232.482 8.3664 230.59 8.36634H215.485V47.7993Z" fill="black"/>
<path d="M314.753 8.28917H290.7V23.2851H312.601V31.1899H290.7V47.7993H315.522V55.7048H282.026V0.384439H314.753V8.28917Z" fill="black"/>
<path fill-rule="evenodd" clip-rule="evenodd" d="M369.535 55.7048L350.44 0.153634H342.258L323.162 55.7048H332.005L336.77 41.0267H355.779L360.697 55.7048H369.535ZM339.319 33.1984H353.22L346.237 12.1789L339.319 33.1984Z" fill="black"/>
<path fill-rule="evenodd" clip-rule="evenodd" d="M377.879 0.384439H400.429C402.65 0.384454 404.68 0.701793 406.511 1.34802L406.848 1.47121C408.523 2.10153 409.978 2.94911 411.204 4.02139C412.552 5.10493 413.588 6.38569 414.3 7.86437C415.015 9.29774 415.371 10.8403 415.371 12.4826V23.7029C415.37 26.0404 414.587 28.2169 413.062 30.2192L412.747 30.6178C411.165 32.546 409.075 33.942 406.508 34.8233L416.326 55.7048H407.116L397.664 35.6474H386.552V55.7048H377.879V0.384439ZM404.701 9.92604C406.03 10.8561 406.697 12.1631 406.697 13.9425V22.3194C406.697 23.0713 406.521 23.7736 406.167 24.437L406.159 24.454C405.848 25.0759 405.4 25.6404 404.802 26.1461L404.791 26.1553L404.78 26.1652C404.312 26.5948 403.751 26.9456 403.09 27.2131L402.8 27.3221C402.011 27.6006 401.171 27.7419 400.275 27.7419H386.552V8.36634H399.66C401.679 8.36634 403.338 8.89256 404.678 9.90976L404.69 9.91826L404.701 9.92604Z" fill="black"/>
<path d="M458.02 8.28917H444.725V55.7048H436.128V8.28917H421.911V0.384439H458.02V8.28917Z" fill="black"/>
<path d="M504.654 55.7048H496.058V31.0362H474.376V55.7048H465.702V0.384439H474.376V23.208H496.058V0.384439H504.654V55.7048Z" fill="black"/>
<path d="M556.068 48.261C554.235 48.261 552.692 47.7024 551.398 46.5958C550.193 45.5234 549.57 44.0685 549.57 42.146V14.0197C549.57 12.097 550.193 10.6416 551.398 9.56922C552.691 8.46286 554.236 7.90543 556.068 7.90543H564.675C566.568 7.90546 568.106 8.46776 569.342 9.56638L569.352 9.57488C570.607 10.6503 571.251 12.1042 571.251 14.0197V19.2021H579.848V12.6362C579.848 10.9431 579.492 9.3276 578.781 7.79711C578.075 6.2747 577.094 4.94126 575.845 3.80121C574.594 2.60752 573.081 1.69234 571.319 1.04924C569.534 0.345966 567.572 0 565.444 0H555.684C553.513 1.36509e-05 551.509 0.343278 549.679 1.04004L549.34 1.16394C547.665 1.79754 546.211 2.67186 544.986 3.7913C543.764 4.86028 542.8 6.1014 542.099 7.5125L541.962 7.79711C541.252 9.32762 540.896 10.9431 540.896 12.6362V43.5295C540.896 45.2226 541.252 46.8381 541.962 48.3686L542.098 48.6532C542.797 50.0639 543.758 51.3264 544.973 52.4402L544.986 52.4516C546.289 53.5911 547.851 54.5034 549.662 55.1957L549.67 55.1993L549.679 55.2021C551.509 55.8477 553.512 56.1657 555.684 56.1657H565.444C567.566 56.1657 569.521 55.8474 571.301 55.2L571.311 55.1964L571.319 55.1929C573.081 54.4989 574.594 53.5841 575.846 52.4409L575.852 52.4353L575.858 52.4296C577.1 51.242 578.076 49.8876 578.781 48.3686L578.91 48.0811C579.535 46.6362 579.848 45.1169 579.848 43.5295V26.3592H559.263V34.264H571.251V42.146C571.251 44.0615 570.607 45.5154 569.352 46.5908L569.342 46.5993C568.106 47.6979 566.568 48.2609 564.675 48.261H556.068Z" fill="black"/>
<path fill-rule="evenodd" clip-rule="evenodd" d="M604.999 0C602.828 0 600.823 0.343155 598.994 1.04004L598.655 1.16394C596.98 1.79758 595.525 2.67184 594.301 3.7913L594.06 4.00723C592.952 5.02636 592.068 6.19549 591.414 7.5125L591.277 7.79711C590.567 9.32762 590.211 10.9431 590.21 12.6362V43.5295C590.21 45.2226 590.567 46.838 591.277 48.3686L591.413 48.6532C592.112 50.0639 593.073 51.3264 594.289 52.4402L594.294 52.4459L594.301 52.4516C595.603 53.5912 597.165 54.5034 598.976 55.1957L598.985 55.1993L598.994 55.2021C600.823 55.8477 602.827 56.1657 604.999 56.1657H614.759C616.881 56.1657 618.836 55.8474 620.617 55.2L620.625 55.1964L620.634 55.1929C622.396 54.499 623.909 53.5841 625.161 52.4409L625.167 52.4353L625.173 52.4296C626.415 51.242 627.391 49.8876 628.096 48.3686L628.225 48.0811C628.85 46.6362 629.163 45.1169 629.163 43.5295V12.6362C629.163 10.9431 628.806 9.32762 628.096 7.79711C627.389 6.27477 626.409 4.94122 625.16 3.80121C623.909 2.60751 622.396 1.69235 620.634 1.04924C618.849 0.345919 616.887 3.15728e-06 614.759 0H604.999ZM613.991 48.261H605.383C603.662 48.261 602.196 47.7687 600.952 46.7926L600.706 46.5908C599.506 45.519 598.884 44.0654 598.884 42.146V14.0197C598.884 12.1003 599.506 10.6467 600.706 9.57488C602.002 8.46491 603.548 7.90543 605.383 7.90543H613.991C615.883 7.9055 617.422 8.4678 618.658 9.56638L618.667 9.57488C619.922 10.6503 620.566 12.1043 620.566 14.0197V42.146C620.566 44.0614 619.922 45.5154 618.667 46.5908L618.658 46.5993C617.422 47.6979 615.883 48.2609 613.991 48.261Z" fill="black"/>
<path d="M644.109 0.460903L658.494 43.3928L672.805 0.460903H681.646L662.717 55.217L662.547 55.7048H654.368L654.199 55.217L635.269 0.460903H644.109Z" fill="black"/>
<path d="M722.715 8.28917H698.661V23.2851H720.563V31.1899H698.661V47.7993H723.484V55.7048H689.988V0.384439H722.715V8.28917Z" fill="black"/>
<path d="M734.95 0.384439H757.5C759.721 0.384471 761.751 0.701811 763.582 1.34802L763.92 1.47121C765.594 2.10154 767.05 2.9491 768.275 4.02139C769.623 5.10493 770.659 6.3857 771.371 7.86437C772.086 9.29772 772.442 10.8404 772.442 12.4826V23.7029C772.442 26.0404 771.658 28.2169 770.133 30.2192L769.818 30.6178C768.236 32.5458 766.146 33.942 763.579 34.8233L773.397 55.7048H764.187L754.735 35.6474H743.624V55.7048H734.95V0.384439ZM763.768 22.3194V13.9425C763.768 12.163 763.1 10.8561 761.772 9.92604L761.76 9.91826L761.75 9.90976C760.409 8.89256 758.75 8.36634 756.732 8.36634H743.624V27.7419H757.346C758.242 27.7419 759.082 27.6007 759.871 27.3221L760.161 27.2131C760.822 26.9456 761.383 26.5948 761.852 26.1652L761.862 26.1553L761.873 26.1461C762.471 25.6404 762.919 25.076 763.23 24.454L763.239 24.437C763.593 23.7736 763.768 23.0713 763.768 22.3194Z" fill="black"/>
<path d="M822.842 55.7048H814.393L792.564 17.0831V55.7048H783.89V0.384439H792.339L814.245 39.159V0.384439H822.842V55.7048Z" fill="black"/>
<path d="M883.487 55.7048H874.89V18.417L862.781 44.1773H855.634L843.68 18.5904V55.7048H835.006V0.384439H843.722L843.919 0.800739L859.398 33.7514L875 0.384439H883.487V55.7048Z" fill="black"/>
<path d="M928.381 8.28917H904.327V23.2851H926.228V31.1899H904.327V47.7993H929.149V55.7048H895.653V0.384439H928.381V8.28917Z" fill="black"/>
<path d="M979.567 55.7048H971.118L949.289 17.0824V55.7048H940.615V0.384439H949.064L970.971 39.159V0.384439H979.567V55.7048Z" fill="black"/>
<path d="M1023.38 8.28917H1010.09V55.7048H1001.49V8.28917H987.274V0.384439H1023.38V8.28917Z" fill="black"/>
<path d="M1024 207.227H969.583V115.748H1022.7V126.71H981.849V154.636H1019.04V165.598H981.849V196.265H1024V207.227Z" fill="black"/>
<path d="M903.499 180.736V185.434C903.499 189.001 904.891 191.828 907.675 193.916C910.459 196.004 913.852 197.048 917.854 197.048H928.294C932.469 197.048 935.906 196.134 938.603 194.307C941.387 192.48 942.779 189.74 942.779 186.086V181.258C942.779 179.257 941.561 177.473 939.125 175.907C936.776 174.341 933.818 172.819 930.251 171.34C926.684 169.774 922.769 168.164 918.506 166.512C914.33 164.772 910.459 162.771 906.892 160.509C903.325 158.247 900.324 155.637 897.888 152.679C895.539 149.634 894.364 146.067 894.364 141.978V133.626C894.364 131.19 894.886 128.885 895.93 126.71C896.974 124.448 898.453 122.491 900.367 120.838C902.368 119.098 904.717 117.706 907.414 116.662C910.111 115.618 913.156 115.096 916.549 115.096H928.294C931.947 115.096 935.253 115.618 938.211 116.662C941.169 117.706 943.692 119.141 945.78 120.968C947.955 122.795 949.608 124.883 950.739 127.232C951.87 129.581 952.436 132.06 952.436 134.67V143.936H940.169V137.019C940.169 133.713 938.864 131.06 936.254 129.059C933.731 127.058 930.643 126.057 926.989 126.057H918.506C915.2 126.057 912.373 126.971 910.024 128.798C907.675 130.538 906.501 132.93 906.501 135.975V141.065C906.501 143.588 907.675 145.806 910.024 147.72C912.46 149.547 915.461 151.287 919.028 152.94C922.682 154.593 926.597 156.246 930.773 157.899C934.949 159.552 938.82 161.422 942.387 163.51C946.041 165.511 949.043 167.817 951.392 170.426C953.827 172.949 955.045 175.951 955.045 179.431V188.435C955.045 191.306 954.436 193.959 953.219 196.395C952.001 198.744 950.261 200.789 947.999 202.529C945.824 204.269 943.17 205.617 940.038 206.574C936.906 207.531 933.426 208.01 929.599 208.01H917.201C913.287 208.01 909.72 207.488 906.501 206.444C903.369 205.313 900.672 203.834 898.41 202.007C896.148 200.093 894.408 197.918 893.19 195.482C891.972 193.046 891.363 190.479 891.363 187.783V180.736H903.499Z" fill="black"/>
<path d="M852.418 115.357L883.998 207.227H871.601L863.249 182.302H829.189L821.099 207.227H808.701L840.282 115.357H852.418ZM832.713 171.47H859.726L846.154 130.625L832.713 171.47Z" fill="black"/>
<path d="M739.622 115.879H772.899C776.379 115.879 779.555 116.488 782.425 117.706C785.296 118.837 787.732 120.403 789.733 122.404C791.734 124.318 793.3 126.58 794.431 129.189C795.562 131.799 796.128 134.54 796.128 137.411V144.197C796.128 147.068 795.432 149.808 794.04 152.418C792.735 154.941 790.821 157.116 788.298 158.943C792.561 160.683 795.91 163.293 798.346 166.773C800.782 170.253 802 174.08 802 178.256V184.129C802 187.261 801.435 190.219 800.304 193.002C799.173 195.786 797.607 198.266 795.606 200.441C793.605 202.529 791.169 204.182 788.298 205.4C785.427 206.618 782.252 207.227 778.772 207.227H739.622V115.879ZM751.889 165.598V196.265H777.467C780.947 196.265 783.861 195.221 786.21 193.133C788.646 191.045 789.864 188.218 789.864 184.651V177.604C789.864 174.037 788.559 171.166 785.949 168.991C783.426 166.729 780.294 165.598 776.553 165.598H751.889ZM751.889 126.84V154.767H771.594C775.074 154.767 777.989 153.766 780.338 151.765C782.773 149.764 783.991 147.111 783.991 143.805V137.802C783.991 134.496 782.773 131.843 780.338 129.842C777.989 127.841 775.074 126.84 771.594 126.84H751.889Z" fill="black"/>
<path d="M685.676 207.227H631.259V115.748H684.371V126.71H643.526V154.636H680.717V165.598H643.526V196.265H685.676V207.227Z" fill="black"/>
<path d="M620.822 207.227H570.45V115.748H582.717V196.265H620.822V207.227Z" fill="black"/>
<path d="M529.638 197.048C533.118 197.048 536.033 196.004 538.382 193.916C540.818 191.828 542.036 189.001 542.036 185.434V137.672C542.036 134.105 540.818 131.277 538.382 129.189C536.033 127.101 533.118 126.057 529.638 126.057H515.023C511.63 126.057 508.715 127.101 506.28 129.189C503.931 131.277 502.756 134.105 502.756 137.672V185.434C502.756 189.001 503.931 191.828 506.28 193.916C508.715 196.004 511.63 197.048 515.023 197.048H529.638ZM514.37 208.01C510.803 208.01 507.541 207.488 504.583 206.444C501.625 205.313 499.102 203.834 497.014 202.007C494.926 200.093 493.317 197.918 492.186 195.482C491.055 193.046 490.489 190.479 490.489 187.783V135.323C490.489 132.626 491.055 130.059 492.186 127.623C493.317 125.187 494.926 123.056 497.014 121.229C499.102 119.315 501.625 117.836 504.583 116.792C507.541 115.661 510.803 115.096 514.37 115.096H530.943C534.423 115.096 537.599 115.661 540.47 116.792C543.341 117.836 545.777 119.315 547.778 121.229C549.779 123.056 551.345 125.187 552.476 127.623C553.607 130.059 554.172 132.626 554.172 135.323V187.783C554.172 190.479 553.607 193.046 552.476 195.482C551.345 197.918 549.779 200.093 547.778 202.007C545.777 203.834 543.341 205.313 540.47 206.444C537.599 207.488 534.423 208.01 530.943 208.01H514.37Z" fill="black"/>
<path d="M417.483 207.227V115.748H453.24C456.894 115.748 460.199 116.27 463.157 117.314C466.115 118.358 468.638 119.794 470.726 121.62C472.901 123.36 474.554 125.405 475.685 127.754C476.816 130.016 477.382 132.452 477.382 135.062V154.114C477.382 156.724 476.816 159.247 475.685 161.683C474.641 164.032 473.075 166.163 470.987 168.077C468.986 169.904 466.55 171.383 463.679 172.514C460.895 173.645 457.764 174.211 454.284 174.211H429.75V207.227H417.483ZM429.75 126.84V163.249H452.979C456.285 163.249 459.112 162.162 461.461 159.987C463.897 157.812 465.115 155.071 465.115 151.765V137.541C465.115 134.148 463.81 131.538 461.2 129.711C458.677 127.797 455.589 126.84 451.935 126.84H429.75Z" fill="black"/>
<path d="M298.67 207.227V115.748H310.937V154.506H350.216V115.748H362.353V207.227H350.216V165.337H310.937V207.227H298.67Z" fill="black"/>
<path d="M253.67 207.227V126.71H229.528V115.748H288.382V126.71H265.806V207.227H253.67Z" fill="black"/>
<path d="M159.976 207.227V115.748H197.037C200.691 115.748 203.997 116.27 206.955 117.314C209.913 118.358 212.436 119.794 214.524 121.62C216.699 123.36 218.352 125.405 219.483 127.754C220.614 130.016 221.179 132.452 221.179 135.062V154.114C221.179 158.029 219.787 161.683 217.003 165.076C214.219 168.469 210.435 170.861 205.65 172.253L222.093 207.227H209.173L193.122 173.167H172.243V207.227H159.976ZM172.243 126.84V162.205H196.776C198.429 162.205 199.995 161.944 201.474 161.422C202.953 160.9 204.215 160.161 205.259 159.204C206.39 158.247 207.26 157.159 207.869 155.941C208.565 154.636 208.913 153.244 208.913 151.765V137.541C208.913 134.148 207.608 131.538 204.998 129.711C202.475 127.797 199.386 126.84 195.732 126.84H172.243Z" fill="black"/>
<path d="M119.164 197.048C122.644 197.048 125.559 196.004 127.908 193.916C130.343 191.828 131.561 189.001 131.561 185.434V137.672C131.561 134.105 130.343 131.277 127.908 129.189C125.559 127.101 122.644 126.057 119.164 126.057H104.549C101.156 126.057 98.2412 127.101 95.8052 129.189C93.4563 131.277 92.2818 134.105 92.2818 137.672V185.434C92.2818 189.001 93.4563 191.828 95.8052 193.916C98.2412 196.004 101.156 197.048 104.549 197.048H119.164ZM103.896 208.01C100.329 208.01 97.0667 207.488 94.1088 206.444C91.1508 205.313 88.6279 203.834 86.5399 202.007C84.452 200.093 82.8425 197.918 81.7116 195.482C80.5806 193.046 80.0151 190.479 80.0151 187.783V135.323C80.0151 132.626 80.5806 130.059 81.7116 127.623C82.8425 125.187 84.452 123.056 86.5399 121.229C88.6279 119.315 91.1508 117.836 94.1088 116.792C97.0667 115.661 100.329 115.096 103.896 115.096H120.469C123.949 115.096 127.125 115.661 129.995 116.792C132.866 117.836 135.302 119.315 137.303 121.229C139.304 123.056 140.87 125.187 142.001 127.623C143.132 130.059 143.698 132.626 143.698 135.323V187.783C143.698 190.479 143.132 193.046 142.001 195.482C140.87 197.918 139.304 200.093 137.303 202.007C135.302 203.834 132.866 205.313 129.995 206.444C127.125 207.488 123.949 208.01 120.469 208.01H103.896Z" fill="black"/>
<path d="M0 207.227V115.748H12.3972L51.5463 185.042V115.748H63.6825V207.227H51.2853L12.2667 138.194V207.227H0Z" fill="black"/>
</svg>
