<svg width="1025" height="869" viewBox="0 0 1025 869" fill="none" xmlns="http://www.w3.org/2000/svg">
<path fill-rule="evenodd" clip-rule="evenodd" d="M650.433 849.953C644.517 856.713 636.863 863.031 629.646 868.857C583.022 820.672 528.281 767.268 476.252 767.268C443.993 767.268 420.76 791.824 393.655 809.149C356.04 833.192 304.441 846.732 260.223 829.086C236.442 820.056 213.398 806.755 196.179 785.147C230.98 809.149 283.097 812.375 322.385 796.074C365.813 778.059 410.012 754.137 459.502 754.137C532.457 754.137 601.793 803.484 650.433 849.953ZM111.236 698.404C159.539 753.386 238.318 735.698 302.796 749.429C311.772 751.34 320.205 754.321 329.837 752.842C322.172 747.981 312.012 747.433 303.155 744.097C253.124 725.25 245.324 671.707 217.945 634.854C252.915 658.102 281.889 689.933 314.591 719.845C337.353 740.663 365.71 749.569 395.118 755.553C388.051 758.136 378.806 757.527 371.195 759.414C318.369 772.519 259.799 793.207 203.589 774.656C167.315 762.686 129.566 734.337 111.234 698.403L111.236 698.404ZM33.8109 571.15C63.9401 639.363 139.637 644.706 189.969 686.55C199.538 694.509 209.025 701.829 219.539 706.734L220.082 706.184C208.467 695.674 195.898 683.152 186.903 670.082C158.136 628.285 167.708 571.153 145.529 526.84C165.68 550.968 184.581 575.816 196.185 603.44C214.858 647.896 221.201 698.615 263.08 732.397C217.753 717.443 165.465 720.42 124.649 693.686C81.7446 665.584 41.9815 621.231 33.8109 571.149V571.15ZM1.53641 433.146C5.89389 493.244 69.8772 525.346 100.386 574.748C106.901 585.3 113.608 596.191 123.07 604.712C121.594 598.312 116.33 592.642 113.432 586.367C103.647 565.169 99.2173 540.639 101.659 515.417C104.633 484.728 117.427 456.23 112.517 423.946C138.813 480.705 130.33 551.665 145.529 613.036C148.891 626.613 157.158 638.494 162.252 651.352C136.415 631.696 102.556 614.25 74.1945 591.896C46.767 570.277 22.96 544.939 10.5844 511.969C1.66613 488.211 -0.653029 459.873 1.53641 433.144V433.146ZM3.32462 322.417C6.41017 309.005 8.77212 295.122 14.6075 282.819C3.55866 339.51 41.2753 380.462 54.1498 429.51C59.0035 447.992 60.6633 467.633 68.1385 484.88C68.8366 485.253 69.4398 484.528 69.8704 483.97C51.2622 431.771 78.54 383.529 105.114 342.384C112.1 331.569 115.461 318.976 118.722 306.244C121.594 329.875 116.566 357.226 112.193 381.612C106.565 413.005 95.8361 442.428 87.3071 472.717C81.691 491.639 83.1716 512.995 86.0525 532.819L83.3455 530.659C63.5616 494.136 24.5289 465.604 12.7404 425.743C3.31926 393.885 -3.19822 357.079 3.32462 322.42V322.417ZM24.1905 261.432C24.1905 218.53 40.8955 183.534 65.953 151.583C66.6819 151.221 67.1982 150.492 68.1385 150.663C40.5518 192.622 65.6615 245.589 62.1145 293.18L58.4765 342.027C59.0155 342.383 59.0156 343.847 60.2982 343.287C61.9286 337.841 62.4221 332.048 63.3704 326.424C70.0109 287.045 104.591 259.638 133.917 231.836C140.853 225.259 145.932 217.483 149.203 209.128C146.764 228.743 141.293 248.852 132.487 266.675C109.914 312.373 66.3181 349.26 58.4765 401.193C54.6741 351.423 24.1905 314.424 24.1905 261.432ZM96.9007 116.714C110.773 101.336 126.318 89.3548 144.825 84.6161C108.886 109.33 110.836 153.493 99.8351 190.422C95.812 203.925 89.8977 216.576 86.756 230.532L87.6642 231.258C93.644 215.482 103.904 200.315 117.269 187.706C142.546 163.856 180.552 149.422 193.06 114.535C192.487 163.015 151.163 199.865 113.421 228.374C96.4928 241.162 82.107 258.329 73.3278 276.326C74.7937 262.932 75.4598 251.789 74.2654 238.715C70.3908 196.367 67.8763 148.891 96.9007 116.714ZM242.775 35.21C216.103 58.6144 198.304 88.7382 177.814 115.818C160.773 138.342 137.387 152.297 117.277 171.197C128.135 148.676 130.137 122.869 143.924 101.082C167.496 63.8251 206.457 49.3631 242.775 35.21Z" fill="black"/>
<path fill-rule="evenodd" clip-rule="evenodd" d="M374.946 849.952C380.863 856.712 388.517 863.03 395.733 868.856C442.359 820.671 497.1 767.267 549.129 767.267C581.387 767.267 604.621 791.823 631.726 809.149C669.339 833.191 720.939 846.732 765.156 829.085C788.939 820.056 811.981 806.755 829.202 785.147C794.4 809.149 742.284 812.375 702.996 796.074C659.568 778.058 615.367 754.136 565.877 754.136C492.923 754.136 423.587 803.483 374.946 849.952ZM914.144 698.403C865.842 753.386 787.061 735.698 722.583 749.428C713.608 751.339 705.176 754.32 695.542 752.841C703.208 747.981 713.369 747.433 722.226 744.097C772.256 725.249 780.057 671.706 807.436 634.854C772.465 658.102 743.491 689.932 710.789 719.845C688.028 740.662 659.671 749.568 630.263 755.552C637.33 758.135 646.574 757.526 654.186 759.414C707.012 772.518 765.58 793.206 821.791 774.655C858.066 762.685 895.814 734.336 914.146 698.402L914.144 698.403ZM991.569 571.15C961.441 639.362 885.744 644.705 835.412 686.55C825.842 694.509 816.356 701.829 805.842 706.733L805.299 706.184C816.913 695.674 829.483 683.151 838.477 670.081C867.245 628.284 857.673 571.153 879.852 526.84C859.699 550.967 840.799 575.815 829.195 603.439C810.523 647.895 804.179 698.615 762.299 732.397C807.626 717.442 859.914 720.42 900.731 693.685C943.636 665.583 983.398 621.23 991.569 571.149V571.15ZM1023.84 433.146C1019.49 493.244 955.503 525.346 924.994 574.748C918.479 585.299 911.772 596.19 902.31 604.711C903.785 598.311 909.049 592.642 911.948 586.366C921.733 565.169 926.162 540.638 923.72 515.416C920.747 484.728 907.953 456.229 912.864 423.945C886.567 480.705 895.05 551.664 879.852 613.035C876.49 626.612 868.221 638.493 863.127 651.351C888.965 631.696 922.825 614.25 951.185 591.895C978.613 570.276 1002.42 544.938 1014.8 511.968C1023.71 488.211 1026.03 459.872 1023.84 433.143V433.146ZM1022.06 322.416C1018.97 309.004 1016.61 295.121 1010.77 282.818C1021.82 339.509 984.105 380.461 971.23 429.509C966.377 447.992 964.717 467.632 957.242 484.879C956.544 485.252 955.94 484.527 955.509 483.97C974.118 431.771 946.84 383.528 920.266 342.384C913.281 331.569 909.919 318.975 906.658 306.244C903.785 329.874 908.814 357.225 913.187 381.612C918.815 413.005 929.544 442.428 938.073 472.716C943.688 491.639 942.208 512.994 939.327 532.818L942.035 530.658C961.818 494.136 1000.85 465.603 1012.64 425.743C1022.06 393.884 1028.58 357.078 1022.06 322.419V322.416ZM1001.19 261.432C1001.19 218.53 984.485 183.534 959.427 151.583C958.698 151.22 958.182 150.491 957.242 150.663C984.828 192.622 959.719 245.588 963.265 293.179L966.904 342.026C966.364 342.382 966.364 343.847 965.081 343.286C963.452 337.84 962.958 332.048 962.009 326.424C955.369 287.044 920.789 259.637 891.464 231.835C884.526 225.259 879.448 217.483 876.178 209.127C878.615 228.743 884.088 248.852 892.893 266.675C915.466 312.372 959.062 349.26 966.904 401.192C970.705 351.422 1001.19 314.424 1001.19 261.432ZM928.479 116.714C914.607 101.336 899.062 89.3547 880.554 84.6159C916.494 109.329 914.544 153.493 925.545 190.421C929.568 203.925 935.482 216.576 938.625 230.531L937.715 231.257C931.736 215.482 921.476 200.315 908.112 187.705C882.833 163.856 844.828 149.422 832.32 114.535C832.893 163.015 874.217 199.864 911.959 228.374C928.888 241.161 943.273 258.329 952.053 276.326C950.586 262.931 949.921 251.789 951.115 238.715C954.989 196.367 957.503 148.89 928.479 116.714ZM782.606 35.21C809.278 58.614 827.077 88.7378 847.567 115.818C864.607 138.341 887.992 152.296 908.103 171.197C897.246 148.675 895.243 122.869 881.457 101.081C857.883 63.825 818.922 49.3626 782.606 35.21Z" fill="black"/>
<path fill-rule="evenodd" clip-rule="evenodd" d="M512.636 428.618C514.226 428.618 515.802 428.569 517.376 428.438V719.204H507.88V428.438C509.454 428.553 511.046 428.618 512.636 428.618Z" fill="black"/>
<path fill-rule="evenodd" clip-rule="evenodd" d="M768.553 611.202L761.799 617.958L664.064 520.225L657.325 513.469L563.052 419.212L556.296 412.439C558.712 410.352 560.963 408.099 563.052 405.701L768.553 611.202Z" fill="black"/>
<path fill-rule="evenodd" clip-rule="evenodd" d="M869.8 357.285V366.781H579.167C579.298 365.205 579.346 363.632 579.346 362.041C579.346 360.451 579.282 358.86 579.167 357.285H869.8Z" fill="black"/>
<path fill-rule="evenodd" clip-rule="evenodd" d="M768.553 112.847L563.052 318.364C560.963 315.965 558.712 313.713 556.296 311.624L761.799 106.108L768.553 112.847Z" fill="black"/>
<path fill-rule="evenodd" clip-rule="evenodd" d="M517.376 4.86124V295.494C515.802 295.363 514.226 295.314 512.636 295.314C511.046 295.314 509.454 295.379 507.88 295.494V4.86124H517.376Z" fill="black"/>
<path fill-rule="evenodd" clip-rule="evenodd" d="M469.093 311.624C466.677 313.713 464.423 315.965 462.334 318.364L256.703 112.847L263.463 106.108L469.093 311.624Z" fill="black"/>
<path fill-rule="evenodd" clip-rule="evenodd" d="M446.223 357.285C446.108 358.86 446.044 360.451 446.044 362.041C446.044 363.632 446.092 365.205 446.223 366.781H155.457V357.285H446.223Z" fill="black"/>
<path fill-rule="evenodd" clip-rule="evenodd" d="M469.093 412.441L462.334 419.214L368.001 513.469L361.257 520.225L317.497 563.959L310.736 570.698L263.463 617.958L256.703 611.202L462.334 405.701C464.423 408.101 466.677 410.352 469.093 412.441Z" fill="black"/>
<path fill-rule="evenodd" clip-rule="evenodd" d="M512.695 0.0463867C609.439 0.0463867 700.356 37.6761 768.66 106.013C836.992 174.351 874.615 265.266 874.615 362.041C874.615 458.8 836.992 549.731 768.66 618.053C700.356 686.39 609.439 724.019 512.695 724.019C415.935 724.019 325.036 686.39 256.709 618.053C188.4 549.731 150.776 458.8 150.776 362.041C150.776 265.266 188.4 174.351 256.709 106.013C325.036 37.6761 415.935 0.0463867 512.695 0.0463867ZM758.349 614.494C760.636 612.258 762.869 610.005 765.103 607.736C825.904 545.26 863.795 460.368 865.039 366.809C865.052 365.225 865.065 363.626 865.065 362.041C865.065 360.441 865.052 358.858 865.039 357.258C863.795 263.699 825.891 178.807 765.103 116.331C762.869 114.062 760.636 111.809 758.349 109.588C695.882 48.7611 611.021 10.8705 517.461 9.62937C515.877 9.61332 514.279 9.59727 512.695 9.59727C511.096 9.59727 509.512 9.61332 507.912 9.62937C414.368 10.8705 329.491 48.7771 267.041 109.588C264.755 111.809 262.503 114.062 260.284 116.331C199.482 178.807 161.581 263.699 160.341 357.258C160.325 358.858 160.309 360.441 160.309 362.041C160.309 363.626 160.325 365.225 160.341 366.809C161.581 460.368 199.466 545.26 260.284 607.736C262.503 610.005 264.755 612.258 267.041 614.494C329.491 675.289 414.368 713.196 507.912 714.438C509.512 714.454 511.096 714.47 512.695 714.47C514.279 714.47 515.877 714.454 517.461 714.438C611.021 713.196 695.882 675.305 758.349 614.494Z" fill="black"/>
<path fill-rule="evenodd" clip-rule="evenodd" d="M721.35 160.065C770.961 211.301 801.923 280.704 803.167 357.191C803.18 358.791 803.194 360.374 803.194 361.974C803.194 363.558 803.18 365.156 803.167 366.741C801.923 443.244 770.974 512.631 721.35 563.866C719.147 566.168 716.895 568.421 714.593 570.625C663.356 620.245 593.95 651.191 517.462 652.432C515.878 652.448 514.279 652.465 512.695 652.465C511.095 652.465 509.512 652.448 507.912 652.432C431.424 651.191 362.018 620.229 310.78 570.625C308.495 568.421 306.243 566.168 304.04 563.866C254.417 512.631 223.47 443.244 222.229 366.741C222.213 365.156 222.196 363.558 222.196 361.974C222.196 360.374 222.213 358.791 222.229 357.191C223.47 280.704 254.434 211.301 304.04 160.065C306.243 157.765 308.495 155.511 310.78 153.308C362.018 103.704 431.424 72.7406 507.912 71.4994C509.512 71.4834 511.095 71.4673 512.695 71.4673C514.279 71.4673 515.878 71.4834 517.462 71.4994C593.95 72.7406 663.372 103.704 714.61 153.308C716.911 155.529 719.147 157.781 721.35 160.065ZM707.853 563.883C710.155 561.664 712.408 559.411 714.61 557.126C762.481 507.604 792.374 440.6 793.604 366.741C793.631 365.157 793.644 363.574 793.644 361.975C793.644 360.374 793.631 358.775 793.604 357.193C792.374 283.349 762.481 216.313 714.61 166.808C712.408 164.522 710.155 162.27 707.853 160.067C658.346 112.176 591.341 82.2901 517.465 81.065C515.88 81.0329 514.297 81.0169 512.698 81.0169C511.097 81.0169 509.499 81.0329 507.915 81.065C434.054 82.2901 367.049 112.176 317.541 160.067C315.239 162.27 312.987 164.522 310.782 166.808C262.908 216.313 233.021 283.349 231.797 357.193C231.763 358.775 231.747 360.374 231.747 361.975C231.747 363.574 231.763 365.157 231.797 366.741C233.021 440.6 262.908 507.604 310.782 557.126C312.987 559.411 315.239 561.664 317.541 563.883C367.049 611.741 434.054 641.644 507.915 642.868C509.499 642.9 511.097 642.916 512.698 642.916C514.297 642.916 515.88 642.9 517.465 642.868C591.341 641.644 658.346 611.757 707.853 563.883Z" fill="black"/>
<path fill-rule="evenodd" clip-rule="evenodd" d="M670.868 210.646C707.547 248.93 730.498 300.462 731.723 357.251C731.754 358.834 731.773 360.433 731.773 362.033C731.773 363.631 731.754 365.215 731.723 366.797C730.498 423.586 707.547 475.119 670.868 513.402C668.665 515.704 666.413 517.957 664.11 520.158C625.799 556.842 574.265 579.77 517.46 580.994C515.877 581.026 514.293 581.044 512.695 581.044C511.094 581.044 509.494 581.026 507.912 580.994C451.122 579.77 399.573 556.826 361.279 520.158C358.977 517.957 356.723 515.704 354.52 513.402C317.841 475.119 294.891 423.586 293.667 366.797C293.635 365.215 293.617 363.631 293.617 362.033C293.617 360.433 293.635 358.834 293.667 357.251C294.891 300.462 317.841 248.93 354.52 210.646C356.723 208.345 358.977 206.093 361.279 203.906C399.573 167.238 451.122 144.294 507.912 143.07C509.494 143.038 511.094 143.022 512.695 143.022C514.293 143.022 515.877 143.038 517.46 143.07C574.265 144.294 625.799 167.222 664.11 203.906C666.413 206.093 668.665 208.345 670.868 210.646ZM657.369 513.402C659.67 511.2 661.922 508.947 664.11 506.647C699.074 470.078 720.95 420.943 722.172 366.797C722.204 365.215 722.22 363.631 722.22 362.033C722.22 360.433 722.204 358.85 722.172 357.251C720.95 303.107 699.074 253.971 664.11 217.401C661.922 215.1 659.67 212.849 657.369 210.646C620.803 175.691 571.637 153.825 517.46 152.6C515.877 152.568 514.293 152.551 512.694 152.551C511.093 152.551 509.51 152.568 507.911 152.6C453.75 153.825 404.583 175.707 368.019 210.646C365.718 212.849 363.465 215.1 361.277 217.401C326.313 253.971 304.44 303.107 303.215 357.251C303.181 358.85 303.165 360.433 303.165 362.033C303.165 363.631 303.181 365.215 303.215 366.797C304.44 420.943 326.313 470.078 361.277 506.647C363.465 508.947 365.718 511.2 368.019 513.402C404.583 548.341 453.75 570.223 507.911 571.447C509.51 571.481 511.093 571.497 512.694 571.497C514.293 571.497 515.877 571.481 517.46 571.447C571.637 570.223 620.803 548.357 657.369 513.402Z" fill="black"/>
<path fill-rule="evenodd" clip-rule="evenodd" d="M620.372 261.146C644.125 286.472 659.096 320.153 660.27 357.259C660.319 358.843 660.352 360.443 660.352 362.041C660.352 363.64 660.319 365.223 660.27 366.806C659.096 403.897 644.125 437.609 620.372 462.92C618.185 465.253 615.931 467.504 613.614 469.675C588.278 493.435 554.584 508.365 517.461 509.541C515.878 509.591 514.294 509.623 512.695 509.623C511.095 509.623 509.496 509.591 507.912 509.541C470.807 508.365 437.11 493.435 411.776 469.675C409.457 467.504 407.206 465.253 405.018 462.92C381.264 437.609 366.295 403.897 365.12 366.806C365.07 365.223 365.038 363.64 365.038 362.041C365.038 360.443 365.07 358.843 365.12 357.259C366.295 320.153 381.264 286.472 405.018 261.146C407.188 258.83 409.441 256.577 411.76 254.39C437.094 230.646 470.789 215.7 507.912 214.525C509.496 214.476 511.095 214.443 512.695 214.443C514.294 214.443 515.878 214.476 517.461 214.525C554.584 215.7 588.294 230.646 613.63 254.39C615.948 256.577 618.201 258.83 620.372 261.146ZM606.854 462.92C609.189 460.75 611.459 458.498 613.612 456.165C635.669 432.568 649.543 401.27 650.703 366.806C650.767 365.223 650.801 363.64 650.801 362.041C650.801 360.443 650.767 358.843 650.703 357.259C649.543 322.781 635.651 291.499 613.612 267.903C611.443 265.569 609.189 263.317 606.854 261.163C583.265 239.117 551.939 225.247 517.46 224.087C515.878 224.023 514.293 223.99 512.695 223.99C511.094 223.99 509.494 224.023 507.911 224.087C473.433 225.247 442.122 239.133 418.533 261.163C416.199 263.317 413.947 265.569 411.775 267.903C389.737 291.499 375.843 322.781 374.685 357.259C374.62 358.843 374.588 360.443 374.588 362.041C374.588 363.64 374.62 365.223 374.685 366.806C375.843 401.27 389.721 432.568 411.775 456.165C413.931 458.498 416.199 460.75 418.533 462.92C442.122 484.95 473.433 498.82 507.911 499.98C509.494 500.045 511.094 500.077 512.695 500.077C514.293 500.077 515.878 500.045 517.46 499.98C551.939 498.82 583.265 484.95 606.854 462.92Z" fill="black"/>
<path fill-rule="evenodd" clip-rule="evenodd" d="M569.844 311.676C580.719 323.994 587.69 339.851 588.768 357.261C588.883 358.843 588.931 360.441 588.931 362.041C588.931 363.64 588.883 365.223 588.784 366.805C587.707 384.231 580.735 400.072 569.844 412.39C567.737 414.789 565.468 417.04 563.083 419.145C550.74 430.028 534.885 436.978 517.463 438.055C515.88 438.154 514.296 438.202 512.695 438.202C511.096 438.202 509.495 438.154 507.912 438.039C490.489 436.978 474.635 430.028 462.307 419.145C459.923 417.04 457.653 414.789 455.546 412.39C444.657 400.072 437.685 384.231 436.607 366.805C436.509 365.223 436.459 363.64 436.459 362.041C436.459 360.441 436.509 358.843 436.623 357.261C437.701 339.851 444.673 323.994 455.546 311.676C457.653 309.276 459.923 307.025 462.307 304.936C474.635 294.053 490.489 287.104 507.912 286.027C509.495 285.912 511.096 285.864 512.695 285.864C514.296 285.864 515.88 285.912 517.463 286.011C534.885 287.088 550.74 294.053 563.083 304.936C565.468 307.025 567.737 309.276 569.844 311.676ZM556.326 412.375C558.743 410.287 560.995 408.035 563.086 405.637C572.262 395.047 578.156 381.588 579.201 366.805C579.332 365.223 579.381 363.64 579.381 362.042C579.381 360.443 579.316 358.843 579.201 357.261C578.156 342.479 572.262 329.003 563.086 318.43C560.995 316.032 558.743 313.78 556.326 311.692C545.745 302.522 532.274 296.632 517.466 295.589C515.881 295.458 514.297 295.409 512.698 295.409C511.098 295.409 509.497 295.474 507.914 295.589C493.12 296.632 479.633 302.522 469.068 311.692C466.653 313.78 464.399 316.032 462.309 318.43C453.132 329.003 447.238 342.479 446.193 357.261C446.078 358.843 446.014 360.443 446.014 362.042C446.014 363.64 446.062 365.223 446.193 366.805C447.238 381.588 453.132 395.047 462.309 405.637C464.399 408.035 466.653 410.287 469.068 412.375C479.633 421.545 493.12 427.434 507.914 428.478C509.497 428.593 511.098 428.658 512.698 428.658C514.297 428.658 515.881 428.609 517.466 428.478C532.274 427.434 545.745 421.545 556.326 412.375Z" fill="black"/>
<path fill-rule="evenodd" clip-rule="evenodd" d="M466.827 340.664C466.827 340.664 465.705 335.814 464.684 335.661C464.097 335.574 462.262 335.508 461.798 336.618C461.219 337.998 462.099 340.974 462.329 343.418C462.742 347.83 464.612 353.339 472.298 354.856C479.983 356.371 480.605 359.611 479.153 363.606C477.977 366.837 479.11 368.491 479.589 369.008C479.687 369.112 479.665 369.252 479.543 369.327C478.796 369.785 476.533 371.264 476.59 372.357C476.66 373.665 476.59 380.625 477.351 382.139C478.114 383.656 478.943 384.414 480.675 382.691C482.407 380.969 484.346 382.805 484.69 383.678C485.036 384.55 481.437 387.928 482.13 388.824C482.822 389.72 485.246 391.372 485.246 393.026C485.246 394.679 485.729 395.368 486.699 396.058C487.67 396.745 488.844 398.677 489.746 399.019C490.644 399.364 494.384 403.43 496.461 403.223C498.54 403.016 499.993 404.324 501.17 404.531C502.347 404.738 503.387 401.429 503.872 401.429C504.355 401.429 506.986 405.359 508.577 405.083C510.171 404.808 508.37 397.16 507.887 396.058C507.402 394.956 510.032 393.715 511.694 394.817C513.356 395.919 512.871 390.604 513.636 390.323C514.398 390.043 517.695 393.323 518.096 393.241C518.497 393.162 517.855 388.245 518.417 388.283C518.98 388.325 526.261 391.846 526.601 395.03C526.942 398.21 525.376 403.222 526.601 404.035C527.826 404.847 530.957 405.998 529.867 408.232C529.363 409.268 528.756 409.981 527.959 411.962C527.561 412.945 528.737 414.003 528.639 414.305C528.389 415.072 527.066 415.494 526.637 416.282C525.928 417.582 526.783 418.655 527.555 419.541C530.209 422.588 542.958 419.925 545.952 419.722C548.947 419.519 550.078 421.585 552.022 421.327C553.966 421.069 573.285 406.748 575.1 398.492C576.915 390.236 578.469 379.785 577.564 371.656C576.654 363.529 574.58 362.239 572.246 361.206C570.458 360.416 566.232 358.336 564.355 357.408C564.026 357.245 564.077 356.766 564.433 356.674C565.547 356.386 567.433 355.955 569.266 355.788C571.223 355.612 572.916 354.847 573.784 354.388C574.135 354.203 574.254 353.777 574.056 353.436C573.029 351.675 570.355 345.536 569.927 342.986C569.672 341.448 570.154 340.498 570.683 339.543C571.247 338.525 570.705 337.253 569.582 336.957C566.368 336.109 560.685 334.514 559.671 333.598C558.246 332.308 552.93 333.34 551.891 332.436C550.855 331.534 549.817 329.469 549.817 329.469C549.817 329.469 546.446 330.888 544.633 330.245C542.816 329.598 535.038 326.889 533.612 325.47C532.185 324.051 529.979 323.665 528.165 323.923C526.351 324.181 523.11 326.373 521.813 326.373C520.517 326.373 516.109 324.696 514.683 324.826C513.254 324.954 510.274 327.662 510.143 328.954C510.014 330.245 508.07 334.76 507.681 334.889C507.292 335.017 508.458 337.599 506.903 339.146C505.346 340.693 503.532 340.952 502.884 344.436C502.235 347.917 500.42 347.531 502.235 349.597C504.05 351.659 504.05 351.273 505.605 351.531C507.162 351.789 508.458 353.466 506.773 355.015C505.088 356.561 503.663 357.723 503.92 359.659C504.18 361.594 504.958 364.692 503.92 364.561C502.884 364.432 500.045 362.91 497.606 365.628C495.166 368.347 493.412 368.929 490.483 364.657C487.556 360.384 488.141 362.423 487.556 359.026C486.97 355.628 486.58 355.24 483.652 352.521C480.724 349.802 477.894 349.412 474.382 349.704C470.871 349.994 467.942 349.899 468.528 346.889C469.114 343.878 468.528 344.168 468.041 343.976C467.553 343.782 465.394 343.752 465.452 342.74C465.511 341.729 466.927 341.194 466.827 340.664Z" fill="black"/>
<path fill-rule="evenodd" clip-rule="evenodd" d="M514.434 473.448C514.434 473.448 524.79 471.613 527.095 472.346C529.401 473.082 530.483 474.182 530.483 474.182C530.483 474.182 527.025 477.045 525.943 479.099C524.863 481.155 526.252 483.575 522.457 486.364C518.665 489.154 517.007 489.961 515.855 489.961C514.701 489.961 512.683 504.344 512.395 504.273C512.106 504.199 509.081 500.163 506.27 499.355C504.211 498.762 501.495 497.622 500.19 497.052C499.824 496.891 499.739 496.414 500.03 496.138C501.321 494.901 504.269 492.031 504.828 491.063C505.55 489.815 508.791 489.372 509.657 486.879C510.521 484.383 514.434 473.448 514.434 473.448Z" fill="black"/>
<path fill-rule="evenodd" clip-rule="evenodd" d="M636.322 432.393C636.322 432.393 637.579 431.001 638.554 434.482C639.529 437.962 641.343 440.887 642.039 442.281C642.738 443.673 640.227 442.698 640.504 446.877C640.785 451.055 643.155 455.372 641.202 457.741C639.249 460.108 635.765 460.666 637.438 462.893C639.112 465.121 638.955 471.11 639.243 472.224C639.529 473.337 640.087 480.164 638.274 480.719C636.462 481.278 634.928 482.669 636.322 485.175C637.717 487.683 635.208 490.746 635.208 490.746C635.208 490.746 635.626 492.836 635.208 495.9C634.789 498.963 632.558 499.799 630.607 501.052C628.654 502.307 626.424 501.75 623.774 501.75C621.125 501.75 620.568 503.248 618.615 501.872C616.662 500.496 620.148 499.104 619.313 498.685C618.476 498.268 615.269 498.128 614.712 500.218C614.154 502.307 606.765 504.116 607.043 507.32C607.323 510.521 610.669 516.093 609.83 516.65C608.996 517.209 601.188 517.626 600.071 517.487C598.955 517.348 596.726 516.512 595.89 515.676C595.051 514.839 592.962 511.499 587.245 513.725C581.528 515.956 581.388 512.751 579.715 511.359C578.043 509.966 572.466 510.107 569.816 510.107C567.168 510.107 560.475 501.332 559.778 498.685C559.08 496.039 559.778 494.228 561.311 491.862C562.844 489.494 559.497 478.77 561.589 476.542C563.681 474.314 568.282 470.97 570.653 471.248C573.023 471.528 573.303 468.185 575.254 468.185C577.204 468.185 582.225 471.527 585.431 470.413C588.64 469.299 590.869 466.931 593.937 466.791C597.005 466.654 601.188 466.931 603.837 463.033C606.485 459.132 606.485 449.105 607.601 446.459C608.716 443.812 610.807 443.256 610.25 440.75C609.693 438.242 611.225 435.037 612.341 433.368C613.456 431.696 613.456 428.593 615.967 429.012C618.476 429.429 620.568 430.443 621.683 432.671C622.799 434.9 627.259 434.762 636.322 432.393Z" fill="black"/>
<path fill-rule="evenodd" clip-rule="evenodd" d="M699.002 471.437C699.002 471.437 695.945 472.88 695.945 474.863C695.945 476.847 693.158 476.575 693.158 476.575C693.158 476.575 691.718 472.608 689.74 472.608C687.76 472.608 685.961 475.314 684.883 475.763C683.802 476.214 682.543 473.51 681.465 473.059C680.385 472.608 682.993 470.625 682.182 469.905C681.373 469.183 681.013 468.643 679.305 467.289C677.596 465.94 674.718 464.407 674.089 463.053C674.025 462.92 673.965 462.759 673.909 462.584C673.283 460.669 674.326 458.503 676.235 457.873C676.605 457.749 676.907 457.563 677.054 457.285C677.686 456.112 678.154 453.901 681.74 453.774C685.329 453.652 681.495 451.56 681.246 448.329C680.997 445.096 680.997 442.492 683.225 441.499C685.452 440.508 687.927 441.623 689.165 440.881C690.401 440.137 694.237 442.492 694.732 445.964C695.228 449.435 696.341 450.799 696.216 451.42C696.092 452.039 697.33 453.901 696.834 456.504C696.341 459.108 698.696 463.323 699.002 464.066C699.309 464.811 699.002 471.437 699.002 471.437Z" fill="black"/>
<path fill-rule="evenodd" clip-rule="evenodd" d="M311.351 297.672C311.351 297.672 309.258 294.717 306.548 293.978C303.838 293.24 299.525 291.639 300.758 289.3C301.99 286.959 301.004 284.498 296.569 284.743C292.136 284.989 288.07 284.251 289.919 281.418C291.764 278.587 290.779 279.571 290.779 279.571C290.779 279.571 289.62 276.001 289.459 274.77C289.302 273.538 290.112 270.459 289.459 269.104C288.808 267.749 287.331 266.394 287.331 266.394C287.331 266.394 291.888 264.424 293.366 260.484C294.845 256.544 292.875 253.342 293.737 251.372C294.598 249.402 297.432 249.28 298.787 243.491C300.142 237.704 304.085 236.718 305.561 232.778C307.04 228.837 310.859 229.944 311.351 228.222C311.845 226.498 316.771 226.622 317.758 225.02C318.743 223.42 324.781 223.42 325.394 221.079C326.011 218.74 327.12 215.54 326.382 214.923C325.642 214.306 328.598 214.923 330.077 212.582C331.555 210.242 336.236 202.608 338.577 203.349C340.916 204.087 348.061 207.41 350.033 205.934C350.033 205.934 359.417 197.533 365.844 194.854C372.269 192.178 373.34 190.752 375.304 188.075C377.266 185.398 381.729 187.541 385.121 188.075C388.511 188.611 394.222 188.789 396.009 192.894C397.792 196.997 390.652 197.533 390.832 202.35C391.011 207.167 396.403 206.81 396.295 210.378C396.187 213.947 396.763 214.482 396.296 218.586C395.83 222.688 396.363 223.404 394.222 226.974C392.081 230.541 390.652 229.65 390.832 232.861C391.011 236.071 390.297 243.03 394.044 250.88C397 257.069 399.51 261.373 400.44 262.918C400.633 263.236 400.473 263.647 400.115 263.749C398.252 264.273 393.24 265.719 391.368 266.583C389.046 267.653 404.398 273.898 405.288 277.11C406.182 280.32 400.65 283.353 400.65 283.353C400.65 283.353 406.913 286.923 405.387 294.061C403.863 301.197 410.464 296.201 412.786 297.093C415.107 297.985 416.177 301.732 419.746 301.554C423.316 301.376 424.209 301.019 425.103 302.624C425.994 304.229 425.459 305.3 422.424 304.944C419.392 304.587 417.427 307.263 414.927 307.263C412.429 307.263 410.464 304.229 407.431 304.409C404.398 304.587 403.683 306.727 401.185 305.479C398.687 304.229 396.543 301.019 389.582 298.877C382.621 296.737 381.016 296.379 375.304 292.096C369.593 287.815 369.056 285.495 364.058 283.353C359.061 281.213 352.457 277.466 350.135 278.18C347.816 278.893 346.387 284.426 345.138 284.783C343.89 285.139 340.14 285.318 338.534 287.458C336.927 289.601 336.037 292.096 333.537 292.989C331.039 293.882 327.469 293.882 324.791 296.201C322.114 298.52 322.471 300.84 321.042 301.019C319.615 301.197 317.828 299.236 313.546 301.197C309.262 303.16 311.351 297.672 311.351 297.672Z" fill="black"/>
<path fill-rule="evenodd" clip-rule="evenodd" d="M234.825 196.069C234.825 196.069 234.917 208.649 231.199 213.495C227.482 218.338 227.275 215.601 223.765 227.606C220.252 239.61 216.121 249.931 215.09 256.251C214.056 262.569 214.677 269.519 213.852 273.52C213.024 277.522 211.372 283.842 213.852 282.788C216.329 281.734 220.252 272.889 222.525 270.994C224.796 269.099 227.069 262.569 226.242 260.04C225.416 257.513 224.796 254.774 229.134 251.615C233.471 248.457 239.254 244.993 241.525 239.879C243.796 234.767 249.787 235.398 250.408 229.711C251.025 224.025 250.408 220.655 253.092 220.445C255.776 220.234 256.807 224.235 262.798 224.025C268.787 223.813 275.397 223.183 274.157 225.077C272.917 226.974 265.275 229.29 261.973 231.395C258.668 233.503 252.058 255.83 252.058 255.83C252.058 255.83 245.325 259.619 243.426 260.674C241.525 261.727 245.657 265.938 245.657 265.938C245.657 265.938 243.384 274.152 244.623 277.312C245.863 280.471 248.754 284.473 247.101 285.525C245.449 286.578 243.177 290.581 245.449 291.634C247.721 292.686 248.134 294.581 247.31 295.424C246.482 296.265 245.863 298.163 247.515 299.426C249.168 300.69 249.168 302.375 247.928 302.796C246.689 303.219 244.83 305.324 246.689 307.219C248.547 309.114 247.515 313.747 245.657 315.011C243.796 316.277 244.212 320.488 246.275 321.541C248.341 322.593 253.71 324.279 254.124 327.86C254.538 331.441 252.265 340.287 255.57 339.654C258.874 339.023 261.973 338.813 263.417 338.18C264.863 337.548 267.548 342.392 268.58 343.235C269.615 344.077 260.614 349.843 257.459 353.572C254.254 357.358 254.725 371.911 255.343 376.124C255.963 380.336 253.917 386.411 254.538 392.73C255.157 399.049 257.635 407.685 263.211 407.052C268.787 406.421 267.343 406.488 272.713 407.086C278.081 407.685 279.528 405.578 278.702 402.419C277.875 399.259 277.462 392.73 277.668 390.835C277.875 388.94 278.494 386.411 276.843 382.832C275.19 379.25 269.615 372.722 270.027 370.827C270.44 368.931 282.005 365.56 282.005 364.086C282.005 362.612 280.352 361.559 282.005 359.874C283.658 358.189 283.962 351.344 285.614 351.344C287.264 351.344 288.402 353.94 291.5 353.94C294.598 353.94 301.435 345.971 301.435 345.971C301.435 345.971 288.408 368.299 288.202 370.615C287.994 372.933 286.961 384.937 285.31 387.886C283.658 390.835 281.386 395.468 281.799 397.996C282.213 400.523 285.682 400.734 286.632 403.05C287.581 405.367 285.682 406.843 286.632 408.739C287.581 410.633 284.07 411.476 285.31 416.109C286.547 420.744 285.31 431.064 285.31 431.064C285.31 431.064 276.843 438.013 276.635 443.279C276.428 448.544 278.908 456.549 279.321 460.128C279.733 463.709 272.713 468.342 275.397 469.186C278.081 470.027 285.516 474.03 285.516 475.714C285.516 477.4 280.352 475.292 278.288 481.191C276.223 487.088 275.81 491.089 278.494 493.406C281.179 495.722 283.863 500.988 285.31 504.57C286.756 508.149 280.765 505.624 282.005 509.414C283.245 513.206 284.897 518.469 280.765 519.734C276.635 520.998 275.603 523.103 273.538 525.21C271.473 527.316 268.993 527.949 271.886 531.318C274.775 534.688 267.549 538.9 272.917 547.747C278.288 556.592 280.973 553.434 281.592 555.961C282.213 558.487 277.462 557.435 282.213 565.649C286.961 573.863 291.092 587.763 301.211 594.503C311.333 601.242 321.659 606.509 325.377 609.879C329.094 613.249 328.061 614.512 334.256 618.516C340.451 622.516 343.552 623.149 348.3 623.991C353.052 624.832 363.17 629.677 368.334 630.731C373.498 631.785 373.498 631.361 377.008 631.995C379.031 632.358 380.093 633.839 380.648 634.529C381.464 635.539 382.447 635.814 383.464 636.608L384.03 637.048C384.03 637.048 373.702 634.942 376.802 637.048C379.9 639.155 387.542 642.524 394.15 642.313C400.761 642.103 402.411 640.629 404.477 643.788C406.542 646.949 408.4 653.688 408.4 653.688C408.4 653.688 396.217 650.529 394.15 652.214C392.086 653.898 394.976 656.426 400.14 656.215C405.303 656.005 408.608 658.321 411.912 658.111C415.217 657.9 416.043 660.007 415.631 662.323C415.217 664.641 413.358 663.798 410.467 665.061C407.576 666.325 407.782 663.798 404.27 666.325C400.761 668.853 394.77 664.008 389.815 662.533C384.857 661.059 376.595 656.635 366.683 652.002C356.77 647.369 325.377 626.939 318.974 621.883C312.57 616.83 276.015 582.287 267.756 572.389C259.493 562.49 255.983 554.276 253.092 555.118C250.2 555.961 246.689 557.225 244.83 554.487C242.97 551.748 238.428 546.271 238.015 544.376C237.601 542.482 235.742 537.426 233.677 536.372C231.612 535.321 235.742 533.636 232.231 530.475C228.722 527.316 211.785 514.468 210.959 507.729C210.132 500.988 205.796 488.14 204.97 481.822C204.143 475.504 201.459 468.764 197.121 463.709C192.784 458.654 185.762 454.02 187.207 436.539C188.654 419.059 178.327 406.843 178.74 401.788C179.154 396.732 186.175 393.363 185.762 385.991C185.349 378.619 179.566 360.295 180.186 354.609C180.806 348.922 182.251 347.658 181.632 344.5C181.011 341.339 183.491 342.182 183.903 334.389C184.316 326.595 193.197 317.373 191.959 308.823C190.719 300.268 190.719 292.898 194.024 291.212C197.329 289.526 198.566 289.526 196.708 287.421C194.849 285.315 193.404 281.525 197.535 276.257C201.666 270.994 203.111 272.678 202.079 264.674C201.044 256.671 200.839 256.461 203.937 254.774C207.035 253.09 209.101 250.426 208.688 247.758C208.275 245.087 211.993 243.613 211.993 240.875C211.993 238.136 212.406 230.554 209.926 228.87C207.448 227.185 207.654 225.288 210.338 220.024C213.024 214.757 212.199 210.334 211.993 207.175C211.785 204.016 212.612 204.016 215.502 204.647C218.394 205.281 217.775 214.336 222.525 212.229C227.275 210.124 229.027 202.515 228.818 199.989C228.613 197.462 234.874 194.377 234.825 196.069Z" fill="black"/>
<path fill-rule="evenodd" clip-rule="evenodd" d="M324.074 628.973C324.074 628.973 326.112 628.448 326.895 629.184C327.677 629.921 329.455 632.553 328.251 632.395C327.052 632.237 321.254 629.5 324.074 628.973Z" fill="black"/>
<path fill-rule="evenodd" clip-rule="evenodd" d="M720.003 566.866C720.003 566.866 708.831 575.426 708.536 578.666C708.243 581.902 702.059 583.226 701.323 586.464C700.586 589.701 698.085 589.997 698.38 591.467C698.673 592.939 699.656 593.528 698.356 593.82C697.053 594.116 694.698 596.323 694.698 600.149C694.698 603.976 688.662 605.3 690.724 607.801C692.782 610.305 694.992 611.922 693.521 612.806C692.048 613.689 690.574 615.601 688.955 616.043C687.336 616.484 682.184 613.394 682.184 613.394C682.184 613.394 685.101 612.716 684.244 609.715C683.36 606.624 681.447 605.3 682.184 602.65C682.964 599.836 689.25 599.118 691.017 594.263C692.782 589.407 698.821 579.694 702.059 576.605C705.3 573.515 720.003 566.866 720.003 566.866Z" fill="black"/>
<path fill-rule="evenodd" clip-rule="evenodd" d="M623.436 255.737C623.436 255.737 624.487 259.813 628.807 258.414C633.127 257.017 632.193 255.97 636.165 256.668C640.134 257.366 640.834 258.998 639.201 259.462C637.565 259.928 636.981 261.44 637.449 262.72C637.917 264 641.186 266.561 637.68 266.794C634.18 267.027 629.742 267.376 628.224 267.84C626.705 268.308 626.356 269.703 621.799 268.889C617.246 268.075 617.246 273.893 614.329 273.544C611.408 273.195 608.957 272.147 606.621 272.846C604.285 273.544 601.134 270.983 600.666 267.491C600.198 264 599.265 263.769 602.418 263.884C605.572 264 607.673 260.392 608.957 258.879C610.241 257.366 623.086 250.733 623.436 255.737Z" fill="black"/>
<path fill-rule="evenodd" clip-rule="evenodd" d="M717.976 449.816C718.222 446.291 718.676 441.194 720.136 437.197C721.657 430.803 727.856 423.234 729.171 419.614C729.491 418.739 723.338 418.93 723.338 418.93C716.223 419.266 716.812 422.166 713.714 424.029C710.616 425.893 704.263 430.205 699.728 431.462C696.313 432.408 695.469 431.763 693.938 430.59C693.435 430.206 692.861 429.766 692.096 429.305C689.043 427.442 687.001 427.106 687.001 427.106C687.001 427.106 698.897 425.6 701.659 418.776C704.464 411.949 705.384 408.22 709.38 406.358C713.4 404.494 715.556 402.653 715.556 402.653C715.556 402.653 709.695 414.419 714.634 413.183C716.428 412.735 718.015 412.08 719.49 411.471C722.076 410.405 724.307 409.485 726.666 410.085C730.371 411.006 741.803 412.555 741.803 412.555C741.803 412.555 739.931 410.086 741.482 404.179C742.057 401.96 743.77 399.122 745.682 395.981C748.825 390.794 752.463 384.779 752.276 379.366C751.968 370.7 751.647 355.499 747.033 346.495C742.472 337.637 738.513 338.405 730.757 339.91L730.371 339.983C725.506 340.924 725.636 343.585 725.732 345.531C725.795 346.791 725.843 347.751 724.51 347.751C722.853 347.751 721.736 347.302 720.671 346.873C719.543 346.418 718.473 345.986 716.88 346.136C713.781 346.449 710.862 344.136 711.537 341.151C712.097 338.523 714.207 338.389 719.529 339.938C721.634 340.552 720.511 338.582 719.216 336.307C718.193 334.509 717.06 332.523 717.329 331.472C717.978 329.092 726.982 322.624 734.074 315.149C736.277 312.841 738.42 311.011 740.198 309.493C744.144 306.121 746.297 304.284 743.328 302.148C738.995 299.027 738.072 294.064 741.482 290.045C744.853 286.024 744.853 274.552 742.084 267.096C739.302 259.641 724.803 228.946 721.414 224.905C718.025 220.863 713.714 213.746 713.4 208.783C713.108 203.819 710.009 194.21 708.46 194.21C706.912 194.21 705.384 196.994 704.755 201.35C704.151 205.684 705.071 212.51 711.849 219.943C718.652 227.398 721.749 242.285 721.414 245.068C721.114 247.721 712.708 243.08 708.982 241.023C708.796 240.92 708.622 240.825 708.46 240.735C705.071 238.872 687.471 228.341 684.395 224.905C681.32 221.514 669.601 212.195 664.664 212.195C659.703 212.195 657.301 226.769 648.792 228.341C643.947 229.21 639.663 228.282 636.015 227.49C633.256 226.892 630.859 226.372 628.858 226.769C624.233 227.689 623.65 238.243 620.08 241.027C619.926 241.148 619.769 241.271 619.608 241.397C616.028 244.203 610.62 248.443 602.954 247.561C595.649 246.723 591.664 249.947 586.581 254.062C586.086 254.463 585.58 254.871 585.061 255.287C579.202 259.956 577.967 261.19 573.32 261.82C572.605 261.914 571.906 262.015 571.206 262.117C567.383 262.672 563.587 263.225 557.606 262.426C550.492 261.505 538.48 255.287 538.48 255.287C538.48 255.287 541.579 250.345 540.32 241.971C539.086 233.594 539.693 227.689 537.56 221.514C535.382 215.295 531.702 212.51 531.702 212.51C531.702 212.51 545.261 207.863 544.946 195.446C544.631 183.05 532.935 180.872 532.306 174.046C532.022 170.841 533.024 169.072 533.721 167.842C534.51 166.449 534.909 165.746 532.622 164.436C528.288 161.943 524.292 161.652 513.18 160.394C507.584 159.76 500.268 160.71 492.729 161.689C485.299 162.655 477.654 163.647 471.225 163.179C458.25 162.259 418.47 152.648 429.56 127.835C440.672 103.024 458.25 104.888 458.25 104.888C458.25 104.888 454.254 98.3532 462.582 94.6243C470.912 90.9195 478.611 89.9779 484.177 88.7421C485.429 88.4639 486.728 88.0761 488.17 87.6454C493.137 86.1608 499.815 84.1653 512.237 84.4074C528.288 84.723 552.063 85.0159 554.822 90.6293C557.606 96.1972 555.114 95.8816 566.248 101.765C569.191 103.331 572.005 105.05 574.736 106.718C582.299 111.337 589.223 115.565 596.465 115.104C598.063 115.005 599.626 114.882 601.142 114.761C608.999 114.143 615.533 113.63 618.375 117.282C621.764 121.616 632.271 134.346 635.032 134.033C635.267 134.006 635.532 133.971 635.825 133.931C638.997 133.509 645.328 132.666 649.847 138.052C654.765 143.958 663.116 147.056 666.19 146.74C669.266 146.449 675.147 141.778 668.345 138.995C661.567 136.188 656.941 134.661 656.021 131.541C655.101 128.441 654.472 126.578 649.847 125.05C645.199 123.479 640.285 122.557 635.345 117.574C630.407 112.633 634.405 111.399 639.97 112.633C645.515 113.868 656.335 115.734 656.335 115.734L697.641 150.155C697.62 150.113 697.579 150.032 697.52 149.917C696.612 148.162 691.548 138.365 692.096 134.953C692.494 132.594 691.533 132.106 690.223 131.44C689.464 131.052 688.585 130.606 687.786 129.699C685.631 127.229 686.551 122.557 683.452 121.929C680.4 121.323 672.409 119.572 670.681 115.261C669.041 111.151 668.03 109.286 664.887 107.694C663.854 107.155 660.511 106.032 658.894 105.493C652.428 103.337 646.458 103.315 644.595 107.357C642.754 111.399 635.638 110.77 627.018 105.808C625.373 104.863 623.998 104.031 622.838 103.33C617.912 100.349 616.924 99.7508 615.906 103.024C614.67 107.043 611.281 106.75 609.441 103.628C607.6 100.531 606.029 101.451 605.109 97.1174C604.759 95.475 604.852 93.9663 604.935 92.6221C605.07 90.4207 605.177 88.6645 603.267 87.5076C600.169 85.6432 588.766 83.8028 586.902 80.9741C585.061 78.1881 579.202 71.3617 576.104 71.3617C575.743 71.3617 575.345 71.3497 574.925 71.3363C571.76 71.236 567.385 71.0969 569.01 76.0322C569.957 78.8756 575.841 82.432 580.832 85.4479C585.659 88.365 589.65 90.7764 587.53 91.5495C583.198 93.0983 575.184 88.7421 573.32 86.5875C571.479 84.4074 561.31 80.9741 558.526 76.6621C555.765 72.3287 548.336 65.7938 535.068 67.6569C530.713 68.2614 527.225 67.4309 524.067 66.6806C517.603 65.1425 512.525 63.9347 504.246 76.0322C504.246 76.0322 494.056 85.016 484.806 84.723C478.704 84.5157 475.286 85.6512 472.607 86.542C471.214 87.0034 470.021 87.4006 468.756 87.5076C465.442 87.7658 461.931 86.8362 456.188 85.3155C455.474 85.127 454.726 84.929 453.94 84.723C449.922 83.6678 451.348 81.913 452.835 80.0847C453.973 78.6844 455.146 77.2399 453.94 76.0322C451.178 73.2489 453.94 72.013 460.426 71.3617C463.104 71.1116 464.939 70.5405 466.672 70.0015C469.127 69.2378 471.379 68.5383 475.534 68.8927C482.628 69.4986 491.587 69.8357 493.427 66.1081C495.289 62.3806 486.648 57.4186 482.628 58.0244C479.18 58.5835 476.657 56.3633 474.832 54.7583C474.531 54.4922 474.249 54.2448 473.986 54.0281C472.96 53.152 474.423 53.5386 476.56 54.103C478.259 54.551 480.383 55.1114 482.022 55.2412C483.405 55.3589 484.443 55.1756 485.555 54.979C487.422 54.65 489.492 54.2835 493.74 55.2412C497.525 56.1172 499.581 54.8613 501.679 53.58C503.339 52.5662 505.024 51.5364 507.612 51.5364C513.496 51.5364 523.979 48.4147 528.288 44.0813C530.451 41.9079 531.304 42.5178 532.496 43.3671C533.692 44.2217 535.23 45.3185 538.773 44.0813C545.889 41.5883 557.606 41.9039 563.151 40.0622C567.356 38.6485 569.444 39.1848 575.05 40.6226C576.838 41.0814 578.985 41.6311 581.672 42.2396C592.762 44.7099 604.503 53.7138 613.458 55.8912C622.393 58.0244 633.504 58.2037 644.279 63.3917C649.268 65.7818 658.052 71.5516 666.375 77.0165C676.107 83.407 685.208 89.3828 686.866 89.0564C687.909 88.8518 688.634 88.2219 689.397 87.5598C690.897 86.2558 692.54 84.8287 697.034 86.2718C703.835 88.4492 705.071 90.9195 710.009 91.5495C714.948 92.1553 716.474 95.5686 717.732 99.6104C718.945 103.628 722.961 112.005 740.56 124.399C741.295 124.917 742.031 125.437 742.766 125.96C759.819 138.015 778.784 151.42 778.183 158.846C777.554 166.58 779.4 168.751 790.073 181.314L790.22 181.478C801.013 194.21 824.459 222.727 823.536 224.592C823.282 225.085 822.961 225.449 822.613 225.826C821.65 226.868 820.594 228.017 821.062 232.337C821.222 233.824 821.423 235.29 821.61 236.751C822.199 241.088 822.774 245.377 822.319 250.032C822.199 251.266 822.025 252.352 821.864 253.321C821.249 257.231 820.928 259.211 825.369 261.19C830.959 263.683 836.51 267.725 836.51 272.373C836.51 277.021 838.957 297.79 840.522 308.323C840.79 310.108 841.177 312.494 841.646 315.306C843.959 329.15 847.999 353.311 845.444 366.972C842.368 383.408 843.291 387.137 840.188 398.611C837.112 410.086 836.51 422.436 836.51 427.106C836.51 431.775 836.189 433.596 832.484 443.878C832.016 445.179 831.588 446.483 831.187 447.742C829.006 455.846 828.043 464.805 828.418 471.138C828.846 478.906 827.656 480.771 823.055 482.005C822.386 482.19 821.731 482.313 821.115 482.429C817.491 483.109 815.15 483.55 817.692 494.4C819.845 503.64 816.247 508.784 811.018 516.261C809.051 519.071 806.858 522.207 804.651 526.016C796.546 539.961 792.213 539.353 787.184 553.299C782.208 567.242 767.389 567.871 766.961 579.008C766.493 590.191 761.571 590.191 759.124 590.977C756.676 591.739 745.629 596.703 742.338 602.272C739.035 607.839 737.195 609.097 734.162 609.726C731.065 610.332 727.969 610.13 727.722 613.812C727.474 617.448 725.633 617.448 723.772 618.078C721.929 618.707 720.718 618.707 718.585 620.571C716.453 622.413 708.999 619.628 706.799 617.158C704.576 614.666 706.394 610.017 711.783 600.722C717.17 591.449 727.835 574.136 731.716 567.668C735.6 561.201 734.838 560.439 724.376 562.011C713.916 563.536 724.803 548.65 729.068 545.237C731.149 543.572 732.761 544.713 734.467 545.922C736.257 547.19 738.152 548.534 740.814 546.786C745.99 543.374 750.31 539.107 751.768 534.145C753.199 529.34 759.846 518.268 760.247 517.573C759.739 517.888 751.42 523.051 750.283 524.736C749.053 526.464 744.692 527.026 744.692 527.026C744.692 527.026 739.503 527.228 733.985 528.105C729.689 528.813 729.636 524.545 729.578 519.956C729.574 519.604 729.57 519.251 729.563 518.897C729.53 517.109 729.263 515.562 729.004 514.054C728.544 511.377 728.105 508.822 729.024 505.247C729.374 503.888 730.063 501.801 730.876 499.335C733.4 491.685 737.122 480.396 735.646 476.033C733.693 470.217 735.465 465.569 738.179 461.842C738.834 460.944 739.516 460.209 740.145 459.529C742.111 457.4 743.582 455.814 742.338 451.491C740.693 445.741 739.436 445.741 734.322 451.491C729.158 457.194 717.481 456.933 717.976 449.816ZM662.439 204.135C662.439 204.135 662.596 200.117 663.068 195.76C663.144 195.09 663.228 194.45 663.313 193.802C663.775 190.275 664.273 186.475 663.877 176.044C663.405 163.653 655.907 155.164 655.907 155.164C654.763 159.653 653.169 170.253 653.977 182.781C654.764 195.289 662.439 204.135 662.439 204.135Z" fill="black"/>
</svg>
