<svg width="1025" height="448" viewBox="0 0 1025 448" fill="none" xmlns="http://www.w3.org/2000/svg">
<path d="M714.194 194.803H666.606C643.612 194.803 625.858 190.562 613.342 182.079C600.827 173.596 594.569 161.377 594.569 145.421V49.3825C594.569 33.4266 600.827 21.2072 613.342 12.7243C625.858 4.24145 643.612 0 666.606 0H714.194C736.896 0 754.505 4.34243 767.02 13.0273C779.827 21.5102 786.23 33.6286 786.23 49.3825V63.6216C786.23 68.0651 783.029 70.2868 776.625 70.2868H739.952C733.84 70.2868 730.784 68.0651 730.784 63.6216V51.2003C730.784 44.7371 728.746 40.1927 724.672 37.5671C720.888 34.7394 714.339 33.3256 705.025 33.3256H675.337C666.315 33.3256 659.766 34.7394 655.691 37.5671C651.907 40.1927 650.015 44.7371 650.015 51.2003V143.603C650.015 150.066 651.907 154.712 655.691 157.539C659.766 160.165 666.315 161.478 675.337 161.478H705.025C714.339 161.478 720.888 160.165 724.672 157.539C728.746 154.712 730.784 150.066 730.784 143.603V131.182C730.784 126.738 733.84 124.517 739.952 124.517H776.625C783.029 124.517 786.23 126.738 786.23 131.182V145.421C786.23 161.175 779.827 173.394 767.02 182.079C754.505 190.562 736.896 194.803 714.194 194.803Z" fill="black"/>
<path d="M439.01 161.425H470.302C479.705 161.425 486.316 160.113 490.135 157.488C494.249 154.662 496.305 150.018 496.305 143.557V51.1837C496.305 44.7226 494.249 40.1797 490.135 37.5549C486.316 34.7282 479.705 33.3148 470.302 33.3148H439.01C429.608 33.3148 422.997 34.7282 419.177 37.5549C415.358 40.1797 413.448 44.7226 413.448 51.1837V143.557C413.448 150.018 415.358 154.662 419.177 157.488C422.997 160.113 429.608 161.425 439.01 161.425ZM519.664 235.021H487.491C479.558 235.021 473.828 232.901 470.302 228.661L441.655 194.74H429.755C406.543 194.74 388.62 190.5 375.986 182.02C363.351 173.54 357.034 161.324 357.034 145.374V49.3665C357.034 33.4158 363.351 21.2003 375.986 12.7202C388.62 4.24007 406.543 0 429.755 0H479.117C502.329 0 520.252 4.24007 532.886 12.7202C545.52 21.2003 551.838 33.4158 551.838 49.3665V145.374C551.838 158.7 547.136 169.502 537.734 177.78C528.626 186.058 515.551 191.308 498.509 193.529L526.716 227.146C528.185 229.569 528.185 231.488 526.716 232.901C525.247 234.314 522.896 235.021 519.664 235.021Z" fill="black"/>
<path d="M306.762 6.36216V188.441C306.762 192.683 303.541 194.803 297.099 194.803H257.985C251.542 194.803 248.321 192.683 248.321 188.441V6.36216C248.321 2.12072 251.542 0 257.985 0H297.099C303.541 0 306.762 2.12072 306.762 6.36216Z" fill="black"/>
<path d="M1006.38 441.764H1002.53C1001.9 441.764 1001.58 441.447 1001.58 440.814V413.622C1001.58 412.989 1001.9 412.672 1002.53 412.672H1013.3C1015.65 412.672 1017.49 413.32 1018.82 414.617C1020.15 415.914 1020.81 417.739 1020.81 420.092V423.621C1020.81 427.03 1019.47 429.292 1016.78 430.408V430.589L1021.62 440.678C1021.9 441.402 1021.64 441.764 1020.86 441.764H1017.19C1016.65 441.764 1016.26 441.704 1016.01 441.583C1015.77 441.463 1015.58 441.206 1015.43 440.814L1010.9 431.041H1007.87C1007.51 431.041 1007.33 431.207 1007.33 431.539V440.814C1007.33 441.447 1007.01 441.764 1006.38 441.764ZM1007.83 426.426H1012.26C1013.22 426.426 1013.93 426.23 1014.39 425.838C1014.84 425.416 1015.06 424.752 1015.06 423.847V420.318C1015.06 419.383 1014.84 418.704 1014.39 418.282C1013.93 417.86 1013.22 417.649 1012.26 417.649H1007.83C1007.49 417.649 1007.33 417.815 1007.33 418.146V425.929C1007.33 426.26 1007.49 426.426 1007.83 426.426Z" fill="black"/>
<path d="M995.405 441.764H980.61C979.976 441.764 979.659 441.447 979.659 440.814V413.622C979.659 412.989 979.976 412.672 980.61 412.672H995.405C996.008 412.672 996.309 412.989 996.309 413.622V416.699C996.309 417.332 996.008 417.649 995.405 417.649H985.948C985.586 417.649 985.405 417.815 985.405 418.146V424.028C985.405 424.36 985.586 424.526 985.948 424.526H993.685C994.319 424.526 994.635 424.843 994.635 425.476V428.553C994.635 429.186 994.319 429.503 993.685 429.503H985.948C985.586 429.503 985.405 429.669 985.405 430.001V436.29C985.405 436.621 985.586 436.787 985.948 436.787H995.405C996.008 436.787 996.309 437.104 996.309 437.737V440.814C996.309 441.447 996.008 441.764 995.405 441.764Z" fill="black"/>
<path d="M968.332 441.764H964.531C963.868 441.764 963.536 441.447 963.536 440.814V418.146C963.536 417.815 963.37 417.649 963.038 417.649H957.88C957.247 417.649 956.93 417.332 956.93 416.699V413.622C956.93 412.989 957.247 412.672 957.88 412.672H974.983C975.616 412.672 975.933 412.989 975.933 413.622V416.699C975.933 417.332 975.616 417.649 974.983 417.649H969.825C969.463 417.649 969.282 417.815 969.282 418.146V440.814C969.282 441.447 968.965 441.764 968.332 441.764Z" fill="black"/>
<path d="M948.625 412.672H952.425C953.089 412.672 953.421 412.974 953.421 413.577V434.389C953.421 436.742 952.757 438.567 951.43 439.864C950.133 441.131 948.308 441.764 945.955 441.764H940.978C938.595 441.764 936.756 441.131 935.459 439.864C934.161 438.597 933.513 436.772 933.513 434.389V413.622C933.513 412.989 933.83 412.672 934.463 412.672H938.309C938.942 412.672 939.259 412.989 939.259 413.622V434.118C939.259 435.083 939.455 435.777 939.847 436.199C940.27 436.591 940.948 436.787 941.883 436.787H945.005C945.97 436.787 946.649 436.591 947.041 436.199C947.463 435.777 947.675 435.083 947.675 434.118V413.622C947.675 412.989 947.991 412.672 948.625 412.672Z" fill="black"/>
<path d="M914.272 441.764H910.426C909.793 441.764 909.476 441.447 909.476 440.814V413.622C909.476 412.989 909.793 412.672 910.426 412.672H921.466C923.818 412.672 925.643 413.32 926.94 414.617C928.237 415.884 928.886 417.694 928.886 420.047V424.39C928.886 426.743 928.237 428.568 926.94 429.865C925.643 431.132 923.818 431.765 921.466 431.765H915.765C915.403 431.765 915.222 431.931 915.222 432.263V440.814C915.222 441.447 914.905 441.764 914.272 441.764ZM915.72 426.743H920.516C921.481 426.743 922.159 426.547 922.552 426.155C922.944 425.733 923.14 425.054 923.14 424.119V420.318C923.14 419.353 922.944 418.674 922.552 418.282C922.159 417.86 921.481 417.649 920.516 417.649H915.72C915.388 417.649 915.222 417.815 915.222 418.146V426.245C915.222 426.577 915.388 426.743 915.72 426.743Z" fill="black"/>
<path d="M895.695 412.672H902.391C903.024 412.672 903.341 412.989 903.341 413.622V440.814C903.341 441.447 903.024 441.764 902.391 441.764H898.681C898.047 441.764 897.731 441.447 897.731 440.814V419.368H897.55L892.935 434.525C892.754 435.128 892.377 435.43 891.804 435.43H888.003C887.43 435.43 887.053 435.128 886.872 434.525L882.167 419.323H881.986V440.814C881.986 441.176 881.925 441.432 881.805 441.583C881.684 441.704 881.427 441.764 881.035 441.764H877.325C876.692 441.764 876.375 441.447 876.375 440.814V413.622C876.375 412.989 876.692 412.672 877.325 412.672H884.067C884.489 412.672 884.776 412.883 884.926 413.305L889.722 429.277H889.994L894.835 413.305C894.926 412.883 895.212 412.672 895.695 412.672Z" fill="black"/>
<path d="M859.058 436.787H862.27C863.235 436.787 863.914 436.591 864.306 436.199C864.728 435.777 864.94 435.083 864.94 434.118V420.318C864.94 419.353 864.728 418.674 864.306 418.282C863.914 417.86 863.235 417.649 862.27 417.649H859.058C858.093 417.649 857.414 417.86 857.022 418.282C856.63 418.674 856.434 419.353 856.434 420.318V434.118C856.434 435.083 856.63 435.777 857.022 436.199C857.414 436.591 858.093 436.787 859.058 436.787ZM863.22 441.764H858.153C855.77 441.764 853.93 441.131 852.633 439.864C851.336 438.597 850.688 436.772 850.688 434.389V420.047C850.688 417.664 851.336 415.839 852.633 414.572C853.93 413.305 855.77 412.672 858.153 412.672H863.22C865.603 412.672 867.443 413.305 868.74 414.572C870.037 415.839 870.686 417.664 870.686 420.047V434.389C870.686 436.772 870.037 438.597 868.74 439.864C867.443 441.131 865.603 441.764 863.22 441.764Z" fill="black"/>
<path d="M838.467 441.764H833.536C831.153 441.764 829.313 441.131 828.016 439.864C826.719 438.597 826.07 436.772 826.07 434.389V420.047C826.07 417.664 826.719 415.839 828.016 414.572C829.313 413.305 831.153 412.672 833.536 412.672H838.467C840.82 412.672 842.645 413.32 843.942 414.617C845.269 415.884 845.933 417.694 845.933 420.047V422.173C845.933 422.837 845.601 423.169 844.937 423.169H841.137C840.503 423.169 840.187 422.837 840.187 422.173V420.318C840.187 419.353 839.976 418.674 839.553 418.282C839.161 417.86 838.482 417.649 837.517 417.649H834.441C833.506 417.649 832.827 417.86 832.405 418.282C832.012 418.674 831.816 419.353 831.816 420.318V434.118C831.816 435.083 832.012 435.777 832.405 436.199C832.827 436.591 833.506 436.787 834.441 436.787H837.517C838.482 436.787 839.161 436.591 839.553 436.199C839.976 435.777 840.187 435.083 840.187 434.118V432.263C840.187 431.599 840.503 431.267 841.137 431.267H844.937C845.601 431.267 845.933 431.599 845.933 432.263V434.389C845.933 436.742 845.269 438.567 843.942 439.864C842.645 441.131 840.82 441.764 838.467 441.764Z" fill="black"/>
<path d="M802.529 412.672H809.225C809.859 412.672 810.175 412.989 810.175 413.622V440.814C810.175 441.447 809.859 441.764 809.225 441.764H805.515C804.882 441.764 804.565 441.447 804.565 440.814V419.368H804.384L799.769 434.525C799.588 435.128 799.211 435.43 798.638 435.43H794.837C794.264 435.43 793.887 435.128 793.706 434.525L789.001 419.323H788.82V440.814C788.82 441.176 788.759 441.432 788.639 441.583C788.518 441.704 788.262 441.764 787.87 441.764H784.16C783.526 441.764 783.209 441.447 783.209 440.814V413.622C783.209 412.989 783.526 412.672 784.16 412.672H790.901C791.323 412.672 791.61 412.883 791.761 413.305L796.557 429.277H796.828L801.669 413.305C801.76 412.883 802.046 412.672 802.529 412.672Z" fill="black"/>
<path d="M772.506 412.672H776.306C776.97 412.672 777.302 412.974 777.302 413.577V434.389C777.302 436.742 776.638 438.567 775.311 439.864C774.014 441.131 772.189 441.764 769.836 441.764H764.859C762.477 441.764 760.637 441.131 759.34 439.864C758.043 438.597 757.394 436.772 757.394 434.389V413.622C757.394 412.989 757.711 412.672 758.344 412.672H762.19C762.823 412.672 763.14 412.989 763.14 413.622V434.118C763.14 435.083 763.336 435.777 763.728 436.199C764.151 436.591 764.829 436.787 765.764 436.787H768.886C769.851 436.787 770.53 436.591 770.922 436.199C771.345 435.777 771.556 435.083 771.556 434.118V413.622C771.556 412.989 771.872 412.672 772.506 412.672Z" fill="black"/>
<path d="M746.293 441.764H742.492C741.829 441.764 741.497 441.447 741.497 440.814V418.146C741.497 417.815 741.331 417.649 740.999 417.649H735.841C735.208 417.649 734.891 417.332 734.891 416.699V413.622C734.891 412.989 735.208 412.672 735.841 412.672H752.944C753.577 412.672 753.894 412.989 753.894 413.622V416.699C753.894 417.332 753.577 417.649 752.944 417.649H747.786C747.424 417.649 747.243 417.815 747.243 418.146V440.814C747.243 441.447 746.926 441.764 746.293 441.764Z" fill="black"/>
<path d="M715.257 441.764H711.502C710.868 441.764 710.552 441.447 710.552 440.814V413.622C710.552 412.989 710.868 412.672 711.502 412.672H714.895C715.528 412.672 715.951 412.883 716.162 413.305L725.301 430.453H725.482V413.622C725.482 412.989 725.799 412.672 726.432 412.672H730.188C730.821 412.672 731.138 412.989 731.138 413.622V440.814C731.138 441.447 730.821 441.764 730.188 441.764H726.885C726.221 441.764 725.739 441.463 725.437 440.859L716.388 424.028H716.207V440.814C716.207 441.447 715.89 441.764 715.257 441.764Z" fill="black"/>
<path d="M688.126 441.764H683.783C683.24 441.764 683.059 441.447 683.24 440.814L690.388 413.622C690.6 412.989 691.052 412.672 691.746 412.672H697.763C698.517 412.672 698.97 412.989 699.121 413.622L706.269 440.814C706.45 441.447 706.269 441.764 705.726 441.764H701.383C701.051 441.764 700.825 441.704 700.704 441.583C700.584 441.432 700.493 441.176 700.433 440.814L699.166 435.837H690.343L689.076 440.814C689.016 441.176 688.91 441.432 688.76 441.583C688.639 441.704 688.428 441.764 688.126 441.764ZM694.687 418.146L691.429 431.222H698.125L694.868 418.146H694.687Z" fill="black"/>
<path d="M674.392 412.672H678.192C678.856 412.672 679.187 412.974 679.187 413.577V434.389C679.187 436.742 678.524 438.567 677.197 439.864C675.9 441.131 674.075 441.764 671.722 441.764H666.745C664.362 441.764 662.522 441.131 661.225 439.864C659.928 438.597 659.28 436.772 659.28 434.389V413.622C659.28 412.989 659.597 412.672 660.23 412.672H664.076C664.709 412.672 665.026 412.989 665.026 413.622V434.118C665.026 435.083 665.222 435.777 665.614 436.199C666.036 436.591 666.715 436.787 667.65 436.787H670.772C671.737 436.787 672.416 436.591 672.808 436.199C673.23 435.777 673.441 435.083 673.441 434.118V413.622C673.441 412.989 673.758 412.672 674.392 412.672Z" fill="black"/>
<path d="M641.8 436.787H645.013C645.978 436.787 646.657 436.591 647.049 436.199C647.471 435.777 647.682 435.083 647.682 434.118V420.318C647.682 419.353 647.471 418.674 647.049 418.282C646.657 417.86 645.978 417.649 645.013 417.649H641.8C640.835 417.649 640.156 417.86 639.764 418.282C639.372 418.674 639.176 419.353 639.176 420.318V434.118C639.176 435.083 639.372 435.777 639.764 436.199C640.156 436.591 640.835 436.787 641.8 436.787ZM650.08 447.782H646.777C645.963 447.782 645.375 447.465 645.013 446.832L642.072 441.764H640.85C638.467 441.764 636.627 441.131 635.33 439.864C634.033 438.597 633.385 436.772 633.385 434.389V420.047C633.385 417.664 634.033 415.839 635.33 414.572C636.627 413.305 638.467 412.672 640.85 412.672H645.918C648.3 412.672 650.14 413.305 651.437 414.572C652.734 415.839 653.383 417.664 653.383 420.047V434.389C653.383 436.38 652.9 437.994 651.935 439.23C651 440.467 649.658 441.251 647.908 441.583L650.804 446.605C650.955 446.967 650.955 447.254 650.804 447.465C650.653 447.676 650.412 447.782 650.08 447.782Z" fill="black"/>
<path d="M611.935 441.764H608.134C607.47 441.764 607.139 441.447 607.139 440.814V418.146C607.139 417.815 606.973 417.649 606.641 417.649H601.483C600.85 417.649 600.533 417.332 600.533 416.699V413.622C600.533 412.989 600.85 412.672 601.483 412.672H618.586C619.219 412.672 619.536 412.989 619.536 413.622V416.699C619.536 417.332 619.219 417.649 618.586 417.649H613.428C613.066 417.649 612.885 417.815 612.885 418.146V440.814C612.885 441.447 612.568 441.764 611.935 441.764Z" fill="black"/>
<path d="M580.899 441.764H577.143C576.51 441.764 576.193 441.447 576.193 440.814V413.622C576.193 412.989 576.51 412.672 577.143 412.672H580.537C581.17 412.672 581.592 412.883 581.803 413.305L590.943 430.453H591.124V413.622C591.124 412.989 591.441 412.672 592.074 412.672H595.829C596.463 412.672 596.779 412.989 596.779 413.622V440.814C596.779 441.447 596.463 441.764 595.829 441.764H592.526C591.863 441.764 591.38 441.463 591.079 440.859L582.03 424.028H581.849V440.814C581.849 441.447 581.532 441.764 580.899 441.764Z" fill="black"/>
<path d="M570.017 441.764H555.222C554.588 441.764 554.271 441.447 554.271 440.814V413.622C554.271 412.989 554.588 412.672 555.222 412.672H570.017C570.62 412.672 570.922 412.989 570.922 413.622V416.699C570.922 417.332 570.62 417.649 570.017 417.649H560.56C560.199 417.649 560.018 417.815 560.018 418.146V424.028C560.018 424.36 560.199 424.526 560.56 424.526H568.297C568.931 424.526 569.247 424.843 569.247 425.476V428.553C569.247 429.186 568.931 429.503 568.297 429.503H560.56C560.199 429.503 560.018 429.669 560.018 430.001V436.29C560.018 436.621 560.199 436.787 560.56 436.787H570.017C570.62 436.787 570.922 437.104 570.922 437.737V440.814C570.922 441.447 570.62 441.764 570.017 441.764Z" fill="black"/>
<path d="M541.154 441.764H536.358C533.975 441.764 532.135 441.131 530.838 439.864C529.541 438.597 528.893 436.772 528.893 434.389V420.047C528.893 417.664 529.541 415.839 530.838 414.572C532.135 413.305 533.975 412.672 536.358 412.672H541.154C543.507 412.672 545.332 413.32 546.629 414.617C547.926 415.884 548.574 417.694 548.574 420.047V421.404C548.574 422.068 548.258 422.399 547.624 422.399H543.778C543.145 422.399 542.828 422.068 542.828 421.404V420.318C542.828 419.353 542.632 418.674 542.24 418.282C541.848 417.86 541.169 417.649 540.204 417.649H537.263C536.328 417.649 535.649 417.86 535.227 418.282C534.835 418.674 534.639 419.353 534.639 420.318V434.118C534.639 435.083 534.835 435.777 535.227 436.199C535.649 436.591 536.328 436.787 537.263 436.787H540.204C541.169 436.787 541.848 436.591 542.24 436.199C542.632 435.777 542.828 435.083 542.828 434.118V431.267C542.828 430.936 542.662 430.77 542.33 430.77H539.616C538.982 430.77 538.666 430.453 538.666 429.82V426.743C538.666 426.11 538.982 425.793 539.616 425.793H547.534C548.227 425.793 548.574 426.14 548.574 426.833V434.389C548.574 436.742 547.926 438.567 546.629 439.864C545.332 441.131 543.507 441.764 541.154 441.764Z" fill="black"/>
<path d="M522.984 413.622V440.814C522.984 441.447 522.667 441.764 522.033 441.764H518.188C517.554 441.764 517.238 441.447 517.238 440.814V413.622C517.238 412.989 517.554 412.672 518.188 412.672H522.033C522.667 412.672 522.984 412.989 522.984 413.622Z" fill="black"/>
<path d="M512.251 441.764H497.365C496.732 441.764 496.415 441.447 496.415 440.814V413.622C496.415 412.989 496.732 412.672 497.365 412.672H501.211C501.844 412.672 502.161 412.989 502.161 413.622V436.244C502.161 436.576 502.342 436.742 502.704 436.742H512.251C512.854 436.742 513.156 437.074 513.156 437.737V440.814C513.156 441.447 512.854 441.764 512.251 441.764Z" fill="black"/>
<path d="M491.655 441.764H476.769C476.136 441.764 475.819 441.447 475.819 440.814V413.622C475.819 412.989 476.136 412.672 476.769 412.672H480.615C481.248 412.672 481.565 412.989 481.565 413.622V436.244C481.565 436.576 481.746 436.742 482.108 436.742H491.655C492.258 436.742 492.56 437.074 492.56 437.737V440.814C492.56 441.447 492.258 441.764 491.655 441.764Z" fill="black"/>
<path d="M469.642 441.764H454.847C454.214 441.764 453.897 441.447 453.897 440.814V413.622C453.897 412.989 454.214 412.672 454.847 412.672H469.642C470.246 412.672 470.547 412.989 470.547 413.622V416.699C470.547 417.332 470.246 417.649 469.642 417.649H460.186C459.824 417.649 459.643 417.815 459.643 418.146V424.028C459.643 424.36 459.824 424.526 460.186 424.526H467.923C468.556 424.526 468.873 424.843 468.873 425.476V428.553C468.873 429.186 468.556 429.503 467.923 429.503H460.186C459.824 429.503 459.643 429.669 459.643 430.001V436.29C459.643 436.621 459.824 436.787 460.186 436.787H469.642C470.246 436.787 470.547 437.104 470.547 437.737V440.814C470.547 441.447 470.246 441.764 469.642 441.764Z" fill="black"/>
<path d="M442.57 441.764H438.769C438.105 441.764 437.774 441.447 437.774 440.814V418.146C437.774 417.815 437.608 417.649 437.276 417.649H432.118C431.485 417.649 431.168 417.332 431.168 416.699V413.622C431.168 412.989 431.485 412.672 432.118 412.672H449.221C449.854 412.672 450.171 412.989 450.171 413.622V416.699C450.171 417.332 449.854 417.649 449.221 417.649H444.063C443.701 417.649 443.52 417.815 443.52 418.146V440.814C443.52 441.447 443.203 441.764 442.57 441.764Z" fill="black"/>
<path d="M411.534 441.764H407.778C407.145 441.764 406.828 441.447 406.828 440.814V413.622C406.828 412.989 407.145 412.672 407.778 412.672H411.172C411.805 412.672 412.227 412.883 412.438 413.305L421.578 430.453H421.759V413.622C421.759 412.989 422.076 412.672 422.709 412.672H426.464C427.098 412.672 427.414 412.989 427.414 413.622V440.814C427.414 441.447 427.098 441.764 426.464 441.764H423.161C422.498 441.764 422.015 441.463 421.714 440.859L412.665 424.028H412.484V440.814C412.484 441.447 412.167 441.764 411.534 441.764Z" fill="black"/>
<path d="M400.467 413.622V440.814C400.467 441.447 400.15 441.764 399.517 441.764H395.671C395.037 441.764 394.721 441.447 394.721 440.814V413.622C394.721 412.989 395.037 412.672 395.671 412.672H399.517C400.15 412.672 400.467 412.989 400.467 413.622Z" fill="black"/>
<path d="M368.437 441.764H364.591C363.958 441.764 363.641 441.447 363.641 440.814V413.622C363.641 412.989 363.958 412.672 364.591 412.672H379.024C379.628 412.672 379.929 412.989 379.929 413.622V416.699C379.929 417.332 379.628 417.649 379.024 417.649H369.93C369.568 417.649 369.387 417.815 369.387 418.146V425.159C369.387 425.521 369.568 425.702 369.93 425.702H377.667C378.3 425.702 378.617 426.019 378.617 426.652V429.684C378.617 430.347 378.3 430.679 377.667 430.679H369.93C369.568 430.679 369.387 430.845 369.387 431.177V440.814C369.387 441.447 369.07 441.764 368.437 441.764Z" fill="black"/>
<path d="M346.323 436.787H349.536C350.501 436.787 351.18 436.591 351.572 436.199C351.994 435.777 352.205 435.083 352.205 434.118V420.318C352.205 419.353 351.994 418.674 351.572 418.282C351.18 417.86 350.501 417.649 349.536 417.649H346.323C345.358 417.649 344.679 417.86 344.287 418.282C343.895 418.674 343.699 419.353 343.699 420.318V434.118C343.699 435.083 343.895 435.777 344.287 436.199C344.679 436.591 345.358 436.787 346.323 436.787ZM350.486 441.764H345.418C343.036 441.764 341.196 441.131 339.899 439.864C338.602 438.597 337.953 436.772 337.953 434.389V420.047C337.953 417.664 338.602 415.839 339.899 414.572C341.196 413.305 343.036 412.672 345.418 412.672H350.486C352.869 412.672 354.709 413.305 356.006 414.572C357.303 415.839 357.951 417.664 357.951 420.047V434.389C357.951 436.772 357.303 438.597 356.006 439.864C354.709 441.131 352.869 441.764 350.486 441.764Z" fill="black"/>
<path d="M315.226 441.764H311.38C310.746 441.764 310.43 441.447 310.43 440.814V431.132L302.15 413.667C302.029 413.396 302.029 413.17 302.15 412.989C302.301 412.777 302.512 412.672 302.783 412.672H307.579C308.062 412.672 308.424 412.989 308.665 413.622L313.19 424.616H313.506L317.94 413.622C318.151 412.989 318.513 412.672 319.026 412.672H323.822C324.124 412.672 324.335 412.762 324.455 412.943C324.606 413.124 324.606 413.366 324.455 413.667L316.176 431.132V440.814C316.176 441.447 315.859 441.764 315.226 441.764Z" fill="black"/>
<path d="M284.329 441.764H280.483C279.85 441.764 279.533 441.447 279.533 440.814V413.622C279.533 412.989 279.85 412.672 280.483 412.672H291.252C293.604 412.672 295.444 413.32 296.771 414.617C298.099 415.914 298.762 417.739 298.762 420.092V423.621C298.762 427.03 297.42 429.292 294.735 430.408V430.589L299.577 440.678C299.848 441.402 299.592 441.764 298.807 441.764H295.143C294.6 441.764 294.208 441.704 293.966 441.583C293.725 441.463 293.529 441.206 293.378 440.814L288.854 431.041H285.822C285.46 431.041 285.279 431.207 285.279 431.539V440.814C285.279 441.447 284.963 441.764 284.329 441.764ZM285.777 426.426H290.211C291.176 426.426 291.885 426.23 292.337 425.838C292.79 425.416 293.016 424.752 293.016 423.847V420.318C293.016 419.383 292.79 418.704 292.337 418.282C291.885 417.86 291.176 417.649 290.211 417.649H285.777C285.445 417.649 285.279 417.815 285.279 418.146V425.929C285.279 426.26 285.445 426.426 285.777 426.426Z" fill="black"/>
<path d="M262.215 436.787H265.428C266.393 436.787 267.071 436.591 267.464 436.199C267.886 435.777 268.097 435.083 268.097 434.118V420.318C268.097 419.353 267.886 418.674 267.464 418.282C267.071 417.86 266.393 417.649 265.428 417.649H262.215C261.25 417.649 260.571 417.86 260.179 418.282C259.787 418.674 259.591 419.353 259.591 420.318V434.118C259.591 435.083 259.787 435.777 260.179 436.199C260.571 436.591 261.25 436.787 262.215 436.787ZM266.378 441.764H261.31C258.927 441.764 257.088 441.131 255.79 439.864C254.493 438.597 253.845 436.772 253.845 434.389V420.047C253.845 417.664 254.493 415.839 255.79 414.572C257.088 413.305 258.927 412.672 261.31 412.672H266.378C268.761 412.672 270.601 413.305 271.898 414.572C273.195 415.839 273.843 417.664 273.843 420.047V434.389C273.843 436.772 273.195 438.597 271.898 439.864C270.601 441.131 268.761 441.764 266.378 441.764Z" fill="black"/>
<path d="M242.97 441.764H239.169C238.506 441.764 238.174 441.447 238.174 440.814V418.146C238.174 417.815 238.008 417.649 237.676 417.649H232.518C231.885 417.649 231.568 417.332 231.568 416.699V413.622C231.568 412.989 231.885 412.672 232.518 412.672H249.621C250.254 412.672 250.571 412.989 250.571 413.622V416.699C250.571 417.332 250.254 417.649 249.621 417.649H244.463C244.101 417.649 243.92 417.815 243.92 418.146V440.814C243.92 441.447 243.603 441.764 242.97 441.764Z" fill="black"/>
<path d="M211.541 441.764H207.198C206.655 441.764 206.474 441.447 206.655 440.814L213.803 413.622C214.015 412.989 214.467 412.672 215.161 412.672H221.178C221.932 412.672 222.385 412.989 222.536 413.622L229.684 440.814C229.865 441.447 229.684 441.764 229.141 441.764H224.798C224.466 441.764 224.24 441.704 224.119 441.583C223.999 441.432 223.908 441.176 223.848 440.814L222.581 435.837H213.758L212.491 440.814C212.431 441.176 212.325 441.432 212.175 441.583C212.054 441.704 211.843 441.764 211.541 441.764ZM218.102 418.146L214.844 431.222H221.54L218.283 418.146H218.102Z" fill="black"/>
<path d="M188.291 441.764H184.445C183.812 441.764 183.495 441.447 183.495 440.814V413.622C183.495 412.989 183.812 412.672 184.445 412.672H195.213C197.566 412.672 199.406 413.32 200.733 414.617C202.061 415.914 202.724 417.739 202.724 420.092V423.621C202.724 427.03 201.382 429.292 198.697 430.408V430.589L203.539 440.678C203.81 441.402 203.554 441.764 202.769 441.764H199.105C198.562 441.764 198.169 441.704 197.928 441.583C197.687 441.463 197.491 441.206 197.34 440.814L192.816 431.041H189.784C189.422 431.041 189.241 431.207 189.241 431.539V440.814C189.241 441.447 188.924 441.764 188.291 441.764ZM189.739 426.426H194.173C195.138 426.426 195.847 426.23 196.299 425.838C196.752 425.416 196.978 424.752 196.978 423.847V420.318C196.978 419.383 196.752 418.704 196.299 418.282C195.847 417.86 195.138 417.649 194.173 417.649H189.739C189.407 417.649 189.241 417.815 189.241 418.146V425.929C189.241 426.26 189.407 426.426 189.739 426.426Z" fill="black"/>
<path d="M166.177 436.787H169.39C170.355 436.787 171.034 436.591 171.426 436.199C171.848 435.777 172.059 435.083 172.059 434.118V420.318C172.059 419.353 171.848 418.674 171.426 418.282C171.034 417.86 170.355 417.649 169.39 417.649H166.177C165.212 417.649 164.533 417.86 164.141 418.282C163.749 418.674 163.553 419.353 163.553 420.318V434.118C163.553 435.083 163.749 435.777 164.141 436.199C164.533 436.591 165.212 436.787 166.177 436.787ZM170.34 441.764H165.273C162.89 441.764 161.05 441.131 159.753 439.864C158.456 438.597 157.807 436.772 157.807 434.389V420.047C157.807 417.664 158.456 415.839 159.753 414.572C161.05 413.305 162.89 412.672 165.273 412.672H170.34C172.723 412.672 174.563 413.305 175.86 414.572C177.157 415.839 177.805 417.664 177.805 420.047V434.389C177.805 436.772 177.157 438.597 175.86 439.864C174.563 441.131 172.723 441.764 170.34 441.764Z" fill="black"/>
<path d="M139.135 436.968H144.203C145.198 436.968 145.907 436.772 146.329 436.38C146.782 435.958 147.008 435.279 147.008 434.344V431.72C147.008 430.785 146.782 430.121 146.329 429.729C145.877 429.337 145.138 429.141 144.112 429.141H139.135C138.804 429.141 138.638 429.307 138.638 429.639V436.471C138.638 436.802 138.804 436.968 139.135 436.968ZM139.135 424.481H143.75C144.716 424.481 145.424 424.285 145.877 423.893C146.329 423.47 146.555 422.792 146.555 421.857V420.092C146.555 419.157 146.329 418.493 145.877 418.101C145.455 417.679 144.761 417.468 143.796 417.468H139.135C138.804 417.468 138.638 417.634 138.638 417.966V423.983C138.638 424.315 138.804 424.481 139.135 424.481ZM132.892 440.814V413.622C132.892 412.989 133.208 412.672 133.842 412.672H144.7C147.083 412.672 148.923 413.305 150.22 414.572C151.517 415.839 152.166 417.649 152.166 420.002V421.857C152.166 424.42 150.974 426.079 148.591 426.833C149.798 427.014 150.763 427.512 151.487 428.327C152.211 429.111 152.573 430.242 152.573 431.72V434.435C152.573 436.787 151.925 438.597 150.628 439.864C149.33 441.131 147.506 441.764 145.153 441.764H133.842C133.208 441.764 132.892 441.447 132.892 440.814Z" fill="black"/>
<path d="M110.466 441.764H106.123C105.58 441.764 105.399 441.447 105.58 440.814L112.729 413.622C112.94 412.989 113.392 412.672 114.086 412.672H120.104C120.858 412.672 121.31 412.989 121.461 413.622L128.61 440.814C128.791 441.447 128.61 441.764 128.067 441.764H123.723C123.391 441.764 123.165 441.704 123.045 441.583C122.924 441.432 122.833 441.176 122.773 440.814L121.506 435.837H112.683L111.417 440.814C111.356 441.176 111.251 441.432 111.1 441.583C110.979 441.704 110.768 441.764 110.466 441.764ZM117.027 418.146L113.769 431.222H120.466L117.208 418.146H117.027Z" fill="black"/>
<path d="M102.675 441.764H87.789C87.1556 441.764 86.8389 441.447 86.8389 440.814V413.622C86.8389 412.989 87.1556 412.672 87.789 412.672H91.6348C92.2682 412.672 92.5849 412.989 92.5849 413.622V436.244C92.5849 436.576 92.7659 436.742 93.1279 436.742H102.675C103.278 436.742 103.579 437.074 103.579 437.737V440.814C103.579 441.447 103.278 441.764 102.675 441.764Z" fill="black"/>
<path d="M63.6586 441.764H59.8128C59.1794 441.764 58.8627 441.447 58.8627 440.814V431.132L50.5829 413.667C50.4623 413.396 50.4623 413.17 50.5829 412.989C50.7337 412.777 50.9449 412.672 51.2163 412.672H56.0123C56.4949 412.672 56.8569 412.989 57.0982 413.622L61.6226 424.616H61.9393L66.3733 413.622C66.5845 412.989 66.9464 412.672 67.4592 412.672H72.2551C72.5568 412.672 72.7679 412.762 72.8885 412.943C73.0394 413.124 73.0394 413.366 72.8885 413.667L64.6088 431.132V440.814C64.6088 441.447 64.2921 441.764 63.6586 441.764Z" fill="black"/>
<path d="M46.8045 441.764H32.0095C31.376 441.764 31.0593 441.447 31.0593 440.814V413.622C31.0593 412.989 31.376 412.672 32.0095 412.672H46.8045C47.4077 412.672 47.7094 412.989 47.7094 413.622V416.699C47.7094 417.332 47.4077 417.649 46.8045 417.649H37.3483C36.9864 417.649 36.8054 417.815 36.8054 418.146V424.028C36.8054 424.36 36.9864 424.526 37.3483 424.526H45.0852C45.7186 424.526 46.0353 424.843 46.0353 425.476V428.553C46.0353 429.186 45.7186 429.503 45.0852 429.503H37.3483C36.9864 429.503 36.8054 429.669 36.8054 430.001V436.29C36.8054 436.621 36.9864 436.787 37.3483 436.787H46.8045C47.4077 436.787 47.7094 437.104 47.7094 437.737V440.814C47.7094 441.447 47.4077 441.764 46.8045 441.764Z" fill="black"/>
<path d="M10.3545 441.764H6.50873C5.87531 441.764 5.55859 441.447 5.55859 440.814V413.622C5.55859 412.989 5.87531 412.672 6.50873 412.672H10.3545C10.988 412.672 11.3047 412.989 11.3047 413.622V426.517H11.3952C11.6365 425.793 12.104 424.858 12.7977 423.712L19.6749 413.622C20.0671 412.989 20.6552 412.672 21.4395 412.672H25.8735C26.2052 412.672 26.4013 412.777 26.4616 412.989C26.5521 413.17 26.4767 413.411 26.2354 413.713L17.6389 425.612L27.2308 440.633C27.4419 440.995 27.4721 441.282 27.3213 441.493C27.2006 441.674 26.9292 441.764 26.5069 441.764H23.204C22.1483 441.764 21.4395 441.447 21.0775 440.814L14.1551 429.729L11.3047 433.077V440.814C11.3047 441.447 10.988 441.764 10.3545 441.764Z" fill="black"/>
<path d="M983.967 352.18H990.354V380.382H983.967V352.18ZM960.161 330.281H1015.16V335.756H960.161V330.281ZM950.788 378.226H1024.28V383.866H950.788V378.226ZM958.336 362.299H1017.06V367.774H958.336V362.299ZM976.751 333.102L983.221 334.926C982.059 336.862 980.815 338.88 979.488 340.982C978.216 343.028 976.916 344.991 975.589 346.871C974.262 348.751 973.018 350.438 971.857 351.931L966.88 350.189C968.041 348.641 969.23 346.871 970.446 344.88C971.663 342.89 972.824 340.871 973.93 338.825C975.092 336.724 976.032 334.816 976.751 333.102ZM956.843 347.949C961.433 347.894 966.769 347.811 972.852 347.701C978.935 347.535 985.405 347.369 992.262 347.203C999.119 346.982 1005.98 346.788 1012.83 346.622L1012.5 351.848C1005.81 352.124 999.091 352.401 992.345 352.677C985.654 352.899 979.294 353.092 973.267 353.258C967.239 353.424 961.875 353.562 957.175 353.673L956.843 347.949ZM996.907 340.733L1001.39 337.498C1003.76 338.991 1006.17 340.678 1008.6 342.558C1011.09 344.438 1013.41 346.346 1015.57 348.281C1017.78 350.161 1019.55 351.931 1020.88 353.59L1016.07 357.074C1014.8 355.47 1013.11 353.7 1011.01 351.765C1008.91 349.83 1006.61 347.894 1004.12 345.959C1001.69 343.968 999.285 342.226 996.907 340.733ZM983.967 309.876H990.354V320.079H983.967V309.876ZM951.7 316.18H1023.28V331.526H1016.98V321.904H957.755V331.526H951.7V316.18Z" fill="black"/>
<path d="M888.41 348.613H893.968C893.968 348.613 893.94 348.944 893.885 349.608C893.885 350.272 893.857 350.797 893.802 351.184C893.36 358.207 892.89 363.875 892.392 368.188C891.95 372.502 891.424 375.792 890.816 378.059C890.263 380.327 889.544 381.903 888.659 382.787C887.996 383.672 887.249 384.28 886.42 384.612C885.59 384.944 884.54 385.165 883.268 385.276C882.217 385.331 880.779 385.331 878.954 385.276C877.185 385.276 875.305 385.221 873.314 385.11C873.259 384.336 873.093 383.451 872.816 382.456C872.54 381.515 872.153 380.658 871.655 379.884C873.701 380.105 875.581 380.244 877.295 380.299C879.065 380.354 880.337 380.382 881.111 380.382C881.775 380.382 882.328 380.299 882.77 380.133C883.268 380.022 883.682 379.774 884.014 379.386C884.678 378.723 885.258 377.34 885.756 375.239C886.309 373.138 886.779 370.041 887.166 365.949C887.609 361.801 888.023 356.354 888.41 349.608V348.613ZM862.199 367.276C865.074 366.612 868.448 365.783 872.318 364.788C876.245 363.792 880.226 362.769 884.263 361.718L884.844 366.529C881.139 367.58 877.434 368.631 873.729 369.681C870.023 370.732 866.623 371.672 863.526 372.502L862.199 367.276ZM864.936 313.608H886.834V319H864.936V313.608ZM885.093 313.608H890.484C890.318 316.539 890.097 319.663 889.821 322.981C889.544 326.299 889.24 329.617 888.908 332.935C888.632 336.198 888.355 339.295 888.079 342.226C887.802 345.156 887.526 347.728 887.249 349.94L881.775 350.272C882.051 347.949 882.355 345.295 882.687 342.308C883.074 339.267 883.406 336.087 883.682 332.769C884.014 329.451 884.291 326.133 884.512 322.816C884.788 319.498 884.982 316.429 885.093 313.608ZM868.503 325.138L873.812 325.47C873.59 328.511 873.341 331.774 873.065 335.258C872.844 338.742 872.567 342.115 872.235 345.378C871.904 348.585 871.572 351.378 871.24 353.755H865.848C866.236 351.322 866.595 348.447 866.927 345.129C867.259 341.811 867.563 338.41 867.839 334.926C868.116 331.387 868.337 328.124 868.503 325.138ZM867.839 348.695H889.323V353.755H867.839V348.695ZM917.028 312.447C918.687 315.267 920.788 318.17 923.332 321.157C925.931 324.143 928.723 326.963 931.71 329.617C934.696 332.272 937.599 334.539 940.419 336.419C940.087 336.861 939.7 337.442 939.258 338.161C938.816 338.825 938.428 339.516 938.097 340.235C937.765 340.954 937.488 341.59 937.267 342.143C934.281 339.986 931.212 337.414 928.06 334.428C924.963 331.442 922.032 328.29 919.267 324.972C916.558 321.654 914.29 318.475 912.466 315.433L917.028 312.447ZM914.954 309.295L920.346 311.037C918.41 315.295 916.06 319.359 913.295 323.23C910.585 327.101 907.627 330.668 904.42 333.931C901.212 337.138 897.894 339.958 894.466 342.391C894.244 341.949 893.885 341.424 893.387 340.815C892.945 340.207 892.475 339.599 891.977 338.991C891.535 338.327 891.12 337.802 890.733 337.414C894.051 335.313 897.231 332.825 900.272 329.949C903.369 327.018 906.161 323.811 908.65 320.327C911.138 316.843 913.24 313.166 914.954 309.295ZM903.839 335.59H928.558V340.981H903.839V335.59ZM898.364 349.525L903.258 348.364C904.088 350.41 904.862 352.649 905.581 355.083C906.355 357.46 907.019 359.783 907.572 362.05C908.18 364.317 908.595 366.336 908.816 368.105L903.673 369.516C903.452 367.691 903.065 365.645 902.512 363.377C901.959 361.055 901.323 358.705 900.604 356.327C899.94 353.894 899.194 351.626 898.364 349.525ZM913.046 347.451L917.857 346.705C918.466 348.806 918.991 351.046 919.433 353.424C919.931 355.801 920.346 358.124 920.677 360.391C921.065 362.659 921.341 364.705 921.507 366.529L916.364 367.359C916.253 365.534 916.005 363.488 915.618 361.221C915.286 358.898 914.899 356.548 914.456 354.17C914.014 351.737 913.544 349.497 913.046 347.451ZM931.793 347.866L937.433 349.276C936.217 352.539 934.834 355.995 933.286 359.645C931.737 363.239 930.161 366.723 928.558 370.096C927.009 373.469 925.516 376.428 924.078 378.972L919.516 377.479C920.512 375.598 921.59 373.442 922.751 371.009C923.912 368.52 925.046 365.921 926.152 363.211C927.258 360.502 928.281 357.847 929.221 355.248C930.217 352.594 931.074 350.133 931.793 347.866ZM895.71 376.649H938.014V382.124H895.71V376.649Z" fill="black"/>
<path d="M817.987 370.677L820.973 366.115C824.678 367.442 828.356 368.935 832.005 370.594C835.71 372.253 839.167 373.967 842.374 375.737C845.581 377.451 848.319 379.138 850.586 380.797L846.77 385.691C844.558 383.976 841.904 382.234 838.807 380.465C835.71 378.695 832.365 376.981 828.77 375.322C825.231 373.608 821.637 372.059 817.987 370.677ZM808.946 311.203L815.084 309.295C816.245 311.009 817.379 312.917 818.485 315.018C819.646 317.12 820.475 318.917 820.973 320.41L814.503 322.567C814.061 321.074 813.287 319.276 812.181 317.175C811.13 315.018 810.052 313.028 808.946 311.203ZM780.826 319.332H849.01V336.17H842.54V325.138H787.047V336.17H780.826V319.332ZM815.084 329.286H821.554C821.333 335.479 820.973 341.147 820.475 346.29C819.978 351.433 819.038 356.106 817.655 360.308C816.273 364.456 814.227 368.188 811.517 371.506C808.863 374.769 805.268 377.589 800.734 379.967C796.199 382.345 790.503 384.336 783.646 385.939C783.315 385.11 782.789 384.142 782.07 383.036C781.407 381.986 780.743 381.128 780.08 380.465C786.66 379.082 792.052 377.368 796.254 375.322C800.457 373.221 803.803 370.705 806.291 367.774C808.78 364.843 810.605 361.497 811.766 357.737C812.982 353.977 813.784 349.746 814.171 345.046C814.614 340.29 814.918 335.037 815.084 329.286ZM779.25 358.318H850.918V363.709H779.25V358.318ZM793.268 333.35L797.001 329.368C798.549 330.198 800.098 331.138 801.646 332.189C803.194 333.239 804.66 334.318 806.042 335.424C807.48 336.53 808.614 337.58 809.443 338.576L805.462 343.055C804.688 342.06 803.609 341.009 802.227 339.903C800.9 338.742 799.462 337.58 797.913 336.419C796.365 335.258 794.817 334.235 793.268 333.35ZM784.973 346.29L788.706 342.143C790.255 342.917 791.858 343.829 793.517 344.88C795.176 345.931 796.725 347.009 798.162 348.115C799.655 349.221 800.844 350.272 801.729 351.267L797.913 355.995C797.029 354.944 795.867 353.838 794.43 352.677C793.047 351.516 791.526 350.382 789.867 349.276C788.208 348.115 786.577 347.119 784.973 346.29Z" fill="black"/>
<path d="M724.836 309.876H731.057V338.161H724.836V309.876ZM706.753 340.982V355.829H750.135V340.982H706.753ZM700.864 335.092H756.356V361.636H700.864V335.092ZM727.739 318.669H762.577V324.558H727.739V318.669ZM715.297 368.935L721.186 368.438C721.628 370.152 721.988 372.032 722.264 374.078C722.596 376.069 722.845 377.977 723.011 379.802C723.232 381.682 723.343 383.285 723.343 384.613L717.038 385.442C717.038 384.06 716.956 382.428 716.79 380.548C716.679 378.668 716.486 376.705 716.209 374.659C715.933 372.613 715.628 370.705 715.297 368.935ZM732.467 369.018L738.107 367.774C738.992 369.433 739.822 371.258 740.596 373.249C741.425 375.184 742.172 377.064 742.835 378.889C743.554 380.714 744.052 382.318 744.329 383.7L738.273 385.276C737.997 383.894 737.554 382.262 736.946 380.382C736.338 378.502 735.647 376.567 734.872 374.576C734.098 372.585 733.296 370.733 732.467 369.018ZM749.388 368.355L754.946 366.198C756.384 367.968 757.794 369.848 759.176 371.839C760.614 373.829 761.941 375.82 763.158 377.811C764.375 379.746 765.315 381.488 765.978 383.037L760.089 385.525C759.481 383.977 758.596 382.207 757.434 380.216C756.273 378.226 754.974 376.207 753.536 374.161C752.153 372.06 750.771 370.124 749.388 368.355ZM701.776 366.696L707.665 368.272C706.338 371.479 704.651 374.714 702.605 377.977C700.615 381.239 698.486 383.949 696.218 386.106L690.578 383.368C692.79 381.488 694.891 379.027 696.882 375.986C698.873 372.889 700.504 369.792 701.776 366.696Z" fill="black"/>
<path d="M605.141 378.474H679.546V383.534H605.141V378.474ZM605.639 324.558H679.131V329.701H605.639V324.558ZM611.362 366.281H674.32V371.258H611.362V366.281ZM638.901 316.18H645.122V380.88H638.901V316.18ZM667.767 310.374L671.085 315.185C667.38 315.848 663.177 316.456 658.477 317.009C653.832 317.507 648.938 317.95 643.795 318.337C638.652 318.668 633.482 318.973 628.284 319.249C623.085 319.47 618.053 319.608 613.187 319.664C613.187 318.945 613.021 318.115 612.689 317.175C612.413 316.18 612.136 315.378 611.86 314.77C616.671 314.604 621.648 314.41 626.79 314.189C631.989 313.913 637.076 313.609 642.053 313.277C647.085 312.89 651.786 312.447 656.154 311.95C660.578 311.452 664.449 310.927 667.767 310.374ZM620.072 349.691V355.995H664.864V349.691H620.072ZM620.072 339.24V345.461H664.864V339.24H620.072ZM614.016 334.76H671.168V360.557H614.016V334.76Z" fill="black"/>
<path d="M559.519 314.604H580.257V320.493H559.519V314.604ZM555.87 314.604H561.925V341.231C561.925 344.659 561.759 348.364 561.427 352.346C561.095 356.272 560.459 360.253 559.519 364.29C558.635 368.327 557.28 372.226 555.455 375.986C553.63 379.691 551.224 383.092 548.238 386.189C547.962 385.802 547.519 385.332 546.911 384.779C546.358 384.281 545.75 383.783 545.086 383.285C544.478 382.788 543.953 382.428 543.51 382.207C546.275 379.276 548.487 376.124 550.146 372.751C551.805 369.322 553.049 365.811 553.879 362.217C554.708 358.567 555.234 354.972 555.455 351.433C555.731 347.839 555.87 344.438 555.87 341.231V314.604ZM577.519 314.604H583.657V374.41C583.657 375.737 583.685 376.815 583.74 377.645C583.851 378.419 584.017 378.889 584.238 379.055C584.68 379.387 585.178 379.553 585.731 379.553C586.008 379.553 586.367 379.553 586.809 379.553C587.307 379.553 587.75 379.553 588.137 379.553C588.911 379.553 589.464 379.359 589.796 378.972C590.017 378.696 590.183 378.364 590.293 377.977C590.459 377.534 590.57 376.815 590.625 375.82C590.736 374.88 590.819 373.359 590.874 371.258C590.929 369.157 590.957 366.723 590.957 363.958C591.62 364.567 592.395 365.12 593.279 365.617C594.164 366.06 594.994 366.392 595.768 366.613C595.768 368.161 595.713 369.82 595.602 371.59C595.547 373.304 595.464 374.88 595.353 376.318C595.298 377.756 595.215 378.834 595.104 379.553C594.717 381.82 593.943 383.368 592.782 384.198C592.173 384.585 591.482 384.861 590.708 385.027C589.989 385.249 589.215 385.359 588.385 385.359C587.777 385.359 587.058 385.359 586.229 385.359C585.399 385.359 584.708 385.359 584.155 385.359C583.381 385.359 582.551 385.221 581.667 384.944C580.782 384.723 580.035 384.336 579.427 383.783C578.929 383.341 578.542 382.815 578.266 382.207C577.989 381.599 577.796 380.659 577.685 379.387C577.575 378.06 577.519 376.235 577.519 373.912V314.604ZM518.875 327.627H550.976V333.599H518.875V327.627ZM532.644 309.876H538.699V386.106H532.644V309.876ZM532.395 331.36L536.46 332.687C535.685 336.06 534.718 339.544 533.556 343.138C532.395 346.733 531.096 350.244 529.658 353.673C528.22 357.101 526.699 360.281 525.096 363.212C523.492 366.143 521.833 368.631 520.119 370.677C519.787 369.848 519.289 368.908 518.626 367.857C517.962 366.751 517.381 365.811 516.884 365.037C518.432 363.157 519.981 360.945 521.529 358.401C523.133 355.802 524.598 352.982 525.925 349.94C527.308 346.899 528.552 343.802 529.658 340.65C530.764 337.498 531.676 334.401 532.395 331.36ZM538.119 340.484C538.727 341.037 539.639 341.977 540.856 343.304C542.128 344.631 543.483 346.097 544.92 347.701C546.358 349.304 547.658 350.797 548.819 352.18C550.036 353.507 550.893 354.447 551.39 355L547.492 360.143C546.884 359.147 546.026 357.903 544.92 356.41C543.87 354.862 542.708 353.258 541.437 351.599C540.165 349.885 538.948 348.309 537.787 346.871C536.626 345.433 535.685 344.3 534.967 343.47L538.119 340.484Z" fill="black"/>
<path d="M432.94 366.944H506.93V372.087H432.94V366.944ZM449.198 341.645V346.539H491.667V341.645H449.198ZM449.198 350.52V355.497H491.667V350.52H449.198ZM449.198 332.935V337.663H491.667V332.935H449.198ZM442.976 328.705H498.137V359.728H442.976V328.705ZM481.548 358.649H487.935V386.022H481.548V358.649ZM441.898 316.014H468.691V321.157H441.898V316.014ZM473.833 316.014H506.266V321.157H473.833V316.014ZM443.474 309.461L449.281 311.037C447.732 314.631 445.769 318.143 443.391 321.571C441.069 324.945 438.691 327.793 436.258 330.115C435.926 329.783 435.428 329.396 434.765 328.954C434.156 328.511 433.52 328.097 432.857 327.71C432.248 327.267 431.695 326.908 431.198 326.631C433.686 324.475 436.009 321.903 438.165 318.917C440.377 315.876 442.147 312.724 443.474 309.461ZM476.073 309.461L482.045 310.871C480.718 314.466 478.948 317.839 476.737 320.991C474.58 324.143 472.313 326.797 469.935 328.954C469.548 328.622 468.995 328.263 468.276 327.876C467.612 327.488 466.921 327.129 466.202 326.797C465.538 326.41 464.958 326.106 464.46 325.885C466.949 323.894 469.216 321.461 471.262 318.585C473.308 315.654 474.912 312.613 476.073 309.461ZM447.207 320.078L452.433 318.336C453.428 319.608 454.423 321.074 455.419 322.733C456.414 324.336 457.133 325.747 457.575 326.963L452.184 328.954C451.741 327.793 451.05 326.382 450.11 324.723C449.17 323.009 448.202 321.461 447.207 320.078ZM482.045 319.83L487.105 317.673C488.432 318.945 489.787 320.438 491.17 322.152C492.607 323.811 493.658 325.304 494.322 326.631L489.096 329.037C488.488 327.765 487.492 326.272 486.11 324.558C484.783 322.788 483.428 321.212 482.045 319.83ZM454.092 358.566H460.396V365.285C460.396 367.055 460.119 368.88 459.566 370.76C459.068 372.64 458.045 374.52 456.497 376.4C454.949 378.225 452.709 379.967 449.778 381.626C446.847 383.34 442.976 384.889 438.165 386.271C437.723 385.608 437.115 384.806 436.341 383.866C435.622 382.926 434.93 382.179 434.267 381.626C438.746 380.52 442.285 379.304 444.884 377.976C447.539 376.594 449.529 375.156 450.857 373.663C452.184 372.17 453.041 370.705 453.428 369.267C453.87 367.774 454.092 366.391 454.092 365.119V358.566Z" fill="black"/>
<path d="M353.392 315.267L357.457 311.286C359.005 312.502 360.609 313.857 362.268 315.35C363.982 316.843 365.586 318.336 367.079 319.829C368.627 321.267 369.844 322.567 370.728 323.728L366.498 328.373C365.613 327.157 364.424 325.802 362.931 324.309C361.493 322.76 359.945 321.184 358.286 319.581C356.627 317.977 354.996 316.539 353.392 315.267ZM358.286 384.612L357.042 378.474L358.867 375.82L375.539 364.456C375.65 365.009 375.816 365.645 376.037 366.364C376.314 367.027 376.59 367.691 376.866 368.354C377.143 369.018 377.392 369.543 377.613 369.93C373.631 372.695 370.452 374.963 368.074 376.732C365.696 378.446 363.844 379.801 362.516 380.797C361.245 381.792 360.304 382.566 359.696 383.119C359.088 383.672 358.618 384.17 358.286 384.612ZM345.844 335.922H362.848V342.06H345.844V335.922ZM372.885 337.415H421.576V343.802H372.885V337.415ZM393.954 310.125H400.507V386.188H393.954V310.125ZM358.286 384.612C358.065 384.059 357.761 383.396 357.374 382.622C356.986 381.903 356.572 381.184 356.129 380.465C355.742 379.801 355.328 379.276 354.885 378.889C355.715 378.336 356.599 377.479 357.539 376.317C358.535 375.101 359.033 373.608 359.033 371.838V335.922H365.337V377.479C365.337 377.479 365.088 377.645 364.59 377.976C364.092 378.308 363.484 378.751 362.765 379.304C362.102 379.801 361.41 380.382 360.692 381.046C360.028 381.709 359.447 382.317 358.95 382.87C358.507 383.479 358.286 384.059 358.286 384.612Z" fill="black"/>
<path d="M259.66 346.954H334.977V353.175H259.66V346.954ZM294.167 333.599H300.637V378.143C300.637 380.244 300.305 381.82 299.641 382.871C299.033 383.921 297.955 384.696 296.406 385.193C294.858 385.691 292.701 386.023 289.936 386.189C287.227 386.354 283.881 386.41 279.9 386.354C279.789 385.746 279.568 385.055 279.236 384.281C278.96 383.562 278.628 382.788 278.241 381.958C277.909 381.184 277.577 380.52 277.245 379.967C279.457 380.023 281.559 380.05 283.549 380.05C285.595 380.106 287.337 380.133 288.775 380.133C290.268 380.133 291.319 380.133 291.927 380.133C292.812 380.023 293.393 379.829 293.669 379.553C294.001 379.332 294.167 378.834 294.167 378.06V333.599ZM268.287 315.599H322.369V321.821H268.287V315.599ZM320.296 315.599H321.872L323.282 315.268L328.01 318.834C325.521 321.323 322.618 323.867 319.3 326.466C316.038 329.009 312.637 331.415 309.097 333.682C305.614 335.949 302.268 337.913 299.061 339.572C298.729 339.129 298.314 338.631 297.816 338.078C297.374 337.525 296.876 337 296.323 336.502C295.826 335.949 295.383 335.507 294.996 335.175C298.038 333.682 301.162 331.913 304.369 329.867C307.577 327.765 310.591 325.608 313.411 323.397C316.231 321.129 318.526 319.028 320.296 317.092V315.599Z" fill="black"/>
<path d="M190.232 324.391V328.954H231.458V324.391H190.232ZM190.232 316.262V320.742H231.458V316.262H190.232ZM184.177 312.53H237.679V332.686H184.177V312.53ZM188.573 356.907V361.718H233.946V356.907H188.573ZM188.573 348.612V353.258H233.946V348.612H188.573ZM182.684 344.714H240.084V365.534H182.684V344.714ZM207.817 346.124H213.872V381.792H207.817V346.124ZM173.808 336.253H248.213V340.981H173.808V336.253ZM180.361 370.096H241.909V374.492H180.361V370.096ZM173.394 379.303H248.711V384.114H173.394V379.303Z" fill="black"/>
<path d="M100.482 309.792L106.869 311.369C105.874 313.636 104.795 316.014 103.634 318.502C102.528 320.935 101.367 323.258 100.15 325.47C98.9889 327.682 97.8553 329.672 96.7493 331.442L91.3577 329.949C92.4636 328.124 93.5696 326.05 94.6756 323.728C95.8369 321.35 96.9152 318.944 97.9106 316.511C98.9613 314.023 99.8184 311.783 100.482 309.792ZM86.5466 327.461C89.4222 327.35 92.7401 327.239 96.5005 327.129C100.261 326.963 104.27 326.797 108.528 326.631C112.786 326.41 117.072 326.216 121.385 326.05L121.302 331.525C117.21 331.801 113.09 332.05 108.943 332.272C104.851 332.493 100.924 332.714 97.164 332.935C93.459 333.156 90.0858 333.35 87.0443 333.516L86.5466 327.461ZM91.5235 339.405H117.818V344.714H97.3299V386.105H91.5235V339.405ZM114.998 339.405H121.136V378.972C121.136 380.575 120.943 381.819 120.556 382.704C120.168 383.644 119.394 384.391 118.233 384.944C117.072 385.386 115.579 385.663 113.754 385.773C111.929 385.884 109.717 385.939 107.118 385.939C106.952 385.11 106.675 384.142 106.288 383.036C105.901 381.93 105.487 380.99 105.044 380.216C106.98 380.271 108.749 380.299 110.353 380.299C111.957 380.354 113.063 380.354 113.671 380.299C114.224 380.299 114.583 380.188 114.749 379.967C114.915 379.801 114.998 379.442 114.998 378.889V339.405ZM94.3438 351.847H118.233V356.741H94.3438V351.847ZM94.3438 364.29H118.233V369.184H94.3438V364.29ZM128.933 310.041H135.154V337.497C135.154 338.824 135.403 339.682 135.901 340.069C136.454 340.456 137.698 340.649 139.634 340.649C140.021 340.649 140.795 340.649 141.956 340.649C143.173 340.649 144.5 340.649 145.938 340.649C147.376 340.649 148.73 340.649 150.002 340.649C151.274 340.649 152.187 340.649 152.74 340.649C153.846 340.649 154.675 340.428 155.228 339.986C155.781 339.488 156.168 338.576 156.389 337.248C156.611 335.866 156.776 333.792 156.887 331.027C157.385 331.359 157.938 331.691 158.546 332.023C159.21 332.354 159.901 332.659 160.62 332.935C161.339 333.156 161.975 333.322 162.528 333.433C162.306 336.806 161.892 339.433 161.283 341.313C160.675 343.193 159.735 344.493 158.463 345.212C157.246 345.93 155.532 346.29 153.32 346.29C152.933 346.29 152.242 346.29 151.247 346.29C150.306 346.29 149.2 346.29 147.929 346.29C146.712 346.29 145.468 346.29 144.196 346.29C142.979 346.29 141.901 346.29 140.961 346.29C140.021 346.29 139.385 346.29 139.053 346.29C136.399 346.29 134.325 346.041 132.832 345.543C131.394 345.046 130.371 344.161 129.763 342.889C129.21 341.617 128.933 339.848 128.933 337.58V310.041ZM154.399 316.097L158.546 320.742C156.168 321.792 153.541 322.871 150.666 323.977C147.79 325.027 144.832 326.023 141.79 326.963C138.749 327.903 135.79 328.788 132.915 329.617C132.804 329.009 132.555 328.29 132.168 327.461C131.837 326.576 131.477 325.829 131.09 325.221C133.8 324.391 136.592 323.451 139.468 322.401C142.343 321.35 145.081 320.299 147.68 319.249C150.279 318.143 152.518 317.092 154.399 316.097ZM128.933 348.612H135.072V376.649C135.072 377.976 135.348 378.861 135.901 379.303C136.509 379.69 137.809 379.884 139.8 379.884C140.242 379.884 141.071 379.884 142.288 379.884C143.505 379.884 144.859 379.884 146.353 379.884C147.901 379.884 149.311 379.884 150.583 379.884C151.91 379.884 152.878 379.884 153.486 379.884C154.647 379.884 155.532 379.635 156.14 379.137C156.749 378.64 157.164 377.617 157.385 376.068C157.606 374.465 157.772 372.087 157.882 368.935C158.657 369.432 159.569 369.903 160.62 370.345C161.726 370.787 162.693 371.119 163.523 371.34C163.302 375.045 162.887 377.921 162.279 379.967C161.67 382.013 160.703 383.423 159.375 384.197C158.104 385.027 156.306 385.442 153.984 385.442C153.597 385.442 152.905 385.442 151.91 385.442C150.915 385.442 149.781 385.442 148.509 385.442C147.237 385.442 145.938 385.442 144.611 385.442C143.283 385.442 142.122 385.442 141.127 385.442C140.187 385.442 139.551 385.442 139.219 385.442C136.565 385.442 134.463 385.193 132.915 384.695C131.422 384.197 130.371 383.313 129.763 382.041C129.21 380.769 128.933 378.972 128.933 376.649V348.612ZM155.394 353.092L159.458 357.737C157.191 359.064 154.564 360.336 151.578 361.552C148.592 362.714 145.495 363.82 142.288 364.87C139.081 365.866 135.984 366.778 132.998 367.608C132.832 366.999 132.555 366.253 132.168 365.368C131.781 364.483 131.422 363.737 131.09 363.128C133.966 362.299 136.896 361.331 139.883 360.225C142.924 359.119 145.8 357.958 148.509 356.741C151.219 355.525 153.514 354.308 155.394 353.092ZM110.851 317.673L115.993 315.682C117.486 317.562 118.924 319.636 120.307 321.903C121.744 324.115 123.044 326.299 124.205 328.456C125.367 330.613 126.251 332.548 126.86 334.262L121.468 336.668C120.915 334.954 120.058 332.99 118.897 330.778C117.791 328.567 116.519 326.327 115.081 324.06C113.698 321.792 112.288 319.663 110.851 317.673Z" fill="black"/>
<path d="M13.1371 351.931H64.2334V386.023H57.9293V357.074H19.2753V386.188H13.1371V351.931ZM16.6209 364.871H60.1689V369.765H16.6209V364.871ZM9.98501 316.761H36.5286V321.82H9.98501V316.761ZM1.10951 329.701H38.6852V334.843H1.10951V329.701ZM16.6209 377.977H60.1689V383.119H16.6209V377.977ZM18.3628 318.502H24.2522V326.714C24.2522 328.705 24.031 330.862 23.5886 333.184C23.1462 335.507 22.2338 337.885 20.8513 340.318C19.5241 342.751 17.5333 345.129 14.879 347.452C12.2246 349.719 8.71313 351.848 4.34451 353.839C3.90212 353.175 3.29383 352.428 2.51964 351.599C1.74545 350.714 0.998917 350.023 0.280029 349.525C4.48276 347.866 7.8007 346.069 10.2339 344.134C12.667 342.143 14.4642 340.124 15.6255 338.078C16.7868 336.032 17.5333 334.041 17.8651 332.106C18.1969 330.115 18.3628 328.318 18.3628 326.714V318.502ZM10.3998 309.627L16.1232 310.788C15.0172 314.327 13.5518 317.756 11.7269 321.074C9.95736 324.337 8.07719 327.101 6.08643 329.369C5.69934 329.037 5.20164 328.677 4.59336 328.29C3.98507 327.903 3.34913 327.516 2.68554 327.129C2.07725 326.742 1.55191 326.466 1.10951 326.3C3.21088 324.143 5.0634 321.599 6.66707 318.668C8.27074 315.737 9.51497 312.724 10.3998 309.627ZM22.4273 336.005C23.2015 336.447 24.3075 337.111 25.7452 337.995C27.2383 338.825 28.7867 339.737 30.3904 340.733C32.0493 341.728 33.5701 342.668 34.9525 343.553C36.3903 344.382 37.4133 345.018 38.0216 345.461L33.7083 349.691C32.9341 349.083 31.8558 348.281 30.4733 347.286C29.1461 346.29 27.7084 345.24 26.16 344.134C24.6669 343.028 23.2015 342.005 21.7637 341.064C20.3812 340.124 19.2476 339.378 18.3628 338.825L22.4273 336.005ZM47.9755 322.235V339.903H65.2288V322.235H47.9755ZM42.1691 316.595H71.284V345.544H42.1691V316.595Z" fill="black"/>
</svg>
