<svg width="1025" height="964" viewBox="0 0 1025 964" fill="none" xmlns="http://www.w3.org/2000/svg">
<path fill-rule="evenodd" clip-rule="evenodd" d="M650.277 944.614C644.361 951.373 636.706 957.691 629.489 963.517C582.863 915.334 528.119 861.932 476.088 861.932C443.828 861.932 420.594 886.487 393.488 903.812C355.871 927.853 304.271 941.393 260.051 923.747C236.268 914.718 213.224 901.418 196.003 879.811C230.806 903.812 282.925 907.038 322.215 890.737C365.644 872.722 409.846 848.801 459.338 848.801C532.296 848.801 601.635 898.146 650.277 944.614ZM111.057 793.071C159.361 848.051 238.145 830.364 302.625 844.094C311.602 846.005 320.035 848.986 329.668 847.507C322.002 842.647 311.841 842.098 302.984 838.763C252.951 819.916 245.15 766.375 217.77 729.524C252.742 752.771 281.717 784.6 314.421 814.511C337.183 835.328 365.541 844.234 394.951 850.218C387.883 852.8 378.638 852.192 371.027 854.079C318.198 867.183 259.627 887.87 203.414 869.32C167.138 857.35 129.387 829.002 111.055 793.07L111.057 793.071ZM33.6285 665.823C63.759 734.033 139.459 739.376 189.793 781.218C199.363 789.177 208.85 796.496 219.364 801.401L219.907 800.851C208.292 790.342 195.722 777.819 186.727 764.75C157.958 722.955 167.531 665.826 145.351 621.515C165.503 645.642 184.405 670.488 196.01 698.111C214.683 742.565 221.027 793.283 262.908 827.063C217.579 812.109 165.288 815.086 124.471 788.353C81.5641 760.253 41.7994 715.901 33.6285 665.822V665.823ZM1.35257 527.825C5.71023 587.92 69.6962 620.021 100.207 669.421C106.722 679.972 113.429 690.862 122.891 699.383C121.416 692.983 116.151 687.314 113.253 681.039C103.467 659.842 99.0376 635.313 101.48 610.092C104.453 579.405 117.248 550.907 112.338 518.625C138.635 575.382 130.151 646.338 145.351 707.707C148.713 721.283 156.981 733.163 162.075 746.021C136.237 726.367 102.376 708.921 74.0138 686.568C46.5851 664.95 22.7771 639.613 10.4009 606.644C1.48229 582.887 -0.836966 554.55 1.35257 527.822V527.825ZM3.14086 417.1C6.22653 403.689 8.58859 389.807 14.4242 377.504C3.37491 434.193 41.0932 475.143 53.9682 524.188C58.8221 542.67 60.482 562.31 67.9575 579.556C68.6557 579.929 69.2588 579.204 69.6895 578.647C51.0805 526.45 78.3594 478.21 104.935 437.067C111.921 426.252 115.282 413.659 118.543 400.928C121.416 424.558 116.387 451.908 112.014 476.293C106.386 507.685 95.6563 537.107 87.1269 567.394C81.5106 586.315 82.9913 607.67 85.8723 627.493L83.1651 625.333C63.3804 588.812 24.346 560.281 12.557 520.422C3.13549 488.565 -3.38227 451.761 3.14086 417.103V417.1ZM24.0076 356.118C24.0076 313.218 40.7133 278.224 65.7719 246.274C66.5009 245.912 67.0172 245.183 67.9575 245.354C40.3696 287.311 65.4804 340.275 61.9332 387.865L58.2951 436.71C58.8342 437.065 58.8342 438.53 60.1169 437.969C61.7473 432.524 62.2409 426.731 63.1892 421.107C69.83 381.73 104.412 354.324 133.738 326.523C140.675 319.947 145.755 312.171 149.025 303.816C146.587 323.431 141.115 343.539 132.309 361.361C109.735 407.056 66.1371 443.942 58.2951 495.873C54.4925 446.105 24.0076 409.108 24.0076 356.118ZM96.721 211.406C110.594 196.029 126.14 184.048 144.647 179.31C108.707 204.023 110.657 248.184 99.6555 285.111C95.6322 298.614 89.7177 311.264 86.5758 325.219L87.484 325.945C93.4641 310.17 103.724 295.004 117.09 282.395C142.368 258.546 180.375 244.113 192.884 209.228C192.311 257.705 150.986 294.553 113.242 323.062C96.313 335.849 81.9266 353.016 73.1471 371.012C74.613 357.618 75.2791 346.476 74.0847 333.402C70.2099 291.056 67.6953 243.582 96.721 211.406ZM242.601 129.906C215.928 153.309 198.128 183.432 177.637 210.51C160.596 233.034 137.209 246.988 117.098 265.887C127.956 243.367 129.959 217.561 143.746 195.775C167.32 158.52 206.282 144.058 242.601 129.906Z" fill="black"/>
<path fill-rule="evenodd" clip-rule="evenodd" d="M374.735 944.614C380.652 951.373 388.307 957.691 395.523 963.517C442.151 915.334 496.894 861.932 548.925 861.932C581.185 861.932 604.419 886.487 631.526 903.812C669.141 927.853 720.743 941.393 764.961 923.747C788.745 914.718 811.788 901.418 829.01 879.811C794.206 903.812 742.088 907.038 702.798 890.737C659.369 872.722 615.166 848.801 565.674 848.801C492.717 848.801 423.378 898.146 374.735 944.614ZM913.955 793.071C865.652 848.051 786.867 830.364 722.386 844.094C713.412 846.005 704.978 848.986 695.344 847.507C703.011 842.646 713.172 842.098 722.029 838.763C772.062 819.916 779.863 766.375 807.243 729.524C772.271 752.771 743.296 784.6 710.592 814.511C687.83 835.328 659.472 844.234 630.062 850.218C637.13 852.8 646.375 852.192 653.987 854.079C706.815 867.183 765.385 887.87 821.599 869.32C857.875 857.35 895.625 829.002 913.958 793.07L913.955 793.071ZM991.384 665.823C961.254 734.032 885.554 739.375 835.22 781.218C825.65 789.177 816.163 796.496 805.649 801.401L805.106 800.851C816.721 790.342 829.291 777.819 838.286 764.75C867.055 722.955 857.482 665.826 879.662 621.514C859.508 645.641 840.608 670.488 829.003 698.111C810.33 742.565 803.986 793.283 762.104 827.063C807.433 812.109 859.724 815.086 900.542 788.353C943.448 760.252 983.212 715.901 991.384 665.822V665.823ZM1023.66 527.825C1019.3 587.92 955.316 620.021 924.806 669.421C918.291 679.971 911.584 690.862 902.121 699.383C903.597 692.983 908.861 687.314 911.759 681.039C921.545 659.842 925.974 635.313 923.532 610.092C920.559 579.405 907.765 550.907 912.675 518.625C886.378 575.382 894.861 646.338 879.662 707.707C876.3 721.283 868.031 733.163 862.936 746.021C888.776 726.366 922.637 708.921 950.999 686.568C978.427 664.95 1002.23 639.612 1014.61 606.644C1023.53 582.887 1025.85 554.55 1023.66 527.822V527.825ZM1021.87 417.1C1018.79 403.689 1016.42 389.806 1010.59 377.503C1021.64 434.192 983.92 475.143 971.044 524.188C966.191 542.67 964.531 562.31 957.055 579.556C956.357 579.929 955.753 579.204 955.323 578.646C973.932 526.45 946.653 478.209 920.078 437.066C913.092 426.252 909.73 413.659 906.469 400.928C903.597 424.558 908.626 451.908 912.998 476.293C918.627 507.684 929.356 537.106 937.886 567.393C943.501 586.315 942.021 607.67 939.14 627.493L941.848 625.333C961.632 588.812 1000.67 560.281 1012.46 520.422C1021.88 488.565 1028.39 451.761 1021.87 417.103V417.1ZM1001.01 356.118C1001.01 313.218 984.3 278.223 959.24 246.274C958.511 245.911 957.995 245.182 957.055 245.353C984.642 287.311 959.532 340.275 963.079 387.864L966.718 436.709C966.178 437.065 966.178 438.53 964.895 437.969C963.266 432.523 962.772 426.731 961.823 421.107C955.182 381.73 920.601 354.323 891.275 326.522C884.337 319.946 879.258 312.171 875.988 303.816C878.425 323.43 883.898 343.538 892.704 361.361C915.277 407.056 958.876 443.942 966.718 495.872C970.519 446.105 1001.01 409.108 1001.01 356.118ZM928.291 211.406C914.419 196.029 898.873 184.048 880.364 179.31C916.305 204.021 914.355 248.184 925.357 285.111C929.38 298.613 935.295 311.264 938.437 325.218L937.528 325.945C931.548 310.17 921.288 295.004 907.923 282.394C882.643 258.546 844.636 244.113 832.128 209.228C832.702 257.705 874.027 294.553 911.77 323.061C928.7 335.848 943.086 353.015 951.866 371.011C950.399 357.617 949.734 346.475 950.928 333.402C954.802 291.056 957.317 243.581 928.291 211.406ZM782.412 129.906C809.085 153.309 826.885 183.431 847.376 210.51C864.417 233.033 887.802 246.987 907.914 265.887C897.057 243.366 895.054 217.561 881.267 195.774C857.692 158.52 818.73 144.058 782.412 129.906Z" fill="black"/>
<path fill-rule="evenodd" clip-rule="evenodd" d="M287.989 549.498C287.989 523.033 309.586 501.579 336.228 501.579C362.869 501.579 384.466 523.033 384.466 549.498C384.466 575.963 362.869 597.417 336.228 597.417C309.586 597.417 287.989 575.963 287.989 549.498Z" fill="black"/>
<path fill-rule="evenodd" clip-rule="evenodd" d="M291.184 739.576C291.184 718.227 308.347 700.921 329.519 700.921C350.691 700.921 367.854 718.227 367.854 739.576C367.854 760.924 350.691 778.23 329.519 778.23C308.347 778.23 291.184 760.924 291.184 739.576Z" fill="black"/>
<path fill-rule="evenodd" clip-rule="evenodd" d="M583.169 283.709C583.169 262.537 600.333 245.374 621.504 245.374C642.676 245.374 659.839 262.537 659.839 283.709C659.839 304.881 642.676 322.044 621.504 322.044C600.333 322.044 583.169 304.881 583.169 283.709Z" fill="black"/>
<path fill-rule="evenodd" clip-rule="evenodd" d="M737.148 409.575C737.148 385.58 756.6 366.129 780.595 366.129C804.589 366.129 824.041 385.58 824.041 409.575C824.041 433.57 804.589 453.022 780.595 453.022C756.6 453.022 737.148 433.57 737.148 409.575Z" fill="black"/>
<path fill-rule="evenodd" clip-rule="evenodd" d="M727.564 223.331C727.564 204.806 742.58 189.788 761.108 189.788C779.635 189.788 794.651 204.806 794.651 223.331C794.651 241.856 779.635 256.874 761.108 256.874C742.58 256.874 727.564 241.856 727.564 223.331Z" fill="black"/>
<path fill-rule="evenodd" clip-rule="evenodd" d="M597.226 680.157C597.226 644.694 625.974 615.945 661.437 615.945C696.899 615.945 725.648 644.694 725.648 680.157C725.648 715.619 696.899 744.368 661.437 744.368C625.974 744.368 597.226 715.619 597.226 680.157Z" fill="black"/>
<path fill-rule="evenodd" clip-rule="evenodd" d="M417.051 454.938C417.051 402.361 459.673 359.74 512.249 359.74C564.826 359.74 607.448 402.361 607.448 454.938C607.448 507.516 564.826 550.137 512.249 550.137C459.673 550.137 417.051 507.516 417.051 454.938Z" fill="black"/>
<path fill-rule="evenodd" clip-rule="evenodd" d="M477.748 34.2116C477.748 15.3333 493.052 0.029541 511.93 0.029541C530.809 0.029541 546.112 15.3333 546.112 34.2116C546.112 53.0903 530.809 68.3936 511.93 68.3936C493.052 68.3936 477.748 53.0903 477.748 34.2116Z" fill="black"/>
<path fill-rule="evenodd" clip-rule="evenodd" d="M220.119 305.091C217.349 295.431 230.851 282.344 253.65 270.375C255.988 247.987 271.584 228.187 294.55 221.602C317.515 215.017 341.234 223.543 355.08 241.29C380.758 239.359 399.143 243.303 401.913 252.963C404.792 263.005 390.086 276.751 365.631 289.095C361.108 308.545 346.455 325.029 325.897 330.924C305.339 336.819 284.177 330.605 270.034 316.506C242.754 318.998 222.999 315.133 220.119 305.091ZM257.1 296.555C256.528 295.052 256.014 293.512 255.563 291.937C254.322 287.611 253.618 283.259 253.411 278.951C242.142 286.168 236.012 293.296 237.578 298.755C240.836 310.118 276.199 309.947 316.563 298.373C356.927 286.799 387.008 268.204 383.749 256.841C382.184 251.382 373.208 248.585 359.828 248.436C361.935 252.2 363.644 256.264 364.884 260.589C365.36 262.249 365.757 263.913 366.078 265.577C354.941 274.02 336.246 282.759 314.229 289.073C291.835 295.494 271.027 297.966 257.1 296.555Z" fill="black"/>
<path fill-rule="evenodd" clip-rule="evenodd" d="M521.423 86.931H503.53L503.531 330.617L506.867 330.469C508.727 330.386 510.597 330.344 512.477 330.344C581.114 330.344 636.752 385.956 636.752 454.553C636.752 523.149 581.114 578.761 512.477 578.761C443.84 578.761 388.202 523.149 388.202 454.553C388.202 395.689 429.174 346.38 484.176 333.579L486.646 333.004L486.646 244.427L483.011 244.933C380.028 259.275 300.756 347.687 300.756 454.619C300.756 571.549 395.547 666.34 512.477 666.34C629.406 666.34 724.197 571.549 724.197 454.619C724.197 352.676 652.151 267.567 556.199 247.419V194.986C680.777 215.809 775.725 324.129 775.725 454.619C775.725 600.007 657.864 717.867 512.477 717.867C367.089 717.867 249.229 600.007 249.229 454.619C249.229 403.817 263.617 356.384 288.538 316.163L292.233 310.201L285.31 311.327C280.282 312.146 275.429 312.778 270.798 313.226L269.155 313.385L268.334 314.816C244.71 355.984 231.203 403.696 231.203 454.552C231.203 609.859 357.135 735.759 512.477 735.759C667.819 735.759 793.751 609.859 793.751 454.552C793.751 309.156 683.38 189.536 541.831 174.859L538.307 174.494V262.479L541.035 262.882C634.467 276.691 706.172 357.248 706.172 454.553C706.172 561.565 619.45 648.314 512.477 648.314C405.504 648.314 318.783 561.565 318.783 454.553C318.783 362.584 382.838 285.576 468.754 265.748V319.173C411.633 337.626 370.31 391.258 370.31 454.553C370.31 533.105 433.96 596.787 512.477 596.787C590.995 596.787 654.645 533.105 654.645 454.553C654.645 379.006 595.774 317.215 521.423 312.596V86.931Z" fill="black"/>
<path fill-rule="evenodd" clip-rule="evenodd" d="M352.824 244.681L353.733 244.6L354.462 244.052C391.279 216.379 435.585 198.139 483.796 192.916L486.646 192.607V104.713L483.188 104.999C303.208 119.884 161.784 270.699 161.784 454.552C161.784 648.271 318.793 805.312 512.477 805.312C706.16 805.312 863.17 648.271 863.17 454.552C863.17 270.698 721.746 119.884 541.765 104.999L538.307 104.713V122.793L541.23 123.043C711.568 137.615 845.277 280.475 845.277 454.553C845.277 638.316 696.278 787.287 512.477 787.287C328.675 787.287 179.676 638.316 179.676 454.553C179.676 285.608 305.617 146.066 468.754 124.664V176.723C415.403 185.049 367.021 208.365 328.055 242.222L319.179 249.934L330.738 247.773C338.508 246.32 345.923 245.292 352.824 244.681Z" fill="black"/>
</svg>
