<svg width="519" height="1024" viewBox="0 0 519 1024" fill="none" xmlns="http://www.w3.org/2000/svg">
<path d="M17.8799 1.2808C17.8799 0.573433 18.4533 0 19.1607 0H38.3727C39.0801 0 39.6535 0.573434 39.6535 1.2808V202.366C39.6535 203.074 39.0801 203.647 38.3727 203.647H19.1607C18.4533 203.647 17.8799 203.074 17.8799 202.366V1.2808Z" fill="black"/>
<path d="M56.3039 133.844C56.3039 133.136 56.8773 132.563 57.5847 132.563H76.7967C77.5041 132.563 78.0775 133.136 78.0775 133.844V328.525C78.0775 329.233 77.5041 329.806 76.7967 329.806H57.5847C56.8773 329.806 56.3039 329.233 56.3039 328.525V133.844Z" fill="black"/>
<path d="M440.544 133.844C440.544 133.136 441.118 132.563 441.825 132.563H461.037C461.744 132.563 462.318 133.136 462.318 133.844V328.525C462.318 329.233 461.744 329.806 461.037 329.806H441.825C441.118 329.806 440.544 329.233 440.544 328.525V133.844Z" fill="black"/>
<path d="M478.968 1.2808C478.968 0.573433 479.542 0 480.249 0H499.461C500.168 0 500.742 0.573434 500.742 1.2808V202.366C500.742 203.074 500.168 203.647 499.461 203.647H480.249C479.542 203.647 478.968 203.074 478.968 202.366V1.2808Z" fill="black"/>
<path d="M17.8799 258.722C17.8799 258.014 18.4533 257.441 19.1607 257.441H38.3727C39.0801 257.441 39.6535 258.014 39.6535 258.722V792.175C39.6535 792.883 39.0801 793.456 38.3727 793.456H19.1607C18.4533 793.456 17.8799 792.883 17.8799 792.175V258.722Z" fill="black"/>
<path d="M478.968 258.722C478.968 258.014 479.542 257.441 480.249 257.441H499.461C500.168 257.441 500.742 258.014 500.742 258.722V792.175C500.742 792.883 500.168 793.456 499.461 793.456H480.249C479.542 793.456 478.968 792.883 478.968 792.175V258.722Z" fill="black"/>
<path d="M193.074 10.8868C194.693 10.8868 196.058 12.0959 196.253 13.7036L197.192 21.4534H213.202L213.798 19.1889C214.39 16.9383 216.425 15.3696 218.752 15.3696H299.549C301.876 15.3696 303.911 16.9383 304.503 19.1889L305.099 21.4534H321.109L322.049 13.7036C322.244 12.0959 323.608 10.8868 325.228 10.8868H460.717C461.424 10.8868 461.997 11.4602 461.997 12.1676V69.8036C461.997 70.511 461.424 71.0844 460.717 71.0844H325.247C323.619 71.0844 322.25 69.863 322.066 68.2458L321.109 59.8774H305.099L304.503 62.142C303.911 64.3926 301.876 65.9612 299.549 65.9612H218.752C216.425 65.9612 214.39 64.3926 213.798 62.142L213.202 59.8774H197.192L196.236 68.2458C196.051 69.863 194.682 71.0844 193.054 71.0844H57.5847C56.8773 71.0844 56.3039 70.511 56.3039 69.8036V12.1676C56.3039 11.4602 56.8773 10.8868 57.5847 10.8868H193.074ZM161.009 32.02C153.405 32.02 147.241 38.1844 147.241 45.7886C147.241 53.3928 153.405 59.5572 161.009 59.5572C168.614 59.5572 174.778 53.3928 174.778 45.7886C174.778 38.1844 168.614 32.02 161.009 32.02ZM161.009 35.222C166.845 35.222 171.576 39.9528 171.576 45.7886C171.576 51.6244 166.845 56.3552 161.009 56.3552C155.174 56.3552 150.443 51.6244 150.443 45.7886C150.443 39.9528 155.174 35.222 161.009 35.222Z" fill="black"/>
<path d="M178.007 223.653C178.529 223.209 179.308 223.255 179.775 223.757L235.804 284.072C236.917 285.271 238.447 285.998 240.079 286.104L264.143 287.673C265.959 287.792 267.638 288.677 268.762 290.107L269.15 290.601C270.036 291.729 270.518 293.123 270.518 294.558V297.495C270.518 299.311 271.289 301.041 272.638 302.256L278.219 307.278C279.333 308.28 280.992 308.377 282.214 307.51L287.996 303.406C289.202 302.551 290.836 302.631 291.951 303.601L295.876 307.015C296.789 307.808 298.114 307.907 299.135 307.258C300.193 306.584 301.575 306.719 302.484 307.585L312.66 317.276C313.633 318.203 313.727 319.723 312.876 320.763C312.083 321.732 312.104 323.132 312.926 324.077L316.172 327.81C317.18 328.968 317.223 330.679 316.275 331.887L307.762 342.742C306.224 344.703 306.321 347.488 307.992 349.338L346.34 391.783C346.75 392.238 347.424 392.338 347.949 392.023L352.567 389.252C353.083 388.943 353.744 389.034 354.157 389.47L364.307 400.2C364.531 400.438 364.657 400.753 364.657 401.08V411.232C364.657 411.58 364.799 411.913 365.05 412.155L372.041 418.877C372.558 419.374 372.565 420.199 372.058 420.706L370.796 421.969C370.555 422.209 370.42 422.535 370.42 422.874V426.978C370.42 427.293 370.536 427.597 370.746 427.832L404.94 466.104C405.183 466.376 405.531 466.531 405.896 466.531H406.999C407.359 466.531 407.702 466.682 407.944 466.947L424.052 484.546C424.504 485.041 424.499 485.801 424.04 486.289L420.676 489.862C420.166 490.404 419.302 490.399 418.799 489.85L402.457 472.022C402.24 471.786 402.12 471.477 402.12 471.156V469.58C402.12 469.266 402.005 468.963 401.797 468.729L359.595 421.174C359.352 420.9 359.004 420.743 358.637 420.743H354.039C353.665 420.743 353.31 420.906 353.066 421.19L350.552 424.123C350.051 424.708 349.15 424.721 348.632 424.15L335.208 409.356C334.594 408.68 333.489 408.845 333.1 409.672L331.478 413.119C331.398 413.29 331.356 413.476 331.356 413.665V421.746C331.356 422.125 331.524 422.484 331.814 422.728L342.777 431.914C343.049 432.141 343.214 432.471 343.234 432.825L346.036 483.58C346.066 484.111 345.764 484.606 345.278 484.822L335.318 489.248C334.856 489.453 334.558 489.912 334.558 490.418V499.645C334.558 499.971 334.683 500.285 334.906 500.522L344.467 510.681C344.684 510.911 344.808 511.214 344.815 511.531L347.035 612.389C347.042 612.695 347.158 612.988 347.362 613.216L355.111 621.859C355.281 622.048 355.39 622.283 355.426 622.534L364.598 687.054C364.636 687.324 364.587 687.599 364.459 687.839L360.044 696.081C359.92 696.311 359.87 696.574 359.901 696.834L367.485 761.618C367.519 761.914 367.656 762.189 367.871 762.394L384.42 778.234C387.954 781.617 389.953 786.296 389.953 791.188V792.815C389.953 793.523 389.379 794.096 388.672 794.096H339.681C336.852 794.096 334.558 791.802 334.558 788.973V749.775C334.558 749.651 334.54 749.528 334.504 749.409L319.921 700.588C319.86 700.384 319.75 700.199 319.6 700.049L312.389 692.838C312.229 692.677 312.113 692.477 312.056 692.258L297.136 635.437C297.109 635.331 297.095 635.221 297.095 635.112V617.733C297.095 617.481 297.02 617.233 296.879 617.023L293.363 611.749C293.29 611.638 293.233 611.517 293.197 611.389L261.176 498.842C261.02 498.291 260.517 497.911 259.944 497.911H254.84C254.265 497.911 253.76 498.294 253.606 498.848L222.931 608.899C222.852 609.184 222.675 609.434 222.432 609.604L220.153 611.199C219.81 611.439 219.606 611.831 219.606 612.249V630.943C219.606 631.057 219.591 631.17 219.561 631.279L203.029 692.001C202.981 692.18 202.894 692.346 202.775 692.488L194.804 701.992C194.689 702.128 194.605 702.287 194.555 702.458L180.908 749.431C180.877 749.536 180.86 749.643 180.857 749.752L179.724 789.121C179.644 791.891 177.375 794.096 174.603 794.096H127.388C126.681 794.096 126.108 793.523 126.108 792.815V788.789C126.108 785.194 127.423 781.723 129.805 779.03L147.935 758.535C148.108 758.339 148.217 758.094 148.248 757.834L155.199 698.119C155.229 697.857 155.179 697.591 155.053 697.359L149.372 686.895C149.236 686.645 149.187 686.356 149.233 686.076L160.613 616.848C160.662 616.549 160.816 616.277 161.046 616.081L168.896 609.394C169.175 609.156 169.339 608.811 169.346 608.445L171.247 511.509C171.252 511.206 171.366 510.914 171.567 510.687L180.542 500.516C180.748 500.282 180.862 499.98 180.862 499.668V483.073C180.862 482.956 180.767 482.862 180.651 482.862C175.292 482.862 170.782 478.853 170.152 473.532L161.447 399.958C161.378 399.376 161.712 398.822 162.259 398.612L172.709 394.593C173.334 394.352 174.039 394.634 174.326 395.24L179.234 405.601C179.446 406.049 179.897 406.334 180.392 406.334H182.463C183.17 406.334 183.744 405.76 183.744 405.053V370.792C183.744 370.084 183.17 369.511 182.463 369.511H172.476C172.305 369.511 172.135 369.545 171.977 369.612L165.925 372.172C164.583 372.74 163.14 373.033 161.683 373.033H158.13C154.926 373.033 151.934 371.436 150.151 368.775L137.363 349.699C134.912 346.042 134.311 341.45 135.739 337.285L160.087 266.268C160.257 265.772 160.108 265.221 159.709 264.88L145.818 252.974C145.22 252.461 145.222 251.536 145.822 251.025L178.007 223.653ZM322.711 395.127C320.589 395.127 318.868 396.847 318.868 398.969V404.092C318.868 406.214 320.589 407.935 322.711 407.935C324.833 407.935 326.553 406.214 326.553 404.092V398.969C326.553 396.847 324.833 395.127 322.711 395.127ZM320.045 383.583C318.091 382.757 315.836 383.67 315.009 385.625L311.487 393.95C310.661 395.904 311.574 398.159 313.529 398.985C315.483 399.812 317.737 398.898 318.564 396.944L322.086 388.619C322.913 386.665 321.999 384.41 320.045 383.583ZM313.31 379.036C311.674 377.685 309.252 377.915 307.901 379.551L301.817 386.916C300.466 388.552 300.696 390.974 302.332 392.326C303.968 393.677 306.39 393.446 307.742 391.81L313.826 384.446C315.177 382.81 314.946 380.388 313.31 379.036ZM275.001 184.435C278.538 184.435 281.405 187.302 281.405 190.839V205.7C281.405 206.871 281.084 208.019 280.477 209.02L275.001 218.056V222.219H283.326C284.033 222.219 284.607 222.792 284.607 223.5V233.106H296.134L316.307 242.071V245.273L342.883 258.401L375.587 333.233C378.7 340.354 377.516 348.624 372.53 354.586L351.906 379.25C350.68 380.715 348.452 380.789 347.133 379.407L343.829 375.945C343.225 375.312 342.388 374.954 341.513 374.954H340.474C339.562 374.954 338.693 374.566 338.086 373.886L314.043 346.98C312.96 345.769 312.957 343.939 314.035 342.723L322.826 332.803C323.867 331.629 323.904 329.873 322.913 328.657L318.932 323.771C318.15 322.811 318.151 321.433 318.935 320.474C319.8 319.417 319.702 317.871 318.711 316.932L303.654 302.653C302.64 301.692 301.079 301.602 299.961 302.44C298.856 303.269 297.318 303.191 296.302 302.256L292.04 298.336C290.891 297.279 289.147 297.205 287.912 298.161L282.287 302.516C281.041 303.48 279.279 303.395 278.132 302.315L275.688 300.015C275.045 299.41 274.681 298.566 274.681 297.683V293.765C274.681 292.228 274.128 290.742 273.123 289.579L270.319 286.332C269.216 285.054 267.652 284.264 265.969 284.133L242.267 282.289C240.667 282.165 239.172 281.445 238.078 280.271L201.672 241.201C201.058 240.542 201.299 239.471 202.136 239.138L222.168 231.184V223.5C222.168 222.792 222.741 222.219 223.449 222.219H232.414V218.056L226.445 209.103C225.744 208.051 225.37 206.815 225.37 205.551V190.839C225.37 187.302 228.237 184.435 231.774 184.435H275.001ZM254.827 138.648C268.075 138.684 270.665 141.843 276.05 146.331C281.467 150.845 287.898 161.701 287.898 182.194C287.909 182.196 288.231 182.263 289.488 183.206C290.768 184.167 290.683 189.201 289.808 193.452C288.935 197.691 285.983 203.346 285.966 203.378H285.014V190.199C285.014 184.894 280.714 180.593 275.408 180.593H231.454C226.148 180.593 221.848 184.893 221.848 190.199V203.378H220.896C220.896 203.378 217.929 197.704 217.053 193.452C216.178 189.2 216.093 184.166 217.374 183.206C218.655 182.245 218.964 182.194 218.964 182.194C218.964 161.701 225.395 150.845 230.812 146.331C236.197 141.843 238.787 138.684 252.035 138.648V138.646H254.827V138.648Z" fill="black"/>
<path d="M467.82 943.95H455.191C453.111 943.95 452.071 942.91 452.071 940.83V851.538C452.071 849.458 453.111 848.418 455.191 848.418H490.552C498.277 848.418 504.319 850.548 508.678 854.807C513.036 859.066 515.215 865.058 515.215 872.784V884.373C515.215 895.565 510.807 902.994 501.992 906.659V907.253L517.889 940.385C518.781 942.762 517.939 943.95 515.363 943.95H503.329C501.546 943.95 500.258 943.752 499.466 943.356C498.674 942.96 498.03 942.118 497.535 940.83L482.677 908.739H472.723C471.534 908.739 470.94 909.283 470.94 910.373V940.83C470.94 942.91 469.9 943.95 467.82 943.95ZM472.574 893.584H487.134C490.304 893.584 492.632 892.94 494.117 891.653C495.603 890.266 496.346 888.087 496.346 885.115V873.527C496.346 870.456 495.603 868.228 494.117 866.841C492.632 865.454 490.304 864.761 487.134 864.761H472.574C471.485 864.761 470.94 865.306 470.94 866.395V891.95C470.94 893.039 471.485 893.584 472.574 893.584Z" fill="black"/>
<path d="M426.927 943.95H370.018C367.938 943.95 366.898 942.91 366.898 940.83V851.538C366.898 849.458 367.938 848.418 370.018 848.418H426.927C428.908 848.418 429.898 849.458 429.898 851.538V861.641C429.898 863.721 428.908 864.761 426.927 864.761H387.55C386.361 864.761 385.767 865.306 385.767 866.395V885.71C385.767 886.799 386.361 887.344 387.55 887.344H420.641C422.721 887.344 423.761 888.384 423.761 890.464V900.567C423.761 902.647 422.721 903.687 420.641 903.687H387.55C386.361 903.687 385.767 904.232 385.767 905.321V925.973C385.767 927.063 386.361 927.607 387.55 927.607H426.927C428.908 927.607 429.898 928.647 429.898 930.727V940.83C429.898 942.91 428.908 943.95 426.927 943.95Z" fill="black"/>
<path d="M313.978 848.418H338.529C340.609 848.418 341.649 849.458 341.649 851.538V940.83C341.649 942.91 340.609 943.95 338.529 943.95H326.346C324.266 943.95 323.226 942.91 323.226 940.83V870.407H322.631L307.477 940.031C306.883 942.012 305.645 943.003 303.763 943.003H291.283C289.401 943.003 288.163 942.012 287.568 940.031L272.117 870.258H271.522V940.83C271.522 942.019 271.324 942.861 270.928 943.356C270.532 943.752 269.69 943.95 268.402 943.95H256.219C254.139 943.95 253.099 942.91 253.099 940.83V851.538C253.099 849.458 254.139 848.418 256.219 848.418H280.918C282.305 848.418 283.246 849.111 283.741 850.498L296.928 902.944H297.82L311.155 850.498C311.453 849.111 312.394 848.418 313.978 848.418Z" fill="black"/>
<path d="M175.28 943.95H161.017C159.234 943.95 158.64 942.91 159.234 940.83L182.709 851.538C183.402 849.458 184.888 848.418 187.166 848.418H206.926C209.402 848.418 210.888 849.458 211.383 851.538L234.858 940.83C235.452 942.91 234.858 943.95 233.075 943.95H218.812C217.722 943.95 216.979 943.752 216.583 943.356C216.187 942.861 215.89 942.019 215.692 940.83L211.532 924.487H182.56L178.4 940.83C178.202 942.019 177.855 942.861 177.36 943.356C176.964 943.752 176.27 943.95 175.28 943.95ZM196.823 866.395L186.126 909.333H208.115L197.417 866.395H196.823Z" fill="black"/>
<path d="M91.5497 943.95H78.9211C76.841 943.95 75.801 942.91 75.801 940.83V851.538C75.801 849.458 76.841 848.418 78.9211 848.418H114.281C122.007 848.418 128.049 850.548 132.407 854.807C136.765 859.066 138.944 865.058 138.944 872.784V884.373C138.944 895.565 134.537 902.994 125.722 906.659V907.253L141.619 940.385C142.51 942.762 141.668 943.95 139.093 943.95H127.059C125.276 943.95 123.988 943.752 123.196 943.356C122.403 942.96 121.76 942.118 121.264 940.83L106.407 908.739H96.4527C95.2641 908.739 94.6698 909.283 94.6698 910.373V940.83C94.6698 942.91 93.6298 943.95 91.5497 943.95ZM96.3041 893.584H110.864C114.034 893.584 116.361 892.94 117.847 891.653C119.333 890.266 120.076 888.087 120.076 885.115V873.527C120.076 870.456 119.333 868.228 117.847 866.841C116.361 865.454 114.034 864.761 110.864 864.761H96.3041C95.2146 864.761 94.6698 865.306 94.6698 866.395V891.95C94.6698 893.039 95.2146 893.584 96.3041 893.584Z" fill="black"/>
<path d="M15.7487 943.95H3.12003C1.04001 943.95 0 942.91 0 940.83V851.538C0 849.458 1.04001 848.418 3.12003 848.418H50.5148C52.4957 848.418 53.4862 849.458 53.4862 851.538V861.641C53.4862 863.721 52.4957 864.761 50.5148 864.761H20.6516C19.463 864.761 18.8688 865.306 18.8688 866.395V889.424C18.8688 890.613 19.463 891.207 20.6516 891.207H46.0576C48.1376 891.207 49.1776 892.247 49.1776 894.327V904.281C49.1776 906.46 48.1376 907.55 46.0576 907.55H20.6516C19.463 907.55 18.8688 908.095 18.8688 909.184V940.83C18.8688 942.91 17.8287 943.95 15.7487 943.95Z" fill="black"/>
<path d="M452.03 1018.71V1017.82C452.03 1017.44 452.222 1017.25 452.607 1017.25H454.779C455.164 1017.25 455.356 1017.44 455.356 1017.82V1018.43C455.356 1019.38 455.56 1020.07 455.967 1020.5C456.397 1020.91 457.099 1021.11 458.072 1021.11H460.414C461.386 1021.11 462.088 1020.9 462.518 1020.47C462.948 1020.02 463.163 1019.29 463.163 1018.3V1017.52C463.163 1016.79 462.88 1016.23 462.314 1015.82C461.771 1015.39 461.092 1015.12 460.278 1015.01C459.463 1014.87 458.569 1014.69 457.596 1014.46C456.623 1014.24 455.73 1013.98 454.915 1013.68C454.1 1013.39 453.41 1012.83 452.845 1012.02C452.302 1011.2 452.03 1010.16 452.03 1008.9V1007.47C452.03 1005.82 452.494 1004.53 453.422 1003.6C454.372 1002.65 455.673 1002.18 457.325 1002.18H460.923C462.597 1002.18 463.898 1002.65 464.826 1003.6C465.776 1004.53 466.251 1005.82 466.251 1007.47V1008.22C466.251 1008.6 466.059 1008.79 465.674 1008.79H463.502C463.117 1008.79 462.925 1008.6 462.925 1008.22V1007.78C462.925 1006.8 462.71 1006.11 462.28 1005.71C461.873 1005.28 461.183 1005.06 460.21 1005.06H458.072C457.099 1005.06 456.397 1005.29 455.967 1005.74C455.56 1006.17 455.356 1006.92 455.356 1007.98V1009.03C455.356 1010.05 456.092 1010.74 457.562 1011.1C458.219 1011.26 458.931 1011.4 459.701 1011.51C460.493 1011.62 461.285 1011.79 462.077 1012.02C462.869 1012.25 463.593 1012.55 464.249 1012.94C464.905 1013.3 465.437 1013.86 465.844 1014.63C466.251 1015.38 466.455 1016.3 466.455 1017.38V1018.71C466.455 1020.36 465.98 1021.66 465.03 1022.61C464.102 1023.54 462.812 1024 461.16 1024H457.359C455.707 1024 454.406 1023.54 453.456 1022.61C452.505 1021.66 452.03 1020.36 452.03 1018.71Z" fill="black"/>
<path d="M436.078 1024H433.94C433.555 1024 433.363 1023.81 433.363 1023.42V1002.75C433.363 1002.37 433.555 1002.18 433.94 1002.18H441.882C443.534 1002.18 444.824 1002.65 445.751 1003.6C446.702 1004.53 447.177 1005.82 447.177 1007.47V1010.32C447.177 1012.92 446.102 1014.56 443.952 1015.24V1015.38L447.72 1023.32C447.969 1023.77 447.822 1024 447.279 1024H445.174C444.631 1024 444.281 1023.81 444.122 1023.42L440.49 1015.62H437.062C436.791 1015.62 436.655 1015.73 436.655 1015.96V1023.42C436.655 1023.81 436.463 1024 436.078 1024ZM437.028 1012.9H441.339C443.013 1012.9 443.851 1012.08 443.851 1010.42V1007.57C443.851 1005.9 443.013 1005.06 441.339 1005.06H437.028C436.78 1005.06 436.655 1005.17 436.655 1005.4V1012.56C436.655 1012.79 436.78 1012.9 437.028 1012.9Z" fill="black"/>
<path d="M427.814 1024H416.953C416.569 1024 416.376 1023.81 416.376 1023.42V1002.75C416.376 1002.37 416.569 1002.18 416.953 1002.18H427.814C428.176 1002.18 428.357 1002.37 428.357 1002.75V1004.48C428.357 1004.87 428.176 1005.06 427.814 1005.06H420.076C419.804 1005.06 419.669 1005.17 419.669 1005.4V1011.14C419.669 1011.36 419.804 1011.48 420.076 1011.48H426.626C427.034 1011.48 427.237 1011.67 427.237 1012.05V1013.78C427.237 1014.17 427.034 1014.36 426.626 1014.36H420.076C419.804 1014.36 419.669 1014.47 419.669 1014.7V1020.74C419.669 1020.99 419.804 1021.11 420.076 1021.11H427.814C428.176 1021.11 428.357 1021.31 428.357 1021.69V1023.42C428.357 1023.81 428.176 1024 427.814 1024Z" fill="black"/>
<path d="M405.822 1024H402.19C400.515 1024 399.214 1023.54 398.287 1022.61C397.382 1021.68 396.929 1020.39 396.929 1018.74V1007.44C396.929 1005.76 397.382 1004.47 398.287 1003.57C399.214 1002.64 400.515 1002.18 402.19 1002.18H405.822C407.496 1002.18 408.786 1002.64 409.691 1003.57C410.619 1004.47 411.082 1005.76 411.082 1007.44V1008.66C411.082 1009.07 410.89 1009.27 410.505 1009.27H408.367C407.982 1009.27 407.79 1009.07 407.79 1008.66V1007.57C407.79 1005.9 406.976 1005.06 405.346 1005.06H402.665C401.036 1005.06 400.221 1005.9 400.221 1007.57V1018.6C400.221 1020.28 401.036 1021.11 402.665 1021.11H405.346C406.976 1021.11 407.79 1020.28 407.79 1018.6V1015.55C407.79 1015.32 407.666 1015.21 407.417 1015.21H404.668C404.283 1015.21 404.091 1015.02 404.091 1014.63V1012.9C404.091 1012.52 404.283 1012.32 404.668 1012.32H410.37C410.845 1012.32 411.082 1012.56 411.082 1013.04V1018.74C411.082 1020.39 410.619 1021.68 409.691 1022.61C408.763 1023.54 407.473 1024 405.822 1024Z" fill="black"/>
<path d="M379.483 1024H377.379C376.994 1024 376.802 1023.81 376.802 1023.42V1002.75C376.802 1002.37 376.994 1002.18 377.379 1002.18H379.279C379.641 1002.18 379.89 1002.3 380.026 1002.55L388.24 1017.31H388.375V1002.75C388.375 1002.37 388.568 1002.18 388.952 1002.18H391.057C391.441 1002.18 391.634 1002.37 391.634 1002.75V1023.42C391.634 1023.81 391.441 1024 391.057 1024H389.224C388.862 1024 388.568 1023.82 388.342 1023.46L380.196 1008.86H380.06V1023.42C380.06 1023.81 379.868 1024 379.483 1024Z" fill="black"/>
<path d="M358.716 1024H356.272C355.955 1024 355.842 1023.81 355.933 1023.42L361.838 1002.75C361.951 1002.37 362.223 1002.18 362.653 1002.18H366.047C366.5 1002.18 366.771 1002.37 366.862 1002.75L372.767 1023.42C372.858 1023.81 372.733 1024 372.394 1024H369.984C369.781 1024 369.633 1023.97 369.543 1023.9C369.475 1023.81 369.419 1023.65 369.373 1023.42L368.083 1019.01H360.616L359.327 1023.42C359.236 1023.81 359.032 1024 358.716 1024ZM364.282 1005.43L361.295 1016.3H367.439L364.418 1005.43H364.282Z" fill="black"/>
<path d="M341.169 1024H339.03C338.646 1024 338.453 1023.81 338.453 1023.42V1002.75C338.453 1002.37 338.646 1002.18 339.03 1002.18H346.973C348.624 1002.18 349.914 1002.65 350.842 1003.6C351.792 1004.53 352.267 1005.82 352.267 1007.47V1010.32C352.267 1012.92 351.193 1014.56 349.043 1015.24V1015.38L352.811 1023.32C353.059 1023.77 352.912 1024 352.369 1024H350.265C349.722 1024 349.371 1023.81 349.213 1023.42L345.581 1015.62H342.153C341.881 1015.62 341.746 1015.73 341.746 1015.96V1023.42C341.746 1023.81 341.553 1024 341.169 1024ZM342.119 1012.9H346.43C348.104 1012.9 348.941 1012.08 348.941 1010.42V1007.57C348.941 1005.9 348.104 1005.06 346.43 1005.06H342.119C341.87 1005.06 341.746 1005.17 341.746 1005.4V1012.56C341.746 1012.79 341.87 1012.9 342.119 1012.9Z" fill="black"/>
<path d="M324.138 1024H313.277C312.893 1024 312.7 1023.81 312.7 1023.42V1002.75C312.7 1002.37 312.893 1002.18 313.277 1002.18H324.138C324.5 1002.18 324.681 1002.37 324.681 1002.75V1004.48C324.681 1004.87 324.5 1005.06 324.138 1005.06H316.4C316.128 1005.06 315.993 1005.17 315.993 1005.4V1011.14C315.993 1011.36 316.128 1011.48 316.4 1011.48H322.95C323.358 1011.48 323.561 1011.67 323.561 1012.05V1013.78C323.561 1014.17 323.358 1014.36 322.95 1014.36H316.4C316.128 1014.36 315.993 1014.47 315.993 1014.7V1020.74C315.993 1020.99 316.128 1021.11 316.4 1021.11H324.138C324.5 1021.11 324.681 1021.31 324.681 1021.69V1023.42C324.681 1023.81 324.5 1024 324.138 1024Z" fill="black"/>
<path d="M303.278 1024H301.14C300.733 1024 300.529 1023.81 300.529 1023.42V1005.4C300.529 1005.17 300.416 1005.06 300.19 1005.06H295.913C295.506 1005.06 295.302 1004.87 295.302 1004.48V1002.75C295.302 1002.37 295.506 1002.18 295.913 1002.18H308.505C308.913 1002.18 309.116 1002.37 309.116 1002.75V1004.48C309.116 1004.87 308.913 1005.06 308.505 1005.06H304.229C303.98 1005.06 303.855 1005.17 303.855 1005.4V1023.42C303.855 1023.81 303.663 1024 303.278 1024Z" fill="black"/>
<path d="M291.503 1002.75V1023.42C291.503 1023.81 291.311 1024 290.926 1024H288.788C288.403 1024 288.211 1023.81 288.211 1023.42V1002.75C288.211 1002.37 288.403 1002.18 288.788 1002.18H290.926C291.311 1002.18 291.503 1002.37 291.503 1002.75Z" fill="black"/>
<path d="M283.656 1024H272.659C272.275 1024 272.082 1023.81 272.082 1023.42V1002.75C272.082 1002.37 272.275 1002.18 272.659 1002.18H274.798C275.182 1002.18 275.375 1002.37 275.375 1002.75V1020.71C275.375 1020.93 275.51 1021.05 275.782 1021.05H283.656C284.041 1021.05 284.233 1021.25 284.233 1021.66V1023.42C284.233 1023.81 284.041 1024 283.656 1024Z" fill="black"/>
<path d="M266.534 1024H255.673C255.288 1024 255.096 1023.81 255.096 1023.42V1002.75C255.096 1002.37 255.288 1002.18 255.673 1002.18H266.534C266.896 1002.18 267.077 1002.37 267.077 1002.75V1004.48C267.077 1004.87 266.896 1005.06 266.534 1005.06H258.795C258.524 1005.06 258.388 1005.17 258.388 1005.4V1011.14C258.388 1011.36 258.524 1011.48 258.795 1011.48H265.346C265.753 1011.48 265.957 1011.67 265.957 1012.05V1013.78C265.957 1014.17 265.753 1014.36 265.346 1014.36H258.795C258.524 1014.36 258.388 1014.47 258.388 1014.7V1020.74C258.388 1020.99 258.524 1021.11 258.795 1021.11H266.534C266.896 1021.11 267.077 1021.31 267.077 1021.69V1023.42C267.077 1023.81 266.896 1024 266.534 1024Z" fill="black"/>
<path d="M235.644 1024H233.472C233.087 1024 232.895 1023.81 232.895 1023.42V1015.92L226.548 1002.79C226.458 1002.61 226.458 1002.46 226.548 1002.35C226.639 1002.23 226.763 1002.18 226.921 1002.18H229.637C229.931 1002.18 230.157 1002.37 230.316 1002.75L234.49 1012.09H234.694L238.801 1002.75C238.937 1002.37 239.163 1002.18 239.48 1002.18H242.195C242.376 1002.18 242.5 1002.23 242.568 1002.35C242.659 1002.46 242.659 1002.61 242.568 1002.79L236.221 1015.92V1023.42C236.221 1023.81 236.029 1024 235.644 1024Z" fill="black"/>
<path d="M212.055 1024H209.917C209.532 1024 209.34 1023.81 209.34 1023.42V1002.75C209.34 1002.37 209.532 1002.18 209.917 1002.18H217.859C219.511 1002.18 220.801 1002.65 221.729 1003.6C222.679 1004.53 223.154 1005.82 223.154 1007.47V1010.32C223.154 1012.92 222.079 1014.56 219.93 1015.24V1015.38L223.697 1023.32C223.946 1023.77 223.799 1024 223.256 1024H221.152C220.609 1024 220.258 1023.81 220.099 1023.42L216.468 1015.62H213.04C212.768 1015.62 212.632 1015.73 212.632 1015.96V1023.42C212.632 1023.81 212.44 1024 212.055 1024ZM213.006 1012.9H217.316C218.991 1012.9 219.828 1012.08 219.828 1010.42V1007.57C219.828 1005.9 218.991 1005.06 217.316 1005.06H213.006C212.757 1005.06 212.632 1005.17 212.632 1005.4V1012.56C212.632 1012.79 212.757 1012.9 213.006 1012.9Z" fill="black"/>
<path d="M191.255 1024H188.811C188.494 1024 188.381 1023.81 188.471 1023.42L194.377 1002.75C194.49 1002.37 194.762 1002.18 195.192 1002.18H198.586C199.038 1002.18 199.31 1002.37 199.4 1002.75L205.306 1023.42C205.397 1023.81 205.272 1024 204.933 1024H202.523C202.319 1024 202.172 1023.97 202.082 1023.9C202.014 1023.81 201.957 1023.65 201.912 1023.42L200.622 1019.01H193.155L191.865 1023.42C191.775 1023.81 191.571 1024 191.255 1024ZM196.821 1005.43L193.834 1016.3H199.977L196.957 1005.43H196.821Z" fill="black"/>
<path d="M180.645 1024H178.506C178.099 1024 177.895 1023.81 177.895 1023.42V1005.4C177.895 1005.17 177.782 1005.06 177.556 1005.06H173.279C172.872 1005.06 172.668 1004.87 172.668 1004.48V1002.75C172.668 1002.37 172.872 1002.18 173.279 1002.18H185.872C186.279 1002.18 186.483 1002.37 186.483 1002.75V1004.48C186.483 1004.87 186.279 1005.06 185.872 1005.06H181.595C181.346 1005.06 181.222 1005.17 181.222 1005.4V1023.42C181.222 1023.81 181.029 1024 180.645 1024Z" fill="black"/>
<path d="M168.869 1002.75V1023.42C168.869 1023.81 168.677 1024 168.292 1024H166.154C165.769 1024 165.577 1023.81 165.577 1023.42V1002.75C165.577 1002.37 165.769 1002.18 166.154 1002.18H168.292C168.677 1002.18 168.869 1002.37 168.869 1002.75Z" fill="black"/>
<path d="M161.022 1024H150.025C149.641 1024 149.448 1023.81 149.448 1023.42V1002.75C149.448 1002.37 149.641 1002.18 150.025 1002.18H152.164C152.548 1002.18 152.741 1002.37 152.741 1002.75V1020.71C152.741 1020.93 152.877 1021.05 153.148 1021.05H161.022C161.407 1021.05 161.599 1021.25 161.599 1021.66V1023.42C161.599 1023.81 161.407 1024 161.022 1024Z" fill="black"/>
<path d="M143.647 1002.75V1023.42C143.647 1023.81 143.454 1024 143.07 1024H140.931C140.547 1024 140.354 1023.81 140.354 1023.42V1002.75C140.354 1002.37 140.547 1002.18 140.931 1002.18H143.07C143.454 1002.18 143.647 1002.37 143.647 1002.75Z" fill="black"/>
<path d="M130.177 1002.18H133.979C134.363 1002.18 134.556 1002.37 134.556 1002.75V1023.42C134.556 1023.81 134.363 1024 133.979 1024H131.874C131.49 1024 131.297 1023.81 131.297 1023.42V1006.28H131.162L126.749 1018.71C126.613 1019.07 126.365 1019.25 126.003 1019.25H123.83C123.491 1019.25 123.253 1019.07 123.118 1018.71L118.603 1006.25H118.468V1023.42C118.468 1023.65 118.422 1023.81 118.332 1023.9C118.264 1023.97 118.117 1024 117.891 1024H115.82C115.435 1024 115.243 1023.81 115.243 1023.42V1002.75C115.243 1002.37 115.435 1002.18 115.82 1002.18H119.622C119.87 1002.18 120.052 1002.3 120.165 1002.55L124.815 1015.65H124.984L129.668 1002.55C129.713 1002.3 129.883 1002.18 130.177 1002.18Z" fill="black"/>
<path d="M90.1176 1024H87.9793C87.5947 1024 87.4023 1023.81 87.4023 1023.42V1002.75C87.4023 1002.37 87.5947 1002.18 87.9793 1002.18H95.9216C97.5734 1002.18 98.8632 1002.65 99.7909 1003.6C100.741 1004.53 101.216 1005.82 101.216 1007.47V1010.32C101.216 1012.92 100.142 1014.56 97.992 1015.24V1015.38L101.759 1023.32C102.008 1023.77 101.861 1024 101.318 1024H99.2139C98.6708 1024 98.3201 1023.81 98.1617 1023.42L94.53 1015.62H91.1019C90.8304 1015.62 90.6946 1015.73 90.6946 1015.96V1023.42C90.6946 1023.81 90.5023 1024 90.1176 1024ZM91.068 1012.9H95.3785C97.053 1012.9 97.8902 1012.08 97.8902 1010.42V1007.57C97.8902 1005.9 97.053 1005.06 95.3785 1005.06H91.068C90.8191 1005.06 90.6946 1005.17 90.6946 1005.4V1012.56C90.6946 1012.79 90.8191 1012.9 91.068 1012.9Z" fill="black"/>
<path d="M73.3928 1021.11H76.3457C77.9975 1021.11 78.8234 1020.28 78.8234 1018.6V1007.57C78.8234 1005.9 77.9975 1005.06 76.3457 1005.06H73.3928C71.7636 1005.06 70.949 1005.9 70.949 1007.57V1018.6C70.949 1020.28 71.7636 1021.11 73.3928 1021.11ZM76.8548 1024H72.9176C71.2432 1024 69.9421 1023.54 69.0144 1022.61C68.1093 1021.68 67.6567 1020.39 67.6567 1018.74V1007.44C67.6567 1005.76 68.1093 1004.47 69.0144 1003.57C69.9421 1002.64 71.2432 1002.18 72.9176 1002.18H76.8548C78.5292 1002.18 79.8303 1002.64 80.758 1003.57C81.6858 1004.47 82.1496 1005.76 82.1496 1007.44V1018.74C82.1496 1020.39 81.6858 1021.68 80.758 1022.61C79.8303 1023.54 78.5292 1024 76.8548 1024Z" fill="black"/>
<path d="M54.6198 1024H52.4815C52.0969 1024 51.9045 1023.81 51.9045 1023.42V1002.75C51.9045 1002.37 52.0969 1002.18 52.4815 1002.18H63.1391C63.5238 1002.18 63.7161 1002.37 63.7161 1002.75V1004.48C63.7161 1004.87 63.5238 1005.06 63.1391 1005.06H55.6041C55.3326 1005.06 55.1968 1005.17 55.1968 1005.4V1011.82C55.1968 1012.06 55.3326 1012.19 55.6041 1012.19H62.1548C62.5621 1012.19 62.7657 1012.38 62.7657 1012.77V1014.46C62.7657 1014.87 62.5621 1015.07 62.1548 1015.07H55.6041C55.3326 1015.07 55.1968 1015.19 55.1968 1015.41V1023.42C55.1968 1023.81 55.0045 1024 54.6198 1024Z" fill="black"/>
<path d="M504.52 986.216H502.416C502.031 986.216 501.839 986.024 501.839 985.639V964.969C501.839 964.584 502.031 964.392 502.416 964.392H504.317C504.679 964.392 504.928 964.517 505.064 964.765L513.277 979.53H513.413V964.969C513.413 964.584 513.605 964.392 513.99 964.392H516.094C516.479 964.392 516.671 964.584 516.671 964.969V985.639C516.671 986.024 516.479 986.216 516.094 986.216H514.262C513.9 986.216 513.605 986.035 513.379 985.673L505.233 971.079H505.097V985.639C505.097 986.024 504.905 986.216 504.52 986.216Z" fill="black"/>
<path d="M487.49 983.331H490.443C492.095 983.331 492.921 982.494 492.921 980.82V969.789C492.921 968.114 492.095 967.277 490.443 967.277H487.49C485.861 967.277 485.046 968.114 485.046 969.789V980.82C485.046 982.494 485.861 983.331 487.49 983.331ZM490.952 986.216H487.015C485.341 986.216 484.04 985.752 483.112 984.825C482.207 983.897 481.754 982.607 481.754 980.955V969.653C481.754 967.979 482.207 966.689 483.112 965.784C484.04 964.856 485.341 964.392 487.015 964.392H490.952C492.627 964.392 493.928 964.856 494.855 965.784C495.783 966.689 496.247 967.979 496.247 969.653V980.955C496.247 982.607 495.783 983.897 494.855 984.825C493.928 985.752 492.627 986.216 490.952 986.216Z" fill="black"/>
<path d="M475.952 964.969V985.639C475.952 986.024 475.76 986.216 475.375 986.216H473.237C472.852 986.216 472.66 986.024 472.66 985.639V964.969C472.66 964.584 472.852 964.392 473.237 964.392H475.375C475.76 964.392 475.952 964.584 475.952 964.969Z" fill="black"/>
<path d="M462.729 986.216H460.591C460.184 986.216 459.98 986.024 459.98 985.639V967.617C459.98 967.39 459.867 967.277 459.641 967.277H455.364C454.957 967.277 454.753 967.085 454.753 966.7V964.969C454.753 964.584 454.957 964.392 455.364 964.392H467.956C468.364 964.392 468.567 964.584 468.567 964.969V966.7C468.567 967.085 468.364 967.277 467.956 967.277H463.68C463.431 967.277 463.306 967.39 463.306 967.617V985.639C463.306 986.024 463.114 986.216 462.729 986.216Z" fill="black"/>
<path d="M438.331 986.216H435.887C435.57 986.216 435.457 986.024 435.548 985.639L441.453 964.969C441.566 964.584 441.838 964.392 442.268 964.392H445.662C446.115 964.392 446.386 964.584 446.477 964.969L452.382 985.639C452.473 986.024 452.348 986.216 452.009 986.216H449.599C449.396 986.216 449.248 986.182 449.158 986.114C449.09 986.024 449.034 985.866 448.988 985.639L447.698 981.227H440.231L438.942 985.639C438.851 986.024 438.647 986.216 438.331 986.216ZM443.897 967.65L440.91 978.512H447.054L444.033 967.65H443.897Z" fill="black"/>
<path d="M427.381 986.216H425.243C424.836 986.216 424.632 986.024 424.632 985.639V967.617C424.632 967.39 424.519 967.277 424.293 967.277H420.016C419.609 967.277 419.405 967.085 419.405 966.7V964.969C419.405 964.584 419.609 964.392 420.016 964.392H432.608C433.015 964.392 433.219 964.584 433.219 964.969V966.7C433.219 967.085 433.015 967.277 432.608 967.277H428.332C428.083 967.277 427.958 967.39 427.958 967.617V985.639C427.958 986.024 427.766 986.216 427.381 986.216Z" fill="black"/>
<path d="M403.283 986.216H401.179C400.794 986.216 400.602 986.024 400.602 985.639V964.969C400.602 964.584 400.794 964.392 401.179 964.392H403.079C403.441 964.392 403.69 964.517 403.826 964.765L412.04 979.53H412.176V964.969C412.176 964.584 412.368 964.392 412.753 964.392H414.857C415.242 964.392 415.434 964.584 415.434 964.969V985.639C415.434 986.024 415.242 986.216 414.857 986.216H413.024C412.662 986.216 412.368 986.035 412.142 985.673L403.996 971.079H403.86V985.639C403.86 986.024 403.668 986.216 403.283 986.216Z" fill="black"/>
<path d="M394.714 986.216H383.852C383.468 986.216 383.275 986.024 383.275 985.639V964.969C383.275 964.584 383.468 964.392 383.852 964.392H394.714C395.076 964.392 395.257 964.584 395.257 964.969V966.7C395.257 967.085 395.076 967.277 394.714 967.277H386.975C386.703 967.277 386.568 967.39 386.568 967.617V973.353C386.568 973.579 386.703 973.692 386.975 973.692H393.526C393.933 973.692 394.137 973.884 394.137 974.269V976C394.137 976.385 393.933 976.577 393.526 976.577H386.975C386.703 976.577 386.568 976.69 386.568 976.916V982.958C386.568 983.207 386.703 983.331 386.975 983.331H394.714C395.076 983.331 395.257 983.524 395.257 983.908V985.639C395.257 986.024 395.076 986.216 394.714 986.216Z" fill="black"/>
<path d="M372.929 964.392H376.73C377.115 964.392 377.307 964.584 377.307 964.969V985.639C377.307 986.024 377.115 986.216 376.73 986.216H374.626C374.241 986.216 374.049 986.024 374.049 985.639V968.499H373.913L369.501 980.921C369.365 981.284 369.116 981.465 368.754 981.465H366.582C366.242 981.465 366.005 981.284 365.869 980.921L361.355 968.465H361.219V985.639C361.219 985.866 361.174 986.024 361.083 986.114C361.015 986.182 360.868 986.216 360.642 986.216H358.572C358.187 986.216 357.995 986.024 357.995 985.639V964.969C357.995 964.584 358.187 964.392 358.572 964.392H362.373C362.622 964.392 362.803 964.517 362.916 964.765L367.566 977.867H367.736L372.42 964.765C372.465 964.517 372.635 964.392 372.929 964.392Z" fill="black"/>
<path d="M347.101 986.216H343.469C341.794 986.216 340.493 985.752 339.566 984.825C338.661 983.897 338.208 982.607 338.208 980.955V969.653C338.208 967.979 338.661 966.689 339.566 965.784C340.493 964.856 341.794 964.392 343.469 964.392H347.101C348.775 964.392 350.065 964.856 350.97 965.784C351.898 966.689 352.362 967.979 352.362 969.653V970.875C352.362 971.282 352.169 971.486 351.785 971.486H349.646C349.262 971.486 349.069 971.282 349.069 970.875V969.789C349.069 968.114 348.255 967.277 346.625 967.277H343.944C342.315 967.277 341.5 968.114 341.5 969.789V980.82C341.5 982.494 342.315 983.331 343.944 983.331H346.625C348.255 983.331 349.069 982.494 349.069 980.82V977.765C349.069 977.539 348.945 977.426 348.696 977.426H345.947C345.562 977.426 345.37 977.233 345.37 976.849V975.118C345.37 974.733 345.562 974.541 345.947 974.541H351.649C352.124 974.541 352.362 974.778 352.362 975.253V980.955C352.362 982.607 351.898 983.897 350.97 984.825C350.042 985.752 348.752 986.216 347.101 986.216Z" fill="black"/>
<path d="M330.04 964.392H332.179C332.586 964.392 332.789 964.573 332.789 964.935V980.955C332.789 982.607 332.314 983.897 331.364 984.825C330.436 985.752 329.146 986.216 327.495 986.216H323.727C322.075 986.216 320.786 985.752 319.858 984.825C318.93 983.897 318.466 982.607 318.466 980.955V964.969C318.466 964.584 318.659 964.392 319.043 964.392H321.182C321.566 964.392 321.759 964.584 321.759 964.969V980.82C321.759 982.494 322.573 983.331 324.202 983.331H326.986C328.637 983.331 329.463 982.494 329.463 980.82V964.969C329.463 964.584 329.656 964.392 330.04 964.392Z" fill="black"/>
<path d="M300.211 986.216H297.767C297.451 986.216 297.337 986.024 297.428 985.639L303.334 964.969C303.447 964.584 303.718 964.392 304.148 964.392H307.542C307.995 964.392 308.266 964.584 308.357 964.969L314.263 985.639C314.353 986.024 314.229 986.216 313.889 986.216H311.48C311.276 986.216 311.129 986.182 311.038 986.114C310.97 986.024 310.914 985.866 310.869 985.639L309.579 981.227H302.112L300.822 985.639C300.731 986.024 300.528 986.216 300.211 986.216ZM305.777 967.65L302.791 978.512H308.934L305.913 967.65H305.777Z" fill="black"/>
<path d="M279.428 986.216H275.491C273.817 986.216 272.516 985.752 271.588 984.825C270.683 983.897 270.23 982.607 270.23 980.955V969.653C270.23 967.979 270.683 966.689 271.588 965.784C272.516 964.856 273.817 964.392 275.491 964.392H279.428C281.08 964.392 282.37 964.856 283.298 965.784C284.225 966.689 284.689 967.979 284.689 969.653V971.282C284.689 971.689 284.486 971.893 284.078 971.893H281.94C281.555 971.893 281.363 971.689 281.363 971.282V969.789C281.363 968.114 280.548 967.277 278.919 967.277H275.966C274.337 967.277 273.523 968.114 273.523 969.789V980.82C273.523 982.494 274.337 983.331 275.966 983.331H278.919C280.548 983.331 281.363 982.494 281.363 980.82V979.326C281.363 978.919 281.555 978.715 281.94 978.715H284.078C284.486 978.715 284.689 978.919 284.689 979.326V980.955C284.689 982.607 284.225 983.897 283.298 984.825C282.37 985.752 281.08 986.216 279.428 986.216Z" fill="black"/>
<path d="M264.429 964.969V985.639C264.429 986.024 264.236 986.216 263.852 986.216H261.713C261.329 986.216 261.136 986.024 261.136 985.639V964.969C261.136 964.584 261.329 964.392 261.713 964.392H263.852C264.236 964.392 264.429 964.584 264.429 964.969Z" fill="black"/>
<path d="M251.205 986.216H249.067C248.66 986.216 248.456 986.024 248.456 985.639V967.617C248.456 967.39 248.343 967.277 248.117 967.277H243.84C243.433 967.277 243.229 967.085 243.229 966.7V964.969C243.229 964.584 243.433 964.392 243.84 964.392H256.432C256.839 964.392 257.043 964.584 257.043 964.969V966.7C257.043 967.085 256.839 967.277 256.432 967.277H252.156C251.907 967.277 251.782 967.39 251.782 967.617V985.639C251.782 986.024 251.59 986.216 251.205 986.216Z" fill="black"/>
<path d="M230.883 983.331H233.836C235.488 983.331 236.313 982.494 236.313 980.82V969.789C236.313 968.114 235.488 967.277 233.836 967.277H230.883C229.254 967.277 228.439 968.114 228.439 969.789V980.82C228.439 982.494 229.254 983.331 230.883 983.331ZM234.345 986.216H230.408C228.733 986.216 227.432 985.752 226.504 984.825C225.599 983.897 225.147 982.607 225.147 980.955V969.653C225.147 967.979 225.599 966.689 226.504 965.784C227.432 964.856 228.733 964.392 230.408 964.392H234.345C236.019 964.392 237.32 964.856 238.248 965.784C239.176 966.689 239.64 967.979 239.64 969.653V980.955C239.64 982.607 239.176 983.897 238.248 984.825C237.32 985.752 236.019 986.216 234.345 986.216Z" fill="black"/>
<path d="M209.406 983.399H214.158C215.855 983.399 216.704 982.585 216.704 980.955V978.851C216.704 977.222 215.81 976.407 214.022 976.407H209.406C209.157 976.407 209.033 976.52 209.033 976.747V983.06C209.033 983.286 209.157 983.399 209.406 983.399ZM209.406 973.692H213.818C215.538 973.692 216.398 972.866 216.398 971.214V969.653C216.398 968.024 215.561 967.209 213.886 967.209H209.406C209.157 967.209 209.033 967.322 209.033 967.549V973.353C209.033 973.579 209.157 973.692 209.406 973.692ZM205.74 985.639V964.969C205.74 964.584 205.933 964.392 206.317 964.392H214.362C216.036 964.392 217.337 964.845 218.265 965.75C219.193 966.655 219.656 967.933 219.656 969.585V971.248C219.656 973.217 218.729 974.484 216.873 975.05C217.756 975.163 218.48 975.547 219.045 976.204C219.634 976.86 219.928 977.742 219.928 978.851V981.023C219.928 982.675 219.464 983.954 218.536 984.859C217.609 985.764 216.319 986.216 214.667 986.216H206.317C205.933 986.216 205.74 986.024 205.74 985.639Z" fill="black"/>
<path d="M191.392 983.331H194.344C195.996 983.331 196.822 982.494 196.822 980.82V969.789C196.822 968.114 195.996 967.277 194.344 967.277H191.392C189.762 967.277 188.948 968.114 188.948 969.789V980.82C188.948 982.494 189.762 983.331 191.392 983.331ZM194.854 986.216H190.916C189.242 986.216 187.941 985.752 187.013 984.825C186.108 983.897 185.656 982.607 185.656 980.955V969.653C185.656 967.979 186.108 966.689 187.013 965.784C187.941 964.856 189.242 964.392 190.916 964.392H194.854C196.528 964.392 197.829 964.856 198.757 965.784C199.685 966.689 200.148 967.979 200.148 969.653V980.955C200.148 982.607 199.685 983.897 198.757 984.825C197.829 985.752 196.528 986.216 194.854 986.216Z" fill="black"/>
<path d="M169.296 986.216H167.158C166.773 986.216 166.581 986.024 166.581 985.639V964.969C166.581 964.584 166.773 964.392 167.158 964.392H175.1C176.752 964.392 178.041 964.867 178.969 965.818C179.919 966.745 180.395 968.035 180.395 969.687V972.538C180.395 975.14 179.32 976.781 177.17 977.459V977.595L180.938 985.537C181.187 985.99 181.04 986.216 180.496 986.216H178.392C177.849 986.216 177.498 986.024 177.34 985.639L173.708 977.833H170.28C170.009 977.833 169.873 977.946 169.873 978.172V985.639C169.873 986.024 169.681 986.216 169.296 986.216ZM170.246 975.118H174.557C176.231 975.118 177.068 974.292 177.068 972.64V969.789C177.068 968.114 176.231 967.277 174.557 967.277H170.246C169.997 967.277 169.873 967.39 169.873 967.617V974.778C169.873 975.004 169.997 975.118 170.246 975.118Z" fill="black"/>
<path d="M151.587 986.216H140.726C140.341 986.216 140.149 986.024 140.149 985.639V964.969C140.149 964.584 140.341 964.392 140.726 964.392H151.587C151.949 964.392 152.13 964.584 152.13 964.969V966.7C152.13 967.085 151.949 967.277 151.587 967.277H143.849C143.577 967.277 143.441 967.39 143.441 967.617V973.353C143.441 973.579 143.577 973.692 143.849 973.692H150.399C150.806 973.692 151.01 973.884 151.01 974.269V976C151.01 976.385 150.806 976.577 150.399 976.577H143.849C143.577 976.577 143.441 976.69 143.441 976.916V982.958C143.441 983.207 143.577 983.331 143.849 983.331H151.587C151.949 983.331 152.13 983.524 152.13 983.908V985.639C152.13 986.024 151.949 986.216 151.587 986.216Z" fill="black"/>
<path d="M122.024 986.216H119.92C119.535 986.216 119.343 986.024 119.343 985.639V964.969C119.343 964.584 119.535 964.392 119.92 964.392H121.82C122.183 964.392 122.431 964.517 122.567 964.765L130.781 979.53H130.917V964.969C130.917 964.584 131.109 964.392 131.494 964.392H133.598C133.983 964.392 134.175 964.584 134.175 964.969V985.639C134.175 986.024 133.983 986.216 133.598 986.216H131.765C131.403 986.216 131.109 986.035 130.883 985.673L122.737 971.079H122.601V985.639C122.601 986.024 122.409 986.216 122.024 986.216Z" fill="black"/>
<path d="M113.202 964.969V985.639C113.202 986.024 113.009 986.216 112.625 986.216H110.486C110.102 986.216 109.909 986.024 109.909 985.639V964.969C109.909 964.584 110.102 964.392 110.486 964.392H112.625C113.009 964.392 113.202 964.584 113.202 964.969Z" fill="black"/>
<path d="M105.015 986.216H94.0184C93.6337 986.216 93.4414 986.024 93.4414 985.639V964.969C93.4414 964.584 93.6337 964.392 94.0184 964.392H96.1567C96.5414 964.392 96.7337 964.584 96.7337 964.969V982.924C96.7337 983.15 96.8695 983.263 97.141 983.263H105.015C105.4 983.263 105.592 983.467 105.592 983.874V985.639C105.592 986.024 105.4 986.216 105.015 986.216Z" fill="black"/>
<path d="M83.6803 986.216H81.542C81.1347 986.216 80.9311 986.024 80.9311 985.639V967.617C80.9311 967.39 80.8179 967.277 80.5916 967.277H76.315C75.9078 967.277 75.7041 967.085 75.7041 966.7V964.969C75.7041 964.584 75.9078 964.392 76.315 964.392H88.9072C89.3145 964.392 89.5182 964.584 89.5182 964.969V966.7C89.5182 967.085 89.3145 967.277 88.9072 967.277H84.6306C84.3817 967.277 84.2573 967.39 84.2573 967.617V985.639C84.2573 986.024 84.065 986.216 83.6803 986.216Z" fill="black"/>
<path d="M59.5815 986.216H57.4771C57.0925 986.216 56.9001 986.024 56.9001 985.639V964.969C56.9001 964.584 57.0925 964.392 57.4771 964.392H59.3779C59.7399 964.392 59.9888 964.517 60.1246 964.765L68.3383 979.53H68.4741V964.969C68.4741 964.584 68.6664 964.392 69.0511 964.392H71.1555C71.5401 964.392 71.7325 964.584 71.7325 964.969V985.639C71.7325 986.024 71.5401 986.216 71.1555 986.216H69.3226C68.9606 986.216 68.6664 986.035 68.4402 985.673L60.2943 971.079H60.1585V985.639C60.1585 986.024 59.9662 986.216 59.5815 986.216Z" fill="black"/>
<path d="M42.5515 983.331H45.5044C47.1562 983.331 47.9821 982.494 47.9821 980.82V969.789C47.9821 968.114 47.1562 967.277 45.5044 967.277H42.5515C40.9223 967.277 40.1077 968.114 40.1077 969.789V980.82C40.1077 982.494 40.9223 983.331 42.5515 983.331ZM46.0135 986.216H42.0763C40.4019 986.216 39.1008 985.752 38.1731 984.825C37.268 983.897 36.8154 982.607 36.8154 980.955V969.653C36.8154 967.979 37.268 966.689 38.1731 965.784C39.1008 964.856 40.4019 964.392 42.0763 964.392H46.0135C47.6879 964.392 48.989 964.856 49.9167 965.784C50.8445 966.689 51.3083 967.979 51.3083 969.653V980.955C51.3083 982.607 50.8445 983.897 49.9167 984.825C48.989 985.752 47.6879 986.216 46.0135 986.216Z" fill="black"/>
<path d="M20.456 986.216H18.3177C17.9331 986.216 17.7407 986.024 17.7407 985.639V964.969C17.7407 964.584 17.9331 964.392 18.3177 964.392H26.26C27.9118 964.392 29.2015 964.867 30.1293 965.818C31.0796 966.745 31.5548 968.035 31.5548 969.687V972.538C31.5548 975.14 30.48 976.781 28.3304 977.459V977.595L32.0979 985.537C32.3468 985.99 32.1997 986.216 31.6566 986.216H29.5523C29.0092 986.216 28.6585 986.024 28.5001 985.639L24.8684 977.833H21.4403C21.1688 977.833 21.033 977.946 21.033 978.172V985.639C21.033 986.024 20.8407 986.216 20.456 986.216ZM21.4064 975.118H25.7169C27.3913 975.118 28.2286 974.292 28.2286 972.64V969.789C28.2286 968.114 27.3913 967.277 25.7169 967.277H21.4064C21.1575 967.277 21.033 967.39 21.033 967.617V974.778C21.033 975.004 21.1575 975.118 21.4064 975.118Z" fill="black"/>
<path d="M4.02487 986.216H1.88657C1.5019 986.216 1.30957 986.024 1.30957 985.639V964.969C1.30957 964.584 1.5019 964.392 1.88657 964.392H12.5441C12.9288 964.392 13.1211 964.584 13.1211 964.969V966.7C13.1211 967.085 12.9288 967.277 12.5441 967.277H5.00916C4.73763 967.277 4.60187 967.39 4.60187 967.617V974.031C4.60187 974.28 4.73763 974.405 5.00916 974.405H11.5598C11.9671 974.405 12.1708 974.597 12.1708 974.982V976.679C12.1708 977.086 11.9671 977.29 11.5598 977.29H5.00916C4.73763 977.29 4.60187 977.403 4.60187 977.629V985.639C4.60187 986.024 4.40953 986.216 4.02487 986.216Z" fill="black"/>
</svg>
