<svg width="1024" height="634" viewBox="0 0 1024 634" fill="none" xmlns="http://www.w3.org/2000/svg">
<path fill-rule="evenodd" clip-rule="evenodd" d="M590.116 289.483L597.938 297.306L660.997 360.378L657.224 364.336L653.266 368.11L650.073 371.155C613.506 404.397 564.931 424.657 511.624 424.657C461.871 424.657 416.239 407.008 380.646 377.628L378.117 375.438L394.907 358.645L395.715 359.346C427.213 385.345 467.595 400.964 511.624 400.964C558.798 400.964 601.785 383.035 634.145 353.617L636.515 351.356L593.738 308.57L593.468 308.828C571.851 328.478 543.136 340.455 511.624 340.455C484.313 340.455 459.103 331.459 438.795 316.268L437.944 315.599L449.404 304.137L452.533 306.363C469.401 317.761 489.735 324.416 511.624 324.416C538.757 324.416 563.501 314.19 582.216 297.38L582.388 297.218L582.385 297.215L582.439 297.169L584.979 294.768L586.238 293.568L589.847 289.793L589.856 289.783L590.116 289.483ZM560.402 259.763L587.534 286.899L590.366 283.63C591.405 282.369 592.415 281.084 593.395 279.774L594.424 278.326L597.037 280.94L596.316 281.955C595.301 283.311 594.255 284.643 593.178 285.948L590.116 289.483L587.534 286.899L587.159 287.333C586.06 288.541 584.934 289.723 583.779 290.878L583.665 290.987L583.563 291.093L582.451 292.144L580.236 294.257L579.997 294.465L579.782 294.667C561.713 310.897 537.821 320.771 511.624 320.771C490.49 320.771 470.857 314.345 454.57 303.341L452.016 301.524L479.677 273.859L481.224 274.798C490.261 279.708 500.617 282.498 511.624 282.498C529.235 282.498 545.179 275.358 556.721 263.814L560.402 259.763ZM691.138 250.077V250.785H715L714.317 255.164C707.977 290.663 692.544 323.011 670.513 349.711L668.323 352.24L651.535 335.448L652.234 334.639C671.73 311.011 685.388 282.385 690.999 250.97L691.138 250.077ZM564.114 248.01L566.763 250.661L564.509 254.373C563.363 256.07 562.137 257.709 560.838 259.284L560.402 259.763L557.825 257.185L558.026 256.966C559.251 255.48 560.406 253.935 561.487 252.335L564.114 248.01ZM511.624 196.837C507.85 196.837 504.299 197.793 501.201 199.477L500.533 199.883L499.398 200.572C497.072 202.144 495.064 204.152 493.492 206.48L492.802 207.615L492.396 208.283C490.713 211.382 489.757 214.933 489.757 218.708C489.757 222.482 490.713 226.034 492.396 229.133L493.289 230.603L493.492 230.936L493.954 231.554L494.75 232.62C498.762 237.48 504.831 240.578 511.624 240.578C520.682 240.578 528.452 235.071 531.772 227.221L532.353 225.634H528.434L528.049 226.609C527.665 227.406 527.225 228.17 526.734 228.898L526.51 229.17L526.226 229.612C525.176 231.016 523.929 232.263 522.526 233.312L522.084 233.596L521.812 233.82L520.312 234.733L520.31 234.734L520.044 234.861L518.716 235.501C516.537 236.423 514.139 236.933 511.624 236.933C509.108 236.933 506.711 236.423 504.531 235.501L503.204 234.861L503.204 234.862L502.938 234.734L502.937 234.733L501.436 233.82L501.163 233.596L500.721 233.312C499.318 232.263 498.071 231.016 497.022 229.612L496.738 229.17L496.513 228.898L495.601 227.395L495.473 227.13L494.833 225.802C493.911 223.622 493.402 221.224 493.402 218.708C493.402 214.933 494.549 211.426 496.513 208.518L496.739 208.245L497.022 207.803L498.737 205.821L498.739 205.82L498.741 205.819L500.721 204.103L501.163 203.82L501.436 203.595C504.344 201.63 507.85 200.482 511.624 200.482C515.398 200.482 518.904 201.63 521.812 203.595L522.084 203.82L522.526 204.103L524.508 205.82L524.509 205.82L524.51 205.821L526.226 207.803L526.509 208.245L526.734 208.518C527.225 209.245 527.665 210.009 528.049 210.806L528.434 211.782H532.329L531.974 210.688C531.647 209.861 531.272 209.058 530.851 208.283L530.446 207.615L529.756 206.48C528.184 204.152 526.177 202.144 523.849 200.572L522.715 199.883L522.046 199.477C518.948 197.793 515.398 196.837 511.624 196.837ZM428.824 159.089L456.484 186.754L458.739 183.042C459.885 181.345 461.111 179.706 462.41 178.131L462.846 177.652L465.422 180.23L465.222 180.45C463.997 181.935 462.841 183.48 461.761 185.08L459.134 189.405L456.484 186.754L455.544 188.302C450.635 197.34 447.847 207.698 447.847 218.708C447.847 236.323 454.985 252.27 466.526 263.814L470.576 267.496L443.445 294.632L446.715 297.465C447.974 298.505 449.26 299.515 450.57 300.495L452.016 301.524L449.404 304.137L448.389 303.416C447.033 302.401 445.701 301.354 444.396 300.278L440.862 297.215L443.445 294.632L443.317 294.52L443.012 294.257C441.804 293.159 440.622 292.032 439.468 290.878L439.359 290.763L439.252 290.661L438.205 289.552L436.089 287.333L435.881 287.093L435.679 286.878C419.452 268.806 409.58 244.91 409.58 218.708C409.58 197.57 416.005 177.933 427.008 161.643L428.824 159.089ZM511.624 158.563C522.002 158.563 531.766 161.192 540.287 165.822L540.921 166.207L543.571 163.557L547.282 165.812C548.979 166.959 550.617 168.185 552.192 169.484L552.671 169.92L550.094 172.497L549.874 172.297C548.389 171.071 546.844 169.916 545.245 168.834L540.921 166.207L536.338 170.792L532.619 168.999C526.166 166.27 519.071 164.76 511.624 164.76C499.057 164.76 487.494 169.058 478.324 176.266L477.577 176.921L492.119 191.467L492.878 190.9C498.229 187.284 504.68 185.172 511.624 185.172C518.568 185.172 525.019 187.284 530.37 190.9L531.129 191.467L550.094 172.497L554.144 176.179C559.585 181.621 563.988 188.101 567.031 195.297L567.995 197.93H561.327L560.242 195.319C558.538 191.782 556.46 188.458 554.057 185.401L553.402 184.653L538.859 199.2L539.426 199.958C541.686 203.303 543.358 207.078 544.294 211.134L544.418 211.782H565.105H571.327H575.02H613.409H617.064H633.138H691.138V200.482H692.935H716.685H717.533V211.782H721.003L720.905 207.922L720.339 200.482H729.474L730.004 207.453L730.114 211.782H732.475V225.634H730.114L730.004 229.963L729.474 236.933H720.339L720.905 229.493L721.003 225.634H717.533V236.933H716.733H692.913H691.138V225.634H633.13L632.931 228.847C631.002 252.25 622.455 273.778 609.165 291.551L608.497 292.402L597.037 280.94L599.262 277.81C609.233 263.048 615.574 245.631 617.004 226.841L617.072 225.634H613.405L613.37 226.561C611.989 244.703 605.867 261.519 596.24 275.772L594.424 278.326L566.763 250.661L567.703 249.113C571.386 242.334 573.874 234.814 574.889 226.832L575.003 225.634H571.344L571.273 226.367C570.317 233.893 567.971 240.985 564.499 247.376L564.114 248.01L559.531 243.427L561.323 239.707C562.687 236.48 563.747 233.092 564.465 229.58L565.067 225.634H544.418L544.294 226.281C543.358 230.338 541.686 234.112 539.426 237.458L538.859 238.216L553.424 252.784L557.825 257.185L554.144 261.236L550.094 264.918L549.874 265.118C539.479 273.699 526.153 278.852 511.624 278.852C501.246 278.852 491.482 276.223 482.961 271.593L482.327 271.208L486.909 266.624L490.629 268.416C497.082 271.146 504.177 272.655 511.624 272.655C524.191 272.655 535.754 268.357 544.924 261.149L545.672 260.494L531.129 245.948L530.37 246.515C525.019 250.132 518.568 252.243 511.624 252.243C504.68 252.243 498.229 250.132 492.878 246.515L492.119 245.948L473.153 264.918L473.374 265.118C474.858 266.344 476.404 267.5 478.003 268.58L482.327 271.208L479.677 273.859L475.966 271.603C474.269 270.457 472.631 269.231 471.056 267.931L470.576 267.496L473.153 264.918L469.103 261.236L465.422 257.185L465.222 256.966C456.644 246.569 451.491 233.24 451.491 218.708C451.491 208.327 454.12 198.561 458.749 190.039L459.134 189.405L463.717 193.988L461.925 197.709C459.195 204.163 457.687 211.259 457.687 218.708C457.687 231.277 461.984 242.843 469.191 252.014L469.846 252.762L484.388 238.216L483.822 237.458C480.206 232.105 478.095 225.653 478.095 218.708C478.095 211.762 480.206 205.31 483.822 199.958L484.388 199.2L465.422 180.23L469.103 176.179L473.042 172.599L473.374 172.297C483.768 163.717 497.094 158.563 511.624 158.563ZM579.803 142.783L580.236 143.158L580.239 143.162L583.779 146.538L585.205 148.034L585.806 148.623L586.243 149.122L587.159 150.083L587.534 150.516L587.496 150.553L590.948 154.497C600.784 166.639 607.89 181.083 611.332 196.895L611.529 197.93H571.872L570.389 193.878C567.162 186.246 562.492 179.373 556.721 173.601L552.671 169.92L579.803 142.783ZM511.624 116.644C532.758 116.644 552.391 123.07 568.678 134.075L571.231 135.891L573.844 133.278L574.859 134C576.215 135.014 577.546 136.06 578.851 137.137L582.385 140.2L579.803 142.783L576.533 139.95C575.273 138.91 573.988 137.9 572.678 136.921L571.231 135.891L543.571 163.557L542.024 162.617C532.987 157.707 522.631 154.918 511.624 154.918C496.214 154.918 482.08 160.384 471.056 169.484L470.576 169.92L469.426 170.966L466.526 173.601L462.846 177.652L435.714 150.515L436.089 150.082L436.108 150.062L439.468 146.538L439.582 146.429L439.685 146.322L440.801 145.267L443.012 143.158L443.251 142.952L443.466 142.748C461.535 126.518 485.427 116.644 511.624 116.644ZM354.924 85.1752L371.713 101.967L371.013 102.776C345.019 134.28 329.403 174.67 329.403 218.708C329.403 265.891 347.329 308.887 376.741 341.253L379.001 343.624L421.779 300.837L421.522 300.568C401.875 278.947 389.901 250.226 389.901 218.708C389.901 191.392 398.895 166.177 414.083 145.865L414.751 145.014L426.211 156.476L426.933 155.461C427.947 154.104 428.992 152.772 430.07 151.467L433.131 147.933L435.714 150.515L432.882 153.785C431.843 155.046 430.832 156.332 429.852 157.642L428.824 159.089L426.211 156.476L423.986 159.605C412.59 176.476 405.935 196.814 405.935 218.708C405.935 245.846 416.16 270.595 432.967 289.313L433.129 289.485L433.131 289.483L433.177 289.535L435.583 292.083L436.778 293.336L440.562 296.955L440.862 297.215L429.51 308.57L386.732 351.356L369.981 368.11L366.024 364.336L362.25 360.378L359.206 357.184C325.971 320.609 305.715 272.025 305.715 218.708C305.715 168.945 323.36 123.305 352.735 87.7045L354.924 85.1752ZM653.266 69.3052L657.224 73.079L657.229 73.0846L662.369 78.4131C687.619 105.542 705.636 139.495 713.35 177.201L715.033 186.631H691.138V187.551L690.142 181.976C683.316 148.608 667.371 118.561 645.027 94.553L644.27 93.7683L601.423 136.624L603.664 139.033C617.056 154.496 626.618 173.367 630.874 194.171L631.546 197.93H615.237L614.893 196.116C611.328 179.739 603.968 164.779 593.78 152.204L588.907 146.636L587.834 145.511L582.687 140.462L582.686 140.46L582.385 140.2L653.266 69.3052ZM511.624 12.758C561.377 12.758 607.008 30.4073 642.601 59.7868L645.13 61.9776L628.341 78.7703L627.533 78.0697C596.035 52.0696 555.653 36.451 511.624 36.451C464.45 36.451 421.463 54.3807 389.103 83.7982L386.732 86.0592L429.51 128.846L429.78 128.588C451.397 108.938 480.112 96.9603 511.624 96.9603C538.935 96.9603 564.144 105.957 584.453 121.147L585.304 121.816L573.844 133.278L570.715 131.052C553.847 119.654 533.512 112.999 511.624 112.999C484.491 112.999 459.746 123.225 441.032 140.035L440.86 140.198L440.862 140.2L440.81 140.245L438.265 142.65L437.009 143.847L433.392 147.632L433.131 147.933L379.001 93.7918L362.25 77.0378L366.024 73.079L369.981 69.3052L373.175 66.2604C409.742 33.0183 458.317 12.758 511.624 12.758ZM511.624 -6.66827e-06C621.067 -6.66827e-06 711.732 80.4196 727.769 185.401L727.925 186.631H718.735L716.92 176.467C708.982 137.667 690.325 102.771 664.178 75.0119L663.605 74.4293L663.574 74.46L661.534 72.3202L658.974 69.7133L655.843 66.7275L655.856 66.7145L651.59 62.7186C614.485 29.3892 565.422 9.11275 511.624 9.11275C457.374 9.11275 407.939 29.7318 370.725 63.5614L367.404 66.7275L363.447 70.5012L363.446 70.502L363.188 70.7735L359.673 74.46L356.508 77.7812C322.685 115.002 302.07 164.447 302.07 218.708C302.07 334.464 395.89 428.303 511.624 428.303C565.422 428.303 614.485 408.026 651.59 374.697L655.856 370.701L655.843 370.688L658.973 367.703L661.536 365.093L663.574 362.955L663.605 362.986L664.178 362.403C690.325 334.644 708.982 299.749 716.92 260.949L718.735 250.785H727.925L727.769 252.014C711.732 356.996 621.067 437.415 511.624 437.415C390.858 437.415 292.959 339.497 292.959 218.708C292.959 97.9186 390.858 -6.66827e-06 511.624 -6.66827e-06Z" fill="black"/>
<path d="M1024 510.388H1006.1V562.189H992.693V510.388H974.832V499.453H1024V510.388Z" fill="black"/>
<path d="M971.638 559.921C967.075 562.162 961.121 563.282 953.777 563.282C944.327 563.282 936.821 560.461 931.259 554.817C925.724 549.147 922.956 541.601 922.956 532.177C922.956 522.268 926.048 514.168 932.231 507.877C938.441 501.559 946.447 498.4 956.248 498.4C962.377 498.4 967.507 499.196 971.638 500.789V513.709C967.399 511.225 962.593 509.983 957.22 509.983C951.091 509.983 946.19 511.94 942.518 515.856C938.846 519.771 937.01 524.887 937.01 531.205C937.01 537.362 938.751 542.316 942.234 546.069C945.718 549.822 950.429 551.699 956.369 551.699C961.958 551.699 967.048 550.349 971.638 547.649V559.921Z" fill="black"/>
<path d="M920.81 562.189H883.671V499.453H919.352V510.388H897.036V525.171H917.773V536.065H897.036V551.253H920.81V562.189Z" fill="black"/>
<path d="M876.119 537.564C876.119 545.853 874.202 552.212 870.368 556.64C866.561 561.068 861.093 563.282 853.965 563.282C850.806 563.282 847.876 562.742 845.176 561.662V549.066C847.498 550.821 850.145 551.699 853.115 551.699C859.541 551.699 862.754 546.825 862.754 537.078V499.453H876.119V537.564Z" fill="black"/>
<path d="M784.872 531.651C784.872 521.823 787.734 513.831 793.459 507.674C799.21 501.491 806.797 498.4 816.22 498.4C825.184 498.4 832.393 501.383 837.848 507.35C843.329 513.317 846.069 520.986 846.069 530.355C846.069 540.129 843.221 548.067 837.523 554.169C831.853 560.245 824.415 563.282 815.207 563.282C806.216 563.282 798.913 560.339 793.297 554.453C787.68 548.54 784.872 540.939 784.872 531.651ZM798.926 530.922C798.926 537.024 800.398 542.019 803.341 545.907C806.284 549.768 810.32 551.699 815.45 551.699C820.689 551.699 824.766 549.849 827.682 546.15C830.598 542.424 832.056 537.429 832.056 531.165C832.056 524.631 830.638 519.474 827.803 515.694C824.968 511.886 820.972 509.983 815.815 509.983C810.577 509.983 806.446 511.927 803.422 515.815C800.425 519.703 798.926 524.739 798.926 530.922Z" fill="black"/>
<path d="M787.608 562.189H772.217L762.376 545.867C760.35 542.492 758.69 540.318 757.394 539.346C756.098 538.374 754.721 537.888 753.263 537.888H749.213V562.189H735.847V499.453H757.839C772.771 499.453 780.236 505.123 780.236 516.463C780.236 520.729 778.981 524.388 776.47 527.439C773.986 530.49 770.557 532.636 766.183 533.878V534.04C769.072 535.012 772.271 538.199 775.781 543.599L787.608 562.189ZM749.213 509.618V527.682H755.774C758.906 527.682 761.417 526.777 763.307 524.968C765.224 523.132 766.183 520.851 766.183 518.124C766.183 512.453 762.794 509.618 756.017 509.618H749.213Z" fill="black"/>
<path d="M701.078 540.318V562.189H687.713V499.453H709.3C724.906 499.453 732.71 506.068 732.71 519.298C732.71 525.724 730.347 530.881 725.622 534.769C720.924 538.631 715.038 540.48 707.963 540.318H701.078ZM701.078 509.821V530.071H706.87C714.727 530.071 718.656 526.656 718.656 519.825C718.656 513.155 714.768 509.821 706.991 509.821H701.078Z" fill="black"/>
<path d="M664.528 562.189H649.137L639.296 545.867C637.271 542.492 635.61 540.318 634.314 539.346C633.018 538.374 631.641 537.888 630.183 537.888H626.133V562.189H612.768V499.453H634.76C649.691 499.453 657.157 505.123 657.157 516.463C657.157 520.729 655.901 524.388 653.39 527.439C650.906 530.49 647.477 532.636 643.103 533.878V534.04C645.992 535.012 649.191 538.199 652.701 543.599L664.528 562.189ZM626.133 509.618V527.682H632.694C635.826 527.682 638.337 526.777 640.227 524.968C642.144 523.132 643.103 520.851 643.103 518.124C643.103 512.453 639.714 509.618 632.937 509.618H626.133Z" fill="black"/>
<path d="M545.922 531.651C545.922 521.823 548.784 513.831 554.508 507.674C560.259 501.491 567.846 498.4 577.269 498.4C586.234 498.4 593.443 501.383 598.897 507.35C604.378 513.317 607.119 520.986 607.119 530.355C607.119 540.129 604.27 548.067 598.573 554.169C592.903 560.245 585.464 563.282 576.257 563.282C567.266 563.282 559.962 560.339 554.346 554.453C548.73 548.54 545.922 540.939 545.922 531.651ZM559.976 530.922C559.976 537.024 561.447 542.019 564.39 545.907C567.333 549.768 571.37 551.699 576.5 551.699C581.738 551.699 585.815 549.849 588.731 546.15C591.647 542.424 593.105 537.429 593.105 531.165C593.105 524.631 591.688 519.474 588.853 515.694C586.018 511.886 582.022 509.983 576.864 509.983C571.626 509.983 567.495 511.927 564.471 515.815C561.474 519.703 559.976 524.739 559.976 530.922Z" fill="black"/>
<path d="M545.477 510.388H527.576V562.189H514.17V510.388H496.309V499.453H545.477V510.388Z" fill="black"/>
<path d="M500.624 562.189H486.044L481.346 547.811H458.544L453.927 562.189H439.427L462.391 499.453H478.106L500.624 562.189ZM478.187 537.483L471.058 515.734C470.599 514.357 470.275 512.534 470.086 510.266H469.722C469.56 512.102 469.195 513.871 468.628 515.572L461.46 537.483H478.187Z" fill="black"/>
<path d="M435.803 557.976C429.674 561.514 422.141 563.282 413.204 563.282C403.213 563.282 395.329 560.474 389.551 554.858C383.773 549.242 380.884 541.56 380.884 531.813C380.884 521.931 384.056 513.898 390.402 507.715C396.774 501.505 405.157 498.4 415.553 498.4C422.249 498.4 428.094 499.345 433.089 501.235V513.912C428.229 511.076 422.289 509.659 415.269 509.659C409.221 509.659 404.32 511.63 400.567 515.572C396.814 519.514 394.938 524.712 394.938 531.165C394.938 537.726 396.625 542.843 400 546.515C403.402 550.187 408.033 552.023 413.892 552.023C417.375 552.023 420.224 551.483 422.438 550.403V537.524H409.761V526.791H435.803V557.976Z" fill="black"/>
<path d="M374.95 509.861H369.563V551.78H374.95V562.189H350.893V551.78H356.198V509.861H350.893V499.453H374.95V509.861Z" fill="black"/>
<path d="M343.581 499.453L321.792 562.189H306.685L285.179 499.453H299.597L313.165 543.801C313.84 545.988 314.258 548.054 314.42 549.998H314.663C314.879 548 315.338 545.88 316.04 543.639L329.608 499.453H343.581Z" fill="black"/>
<path d="M296.806 562.189H282.225L277.527 547.811H254.725L250.108 562.189H235.609L258.573 499.453H274.287L296.806 562.189ZM274.368 537.483L267.24 515.734C266.781 514.357 266.457 512.534 266.268 510.266H265.903C265.741 512.102 265.377 513.871 264.81 515.572L257.641 537.483H274.368Z" fill="black"/>
<path d="M233.282 562.189H220.056L194.388 521.833C193.058 519.738 192.093 518.047 191.493 516.758H191.297C191.532 518.906 191.649 522.222 191.649 526.706V562.189H179.402V499.802H193.488L218.217 539.03C219.861 541.635 220.865 543.286 221.23 543.984H221.426C221.165 542.48 221.035 539.608 221.035 535.365V499.802H233.282V562.189Z" fill="black"/>
<path d="M149.587 562.189H112.448V499.453H148.129V510.388H125.813V525.171H146.549V536.065H125.813V551.253H149.587V562.189Z" fill="black"/>
<path d="M105.584 562.189H92.2191V536.308H68.3243V562.189H54.959V499.453H68.3243V524.766H92.2191V499.453H105.584V562.189Z" fill="black"/>
<path d="M49.1681 510.388H31.2667V562.189H17.8609V510.388H0V499.453H49.1681V510.388Z" fill="black"/>
<path d="M733.274 632.539V592.275H747.18C761.477 592.275 768.625 598.817 768.625 611.9C768.625 618.122 766.624 623.121 762.621 626.899C758.618 630.659 753.453 632.539 747.128 632.539H733.274ZM741.852 599.294V625.521H746.531C750.603 625.521 753.8 624.308 756.122 621.882C758.444 619.456 759.605 616.172 759.605 612.03C759.605 608.027 758.392 604.908 755.966 602.673C753.54 600.42 750.386 599.294 746.505 599.294H741.852Z" fill="black"/>
<path d="M723.731 632.539H714.945L697.894 606.494C697.01 605.142 696.369 604.05 695.97 603.219H695.84C695.996 604.605 696.074 606.745 696.074 609.639V632.539H687.938V592.275H697.296L713.724 617.593C714.815 619.274 715.483 620.34 715.725 620.79H715.855C715.682 619.82 715.595 617.966 715.595 615.228V592.275H723.731V632.539Z" fill="black"/>
<path d="M679.73 598.956H676.273V625.859H679.73V632.539H664.29V625.859H667.695V598.956H664.29V592.275H679.73V598.956Z" fill="black"/>
<path d="M660.222 632.539H649.357L637.166 614.942C636.854 614.491 636.499 613.789 636.1 612.836H635.97V632.539H627.392V592.275H635.97V611.303H636.1C636.481 610.471 636.862 609.752 637.244 609.145L648.785 592.275H659.026L644.626 611.484L660.222 632.539Z" fill="black"/>
<path d="M618.935 632.539H610.149L593.098 606.494C592.214 605.142 591.573 604.05 591.174 603.219H591.044C591.2 604.605 591.278 606.745 591.278 609.639V632.539H583.142V592.275H592.5L608.928 617.593C610.019 619.274 610.687 620.34 610.929 620.79H611.059C610.886 619.82 610.799 617.966 610.799 615.228V592.275H618.935V632.539Z" fill="black"/>
<path d="M578.973 632.539H569.616L566.6 623.312H551.966L549.003 632.539H539.697L554.435 592.275H564.521L578.973 632.539ZM564.573 616.683L559.998 602.725C559.703 601.841 559.495 600.671 559.374 599.216H559.14C559.036 600.394 558.802 601.529 558.438 602.621L553.838 616.683H564.573Z" fill="black"/>
<path d="M528.167 632.539V608.105C528.167 601.778 530.157 596.146 527.05 604.778L517.12 632.539H510.284L500.224 605.038C499.982 604.38 499.557 602.569 498.95 599.605H498.717C498.942 602.985 499.054 606.372 499.054 609.769V632.539H491.308V592.275H503.785L512.467 616.605C513.195 618.615 513.689 620.504 513.949 622.272H514.131C514.668 620.071 515.222 618.165 515.794 616.553L524.502 592.275H536.641V632.539H528.167Z" fill="black"/>
<path d="M473.387 632.539H449.759V592.275H458.337V625.521H473.387V632.539Z" fill="black"/>
<path d="M445.201 632.539H421.573V592.275H430.15V625.521H445.201V632.539Z" fill="black"/>
<path d="M417.404 632.539H408.046L405.031 623.312H390.396L387.433 632.539H378.127L392.866 592.275H402.951L417.404 632.539ZM403.003 616.683L398.428 602.725C398.134 601.841 397.926 600.671 397.805 599.216H397.571C397.467 600.394 397.233 601.529 396.869 602.621L392.268 616.683H403.003Z" fill="black"/>
<path d="M363.907 632.539H354.029L347.713 622.064C346.413 619.898 345.347 618.503 344.516 617.879C343.684 617.255 342.8 616.943 341.864 616.943H339.265V632.539H330.687V592.275H344.802C354.384 592.275 359.176 595.914 359.176 603.193C359.176 605.931 358.37 608.279 356.759 610.237C355.164 612.195 352.964 613.573 350.156 614.37V614.474C352.01 615.098 354.064 617.142 356.317 620.608L363.907 632.539ZM339.265 598.8V610.393H343.476C345.486 610.393 347.098 609.812 348.311 608.651C349.541 607.473 350.156 606.009 350.156 604.258C350.156 600.619 347.981 598.8 343.632 598.8H339.265Z" fill="black"/>
<path d="M282.833 612.969C282.833 606.551 284.815 601.332 288.778 597.312C292.76 593.274 298.013 591.255 304.537 591.255C310.744 591.255 315.735 593.203 319.511 597.1C323.306 600.997 325.204 606.005 325.204 612.123C325.204 618.506 323.232 623.69 319.287 627.675C315.361 631.642 310.211 633.626 303.836 633.626C297.611 633.626 292.554 631.704 288.666 627.86C284.777 623.998 282.833 619.035 282.833 612.969ZM292.564 612.493C292.564 616.478 293.582 619.74 295.62 622.279C297.658 624.801 300.453 626.061 304.005 626.061C307.631 626.061 310.454 624.854 312.473 622.438C314.492 620.005 315.502 616.743 315.502 612.652C315.502 608.385 314.52 605.017 312.557 602.549C310.594 600.062 307.828 598.819 304.257 598.819C300.63 598.819 297.77 600.089 295.676 602.628C293.601 605.167 292.564 608.455 292.564 612.493Z" fill="black"/>
<path d="M278.932 599.294H264.557V609.639H277.788V616.657H264.557V632.539H255.979V592.275H278.932V599.294Z" fill="black"/>
<rect x="152.463" y="609.688" width="87.1995" height="4.96257" fill="black"/>
<rect x="784.127" y="609.688" width="87.1995" height="4.96257" fill="black"/>
</svg>
