<svg width="1025" height="869" viewBox="0 0 1025 869" fill="none" xmlns="http://www.w3.org/2000/svg">
<path fill-rule="evenodd" clip-rule="evenodd" d="M649.784 850.081C643.868 856.84 636.214 863.159 628.997 868.985C582.373 820.799 527.632 767.396 475.603 767.396C443.344 767.396 420.111 791.952 393.006 809.277C355.391 833.32 303.792 846.86 259.574 829.214C235.793 820.184 212.75 806.883 195.53 785.275C230.331 809.277 282.448 812.503 321.736 796.202C365.164 778.186 409.363 754.264 458.853 754.264C531.808 754.264 601.144 803.612 649.784 850.081ZM110.587 698.532C158.89 753.514 237.669 735.826 302.147 749.556C311.123 751.468 319.556 754.449 329.188 752.97C321.523 748.109 311.363 747.561 302.506 744.225C252.475 725.378 244.675 671.835 217.296 634.982C252.266 658.23 281.24 690.06 313.943 719.973C336.704 740.791 365.061 749.697 394.469 755.681C387.402 758.263 378.157 757.655 370.546 759.542C317.72 772.647 259.15 793.335 202.94 774.784C166.666 762.813 128.917 734.464 110.585 698.531L110.587 698.532ZM33.162 571.278C63.2912 639.491 138.988 644.834 189.32 686.678C198.889 694.637 208.376 701.957 218.89 706.862L219.433 706.312C207.818 695.802 195.249 683.279 186.254 670.21C157.487 628.412 167.059 571.281 144.88 526.968C165.031 551.096 183.932 575.943 195.536 603.568C214.209 648.024 220.552 698.743 262.431 732.525C217.104 717.571 164.816 720.548 124 693.813C81.0956 665.712 41.3326 621.359 33.162 571.277V571.278ZM0.887443 433.274C5.24492 493.372 69.2282 525.474 99.7372 574.876C106.252 585.427 112.959 596.318 122.421 604.839C120.946 598.44 115.681 592.77 112.783 586.495C102.998 565.297 98.5683 540.767 101.011 515.545C103.984 484.856 116.778 456.357 111.868 424.074C138.164 480.833 129.681 551.793 144.88 613.164C148.242 626.741 156.509 638.621 161.603 651.48C135.766 631.824 101.907 614.378 73.5455 592.024C46.118 570.405 22.311 545.067 9.93542 512.097C1.01716 488.339 -1.302 460.001 0.887443 433.271V433.274ZM2.67566 322.545C5.7612 309.133 8.12316 295.25 13.9585 282.946C2.9097 339.638 40.6264 380.59 53.5008 429.637C58.3545 448.12 60.0144 467.761 67.4895 485.007C68.1877 485.381 68.7908 484.656 69.2215 484.098C50.6133 431.899 77.891 383.657 104.465 342.512C111.451 331.697 114.812 319.104 118.073 306.372C120.945 330.003 115.917 357.354 111.544 381.74C105.916 413.133 95.1872 442.556 86.6581 472.844C81.0421 491.767 82.5227 513.122 85.4036 532.946L82.6965 530.786C62.9126 494.264 23.8799 465.732 12.0914 425.871C2.67029 394.013 -3.84719 357.207 2.67566 322.548V322.545ZM23.5415 261.56C23.5415 218.658 40.2465 183.662 65.304 151.711C66.0329 151.349 66.5493 150.62 67.4895 150.791C39.9028 192.75 65.0125 245.717 61.4655 293.308L57.8276 342.155C58.3666 342.511 58.3666 343.975 59.6492 343.415C61.2796 337.969 61.7732 332.176 62.7214 326.552C69.362 287.173 103.942 259.765 133.268 231.963C140.204 225.387 145.284 217.611 148.554 209.256C146.115 228.871 140.644 248.98 131.838 266.803C109.265 312.5 65.6692 349.388 57.8276 401.321C54.0251 351.551 23.5415 314.552 23.5415 261.56ZM96.2518 116.842C110.124 101.464 125.669 89.4826 144.176 84.7439C108.237 109.458 110.187 153.621 99.1862 190.55C95.1631 204.053 89.2488 216.704 86.1071 230.659L87.0152 231.386C92.995 215.61 103.255 200.443 116.62 187.833C141.897 163.984 179.903 149.55 192.411 114.663C191.838 163.142 150.514 199.992 112.772 228.502C95.8439 241.29 81.458 258.457 72.6789 276.454C74.1447 263.06 74.8108 251.917 73.6165 238.843C69.7418 196.495 67.2273 149.019 96.2518 116.842ZM242.126 35.3378C215.454 58.7422 197.655 88.866 177.165 115.946C160.124 138.47 136.738 152.425 116.628 171.325C127.486 148.803 129.488 122.997 143.275 101.21C166.848 63.9529 205.808 49.4909 242.126 35.3378Z" fill="black"/>
<path fill-rule="evenodd" clip-rule="evenodd" d="M374.297 850.081C380.214 856.84 387.868 863.158 395.084 868.985C441.71 820.799 496.451 767.396 548.48 767.396C580.738 767.396 603.972 791.952 631.077 809.277C668.69 833.32 720.29 846.86 764.507 829.214C788.29 820.184 811.332 806.883 828.553 785.275C793.751 809.277 741.635 812.503 702.347 796.202C658.919 778.186 614.718 754.264 565.228 754.264C492.274 754.264 422.938 803.612 374.297 850.081ZM913.495 698.532C865.193 753.514 786.412 735.826 721.934 749.556C712.959 751.468 704.527 754.449 694.893 752.97C702.559 748.109 712.72 747.561 721.577 744.225C771.608 725.378 779.408 671.835 806.787 634.982C771.816 658.23 742.843 690.06 710.14 719.973C687.379 740.791 659.022 749.697 629.614 755.681C636.681 758.263 645.925 757.655 653.537 759.542C706.363 772.647 764.931 793.335 821.142 774.784C857.417 762.813 895.165 734.464 913.497 698.531L913.495 698.532ZM990.92 571.278C960.792 639.491 885.095 644.834 834.763 686.678C825.193 694.637 815.707 701.957 805.193 706.862L804.65 706.312C816.264 695.802 828.834 683.279 837.828 670.21C866.596 628.412 857.024 571.281 879.203 526.968C859.05 551.096 840.15 575.943 828.546 603.568C809.874 648.024 803.53 698.743 761.65 732.525C806.977 717.571 859.265 720.548 900.082 693.813C942.987 665.712 982.749 621.359 990.92 571.277V571.278ZM1023.19 433.274C1018.84 493.372 954.854 525.474 924.345 574.876C917.83 585.427 911.123 596.318 901.661 604.839C903.137 598.44 908.4 592.77 911.299 586.495C921.084 565.297 925.513 540.767 923.072 515.545C920.098 484.856 907.304 456.357 912.215 424.074C885.918 480.833 894.401 551.793 879.203 613.164C875.841 626.741 867.572 638.621 862.478 651.48C888.317 631.824 922.176 614.378 950.536 592.024C977.964 570.405 1001.77 545.067 1014.15 512.097C1023.06 488.339 1025.38 460.001 1023.19 433.271V433.274ZM1021.41 322.545C1018.32 309.133 1015.96 295.25 1010.12 282.946C1021.17 339.638 983.456 380.59 970.581 429.637C965.728 448.12 964.068 467.761 956.593 485.007C955.895 485.381 955.291 484.656 954.86 484.098C973.469 431.899 946.191 383.657 919.617 342.512C912.632 331.697 909.27 319.104 906.009 306.372C903.137 330.003 908.165 357.354 912.538 381.74C918.166 413.133 928.895 442.556 937.424 472.844C943.04 491.767 941.559 513.122 938.678 532.946L941.386 530.786C961.169 494.264 1000.2 465.732 1011.99 425.871C1021.41 394.013 1027.93 357.207 1021.41 322.548V322.545ZM1000.54 261.56C1000.54 218.658 983.836 183.662 958.778 151.711C958.049 151.349 957.533 150.62 956.593 150.791C984.179 192.75 959.07 245.716 962.617 293.308L966.255 342.155C965.715 342.511 965.715 343.975 964.433 343.415C962.803 337.969 962.309 332.176 961.361 326.552C954.72 287.173 920.14 259.765 890.815 231.963C883.877 225.387 878.799 217.611 875.529 209.256C877.966 228.871 883.439 248.98 892.245 266.803C914.817 312.5 958.413 349.388 966.255 401.321C970.056 351.551 1000.54 314.552 1000.54 261.56ZM927.83 116.842C913.958 101.464 898.413 89.4831 879.905 84.7443C915.845 109.457 913.895 153.621 924.896 190.55C928.919 204.053 934.833 216.704 937.976 230.659L937.067 231.386C931.087 215.61 920.827 200.443 907.463 187.833C882.184 163.984 844.179 149.55 831.671 114.664C832.244 163.143 873.568 199.992 911.31 228.502C928.239 241.289 942.624 258.457 951.404 276.454C949.937 263.059 949.272 251.917 950.466 238.843C954.34 196.495 956.854 149.019 927.83 116.842ZM781.957 35.3383C808.629 58.7424 826.428 88.8661 846.918 115.946C863.959 138.47 887.343 152.425 907.454 171.325C896.597 148.804 894.594 122.997 880.808 101.209C857.234 63.9533 818.273 49.491 781.957 35.3383Z" fill="black"/>
<path fill-rule="evenodd" clip-rule="evenodd" d="M641.956 479.302L654.901 492.25L759.272 596.641L753.027 603.193L746.476 609.439L741.191 614.479C680.669 669.498 600.271 703.031 512.042 703.031C429.695 703.031 354.17 673.82 295.259 625.193L291.073 621.567L318.862 593.774L320.199 594.933C372.332 637.966 439.168 663.816 512.042 663.816C590.121 663.816 661.269 634.141 714.829 585.452L718.752 581.709L647.95 510.893L647.504 511.32C611.725 543.843 564.198 563.667 512.042 563.667C466.839 563.667 425.114 548.777 391.501 523.635L390.093 522.528L409.061 503.557L414.239 507.24C442.158 526.105 475.814 537.121 512.042 537.121C556.95 537.121 597.905 520.195 628.879 492.373L629.164 492.104L629.16 492.1L629.248 492.024L633.453 488.05L635.537 486.063L641.51 479.815L641.525 479.799L641.956 479.302ZM592.776 430.112L637.681 475.026L642.369 469.615C644.089 467.528 645.761 465.4 647.382 463.232L649.086 460.837L653.41 465.162L652.217 466.842C650.537 469.088 648.806 471.292 647.023 473.452L641.956 479.302L637.681 475.026L637.061 475.743C635.243 477.744 633.379 479.699 631.467 481.61L631.279 481.791L631.109 481.967L629.27 483.706L625.603 487.204L625.207 487.547L624.851 487.883C594.945 514.745 555.401 531.087 512.042 531.087C477.063 531.087 444.568 520.452 417.611 502.238L413.385 499.231L459.166 453.442L461.726 454.997C476.683 463.124 493.824 467.741 512.042 467.741C541.191 467.741 567.58 455.923 586.683 436.817L592.776 430.112ZM809.158 414.08V415.252H848.653L847.523 422.501C837.03 481.255 811.486 534.795 775.023 578.986L771.397 583.172L743.61 555.38L744.768 554.041C777.037 514.933 799.642 467.553 808.928 415.559L809.158 414.08ZM598.919 410.66L603.304 415.047L599.573 421.191C597.676 424 595.647 426.712 593.497 429.319L592.776 430.112L588.51 425.846L588.842 425.482C590.87 423.024 592.782 420.466 594.571 417.818L598.919 410.66ZM512.042 325.962C505.796 325.962 499.919 327.544 494.791 330.332L493.685 331.003L491.807 332.144C487.957 334.747 484.633 338.07 482.032 341.922L480.89 343.801L480.218 344.906C477.432 350.035 475.85 355.913 475.85 362.161C475.85 368.408 477.432 374.286 480.218 379.415L481.696 381.848L482.032 382.399L482.797 383.423L484.114 385.187C490.753 393.232 500.799 398.359 512.042 398.359C527.034 398.359 539.895 389.243 545.389 376.251L546.351 373.624H539.864L539.227 375.239C538.592 376.557 537.863 377.823 537.051 379.026L536.679 379.477L536.21 380.209C534.473 382.532 532.409 384.597 530.087 386.333L529.355 386.802L528.905 387.174L526.421 388.684L526.418 388.686L525.978 388.897L523.781 389.956C520.174 391.482 516.205 392.326 512.042 392.326C507.878 392.326 503.91 391.482 500.303 389.956L498.107 388.897L498.105 388.898L497.665 388.686L497.664 388.684L495.179 387.174L494.728 386.802L493.997 386.333C491.675 384.597 489.611 382.532 487.874 380.209L487.404 379.477L487.033 379.026L485.523 376.54L485.31 376.1L484.252 373.902C482.726 370.294 481.882 366.326 481.882 362.161C481.882 355.913 483.781 350.109 487.033 345.295L487.406 344.843L487.874 344.113L490.713 340.832L490.716 340.831L490.719 340.828L493.997 337.989L494.728 337.519L495.179 337.147C499.993 333.895 505.796 331.995 512.042 331.995C518.288 331.995 524.091 333.895 528.905 337.147L529.355 337.519L530.087 337.989L533.367 340.829L533.368 340.831L533.369 340.832L536.21 344.112L536.678 344.843L537.051 345.295C537.863 346.499 538.592 347.764 539.227 349.083L539.864 350.697H546.311L545.723 348.888C545.183 347.518 544.561 346.189 543.866 344.906L543.194 343.801L542.052 341.922C539.451 338.07 536.128 334.747 532.277 332.144L530.399 331.003L529.293 330.332C524.165 327.544 518.288 325.962 512.042 325.962ZM374.998 263.485L420.78 309.275L424.511 303.13C426.408 300.321 428.437 297.609 430.587 295.002L431.308 294.209L435.573 298.476L435.242 298.84C433.214 301.298 431.301 303.855 429.513 306.503L425.165 313.661L420.78 309.275L419.224 311.836C411.099 326.795 406.483 343.939 406.483 362.161C406.483 391.316 418.299 417.71 437.4 436.817L444.104 442.911L399.198 487.824L404.61 492.513C406.695 494.235 408.823 495.907 410.991 497.528L413.385 499.231L409.061 503.557L407.381 502.362C405.137 500.683 402.932 498.951 400.772 497.169L394.924 492.1L399.198 487.824L398.985 487.64L398.481 487.204C396.482 485.386 394.526 483.52 392.616 481.61L392.435 481.42L392.258 481.252L390.526 479.417L387.023 475.744L386.679 475.347L386.344 474.991C359.487 445.08 343.147 405.528 343.147 362.161C343.147 327.175 353.782 294.673 371.993 267.713L374.998 263.485ZM512.042 262.614C529.219 262.614 545.38 266.966 559.482 274.629L560.532 275.267L564.917 270.88L571.06 274.613C573.869 276.51 576.58 278.539 579.187 280.69L579.98 281.411L575.715 285.678L575.35 285.346C572.893 283.317 570.336 281.404 567.689 279.615L560.532 275.267L552.947 282.854L546.791 279.888C536.111 275.37 524.368 272.871 512.042 272.871C491.242 272.871 472.104 279.985 456.926 291.915L455.69 292.999L479.759 317.075L481.015 316.136C489.872 310.151 500.549 306.656 512.042 306.656C523.535 306.656 534.212 310.151 543.069 316.136L544.324 317.075L575.715 285.678L582.418 291.771C591.423 300.778 598.711 311.503 603.747 323.413L605.343 327.772H594.307L592.511 323.45C589.69 317.595 586.25 312.094 582.274 307.034L581.189 305.797L557.12 329.873L558.058 331.127C561.798 336.665 564.566 342.912 566.115 349.626L566.32 350.697H600.56H610.858H616.97H680.508H686.558H713.163H809.158V331.995H812.133H851.443H852.846V350.697H858.588L858.426 344.31L857.49 331.995H872.61L873.487 343.532L873.668 350.697H877.577V373.624H873.668L873.487 380.789L872.61 392.326H857.49L858.426 380.012L858.588 373.624H852.846V392.326H851.521H812.096H809.158V373.624H713.148L712.819 378.943C709.626 417.678 695.48 453.308 673.484 482.724L672.378 484.133L653.411 465.162L657.093 459.982C673.596 435.549 684.091 406.723 686.457 375.622L686.571 373.624H680.502L680.443 375.158C678.158 405.186 668.026 433.019 652.091 456.609L649.086 460.837L603.304 415.047L604.86 412.486C610.955 401.266 615.074 388.818 616.752 375.608L616.941 373.624H610.885L610.769 374.839C609.186 387.295 605.302 399.032 599.557 409.61L598.919 410.66L591.334 403.074L594.299 396.916C596.558 391.576 598.311 385.968 599.5 380.155L600.497 373.624H566.32L566.115 374.696C564.566 381.41 561.798 387.657 558.058 393.194L557.12 394.449L581.227 418.561L588.51 425.846L582.418 432.551L575.715 438.644L575.35 438.976C558.146 453.177 536.09 461.707 512.042 461.707C494.865 461.707 478.704 457.355 464.602 449.693L463.552 449.055L471.137 441.467L477.293 444.434C487.973 448.952 499.716 451.45 512.042 451.45C532.842 451.45 551.98 444.336 567.158 432.406L568.395 431.323L544.324 407.247L543.069 408.186C534.212 414.171 523.535 417.666 512.042 417.666C500.549 417.666 489.872 414.171 481.015 408.186L479.759 407.247L448.369 438.644L448.734 438.976C451.191 441.005 453.748 442.917 456.395 444.705L463.552 449.055L459.166 453.442L453.023 449.709C450.215 447.811 447.504 445.782 444.897 443.631L444.104 442.911L448.369 438.644L441.666 432.551L435.573 425.846L435.242 425.482C421.044 408.274 412.515 386.214 412.515 362.161C412.515 344.98 416.866 328.816 424.527 314.711L425.165 313.661L432.75 321.248L429.785 327.405C425.267 338.088 422.77 349.832 422.77 362.161C422.77 382.965 429.882 402.107 441.81 417.287L442.895 418.524L466.964 394.449L466.026 393.194C460.042 384.335 456.548 373.656 456.548 362.161C456.548 350.665 460.042 339.985 466.026 331.127L466.964 329.873L435.573 298.476L441.666 291.771L448.184 285.846L448.734 285.346C465.938 271.145 487.994 262.614 512.042 262.614ZM624.886 236.497L625.603 237.118L625.608 237.123L631.467 242.711L633.828 245.187L634.822 246.162L635.545 246.988L637.061 248.579L637.681 249.296L637.618 249.357L643.332 255.885C659.612 275.981 671.373 299.887 677.07 326.058L677.396 327.772H611.76L609.305 321.064C603.964 308.433 596.234 297.058 586.683 287.504L579.98 281.411L624.886 236.497ZM512.042 193.234C547.021 193.234 579.516 203.87 606.473 222.083L610.699 225.09L615.023 220.765L616.703 221.959C618.947 223.638 621.151 225.37 623.311 227.152L629.16 232.221L624.886 236.497L619.474 231.808C617.389 230.087 615.261 228.415 613.093 226.794L610.699 225.09L564.917 270.88L562.358 269.324C547.401 261.198 530.26 256.581 512.042 256.581C486.536 256.581 463.144 265.629 444.897 280.69L444.104 281.411L442.199 283.143L437.4 287.504L431.308 294.209L386.403 249.294L387.023 248.577L387.055 248.544L392.616 242.711L392.805 242.532L392.975 242.354L394.822 240.607L398.481 237.118L398.877 236.776L399.233 236.439C429.139 209.577 468.682 193.234 512.042 193.234ZM252.686 141.149L280.474 168.942L279.315 170.281C236.292 222.423 210.445 289.274 210.445 362.161C210.445 440.254 240.115 511.417 288.795 564.987L292.536 568.911L363.338 498.095L362.913 497.649C330.395 461.864 310.576 414.327 310.576 362.161C310.576 316.95 325.462 275.216 350.6 241.597L351.706 240.189L370.674 259.159L371.868 257.48C373.547 255.234 375.277 253.03 377.06 250.87L382.128 245.02L386.403 249.294L381.715 254.707C379.995 256.794 378.322 258.921 376.701 261.089L374.998 263.485L370.674 259.159L366.991 264.34C348.13 292.263 337.115 325.925 337.115 362.161C337.115 407.077 354.038 448.041 381.855 479.021L382.124 479.306L382.128 479.302L382.203 479.389L386.186 483.606L388.163 485.679L394.426 491.669L394.924 492.1L376.134 510.893L305.332 581.709L277.607 609.439L271.058 603.193L264.812 596.641L259.772 591.354C204.765 530.82 171.238 450.407 171.238 362.161C171.238 279.798 200.443 204.258 249.062 145.335L252.686 141.149ZM746.476 114.883L753.027 121.129L753.035 121.138L761.543 129.957C803.334 174.859 833.154 231.054 845.922 293.463L848.708 309.07H809.158V310.593L807.511 301.366C796.211 246.138 769.822 196.407 732.84 156.67L731.586 155.372L660.67 226.303L664.38 230.29C686.544 255.883 702.371 287.117 709.415 321.55L710.527 327.772H683.534L682.964 324.769C677.064 297.663 664.883 272.902 648.02 252.09L639.955 242.874L638.179 241.011L629.66 232.655L629.658 232.652L629.16 232.221L746.476 114.883ZM512.042 21.2903C594.389 21.2903 669.914 50.502 728.825 99.1284L733.011 102.754L705.222 130.548L703.885 129.389C651.751 86.3556 584.915 60.505 512.042 60.505C433.963 60.505 362.815 90.1808 309.256 138.87L305.332 142.612L376.135 213.429L376.58 213.002C412.359 180.479 459.886 160.655 512.042 160.655C557.244 160.655 598.969 175.545 632.583 200.687L633.991 201.794L615.023 220.765L609.844 217.081C581.926 198.216 548.27 187.201 512.042 187.201C467.134 187.201 426.179 204.127 395.204 231.949L394.92 232.217L394.924 232.221L394.837 232.296L390.625 236.277L388.547 238.258L382.559 244.522L382.128 245.02L292.536 155.411L264.812 127.681L271.058 121.129L277.607 114.883L282.893 109.843C343.415 54.8234 423.813 21.2903 512.042 21.2903ZM512.042 0.174342C693.184 0.174342 843.243 133.278 869.788 307.034L870.046 309.07H854.835L851.831 292.247C838.693 228.029 807.813 170.273 764.537 124.328L763.589 123.363L763.537 123.414L760.161 119.873L755.924 115.558L750.741 110.616L750.763 110.595L743.703 103.981C682.289 48.8168 601.084 15.257 512.042 15.257C422.252 15.257 340.431 49.3839 278.838 105.376L273.342 110.616L266.793 116.862L266.791 116.863L266.363 117.313L260.547 123.414L255.308 128.911C199.327 190.516 165.206 272.354 165.206 362.161C165.206 553.751 320.489 709.064 512.042 709.064C601.084 709.064 682.289 675.504 743.703 620.34L750.763 613.727L750.742 613.705L755.922 608.765L760.165 604.445L763.537 600.907L763.589 600.959L764.537 599.993C807.813 554.049 838.693 496.293 851.831 432.074L854.835 415.252H870.046L869.788 417.287C843.243 591.043 693.184 724.147 512.042 724.147C312.161 724.147 150.126 562.081 150.126 362.161C150.126 162.241 312.161 0.174342 512.042 0.174342Z" fill="black"/>
</svg>
