<svg xmlns="http://www.w3.org/2000/svg" xmlns:xlink="http://www.w3.org/1999/xlink" fill="none" version="1.1" width="200" height="104" viewBox="0 0 200 104"><g><g><path d="M80.8711,57.5215L80.5195,60L67.75781,60L68.10938,57.626999999999995Q72.66211,54.498000000000005,74.50781,52.3975Q76.3535,50.2969,76.3535,47.5547Q76.3535,43.8457,71.39648,43.8457Q69.26953,43.8457,68.02148,44.127L68.37305,41.64844Q69.67383,41.29688,71.7832,41.29688Q75.68555,41.29688,77.5664,42.87891Q79.4473,44.4609,79.4473,46.7285Q79.4473,50.1035,76.99510000000001,52.7051Q74.54297,55.3066,70.99219,57.5918L70.99219,57.7324Q75.98438,57.7324,80.8711,57.5215ZM100.2949,50.525400000000005Q100.2949,54.7441,98.2031,57.5918Q96.1113,60.439499999999995,92.2969,60.439499999999995Q88.6406,60.439499999999995,86.6895,57.837900000000005Q84.7383,55.2363,84.7383,51.210899999999995Q84.7383,46.9922,86.8301,44.1445Q88.9219,41.29688,92.7363,41.29688Q96.3926,41.29688,98.3438,43.89844Q100.2949,46.5,100.2949,50.525400000000005ZM97.3242,51.2285Q97.3242,47.7656,96.0059,45.6738Q94.6875,43.58203,92.3672,43.61719Q90.1348,43.61719,88.9219,45.6035Q87.709,47.5898,87.709,50.5078Q87.709,53.9707,89.0273,56.0625Q90.3457,58.1543,92.666,58.1191Q94.7051,58.1191,96.0146,56.291Q97.3242,54.462900000000005,97.3242,51.2285ZM111.47460000000001,60L108.4688,60Q108.66210000000001,56.291,108.66210000000001,52.300799999999995Q108.66210000000001,47.6777,108.4688,45.4805L104.46090000000001,47.4844L103.6348,45.9551L109.96289999999999,41.29688L111.47460000000001,41.29688Q111.2988,46.9746,111.2988,52.300799999999995Q111.2988,56.0625,111.47460000000001,60ZM132.6211,51.351600000000005Q132.6211,66.36330000000001,119.87700000000001,67.1191L119.3672,65.0273Q128.94729999999998,64.377,129.5273,53.935500000000005L129.3516,53.935500000000005Q127.5938,56.449200000000005,123.7441,56.449200000000005Q120.6328,56.449200000000005,118.86619999999999,54.2959Q117.09960000000001,52.1426,117.09960000000001,49.1719Q117.09960000000001,45.9902,119.12989999999999,43.64355Q121.1602,41.29688,124.834,41.29688Q128.0684,41.29688,130.3447,43.83691Q132.6211,46.377,132.6211,51.351600000000005ZM129.5625,51.7559Q129.5625,47.7305,128.0684,45.7002Q126.57419999999999,43.66992,124.5352,43.66992Q122.4785,43.66992,121.3096,45.1289Q120.1406,46.5879,120.1406,48.627Q120.1406,50.8594,121.5469,52.5293Q122.9531,54.199200000000005,125.4668,54.199200000000005Q128.1387,54.199200000000005,129.5625,51.7559Z" fill="#000000" fill-opacity="1"/></g></g></svg>