<svg xmlns="http://www.w3.org/2000/svg" xmlns:xlink="http://www.w3.org/1999/xlink" fill="none" version="1.1" width="150" height="78" viewBox="0 0 150 78"><g><g></g><g><path d="M55.8711,44.5215L55.5195,47L42.75781,47L43.10938,44.626999999999995Q47.66211,41.498000000000005,49.50781,39.3975Q51.3535,37.2969,51.3535,34.5547Q51.3535,30.8457,46.39648,30.8457Q44.26953,30.8457,43.02148,31.127000000000002L43.37305,28.64844Q44.67383,28.29688,46.7832,28.29688Q50.68555,28.29688,52.5664,29.878909999999998Q54.4473,31.460900000000002,54.4473,33.7285Q54.4473,37.1035,51.9951,39.7051Q49.54297,42.3066,45.99219,44.5918L45.99219,44.7324Q50.98438,44.7324,55.8711,44.5215ZM75.2949,37.525400000000005Q75.2949,41.7441,73.2031,44.5918Q71.1113,47.439499999999995,67.2969,47.439499999999995Q63.6406,47.439499999999995,61.689499999999995,44.837900000000005Q59.738299999999995,42.2363,59.738299999999995,38.210899999999995Q59.738299999999995,33.9922,61.8301,31.1445Q63.9219,28.29688,67.7363,28.29688Q71.3926,28.29688,73.3438,30.89844Q75.2949,33.5,75.2949,37.525400000000005ZM72.3242,38.2285Q72.3242,34.7656,71.0059,32.6738Q69.6875,30.58203,67.3672,30.61719Q65.1348,30.61719,63.9219,32.6035Q62.709,34.5898,62.709,37.5078Q62.709,40.9707,64.0273,43.0625Q65.3457,45.1543,67.666,45.1191Q69.7051,45.1191,71.0146,43.291Q72.3242,41.462900000000005,72.3242,38.2285ZM86.47460000000001,47L83.4688,47Q83.66210000000001,43.291,83.66210000000001,39.300799999999995Q83.66210000000001,34.6777,83.4688,32.4805L79.46090000000001,34.4844L78.6348,32.9551L84.96289999999999,28.29688L86.47460000000001,28.29688Q86.2988,33.9746,86.2988,39.300799999999995Q86.2988,43.0625,86.47460000000001,47ZM107.6211,38.351600000000005Q107.6211,53.3633,94.87700000000001,54.1191L94.3672,52.0273Q103.9473,51.376999999999995,104.5273,40.935500000000005L104.35159999999999,40.935500000000005Q102.5938,43.449200000000005,98.7441,43.449200000000005Q95.6328,43.449200000000005,93.86619999999999,41.2959Q92.09960000000001,39.1426,92.09960000000001,36.1719Q92.09960000000001,32.9902,94.12989999999999,30.643549999999998Q96.1602,28.29688,99.834,28.29688Q103.0684,28.29688,105.3447,30.83691Q107.6211,33.377,107.6211,38.351600000000005ZM104.5625,38.7559Q104.5625,34.7305,103.0684,32.7002Q101.57419999999999,30.669919999999998,99.5352,30.669919999999998Q97.4785,30.669919999999998,96.3096,32.1289Q95.1406,33.5879,95.1406,35.627Q95.1406,37.8594,96.5469,39.5293Q97.9531,41.199200000000005,100.4668,41.199200000000005Q103.1387,41.199200000000005,104.5625,38.7559Z" fill="#000000" fill-opacity="1"/></g></g></svg>