<svg xmlns="http://www.w3.org/2000/svg" xmlns:xlink="http://www.w3.org/1999/xlink" fill="none" version="1.1" width="150" height="78" viewBox="0 0 150 78"><g><g></g><g><path d="M32.7,24.503999999999998Q33.384,24.503999999999998,33.834,24.972Q34.284,25.44,34.284,26.088L34.284,49.956Q34.284,52.908,31.656,54.204Q29.028,55.5,26.724,55.932L26.256,52.836Q27.804,52.584,29.46,51.774Q31.116,50.964,31.116,49.956L31.116,45.132000000000005L14.988,45.132000000000005L14.988,45.348Q15.024,48.336,13.53,51.018Q12.036,53.7,9.588000000000001,55.644L8.652000000000001,54.348L7.716,53.088Q9.588000000000001,51.576,10.74,49.56Q11.892,47.544,11.856,45.348L11.856,26.088Q11.856,25.44,12.306,24.972Q12.756,24.503999999999998,13.44,24.503999999999998L32.7,24.503999999999998ZM14.988,27.636L14.988,33.252L31.116,33.252L31.116,27.636L14.988,27.636ZM31.116,41.964L31.116,36.384L14.988,36.384L14.988,41.964L31.116,41.964ZM63.948,36.024Q67.548,44.844,73.452,48.984L71.652,51.576Q67.188,48.444,63.948,43.08L63.948,50.928Q63.948,52.62,62.904,53.754Q61.86,54.888,60.384,55.428Q58.908,55.968,57.504,56.076L57.288,52.908Q57.432,52.872,58.404,52.728Q59.376,52.584,60.024,52.116Q60.672,51.648,60.816,50.928L60.816,44.196Q59.376,46.104,57.612,47.724000000000004Q55.848,49.344,53.472,51.18L51.672,48.623999999999995Q53.94,46.824,55.632,45.257999999999996Q57.324,43.692,58.62,41.891999999999996L60.816,43.476L60.816,32.352000000000004L52.572,32.352000000000004L52.572,29.183999999999997L60.816,29.183999999999997L60.816,24.648L63.948,24.648L63.948,29.183999999999997L67.656,29.183999999999997L66.108,25.512L69.06,24.288L70.68,28.32L68.484,29.183999999999997L73.272,29.183999999999997L73.272,32.352000000000004L63.948,32.352000000000004L63.948,36.024ZM47.712,49.308Q49.008,48.732,50.124,48.084L51.744,50.748000000000005Q46.992,53.592,40.98,54.564L40.512,51.432Q42.456,51.108,44.58,50.495999999999995L44.58,39.912L41.052,39.912L41.052,36.78L44.58,36.78L44.58,29.724L41.052,29.724L41.052,26.556L51.276,26.556L51.276,29.724L47.712,29.724L47.712,36.78L50.952,36.78L50.952,39.912L47.712,39.912L47.712,49.308ZM65.856,39.156L69.78,33.54L72.372,35.304L68.484,40.956L65.856,39.156ZM58.368,39.948L55.38,40.992000000000004L53.22,34.62L56.208,33.612L58.368,39.948ZM108.444,35.16L83.604,35.16L83.604,48.012Q83.604,50.604,82.326,52.962Q81.048,55.32,78.96,57.048L77.016,54.564Q78.564,53.268,79.518,51.558Q80.472,49.848,80.472,48.012L80.472,33.576Q80.472,32.928,80.922,32.46Q81.372,31.992,82.02,31.992L94.08,31.992L97.356,29.256L85.476,29.256Q82.2,31.668,77.916,32.928L77.052,29.868000000000002Q80.112,28.968,82.686,27.311999999999998Q85.26,25.656,87.096,23.316L89.724,25.044Q88.86,26.124,88.86,26.124L101.1,26.124Q101.784,26.124,102.234,26.592Q102.684,27.060000000000002,102.684,27.708L102.684,28.247999999999998Q102.684,28.572,102.522,28.896Q102.36,29.22,102.108,29.436L99.012,31.992L108.444,31.992L108.444,35.16ZM108.948,52.62Q107.58,54.096,105.708,54.978Q103.836,55.86,101.892,55.824L92.892,55.824Q91.056,55.824,89.814,54.96Q88.572,54.096,87.978,52.836Q87.384,51.576,87.348,50.352000000000004L87.348,39.444Q87.348,38.796,87.798,38.346000000000004Q88.248,37.896,88.932,37.896L103.404,37.896Q104.052,37.896,104.502,38.346000000000004Q104.952,38.796,104.952,39.444L104.952,43.763999999999996Q104.952,45.744,103.764,46.986000000000004Q102.576,48.228,100.92,48.75Q99.264,49.272,97.752,49.308L97.716,46.176Q99.408,46.032,100.542,45.546Q101.676,45.06,101.784,43.763999999999996L101.784,41.028L90.516,41.028L90.516,50.316Q90.516,51.036,91.02,51.846Q91.524,52.656,92.892,52.656L101.892,52.656Q103.188,52.656,104.394,52.116Q105.6,51.576,106.5,50.64L108.948,52.62ZM121.008,39.516L121.008,56.04L117.876,56.04L117.876,31.631999999999998L113.052,31.631999999999998L113.052,28.5L117.876,28.5L117.876,24.216L121.008,24.216L121.008,28.5L124.536,28.5L124.536,31.631999999999998L121.008,31.631999999999998L121.008,33.072L122.16,32.712L125.436,43.224000000000004L122.448,44.123999999999995L121.008,39.516ZM145.56,51.468Q145.344,52.692,144.408,53.88Q143.472,55.068,141.816,55.212L139.764,55.284Q137.784,55.284,136.794,54.042Q135.804,52.8,135.732,51.288L135.732,28.356L129.9,28.356L129.9,44.519999999999996Q129.864,47.760000000000005,128.334,50.730000000000004Q126.804,53.7,124.284,56.184L122.16,53.808Q124.212,51.792,125.472,49.416Q126.732,47.04,126.768,44.519999999999996L126.768,26.772Q126.768,26.124,127.218,25.674Q127.668,25.224,128.352,25.224L137.316,25.224Q137.964,25.224,138.432,25.674Q138.9,26.124,138.9,26.772L138.9,51.288Q138.936,51.792,139.188,51.936Q139.44,52.08,139.764,52.08L141.24,52.08Q141.708,52.116,142.05,51.756Q142.392,51.396,142.464,50.928L145.56,51.468ZM112.44,53.916Q113.232,49.128,113.556,44.268Q113.88,39.408,114.06,33.18L117.192,33.216Q117.048,39.444,116.706,44.574Q116.364,49.704,115.536,54.492L112.44,53.916Z" fill="#000000" fill-opacity="1"/></g></g></svg>