<svg xmlns="http://www.w3.org/2000/svg" xmlns:xlink="http://www.w3.org/1999/xlink" fill="none" version="1.1" width="150" height="78" viewBox="0 0 150 78"><g><g></g><g><path d="M2.28516,21.441406L6.3457,21.441406L6.3457,36.752L11.9355,36.752L11.9355,21.441406L15.9961,21.441406L15.9961,56.0703L11.9355,56.0703L11.9355,40.7598L6.3457,40.7598L6.3457,56.0703L2.28516,56.0703L2.28516,21.441406ZM33.8203,44.011700000000005L35.4375,56.0703L31.3066,56.0703L30.3047,48.4941L24.0996,48.4941L23.0801,56.0703L18.9844,56.0703L20.5664,44.082L24.1348,21.441406L30.2695,21.441406L33.8203,44.011700000000005ZM29.7773,44.4863L27.1934,24.92188L24.6094,44.4863L29.7773,44.4863ZM38.4258,21.441406L42.5918,21.441406L48.4629,46.314499999999995L48.4629,21.494141L52.1367,21.494141L52.1367,56.0703L47.9707,56.0703L42.293,31.8125L42.293,56.0703L38.4258,56.0703L38.4258,21.441406ZM70.0664,49.701Q70.0664,56.6504,63.2109,56.6504Q56.3555,56.6504,56.3555,49.689499999999995L56.3555,27.82227Q56.3555,20.878906,63.2109,20.878906Q70.0664,20.878906,70.0664,27.82227L70.0664,32.0938L66.0059,32.0938L66.0059,27.82227Q66.0059,24.88672,63.2285,24.88672L63.1934,24.88672Q60.416,24.88672,60.416,27.83792L60.416,49.6914Q60.416,52.6426,63.2109,52.6426Q66.0059,52.6426,66.0059,49.689499999999995L66.0059,40.7598L63.4043,40.7598L63.4043,36.752L70.0664,36.752L70.0664,49.701ZM94.043,23.91992L86.8887,52.0801L94.3594,52.0801L94.3594,56.0703L82.3359,56.0703L82.3359,53.5918L89.4902,25.43164L82.5645,25.43164L82.5645,21.441406L94.043,21.441406L94.043,23.91992ZM98.0508,21.441406L102.111,21.441406L102.111,36.752L107.701,36.752L107.701,21.441406L111.762,21.441406L111.762,56.0703L107.701,56.0703L107.701,40.7598L102.111,40.7598L102.111,56.0703L98.0508,56.0703L98.0508,21.441406ZM129.691,49.7037Q129.691,56.6504,122.836,56.6504Q115.98,56.6504,115.98,49.689499999999995L115.98,27.82227Q115.98,20.878906,122.836,20.878906Q129.691,20.878906,129.691,27.82584L129.691,49.7037ZM125.631,27.82227Q125.631,24.88672,122.854,24.88672L122.818,24.88672Q120.041,24.88672,120.041,27.83792L120.041,49.6914Q120.041,52.6426,122.836,52.6426Q125.631,52.6426,125.631,49.689499999999995L125.631,27.82227ZM147.445,49.685900000000004Q147.445,56.6504,140.59,56.6504Q133.734,56.6504,133.734,49.6719L133.734,21.423828L137.795,21.423828L137.795,49.6719Q137.795,52.6426,140.59,52.6426Q143.385,52.6426,143.385,49.6719L143.385,21.423828L147.445,21.423828L147.445,49.685900000000004Z" fill="#000000" fill-opacity="1"/></g></g></svg>