<svg xmlns="http://www.w3.org/2000/svg" xmlns:xlink="http://www.w3.org/1999/xlink" fill="none" version="1.1" width="200" height="104" viewBox="0 0 200 104"><g><g><path d="M48.392,67.75200000000001L48.392,37.224000000000004L50.012,32.472L48.104,32.472L44.036,44.352000000000004L45.944,44.352000000000004L46.664,42.263999999999996L46.664,67.75200000000001L48.392,67.75200000000001ZM65.888,40.068L65.888,32.688L64.124,32.688L64.124,38.34L59.372,38.34L59.372,32.688L57.644,32.688L57.644,38.34L52.856,38.34L52.856,32.688L51.092,32.688L51.092,40.068L65.888,40.068ZM53.864000000000004,67.5L53.864000000000004,45.684L55.772,41.04L53.828,41.04L49.22,52.344L51.128,52.344L52.1,50.004000000000005L52.1,67.5L53.864000000000004,67.5ZM66.176,46.512L66.176,44.784L61.856,44.784L60.668,41.256L58.903999999999996,41.256L60.056,44.784L54.908,44.784L54.908,46.512L60.164,46.512L60.164,51.732L54.908,51.732L54.908,53.495999999999995L60.164,53.495999999999995L60.164,58.68L54.908,58.68L54.908,60.408L60.164,60.408L60.164,65.44800000000001L54.908,65.44800000000001L54.908,67.176L66.176,67.176L66.176,65.44800000000001L61.928,65.44800000000001L61.928,60.408L66.176,60.408L66.176,58.68L61.928,58.68L61.928,53.495999999999995L66.176,53.495999999999995L66.176,51.732L61.928,51.732L61.928,46.512L66.176,46.512ZM87.812,53.712L87.812,38.988L78.812,38.988L78.812,35.316L88.856,35.316L88.856,33.588001L66.644,33.588001L66.644,35.316L77.084,35.316L77.084,38.988L67.688,38.988L67.688,53.712L76.22,53.712L73.412,57.635999999999996L69.56,55.260000000000005L66.608,55.260000000000005L72.476,58.932L66.572,67.14L68.624,67.14L73.952,59.832L85.75999999999999,67.14L88.928,67.14L74.888,58.536L78.38,53.712L87.812,53.712ZM69.416,45.468L69.416,40.716L77.084,40.716L77.084,45.468L69.416,45.468ZM86.084,40.716L86.084,45.468L78.812,45.468L78.812,40.716L86.084,40.716ZM69.416,51.948L69.416,47.232L77.084,47.232L77.084,51.948L69.416,51.948ZM86.084,51.948L78.812,51.948L78.812,47.232L86.084,47.232L86.084,51.948ZM98.864,45.504L98.864,43.775999999999996L96.92,43.775999999999996L96.92,33.012001L95.156,33.012001L95.156,43.775999999999996L91.80799999999999,43.775999999999996L92.096,33.696001L90.368,33.696001L89.432,67.068L91.16,67.068L91.52000000000001,53.28L96.23599999999999,53.28L96.23599999999999,67.032L97.964,67.032L97.964,51.552L91.592,51.552L91.73599999999999,45.504L98.864,45.504ZM111.356,41.652L101.42,41.652L101.564,35.748L111.176,34.812L111.176,33.084002L99.836,34.164001L99.152,67.068L100.916,67.068L101.384,43.416L108.944,43.416L106.172,52.452L103.72399999999999,45.432L101.888,45.432L105.30799999999999,55.224000000000004L101.672,67.068L103.50800000000001,67.068L106.28,57.995999999999995L109.484,67.068L111.32,67.068L107.144,55.224000000000004L111.356,41.652ZM121.76,57.06L121.76,45.036L118.844,45.036L121.868,33.480001L111.644,33.480001L111.644,35.244L119.636,35.244L117.008,45.036L115.676,45.036L113.984,37.44L112.22,37.44L113.876,45.036L111.644,45.036L111.644,46.763999999999996L116.108,46.763999999999996L116.108,65.196L112.328,65.196L112.328,66.924L117.836,66.924L117.836,46.763999999999996L120.032,46.763999999999996L120.032,57.06L121.76,57.06ZM133.064,59.472L133.064,40.392L128.45600000000002,40.392L129.03199999999998,35.244L133.45999999999998,35.244L133.45999999999998,33.480001L122.804,33.480001L122.804,35.244L127.304,35.244L126.728,40.392L123.2,40.392L123.2,59.472L124.964,59.472L124.964,42.12L131.3,42.12L131.3,59.472L133.064,59.472ZM133.49599999999998,67.14L128.95999999999998,58.14L128.95999999999998,44.208L127.232,44.208L127.232,58.356L122.696,67.14L124.712,67.14L128.132,60.408L131.55200000000002,67.14L133.49599999999998,67.14ZM156.176,47.844L156.176,46.116L146.42000000000002,46.116L146.42000000000002,37.116L156.176,37.116L156.176,35.388L146.42000000000002,35.388L146.42000000000002,32.868L144.656,32.868L144.656,35.388L138.752,35.388L139.57999999999998,32.976L137.708,32.976L135.07999999999998,40.788L136.916,40.788L138.176,37.116L144.656,37.116L144.656,46.116L134.9,46.116L134.9,47.844L156.176,47.844ZM154.952,66.99600000000001L154.952,51.012L136.124,51.012L136.124,66.99600000000001L154.952,66.99600000000001ZM153.224,65.268L137.852,65.268L137.852,52.739999999999995L153.224,52.739999999999995L153.224,65.268Z" fill="#000000" fill-opacity="1"/></g></g></svg>