<svg xmlns="http://www.w3.org/2000/svg" xmlns:xlink="http://www.w3.org/1999/xlink" fill="none" version="1.1" width="150" height="78" viewBox="0 0 150 78"><g><g></g><g><path d="M23.392,56.752L23.392,26.224L25.012,21.472L23.104,21.472L19.036,33.352000000000004L20.944,33.352000000000004L21.664,31.264L21.664,56.752L23.392,56.752ZM40.888000000000005,29.067999999999998L40.888000000000005,21.688L39.123999999999995,21.688L39.123999999999995,27.34L34.372,27.34L34.372,21.688L32.644,21.688L32.644,27.34L27.856,27.34L27.856,21.688L26.092,21.688L26.092,29.067999999999998L40.888000000000005,29.067999999999998ZM28.864,56.5L28.864,34.684L30.772,30.04L28.828,30.04L24.22,41.344L26.128,41.344L27.1,39.004000000000005L27.1,56.5L28.864,56.5ZM41.176,35.512L41.176,33.784L36.856,33.784L35.668,30.256L33.903999999999996,30.256L35.056,33.784L29.908,33.784L29.908,35.512L35.164,35.512L35.164,40.732L29.908,40.732L29.908,42.495999999999995L35.164,42.495999999999995L35.164,47.68L29.908,47.68L29.908,49.408L35.164,49.408L35.164,54.448L29.908,54.448L29.908,56.176L41.176,56.176L41.176,54.448L36.928,54.448L36.928,49.408L41.176,49.408L41.176,47.68L36.928,47.68L36.928,42.495999999999995L41.176,42.495999999999995L41.176,40.732L36.928,40.732L36.928,35.512L41.176,35.512ZM62.812,42.712L62.812,27.988L53.812,27.988L53.812,24.316L63.856,24.316L63.856,22.588001L41.644,22.588001L41.644,24.316L52.084,24.316L52.084,27.988L42.688,27.988L42.688,42.712L51.22,42.712L48.412,46.635999999999996L44.56,44.260000000000005L41.608000000000004,44.260000000000005L47.476,47.932L41.572,56.14L43.623999999999995,56.14L48.952,48.832L60.76,56.14L63.928,56.14L49.888000000000005,47.536L53.38,42.712L62.812,42.712ZM44.416,34.468L44.416,29.716L52.084,29.716L52.084,34.468L44.416,34.468ZM61.084,29.716L61.084,34.468L53.812,34.468L53.812,29.716L61.084,29.716ZM44.416,40.948L44.416,36.232L52.084,36.232L52.084,40.948L44.416,40.948ZM61.084,40.948L53.812,40.948L53.812,36.232L61.084,36.232L61.084,40.948ZM73.864,34.504L73.864,32.775999999999996L71.92,32.775999999999996L71.92,22.012001L70.156,22.012001L70.156,32.775999999999996L66.80799999999999,32.775999999999996L67.096,22.696001L65.368,22.696001L64.432,56.068L66.16,56.068L66.52000000000001,42.28L71.23599999999999,42.28L71.23599999999999,56.032L72.964,56.032L72.964,40.552L66.592,40.552L66.73599999999999,34.504L73.864,34.504ZM86.356,30.652L76.42,30.652L76.564,24.748L86.176,23.812L86.176,22.084002L74.836,23.164001L74.152,56.068L75.916,56.068L76.384,32.416L83.944,32.416L81.172,41.452L78.72399999999999,34.432L76.888,34.432L80.30799999999999,44.224000000000004L76.672,56.068L78.50800000000001,56.068L81.28,46.995999999999995L84.484,56.068L86.32,56.068L82.144,44.224000000000004L86.356,30.652ZM96.76,46.06L96.76,34.036L93.844,34.036L96.868,22.480001L86.644,22.480001L86.644,24.244L94.636,24.244L92.008,34.036L90.676,34.036L88.984,26.44L87.22,26.44L88.876,34.036L86.644,34.036L86.644,35.763999999999996L91.108,35.763999999999996L91.108,54.196L87.328,54.196L87.328,55.924L92.836,55.924L92.836,35.763999999999996L95.032,35.763999999999996L95.032,46.06L96.76,46.06ZM108.064,48.472L108.064,29.392L103.456,29.392L104.032,24.244L108.46,24.244L108.46,22.480001L97.804,22.480001L97.804,24.244L102.304,24.244L101.728,29.392L98.2,29.392L98.2,48.472L99.964,48.472L99.964,31.119999999999997L106.3,31.119999999999997L106.3,48.472L108.064,48.472ZM108.496,56.14L103.96,47.14L103.96,33.208L102.232,33.208L102.232,47.356L97.696,56.14L99.712,56.14L103.132,49.408L106.552,56.14L108.496,56.14ZM131.176,36.844L131.176,35.116L121.42,35.116L121.42,26.116L131.176,26.116L131.176,24.387999999999998L121.42,24.387999999999998L121.42,21.868L119.656,21.868L119.656,24.387999999999998L113.752,24.387999999999998L114.58,21.976L112.708,21.976L110.08,29.788L111.916,29.788L113.176,26.116L119.656,26.116L119.656,35.116L109.9,35.116L109.9,36.844L131.176,36.844ZM129.952,55.996L129.952,40.012L111.124,40.012L111.124,55.996L129.952,55.996ZM128.224,54.268L112.852,54.268L112.852,41.739999999999995L128.224,41.739999999999995L128.224,54.268Z" fill="#000000" fill-opacity="1"/></g></g></svg>