<svg xmlns="http://www.w3.org/2000/svg" xmlns:xlink="http://www.w3.org/1999/xlink" fill="none" version="1.1" width="150" height="78" viewBox="0 0 150 78"><g><g></g><g><path d="M39.396,26.744Q39.576,26.528,39.954,26.564Q40.332,26.6,40.656,26.887999999999998Q41.052,27.176000000000002,41.772,28.544Q42.312,29.66,42.852000000000004,30.182000000000002Q43.391999999999996,30.704,45.192,31.928Q49.152,34.592,50.519999999999996,35.708Q51.888000000000005,36.824,52.032,37.436Q52.104,37.760000000000005,51.995999999999995,37.94Q51.888000000000005,38.120000000000005,51.42,38.623999999999995Q50.664,39.344,50.304,39.488Q49.872,39.632000000000005,48.936,39.596000000000004Q48,39.56,47.208,39.344Q46.2,39.056,44.706,39.218Q43.212,39.379999999999995,43.068,39.596000000000004Q42.744,40.208,42.204,47.480000000000004Q42.096000000000004,48.704,41.772,49.117999999999995Q41.448,49.532,41.196,50.072Q40.872,50.72,40.224000000000004,51.548Q39.576,52.376000000000005,39.288,52.448Q38.424,52.664,38.316,52.16Q38.28,51.908,38.568,50.864000000000004Q39,49.46,39.144,43.016Q39.18,41.216,39.054,40.784Q38.928,40.352000000000004,38.388000000000005,40.424Q37.632000000000005,40.568,36.192,41.018Q34.752,41.468,34.14,41.756Q33.312,42.188,32.376,42.44Q30.683999999999997,42.944,29.82,43.7Q29.352,44.132000000000005,28.434,44.114000000000004Q27.516,44.096000000000004,26.688,43.628Q26.22,43.34,25.428,43.141999999999996Q24.636,42.944,24.096,42.367999999999995Q23.232,41.432,23.736,41.036Q23.951999999999998,40.856,27.246000000000002,39.848Q30.54,38.84,31.296,38.552Q33.096000000000004,37.867999999999995,34.608000000000004,37.616Q35.58,37.436,36.21,37.238Q36.84,37.04,37.812,36.769999999999996Q38.784,36.5,38.928,36.176Q39.072,35.924,39,34.718Q38.928,33.512,38.748000000000005,32.792Q38.316,31.208,38.891999999999996,28.544Q39.251999999999995,26.924,39.396,26.744ZM43.572,32.288Q42.924,31.496000000000002,42.744,31.64Q42.564,31.784,42.672,32.972Q42.816,35.06,43.248000000000005,35.6Q43.536,35.924,44.292,35.653999999999996Q45.048,35.384,45.048,34.952Q45.048,34.664,44.562,33.8Q44.076,32.936,43.572,32.288ZM60.276,39.632000000000005Q60.384,39.488,60.6,39.488Q60.924,39.488,61.752,39.794Q62.58,40.1,62.976,40.352000000000004Q63.516,40.712,64.092,41.108000000000004Q64.524,41.396,64.97399999999999,42.188Q65.424,42.980000000000004,66.50399999999999,45.356Q66.828,46.076,66.792,46.238Q66.756,46.4,66.25200000000001,46.4Q64.92,46.4,63.516,44.852000000000004Q62.436,43.628,61.266,41.774Q60.096,39.92,60.276,39.632000000000005ZM76.71000000000001,32.342Q77.628,32.252,77.718,32.162Q77.80799999999999,32.072,80.49000000000001,32.144Q83.172,32.216,84.25200000000001,32.576Q85.008,32.828,85.836,33.278Q86.664,33.728,86.808,34.016Q86.916,34.196,87.708,35.024Q88.5,35.852000000000004,88.788,36.554Q89.076,37.256,89.076,38.263999999999996Q89.076,38.948,89.022,39.182Q88.968,39.416,88.752,39.56Q88.392,39.775999999999996,87.744,39.775999999999996Q86.628,39.775999999999996,85.656,40.856Q85.08,41.468,84.774,41.468Q84.468,41.468,84.468,41.611999999999995Q84.468,41.864000000000004,83.982,42.332Q83.49600000000001,42.8,83.02799999999999,43.016Q82.344,43.34,82.182,43.646Q82.02000000000001,43.952,81.786,43.952Q81.55199999999999,43.952,81.588,44.635999999999996Q81.624,45.068,81.75,45.302Q81.876,45.536,82.27199999999999,45.86L82.848,46.4L82.344,46.4Q81.804,46.436,81.26400000000001,46.472Q80.544,46.544,73.128,46.760000000000005L70.104,46.867999999999995L69.27600000000001,46.436Q68.916,46.256,68.7,46.094Q68.48400000000001,45.932,68.48400000000001,45.86Q68.556,45.716,69.348,45.464Q69.99600000000001,45.248000000000005,70.896,44.924Q71.79599999999999,44.6,72.444,44.312Q73.092,44.024,73.056,43.988Q72.98400000000001,43.879999999999995,72.12,43.412Q71.364,43.016,70.392,42.025999999999996Q69.42,41.036,68.952,40.135999999999996Q68.7,39.668,68.48400000000001,39.488Q68.268,39.308,67.72800000000001,39.128Q66.9,38.876000000000005,66.432,38.876000000000005Q66.072,38.912,65.388,38.641999999999996Q64.70400000000001,38.372,64.30799999999999,38.084Q64.02000000000001,37.867999999999995,64.218,37.58Q64.416,37.292,65.532,36.284Q66.792,35.168,67.25999999999999,35.168Q67.72800000000001,35.168,68.538,34.808Q69.348,34.448,69.816,34.34Q70.28399999999999,34.232,71.184,33.872Q73.23599999999999,33.116,75.50399999999999,32.504Q75.792,32.432,76.71000000000001,32.342ZM83.568,35.168Q83.172,34.988,81.444,34.916L79.71600000000001,34.844L79.788,35.924Q79.86,36.68,79.824,36.914Q79.788,37.147999999999996,79.608,37.4Q78.924,38.156,77.952,40.82Q77.232,42.8,77.196,42.980000000000004Q77.05199999999999,43.34,78.78,43.304L79.608,43.268L80.544,42.116Q81.47999999999999,40.964,82.128,40.208Q82.668,39.56,83.49600000000001,38.03Q84.324,36.5,84.324,36.14Q84.324,35.6,83.568,35.168ZM75.936,36.248Q75.936,35.888,75.72,35.852000000000004Q75.50399999999999,35.816,74.424,36.356Q73.344,36.896,73.27199999999999,37.04Q73.23599999999999,37.184,73.02000000000001,37.184Q72.732,37.184,72.282,37.544Q71.832,37.903999999999996,71.72399999999999,38.228Q71.58,38.588,71.652,39.038Q71.72399999999999,39.488,71.922,39.488Q72.12,39.488,72.408,38.804Q72.47999999999999,38.588,72.55199999999999,38.444Q72.624,38.3,72.678,38.228Q72.732,38.156,72.768,38.156Q72.84,38.263999999999996,72.822,39.236000000000004Q72.804,40.208,72.98400000000001,40.658Q73.164,41.108000000000004,73.25399999999999,42.367999999999995Q73.344,43.628,73.488,43.736000000000004Q73.56,43.808,73.77600000000001,43.61Q73.99199999999999,43.412,74.172,43.141999999999996Q74.352,42.872,74.352,42.692Q74.352,42.44,74.64,41.756Q75.072,40.748000000000005,75.50399999999999,38.912Q75.936,37.076,75.936,36.248ZM104.664,23.612000000000002Q104.736,23.432,104.988,23.378Q105.24,23.323999999999998,106.14,23.323999999999998Q107.508,23.323999999999998,107.598,23.486Q107.688,23.648,107.94,23.648Q108.228,23.648,109.038,24.08Q109.848,24.512,110.136,24.836Q110.568,25.268,110.64,25.628Q110.748,25.951999999999998,111.18,25.916Q111.612,25.88,113.412,25.412Q115.428,24.908,115.554,24.98Q115.68,25.052,115.896,24.872Q116.112,24.692,116.688,24.692Q117.264,24.692,117.732,24.872Q118.2,25.052,118.686,25.556Q119.172,26.06,119.172,26.348Q119.172,26.6,118.722,27.194Q118.272,27.788,118.056,27.788Q117.84,27.788,117.642,28.184Q117.444,28.58,116.814,29.102Q116.184,29.624000000000002,115.338,30.398Q114.492,31.172,114.42,31.172Q114.348,31.172,114.132,31.316000000000003Q113.772,31.532,114.492,32.036Q115.032,32.396,115.356,32.324Q116.472,32.036,117.408,32.684Q118.092,33.188,118.272,33.188Q118.452,33.188,118.362,33.53Q118.272,33.872,118.272,34.034Q118.272,34.196,117.264,34.628Q116.58,34.916,116.418,35.06Q116.256,35.204,116.184,35.6Q116.076,36.176,115.86,36.86Q115.644,37.544,115.644,38.336Q115.644,38.948,115.806,39.218Q115.968,39.488,116.904,40.46Q117.768,41.288,118.146,41.558Q118.524,41.828,119.208,42.08Q121.044,42.656,121.044,43.304Q121.044,43.628,120.792,44.15Q120.54,44.672,120.252,44.924Q120.036,45.104,119.694,45.158Q119.352,45.212,118.272,45.212Q116.616,45.176,116.292,45.068Q116.112,45.032,116.022,45.086Q115.932,45.14,115.86,45.391999999999996Q115.752,45.824,115.752,49.442Q115.752,53.06,115.86,54.284Q116.004,55.688,115.752,55.994Q115.5,56.3,115.194,56.102Q114.888,55.904,114.816,56.012Q114.708,56.228,114.276,56.12Q113.844,56.012,113.592,55.724Q113.34,55.364,113.304,54.374Q113.268,53.384,113.412,48.956L113.52,45.464L113.16,45.572Q111.792,45.86,108.444,47.3Q105.42,48.56,104.376,49.082Q103.332,49.604,102.972,49.604Q102.648,49.604,102.306,49.117999999999995Q101.964,48.632000000000005,101.964,48.164Q101.964,47.732,102.306,47.21Q102.648,46.688,103.044,46.544Q103.512,46.328,104.268,45.518Q105.024,44.708,106.194,43.628Q107.364,42.548,107.22,42.548Q107.076,42.548,106.356,42.872L105.672,43.232L105.348,42.908Q105.024,42.620000000000005,104.952,42.044Q104.88,41.684,104.97,41.522Q105.06,41.36,105.384,41.036Q105.888,40.568,106.302,40.478Q106.716,40.388000000000005,106.896,40.153999999999996Q107.076,39.92,107.238,39.92Q107.4,39.92,107.976,39.47Q108.552,39.019999999999996,108.678,39.019999999999996Q108.804,39.019999999999996,110.118,37.94Q111.432,36.86,111.9,36.644Q112.224,36.5,112.566,36.14Q112.908,35.78,112.836,35.672Q112.728,35.564,111.702,35.924Q110.676,36.284,109.812,36.644Q108.876,37.076,107.094,37.652Q105.312,38.228,104.916,38.228Q104.628,38.228,104.016,37.922Q103.404,37.616,103.188,37.364000000000004Q103.008,37.147999999999996,103.404,37.04Q105.204,36.32,106.968,35.348Q108.732,34.376,108.732,34.088Q108.732,33.944,110.01,33.098Q111.288,32.252,112.26,31.387999999999998Q114.24,29.588,114.816,28.904Q113.916,29.624000000000002,111.864,29.336Q110.496,29.119999999999997,109.344,29.048000000000002L108.192,28.94L106.896,29.948Q105.6,30.92,105.204,31.244Q104.808,31.64,103.746,32.252Q102.684,32.864000000000004,102.432,32.864000000000004Q102.108,32.864000000000004,102.9,31.208Q103.08,30.848,103.368,30.308Q104.412,28.184,104.52,27.77Q104.628,27.356,104.844,27.266Q105.06,27.176000000000002,105.024,26.978Q104.988,26.78,105.096,26.06Q105.204,25.34,104.898,24.62Q104.592,23.9,104.664,23.612000000000002ZM112.566,33.368Q113.232,33.116,113.304,32.918Q113.376,32.72,113.232,32.36L113.124,32L112.116,32.576Q111.108,33.188,109.992,33.8Q108.984,34.412,109.02,34.519999999999996Q109.2,34.592,110.55,34.106Q111.9,33.62,112.566,33.368ZM113.52,39.308Q113.52,38.732,113.502,38.245999999999995Q113.484,37.760000000000005,113.448,37.472Q113.412,37.184,113.376,37.184Q113.304,37.184,112.674,37.598Q112.044,38.012,111.612,38.336Q111.252,38.623999999999995,111.324,38.732Q111.396,38.84,111.936,38.84Q112.8,38.84,112.656,39.884Q112.584,40.316,112.584,40.424Q112.584,40.532,112.08,40.712Q111.18,41.072,107.832,44.239999999999995Q107.436,44.635999999999996,106.59,45.248000000000005Q105.744,45.86,105.528,46.147999999999996Q105.348,46.364000000000004,105.366,46.382000000000005Q105.384,46.4,105.6,46.328Q105.888,46.184,106.572,45.968Q107.256,45.751999999999995,107.418,45.626000000000005Q107.58,45.5,108.12,45.32Q108.804,45.14,112.764,43.7Q113.196,43.556,113.34,43.412Q113.484,43.268,113.556,42.944Q113.628,42.476,113.592,41.972Q113.556,41.468,113.52,39.308ZM116.364,41.432Q115.932,40.316,115.824,39.992000000000004Q115.788,39.92,115.752,40.064Q115.716,40.352000000000004,115.716,41.288Q115.716,42.367999999999995,115.77,42.602000000000004Q115.824,42.836,116.04,42.836Q116.58,42.836,116.652,42.584Q116.724,42.332,116.364,41.432Z" fill="#000000" fill-opacity="1"/></g></g></svg>