<svg xmlns="http://www.w3.org/2000/svg" xmlns:xlink="http://www.w3.org/1999/xlink" fill="none" version="1.1" width="150" height="78" viewBox="0 0 150 78"><g><g></g><g><path d="M60.184,28.852L63.208,28.852Q64,28.852,64,29.572L64,46.132000000000005Q64,48.94,62.434,50.47Q60.868,52,58.06,52L54.1,52Q51.256,52,49.708,50.488Q48.16,48.976,48.16,46.132000000000005L48.16,29.608Q48.16,28.852,48.916,28.852L51.976,28.852Q52.732,28.852,52.732,29.608L52.732,45.916Q52.732,47.068,53.218,47.554Q53.704,48.04,54.82,48.04L57.304,48.04Q58.456,48.04,58.942,47.554Q59.428,47.068,59.428,45.916L59.428,29.608Q59.428,28.852,60.184,28.852ZM81.02799999999999,52L69.256,52Q68.5,52,68.5,51.244L68.5,29.608Q68.5,28.852,69.256,28.852L81.02799999999999,28.852Q81.74799999999999,28.852,81.74799999999999,29.608L81.74799999999999,32.056Q81.74799999999999,32.812,81.02799999999999,32.812L73.504,32.812Q73.072,32.812,73.072,33.208L73.072,37.888Q73.072,38.284,73.504,38.284L79.66,38.284Q80.416,38.284,80.416,39.04L80.416,41.488Q80.416,42.244,79.66,42.244L73.504,42.244Q73.072,42.244,73.072,42.64L73.072,47.644Q73.072,48.04,73.504,48.04L81.02799999999999,48.04Q81.74799999999999,48.04,81.74799999999999,48.796L81.74799999999999,51.244Q81.74799999999999,52,81.02799999999999,52ZM95.14,52L91.324,52Q88.47999999999999,52,86.932,50.488Q85.384,48.976,85.384,46.132000000000005L85.384,34.72Q85.384,31.875999999999998,86.932,30.364Q88.47999999999999,28.852,91.324,28.852L95.14,28.852Q97.94800000000001,28.852,99.49600000000001,30.381999999999998Q101.044,31.912,101.044,34.72L101.044,35.8Q101.044,36.592,100.288,36.592L97.22800000000001,36.592Q96.47200000000001,36.592,96.47200000000001,35.8L96.47200000000001,34.936Q96.47200000000001,33.784,96.00399999999999,33.298Q95.536,32.812,94.384,32.812L92.044,32.812Q90.928,32.812,90.44200000000001,33.298Q89.956,33.784,89.956,34.936L89.956,45.916Q89.956,47.068,90.44200000000001,47.554Q90.928,48.04,92.044,48.04L94.384,48.04Q95.536,48.04,96.00399999999999,47.554Q96.47200000000001,47.068,96.47200000000001,45.916L96.47200000000001,43.647999999999996Q96.47200000000001,43.251999999999995,96.076,43.251999999999995L93.916,43.251999999999995Q93.16,43.251999999999995,93.16,42.495999999999995L93.16,40.048Q93.16,39.292,93.916,39.292L100.21600000000001,39.292Q101.044,39.292,101.044,40.120000000000005L101.044,46.132000000000005Q101.044,48.94,99.49600000000001,50.47Q97.94800000000001,52,95.14,52Z" fill="#000000" fill-opacity="1"/></g></g></svg>