<svg xmlns="http://www.w3.org/2000/svg" xmlns:xlink="http://www.w3.org/1999/xlink" fill="none" version="1.1" width="150" height="78" viewBox="0 0 150 78"><g><g></g><g><path d="M43.644,28.93206L43.644,48.664L46.236000000000004,48.664L46.236000000000004,28.93206L43.644,28.93206ZM51.239999999999995,25.39563L51.239999999999995,54.388C51.239999999999995,55,51.024,55.216,50.376000000000005,55.216C49.763999999999996,55.252,47.712,55.252,45.480000000000004,55.216C45.876000000000005,55.972,46.272,57.124,46.416,57.88C49.44,57.88,51.275999999999996,57.808,52.391999999999996,57.376C53.508,56.944,53.94,56.152,53.94,54.388L53.94,25.39563L51.239999999999995,25.39563ZM29.496000000000002,25.72019C30.432000000000002,27.30813,31.476,29.40119,31.98,30.7L22.692,30.7L22.692,33.22L35.436,33.22C34.788,36.82,33.924,40.096000000000004,32.736000000000004,43.048C30.612000000000002,40.672,28.344,38.367999999999995,26.22,36.352000000000004L24.384,37.972C26.759999999999998,40.239999999999995,29.28,42.94,31.584,45.64C29.424,49.924,26.508,53.344,22.476,55.792C23.052,56.296,24.06,57.34,24.42,57.88C28.236,55.288,31.152,51.94,33.384,47.8C35.22,50.14,36.804,52.372,37.848,54.172L39.936,52.228C38.748000000000005,50.212,36.84,47.728,34.644,45.172C36.156,41.68,37.308,37.72,38.135999999999996,33.22L41.304,33.22L41.304,30.7L32.052,30.7L34.5,29.58175C33.96,28.28238,32.844,26.26131,31.872,24.74594L29.496000000000002,25.72019ZM73.092,32.3099C73.99199999999999,34.2916,74.82,36.8498,75.072,38.5429L77.376,37.7864C77.088,36.0933,76.25999999999999,33.607,75.25200000000001,31.6613L73.092,32.3099ZM72.372,44.596000000000004L72.372,57.8536L74.892,57.8536L74.892,56.296L86.016,56.296L86.016,57.745L88.608,57.745L88.608,44.596000000000004L72.372,44.596000000000004ZM74.892,53.848L74.892,47.007999999999996L86.016,47.007999999999996L86.016,53.848L74.892,53.848ZM78.42,24.963630000000002C78.852,26.15556,79.212,27.672629999999998,79.428,28.864L70.608,28.864L70.608,31.311999999999998L90.408,31.311999999999998L90.408,28.864L82.056,28.864C81.84,27.63606,81.372,25.90244,80.832,24.5665L78.42,24.963630000000002ZM85.296,31.528C84.756,33.724000000000004,83.676,36.891999999999996,82.74000000000001,38.980000000000004L69.24000000000001,38.980000000000004L69.24000000000001,41.428L91.56,41.428L91.56,38.980000000000004L85.188,38.980000000000004C86.052,37,87.024,34.408,87.816,32.212L85.296,31.528ZM58.296,50.356L59.16,53.092C62.22,51.867999999999995,66.21600000000001,50.248000000000005,70.032,48.664L69.52799999999999,46.18L65.316,47.8L65.316,36.1L69.42,36.1L69.42,33.544L65.316,33.544L65.316,25.17738L62.832,25.17738L62.832,33.544L58.584,33.544L58.584,36.1L62.832,36.1L62.832,48.7461C61.104,49.384,59.556,49.924,58.296,50.356ZM111.612,28.972L122.052,28.972L122.052,33.4L111.612,33.4L111.612,28.972ZM109.128,26.668L109.128,35.668L115.608,35.668L115.608,38.908L108.372,38.908L108.372,48.592L115.608,48.592L115.608,53.848L106.716,54.352L107.112,56.98C111.684,56.674,118.128,56.206,124.356,55.702C124.824,56.602,125.184,57.466,125.4,58.186L127.74,57.142C126.984,54.982,125.076,51.699799999999996,123.204,49.2428L121.008,50.1822C121.692,51.1576,122.412,52.2415,123.096,53.3614L118.164,53.686L118.164,48.592L125.616,48.592L125.616,38.908L118.164,38.908L118.164,35.668L124.644,35.668L124.644,26.668L109.128,26.668ZM110.748,41.176L115.608,41.176L115.608,46.324L110.748,46.324L110.748,41.176ZM118.164,41.176L123.132,41.176L123.132,46.324L118.164,46.324L118.164,41.176ZM96.06,34.696C95.772,38.116,95.232,42.616,94.692,45.388000000000005L96.276,45.388000000000005L103.332,45.424C102.9,51.688,102.432,54.172,101.748,54.856C101.424,55.216,101.1,55.252,100.524,55.252C99.912,55.252,98.328,55.216,96.708,55.072C97.14,55.756,97.428,56.836,97.464,57.592C99.12,57.7011,100.776,57.7011,101.64,57.6286C102.684,57.556,103.368,57.304,103.98,56.548C104.988,55.468,105.528,52.336,105.996,44.128C106.068,43.768,106.104,42.94,106.104,42.94L97.572,42.94C97.788,41.176,98.04,39.123999999999995,98.256,37.18L106.248,37.18L106.248,26.668L95.088,26.668L95.088,29.152L103.728,29.152L103.728,34.696L96.06,34.696Z" fill="#000000" fill-opacity="1"/></g></g></svg>