<svg xmlns="http://www.w3.org/2000/svg" xmlns:xlink="http://www.w3.org/1999/xlink" fill="none" version="1.1" width="150" height="78" viewBox="0 0 150 78"><g><g></g><g><path d="M39.351600000000005,31.4668Q38.050799999999995,37.900400000000005,34.3594,44.7207Q38.3672,50.1699,40.9336,53.8613L38.5078,55.7246Q35.5898,51.4707,32.7422,47.4277Q28.94531,53.334,23.63672,57.4824Q22.93359,56.498,21.632812,55.127Q27.22266,50.9434,30.98438,44.9316Q27.1875,39.623000000000005,23.49609,34.7363L25.67578,33.1543Q29.472659999999998,38.1465,32.5312,42.2598Q34.957,37.7598,36.6094,31.4668L21.773438,31.4668L21.773438,28.90039L31.476599999999998,28.90039Q30.246090000000002,26.47461,28.91016,24.29492L31.335900000000002,23.06445Q33.0938,25.87695,34.0781,27.91602L32.1445,28.90039L41.8125,28.90039L41.8125,31.4668L39.351600000000005,31.4668ZM51.9023,23.76758L54.6797,23.76758L54.6797,52.560500000000005Q54.6797,57.1309,50.4961,57.166Q48.6328,57.2012,44.8711,57.0957Q44.6602,55.6543,44.3438,53.9668Q47.1914,54.3184,49.1953,54.3184Q51.9023,54.3535,51.9023,51.6816L51.9023,23.76758ZM43.710899999999995,27.2832L46.3828,27.2832L46.3828,49.501999999999995L43.710899999999995,49.501999999999995L43.710899999999995,27.2832ZM71.5547,43.349599999999995L89.4141,43.349599999999995L89.4141,57.623L86.7422,57.623L86.7422,55.1973L74.22659999999999,55.1973L74.22659999999999,57.6582L71.5547,57.6582L71.5547,43.349599999999995ZM57.457,50.310500000000005Q59.8652,49.6953,62.5195,48.957L62.5195,34.7012L57.9492,34.7012L57.9492,32.2051L62.5195,32.2051L62.5195,23.31055L65.1562,23.31055L65.1562,32.2051L69.72659999999999,32.2051L69.72659999999999,34.7012L65.1562,34.7012L65.1562,48.2188Q67.459,47.5684,69.9375,46.8301Q69.9375,47.5332,70.11330000000001,49.6074Q65.22659999999999,50.9434,58.4062,53.0527L57.457,50.310500000000005ZM86.7422,45.775400000000005L74.22659999999999,45.775400000000005L74.22659999999999,52.8418L86.7422,52.8418L86.7422,45.775400000000005ZM69.0938,37.4082L82.0137,37.4082Q84.7031,33.3125,86.1094,30.69336L88.8516,32.2402Q86.8125,35.1055,85.0723,37.4082L92.2617,37.4082L92.2617,39.7637L69.0938,39.7637L69.0938,37.4082ZM70.3594,27.63477L80.0098,27.63477Q79.1309,25.92969,77.98830000000001,24.01367L80.3789,22.85352Q81.6797,24.89258,82.66409999999999,26.68555L80.6426,27.63477L91.1719,27.63477L91.1719,29.99023L70.3594,29.99023L70.3594,27.63477ZM72.5039,32.1348L74.5781,30.763669999999998Q76.6875,33.2246,78.375,35.5449L76.0195,37.162099999999995Q74.26169999999999,34.3848,72.5039,32.1348ZM122.531,50.3809L124.887,49.2559Q126.926,52.8418,128.789,56.6035L126.152,57.9395Q125.59,56.6035,124.992,55.3379Q114.0938,56.0762,105.4805,56.6738L105.0938,53.7559Q110.3672,53.5449,115.3242,53.334L115.3242,48.1309L109.2773,48.1309L109.2773,49.501999999999995L106.6758,49.501999999999995L106.6758,38.287099999999995L115.3242,38.287099999999995L115.3242,34.4551L110.6836,34.4551L110.6836,35.8613L108.082,35.8613L108.082,25.0332L125.238,25.0332L125.238,35.8613L122.637,35.8613L122.637,34.4551L117.9961,34.4551L117.9961,38.287099999999995L126.68,38.287099999999995L126.68,48.1309L117.9961,48.1309L117.9961,53.2285Q120.9844,53.123,123.867,52.9824Q123.199,51.6465,122.531,50.3809ZM95.3906,33.5059L102.2812,33.5059L102.2812,27.59961L94.3359,27.59961L94.3359,25.20898L104.8828,25.20898L104.8828,37.4082L102.2812,37.4082L102.2812,35.8965L97.6758,35.8965L97.043,41.3457L104.5664,41.3457Q104.2148,48.834,103.9336,52.2793Q103.6172,57.0605,99.1875,57.0605Q97.6055,57.0605,95.3906,57.0254Q95.1797,55.7246,94.8281,54.2129Q97.1133,54.3887,98.7305,54.3887Q101.1211,54.3887,101.2969,51.9277Q101.5781,48.3418,101.7891,43.7363L94.2656,43.7363L95.3906,33.5059ZM122.637,27.42383L110.6836,27.42383L110.6836,32.0645L122.637,32.0645L122.637,27.42383ZM124.078,45.7402L124.078,40.6777L117.9961,40.6777L117.9961,45.7402L124.078,45.7402ZM109.2773,45.7402L115.3242,45.7402L115.3242,40.6777L109.2773,40.6777L109.2773,45.7402Z" fill="#000000" fill-opacity="1"/></g></g></svg>