<svg xmlns="http://www.w3.org/2000/svg" xmlns:xlink="http://www.w3.org/1999/xlink" fill="none" version="1.1" width="150" height="78" viewBox="0 0 150 78"><g><g></g><g><path d="M59.7,25.448L58.836,24.764L59.448,24.764Q60.06,24.764,60.168,24.908Q60.275999999999996,25.052,61.32,25.16Q62.616,25.304000000000002,63.678,26.006Q64.74,26.708,64.524,27.248Q64.416,27.536,64.254,27.445999999999998Q64.092,27.356,64.092,27.536Q64.092,27.716,63.804,27.823999999999998Q63.516,27.932000000000002,62.724000000000004,28.688Q61.932,29.444000000000003,61.751999999999995,29.444000000000003Q61.572,29.48,58.332,32.647999999999996Q55.092,35.816,54.984,36.104Q54.912,36.32,54.984,36.356Q55.056,36.391999999999996,55.344,36.32Q55.812,36.212,55.974000000000004,36.068Q56.135999999999996,35.924,56.406,35.906Q56.676,35.888,57.378,35.564Q58.08,35.24,58.296,35.222Q58.512,35.204,59.412,34.808Q61.176,34.016,63.984,32.936Q64.74,32.647999999999996,65.928,31.945999999999998Q67.116,31.244,67.29599999999999,30.956Q67.404,30.776,67.404,30.974Q67.404,31.172,66.936,31.532Q66.468,31.892,66.666,31.892Q66.864,31.892,66.97200000000001,31.73Q67.08,31.567999999999998,67.566,31.316000000000003Q68.05199999999999,31.064,69.024,31.28Q70.71600000000001,31.676000000000002,71.50800000000001,32.54Q71.904,32.936,71.616,33.116Q71.436,33.224000000000004,69.114,33.872Q66.792,34.519999999999996,65.496,34.916Q65.388,34.952,65.208,35.024Q64.38,35.275999999999996,64.27199999999999,35.564Q64.164,35.852000000000004,64.38,37.328Q64.416,37.652,64.452,37.832Q64.74,39.956,64.632,43.592Q64.524,47.228,64.164,48.812Q63.876000000000005,49.928,63.984,51.403999999999996Q64.092,52.879999999999995,63.912,53.996Q63.804,54.716,63.678,54.968Q63.552,55.22,63.228,55.364Q62.724000000000004,55.616,62.292,55.418Q61.86,55.22,61.14,54.392Q59.772,52.808,59.088,52.088Q58.836,51.8,58.116,51.44Q57.396,51.08,57.108000000000004,51.08Q56.82,51.08,56.622,50.846000000000004Q56.424,50.611999999999995,55.812,50.486000000000004Q55.2,50.36,55.2,50.198Q55.2,50.036,54.912,50.036Q54.732,50,54.732,49.964Q54.84,49.82,56.135999999999996,49.784Q57.432,49.748000000000005,58.980000000000004,49.856Q61.068,50,61.248000000000005,49.928Q61.5,49.82,61.824,47.263999999999996Q61.968,45.896,62.147999999999996,44.384Q62.507999999999996,41.504000000000005,62.67,38.822Q62.832,36.14,62.652,35.996Q62.58,35.888,61.734,36.176Q60.888000000000005,36.464,60.528,36.518Q60.168,36.572,59.232,37.004000000000005Q58.188,37.472,56.748000000000005,37.922Q55.308,38.372,54.804,38.372Q54.192,38.336,53.706,37.903999999999996Q53.22,37.472,53.22,36.896Q53.256,36.464,53.525999999999996,35.924Q53.796,35.384,53.976,35.384Q54.228,35.384,55.992000000000004,33.44Q56.856,32.504,57.198,32.36Q57.54,32.216,57.342,32.09Q57.144,31.964,58.116,31.1Q59.088,30.236,59.232,30.2Q59.448,30.092,60.726,28.598Q62.004000000000005,27.104,62.004000000000005,26.96Q62.004000000000005,26.708,61.266,26.42Q60.528,26.131999999999998,59.7,25.448ZM47.712,24.224Q47.712,24.08,48.018,23.990000000000002Q48.324,23.9,48.666,23.990000000000002Q49.007999999999996,24.08,49.512,24.188Q49.980000000000004,24.259999999999998,50.952,25.214Q51.924,26.168,52.176,26.78Q52.391999999999996,27.32,52.391999999999996,28.31Q52.391999999999996,29.3,52.176,29.875999999999998Q51.924,30.451999999999998,51.168,31.514Q50.412,32.576,50.141999999999996,32.954Q49.872,33.332,49.403999999999996,33.8Q48.936,34.196,48.954,34.34Q48.972,34.484,49.44,34.7Q50.376,35.06,50.736000000000004,36.068Q51.096000000000004,37.076,50.664,37.94Q50.34,38.588,50.34,38.84Q50.34,39.632000000000005,48.324,42.007999999999996Q47.532,42.944,47.532,43.088Q47.532,43.232,47.982,43.519999999999996Q48.432,43.808,48.576,43.592Q48.72,43.376000000000005,48.846000000000004,43.879999999999995Q48.972,44.384,49.403999999999996,44.96Q50.412,46.256,50.556,48.812Q50.628,49.82,50.574,50.072Q50.519999999999996,50.324,50.196,50.576Q49.8,50.9,49.566,50.882000000000005Q49.332,50.864000000000004,48.9,50.504000000000005Q48.108000000000004,49.784,47.712,48.092Q47.496,47.084,47.388,47.084Q47.28,47.084,47.208,45.824Q47.135999999999996,44.564,47.064,44.42Q46.775999999999996,43.952,45.12,45.248000000000005Q43.86,46.22,43.769999999999996,46.22Q43.68,46.22,43.68,45.968Q43.68,45.716,43.284,45.824Q42.996,45.86,42.888,45.751999999999995Q42.78,45.644,42.636,45.176Q42.456,44.456,42.492,43.232L42.564,42.007999999999996L43.5,41.54Q45.84,40.46,47.532,37.544Q48.684,35.564,48.396,35.096000000000004Q48.324,35.024,48.252,35.024Q48.108000000000004,35.024,46.848,35.996Q46.056,36.608000000000004,45.66,36.806Q45.264,37.004000000000005,44.688,37.076Q44.076,37.147999999999996,43.842,37.094Q43.608,37.04,43.284,36.752Q42.78,36.356,42.456,35.456Q41.808,33.548,43.068,32.792Q43.608,32.468,45.66,30.488Q47.712,28.508,48.396,27.248Q49.007999999999996,26.168,49.062,25.826Q49.116,25.484,48.684,25.195999999999998Q47.712,24.584,47.712,24.224ZM88.572,22.784Q88.68,22.46,88.842,22.406Q89.00399999999999,22.352,89.616,22.424Q90.336,22.496,90.66,22.748Q90.98400000000001,23,91.128,23.648Q91.23599999999999,24.152,91.452,24.242Q91.668,24.332,92.694,23.738Q93.72,23.144,94.29599999999999,22.928Q94.872,22.748,95.646,22.748Q96.42,22.748,96.888,22.928Q97.464,23.18,98.166,23.792Q98.868,24.404,98.976,24.692Q99.084,25.088,99.3,25.34Q99.55199999999999,25.664,99.714,27.374Q99.876,29.084,99.768,30.092Q99.588,31.46,98.652,33.368Q98.328,33.980000000000004,97.662,34.538Q96.99600000000001,35.096000000000004,96.384,35.24Q95.952,35.348,95.916,35.492000000000004Q95.916,35.816,96.99600000000001,35.852000000000004Q97.572,35.852000000000004,98.75999999999999,35.51Q99.94800000000001,35.168,100.812,35.348Q101.676,35.528,101.676,35.69Q101.676,35.852000000000004,101.892,35.852000000000004Q102.21600000000001,35.852000000000004,103.08,36.248Q103.944,36.644,104.232,36.932Q104.52,37.22,104.61,37.382000000000005Q104.7,37.544,104.538,37.724000000000004Q104.376,37.903999999999996,103.98,38.066Q103.584,38.228,102.864,38.480000000000004Q101.78399999999999,38.804,101.172,38.804Q100.38,38.804,97.32,39.739999999999995L96.06,40.135999999999996L96.06,41.504000000000005L96.06,42.908L96.78,43.123999999999995Q97.464,43.34,97.824,43.34Q98.184,43.34,98.184,43.592Q98.184,43.844,98.49000000000001,43.916Q98.79599999999999,43.988,98.904,44.492000000000004Q99.012,44.924,98.922,45.536Q98.832,46.147999999999996,98.72399999999999,46.147999999999996Q98.58,46.147999999999996,97.824,47.3Q97.068,48.452,96.312,49.298Q95.556,50.144,95.556,50.576Q95.556,50.972,95.664,51.007999999999996Q95.77199999999999,51.044,96.27600000000001,50.756Q96.708,50.54,97.158,50.629999999999995Q97.608,50.72,100.56,51.656Q103.008,52.448,103.332,53.672Q103.476,54.32,103.062,54.572Q102.648,54.824,101.208,54.932Q97.68,55.22,96.52799999999999,55.472Q95.44800000000001,55.76,94.22399999999999,55.832Q93,55.904,91.83,56.084Q90.66,56.264,89.904,56.084Q88.896,55.868,88.176,55.76Q87.96000000000001,55.76,87.636,54.086Q87.312,52.412,87.49199999999999,52.123999999999995Q87.6,51.944,88.788,51.152Q89.75999999999999,50.504000000000005,89.72399999999999,50.396Q89.72399999999999,50.324,89.544,50.288Q89.148,50.18,88.71600000000001,50.18Q88.104,50.18,87.366,49.856Q86.628,49.532,86.52000000000001,49.244Q86.232,48.379999999999995,86.826,47.336Q87.42,46.292,88.608,45.5Q89.58,44.852000000000004,90.858,44.186Q92.136,43.519999999999996,92.424,43.519999999999996Q93.21600000000001,43.519999999999996,93.324,42.260000000000005Q93.396,41.504000000000005,93.288,41.468Q93.21600000000001,41.468,92.964,41.611999999999995Q92.676,41.792,90.93,42.566Q89.184,43.34,88.914,43.519999999999996Q88.644,43.7,88.28399999999999,43.861999999999995Q87.924,44.024,87.20400000000001,44.744Q86.48400000000001,45.464,86.376,45.464Q86.268,45.464,85.72800000000001,45.824Q85.404,46.076,85.332,46.274Q85.25999999999999,46.472,85.29599999999999,46.94Q85.404,47.623999999999995,85.08,48.056Q84.864,48.308,84.738,48.344Q84.612,48.379999999999995,84.25200000000001,48.2Q83.64,47.948,83.118,47.480000000000004Q82.596,47.012,82.596,46.688Q82.596,46.328,82.452,46.22Q82.27199999999999,46.111999999999995,81.96600000000001,45.391999999999996Q81.66,44.672,81.714,44.438Q81.768,44.204,81.55199999999999,43.988Q81.12,43.412,81.66,41.864000000000004Q82.524,39.379999999999995,83.1,38.156Q83.352,37.616,83.946,37.076Q84.53999999999999,36.536,84.864,36.536Q85.188,36.536,85.512,36.176Q85.836,35.816,86.376,35.528Q86.628,35.42,86.628,35.456Q86.628,35.528,86.05199999999999,36.032Q85.404,36.608000000000004,85.25999999999999,36.986000000000004Q85.116,37.364000000000004,84.97200000000001,38.623999999999995Q84.936,39.236000000000004,84.72,40.442Q84.50399999999999,41.647999999999996,84.594,41.738Q84.684,41.828,85.44,41.468Q87.852,40.388000000000005,89.256,39.848Q89.868,39.632000000000005,91.27199999999999,38.984Q92.676,38.336,93.072,38.228Q93.324,38.120000000000005,93.378,37.867999999999995Q93.432,37.616,93.432,36.536Q93.396,34.952,93.288,34.88Q93.18,34.808,92.49600000000001,35.186Q91.812,35.564,91.668,36.14Q91.524,36.716,91.164,36.896Q90.84,37.076,90.12,36.968Q89.4,36.86,89.184,36.608000000000004Q89.00399999999999,36.356,88.75200000000001,36.068Q88.464,35.78,88.068,34.97Q87.672,34.16,87.672,33.872Q87.672,33.584,87.24000000000001,32.864000000000004Q86.34,31.424,86.592,30.848Q87.49199999999999,28.796,87.49199999999999,27.32Q87.49199999999999,26.384,87.708,26.024Q87.852,25.736,88.122,24.764Q88.392,23.792,88.392,23.504Q88.392,23.288,88.572,22.784ZM96.6,24.332Q96.06,24.008,95.214,24.188Q94.368,24.368,93.792,24.944Q93.50399999999999,25.195999999999998,93.306,25.195999999999998Q93.108,25.195999999999998,92.44200000000001,25.862000000000002Q91.77600000000001,26.528,91.38,26.744Q90.98400000000001,26.96,90.98400000000001,27.392Q90.98400000000001,27.644,91.038,27.698Q91.092,27.752,91.23599999999999,27.68Q91.452,27.5,92.49600000000001,27.086Q93.53999999999999,26.672,95.232,26.672L96.96000000000001,26.672L96.96000000000001,25.592Q96.96000000000001,24.908,96.888,24.674Q96.816,24.44,96.6,24.332ZM94.332,28.796Q94.512,28.508,94.35,28.526Q94.188,28.544,93.53999999999999,28.759999999999998Q92.82,29.012,92.532,29.012Q92.244,29.012,92.02799999999999,29.246000000000002Q91.812,29.48,91.30799999999999,29.408L90.84,29.336L90.84,30.560000000000002Q90.84,31.82,90.98400000000001,31.928Q91.128,32,92.622,30.596Q94.116,29.192,94.332,28.796ZM95.412,30.308Q95.88,29.588,95.628,29.588Q95.412,29.588,94.584,30.164Q93.72,30.776,93.576,30.776Q93.396,30.776,93,31.208Q92.604,31.64,92.712,31.712Q92.78399999999999,31.82,93.432,31.82Q94.476,31.82,95.412,30.308ZM92.82,45.751999999999995Q92.928,45.104,92.78399999999999,45.104Q92.568,45.104,90.624,46.147999999999996Q88.68,47.192,88.464,47.408Q88.356,47.516,88.464,47.678Q88.572,47.84,88.824,47.966Q89.076,48.092,89.328,48.092Q89.868,48.092,90.894,48.344Q91.92,48.596000000000004,92.136,48.488Q92.424,48.379999999999995,92.82,45.751999999999995Z" fill="#000000" fill-opacity="1"/></g></g></svg>