<svg xmlns="http://www.w3.org/2000/svg" xmlns:xlink="http://www.w3.org/1999/xlink" fill="none" version="1.1" width="150" height="78" viewBox="0 0 150 78"><g><g></g><g><path d="M35.29883,25.33789Q36.7578,25.33789,38.4453,28.32617Q40.5195,28.32617,41.7852,31.13867Q42.7344,30.38281,47.9375,28.83594Q51.435500000000005,26.49805,52.7539,26.49805Q56.761700000000005,27.64062,56.761700000000005,28.66016Q56.761700000000005,29.15234,55.425799999999995,29.64453Q54.001999999999995,29.32812,52.9297,29.32812Q52.525400000000005,29.32812,50.2578,29.82031Q50.925799999999995,31.68359,50.925799999999995,32.14062L50.925799999999995,32.65039Q47.041,36.3066,45.599599999999995,36.3066L45.599599999999995,36.1484Q48.2715,32.7207,48.2715,30.98047Q48.025400000000005,30.33008,47.761700000000005,30.33008L41.6094,31.64844Q40.1855,33.31836,38.9551,33.31836L38.4453,33.31836L38.6211,32.49219L38.6211,30.82227Q38.6211,30.55859,37.9531,30.1543L37.4609,30.1543Q36.2832,31.41992,36.2832,34.6367L36.2832,35.3047L36.6348,35.3047Q37.9004,35.3047,38.1289,35.9727L38.1289,37.3086Q37.1445,38.5742,36.2832,38.9609L35.63281,38.9609L35.63281,36.6406L34.78906,36.6406L32.80273,42.459Q38.1816,38.5742,39.7812,37.959Q40.9414,38.4688,41.4512,39.4707L41.4512,39.6465Q41.4512,41.5273,37.7949,46.7832Q38.1289,47.626999999999995,38.1289,49.7715L38.1289,49.9473L37.9531,49.9473Q35.42188,49.9473,33.62891,45.4648Q33.20703,45.4648,31.64258,43.9531Q31.36133,43.9531,30.30664,46.625Q28.91797,48.9277,27.65234,49.9473L27.14258,49.9473Q26.597656,49.9473,26.316406,47.960899999999995Q32.46875,37.1504,32.46875,35.4805Q34.96484,29.45117,34.96484,27.6582L34.96484,25.67188Q35.01758,25.33789,35.29883,25.33789ZM52.7539,33.47656Q54.863299999999995,33.47656,57.9219,37.1504L57.9219,37.8008Q52.7715,44.462900000000005,51.2598,44.462900000000005L51.2598,43.9531Q51.2598,43.5488,53.087900000000005,36.6406L52.9297,36.6406L48.0957,37.4668L46.4434,37.4668Q46.8125,36.7461,51.2598,35.3047Q51.875,34.0391,52.7539,33.47656ZM44.6152,36.4824L45.2656,36.4824L45.9512,47.7852L45.2656,48.1191Q43.1035,47.1172,43.1035,45.7812Q44.0176,36.4824,44.6152,36.4824ZM46.4434,38.6445L47.9375,38.6445Q50.4336,39.998,50.4336,43.6191Q50.4336,50.439499999999995,43.1035,53.2695L43.1035,52.4434Q47.9375,50.123000000000005,47.9375,44.462900000000005L47.9375,42.6172Q47.9375,40.6309,46.4434,38.6445ZM34.78906,44.462900000000005L34.78906,45.4648Q34.78906,45.851600000000005,36.125,45.957Q37.6719,43.5137,38.1289,40.9648L37.9531,40.9648Q34.78906,43.4082,34.78906,44.462900000000005ZM51.9277,46.449200000000005Q53.6152,46.449200000000005,56.251999999999995,47.960899999999995Q59.082,50.5273,59.082,51.2832Q58.5195,53.6035,57.9219,53.6035L57.412099999999995,53.6035Q53.773399999999995,49.4551,51.7695,46.625Q51.9277,46.625,51.9277,46.449200000000005ZM68.9434,27.3418L69.5938,27.3418Q71.9316,27.3418,71.9316,29.83789Q71.9316,34.8652,71.43950000000001,36.9922Q71.43950000000001,38.7852,72.7578,50.457L72.7578,51.6348Q71.7559,51.3184,69.5938,49.1211L70.7715,49.1211Q70.1035,45.4824,69.7695,39.4707L69.5938,39.4707Q68.9434,39.752,68.9434,40.648399999999995L68.9434,43.4785L68.7676,44.6387L68.6094,44.6387Q67.6074,43.900400000000005,67.6074,43.3027Q67.6074,43.039100000000005,67.7832,40.648399999999995L67.44919999999999,40.648399999999995Q66.3945,40.648399999999995,64.4434,48.136700000000005Q63.582,49.226600000000005,63.4414,50.2812L62.6328,50.2812Q62.0176,49.9824,61.7891,49.2969Q64.2852,42.8457,64.2852,42.6348L64.12700000000001,42.6348L61.4551,43.3027Q59.627,41.5977,59.627,40.8066L59.627,40.648399999999995Q60.1191,40.648399999999995,60.1191,40.4727L62.6328,41.650400000000005Q65.6035,40.7012,65.6035,37.8184Q65.7793,37.0098,65.7793,35.6562Q65.7793,32.10547,63.9512,28.83594Q65.3398,30.1543,66.11330000000001,30.1543Q68.9434,29.11719,68.9434,27.3418ZM75.2539,28.34375L77.2578,28.34375Q78.9102,28.34375,80.91409999999999,31.15625L87.0664,29.83789Q88.9473,30.48828,89.2285,30.99805L89.2285,31.15625Q89.2285,32.49219,87.8926,32.49219Q86.3457,32.49219,84.7285,32.65039Q83.5156,32.49219,81.582,32.49219Q81.2832,32.49219,79.4199,34.0039Q78.084,33.65234,77.2578,33.65234L73.60159999999999,34.4961L73.42580000000001,34.1621L73.42580000000001,34.0039Q73.42580000000001,33.26562,77.2578,32.33398L77.2578,32Q77.2578,31.20898,75.2539,28.67773L75.2539,28.34375ZM66.7812,32L66.7812,32.1582L66.93950000000001,33.82812L67.9414,33.82812Q69.2773,34.0039,69.2773,34.9883L69.5938,34.9883L69.7695,33.31836Q69.7695,31.73633,69.43549999999999,29.83789Q66.7812,30.89258,66.7812,32ZM81.24799999999999,34.3203Q83.4102,34.6895,83.4102,36.3242Q81.4062,42.1074,81.4062,45.1309L81.4062,46.291Q81.9688,47.4688,84.5703,47.4688L85.41409999999999,47.4688Q89.38669999999999,47.4688,89.38669999999999,43.636700000000005L89.5625,43.636700000000005Q90.5293,43.636700000000005,92.5508,49.2969Q90.1074,50.6328,86.57419999999999,50.6328L84.5703,50.6328Q81.6172,50.6328,79.08590000000001,47.7852L78.5762,45.974599999999995Q78.5762,45.412099999999995,79.7539,37.8184L77.92580000000001,37.8184L77.75,36.9922L77.75,36.6582Q78.9102,36.6582,80.0703,34.4961L81.24799999999999,34.3203ZM66.93950000000001,34.6543L66.93950000000001,38.9785L67.44919999999999,38.9785Q67.7832,38.9082,68.09960000000001,38.1523Q67.97659999999999,34.6543,67.27340000000001,34.6543L66.93950000000001,34.6543ZM74.76169999999999,36.8164Q76.9238,37.3086,76.9238,37.8184Q76.0977,49.789100000000005,74.0938,49.789100000000005L73.7598,49.789100000000005Q73.3203,49.789100000000005,73.0918,47.1348Q74.6035,38.7148,74.6035,37.4844L74.6035,37.1504L74.76169999999999,36.8164ZM113.1523,22.77148Q115.0684,22.77148,116.6504,25.60156L116.6504,25.75977Q115.7539,27.48242,113.6445,30.10156L113.6445,30.25977Q115.0684,30.25977,115.6484,31.26172L115.6484,31.41992Q115.1914,32.89648,108.3359,33.08984Q107.1406,33.08984,106.1562,35.7441L105.998,35.7441Q102.3418,34.6719,102.3418,32.08789Q102.3418,29.24023,100.1797,24.933594L100.8477,24.933594Q103.0449,24.933594,105.8398,28.58984Q106.332,30.1543,106.332,31.41992L106.332,31.75391L106.666,31.75391Q109.8301,31.75391,111.8164,26.60352L111.6582,26.60352Q108.9863,28.09766,107.334,28.09766Q106.2266,28.09766,104.9961,26.9375L104.9961,26.09375Q106.0859,26.09375,112.4844,22.77148L113.1523,22.77148ZM112.4844,34.4082Q116.9668,36.8867,116.9668,38.7324L116.9668,44.5684Q116.9668,45.886700000000005,116.8086,48.0488Q116.9668,48.3301,116.9668,48.8926Q116.2461,50.175799999999995,115.1562,50.5449L115.1562,51.212900000000005Q118.8125,52.689499999999995,118.8125,55.3613L118.6367,56.2051L118.3027,56.2051Q115.8242,56.2051,109.9883,50.210899999999995Q110.3223,50.0527,110.498,50.0527Q111.4473,50.0527,114.3125,50.8789L111.6582,48.3828L111.6582,47.8906L112.1504,47.8906Q112.4492,47.8906,113.6445,47.3809Q113.6445,38.3809,111.8164,36.0781L111.5,36.0781Q110.8496,36.0781,106.8418,37.9062Q104.1699,37.2383,104.1699,36.2539L104.3457,36.2539Q107.791,35.5684,112.4844,34.4082ZM102.9922,35.7441L103.3438,35.7441Q104.5039,43.0215,104.5039,49.3848L103.9941,50.210899999999995Q101.3398,49.1211,101.3398,47.3809L101.1816,47.3809L101.3398,46.2207Q101.6211,35.7441,102.9922,35.7441ZM106.8418,39.7344L107,39.7344Q109.9355,39.7344,110.6562,44.8848Q110.6562,50.123000000000005,103.6777,54.2012L102.6758,54.376999999999995L102.5,54.376999999999995L102.3418,53.550799999999995L102.3418,53.199200000000005Q107.1582,49.2441,107.1582,47.2227Q107.334,47.2227,107.334,46.5547L107.334,41.8965Q107.334,41.4922,106.8418,39.7344Z" fill="#000000" fill-opacity="1"/></g></g></svg>