<svg xmlns="http://www.w3.org/2000/svg" xmlns:xlink="http://www.w3.org/1999/xlink" fill="none" version="1.1" width="20"
    height="20" viewBox="0 0 20 20">
    <defs>
        <clipPath id="master_svg0_101_278">
            <rect x="0" y="0" width="20" height="20" rx="0" />
        </clipPath>
    </defs>
    <g clip-path="url(#master_svg0_101_278)">
        <g>
            <path
                d="M10.3449559765625,4.16667L17.4999259765625,4.16667C17.9602259765625,4.16667,18.3333259765625,4.539759999999999,18.3333259765625,5L18.3333259765625,16.6667C18.3333259765625,17.1269,17.9602259765625,17.5,17.4999259765625,17.5L2.4999589765625,17.5C2.0397219765625,17.5,1.6666259765625,17.1269,1.6666259765625,16.6667L1.6666259765625,3.333333C1.6666259765625,2.873096,2.0397219765625,2.5,2.4999589765625,2.5L8.678295976562499,2.5L10.3449559765625,4.16667ZM3.3332959765625,4.16667L3.3332959765625,15.8333L16.6666259765625,15.8333L16.6666259765625,5.83333L9.654955976562501,5.83333L7.9882959765625,4.16667L3.3332959765625,4.16667ZM9.1666259765625,10L10.8332959765625,10L10.8332959765625,14.1667L9.1666259765625,14.1667L9.1666259765625,10ZM9.1666259765625,7.5L10.8332959765625,7.5L10.8332959765625,9.16667L9.1666259765625,9.16667L9.1666259765625,7.5Z"
                fill="#000000" fill-opacity="1" />
        </g>
    </g>
</svg>