<svg xmlns="http://www.w3.org/2000/svg" xmlns:xlink="http://www.w3.org/1999/xlink" fill="none"
    version="1.1" width="20" height="20" viewBox="0 0 20 20">
    <g>
        <path
            d="M3.33335701171875,13.3333L16.66668701171875,13.3333L16.66668701171875,4.16667L3.33335701171875,4.16667L3.33335701171875,13.3333ZM10.83335701171875,15L10.83335701171875,16.6667L14.16668701171875,16.6667L14.16668701171875,18.3333L5.83335701171875,18.3333L5.83335701171875,16.6667L9.16668701171875,16.6667L9.16668701171875,15L2.4931870117187502,15C2.0367290117187498,15,1.66668701171875,14.6259,1.66668701171875,14.1604L1.66668701171875,3.3395669999999997C1.66668701171875,2.875892,2.04611201171875,2.5,2.4931870117187502,2.5L17.50688701171875,2.5C17.96338701171875,2.5,18.33338701171875,2.8741,18.33338701171875,3.3395669999999997L18.33338701171875,14.1604C18.33338701171875,14.6241,17.95398701171875,15,17.50688701171875,15L10.83335701171875,15Z"
            fill="currentColor" />
    </g>
</svg>