<svg xmlns="http://www.w3.org/2000/svg" xmlns:xlink="http://www.w3.org/1999/xlink" fill="none"
    version="1.1" width="20" height="20" viewBox="0 0 20 20">
    <g>
        <path
            d="M1.66668701171875,9.999986494140625C1.66668701171875,14.602356494140626,5.39764701171875,18.333356494140624,10.00001701171875,18.333356494140624C14.60238701171875,18.333356494140624,18.33338701171875,14.602356494140626,18.33338701171875,9.999986494140625C18.33338701171875,5.397616494140625,14.60238701171875,1.666656494140625,10.00001701171875,1.666656494140625C5.39764701171875,1.666656494140625,1.66668701171875,5.397616494140625,1.66668701171875,9.999986494140625ZM16.66668701171875,9.999986494140625C16.66668701171875,13.681956494140625,13.68198701171875,16.666656494140625,10.00001701171875,16.666656494140625C6.31811701171875,16.666656494140625,3.33335701171875,13.681956494140625,3.33335701171875,9.999986494140625C3.33335701171875,6.318086494140625,6.31811701171875,3.333326494140625,10.00001701171875,3.333326494140625C13.68198701171875,3.333326494140625,16.66668701171875,6.318086494140625,16.66668701171875,9.999986494140625ZM14.99998701171875,9.999986494140625C14.99998701171875,12.761356494140625,12.76138701171875,14.999956494140624,10.00001701171875,14.999956494140624L10.00001701171875,4.999986494140625C12.76138701171875,4.999986494140625,14.99998701171875,7.238566494140625,14.99998701171875,9.999986494140625Z"
            fill="currentColor" />
    </g>
</svg>