<svg xmlns="http://www.w3.org/2000/svg" xmlns:xlink="http://www.w3.org/1999/xlink" fill="none"
    version="1.1" width="20" height="20" viewBox="0 0 20 20">
        <g>
            <path
                d="M8.33335701171875,5.833326494140625C8.33335701171875,9.054986494140625,10.94501701171875,11.666656494140625,14.16668701171875,11.666656494140625C15.79868701171875,11.666656494140625,17.27418701171875,10.996406494140626,18.33298701171875,9.916236494140625C18.33338701171875,9.944156494140625,18.33338701171875,9.972076494140625,18.33338701171875,9.999986494140625C18.33338701171875,14.602356494140626,14.60238701171875,18.333356494140624,10.00001701171875,18.333356494140624C5.39764701171875,18.333356494140624,1.66668701171875,14.602356494140626,1.66668701171875,9.999986494140625C1.66668701171875,5.397616494140625,5.39764701171875,1.666656494140625,10.00001701171875,1.666656494140625C10.02793701171875,1.666656494140625,10.05585701171875,1.666656494140625,10.08376701171875,1.667064786140625C9.00360701171875,2.725806494140625,8.33335701171875,4.201296494140625,8.33335701171875,5.833326494140625ZM3.33335701171875,9.999986494140625C3.33335701171875,13.681956494140625,6.31811701171875,16.666656494140625,10.00001701171875,16.666656494140625C12.54858701171875,16.666656494140625,14.76318701171875,15.236556494140626,15.88498701171875,13.135056494140626C15.32878701171875,13.265556494140625,14.75298701171875,13.333356494140626,14.16668701171875,13.333356494140626C10.02451701171875,13.333356494140626,6.66668701171875,9.975486494140625,6.66668701171875,5.833326494140625C6.66668701171875,5.247056494140625,6.73446701171875,4.671216494140625,6.86493701171875,4.114986494140625C4.76344701171875,5.236846494140625,3.33335701171875,7.451406494140625,3.33335701171875,9.999986494140625Z"
                fill="currentColor" />
        </g>
</svg>