<svg xmlns="http://www.w3.org/2000/svg" xmlns:xlink="http://www.w3.org/1999/xlink" fill="none"
    version="1.1" width="20" height="20" viewBox="0 0 20 20">
    <g>
        <path
            d="M9.99998298828125,15.000043505859376C7.23855298828125,15.000043505859376,4.99998298828125,12.761443505859376,4.99998298828125,10.000013505859375C4.99998298828125,7.238583505859375,7.23855298828125,5.000013505859375,9.99998298828125,5.000013505859375C12.76141298828125,5.000013505859375,15.00001298828125,7.238583505859375,15.00001298828125,10.000013505859375C15.00001298828125,12.761443505859376,12.76141298828125,15.000043505859376,9.99998298828125,15.000043505859376ZM9.99998298828125,13.333343505859375C11.84091298828125,13.333343505859375,13.33331298828125,11.840943505859375,13.33331298828125,10.000013505859375C13.33331298828125,8.159063505859375,11.84091298828125,6.666673505859375,9.99998298828125,6.666673505859375C8.15903298828125,6.666673505859375,6.66664298828125,8.159063505859375,6.66664298828125,10.000013505859375C6.66664298828125,11.840943505859375,8.15903298828125,13.333343505859375,9.99998298828125,13.333343505859375ZM9.16664298828125,0.833343505859375L10.83331298828125,0.833343505859375L10.83331298828125,3.333343505859375L9.16664298828125,3.333343505859375L9.16664298828125,0.833343505859375ZM9.16664298828125,16.666643505859376L10.83331298828125,16.666643505859376L10.83331298828125,19.166643505859376L9.16664298828125,19.166643505859376L9.16664298828125,16.666643505859376ZM2.92891298828125,4.107453505859375L4.10742298828125,2.928943505859375L5.87518298828125,4.696713505859375L4.69668298828125,5.875213505859375L2.92891298828125,4.107453505859375ZM14.12471298828125,15.303343505859376L15.30331298828125,14.124743505859374L17.07101298828125,15.892543505859376L15.89251298828125,17.071043505859375L14.12471298828125,15.303343505859376ZM15.89251298828125,2.928943505859375L17.07101298828125,4.107453505859375L15.30331298828125,5.875213505859375L14.12471298828125,4.696713505859375L15.89251298828125,2.928943505859375ZM4.69668298828125,14.124743505859374L5.87518298828125,15.303343505859376L4.10742298828125,17.071043505859375L2.92891298828125,15.892543505859376L4.69668298828125,14.124743505859374ZM19.16661298828125,9.166673505859375L19.16661298828125,10.833343505859375L16.66661298828125,10.833343505859375L16.66661298828125,9.166673505859375L19.16661298828125,9.166673505859375ZM3.33331298828125,9.166673505859375L3.33331298828125,10.833343505859375L0.83331298828125,10.833343505859375L0.83331298828125,9.166673505859375L3.33331298828125,9.166673505859375Z"
            fill="currentColor" />
    </g>
</svg>