<svg xmlns="http://www.w3.org/2000/svg" xmlns:xlink="http://www.w3.org/1999/xlink" fill="none" version="1.1" width="200" height="104" viewBox="0 0 200 104"><g><g></g><g><path d="M68.644,34.93206L68.644,54.664L71.236,54.664L71.236,34.93206L68.644,34.93206ZM76.24,31.39563L76.24,60.388C76.24,61,76.024,61.216,75.376,61.216C74.764,61.252,72.712,61.252,70.48,61.216C70.876,61.972,71.27199999999999,63.124,71.416,63.88C74.44,63.88,76.276,63.808,77.392,63.376C78.50800000000001,62.944,78.94,62.152,78.94,60.388L78.94,31.39563L76.24,31.39563ZM54.496,31.72019C55.432,33.30813,56.476,35.40119,56.980000000000004,36.7L47.692,36.7L47.692,39.22L60.436,39.22C59.788,42.82,58.924,46.096000000000004,57.736000000000004,49.048C55.612,46.672,53.344,44.367999999999995,51.22,42.352000000000004L49.384,43.972C51.76,46.239999999999995,54.28,48.94,56.584,51.64C54.424,55.924,51.508,59.344,47.476,61.792C48.052,62.296,49.06,63.34,49.42,63.88C53.236,61.288,56.152,57.94,58.384,53.8C60.22,56.14,61.804,58.372,62.848,60.172L64.936,58.228C63.748000000000005,56.212,61.84,53.728,59.644,51.172C61.156,47.68,62.308,43.72,63.135999999999996,39.22L66.304,39.22L66.304,36.7L57.052,36.7L59.5,35.58175C58.96,34.28238,57.844,32.26131,56.872,30.74594L54.496,31.72019ZM98.092,38.3099C98.99199999999999,40.2916,99.82,42.8498,100.072,44.5429L102.376,43.7864C102.088,42.0933,101.25999999999999,39.607,100.25200000000001,37.6613L98.092,38.3099ZM97.372,50.596000000000004L97.372,63.8536L99.892,63.8536L99.892,62.296L111.016,62.296L111.016,63.745L113.608,63.745L113.608,50.596000000000004L97.372,50.596000000000004ZM99.892,59.848L99.892,53.007999999999996L111.016,53.007999999999996L111.016,59.848L99.892,59.848ZM103.42,30.963630000000002C103.852,32.15556,104.212,33.67263,104.428,34.864L95.608,34.864L95.608,37.312L115.408,37.312L115.408,34.864L107.056,34.864C106.84,33.63606,106.372,31.90244,105.832,30.5665L103.42,30.963630000000002ZM110.296,37.528C109.756,39.724000000000004,108.676,42.891999999999996,107.74000000000001,44.980000000000004L94.24000000000001,44.980000000000004L94.24000000000001,47.428L116.56,47.428L116.56,44.980000000000004L110.188,44.980000000000004C111.052,43,112.024,40.408,112.816,38.212L110.296,37.528ZM83.29599999999999,56.356L84.16,59.092C87.22,57.867999999999995,91.21600000000001,56.248000000000005,95.032,54.664L94.52799999999999,52.18L90.316,53.8L90.316,42.1L94.42,42.1L94.42,39.544L90.316,39.544L90.316,31.17738L87.832,31.17738L87.832,39.544L83.584,39.544L83.584,42.1L87.832,42.1L87.832,54.7461C86.104,55.384,84.556,55.924,83.29599999999999,56.356ZM136.612,34.972L147.05200000000002,34.972L147.05200000000002,39.4L136.612,39.4L136.612,34.972ZM134.128,32.668L134.128,41.668L140.608,41.668L140.608,44.908L133.372,44.908L133.372,54.592L140.608,54.592L140.608,59.848L131.716,60.352L132.112,62.98C136.684,62.674,143.128,62.206,149.356,61.702C149.824,62.602,150.184,63.466,150.4,64.186L152.74,63.142C151.98399999999998,60.982,150.076,57.699799999999996,148.204,55.2428L146.00799999999998,56.1822C146.692,57.1576,147.412,58.2415,148.096,59.3614L143.164,59.686L143.164,54.592L150.61599999999999,54.592L150.61599999999999,44.908L143.164,44.908L143.164,41.668L149.644,41.668L149.644,32.668L134.128,32.668ZM135.748,47.176L140.608,47.176L140.608,52.324L135.748,52.324L135.748,47.176ZM143.164,47.176L148.132,47.176L148.132,52.324L143.164,52.324L143.164,47.176ZM121.06,40.696C120.772,44.116,120.232,48.616,119.692,51.388000000000005L121.276,51.388000000000005L128.332,51.424C127.9,57.688,127.432,60.172,126.748,60.856C126.424,61.216,126.1,61.252,125.524,61.252C124.912,61.252,123.328,61.216,121.708,61.072C122.14,61.756,122.428,62.836,122.464,63.592C124.12,63.7011,125.776,63.7011,126.64,63.6286C127.684,63.556,128.368,63.304,128.98000000000002,62.548C129.988,61.468,130.52800000000002,58.336,130.99599999999998,50.128C131.06799999999998,49.768,131.10399999999998,48.94,131.10399999999998,48.94L122.572,48.94C122.788,47.176,123.04,45.123999999999995,123.256,43.18L131.248,43.18L131.248,32.668L120.088,32.668L120.088,35.152L128.728,35.152L128.728,40.696L121.06,40.696Z" fill="#000000" fill-opacity="1"/></g></g></svg>