<svg xmlns="http://www.w3.org/2000/svg" xmlns:xlink="http://www.w3.org/1999/xlink" fill="none"
    version="1.1" width="208" height="78" viewBox="0 0 208 78">
    <g>
        <g style="opacity:0.014999999664723873;">
            <path d="M178,0L186,0L186,62L178,62L178,0Z" fill="currentColor" fill-opacity="1" />
        </g>
        <g style="opacity:0.05000000074505806;">
            <path d="M109,0L127,0L127,31L109,31L109,0Z" fill="currentColor" fill-opacity="1" />
        </g>
        <g style="opacity:0.02500000037252903;">
            <path d="M34,0L45,0L45,54L34,54L34,0Z" fill="currentColor" fill-opacity="1" />
        </g>
        <g style="opacity:0.05000000074505806;">
            <path
                d="M162.42439611328126,78L163.44827611328125,78L165.37930611328125,76.7257L168.89257611328125,74.5063L168.50132611328124,74.2566L166.07557611328124,72.7752L159.71025902159124,76.076L162.42439611328126,78ZM177.51216611328124,68.23009L195.80066611328124,77.3988L191.69046611328125,74.3849C191.25916611328125,74.0686,191.46806611328125,73.3708,191.99796611328125,73.3578L192.75166611328126,73.3394C193.07126611328124,73.3316,193.38626611328124,73.419,193.65856611328127,73.591L198.62066611328126,76.7257L200.55176611328125,78L207.99996611328126,78L194.62066611328126,71.06195L192.75866611328127,71.06195L192.34486611328126,70.49557L191.86206611328126,70.49557L192.75866611328127,68.23009L177.51216611328124,68.23009ZM174.36866611328125,78L170.63126611328124,75.6155L167.37930611328125,78L174.36866611328125,78ZM176.10006611328126,67.52212L174.39026611328126,66.66494L174.68966611328125,66.38938L189.31036611328125,66.38938L190.54106611328126,67.52212L176.10006611328126,67.52212ZM187.93106611328125,65.68142L176.06896611328125,65.68142L176.06896611328125,64.0531Q176.46556611328126,63.62832,176.75866611328127,63.13274Q177.05176611328125,62.637168,177.24136611328126,62.0707965L178.68966611328125,62.0707965L178.68966611328125,62.353982L179.58616611328125,62.353982L179.58616611328125,62L181.72416611328126,62L181.72416611328126,62.353982L182.27586611328124,62.353982L182.27586611328124,62L184.41376611328124,62L184.41376611328124,62.353982L185.31036611328125,62.353982L185.31036611328125,62.0707965L186.75866611328127,62.0707965Q186.94826611328125,62.637168,187.24136611328126,63.13274Q187.53446611328124,63.62832,187.93106611328125,64.0531L187.93106611328125,65.68142Z"
                fill-rule="evenodd" fill="currentColor" fill-opacity="1" />
        </g>
        <g style="opacity:0.20000000298023224;">
            <path
                d="M61.631299999999996,78L39,78L79.6525,57.6195L85.3103,57.6195L86.5676,55.955799999999996L88.03450000000001,55.955799999999996L85.3103,49.3009L150.69,49.3009L147.966,55.955799999999996L149.43200000000002,55.955799999999996L150.69,57.6195L156.34699999999998,57.6195L197,78L174.369,78L168.501,74.25659999999999L153.424,65.04849999999999C152.59699999999998,64.5432,151.64,64.28649999999999,150.66899999999998,64.3095L148.37900000000002,64.36359999999999C146.768,64.4017,146.13299999999998,66.4516,147.44400000000002,67.38069999999999L162.424,78L139.24200000000002,78C136.238,71.06,128.3791,66.56190000000001,119.2573,66.56190000000001C110.1355,66.56190000000001,102.2766,71.06,99.273,78L73.57560000000001,78L88.55590000000001,67.38069999999999C89.8665,66.4516,89.2316,64.4017,87.6214,64.36359999999999L85.3314,64.3095C84.3603,64.28649999999999,83.4032,64.5432,82.57589999999999,65.04849999999999L67.4987,74.25659999999999L61.631299999999996,78ZM143.952,47.221199999999996L140.212,43.8938L95.7878,43.8938L92.04820000000001,47.221199999999996L143.952,47.221199999999996ZM99.9788,41.8142L136.0212,41.8142L136.0212,37.030969999999996Q134.8163,35.78319,133.9257,34.32743Q133.0351,32.87168,132.4589,31.207965L128.0584,31.207965L128.0584,32.03982L125.3342,32.03982L125.3342,31L118.8382,31L118.8382,32.03982L117.1618,32.03982L117.1618,31L110.6658,31L110.6658,32.03982L107.9416,32.03982L107.9416,31.207965L103.5411,31.207965Q102.9649,32.87168,102.0743,34.32743Q101.1837,35.78319,99.9788,37.030969999999996L99.9788,41.8142Z"
                fill-rule="evenodd" fill="currentColor" fill-opacity="1" />
        </g>
        <g style="opacity:0.10000000149011612;">
            <path
                d="M61.6313,78L61.7122,78L61.6743,77.9726L61.6313,78ZM64.6883,76.0496L64.7507,76.0885L67.6843,78L73.5756,78L75.8504,76.3874L69.4095,73.0896L67.4987,74.25659999999999L64.6883,76.0496ZM59.2105,67.8678L46.8075,74.0858C44.976,72.8605,42.6487,72.1593,40.1286,72.1593C35.5677,72.1593,31.6383,74.4562,30.1365,78L17.2878,78L24.778,72.5774C25.4332,72.10300000000001,25.1158,71.0562,24.3107,71.0367L23.1657,71.0091C22.6801,70.9974,22.2016,71.1284,21.788,71.3865L14.2493,76.0885L11.3156,78L0,78L20.3263,67.5929L23.1552,67.5929L23.7838,66.7434L24.5172,66.7434L23.1552,63.34513L55.8448,63.34513L54.4828,66.7434L55.2162,66.7434L55.8448,67.5929L58.6737,67.5929L59.2105,67.8678ZM48.5106,59.52212L30.4894,59.52212L30.4894,57.07965Q31.0918,56.44248,31.5371,55.69912Q31.9824,54.955752,32.2706,54.106195L34.4708,54.106195L34.4708,54.530973L35.8329,54.530973L35.8329,54L39.0809,54L39.0809,54.530973L39.9191,54.530973L39.9191,54L43.1671,54L43.1671,54.530973L44.5292,54.530973L44.5292,54.106195L46.7294,54.106195Q47.0176,54.955752,47.4629,55.69912Q47.9081,56.44248,48.5106,57.07965L48.5106,59.52212ZM50.6061,60.58407L52.4759,62.28319L26.5241,62.28319L28.3939,60.58407L50.6061,60.58407Z"
                fill-rule="evenodd" fill="currentColor" fill-opacity="1" />
        </g>
    </g>
</svg>