<svg xmlns="http://www.w3.org/2000/svg" xmlns:xlink="http://www.w3.org/1999/xlink" fill="none" version="1.1" width="1864" height="2880" viewBox="0 0 1864 2880"><g><g><rect x="0" y="0" width="1864" height="2880" rx="0" fill="#2866A3" fill-opacity="1"/></g><g><rect x="0" y="0" width="480" height="2880" rx="0" fill="#083B72" fill-opacity="1"/></g><g><rect x="140" y="460" width="860" height="860" rx="10" fill="#D09956" fill-opacity="1"/></g><g><g><rect x="1150" y="546" width="550" height="600" rx="10" fill="#FFFFFF" fill-opacity="1"/></g><g transform="matrix(-1,0,0,-1,2990,1268)"><path d="M1565,634L1625.622,694L1504.37822,694L1565,634Z" fill="#000000" fill-opacity="1"/></g></g><g><path d="M233.001,189C256.62,189,278.81600000000003,198.21898,295.49199999999996,214.9609C312.175,231.7032,321.36,253.97660000000002,321.36,277.6857C321.36,301.391,312.175,323.668,295.49199999999996,340.40700000000004C278.81600000000003,357.149,256.62,366.36699999999996,233.001,366.36699999999996C209.378,366.36699999999996,187.1859,357.149,170.5045,340.40700000000004C153.8276,323.668,144.642,301.391,144.642,277.6857C144.642,253.97660000000002,153.8276,231.7032,170.5045,214.9609C187.1859,198.21898,209.378,189,233.001,189ZM292.971,215.8332L289.054,219.7646C288.913,219.6645,288.772,219.5648,288.632,219.4653C284.33500000000004,216.4289,283.355,214.3766,283.05899999999997,213.3923C282.752,212.4022,282.379,211.5659,281.173,211.4175C279.96799999999996,211.2631,279.666,210.6579,278.005,210.1245C276.908,209.7709,276.507,210.1206,276.14099999999996,210.44C275.95500000000004,210.6022,275.778,210.7566,275.523,210.8067C275.118,210.8867,272.89599999999996,209.4227,270.52,207.857C268.488,206.5182,266.344,205.1046,265.126,204.5191C262.495,203.248,259.783,203.2041,257.601,202.6815C255.415,202.1481,252.549,199.9422,249.841,199.337C249.185,199.1879,248.661,199.0532,248.224,198.94083L248.223,198.94052C246.855,198.58849,246.346,198.45728,245.319,198.80353C243.966,199.2547,241.105,199.1774,239.368,199.7882C238.503,200.0913,238.127,199.8226,237.835,199.6132L237.835,199.6129C237.544,199.405,237.336,199.256,236.808,199.7882C236.23,200.3717,235.196,200.8656,234.144,201.192L234.144,191.34755L234.16500000000002,191.34776C257.004,191.65179,277.721,200.9332,292.971,215.8332ZM231.825,191.34786C208.99099999999999,191.65393,188.27179999999998,200.9403,173.027,215.8368L173.01510000000002,215.8484L183.6941,226.5588C183.6979,226.5551,183.70170000000002,226.5515,183.7054,226.5478C193.2253,217.2994,205.314,210.6959,218.779,207.9339C218.789,207.823,218.756,207.7161,218.656,207.6159C217.982,206.934,218.656,206.6312,220.24,206.4717C220.894,206.4104,221.34199999999998,206.2705,221.765,206.1384C222.364,205.9513,222.914,205.7799,223.928,205.8668C225.66,206.0152,227.848,206.0978,228.297,205.1846C228.751,204.2713,226.642,203.0557,225.66,203.2041C224.81900000000002,203.3411,224.203,202.7976,223.75799999999998,202.4044L223.757,202.404C223.684,202.3388,223.615,202.2782,223.551,202.2251C223.3,202.0105,223.65699999999998,202.1051,224.178,202.2432L224.179,202.2434C224.594,202.3532,225.112,202.4905,225.512,202.5222C225.85,202.5511,226.10399999999998,202.5062,226.375,202.458L226.376,202.4578C226.832,202.3772,227.337,202.2879,228.373,202.5222C229.297,202.7369,229.799,202.4292,230.311,202.1154L230.311,202.1153C230.71699999999998,201.8669,231.128,201.6146,231.76,201.6146C231.78199999999998,201.6146,231.803,201.6145,231.825,201.6141L231.825,191.34786ZM219.953,210.0868C220.933,210.3392,221.619,210.4784,222.274,210.4273C222.583,210.401,222.874,210.3037,223.214,210.1907C223.868,209.9725,224.702,209.6943,226.192,209.745Q227.602,209.7899,229.102,208.9485C230.005,208.8976,230.913,208.86430000000001,231.825,208.849L231.825,209.6696C229.459,209.7276,228.076,210.1423,227.013,210.461C226.661,210.5665,226.344,210.6616,226.039,210.7297C224.68,211.0324,222.8,211.2631,220.76600000000002,212.17079999999999Q219.595,212.69729999999998,219.422,213.4521Q219.29500000000002,214.007,219.709,214.6853Q215.417,214.2286,212.704,220.3071C211.327,223.39929999999998,213.163,225.5278,215.71699999999998,226.9026C210.32299999999998,228.756,205.3141,231.4518,200.8486,234.8327C200.2889,234.7063,199.7558,234.6581,199.4583,235.0654C198.9788,235.72129999999999,198.7173,236.0707,197.14870000000002,236.7263Q196.23309999999998,237.1092,195.0716,237.9696L185.3449,228.2144C185.3486,228.2108,185.3523,228.2073,185.356,228.2037C194.725,219.1092,206.6605,212.665,219.953,210.0868ZM182.0488,228.2148L171.3659,217.5006C156.5283,232.8056,147.2799,253.5986,146.9772,276.51390000000004L146.9772,276.52049999999997L151.833,276.52049999999997C151.8088,276.26120000000003,151.8033,276.0389,151.8222,275.86490000000003C151.88819999999998,275.2573,151.9925,274.8558,152.07659999999998,274.5319C152.18540000000002,274.1133,152.2604,273.8245,152.1752,273.3883C152.1085,273.0476,152.1883,272.8968,152.3072,272.6721C152.4586,272.3861,152.67329999999998,271.9805,152.7296,270.9112C152.7742,270.0666,153.2233,269.1535,153.6842,268.2165C154.2653,267.03520000000003,154.865,265.81579999999997,154.69639999999998,264.6477C154.3937,262.5518,154.3937,260.7462,155.2006,260.33320000000003C155.3332,260.2653,155.4522,260.2085,155.5564,260.1588C156.0863,259.9062,156.2349,259.8354,155.8559,259.4044C155.402,258.8884,155.04919999999998,257.9599,156.0577,256.6693C156.3178,256.3368,156.5343,256.1175,156.708,255.94150000000002C157.208,255.4349,157.35410000000002,255.2869,157.1671,253.83159999999998C157.1543,253.732,157.142,253.6374,157.1303,253.5473C156.91140000000001,251.8648,156.9028,251.7985,157.6208,251.4062C158.37709999999998,250.99360000000001,158.88150000000002,250.3409,158.7807,249.6873C158.7284,249.3484,158.9468,249.0881,159.1694,248.8227C159.3766,248.57569999999998,159.5875,248.3244,159.5875,248.001C159.5875,247.9275,159.58870000000002,247.8397,159.5901,247.74110000000002C159.6011,246.9402,159.622,245.4272,159.0829,245.0599C158.4779,244.6471,158.5282,244.1823,159.1835,242.8927C159.7574,241.7634,159.6747,240.7924,159.6115,240.0489C159.6024,239.9428,159.5938,239.8414,159.5875,239.7448C159.5367,238.9709,159.7387,238.9709,160.4442,239.1255C160.7341,239.1892,160.8795,239.6008,161.0304,240.0281C161.2471,240.6414,161.4753,241.28719999999998,162.15879999999999,240.983C163.3185,240.4673,163.7462,238.60309999999998,163.6952,237.9843C163.6452,237.36520000000002,165.1737,236.6094,165.1617,237.0239Q165.1842,240.1059,164.2765,241.2931C163.369,242.4796,163.3185,241.8091,162.4616,244.7502C161.6039,247.6911,160.5953,250.2197,160.3436,251.768C160.09120000000001,253.3159,160.2428,255.0186,160.0414,255.99880000000002C160.0186,256.1095,159.9932,256.2275,159.9669,256.3492C159.761,257.3059,159.5043,258.4984,160.0414,258.2693C160.6461,258.0111,161.6039,255.8442,162.15879999999999,255.37990000000002C162.7133,254.91570000000002,163.2682,253.3159,163.0663,252.6963C162.8646,252.0772,162.7133,251.4062,163.7724,250.6322C164.8312,249.8586,166.243,249.00990000000002,166.7975,247.757C167.3519,246.5046,168.81459999999998,246.6592,168.96620000000001,245.2659C169.1168,243.87290000000002,168.96620000000001,243.0473,169.6214,242.9959C169.8885,242.97480000000002,170.0885,243.1251,170.3307,243.30700000000002C170.4547,243.40019999999998,170.5897,243.5016,170.7504,243.5927C173.8238,237.96280000000002,177.6337,232.7929,182.0488,228.2148ZM170.2995,276.52049999999997C170.3933,276.13,170.5198,275.8098,170.6876,275.6109C171.0419,275.1907,171.698,274.665,172.2788,274.19960000000003C172.96089999999998,273.6531,173.5392,273.1898,173.40269999999998,273.0784C173.3229,273.01300000000003,173.2027,272.84929999999997,173.0644,272.66110000000003C172.7659,272.2548,172.3834,271.7341,172.1422,271.8399C171.7896,271.995,171.0331,272.0465,170.2264,272.2011C169.6773,272.3066,169.75889999999998,271.3365,169.8352,270.4295C169.871,270.0037,169.9057,269.5919,169.8734,269.3116C169.7723,268.4343,168.4615,268.0213,167.9571,267.7635C167.4535,267.5056,167.3519,266.4739,167.8063,266.1637C168.25990000000002,265.8541,168.5118,264.719,168.0582,264.2548C167.6044,263.7905,168.0582,263.2748,168.3607,263.1712C168.6634,263.068,168.6634,262.6552,168.25990000000002,262.3455C167.85660000000001,262.03610000000003,168.0077,261.5711,168.2098,261.3651C168.411,261.1586,168.3102,260.6943,167.75549999999998,260.4366C167.20080000000002,260.1786,167.75549999999998,259.1979,168.15879999999999,258.93989999999997C168.4468,258.7559,168.1697,258.2037,167.8773,257.6213C167.7696,257.4065,167.6597,257.1876,167.5753,256.9815C168.8529,252.9211,170.4963,249.022,172.4666,245.3235C173.3577,244.9121,174.5298,244.4906,174.7643,244.13060000000002C174.9761,243.8059,174.24939999999998,243.784,173.2929,243.81799999999998C176.1686,238.7297,179.6716,234.0434,183.6953,229.8662L193.26069999999999,239.4596C192.8536,239.7058,191.7203,239.27089999999998,190.98239999999998,238.9877C190.78230000000002,238.9109,190.6113,238.8453,190.49169999999998,238.8075C189.9443,238.6336,188.8725,240.3426,188.46609999999998,240.9905C188.44830000000002,241.019,188.4317,241.0454,188.41660000000002,241.0695C188.1936,241.4236,187.8331,241.5014,187.6325,241.5448C187.50830000000002,241.5716,187.4454,241.5852,187.5145,241.643C187.6618,241.76670000000001,187.5075,242.31380000000001,187.364,242.8226C187.332,242.9357,187.3007,243.0469,187.2732,243.15120000000002C187.1236,243.72469999999998,185.6495,243.72469999999998,185.409,244.1167C185.16809999999998,244.5092,183.9654,244.4788,183.84480000000002,244.90109999999999C183.72469999999998,245.323,182.7923,245.05180000000001,182.4312,246.0173C182.0709,246.9826,181.1082,247.2241,180.7774,248.6419C180.4466,250.0602,179.7547,250.0901,179.5445,250.5727C179.45440000000002,250.7793,179.49099999999999,251.0412,179.5341,251.349C179.5915,251.7601,179.6605,252.253,179.4539,252.8051Q179.0931,253.77030000000002,177.98059999999998,254.253Q178.34120000000001,254.5849,178.5001,254.9169C178.5996,255.1241,178.5599,255.49599999999998,178.5254,255.81959999999998C178.50459999999998,256.0144,178.4857,256.1916,178.5001,256.305Q178.5394,256.6066,178.82229999999998,257.4812Q178.892,257.4114,178.90370000000001,257.42Q178.9323,257.4411,178.61239999999998,257.9337C178.161,258.6278,179.15370000000001,258.8086,180.23590000000002,258.7483C181.3187,258.6883,181.55939999999998,259.2912,181.2586,259.8648C181.0227,260.3139,181.61849999999998,260.652,182.2058,260.8642C180.6764,265.5009,179.7615,270.41589999999997,179.5581,275.5116Q179.23399999999998,275.701,178.9984,275.701C178.24200000000002,275.701,177.9642,275.065,177.5614,275.065C177.2792,275.065,177.1581,275.88599999999997,176.9726,276.52049999999997L170.2995,276.52049999999997ZM152.2494,278.847L146.9772,278.847L146.9772,278.8538C147.2799,301.76800000000003,156.5236,322.56,171.3637,337.865L176.51819999999998,332.696C175.0454,331.23,173.8095,329.95,173.2015,329.219C172.4205,328.28,171.8135,327.403,171.3217,326.693C170.5433,325.568,170.054,324.86199999999997,169.6214,324.988C169.57670000000002,325.001,169.5314,325.015,169.4857,325.028C168.8085,325.23,168.02949999999998,325.462,167.6044,324.83299999999997C167.15030000000002,324.16200000000003,166.0414,322.821,165.94060000000002,322.356C165.8395,321.892,165.3856,320.654,164.88150000000002,320.395C164.6702,320.28700000000003,164.7245,320.152,164.79590000000002,319.975C164.8948,319.728,165.0265,319.401,164.5284,318.951C163.6717,318.177,159.5367,315.029,159.3351,313.378C159.1332,311.727,158.0746,308.579,157.87290000000002,307.031C157.671,305.483,157.0158,303.832,155.9567,302.594C155.8185,302.432,155.66910000000001,302.272,155.5145,302.10699999999997C154.4855,301.005,153.2296,299.661,153.53629999999998,295.937C153.7661,293.151,152.77949999999998,290.911,152.0895,289.345C151.7189,288.5032,151.4339,287.8562,151.4692,287.4234C151.5126,286.8908,151.8542,286.4347,152.2215,285.9442C152.7086,285.2937,153.24099999999999,284.5829,153.1835,283.5532C153.13819999999998,282.742,152.8284,281.3894,152.5146,280.0192C152.4245,279.6258,152.334,279.2309,152.2494,278.847ZM178.1833,334.334C181.2996,337.37,184.7836,340.615,185.70589999999999,341.345C187.26909999999998,342.584,194.9334,347.589,197.3536,348.724C199.7735,349.85900000000004,201.79059999999998,350.943,203.001,351.304C203.38479999999998,351.418,203.7942,351.616,204.2015,351.813C205.0779,352.23699999999997,205.9452,352.656,206.5301,352.233C207.0165,351.882,207.2108,351.929,207.4167,351.97900000000004C207.5738,352.017,207.7376,352.057,208.043,351.923C208.749,351.61400000000003,209.203,351.82,209.304,351.252C209.404,350.685,209.203,350.169,208.39600000000002,350.22C208.031,350.244,207.6652,350.14,207.2576,350.024C206.7652,349.885,206.2114,349.728,205.52179999999998,349.756C204.261,349.808,203.5555,349.188,204.0593,348.776Q204.564,348.363,207.5383,349.137Q207.0847,347.486,206.5806,346.711C206.21609999999998,346.152,205.90460000000002,346.18600000000004,205.1508,346.267C204.8615,346.298,204.507,346.336,204.0593,346.35C202.4461,346.402,200.5803,345.576,199.824,345.06Q199.6309,344.928,199.65120000000002,344.86400000000003Q199.7105,344.676,201.58870000000002,345.06L201.4505,344.952C201.2022,344.75800000000004,200.9622,344.69,200.763,344.443C200.6275,344.274,200.3682,343.911,199.8743,343.822C199.0174,343.66700000000003,199.0174,343.77099999999996,197.7566,343.51300000000003C196.4959,343.254,194.0257,342.067,192.8655,341.861C191.7064,341.655,190.9493,341.5,189.4368,340.52C187.9244,339.539,188.1766,339.23,187.26909999999998,338.404C186.3614,337.578,183.8404,336.288,181.3692,334.637C180.6782,334.175,180.10160000000002,333.576,179.60410000000002,332.909L183.69459999999998,328.805L183.709,328.791C196.21620000000001,340.93899999999996,213.15699999999998,348.523,231.825,348.829L231.825,364.02C208.99099999999999,363.714,188.27179999999998,354.427,173.027,339.53499999999997L173.013,339.52099999999996L178.1833,334.334ZM234.144,348.829L234.144,364.02L234.16500000000002,364.02C257.005,363.716,277.723,354.433,292.973,339.536L289.467,336.01800000000003C289.307,336.188,289.16999999999996,336.363,289.06600000000003,336.53999999999996C288.26,337.904,287.81,338.212,287.07,338.366C286.31399999999996,338.515,285.558,338.46500000000003,285.498,339.36699999999996C285.437,340.25800000000004,284.988,340.25800000000004,284.533,340.413C284.08299999999997,340.567,283.788,340.567,283.267,341.023C282.746,341.475,280.927,340.79200000000003,280.39,340.187C279.847,339.577,280.291,338.438,281.606,336.161C282.366,334.848,283.55600000000004,332.878,284.608,331.142L282.35699999999997,328.88300000000004Q280.86699999999996,330.173,280.81399999999996,330.757C280.74199999999996,331.55,279.23199999999997,331.874,279.053,332.66700000000003C278.954,333.1,278.728,333.318,278.554,333.486C278.40999999999997,333.625,278.301,333.73,278.334,333.89300000000003C278.358,334.014,278.401,334.111,278.435,334.188C278.504,334.342,278.539,334.422,278.328,334.47C278.01,334.54200000000003,277.435,335.08299999999997,277.435,336.02C277.435,336.474,277.09000000000003,336.784,276.791,337.053C276.472,337.339,276.20500000000004,337.579,276.46500000000003,337.895C276.587,338.044,276.711,338.18,276.824,338.303C277.176,338.69,277.41999999999996,338.957,277.148,339.121C276.788,339.337,276.428,339.80600000000004,276.033,339.914Q275.63800000000003,340.022,274.38,339.265Q274.721,339.18600000000004,274.851,338.976Q274.99199999999996,338.747,274.88300000000004,338.36400000000003C274.804,338.08500000000004,274.69,337.865,274.587,337.666C274.411,337.324,274.26599999999996,337.043,274.38,336.63300000000004C274.57,335.943,276.105,335.76800000000003,276.53700000000003,334.578C276.65700000000004,334.245,276.85900000000004,333.81899999999996,277.105,333.36199999999997C265.273,342.821,250.37,348.565,234.16500000000002,348.829C234.15800000000002,348.829,234.151,348.829,234.144,348.829ZM280.631,327.151C268.546,338.871,252.194,346.18600000000004,234.166,346.486C234.15800000000002,346.486,234.151,346.486,234.144,346.486L234.144,331.328C234.151,331.328,234.15699999999998,331.328,234.164,331.327C248.026,331.028,260.602,325.416,269.953,316.437L269.956,316.43899999999996L280.631,327.151ZM283.926,327.148L285.856,329.08500000000004C286.1,328.682,286.31100000000004,328.33299999999997,286.473,328.063C287.421,326.478,287.235,326.29200000000003,284.68100000000004,326.677C284.55899999999997,326.69399999999996,284.45,326.703,284.351,326.703C284.216,326.847,284.079,326.98900000000003,283.942,327.131C283.937,327.137,283.93100000000004,327.142,283.926,327.148ZM287.608,323.029C287.919,323.182,288.26599999999996,323.22900000000004,288.69399999999996,322.947C289.95799999999997,322.111,291.012,321.065,291.368,319.85C291.71799999999996,318.673,293.34000000000003,315.96,293.438,315.79C293.38300000000004,315.824,292.952,316.093,292.46500000000003,316.41700000000003C290.971,318.716,289.349,320.923,287.608,323.029ZM288.41200000000003,318.19100000000003C286.541,320.76099999999997,284.497,323.196,282.297,325.48C282.291,325.485,282.286,325.491,282.281,325.497L271.60400000000004,314.782C271.608,314.777,271.613,314.773,271.61699999999996,314.76800000000003C277.73699999999997,308.359,282.291,300.433,284.65700000000004,291.617Q285.827,291.595,285.855,291.762Q285.85699999999997,291.776,285.851,291.791C285.53,292.677,284.017,294.532,283.64599999999996,296.098C283.289,297.078,283.178,298.326,283.118,299.19C282.997,300.933,285.848,300.997,287.10900000000004,299.6C288.358,298.19100000000003,288.664,298.19100000000003,289.06600000000003,299.6C289.369,300.658,289.01099999999997,301.047,288.53200000000004,301.567L288.531,301.569C288.377,301.736,288.211,301.916,288.051,302.13599999999997C287.38800000000003,303.049,286.95500000000004,304.188,287.432,305.613C287.793,306.682,286.884,309.447,286.26800000000003,311.322C286.06899999999996,311.926,285.901,312.437,285.815,312.77C285.591,313.646,285.698,314.272,285.81100000000004,314.928C285.874,315.297,285.93899999999996,315.676,285.947,316.11400000000003C285.949,316.201,285.95,316.28700000000003,285.951,316.374L285.951,316.374C285.96500000000003,317.498,285.978,318.543,287.027,318.37Q287.731,318.25800000000004,288.41200000000003,318.19100000000003ZM282.635,290.12C282.528,290.154,282.41700000000003,290.18600000000004,282.302,290.21500000000003Q282.01,290.288,281.873,290.175Q281.443,289.819,282.527,287.63530000000003Q282.001,288.0863,281.02,288.543C280.044,288.9992,279.81899999999996,289.913,279.135,291.585Q278.46000000000004,293.257,275.55600000000004,293.626Q276.055,293.70799999999997,276.8,294.165C276.98699999999997,294.278,277.127,294.38599999999997,277.25,294.48C277.623,294.767,277.829,294.925,278.663,294.693C279.655,294.41700000000003,281.003,293.541,281.817,293.033C280.855,296.104,279.61199999999997,299.052,278.118,301.846C277.994,301.504,277.901,301.124,277.957,300.828C278.038,300.401,277.929,300.055,277.85699999999997,299.828C277.822,299.716,277.796,299.633,277.80600000000004,299.58299999999997C277.818,299.523,277.783,299.435,277.72900000000004,299.298C277.64599999999996,299.08799999999997,277.517,298.762,277.443,298.246C277.323,297.396,276.38599999999997,296.819,276.084,297.001C275.945,297.084,275.74199999999996,297.072,275.51099999999997,297.057C275.23900000000003,297.04,274.928,297.021,274.634,297.152C274.09000000000003,297.396,274.09000000000003,298.033,274.151,298.826C274.176,299.149,274.347,299.426,274.481,299.64300000000003C274.674,299.956,274.789,300.142,274.272,300.15999999999997C273.39599999999996,300.19100000000003,273.28200000000004,300.73199999999997,273.128,301.02C273.092,301.08799999999997,273.01800000000003,301.133,272.928,301.164C272.462,301.318,272.207,301.849,272.36,302.318C272.373,302.361,272.38800000000003,302.4,272.404,302.433C272.557,302.765,273.26,303.14,273.677,303.471C274.094,303.802,274.182,303.935,274.379,304.111C274.477,304.198,274.373,304.359,274.273,304.514C274.169,304.674,274.07,304.828,274.204,304.884C274.312,304.929,274.427,305.067,274.544,305.206C274.712,305.407,274.88300000000004,305.61199999999997,275.039,305.547C275.302,305.437,275.741,304.774,276.225,304.774Q276.317,304.774,276.405,304.80899999999997C274.543,307.796,272.38300000000004,310.578,269.967,313.113C269.96299999999997,313.118,269.959,313.122,269.954,313.127L263.622,306.773Q263.64099999999996,306.767,263.65999999999997,306.76099999999997C264.102,306.625,263.966,304.952,263.89599999999996,304.68C263.826,304.407,263.86400000000003,302.93899999999996,263.456,302.394C263.192,302.041,263.454,301.859,263.8,301.618C263.99,301.486,264.206,301.337,264.375,301.131C264.68600000000004,300.753,264.548,300.171,264.395,299.528C264.31399999999996,299.185,264.228,298.826,264.204,298.47C264.164,297.854,264.369,297.695,264.502,297.592C264.59000000000003,297.524,264.647,297.48,264.579,297.344C264.46000000000004,297.104,264.206,296.679,263.983,296.152C267.01300000000003,291.058,268.831,285.15430000000003,269.03,278.8531L269.03,278.847L284.14300000000003,278.847L284.14300000000003,278.8509C284.05600000000004,282.7274,283.538,286.4992,282.635,290.12ZM285.19100000000003,289.445C285.20799999999997,289.448,285.224,289.452,285.24,289.456Q286.144,289.682,288.935,290.06100000000004Q288.478,289.456,288.85699999999997,288.0091C288.997,287.4655,289.416,286.7702,289.882,286.0007C290.65,284.7299,291.538,283.2563,291.49199999999996,281.9302C291.462,281.08910000000003,291.432,279.99670000000003,291.336,278.847L286.475,278.847L286.475,278.8509C286.39599999999996,282.4814,285.957,286.0242,285.19100000000003,289.445ZM286.475,276.52049999999997L291.03700000000003,276.52049999999997C290.855,275.546,290.594,274.6244,290.212,273.877C289.099,271.7069,288.132,271.895,286.23900000000003,272.2638L286.217,272.26800000000003C286.35699999999997,273.66769999999997,286.44399999999996,275.0831,286.475,276.5122L286.475,276.52049999999997ZM283.506,269.5001C283.203,269.798,283.004,270.0355,282.96000000000004,270.1965C282.895,270.4531,283.169,270.9373,283.419,271.3767L283.421,271.3811L283.422,271.3825C283.738,271.9393,284.01099999999997,272.4209,283.497,272.2706C282.198,271.8911,281.683,271.924,281.546,272.56780000000003C281.381,273.2991,282.094,273.8658,282.851,273.7891C283.23900000000003,273.75239999999997,283.501,273.858,283.776,273.9694L283.776,273.9696C283.858,274.0028,283.942,274.0365,284.03,274.067C284.087,274.8771,284.124,275.6923,284.14300000000003,276.5122L284.14300000000003,276.52049999999997L269.03,276.52049999999997L269.03,276.5141C268.77,268.2803,265.747,260.7349,260.871,254.77530000000002C260.9,254.7594,260.928,254.7433,260.95500000000004,254.7274C261.03499999999997,254.68099999999998,261.111,254.6366,261.206,254.6072C261.577,254.49349999999998,262.65999999999997,254.40800000000002,263.515,254.351C264.14099999999996,254.3092,263.882,253.9617,263.652,253.6554C263.56899999999996,253.54340000000002,263.48900000000003,253.43689999999998,263.45799999999997,253.3529C263.344,253.0393,263.48699999999997,252.6688,263.88599999999997,252.5547C264.28499999999997,252.441,264.11400000000003,252.0412,263.145,251.8702C262.52099999999996,251.7602,262.39300000000003,251.8271,262.1,251.9799C261.938,252.06459999999998,261.725,252.1758,261.349,252.2979Q260.78499999999997,252.481,260.449,252.2813Q260.301,252.19299999999998,260.197,252.0299L269.95500000000004,242.2372C269.959,242.2415,269.96299999999997,242.2458,269.967,242.2501C276.972,249.6016,281.825,259.0259,283.506,269.5001ZM285.549,267.6519C286.049,267.197,286.567,266.7068,287.048,266.1975C287.586,265.6321,288.10900000000004,265.1838,288.544,264.8118L288.54499999999996,264.8105C289.50800000000004,263.9852,290.03200000000004,263.5354,289.308,263.0124C288.25,262.2478,288.025,261.0319,288.85699999999997,260.0472C289.68,259.0621,289.68,256.2516,289.004,254.42489999999998C288.325,252.5985,284.78499999999997,245.0785,283.95799999999997,244.0885C283.13,243.0982,282.078,241.3546,282.001,240.1387C281.93,238.9226,281.173,236.5685,280.79499999999996,236.5685C280.41700000000003,236.5685,280.044,237.2505,279.89,238.3177C279.743,239.3795,279.96799999999996,241.05180000000001,281.622,242.87279999999998C283.283,244.6993,284.039,248.34640000000002,283.95799999999997,249.0282C283.884,249.6781,281.83299999999997,248.5417,280.923,248.0375L280.922,248.03730000000002C280.877,248.012,280.83500000000004,247.9888,280.79499999999996,247.9667C279.96799999999996,247.5103,275.671,244.9303,274.91999999999996,244.0885C274.717,243.8641,274.36,243.5337,273.924,243.171C279.714,250.0699,283.807,258.4483,285.549,267.6519ZM269.579,238.5747Q269.622,237.78719999999998,269.71299999999997,236.94819999999999C269.73199999999997,236.7841,269.752,236.6273,269.773,236.4685L269.773,236.4681C269.88599999999997,235.60410000000002,270.007,234.673,269.911,232.1179Q269.79499999999996,229.0823,267.96500000000003,227.0025C267.685,228.1023,267.296,230.6992,267.494,233.76850000000002Q267.632,235.9698,268.637,237.7082C268.95500000000004,237.9933,269.269,238.2822,269.579,238.5747ZM219.179,228.2658C213.631,229.8306,208.461,232.3129,203.8432,235.538C204.13209999999998,235.69740000000002,204.3725,235.9217,204.51319999999998,236.2461C204.7369,236.7627,204.3853,237.0485,203.9965,237.3644C203.6288,237.66320000000002,203.2279,237.9891,203.2493,238.5627C203.27249999999998,239.19,203.6554,239.4592,204.005,239.70499999999998C204.31310000000002,239.9216,204.59539999999998,240.1201,204.583,240.52949999999998C204.5722,240.888,204.5895,241.1216,204.6058,241.3417C204.6292,241.6584,204.6505,241.94729999999998,204.5833,242.5404C204.5565,242.7771,204.5432,242.9678,204.5318,243.1325C204.4946,243.6668,204.4765,243.92680000000001,204.0769,244.59539999999998C203.8675,244.9456,203.686,245.1204,203.5464,245.2547C203.33769999999998,245.4557,203.223,245.5662,203.2493,246.0376C203.2517,246.0812,203.2535,246.1276,203.2548,246.17680000000001L208.36700000000002,251.3041C214.549,245.4933,222.769,241.8353,231.825,241.5457L231.825,228.2375C230.70600000000002,228.2649,229.43,228.4312,228.126,228.6011C226.312,228.83769999999998,224.446,229.0808,222.876,228.96609999999998C222.007,228.9042,220.643,228.6818,219.179,228.2658ZM231.825,243.8884C223.41500000000002,244.17419999999998,215.777,247.57240000000002,210.02100000000002,252.963L220.711,263.6846C223.71800000000002,261.0262,227.58100000000002,259.3285,231.825,259.0634L231.825,243.8884ZM234.144,259.0576L234.144,243.8873C234.151,243.8876,234.15699999999998,243.8878,234.164,243.8881C235.936,243.9479,237.674,244.1457,239.367,244.4711C239.545,245.5884,239.525,246.7665,239.745,248.2695Q240.053,250.3211,239.296,251.5318Q242.229,253.0552,243.966,253.2808C245.424,253.47629999999998,246.35,253.3414,247.282,253.2056L247.286,253.20510000000002C247.457,253.18009999999998,247.627,253.1554,247.802,253.13240000000002C248.936,252.978,249.238,252.6757,250.668,251.5318C250.795,251.4299,250.919,251.3299,251.039,251.2317C251.559,250.8095,252.032,250.4256,252.537,250.137C253.745,251.00220000000002,254.894,251.9455,255.976,252.9596L255.418,253.51999999999998C255.262,253.59890000000001,255.091,253.6449,254.906,253.638C254.306,253.61610000000002,254.312,253.6456,254.398,254.0648C254.42,254.1723,254.447,254.3056,254.471,254.4702L245.29,263.68399999999997C242.278,261.0243,238.412,259.3225,234.16500000000002,259.05899999999997C234.15800000000002,259.0585,234.151,259.05809999999997,234.144,259.0576ZM246.941,265.3331C246.945,265.3376,246.949,265.3421,246.953,265.3467C249.608,268.3645,251.31,272.2493,251.573,276.5146L251.574,276.52049999999997L266.69399999999996,276.52049999999997L266.69399999999996,276.5141C266.426,268.51,263.366,261.20889999999997,258.46799999999996,255.5469C258.286,255.811,258.11199999999997,256.0405,257.81399999999996,256.0046C257.589,255.9776,257.375,255.93349999999998,257.16999999999996,255.8913C256.923,255.8403,256.688,255.7919,256.461,255.7792L246.941,265.3331ZM266.69399999999996,278.847L251.578,278.847L251.577,278.8528C251.314,283.122,249.612,287.003,246.953,290.021C246.949,290.025,246.945,290.03,246.942,290.034L256.005,299.13C256.053,298.798,256.10400000000004,298.528,256.171,298.367C256.277,298.116,256.418,297.942,256.543,297.78700000000003C256.74199999999996,297.54200000000003,256.901,297.345,256.818,296.969C256.682,296.354,257.05600000000004,295.569,257.329,295.15999999999997C257.411,295.03700000000003,257.46799999999996,294.882,257.525,294.728C257.656,294.371,257.78499999999997,294.021,258.214,294.093C258.826,294.195,259.337,294.444,259.60900000000004,294.98900000000003C259.818,295.408,260.505,295.486,261.81,295.23900000000003C264.73400000000004,290.43,266.494,284.8362,266.69399999999996,278.8531L266.69399999999996,278.847ZM244.938,309.31399999999996C245.016,308.972,244.944,308.373,244.871,307.757C244.771,306.909,244.666,306.028,244.938,305.73699999999997C245.449,305.192,246.572,304.372,247.151,304.44C247.46,304.477,247.624,304.26,247.782,304.05C247.919,303.867,248.053,303.69,248.274,303.69C248.447,303.69,248.718,303.798,249.031,303.922C249.581,304.14,250.26,304.40999999999997,250.759,304.236C251.542,303.96299999999997,252.086,303.383,252.835,303.349C252.907,303.345,252.982,303.343,253.058,303.341C253.777,303.319,254.668,303.291,255.252,302.428C255.346,302.289,255.426,302.119,255.496,301.927L245.295,291.692L245.29,291.687C242.278,294.347,238.412,296.045,234.16500000000002,296.308C234.15800000000002,296.30899999999997,234.151,296.30899999999997,234.144,296.31L234.144,304.858Q236.039,304.557,236.517,304.709Q237.08,304.89,237.344,305.159Q236.499,305.861,236.235,306.36400000000003C236.149,306.529,236.127,306.705,236.104,306.889C236.058,307.267,236.006,307.685,235.38400000000001,308.144C234.792,308.581,234.414,308.819,234.144,308.93399999999997L234.144,311.48C234.151,311.48,234.15699999999998,311.48,234.164,311.48C237.945,311.352,241.57,310.596,244.938,309.31399999999996ZM231.767,311.477C231.656,311.411,231.543,311.359,231.43200000000002,311.326C230.93,311.181,230.267,310.902,229.94799999999998,310.762C229.85899999999998,310.723,229.838,310.606,229.909,310.538C230.224,310.235,230.94400000000002,309.532,231.07999999999998,309.295C231.189,309.10699999999997,231.53,308.994,231.825,308.79200000000003L231.825,296.304C227.58100000000002,296.043,223.71800000000002,294.345,220.712,291.687L220.70600000000002,291.693L210.01999999999998,302.407C215.763,307.786,223.37900000000002,311.178,231.767,311.477ZM208.37,304.062C214.55200000000002,309.877,222.773,313.532,231.825,313.822L231.825,328.988C218.60899999999998,328.687,206.61020000000002,323.328,197.6859,314.774L208.37,304.062ZM208.37,300.753L219.059,290.033C219.05599999999998,290.029,219.05200000000002,290.025,219.049,290.021C216.39,287.003,214.688,283.122,214.425,278.8528L214.424,278.847L199.30689999999998,278.847L199.3072,278.8531C199.5899,287.2965,202.97809999999998,294.964,208.362,300.745C208.365,300.748,208.36700000000002,300.751,208.37,300.753ZM196.9718,278.847L196.97199999999998,278.8531C197.2588,287.94,200.9134,296.199,206.71269999999998,302.4C206.7151,302.403,206.7174,302.405,206.71980000000002,302.408L196.0394,313.119C196.0375,313.117,196.0356,313.115,196.03379999999999,313.113C187.4976,304.154,182.1576,292.116,181.8585,278.8509L181.85840000000002,278.847L196.9718,278.847ZM199.30689999999998,276.52049999999997L214.428,276.52049999999997L214.429,276.5146C214.692,272.2493,216.394,268.3645,219.049,265.3467C219.05200000000002,265.3425,219.05599999999998,265.3383,219.06,265.33410000000003L208.37099999999998,254.6138C208.368,254.6168,208.365,254.6197,208.362,254.6227C207.75900000000001,255.27089999999998,207.1807,255.9428,206.6289,256.63689999999997C206.70589999999999,256.7229,206.75799999999998,256.8039,206.77859999999998,256.87829999999997Q206.9968,257.6647,205.6462,258.4078Q207.1753,259.2824,206.8028,261.0312C206.5507,262.2155,207.209,262.0358,207.8361,261.8646C208.135,261.7831,208.426,261.7035,208.60899999999998,261.774C208.829,261.8588,209.003,262.049,209.185,262.2475C209.471,262.5603,209.775,262.8936,210.308,262.8669C210.441,262.8602,210.559,262.8526,210.664,262.84569999999997C211.24599999999998,262.8078,211.43099999999998,262.7957,211.61599999999999,263.129C211.834,263.5222,211.703,263.7846,210.962,263.6974C210.55599999999998,263.6494,210.228,263.8252,209.914,263.9937C209.656,264.1321,209.40699999999998,264.2655,209.132,264.2655C208.849,264.2655,208.59300000000002,264.10519999999997,208.327,263.9378C208.01999999999998,263.74490000000003,207.69830000000002,263.54269999999997,207.30180000000001,263.5663C206.99020000000002,263.5847,206.7789,263.6881,206.5931,263.779C206.3374,263.9042,206.1302,264.0056,205.7769,263.8285C205.1755,263.5265,204.6581,262.7575,203.0139,262.2329C200.79829999999998,266.5399,199.4789,271.3825,199.3072,276.5141L199.30689999999998,276.52049999999997ZM206.72050000000002,252.9589L203.8816,250.1116C203.92860000000002,250.2243,203.97910000000002,250.33780000000002,204.0335,250.4522C204.7552,251.9684,205.368,253.0229,205.595,253.4014C205.6421,253.4793,205.603,253.57999999999998,205.51569999999998,253.60500000000002C205.0608,253.73340000000002,203.8372,254.0876,203.3802,254.29930000000002C203.10750000000002,254.4253,203.83280000000002,254.8446,204.6833,255.33339999999998C205.3262,254.5155,206.0034,253.7261,206.71269999999998,252.9673C206.7153,252.9645,206.7179,252.9617,206.72050000000002,252.9589ZM216.765,278.847L216.772,278.847C216.74,278.4609,216.72899999999998,278.07550000000003,216.72899999999998,277.6857C216.72899999999998,277.2962,216.744,276.9064,216.772,276.52049999999997L216.765,276.52049999999997L216.765,276.5146C217.01999999999998,272.8932,218.459,269.59159999999997,220.7,267.0013C221.20999999999998,266.4139,221.76,265.86220000000003,222.35,265.3506C224.929,263.104,228.22199999999998,261.661,231.834,261.4055C232.22,261.3773,232.611,261.3614,233.002,261.3614C233.392,261.3614,233.779,261.3734,234.166,261.4055C237.781,261.661,241.07,263.104,243.653,265.3506C244.243,265.86220000000003,244.793,266.4139,245.303,267.0013C247.544,269.59159999999997,248.983,272.8932,249.238,276.5146L249.238,276.52049999999997L249.229,276.52049999999997C249.258,276.9064,249.273,277.2962,249.273,277.6857C249.273,278.07550000000003,249.261,278.4609,249.229,278.847L249.238,278.847L249.238,278.8528C249.182,279.6482,249.069,280.428,248.902,281.1881C248.899,280.7912,248.879,280.4067,248.838,280.0413C248.616,278.0503,248.11,277.7342,247.54,277.48109999999997C247.103,277.2876,246.071,276.778,245.613,276.55060000000003C245.533,276.5107,245.545,276.3933,245.632,276.37080000000003C245.904,276.3003,246.365,276.1947,246.812,276.1538C247.29,276.1107,247.703,275.9232,247.915,275.8108C248.001,275.7654,248.03,275.66110000000003,247.982,275.5775C247.731,275.1461,247.078,273.6421,246.974,273.0174C246.911,272.6406,247.029,272.4079,247.158,272.1739C247.296,271.92449999999997,247.164,271.6128,246.889,271.5403C246.105,271.3326,244.717,270.9418,244.47,270.7174C244.28,270.5454,243.809,270.5419,243.379,270.5387C243.018,270.53610000000003,242.686,270.5336,242.57,270.4327Q242.317,270.2117,242.064,269.7058Q241.241,270.0535,240.798,269.8959C240.355,269.7374,238.456,269.0738,238.108,268.7261C237.759,268.37850000000003,237.221,268.2839,236.778,268.3471C236.335,268.4103,235.54399999999998,268.9473,235.227,268.9473C235.084,268.9473,234.784,268.863,234.46800000000002,268.7737L234.46699999999998,268.7737C234.08499999999998,268.66589999999997,233.67700000000002,268.5509,233.486,268.5683C233.137,268.5997,232.41,269.2631,232.378,269.5797C232.346,269.8959,231.872,271.0021,231.777,271.0337C231.74599999999998,271.0439,231.755,271.1175,231.769,271.2253C231.797,271.4493,231.84300000000002,271.8207,231.587,272.0766C231.207,272.4556,230.764,272.5191,230.606,273.37260000000003C230.542,273.7165,230.43200000000002,273.9064,230.352,274.0437C230.23399999999998,274.2469,230.183,274.335,230.447,274.637C230.814,275.0552,230.877,275.0624,231.103,275.0883C231.15,275.0937,231.20499999999998,275.0999,231.26999999999998,275.1108C231.65,275.174,231.96699999999998,275.5849,231.555,275.9644C231.531,275.98699999999997,231.506,276.0094,231.482,276.0314C231.10399999999998,276.3779,230.8,276.6562,230.85899999999998,277.1021C230.87099999999998,277.1979,230.889,277.3054,230.90800000000002,277.4156C230.981,277.8506,231.061,278.3287,230.85899999999998,278.3031C230.814,278.2975,230.755,278.2811,230.685,278.2616C230.362,278.1717,229.80700000000002,278.017,229.317,278.5645C228.721,279.2306,228.293,279.3732,227.578,278.3266C226.864,277.2798,227.006,277.77930000000003,226.864,276.947C226.72,276.1146,226.625,276.0195,225.91,275.35339999999997C225.196,274.6872,224.505,274.5917,223.647,274.6633C222.79000000000002,274.7343,222.075,274.711,222.21800000000002,273.97360000000003C222.34300000000002,273.3269,222.249,273.3017,222.144,273.2737C222.12900000000002,273.2697,222.114,273.2657,222.099,273.2599C222.07,273.2481,222.015,273.23879999999997,221.95,273.2277C221.752,273.1939,221.45600000000002,273.1436,221.46699999999998,272.95709999999997C221.475,272.82,221.584,272.7186,221.67700000000002,272.6334C221.751,272.5647,221.814,272.5065,221.803,272.44849999999997Q221.529,271.26030000000003,221.28,271.2228C221.136,271.2015,220.688,271.1853,220.575,271.45730000000003C220.47899999999998,271.6871,220.547,272.0978,220.619,272.5253C220.652,272.7266,220.687,272.9316,220.70499999999998,273.1232C220.805,274.2041,221.262,275.5538,223.138,275.92539999999997C225.015,276.2966,225.167,277.0904,224.812,278.0691C224.525,278.8607,224.80200000000002,279.2659,224.918,279.3926C224.942,279.418,224.937,279.4523,224.90699999999998,279.47069999999997C224.725,279.5829,224.172,279.9453,224.186,280.21299999999997C224.203,280.5335,224.186,282.2386,224.372,282.6096C224.558,282.9812,224.761,283.1669,225.184,282.7448C225.606,282.3229,226.07999999999998,282.7727,226.164,282.9866C226.203,283.085,226.037,283.3135,225.864,283.553C225.661,283.8335,225.44799999999998,284.1289,225.539,284.2473C225.708,284.46680000000003,226.3,284.8716,226.3,285.2768C226.3,285.6817,226.417,285.8505,226.654,286.01959999999997C226.89100000000002,286.1879,227.178,286.6612,227.398,286.745C227.46699999999998,286.77160000000003,227.60500000000002,286.8886,227.777,287.0348C228.152,287.353,228.69,287.8097,229.038,287.7749C229.36700000000002,287.742,229.63299999999998,287.8658,229.857,287.9705C229.978,288.0268,230.087,288.0776,230.187,288.0954C230.365,288.1268,230.531,287.8271,230.659,287.5948C230.737,287.4525,230.80200000000002,287.3354,230.84699999999998,287.3354C230.887,287.3354,230.987,287.4459,231.11700000000002,287.5893C231.37099999999998,287.8694,231.739,288.2753,231.99599999999998,288.2306C232.385,288.1633,231.945,286.2896,231.827,286.01959999999997C231.709,285.7496,232.351,285.4456,232.757,285.7155C233.00400000000002,285.8805,233.05700000000002,285.4587,233.102,285.08979999999997C233.132,284.8549,233.15800000000002,284.6413,233.231,284.6145C233.34199999999998,284.5736,233.674,284.844,233.94400000000002,285.0641C234.126,285.2122,234.28,285.3375,234.32,285.3294C234.365,285.3205,234.356,285.062,234.346,284.7857C234.33499999999998,284.46,234.324,284.1097,234.398,284.1148C234.535,284.1251,236.313,284.9877,236.396,285.7677C236.431,286.0982,236.383,286.5095,236.338,286.8887C236.277,287.4035,236.224,287.8592,236.396,287.9739C236.448,288.0086,236.514,288.0458,236.587,288.0865C236.93,288.2792,237.413,288.5502,237.193,289.002C237.07,289.256,236.922,289.431,236.728,289.916C236.664,290.073,236.764,290.238,236.835,290.354C236.873,290.416,236.902,290.464,236.894,290.49C236.832,290.678,236.509,290.781,236.405,290.974C236.232,291.293,236.44,291.556,236.629,291.773C237.146,292.368,239.233,292.073,240.426,291.904C240.728,291.86199999999997,240.973,291.827,241.12,291.817C241.127,291.817,241.134,291.81600000000003,241.141,291.81600000000003C239.062,293.024,236.693,293.783,234.166,293.962C234.15800000000002,293.96299999999997,234.151,293.96299999999997,234.144,293.964L234.144,293.952C233.75900000000001,293.984,233.375,293.996,232.987,293.996C232.598,293.996,232.20999999999998,293.981,231.825,293.952L231.825,293.962C228.21699999999998,293.704,224.92700000000002,292.262,222.35,290.017C221.76,289.506,221.20999999999998,288.9538,220.7,288.3663C218.459,285.7719,217.01999999999998,282.47450000000003,216.765,278.8528L216.765,278.847ZM196.9718,276.52049999999997L181.85829999999999,276.52049999999997L181.8585,276.5122C181.9649,271.7919,182.7097,267.2271,184.0096,262.901Q184.16070000000002,262.8806,184.3807,262.7794C185.1101,262.4442,185.5429,262.5768,185.8563,262.6727C185.9921,262.7143,186.1055,262.749,186.2108,262.7358C186.5596,262.69190000000003,186.4725,262.1236,187.126,261.5555C187.7799,260.9873,188.6514,260.9873,189.2613,260.7685C189.8716,260.5498,190.0889,259.9385,190.4812,259.4135C190.8733,258.8892,191.78879999999998,258.8453,192.09359999999998,258.7581C192.3985,258.6707,192.7474,257.31510000000003,193.3135,257.1405C193.7341,257.0107,194.7303,257.4825,195.7147,257.9489C196.05700000000002,258.111,196.3979,258.2725,196.71269999999998,258.4078C197.93290000000002,258.9325,198.064,259.5009,199.4583,260.5498C200.0172,260.9703,200.41500000000002,261.2364,200.8006,261.438C198.50459999999998,265.9971,197.14260000000002,271.10720000000003,196.97199999999998,276.5141L196.9718,276.52049999999997ZM178.5826,278.847L179.5274,278.847L179.5274,278.8509C179.8263,292.764,185.4293,305.389,194.3841,314.76800000000003C194.3859,314.77,194.3877,314.772,194.3894,314.773L183.7096,325.48400000000004C183.70839999999998,325.48199999999997,183.7072,325.481,183.70589999999999,325.48C180.98590000000002,322.656,178.50369999999998,319.601,176.29219999999998,316.346C176.32,316.337,176.3485,316.328,176.3775,316.319C177.3863,316.009,176.983,314.72,176.6803,313.791C176.5274,313.322,176.8247,313.248,177.111,313.176C177.39170000000001,313.106,177.6619,313.038,177.4871,312.604C177.13389999999998,311.727,176.4786,310.43600000000004,175.8231,309.869C175.1678,309.301,175.2686,308.321,175.77280000000002,306.876C176.0974,305.946,176.73590000000002,305.829,177.14929999999998,305.753C177.37779999999998,305.711,177.5375,305.682,177.5375,305.53499999999997C177.5375,305.122,175.72230000000002,304.141,175.067,303.935C174.7373,303.831,175.00740000000002,303.492,175.3444,303.069C175.6771,302.652,176.075,302.152,176.025,301.716C175.9903,301.415,175.89600000000002,300.985,175.7892,300.498C175.58530000000002,299.57,175.3361,298.435,175.3692,297.58799999999997Q175.42000000000002,296.298,177.4871,294.596Q177.7892,292.067,177.4871,290.932C177.3109,290.271,177.5278,289.925,177.69400000000002,289.65999999999997C177.8134,289.469,177.9067,289.32,177.8099,289.126C177.6961,288.8983,177.7498,288.6951,177.8066,288.48019999999997C177.8656,288.2572,177.9279,288.02160000000003,177.8099,287.7325C177.578,287.1652,176.7311,287.1135,176.63,286.4944C176.5291,285.875,177.0838,284.74,177.4871,284.0175C177.8902,283.295,178.1424,280.3541,178.1932,279.7862Q178.2101,279.595,178.5826,278.847ZM175.5498,278.847C174.7514,279.1929,173.8133,279.574,173.756,279.83820000000003C173.696,280.1151,174.15609999999998,280.796,174.62290000000002,281.4867C174.9385,281.9538,175.2572,282.4253,175.42000000000002,282.77930000000003C175.77460000000002,283.55060000000003,175.7003,284.1228,175.6429,284.5654C175.6351,284.626,175.6275,284.6841,175.6214,284.74C175.5711,285.2042,175.672,286.8038,175.8739,287.578C176.0755,288.3519,175.72230000000002,288.8681,174.4117,288.7213C173.765,288.6491,173.5231,288.6085,173.2806,288.6044C173.0683,288.6009,172.8557,288.6253,172.3709,288.6811C172.28660000000002,288.69079999999997,172.1941,288.70140000000004,172.0919,288.71299999999997C170.7306,288.8681,170.1256,286.7523,169.9745,285.2042C169.8947,284.3899,169.9951,283.5921,170.0862,282.8685C170.1683,282.21659999999997,170.2428,281.625,170.171,281.1359C170.107,280.6977,170.0494,279.8027,170.0642,278.847L175.5498,278.847ZM185.36,327.139C197.44459999999998,338.86,213.798,346.18399999999997,231.825,346.486L231.825,331.327C217.96699999999998,331.025,205.3866,325.40700000000004,196.0398,316.428L196.0289,316.43899999999996L185.36,327.139ZM182.0634,327.135C182.06220000000002,327.134,182.0611,327.132,182.0599,327.131C179.2754,324.246,176.73180000000002,321.126,174.46179999999998,317.804C174.4099,317.851,174.3585,317.894,174.3089,317.93600000000004C173.9189,318.26599999999996,173.6452,318.497,174.2098,319.15700000000004C174.49880000000002,319.495,174.3732,319.868,174.2144,320.34000000000003C173.9856,321.019,173.688,321.903,174.4615,323.182C175.29500000000002,324.55899999999997,175.8635,324.749,176.20600000000002,324.863C176.4023,324.928,176.5244,324.969,176.5795,325.19399999999996C176.62900000000002,325.397,176.5386,325.505,176.4348,325.63C176.2209,325.887,175.9499,326.21299999999997,176.7311,327.568C177.25400000000002,328.476,177.7462,329.66700000000003,178.35590000000002,330.853L182.0634,327.135ZM234.144,328.98900000000003L234.144,313.823C234.151,313.822,234.15800000000002,313.822,234.16500000000002,313.822C237.892,313.703,241.478,313.015,244.839,311.84000000000003C245.395,312.721,246.456,313.961,246.946,313.961C246.997,313.961,247.053,313.96,247.112,313.96C247.802,313.95799999999997,248.987,313.953,249.363,314.267C249.457,314.346,249.532,314.448,249.607,314.552C249.86,314.899,250.127,315.26800000000003,251.202,314.847C252.456,314.35699999999997,252.995,314.968,253.24,315.246C253.267,315.277,253.291,315.304,253.312,315.325C253.516,315.53,254.06,315.735,254.333,315.769C254.606,315.803,256.512,315.701,256.71500000000003,315.56399999999996C256.81899999999996,315.495,256.663,315.115,256.474,314.654C256.28700000000003,314.199,256.06899999999996,313.66700000000003,256.03499999999997,313.278C255.996,312.823,256.58500000000004,312.483,257.115,312.177C257.498,311.956,257.85,311.753,257.90700000000004,311.538C258.043,311.026,258.826,311.06,259.031,311.16200000000003C259.108,311.201,259.033,311.275,258.937,311.369C258.779,311.524,258.565,311.734,258.86,311.943C259.148,312.147,259.312,312.093,259.539,312.019C259.688,311.971,259.86400000000003,311.913,260.12,311.913C260.277,311.913,260.429,311.921,260.575,311.929C261.028,311.953,261.427,311.975,261.788,311.742C262.264,311.435,262.80899999999997,311.23,262.911,310.48Q262.996,309.855,262.94,309.395L268.308,314.781C259.382,323.337,247.384,328.68899999999996,234.164,328.988C234.15699999999998,328.98900000000003,234.151,328.98900000000003,234.144,328.98900000000003ZM257.63,251.2998L264.005,244.9019C263.69100000000003,244.8487,263.392,244.7836,263.108,244.7218L263.10699999999997,244.7215C262.43399999999997,244.5751,261.849,244.4479,261.361,244.5452C260.23199999999997,244.7705,260.09000000000003,247.3562,259.21799999999996,248.0383C259.18,248.0679,259.142,248.098,259.103,248.1289L259.102,248.1292C258.346,248.7241,257.256,249.5817,255.763,249.662C256.404,250.1867,257.027,250.733,257.63,251.2998ZM238.444,241.9374Q238.088,241.3908,237.641,241.05180000000001Q240.952,239.9133,240.875,236.8713C240.798,233.83440000000002,237.942,233.3008,237.789,231.6284C237.719,230.8433,237.964,230.4099,238.134,230.1085L238.134,230.10829999999999C238.327,229.7672,238.424,229.595,237.866,229.2741C236.953,228.7472,236.102,228.6218,234.144,228.3994L234.144,241.54489999999998C234.151,241.5451,234.15800000000002,241.5453,234.16500000000002,241.5455C235.614,241.5915,237.042,241.72379999999998,238.444,241.9374ZM276.82,221.7439C276.79499999999996,221.4212,276.596,221.3194,276.34299999999996,221.1904L276.34299999999996,221.1903C276.15700000000004,221.0953,275.943,220.986,275.748,220.7638C275.222,220.1587,275.446,219.01409999999998,274.69,218.8602C273.94399999999996,218.7118,271.994,218.2828,271.572,217.2266C271.171,216.2197,270.924,215.7628,270.15700000000004,215.3728C269.905,215.2407,269.089,214.9656,268.69399999999996,214.83350000000002C267.615,214.4727,266.59299999999996,214.3558,265.909,214.6338C269.769,216.6712,273.419,219.0551,276.82,221.7439ZM260.144,214.4564C260.369,214.5925,260.623,214.74439999999998,260.91200000000003,214.9107C261.722,215.3788,262.478,215.68959999999998,263.127,215.8381C263.73699999999997,216.1386,264.342,216.448,264.94100000000003,216.7661Q264.456,216.6682,264.074,216.5828C262.71500000000003,216.2805,261.73900000000003,216.5828,262.945,217.7933C264.151,219.01409999999998,265.35,219.24,266.485,219.6248C267.61400000000003,219.9992,267.76800000000003,220.4556,267.993,221.2151C268.217,221.9794,269.347,222.3536,271.001,223.0413C272.66200000000003,223.7231,271.226,224.8674,270.475,224.93869999999998C269.725,225.0161,267.68600000000004,224.2571,266.485,222.8102C265.382,221.4909,263.837,221.6972,263.062,221.8006L263.062,221.8006C262.99,221.81040000000002,262.926,221.81900000000002,262.868,221.8256C262.19399999999996,221.9023,259.629,218.7835,258.802,217.7218C258.108,216.827,256.51300000000003,216.9527,254.594,217.1041C254.224,217.1338,253.843,217.1639,253.453,217.1882C251.685,217.3011,249.994,216.2653,248.148,215.1336C247.481,214.725,246.794,214.3039,246.075,213.9202C243.357,212.4788,243.966,212.55610000000001,243.286,211.1921C242.681,209.9575,237.942,209.7734,234.144,209.6927L234.144,208.8484C234.151,208.8486,234.15800000000002,208.8487,234.166,208.84890000000001C238.978,208.929,243.672,209.50900000000001,248.196,210.5394C248.953,211.0765,250.41,211.7264,251.271,211.4175C251.324,211.3982,251.361,211.3747,251.384,211.3474C252.788,211.7395,254.173,212.1755,255.539,212.65370000000001C255.546,212.6959,255.554,212.7386,255.563,212.7816C255.788,213.8433,256.171,213.6179,256.62,214.3766C257.07,215.1415,257.897,215.2133,258.199,214.2286C258.275,213.9838,258.35,213.8274,258.452,213.749C259.02,213.9774,259.584,214.2133,260.144,214.4564ZM243.865,207.3303C243.016,206.3238,241.277,205.1674,238.463,205.564C237.401,205.712,236.55,205.5091,235.78,205.3254L235.777,205.3248C235.20600000000002,205.1884,234.679,205.0627,234.144,205.0982L234.144,206.5052C234.151,206.5053,234.15800000000002,206.5053,234.16500000000002,206.5054C237.457,206.559,240.695,206.8389,243.865,207.3303ZM231.825,206.5055L231.825,206.4614C231.812,206.4762,231.799,206.4911,231.786,206.5062C231.799,206.506,231.812,206.5057,231.825,206.5055ZM167.1026,197.61479C160.5909,203.3487,156.2455,210.7288,151.2431,217.3631C147.0827,222.8813,141.3732,226.3001,136.46359999999999,230.9305C139.1144,225.413,139.60320000000002,219.0905,142.9692,213.7529C148.724,204.6253,158.236,201.0822,167.1026,197.61479ZM298.897,197.61479C305.409,203.3486,309.754,210.7287,314.757,217.3631C318.91700000000003,222.881,324.626,226.2999,329.536,230.9305C326.885,225.4128,326.39599999999996,219.0905,323.031,213.7526C317.275,204.6252,307.76300000000003,201.0821,298.897,197.61479ZM334.51,217.5826C331.124,213.8151,327.329,210.8798,322.81,209.7188C331.584,215.7733,331.108,226.5931,333.794,235.6402C334.776,238.9486,336.22,242.048,336.988,245.4668L336.765,245.6447C335.30600000000004,241.7799,332.801,238.0641,329.538,234.97480000000002C323.366,229.132,314.08799999999997,225.5958,311.034,217.0487C311.174,228.926,321.26300000000003,237.9537,330.477,244.9384C334.61,248.0711,338.122,252.2771,340.26599999999996,256.6862C339.908,253.40449999999998,339.745,250.6748,340.03700000000003,247.4718C340.983,237.0969,341.596,225.4655,334.51,217.5826ZM131.4889,217.5826C134.8757,213.8151,138.67079999999999,210.8798,143.1891,209.7189C134.415,215.7736,134.8911,226.5931,132.2053,235.6405C131.2231,238.9486,129.7792,242.048,129.0122,245.46710000000002L129.2339,245.6449C130.6938,241.7799,133.1987,238.0641,136.4616,234.975C142.6327,229.132,151.9115,225.5958,154.9652,217.0487C154.8253,228.926,144.7365,237.9539,135.5221,244.9384C131.3893,248.0713,127.8771,252.2771,125.7338,256.6862C126.0917,253.4048,126.2543,250.6748,125.9627,247.4718C125.0168,237.0969,124.4029,225.4657,131.4889,217.5826ZM319.022,276.52049999999997L314.437,276.52049999999997C314.47,273.19939999999997,313.76,268.9304,313.312,266.2428L313.31100000000004,266.236C313.197,265.5471,313.102,264.9625,313.03700000000003,264.5252C312.655,261.9447,312.057,256.8565,312.057,255.7178C312.057,254.579,310.702,253.5888,309.337,252.978C308.255,252.4942,308.331,252.0101,308.481,251.05599999999998L308.481,251.0502C308.52099999999996,250.8128,308.563,250.5467,308.59299999999996,250.24439999999998C308.704,249.10399999999998,308.563,248.0532,308.419,246.9907C308.374,246.6327,308.325,246.2736,308.286,245.9093C308.171,244.8509,308.429,244.5694,308.664,244.3141C308.749,244.2218,308.828,244.1326,308.89,244.0118C309.115,243.5549,303.39099999999996,236.5685,300.756,233.4492L300.72,233.4091L300.71799999999996,233.40699999999998C298.11400000000003,230.33100000000002,297.664,229.7989,297.817,227.90460000000002C297.943,226.3469,294.567,223.7155,290.98,221.1372L294.62,217.4846L294.624,217.4888C309.46500000000003,232.79489999999998,318.719,253.59269999999998,319.022,276.51390000000004L319.022,276.52049999999997ZM352.262,253.03730000000002C352.262,242.5267,348.18399999999997,233.9529,342.06600000000003,226.1252C342.01300000000003,226.0985,341.964,226.0636,341.91499999999996,226.0291C341.803,225.9488,341.693,225.8704,341.533,225.8998C345.89099999999996,232.55169999999998,344.86199999999997,240.3327,343.827,248.15550000000002C343.26300000000003,252.4218,342.698,256.7004,343.003,260.81510000000003L343.892,272.7822C343.849,272.8104,343.82,272.8669,343.78999999999996,272.9259C343.727,273.04949999999997,343.659,273.1839,343.447,273.09090000000003C343.049,271.7566,342.928,270.3376,342.697,268.9598C341.075,259.312,332.63300000000004,252.5975,325.474,245.78629999999998C323.78,244.1752,322.53999999999996,242.2702,321.74199999999996,240.223C322.337,245.0288,323.673,249.9553,325.823,254.3218C331.33299999999997,265.5172,341.977,274.5545,343.892,287.2774C344.82,275.08410000000003,352.262,266.0199,352.262,253.03730000000002ZM113.73741,253.03730000000002C113.73741,242.5267,117.81578999999999,233.9529,123.9333,226.1252C123.9869,226.0985,124.0358,226.0636,124.0843,226.029C124.1966,225.9489,124.3065,225.8705,124.4669,225.8998C120.1087,232.5516,121.1376,240.3326,122.1719,248.1553C122.736,252.4217,123.3018,256.70050000000003,122.9962,260.8153L122.108,272.7824C122.1505,272.8106,122.1793,272.8671,122.2093,272.926C122.2723,273.0496,122.3407,273.18399999999997,122.5527,273.0911C122.9508,271.7569,123.07130000000001,270.3376,123.3028,268.9598C124.924,259.3123,133.3664,252.5978,140.52609999999999,245.7865C142.2194,244.1752,143.45940000000002,242.2702,144.258,240.2233C143.6625,245.0288,142.3268,249.9553,140.1769,254.3218C134.666,265.5174,124.02250000000001,274.5545,122.108,287.2776C121.1797,275.0844,113.73741,266.0199,113.73741,253.03730000000002ZM357.35699999999997,267.97860000000003C356.603,264.692,356.027,261.2908,354.601,258.2767C356.38800000000003,267.4744,352.953,274.981,349.51599999999996,282.4926C347.76300000000003,286.32370000000003,346.009,290.156,344.948,294.21500000000003C343.76300000000003,298.743,343.358,303.555,341.533,307.78C341.36199999999997,307.871,341.21500000000003,307.694,341.11,307.557C345.653,294.769,338.993,282.9498,332.505,272.86990000000003C330.8,270.2203,329.97900000000004,267.1349,329.183,264.0159C328.494,269.7068,329.668,276.2786,330.723,282.17560000000003L330.777,282.48040000000003C332.151,290.171,334.77099999999996,297.38,336.853,304.8C338.224,309.43600000000004,337.86199999999997,314.668,337.159,319.525L337.82,318.995C342.65,310.048,352.179,303.058,355.058,293.29200000000003C357.35699999999997,285.48699999999997,358.949,276.4698,357.35699999999997,267.97860000000003ZM108.643222,267.9789C109.39653,264.6923,109.97318,261.29110000000003,111.39781,258.2769C109.61149,267.47450000000003,113.04626,274.981,116.48326,282.4924C118.2363,286.32370000000003,119.99,290.156,121.0517,294.21500000000003C122.2367,298.743,122.64189999999999,303.555,124.4669,307.78C124.6373,307.872,124.7846,307.694,124.8897,307.557C120.3467,294.769,127.0063,282.9501,133.4941,272.86990000000003C135.1997,270.2203,136.0202,267.13509999999997,136.8163,264.0159C137.5058,269.7083,136.3306,276.2817,135.27609999999999,282.1795L135.2224,282.48040000000003C133.8483,290.171,131.22899999999998,297.38,129.1467,304.8C127.7756,309.43600000000004,128.1371,314.668,128.8404,319.525L128.1795,318.996C123.3495,310.048,113.82002,303.058,110.94199,293.29200000000003C108.641911,285.48720000000003,107.050739,276.47,108.643222,267.9789ZM294.622,337.881L291.36699999999996,334.615C292.152,334.16999999999996,292.88599999999997,333.86,293.164,333.773C293.762,333.581,294.96299999999997,333.581,295.077,330.841C295.182,328.11199999999997,298.8,327.95799999999997,300.015,324.54200000000003C301.24199999999996,321.126,302.3,321.275,304.279,317.858C304.818,316.925,305.353,316.157,305.834,315.468L305.834,315.468C307.11,313.63599999999997,307.98900000000003,312.376,307.46299999999997,310.113C306.842,307.454,307.414,307.346,308.299,307.18C308.449,307.151,308.60900000000004,307.121,308.772,307.076C309.89599999999996,306.774,310.18600000000004,306.317,310.082,304.414C309.99,302.86199999999997,310.225,300.66700000000003,310.75800000000004,298.682C310.856,298.373,310.96000000000004,298.054,311.074,297.735C311.97900000000004,295.216,312.057,294.77,312.057,293.626C312.057,292.48199999999997,312.204,289.456,312.95500000000004,286.645C313.71299999999997,283.834,313.48699999999997,282.9204,314.238,278.89369999999997C314.241,278.8782,314.244,278.8626,314.247,278.847L319.022,278.847L319.022,278.8538C318.719,301.775,309.46799999999996,322.573,294.624,337.879L294.622,337.881ZM357.79200000000003,295.105C356.73,309.829,341.108,317.69399999999996,333.65999999999997,329.797C332.06899999999996,332.382,330.432,335.05,328.122,337.13800000000003C328.48199999999997,335.57,329.767,334.18100000000004,330.475,332.64300000000003C332.86400000000003,327.45,333.945,321.44,333.349,315.26099999999997C333.089,312.576,332.524,309.95799999999997,331.959,307.343C330.943,302.63599999999997,329.928,297.93600000000004,330.698,292.852C324.278,306.757,326.349,324.142,322.639,339.177C321.818,342.503,319.799,345.414,318.555,348.56399999999996C324.86400000000003,343.749,333.13,339.475,340.054,333.998C346.75,328.702,352.562,322.494,355.58500000000004,314.41700000000003C357.76,308.596,358.327,301.653,357.79200000000003,295.105ZM108.206649,295.105C109.27047,309.829,124.8914,317.69399999999996,132.3398,329.797C133.9304,332.382,135.5678,335.05,137.8779,337.13800000000003C137.51749999999998,335.57,136.23239999999998,334.18100000000004,135.5249,332.644C133.1359,327.45,132.0545,321.44100000000003,132.6506,315.262C132.9099,312.576,133.4752,309.95799999999997,134.0402,307.343C135.0567,302.637,136.072,297.93600000000004,135.3015,292.852C141.72140000000002,306.757,139.65030000000002,324.142,143.361,339.177C144.1818,342.504,146.2001,345.414,147.4438,348.56399999999996C141.1359,343.749,132.8696,339.475,125.9454,333.998C119.2492,328.702,113.437,322.494,110.41562,314.41700000000003C108.238329,308.596,107.672116,301.654,108.206649,295.105ZM116.08616,328.91499999999996C123.4419,345.627,141.9225,346.93600000000004,154.2106,357.188C156.5468,359.13800000000003,158.8629,360.93100000000004,161.4298,362.13300000000004L161.5624,361.998C158.7267,359.423,155.6581,356.355,153.4621,353.153C146.4389,342.913,148.7758,328.916,143.361,318.06C148.2807,323.971,152.8952,330.05899999999997,155.72820000000002,336.826C160.287,347.71799999999996,161.8356,360.144,172.0599,368.41999999999996C160.9938,364.756,148.22820000000002,365.486,138.2634,358.93600000000004C127.7887,352.051,118.0809,341.185,116.08616,328.91499999999996ZM349.913,328.91499999999996C342.558,345.627,324.077,346.93600000000004,311.789,357.188C309.453,359.13800000000003,307.137,360.93100000000004,304.57,362.132L304.437,361.998C307.273,359.423,310.342,356.355,312.53700000000003,353.153C319.56100000000004,342.913,317.224,328.916,322.639,318.06C317.719,323.971,313.10400000000004,330.05899999999997,310.27099999999996,336.826C305.71299999999997,347.71799999999996,304.164,360.144,293.93899999999996,368.41999999999996C305.005,364.756,317.77099999999996,365.486,327.736,358.93600000000004C338.211,352.051,347.918,341.185,349.913,328.91499999999996ZM187.6397,343.134Q187.4486,342.953,186.951,343.082C186.2625,343.211,187.6781,343.881,187.9708,343.91999999999996C188.2647,343.959,187.8306,343.31399999999996,187.6397,343.134ZM134.9882,360.092C143.2164,369.49,155.0662,370.222,166.825,370.948C171.9198,371.262,176.9975,371.576,181.7562,372.59299999999996C182.1984,372.687,182.6351,372.79200000000003,183.07,372.897C184.7905,373.31100000000004,186.481,373.71799999999996,188.358,373.429C186.4866,372.238,184.0062,372.10400000000004,181.8438,371.286C169.6292,366.669,167.725,353.551,161.04070000000002,344.523C169.5782,350.21799999999996,176.6519,358.01599999999996,184.63580000000002,365.345C190.1929,370.445,197.11599999999999,372.627,204.2957,374.09299999999996C202.5704,374.726,200.3133,374.576,198.45510000000002,375.039C196.7036,375.475,194.9263,375.945,193.128,376.421C181.6849,379.449,169.3952,382.701,157.5358,378.773C148.6798,375.84000000000003,139.4638,368.895,134.9882,360.092ZM331.01099999999997,360.091C322.783,369.49,310.933,370.222,299.174,370.947C294.079,371.262,289.002,371.575,284.243,372.592C283.801,372.687,283.36400000000003,372.79200000000003,282.929,372.897C281.209,373.31100000000004,279.519,373.71799999999996,277.64099999999996,373.428C279.51300000000003,372.238,281.994,372.10400000000004,284.156,371.286C296.37,366.669,298.275,353.551,304.959,344.523C296.421,350.21799999999996,289.348,358.01599999999996,281.36400000000003,365.345C275.807,370.445,268.884,372.627,261.704,374.09299999999996C263.429,374.725,265.68600000000004,374.576,267.54499999999996,375.039C269.296,375.475,271.074,375.945,272.873,376.421C284.315,379.449,296.60400000000004,382.7,308.464,378.773C317.32,375.84000000000003,326.536,368.895,331.01099999999997,360.091ZM199.3709,397.22C200.8155,398.876,202.6841,400.424,204.44580000000002,401.851C213.19400000000002,392.779,223.111,382.952,233,378.88800000000003C242.888,382.952,252.806,392.779,261.553,401.851C263.315,400.424,265.18399999999997,398.876,266.628,397.22C258.78200000000004,389.698,248.73,381.868,237.674,377.421C239.087,377.122,240.495,376.96299999999997,241.896,376.96299999999997C249.771,376.96299999999997,255.444,382.97900000000004,262.06100000000004,387.223C271.244,393.11400000000003,283.842,396.43100000000004,294.637,392.108C300.443,389.89599999999996,306.06899999999996,386.637,310.273,381.34299999999996C301.776,387.223,289.053,388.014,279.461,384.02C268.85900000000004,379.606,258.067,373.746,245.985,373.746C241.581,373.746,237.232,374.485,232.999,375.769C228.767,374.485,224.418,373.746,220.014,373.746C207.93189999999998,373.746,197.1412,379.60699999999997,186.5387,384.02C176.9469,388.014,164.223,387.223,155.7267,381.34299999999996C159.9305,386.637,165.5565,389.89599999999996,171.3624,392.108C182.1578,396.43100000000004,194.7552,393.11400000000003,203.9385,387.223C210.55599999999998,382.97900000000004,216.228,376.96299999999997,224.10399999999998,376.96299999999997C225.50400000000002,376.96299999999997,226.912,377.122,228.325,377.421C217.269,381.868,207.2173,389.698,199.3709,397.22ZM251.138,208.8555C249.734,208.48239999999998,248.313,208.1515,246.876,207.86430000000001L251.138,208.8555Z" fill-rule="evenodd" fill="#FFFFFF" fill-opacity="1"/></g><g><g><path d="M888.953,328.4815L862.153,260L852.119,260L825.3199999999999,328.4815L836.1,328.4815L842.119,313.8858L871.9649999999999,313.8858L878.177,328.4815L888.953,328.4815ZM868.773,304.5439L845.302,304.5439L856.9929999999999,273.9042L868.773,304.5439ZM1002.038,260.285693L1002.038,328.4815L1012.627,328.4815L1012.627,299.7086L1042.208,299.7086L1042.208,328.4815L1052.7,328.4815L1052.7,260.285693L1042.208,260.285693L1042.208,288.57L1012.627,288.57L1012.627,260.285693L1002.038,260.285693ZM716.097,260.380996L683.442,260.380996L683.442,328.4815L716.097,328.4815C718.759,328.4815,721.207,328.0895,723.433,327.2954L723.442,327.2924L723.451,327.2887C725.658,326.4359,727.549,325.313,729.113,323.913L729.119,323.9074L729.125,323.9018C730.677,322.445,731.8969999999999,320.7846,732.777,318.9232C733.664,317.0502,734.107,315.0741,734.107,313.0017L734.107,275.8608C734.107,273.7886,733.664,271.8124,732.777,269.9395C731.896,268.07704,730.675,266.44615,729.119,265.05057C727.553,263.58295,725.656,262.45674,723.442,261.66558C721.213,260.805537,718.762,260.380996,716.097,260.380996ZM721.153,316.932L721.148,316.9363L721.143,316.9406C719.5450000000001,318.3345,717.556,319.0446,715.126,319.0446L694.0319999999999,319.0446L694.0319999999999,269.81806L715.126,269.81806C717.556,269.81806,719.5450000000001,270.5282,721.143,271.9221L721.148,271.9264L721.153,271.9306C722.783,273.3016,723.615,275.1554,723.615,277.5751L723.615,311.2875C723.615,313.70709999999997,722.783,315.5611,721.153,316.932ZM632.448,328.4815L676.404,328.4815L676.404,319.04449999999997L637.909,319.04449999999997C636.2909999999999,319.04449999999997,634.979,317.7574,634.979,316.1696L634.979,299.8991L669.968,299.8991L669.968,289.5636L634.979,289.5636L634.979,272.5977C634.979,271.0099,636.2909999999999,269.72276,637.909,269.72276L676.3489999999999,269.72276L676.3489999999999,260.285693L632.448,260.285693C627.9970000000001,260.285693,624.39,263.82543,624.39,268.19187L624.39,320.5754C624.39,324.94190000000003,627.9970000000001,328.4815,632.448,328.4815ZM779.3240000000001,328.4815L823.281,328.4815L823.281,319.04449999999997L784.7860000000001,319.04449999999997C783.168,319.04449999999997,781.856,317.7574,781.856,316.1696L781.856,299.8991L816.845,299.8991L816.845,289.5636L781.856,289.5636L781.856,272.5977C781.856,271.0099,783.168,269.72276,784.7860000000001,269.72276L823.226,269.72276L823.226,260.285693L779.3240000000001,260.285693C774.874,260.285693,771.2660000000001,263.82543,771.2660000000001,268.19187L771.2660000000001,320.5754C771.2660000000001,324.94190000000003,774.874,328.4815,779.3240000000001,328.4815ZM587.521,269.72276L587.521,328.4815L598.929,328.4815L598.929,269.72276L619.384,269.72276L619.384,260.285693L567.732,260.285693L567.732,269.72276L587.521,269.72276ZM965.956,269.99769L965.956,328.7567L977.365,328.7567L977.365,269.99769L997.82,269.99769L997.82,260.560638L946.168,260.560638L946.168,269.99769L965.956,269.99769ZM549.41,260.285693L549.41,328.4815L560.915,328.4815L560.915,260.285693L549.41,260.285693ZM484.599,260.465335L484.599,328.30150000000003L495.7377,328.30150000000003L495.7377,279.4337L523.89,328.30150000000003L534.898,328.30150000000003L534.898,260.465335L523.856,260.465335L523.856,309.5232L495.6058,260.465335L484.599,260.465335ZM468.2943,324.4844L468.30060000000003,324.4788L468.3068,324.4726C469.859,323.0163,471.0783,321.356,471.9592,319.4945C472.8455,317.6216,473.2892,315.6453,473.2892,313.5731L473.2892,260.285693L462.6998,260.285693L462.6998,311.8589C462.6998,314.2785,461.868,316.1323,460.2379,317.5034L460.2329,317.5075L460.2279,317.5118C458.626,318.9089,456.668,319.6159,454.30830000000003,319.6159L440.9809,319.6159C438.6235,319.6159,436.6294,318.90999999999997,434.9593,317.5075C433.3937,316.1398,432.5894,314.2849,432.5894,311.8589L432.5894,260.285693L422,260.285693L422,313.5731C422,315.6453,422.443676,317.6216,423.32997,319.4945C424.21409,321.3628,425.47057,323.0262,427.09084,324.4831L427.09709,324.4887L427.10345,324.4943C428.73016,325.8911,430.68432,327.01099999999997,432.954,327.8625L432.9629,327.8662L432.9719,327.8693C435.2602,328.6614,437.7707,329.0528,440.4956,329.0528L455.2789,329.0528C457.94100000000003,329.0528,460.3891,328.6608,462.6151,327.8668L462.6242,327.8637L462.6332,327.86C464.8403,327.0073,466.7315,325.8844,468.2943,324.4844ZM928.4549999999999,300.6011L935.912,300.6011C940.16,300.6011,943.604,297.2223,943.604,293.0543L943.604,268.46679C943.604,264.29878,940.16,260.920028,935.912,260.920028L892.5070000000001,260.920028L892.5070000000001,329.02070000000003L902.322,329.02070000000003L902.322,300.6011L915.691,300.6011L936.182,328.5711L948.055,328.5711L928.4549999999999,300.6011ZM902.3969999999999,291.4665L902.3969999999999,270.623L930.418,270.623C932.238,270.623,933.7139999999999,272.0711,933.7139999999999,273.8574L933.7139999999999,288.2322C933.7139999999999,290.0184,932.238,291.4665,930.418,291.4665L902.3969999999999,291.4665Z" fill-rule="evenodd" fill="#FFFFFF" fill-opacity="1"/></g><g><path d="M1292.6472495117187,328.8139689236641L1336.6032495117188,328.8139689236641L1336.6032495117188,319.3769689236641L1298.1082495117187,319.3769689236641C1296.4902495117187,319.3769689236641,1295.1782495117188,318.0901689236641,1295.1782495117188,316.5022689236641L1295.1782495117188,300.2316689236641L1330.1672495117186,300.2316689236641L1330.1672495117186,289.8962689236641L1295.1782495117188,289.8962689236641L1295.1782495117188,272.93006892366407C1295.1782495117188,271.3427689236641,1296.4902495117187,270.0552889236641,1298.1082495117187,270.0552889236641L1336.5482495117187,270.0552889236641L1336.5482495117187,260.6183689236641L1292.6472495117187,260.6183689236641C1288.1962495117186,260.6183689236641,1284.5882495117187,264.1579089236641,1284.5882495117187,268.5242089236641L1284.5882495117187,320.9080689236641C1284.5882495117187,325.2743689236641,1288.1962495117186,328.8139689236641,1292.6472495117187,328.8139689236641ZM1557.2882495117187,328.8139689236641L1601.2442495117189,328.8139689236641L1601.2442495117189,319.3769689236641L1562.7502495117187,319.3769689236641C1561.1312495117188,319.3769689236641,1559.8192495117187,318.0901689236641,1559.8192495117187,316.5022689236641L1559.8192495117187,300.2316689236641L1594.8092495117187,300.2316689236641L1594.8092495117187,289.8962689236641L1559.8192495117187,289.8962689236641L1559.8192495117187,272.93006892366407C1559.8192495117187,271.3427689236641,1561.1312495117188,270.0552889236641,1562.7502495117187,270.0552889236641L1601.1892495117188,270.0552889236641L1601.1892495117188,260.6183689236641L1557.2882495117187,260.6183689236641C1552.8372495117187,260.6183689236641,1549.2302495117187,264.1579089236641,1549.2302495117187,268.5242089236641L1549.2302495117187,320.9080689236641C1549.2302495117187,325.2743689236641,1552.8372495117187,328.8139689236641,1557.2882495117187,328.8139689236641ZM1694.4712495117187,270.0552889236641L1694.4712495117187,328.8139689236641L1706.7942495117186,328.8139689236641L1706.7942495117186,270.0552889236641L1730.0002495117187,270.0552889236641L1730.0002495117187,260.6183689236641L1671.9362495117189,260.6183689236641L1671.9362495117189,270.0552889236641L1694.4712495117187,270.0552889236641ZM1410.1022495117188,260.7976919236641L1410.1022495117188,328.3594689236641L1421.0592495117187,328.3594689236641L1421.0592495117187,279.5899689236641L1450.9892495117188,328.3594689236641L1462.6032495117188,328.3594689236641L1462.6032495117188,260.7976919236641L1450.9562495117189,260.7976919236641L1450.9562495117189,309.7564689236641L1420.9232495117187,260.7976919236641L1410.1022495117188,260.7976919236641ZM1611.559249511719,260.7976919236641L1611.559249511719,328.3594689236641L1622.5162495117188,328.3594689236641L1622.5162495117188,279.5899689236641L1652.4462495117186,328.3594689236641L1664.0602495117187,328.3594689236641L1664.0602495117187,260.7976919236641L1652.4132495117187,260.7976919236641L1652.4132495117187,309.7564689236641L1622.3802495117188,260.7976919236641L1611.559249511719,260.7976919236641ZM1475.7902495117187,261.3369059236641L1486.9002495117188,261.3369059236641L1506.6532495117187,297.1064689236641L1526.3122495117186,261.3369059236641L1537.1432495117188,261.3369059236641L1537.1432495117188,327.8202689236641L1526.1752495117187,327.8202689236641L1526.1752495117187,280.0134689236641L1510.9702495117187,308.56976892366407L1501.8492495117189,308.56976892366407L1486.8552495117187,280.1971689236641L1486.8552495117187,327.8202689236641L1475.7902495117187,327.8202689236641L1475.7902495117187,261.3369059236641ZM1233.0482495117187,261.3369059236641L1221.2212495117187,261.3369059236641L1244.1842495117187,327.5203689236641L1255.4742495117187,327.5203689236641L1278.4532495117187,261.3369059236641L1266.6072495117187,261.3369059236641L1249.8782495117189,313.61506892366407L1233.0482495117187,261.3369059236641ZM1095.7682495117188,318.8365689236641L1095.7682495117188,270.3211989236641C1095.7682495117188,265.3593989236641,1099.8680395117187,261.3369059236641,1104.9253695117188,261.3369059236641L1139.7225495117189,261.3369059236641C1144.7798495117188,261.3369059236641,1148.8796495117188,265.3593989236641,1148.8796495117188,270.3211989236641L1148.8796495117188,280.5743689236641L1138.9327495117188,280.5743689236641L1138.9327495117188,275.7034689236641C1138.9327495117188,273.7184689236641,1137.2927495117187,272.1101689236641,1135.2698495117188,272.1101689236641L1110.6257495117188,272.1101689236641C1108.6027495117187,272.1101689236641,1106.9628495117188,273.7184689236641,1106.9628495117188,275.7034689236641L1106.9628495117188,314.3527689236641C1106.9628495117188,316.3371689236641,1108.6027495117187,317.9460689236641,1110.6257495117188,317.9460689236641L1135.2698495117188,317.9460689236641C1137.2927495117187,317.9460689236641,1138.9327495117188,316.3371689236641,1138.9327495117188,314.3527689236641L1138.9327495117188,301.7621689236641L1125.8094495117186,301.7621689236641L1125.8094495117186,290.9895689236641L1148.8796495117188,290.9895689236641L1148.8796495117188,318.8365689236641C1148.8796495117188,323.7983689236641,1144.7799495117188,327.8202689236641,1139.7225495117189,327.8202689236641L1104.9253695117188,327.8202689236641C1099.8680395117187,327.8202689236641,1095.7682495117188,323.7983689236641,1095.7682495117188,318.8365689236641ZM1178.0619495117187,260.7766689236641L1181.3872495117187,260.7766689236641L1195.6859495117187,260.7766689236641L1198.4492495117188,260.7766689236641C1201.0382495117187,260.7766689236641,1203.3992495117188,261.1891169236641,1205.5352495117188,262.0146389236641C1207.6702495117188,262.7764689236641,1209.4822495117187,263.8555189236641,1210.9702495117187,265.2524189236641C1212.4592495117188,266.5856289236641,1213.6242495117187,268.1408289236641,1214.4652495117189,269.9186389236641C1214.8252495117188,270.6804689236641,1215.1082495117187,271.4602689236641,1215.3152495117188,272.2566689236641C1215.5892495117187,273.2281689236641,1215.7262495117188,274.22556892366407,1215.7262495117188,275.24956892366407L1215.7262495117188,275.5377689236641L1215.7262495117188,312.67826892366406L1215.7262495117188,312.7864689236641C1215.7262495117188,313.1592689236641,1215.7092495117188,313.5290689236641,1215.6722495117187,313.8945689236641C1215.5332495117189,315.4219689236641,1215.1312495117188,316.8893689236641,1214.4652495117189,318.29736892366407C1213.6242495117187,320.0751689236641,1212.4592495117188,321.6618689236641,1210.9702495117187,323.0587689236641C1209.4822495117187,324.3919689236641,1207.6702495117188,325.4716689236641,1205.5352495117188,326.2965689236641C1203.3992495117188,327.0583689236641,1201.0382495117187,327.4392689236641,1198.4492495117188,327.4392689236641L1178.0619495117187,327.4392689236641C1175.4729495117188,327.4392689236641,1173.1113495117188,327.0583689236641,1170.9757495117187,326.2965689236641C1168.8402495117189,325.4716689236641,1167.0285495117187,324.3919689236641,1165.5402495117187,323.0587689236641C1164.0519495117187,321.6618689236641,1162.8868495117188,320.0751689236641,1162.0457495117187,318.29736892366407C1161.3793495117188,316.8893689236641,1160.9773495117188,315.4219689236641,1160.8386495117188,313.8945689236641C1160.8020495117187,313.5284689236641,1160.7840495117186,313.1592689236641,1160.7840495117186,312.7864689236641L1160.7840495117186,312.67826892366406L1160.7840495117186,275.5377689236641L1160.7840495117186,275.24956892366407C1160.7840495117186,274.22556892366407,1160.9209495117188,273.2281689236641,1161.1959495117187,272.25726892366407C1161.4022495117188,271.4602689236641,1161.6853495117189,270.6804689236641,1162.0457495117187,269.9186389236641C1162.8868495117188,268.1408289236641,1164.0519495117187,266.5856289236641,1165.5402495117187,265.2524189236641C1167.0285495117187,263.8555189236641,1168.8402495117189,262.7764689236641,1170.9757495117187,262.0146389236641C1173.1113495117188,261.1891169236641,1175.4729495117188,260.7766689236641,1178.0619495117187,260.7766689236641ZM1202.1042495117188,315.3786689236641C1200.0772495117187,316.8726689236641,1197.5622495117188,317.6196689236641,1194.5605495117188,317.6196689236641L1181.9502495117188,317.6196689236641C1179.0231495117187,317.6196689236641,1176.5085495117187,316.8726689236641,1174.4070495117187,315.3786689236641C1172.3804495117188,313.8846689236641,1171.3672495117187,311.8613689236641,1171.3672495117187,309.3087689236641L1171.3672495117187,279.6257689236641C1171.3672495117187,277.07316892366407,1172.3804495117188,275.0504689236641,1174.4070495117187,273.5558689236641C1176.5085495117187,272.0624689236641,1179.0231495117187,271.3155689236641,1181.9502495117188,271.3155689236641L1194.5605495117188,271.3155689236641C1197.5622495117188,271.3155689236641,1200.0772495117187,272.0624689236641,1202.1042495117188,273.5558689236641C1204.2052495117186,275.0504689236641,1205.2562495117188,277.07316892366407,1205.2562495117188,279.6257689236641L1205.2562495117188,309.3087689236641C1205.2562495117188,311.8613689236641,1204.2052495117186,313.8846689236641,1202.1042495117188,315.3786689236641ZM1381.3402495117189,300.9966689236641L1388.7972495117187,300.9966689236641C1393.0452495117188,300.9966689236641,1396.4892495117188,297.6178689236641,1396.4892495117188,293.4500689236641L1396.4892495117188,268.8624589236641C1396.4892495117188,264.6940289236641,1393.0452495117188,261.3152699236641,1388.7972495117187,261.3152699236641L1345.3922495117188,261.3152699236641L1345.3922495117188,329.4162689236641L1355.2072495117188,329.4162689236641L1355.2072495117188,300.9966689236641L1368.5762495117187,300.9966689236641L1389.0672495117187,328.9666689236641L1400.9392495117188,328.9666689236641L1381.3402495117189,300.9966689236641ZM1355.2822495117189,291.8620689236641L1355.2822495117189,271.0180689236641L1383.3022495117189,271.0180689236641C1385.1232495117188,271.0180689236641,1386.5992495117189,272.4662689236641,1386.5992495117189,274.2527689236641L1386.5992495117189,288.6273689236641C1386.5992495117189,290.4138689236641,1385.1232495117188,291.8620689236641,1383.3022495117189,291.8620689236641L1355.2822495117189,291.8620689236641Z" fill-rule="evenodd" fill="#FFFFFF" fill-opacity="1"/></g></g><g><path d="M159.1,1532L167.8,1532L167.8,1493.5C167.8,1485.8,167.1,1478,166.7,1470.6L167.1,1470.6L175,1485.7L201.7,1532L211.2,1532L211.2,1458.7L202.4,1458.7L202.4,1496.8C202.4,1504.4,203.1,1512.7,203.7,1520L203.2,1520L195.3,1504.9L168.5,1458.7L159.1,1458.7L159.1,1532ZM240,1533.3C246.7,1533.3,252.8,1529.8,258,1525.5L258.3,1525.5L259.1,1532L266.6,1532L266.6,1498.6C266.6,1485.1,261.1,1476.3,247.8,1476.3C239,1476.3,231.4,1480.2,226.5,1483.4L230,1489.7C234.3,1486.8,240,1483.9,246.3,1483.9C255.2,1483.9,257.5,1490.6,257.5,1497.6C234.4,1500.2,224.2,1506.1,224.2,1517.9C224.2,1527.7,230.9,1533.3,240,1533.3ZM242.6,1525.9C237.2,1525.9,233,1523.5,233,1517.3C233,1510.3,239.2,1505.8,257.5,1503.7L257.5,1518.8C252.2,1523.5,247.8,1525.9,242.6,1525.9ZM280.8,1532L290,1532L290,1492.6C294.9,1487,299.5,1484.3,303.6,1484.3C310.5,1484.3,313.7,1488.6,313.7,1498.8L313.7,1532L322.8,1532L322.8,1492.6C327.9,1487,332.3,1484.3,336.5,1484.3C343.4,1484.3,346.6,1488.6,346.6,1498.8L346.6,1532L355.7,1532L355.7,1497.6C355.7,1483.8,350.4,1476.3,339.3,1476.3C332.6,1476.3,327,1480.6,321.3,1486.7C319.1,1480.3,314.7,1476.3,306.3,1476.3C299.8,1476.3,294.2,1480.4,289.4,1485.6L289.2,1485.6L288.3,1477.7L280.8,1477.7L280.8,1532ZM392.4,1533.3C399.7,1533.3,405.5,1530.9,410.2,1527.8L407,1521.7C402.9,1524.4,398.7,1526,393.4,1526C383.1,1526,376,1518.6,375.4,1507L412,1507C412.2,1505.6,412.4,1503.8,412.4,1501.8C412.4,1486.3,404.6,1476.3,390.7,1476.3C378.3,1476.3,366.4,1487.2,366.4,1504.9C366.4,1522.8,377.9,1533.3,392.4,1533.3ZM375.3,1500.5C376.4,1489.7,383.2,1483.6,390.9,1483.6C399.4,1483.6,404.4,1489.5,404.4,1500.5L375.3,1500.5ZM427.5,1493C431.1,1493,434.1,1490.2,434.1,1486C434.1,1481.9,431.1,1479,427.5,1479C423.8,1479,420.9,1481.9,420.9,1486C420.9,1490.2,423.8,1493,427.5,1493ZM427.5,1533.3C431.1,1533.3,434.1,1530.5,434.1,1526.4C434.1,1522.2,431.1,1519.4,427.5,1519.4C423.8,1519.4,420.9,1522.2,420.9,1526.4C420.9,1530.5,423.8,1533.3,427.5,1533.3Z" fill="#FFFFFF" fill-opacity="1"/></g><g><path d="M66,2053L75.2,2053L75.2,2023.8L87.3,2023.8C103.4,2023.8,114.3,2016.7,114.3,2001.2C114.3,1985.2,103.3,1979.7,86.9,1979.7L66,1979.7L66,2053ZM75.2,2016.3L75.2,1987.2L85.7,1987.2C98.6,1987.2,105.1,1990.5,105.1,2001.2C105.1,2011.7,99,2016.3,86.1,2016.3L75.2,2016.3ZM143.8,2054.3C157.1,2054.3,168.9,2043.9,168.9,2025.9C168.9,2007.8,157.1,1997.3,143.8,1997.3C130.5,1997.3,118.7,2007.8,118.7,2025.9C118.7,2043.9,130.5,2054.3,143.8,2054.3ZM143.8,2046.7C134.4,2046.7,128.1,2038.4,128.1,2025.9C128.1,2013.4,134.4,2005,143.8,2005C153.2,2005,159.6,2013.4,159.6,2025.9C159.6,2038.4,153.2,2046.7,143.8,2046.7ZM194.5,2054.3C207.3,2054.3,214.2,2047,214.2,2038.2C214.2,2027.9,205.6,2024.7,197.7,2021.7C191.6,2019.4,186,2017.4,186,2012.3C186,2008,189.2,2004.4,196.1,2004.4C200.9,2004.4,204.7,2006.5,208.4,2009.2L212.8,2003.5C208.7,2000.1,202.7,1997.3,196,1997.3C184.1,1997.3,177.3,2004.1,177.3,2012.7C177.3,2022,185.5,2025.6,193.1,2028.4C199.1,2030.6,205.5,2033.2,205.5,2038.7C205.5,2043.4,202,2047.2,194.8,2047.2C188.3,2047.2,183.5,2044.6,178.7,2040.7L174.3,2046.8C179.4,2051.1,186.8,2054.3,194.5,2054.3ZM224.1,2053L233.3,2053L233.3,1998.7L224.1,1998.7L224.1,2053ZM228.7,1987.5C232.3,1987.5,234.8,1985.1,234.8,1981.4C234.8,1977.9,232.3,1975.5,228.7,1975.5C225.1,1975.5,222.7,1977.9,222.7,1981.4C222.7,1985.1,225.1,1987.5,228.7,1987.5ZM265.6,2054.3C269,2054.3,272.6,2053.3,275.7,2052.3L273.9,2045.4C272.1,2046.2,269.7,2046.9,267.7,2046.9C261.4,2046.9,259.3,2043.1,259.3,2036.5L259.3,2006.1L274.1,2006.1L274.1,1998.7L259.3,1998.7L259.3,1983.4L251.7,1983.4L250.7,1998.7L242.1,1999.2L242.1,2006.1L250.2,2006.1L250.2,2036.2C250.2,2047.1,254.1,2054.3,265.6,2054.3ZM283.3,2053L292.5,2053L292.5,1998.7L283.3,1998.7L283.3,2053ZM287.9,1987.5C291.5,1987.5,294,1985.1,294,1981.4C294,1977.9,291.5,1975.5,287.9,1975.5C284.3,1975.5,281.9,1977.9,281.9,1981.4C281.9,1985.1,284.3,1987.5,287.9,1987.5ZM328.9,2054.3C342.2,2054.3,354,2043.9,354,2025.9C354,2007.8,342.2,1997.3,328.9,1997.3C315.6,1997.3,303.8,2007.8,303.8,2025.9C303.8,2043.9,315.6,2054.3,328.9,2054.3ZM328.9,2046.7C319.5,2046.7,313.2,2038.4,313.2,2025.9C313.2,2013.4,319.5,2005,328.9,2005C338.3,2005,344.7,2013.4,344.7,2025.9C344.7,2038.4,338.3,2046.7,328.9,2046.7ZM365.4,2053L374.6,2053L374.6,2013.6C380,2008.1,383.8,2005.3,389.4,2005.3C396.6,2005.3,399.7,2009.6,399.7,2019.8L399.7,2053L408.8,2053L408.8,2018.6C408.8,2004.8,403.6,1997.3,392.2,1997.3C384.8,1997.3,379.1,2001.4,374,2006.6L373.8,2006.6L372.9,1998.7L365.4,1998.7L365.4,2053ZM428.1,2014C431.7,2014,434.7,2011.2,434.7,2007C434.7,2002.9,431.7,2000,428.1,2000C424.4,2000,421.5,2002.9,421.5,2007C421.5,2011.2,424.4,2014,428.1,2014ZM428.1,2054.3C431.7,2054.3,434.7,2051.5,434.7,2047.4C434.7,2043.2,431.7,2040.4,428.1,2040.4C424.4,2040.4,421.5,2043.2,421.5,2047.4C421.5,2051.5,424.4,2054.3,428.1,2054.3Z" fill="#FFFFFF" fill-opacity="1"/></g><g><rect x="92" y="2608" width="1680" height="144" rx="22" fill="#FFFFFF" fill-opacity="1"/></g><g transform="matrix(0,-1,1,0,-2575,2831)"><path d="M149.5,2703L168.11950000000002,2731.5L130.88045,2731.5L149.5,2703Z" fill="#000000" fill-opacity="1"/></g><g><path d="M193.272,2710L199.248,2710L199.248,2680.768C199.248,2676.232,198.816,2669.824,198.38400000000001,2665.216L198.672,2665.216L202.92000000000002,2677.24L212.928,2704.672L217.392,2704.672L227.328,2677.24L231.576,2665.216L231.864,2665.216C231.504,2669.824,231,2676.232,231,2680.768L231,2710L237.192,2710L237.192,2657.224L229.2,2657.224L219.12,2685.448C217.89600000000002,2689.048,216.816,2692.792,215.448,2696.464L215.16,2696.464C213.864,2692.792,212.712,2689.048,211.344,2685.448L201.264,2657.224L193.272,2657.224L193.272,2710ZM257.928,2710.936C262.752,2710.936,267.144,2708.416,270.88800000000003,2705.32L271.104,2705.32L271.68,2710L277.08,2710L277.08,2685.952C277.08,2676.232,273.12,2669.896,263.544,2669.896C257.20799999999997,2669.896,251.736,2672.704,248.208,2675.008L250.728,2679.544C253.824,2677.456,257.928,2675.368,262.464,2675.368C268.872,2675.368,270.528,2680.192,270.528,2685.232C253.89600000000002,2687.104,246.552,2691.352,246.552,2699.848C246.552,2706.904,251.376,2710.936,257.928,2710.936ZM259.8,2705.608C255.912,2705.608,252.888,2703.88,252.888,2699.416C252.888,2694.376,257.352,2691.136,270.528,2689.624L270.528,2700.496C266.712,2703.88,263.544,2705.608,259.8,2705.608ZM300.624,2710.936C305.304,2710.936,309.48,2708.416,312.504,2705.392L312.72,2705.392L313.296,2710L318.696,2710L318.696,2652.688L312.072,2652.688L312.072,2667.736L312.432,2674.432C308.976,2671.624,306.024,2669.896,301.416,2669.896C292.488,2669.896,284.496,2677.816,284.496,2690.488C284.496,2703.52,290.832,2710.936,300.624,2710.936ZM302.06399999999996,2705.392C295.224,2705.392,291.264,2699.848,291.264,2690.416C291.264,2681.488,296.304,2675.44,302.568,2675.44C305.808,2675.44,308.832,2676.592,312.072,2679.544L312.072,2700.064C308.832,2703.664,305.664,2705.392,302.06399999999996,2705.392ZM345.624,2710.936C350.88,2710.936,355.05600000000004,2709.208,358.44,2706.976L356.13599999999997,2702.584C353.18399999999997,2704.528,350.15999999999997,2705.68,346.344,2705.68C338.928,2705.68,333.81600000000003,2700.352,333.384,2692L359.736,2692C359.88,2690.992,360.024,2689.696,360.024,2688.256C360.024,2677.096,354.408,2669.896,344.4,2669.896C335.472,2669.896,326.904,2677.744,326.904,2690.488C326.904,2703.376,335.18399999999997,2710.936,345.624,2710.936ZM333.312,2687.32C334.10400000000004,2679.544,339,2675.152,344.544,2675.152C350.664,2675.152,354.264,2679.4,354.264,2687.32L333.312,2687.32ZM382.128,2710L398.904,2710C410.712,2710,418.91999999999996,2704.888,418.91999999999996,2694.52C418.91999999999996,2687.32,414.456,2683.144,408.192,2681.92L408.192,2681.56C413.15999999999997,2679.976,415.89599999999996,2675.368,415.89599999999996,2670.112C415.89599999999996,2660.824,408.408,2657.224,397.752,2657.224L382.128,2657.224L382.128,2710ZM388.752,2679.616L388.752,2662.48L396.88800000000003,2662.48C405.168,2662.48,409.344,2664.784,409.344,2670.976C409.344,2676.376,405.672,2679.616,396.6,2679.616L388.752,2679.616ZM388.752,2704.672L388.752,2684.8L397.96799999999996,2684.8C407.256,2684.8,412.368,2687.752,412.368,2694.304C412.368,2701.432,407.03999999999996,2704.672,397.96799999999996,2704.672L388.752,2704.672ZM426.192,2726.848C433.96799999999996,2726.848,438.072,2720.944,440.808,2713.312L455.496,2670.904L449.088,2670.904L442.032,2692.576C441.024,2696.104,439.872,2700.064,438.86400000000003,2703.664L438.504,2703.664C437.13599999999997,2699.992,435.84000000000003,2696.032,434.616,2692.576L426.696,2670.904L419.856,2670.904L435.552,2710.072L434.688,2713.024C433.03200000000004,2717.848,430.296,2721.448,425.904,2721.448C424.824,2721.448,423.672,2721.088,422.88,2720.8L421.584,2726.056C422.808,2726.56,424.392,2726.848,426.192,2726.848ZM494.232,2710.936C504.96,2710.936,513.168,2705.176,513.168,2688.256L513.168,2657.224L506.76,2657.224L506.76,2688.4C506.76,2701.072,501.216,2705.104,494.232,2705.104C487.32,2705.104,481.92,2701.072,481.92,2688.4L481.92,2657.224L475.296,2657.224L475.296,2688.256C475.296,2705.176,483.432,2710.936,494.232,2710.936ZM525.264,2710L556.44,2710L556.44,2704.312L531.8879999999999,2704.312L531.8879999999999,2685.088L551.904,2685.088L551.904,2679.4L531.8879999999999,2679.4L531.8879999999999,2662.84L555.648,2662.84L555.648,2657.224L525.264,2657.224L525.264,2710ZM565.512,2710L572.136,2710L572.136,2686.312L592.296,2686.312L592.296,2680.696L572.136,2680.696L572.136,2662.84L595.896,2662.84L595.896,2657.224L565.512,2657.224L565.512,2710ZM600,2710.936C602.592,2710.936,604.752,2708.92,604.752,2705.968C604.752,2702.944,602.592,2700.928,600,2700.928C597.336,2700.928,595.248,2702.944,595.248,2705.968C595.248,2708.92,597.336,2710.936,600,2710.936ZM611.448,2710L647.88,2710L647.88,2704.312L619.656,2704.312L647.52,2661.184L647.52,2657.224L613.9680000000001,2657.224L613.9680000000001,2662.84L639.312,2662.84L611.448,2705.968L611.448,2710ZM648.8879999999999,2710L655.5840000000001,2710L660.696,2693.872L679.992,2693.872L685.0319999999999,2710L692.088,2710L674.1600000000001,2657.224L666.744,2657.224L648.8879999999999,2710ZM662.352,2688.616L664.944,2680.48C666.816,2674.504,668.544,2668.816,670.2,2662.624L670.488,2662.624C672.216,2668.744,673.8720000000001,2674.504,675.816,2680.48L678.336,2688.616L662.352,2688.616ZM716.136,2710.936C729.384,2710.936,738.672,2700.352,738.672,2683.432C738.672,2666.512,729.384,2656.288,716.136,2656.288C702.888,2656.288,693.6,2666.512,693.6,2683.432C693.6,2700.352,702.888,2710.936,716.136,2710.936ZM716.136,2705.104C706.632,2705.104,700.44,2696.608,700.44,2683.432C700.44,2670.256,706.632,2662.12,716.136,2662.12C725.64,2662.12,731.832,2670.256,731.832,2683.432C731.832,2696.608,725.64,2705.104,716.136,2705.104ZM747.96,2710L754.224,2710L754.224,2682.28C754.224,2676.736,753.72,2671.12,753.432,2665.792L753.72,2665.792L759.408,2676.664L778.632,2710L785.472,2710L785.472,2657.224L779.136,2657.224L779.136,2684.656C779.136,2690.128,779.64,2696.104,780.072,2701.36L779.712,2701.36L774.024,2690.488L754.728,2657.224L747.96,2657.224L747.96,2710ZM790.872,2710L797.568,2710L802.68,2693.872L821.976,2693.872L827.016,2710L834.072,2710L816.144,2657.224L808.728,2657.224L790.872,2710ZM804.336,2688.616L806.928,2680.48C808.8,2674.504,810.528,2668.816,812.184,2662.624L812.472,2662.624C814.2,2668.744,815.856,2674.504,817.8,2680.48L820.32,2688.616L804.336,2688.616ZM842.208,2710.936C844.8,2710.936,846.96,2708.92,846.96,2705.968C846.96,2702.944,844.8,2700.928,842.208,2700.928C839.544,2700.928,837.456,2702.944,837.456,2705.968C837.456,2708.92,839.544,2710.936,842.208,2710.936ZM860.352,2710L867.048,2710L867.048,2662.84L883.032,2662.84L883.032,2657.224L844.368,2657.224L844.368,2662.84L860.352,2662.84L860.352,2710ZM907.872,2710.936C921.12,2710.936,930.408,2700.352,930.408,2683.432C930.408,2666.512,921.12,2656.288,907.872,2656.288C894.624,2656.288,885.336,2666.512,885.336,2683.432C885.336,2700.352,894.624,2710.936,907.872,2710.936ZM907.872,2705.104C898.368,2705.104,892.176,2696.608,892.176,2683.432C892.176,2670.256,898.368,2662.12,907.872,2662.12C917.376,2662.12,923.568,2670.256,923.568,2683.432C923.568,2696.608,917.376,2705.104,907.872,2705.104ZM939.696,2710L946.32,2710L946.32,2688.976L955.032,2688.976C966.624,2688.976,974.472,2683.864,974.472,2672.704C974.472,2661.184,966.552,2657.224,954.744,2657.224L939.696,2657.224L939.696,2710ZM946.32,2683.576L946.32,2662.624L953.88,2662.624C963.168,2662.624,967.848,2665,967.848,2672.704C967.848,2680.264,963.456,2683.576,954.168,2683.576L946.32,2683.576Z" fill="#000000" fill-opacity="1"/></g></g></svg>