<svg xmlns="http://www.w3.org/2000/svg" xmlns:xlink="http://www.w3.org/1999/xlink" fill="none" version="1.1" width="3114" height="600" viewBox="0 0 3114 600"><g><g><path d="M738.80576,572.776Q775.5233,499.943,791.1735,430.419Q806.8235,360.896,806.8235,279.637L806.8235,31.038600000000002L873.637,31.038600000000002L873.637,279.637Q873.637,309.733,872.434,324.178L915.7719999999999,324.178Q937.442,457.206,935.636,565.553L876.6469999999999,565.553Q877.249,481.884,866.414,398.819Q853.774,489.71,817.6581,572.776L738.80576,572.776ZM786.3579,76.18350000000001L797.1928,308.529L747.8347,308.529L737,76.18350000000001L786.3579,76.18350000000001ZM885.6759999999999,285.053Q894.1030000000001,173.094,893.501,76.18350000000001L941.656,76.18350000000001Q942.2570000000001,173.094,933.83,285.053L885.6759999999999,285.053ZM939.85,345.848Q982.587,325.984,1014.187,298.295Q1045.788,270.606,1069.2640000000001,232.686L1160.7559999999999,232.686Q1184.231,270.606,1215.833,298.295Q1247.433,325.984,1290.17,345.848L1290.17,430.118Q1271.51,422.294,1254.658,413.266L1254.658,570.969L975.362,570.969L975.362,413.266Q958.51,422.294,939.85,430.118L939.85,345.848ZM957.907,207.404Q1029.536,188.143,1095.748,137.57999999999998L1095.748,208.006Q1042.176,251.346,957.907,275.423L957.907,207.404ZM957.907,53.3101L1081.905,53.3101L1081.905,23.81545L1160.155,23.81545L1160.155,53.3101L1284.1509999999998,53.3101L1284.1509999999998,167.677L1211.319,167.677L1211.319,120.124L1030.74,120.124L1030.74,167.677L957.907,167.677L957.907,53.3101ZM1192.659,372.936Q1152.932,341.033,1127.049,302.509L1102.971,302.509Q1077.088,341.033,1037.3609999999999,372.936L1192.659,372.936ZM1179.416,501.146L1179.416,442.759L1050.603,442.759L1050.603,501.146L1179.416,501.146ZM1146.311,137.57999999999998Q1212.522,188.143,1284.1509999999998,207.404L1284.1509999999998,275.423Q1199.8809999999999,251.346,1146.311,208.006L1146.311,137.57999999999998ZM1588.124,499.943Q1643.502,478.274,1682.9279999999999,453.293Q1722.354,428.312,1753.35,396.11Q1784.35,363.907,1818.06,316.354L1904.14,316.354Q1863.2,392.799,1818.06,442.759L1910.16,496.932L1910.16,578.795L1765.69,491.516Q1696.471,545.088,1588.124,578.795L1588.124,499.943ZM1346.15,541.476Q1375.645,394.004,1375.645,192.356L1439.4479999999999,192.356Q1439.4479999999999,292.278,1434.3319999999999,376.848Q1429.2150000000001,461.419,1414.1689999999999,541.476L1346.15,541.476ZM1356.9850000000001,93.0375L1453.2939999999999,93.0375L1453.2939999999999,28.028959999999998L1532.145,28.028959999999998L1532.145,93.0375L1577.891,93.0375L1577.891,167.677L1533.35,167.677L1533.35,245.326L1565.854,270.606L1565.854,361.499L1533.35,336.218L1533.35,572.776L1456.904,572.776L1456.904,167.677L1356.9850000000001,167.677L1356.9850000000001,93.0375ZM1582.708,58.1255L1709.713,58.1255L1709.713,19L1790.37,19L1790.37,58.1255L1904.14,58.1255L1904.14,127.347L1786.16,127.347L1727.772,208.608L1766.9,208.608Q1781.95,185.735,1793.98,164.667L1879.46,164.667Q1845.15,238.102,1807.23,288.064Q1769.3,338.024,1717.539,373.838Q1665.7730000000001,409.653,1591.737,434.935L1591.737,355.48Q1631.463,338.625,1660.958,319.363Q1690.453,300.101,1713.9270000000001,276.024L1594.745,276.024L1594.745,208.608L1633.269,208.608L1693.462,127.347L1582.708,127.347L1582.708,58.1255ZM2162.96,502.952Q2226.17,480.681,2276.73,449.38Q2208.71,378.955,2178.6099999999997,266.394L2490.41,266.394Q2483.19,318.762,2457.6099999999997,366.014Q2432.0299999999997,413.266,2391.1,452.992Q2416.38,468.041,2438.95,477.971Q2461.52,487.904,2500.04,502.952L2500.04,580Q2398.92,543.282,2335.12,499.34Q2259.27,552.912,2162.96,580L2162.96,502.952ZM1952.29,202.589L2105.1800000000003,202.589L2105.1800000000003,451.788L2149.7200000000003,434.935L2149.7200000000003,524.6220000000001L2024.52,572.776L2024.52,282.646L1952.29,282.646L1952.29,202.589ZM2072.6800000000003,31.038600000000002L2114.21,161.658L2032.35,161.658L1990.81,31.038600000000002L2072.6800000000003,31.038600000000002ZM2160.56,254.355Q2188.25,222.452,2197.5699999999997,183.026Q2206.9,143.6,2206.9,90.0279L2206.9,41.2714L2454.3,41.2714L2454.3,173.094L2504.8599999999997,173.094L2504.8599999999997,245.326L2382.0699999999997,245.326L2382.0699999999997,114.707L2278.54,114.707Q2277.33,157.444,2269.51,190.851Q2261.6800000000003,224.258,2242.42,254.355L2160.56,254.355ZM2276.13,330.799Q2298.4,375.343,2332.71,407.847Q2372.4300000000003,372.936,2395.31,330.799L2276.13,330.799ZM2896.72,301.908L2753.45,301.908L2753.45,221.851L2896.11,221.851L2896.11,25.01931L2976.76,25.01931L2976.76,221.851L3114,221.851L3114,301.908L2976.76,301.908L2976.76,578.795L2896.72,578.795L2896.72,301.908ZM2551.21,202.589L2695.0699999999997,202.589L2695.0699999999997,459.012L2769.7,436.739L2769.7,526.428L2614.41,572.776L2614.41,282.646L2551.21,282.646L2551.21,202.589ZM2674.6,31.038600000000002L2716.13,161.658L2634.27,161.658L2592.74,31.038600000000002L2674.6,31.038600000000002Z" fill="#000000" fill-opacity="1" style="mix-blend-mode:passthrough"/></g><g><g><path d="M556.075,433.561Q555.887,448.956,550.727,464.792C581.874,417.497,600,360.865,600,300C600,231.94,577.336,169.173,539.143,118.835Q545.574,136.021,546.055,153.997Q546.573,173.35,540.1,190.867Q533.277,209.331,519.459,223.536Q505.423,237.964,486.892,246.132Q468.817,254.1,449.646,254.747Q430.689,255.388,414.039,248.737C421.081,264.38,425,281.732,425,300C425,321.471,419.587,341.677,410.05,359.329Q412.638,357.792,415.378,356.382Q430.847,348.425,448.607,345.853Q466.709,343.231,484.067,346.675Q502.461,350.325,517.35,360.308L517.421,360.355L517.49,360.406Q537.614,375.181,547.38,394.763Q556.33,412.709,556.075,433.561ZM407.966,236.966Q411.822,239.16,416.012,240.902Q431.529,247.355,449.375,246.752Q467.003,246.156,483.665,238.812Q500.773,231.271,513.724,217.957Q526.36,204.968,532.596,188.094Q538.535,172.023,538.058,154.211Q537.59,136.741,531.04,120.046Q524.416,103.163,512.535,89.5606Q503.852,80.0995,492.771,72.3824Q481.288,64.385,468.126,58.8942Q454.337,53.1419,439.573,50.5129Q423.973,47.7352,408.027,48.5861L407.92,48.5918L407.813,48.5918Q385.549,48.5918,363.652,53.5607Q342.29,58.4083,322.003,67.8162Q302.041,77.0729,283.888,90.3849Q265.855,103.609,250.354,120.284Q234.801,137.016,222.456,156.515Q209.947,176.274,201.242,198.073Q192.344,220.357,187.755,243.951Q187.599,244.752,187.448,245.556C207.686,203.796,250.48,175,300,175C346.047,175,386.278,199.898,407.966,236.966ZM175.048,296.495C175.016,297.659,175,298.828,175,300C175,369.036,230.964,425,300,425C322.614,425,343.826,418.995,362.128,408.492Q353.781,417.239,345.033,425.112Q321.631,446.174,295.837,460.548Q269.672,475.129,241.533,482.554Q212.838,490.126,182.566,490.126Q158.901,490.125,139.872,488.208Q118.042,486.009,99.7594,481.077Q79.7121,475.669,62.7826,466.688Q52.0481,460.994,42.339,453.748C15.452,408.785,-0.00000388981,356.197,-0.00000327612,300C0,134.315,134.315,0,300,0.00000327612C360.49,0.00000393668,416.798,17.9026,463.915,48.6983Q452.737,44.7311,440.975,42.6368Q424.52,39.7067,407.707,40.5918Q384.6,40.6037,361.882,45.7591Q339.693,50.7942,318.637,60.5586Q297.953,70.1505,279.157,83.9336Q260.512,97.6062,244.495,114.837Q228.438,132.111,215.697,152.236Q202.792,172.62,193.813,195.106Q184.635,218.09,179.902,242.424Q175.029,267.477,175.029,293.154Q175.029,294.825,175.048,296.495ZM300,600C387.939,600,467.041,562.163,521.914,501.88L521.841,501.823Q533.823,486.391,540.625,469.223Q547.862,450.956,548.076,433.463Q548.307,414.547,540.221,398.334Q531.335,380.517,512.825,366.905Q499.291,357.852,482.51,354.522Q466.498,351.345,449.754,353.77Q433.317,356.151,419.037,363.496Q404.587,370.929,394.892,382.164Q374.096,409.718,350.384,431.059Q326.312,452.723,299.732,467.536Q272.686,482.607,243.575,490.289Q213.875,498.125,182.566,498.126Q158.499,498.126,139.07,496.168Q116.589,493.903,97.6757,488.801Q76.7588,483.158,59.0338,473.756Q56.0235,472.159,53.0897,470.446C107.226,548.72,197.625,600,300,600Z" fill-rule="evenodd" fill="#000000" fill-opacity="1" style="mix-blend-mode:passthrough"/></g></g></g></svg>