<svg xmlns="http://www.w3.org/2000/svg" xmlns:xlink="http://www.w3.org/1999/xlink" fill="none" version="1.1" width="2113" height="147" viewBox="0 0 2113 147"><g><path d="M103.872,4.78049L0,4.78049L0,35.4553L35.9558,35.4553L35.9558,144.211L67.9164,144.211L67.9164,35.4553L103.872,35.4553L103.872,4.78049ZM131.838,35.8537C141.626,35.8537,149.816,27.687,149.816,17.9268C149.816,8.16667,141.626,0,131.838,0C122.05,0,113.86,8.16667,113.86,17.9268C113.86,27.687,122.05,35.8537,131.838,35.8537ZM116.856,144.211L146.819,144.211L146.819,44.6179L116.856,44.6179L116.856,144.211ZM227.32,41.8293C214.136,41.8293,204.149,46.6098,198.755,53.9797L198.755,44.6179L168.792,44.6179L168.792,144.211L198.755,144.211L198.755,89.8333C198.755,75.6911,206.346,69.3171,217.333,69.3171C226.921,69.3171,234.711,75.0935,234.711,87.4431L234.711,144.211L264.674,144.211L264.674,83.061C264.674,56.1707,247.495,41.8293,227.32,41.8293ZM357.76,4.78049L357.76,53.9797C351.168,46.4106,341.38,41.8293,327.996,41.8293C301.829,41.8293,280.255,64.7358,280.255,94.4146C280.255,124.093,301.829,147,327.996,147C341.38,147,351.168,142.419,357.76,134.85L357.76,144.211L387.723,144.211L387.723,4.78049L357.76,4.78049ZM333.989,118.715C320.206,118.715,310.218,109.354,310.218,94.4146C310.218,79.4756,320.206,70.1138,333.989,70.1138C347.772,70.1138,357.76,79.4756,357.76,94.4146C357.76,109.354,347.772,118.715,333.989,118.715ZM436.463,106.366L507.376,106.366C508.175,102.581,508.574,98.5976,508.574,94.4146C508.574,64.3374,487.001,41.8293,457.837,41.8293C426.275,41.8293,404.702,64.7358,404.702,94.4146C404.702,124.093,425.876,147,460.034,147C479.011,147,493.792,140.028,503.58,126.484L479.61,112.74C475.615,117.122,468.623,120.309,460.433,120.309C449.447,120.309,440.258,116.724,436.463,106.366ZM435.864,84.0569C438.66,73.8984,446.251,68.3211,457.637,68.3211C466.626,68.3211,475.615,72.5041,478.811,84.0569L435.864,84.0569ZM555.516,62.3455L555.516,44.6179L525.553,44.6179L525.553,144.211L555.516,144.211L555.516,99.1951C555.516,79.4756,573.095,74.4959,585.479,76.4878L585.479,42.626C572.895,42.626,559.511,49,555.516,62.3455ZM739.29,144.211L774.247,144.211L726.706,4.78049L685.956,4.78049L638.414,144.211L673.371,144.211L680.363,122.301L732.299,122.301L739.29,144.211ZM689.951,92.4228L706.331,41.2317L722.711,92.4228L689.951,92.4228ZM815.197,62.3455L815.197,44.6179L785.234,44.6179L785.234,144.211L815.197,144.211L815.197,99.1951C815.197,79.4756,832.775,74.4959,845.16,76.4878L845.16,42.626C832.575,42.626,819.192,49,815.197,62.3455ZM904.087,147C923.663,147,940.643,136.841,949.232,121.305L923.064,106.366C919.868,113.337,912.477,117.52,903.688,117.52C890.704,117.52,881.116,108.159,881.116,94.4146C881.116,80.6707,890.704,71.3089,903.688,71.3089C912.477,71.3089,919.668,75.4919,923.064,82.4634L949.232,67.3252C940.643,51.9878,923.464,41.8293,904.087,41.8293C873.725,41.8293,851.153,64.7358,851.153,94.4146C851.153,124.093,873.725,147,904.087,147ZM1019.75,41.8293C1006.56,41.8293,996.574,46.6098,991.18,53.9797L991.18,4.78049L961.217,4.78049L961.217,144.211L991.18,144.211L991.18,89.8333C991.18,75.6911,998.771,69.3171,1009.76,69.3171C1019.35,69.3171,1027.14,75.0935,1027.14,87.4431L1027.14,144.211L1057.1,144.211L1057.1,83.061C1057.1,56.1707,1039.92,41.8293,1019.75,41.8293ZM1092.66,35.8537C1102.44,35.8537,1110.63,27.687,1110.63,17.9268C1110.63,8.16667,1102.44,0,1092.66,0C1082.87,0,1074.68,8.16667,1074.68,17.9268C1074.68,27.687,1082.87,35.8537,1092.66,35.8537ZM1077.67,144.211L1107.64,144.211L1107.64,44.6179L1077.67,44.6179L1077.67,144.211ZM1193.33,44.6179L1172.56,107.76L1151.78,44.6179L1118.62,44.6179L1155.58,144.211L1189.54,144.211L1226.49,44.6179L1193.33,44.6179ZM1260.25,106.366L1331.16,106.366C1331.96,102.581,1332.36,98.5976,1332.36,94.4146C1332.36,64.3374,1310.79,41.8293,1281.62,41.8293C1250.06,41.8293,1228.49,64.7358,1228.49,94.4146C1228.49,124.093,1249.66,147,1283.82,147C1302.8,147,1317.58,140.028,1327.37,126.484L1303.4,112.74C1299.4,117.122,1292.41,120.309,1284.22,120.309C1273.23,120.309,1264.04,116.724,1260.25,106.366ZM1259.65,84.0569C1262.45,73.8984,1270.04,68.3211,1281.42,68.3211C1290.41,68.3211,1299.4,72.5041,1302.6,84.0569L1259.65,84.0569ZM1373.71,73.6992C1373.71,70.1138,1376.91,68.1219,1382.1,68.1219C1388.69,68.1219,1392.69,71.7073,1395.48,76.8862L1421.05,63.1423C1412.66,49,1398.28,41.8293,1382.1,41.8293C1361.32,41.8293,1342.95,52.7845,1342.95,74.4959C1342.95,108.955,1392.09,103.179,1392.09,114.134C1392.09,118.118,1388.49,120.309,1381.3,120.309C1372.51,120.309,1366.92,116.126,1364.32,108.557L1338.35,123.297C1346.14,139.431,1361.32,147,1381.3,147C1402.87,147,1422.85,137.24,1422.85,114.333C1422.85,77.4837,1373.71,85.0528,1373.71,73.6992ZM1556.48,147C1582.05,147,1604.43,134.451,1616.41,114.732L1588.84,98.7967C1582.85,109.553,1570.67,115.927,1556.48,115.927C1531.72,115.927,1515.73,99.3943,1515.73,74.4959C1515.73,49.5976,1531.72,33.065,1556.48,33.065C1570.67,33.065,1582.65,39.439,1588.84,50.1951L1616.41,34.2602C1604.23,14.5407,1581.85,1.99187,1556.48,1.99187C1514.34,1.99187,1483.77,33.4634,1483.77,74.4959C1483.77,115.528,1514.34,147,1556.48,147ZM1658.16,106.366L1729.07,106.366C1729.87,102.581,1730.27,98.5976,1730.27,94.4146C1730.27,64.3374,1708.7,41.8293,1679.53,41.8293C1647.97,41.8293,1626.4,64.7358,1626.4,94.4146C1626.4,124.093,1647.57,147,1681.73,147C1700.71,147,1715.49,140.028,1725.28,126.484L1701.31,112.74C1697.31,117.122,1690.32,120.309,1682.13,120.309C1671.14,120.309,1661.96,116.724,1658.16,106.366ZM1657.56,84.0569C1660.36,73.8984,1667.95,68.3211,1679.33,68.3211C1688.32,68.3211,1697.31,72.5041,1700.51,84.0569L1657.56,84.0569ZM1805.78,41.8293C1792.59,41.8293,1782.61,46.6098,1777.21,53.9797L1777.21,44.6179L1747.25,44.6179L1747.25,144.211L1777.21,144.211L1777.21,89.8333C1777.21,75.6911,1784.8,69.3171,1795.79,69.3171C1805.38,69.3171,1813.17,75.0935,1813.17,87.4431L1813.17,144.211L1843.13,144.211L1843.13,83.061C1843.13,56.1707,1825.95,41.8293,1805.78,41.8293ZM1922.23,73.3008L1922.23,44.6179L1901.66,44.6179L1901.66,16.7317L1871.7,25.6951L1871.7,44.6179L1855.72,44.6179L1855.72,73.3008L1871.7,73.3008L1871.7,108.557C1871.7,136.443,1883.08,148.195,1922.23,144.211L1922.23,117.122C1909.05,117.919,1901.66,117.122,1901.66,108.557L1901.66,73.3008L1922.23,73.3008ZM1963.98,106.366L2034.9,106.366C2035.7,102.581,2036.09,98.5976,2036.09,94.4146C2036.09,64.3374,2014.52,41.8293,1985.36,41.8293C1953.8,41.8293,1932.22,64.7358,1932.22,94.4146C1932.22,124.093,1953.4,147,1987.55,147C2006.53,147,2021.31,140.028,2031.1,126.484L2007.13,112.74C2003.14,117.122,1996.14,120.309,1987.95,120.309C1976.97,120.309,1967.78,116.724,1963.98,106.366ZM1963.38,84.0569C1966.18,73.8984,1973.77,68.3211,1985.16,68.3211C1994.15,68.3211,2003.14,72.5041,2006.33,84.0569L1963.38,84.0569ZM2083.04,62.3455L2083.04,44.6179L2053.07,44.6179L2053.07,144.211L2083.04,144.211L2083.04,99.1951C2083.04,79.4756,2100.62,74.4959,2113,76.4878L2113,42.626C2100.42,42.626,2087.03,49,2083.04,62.3455Z" fill="#000000" fill-opacity="1"/></g></svg>