<svg xmlns="http://www.w3.org/2000/svg" xmlns:xlink="http://www.w3.org/1999/xlink" fill="none" version="1.1" width="1141.6319580078125" height="277.1729736328125" viewBox="0 0 1141.6319580078125 277.1729736328125"><g><path d="M1009.73,59.733L994.176,55.125L1085.47,55.125L1085.47,66.933L1125.79,66.933L1125.79,21.141L1016.64,21.141L1005.98,0L969.408,11.8755L973.44,21.141L875.52,21.141L875.52,66.933L914.112,66.933L914.112,55.125L966.528,55.125C963.072,60.597,959.328,66.069,955.008,71.541L870.624,71.541L870.624,103.797L928.224,103.797C919.296,113.301,910.656,122.229,902.592,129.717C918.72,132.021,934.56,134.901,950.112,138.069C928.224,141.813,902.592,144.117,872.928,145.269C878.4,153.333,884.16,166.005,887.04,176.661C922.752,173.781,952.992,170.037,978.624,163.989L978.624,180.981L868.608,180.981L868.608,214.965L947.52,214.965C924.192,226.8,892.224,236.034,860.544,240.651C869.184,248.733,880.704,264.609,886.176,274.419C919.872,266.625,952.992,252.486,978.624,233.725L978.624,276.44L1020.67,276.44L1020.67,231.993C1047.17,251.329,1081.15,266.049,1115.14,273.843C1120.9,263.164,1132.7,247,1141.63,238.342C1110.53,234.301,1078.85,225.936,1054.66,214.965L1133.28,214.965L1133.28,180.981L1020.67,180.981L1020.67,163.413L980.928,163.413C993.312,160.245,1004.54,156.789,1014.62,152.469C1045.73,160.245,1072.8,168.885,1092.96,177.237L1126.37,149.013C1106.78,142.101,1081.44,134.613,1053.22,127.701C1060.99,120.789,1067.62,113.013,1073.66,103.797L1130.11,103.797L1130.11,71.541L1022.67,71.541C1012.71,82.5335,1002.41,93.2264,992.007,103.797L1026.72,103.797C1021.82,108.981,1015.78,113.877,1009.15,117.909C995.04,115.029,980.352,112.149,965.664,109.557C981.704,94.2806,996.376,77.3924,1009.73,59.733ZM674.496,263.061L674.496,223.029L782.213,223.029L782.213,263.061L674.496,263.061ZM797.76,272.052L838.944,272.052L838.944,109.845L779.328,109.845L779.328,4.0275L739.296,4.0275L739.296,109.845L681.12,109.845L681.12,146.709C672.192,133.749,659.52,115.893,653.76,108.693L653.76,99.765L684.288,99.765L684.288,61.173L653.76,61.173L653.76,2.871L614.304,2.871L614.304,61.173L580.32,61.173L580.32,99.765L608.256,99.765C601.344,131.445,587.808,167.445,572.256,189.621C578.304,199.989,587.232,216.981,590.976,228.789C599.904,215.829,607.68,197.685,614.304,177.813L614.304,276.691L653.76,276.691L653.76,161.973C659.232,172.917,664.128,183.573,667.296,191.925L690.048,159.957L683.136,149.589L797.76,149.589L797.76,167.157L685.728,167.157L685.728,204.309L797.76,204.309L797.76,272.052ZM327.178,57.1005L299.96,60.849C298.52,51.6195,293.336,37.485,289.016,28.5615C322.136,23.6565,357.56,14.706,382.616,4.6035L405.368,38.925C393.848,42.966,381.464,46.4265,368.792,49.311L368.792,49.3132C355.106,52.7758,341.156,55.1737,327.178,57.1005ZM329.184,71.1747L329.184,83.925L288.288,83.925L288.288,122.805L323.424,122.805C313.632,147.861,299.52,175.221,284.544,192.802C290.88,203.476,299.808,221.067,303.552,233.181C312.768,220.779,321.408,204.628,329.184,187.033L329.184,276.732L369.792,276.732L369.792,172.053C374.688,180.693,379.008,189.342,381.888,195.687L402.912,166.581L402.912,202.608L442.368,202.608L442.368,184.725L457.92,184.725L457.92,275.292L499.968,275.292L499.968,99.189L515.52,99.189L515.52,200.016L556.704,200.016L556.704,58.869L499.968,58.869L499.968,4.0275L457.92,4.0275L457.92,58.869L402.912,58.869L402.912,159.957C395.136,151.029,376.416,131.733,369.792,126.261L369.792,122.805L395.592,122.805L395.592,83.925L369.792,83.925L369.792,64.1349C356.324,66.8544,342.78,69.1931,329.184,71.1747ZM111.649,23.7257C111.669,17.4419,111.689,11.1056,111.744,4.72499L159.264,4.72499C158.976,42.453,158.688,79.893,153.216,114.741C153.217,114.744,153.217,114.747,153.218,114.749Q150.222,134.786,145.684,151.056Q141.147,167.329,135.068,179.834L135.068,179.837C116.924,219.578,85.5322,253.271,29.664,277.173C24.192,265.941,11.52,250.101,0,241.173C111.102,197.218,111.358,116.145,111.649,23.7257ZM146.366,201.017C167.873,236.055,198.909,260.214,246.816,274.005C252.576,261.909,265.248,243.477,274.464,234.261C216.938,221.633,183.716,191.728,164.469,147.627C159.811,165.85,153.552,183.646,146.366,201.017ZM699.84,98.901C695.808,81.045,685.728,52.803,677.088,31.734L710.784,19.611C720,40.392,730.08,66.933,735.264,84.789L699.84,98.901ZM782.208,90.549C791.136,72.117,800.928,43.569,805.824,21.9195L845.568,31.734C835.488,56.844,824.544,83.061,815.328,100.053L782.208,90.549ZM10.368,138.069C25.056,117.909,36.576,89.397,42.336,59.733L84.384,72.693C77.472,103.509,67.68,136.629,52.704,157.365L10.368,138.069ZM188.352,141.813C199.008,119.637,210.528,86.229,216.288,59.733L262.944,76.725C250.56,105.813,236.736,136.917,225.216,157.077L188.352,141.813ZM457.92,144.405L457.92,99.189L442.368,99.189L442.368,144.405L457.92,144.405Z" fill-rule="evenodd" fill="#FFFFFF" fill-opacity="1"/></g></svg>