<svg xmlns="http://www.w3.org/2000/svg" xmlns:xlink="http://www.w3.org/1999/xlink" fill="none" version="1.1" width="1141.6318359375" height="277.1729736328125" viewBox="0 0 1141.6318359375 277.1729736328125"><g><g><path d="M931.224,103.797L870.624,103.797L870.624,71.541L960.008,71.541C964.328,66.069,963.072,60.597,966.528,55.125L914.112,55.125L914.112,66.933L875.52,66.933L875.52,21.141L973.44,21.141L969.408,11.8755L1005.98,0L1016.64,21.141L1125.79,21.141L1125.79,66.933L1085.47,66.933L1085.47,55.125L994.176,55.125C940.866,110.449,955.902,135.243,1009.15,117.909C1015.78,113.877,1021.82,108.981,1026.72,103.797L992.007,103.797C1002.41,93.2264,1012.71,82.5335,1022.67,71.541L1130.11,71.541L1130.11,103.797L1073.66,103.797C1067.62,113.013,1060.99,120.789,1053.22,127.701C1030.34,130.907,1026.72,131.819,1014.62,152.469C1004.54,156.789,993.312,160.245,980.928,163.413L1020.67,163.413L1020.67,180.981L1133.28,180.981L1133.28,214.965L1054.66,214.965C1078.85,225.936,1110.53,234.301,1141.63,238.342C1132.7,247,1120.9,263.164,1115.14,273.843C1081.15,266.049,1047.17,251.329,1020.67,231.993L1020.67,276.44L978.624,276.44L978.624,233.725C952.992,252.486,919.872,266.625,886.176,274.419C880.704,264.609,869.184,248.733,860.544,240.651C892.224,236.034,924.192,226.8,947.52,214.965L868.608,214.965L868.608,180.981L978.624,180.981L978.624,163.989C952.992,170.037,922.752,173.781,887.04,176.661C884.16,166.005,878.4,153.333,872.928,145.269C902.592,144.117,928.224,141.813,950.112,138.069C953.257,113.601,946.668,104.794,931.224,103.797ZM797.756,263.061L797.76,263.061L797.76,272.052L838.944,272.052L838.944,109.845L779.328,109.845L779.328,4.0275L739.296,4.0275L739.296,109.845L681.12,109.845L681.12,146.709C672.192,133.749,659.52,115.893,653.76,108.693L653.76,99.765L684.288,99.765L684.288,61.173L653.76,61.173L653.76,2.871L614.304,2.871L614.304,61.173L580.32,61.173L580.32,99.765L608.256,99.765C601.344,131.445,587.808,167.445,572.256,189.621C578.304,199.989,587.232,216.981,590.976,228.789C599.904,215.829,607.68,197.685,614.304,177.813L614.304,276.691L653.76,276.691L653.76,161.973C659.232,172.917,664.128,183.573,667.296,191.925L690.048,159.957L683.136,149.589L797.76,149.589L797.76,167.157L685.728,167.157L685.728,204.309L797.76,204.309L797.76,223.029L797.756,223.029L797.756,263.061ZM329.184,71.1747L329.184,83.925L288.288,83.925L288.288,122.805L323.424,122.805C313.632,147.861,299.52,175.221,284.544,192.802C290.88,203.476,299.808,221.067,303.552,233.181C312.768,220.779,321.408,204.628,329.184,187.033L329.184,276.732L369.792,276.732L369.792,172.053C374.688,180.693,379.008,189.342,381.888,195.687L402.912,166.581L402.912,202.608L442.368,202.608L442.368,184.725L457.92,184.725L457.92,275.292L499.968,275.292L499.968,99.189L515.52,99.189L515.52,200.016L556.704,200.016L556.704,58.869L499.968,58.869L499.968,4.0275L457.92,4.0275L457.92,58.869L402.912,58.869L402.912,159.957C395.136,151.029,376.416,131.733,369.792,126.261L369.792,122.805L395.592,122.805L395.592,83.925L369.792,83.925L369.792,64.1349C356.324,66.8544,342.78,69.1931,329.184,71.1747ZM111.649,23.7257C111.669,17.4419,111.689,11.1056,111.744,4.72499L159.264,4.72499C158.976,42.453,158.688,79.893,153.216,114.741C153.217,114.744,153.217,114.747,153.218,114.749Q150.222,134.786,145.684,151.056Q141.147,167.329,135.068,179.834L135.068,179.837C116.924,219.578,85.5322,253.271,29.664,277.173C24.192,265.941,11.52,250.101,0,241.173C111.102,197.218,111.358,116.145,111.649,23.7257ZM699.84,98.901C695.808,81.045,685.728,52.803,677.088,31.734L710.784,19.611C720,40.392,730.08,66.933,735.264,84.789L699.84,98.901ZM782.208,90.549C791.136,72.117,800.928,43.569,805.824,21.9195L845.568,31.734C835.488,56.844,824.544,83.061,815.328,100.053L782.208,90.549ZM10.368,138.069C25.056,117.909,36.576,89.397,42.336,59.733L84.384,72.693C77.472,103.509,67.68,136.629,52.704,157.365L10.368,138.069ZM188.352,141.813C199.008,119.637,210.528,86.229,216.288,59.733L262.944,76.725C250.56,105.813,236.736,136.917,225.216,157.077L188.352,141.813ZM457.92,144.405L457.92,99.189L442.368,99.189L442.368,144.405L457.92,144.405Z" fill-rule="evenodd" fill="#000000" fill-opacity="1"/></g><g><path d="M966.52772265625,55.125015625L994.17572265625,55.125015625L1009.72772265625,59.733015625C996.37572265625,77.392415625,981.70372265625,94.280615625,965.66372265625,109.556515625C1025.9967226562499,120.203515625,1069.5637226562499,128.964515625,1126.36772265625,149.012515625L1092.95972265625,177.236515625C1031.62472265625,154.059515625,965.43472265625,139.622515625,902.59172265625,129.716515625C926.29972265625,107.702515625,949.24472265625,82.490415625,966.52772265625,55.125015625ZM674.49572265625,263.060515625L674.49572265625,223.028515625L782.21272265625,223.028515625L782.21272265625,263.060515625L674.49572265625,263.060515625ZM327.17772265625,57.100515625L299.95972265625,60.849015625C298.51972265625,51.619515625,293.33572265625,37.485015625,289.01572265625,28.561515625C322.13572265625,23.656515625,357.55972265624996,14.706015625,382.61572265625,4.603515625L405.36772265625,38.925015625C393.84772265624997,42.966015625,381.46372265625,46.426515625,368.79172265625,49.311015625L368.79172265625,49.313215625C355.10672265625,52.775815625,341.15572265624996,55.173715625,327.17772265625,57.100515625ZM146.36572265625,201.017515625C167.87292265625,236.055515625,198.90862265625,260.213515625,246.81572265625,274.004515625C252.57572265624998,261.908515625,265.24772265625,243.476515625,274.46372265625,234.260515625C216.93832265625,221.633515625,183.71632265625,191.727515625,164.46852265625,147.626515625C159.81062265625,165.850515625,153.55240265625,183.645515625,146.36572265625,201.017515625Z" fill-rule="evenodd" fill="#FA3E00" fill-opacity="1"/></g></g></svg>