<svg xmlns="http://www.w3.org/2000/svg" xmlns:xlink="http://www.w3.org/1999/xlink" fill="none" version="1.1" width="2180.66259765625" height="260" viewBox="0 0 2180.66259765625 260"><g><g><g transform="matrix(1.7380900382995605,0,0,1.7380900382995605,0,-9.596972475526854)"><path d="M143.929,13.00244140625L174.881,79.54844140625L174.881,151.08544140625L0,151.08544140625L0,79.54844140625L30.953,13.00244140625L143.929,13.00244140625ZM161.47,137.67344140625L161.47,92.96044140625L13.412,92.96044140625L13.412,137.67344140625L161.47,137.67344140625ZM149.518,41.51844140625L149.515,41.51444140625C145.931,34.33944140625,137.245,27.98544140625,126.016,23.509441406249998C125.259,23.20744140625,124.703,22.997441406249997,124.588,22.954441406249998C114.903,19.29844140625,102.479,16.65044140625,88.268,16.550441406250002L88.262,16.550441406250002C87.717,16.54844140625,87.506,16.54844140625,87.44,16.54844140625C87.166,16.54844140625,86.688,16.550441406250002,86.622,16.550441406250002L86.616,16.550441406250002C72.388,16.65044140625,59.967,19.30144140625,50.289,22.95644140625C49.55,23.23344140625,48.973,23.46544140625,48.86,23.51144140625C37.635,27.98644140625,28.949,34.34044140625,25.368,41.509441406250005L25.366,41.513441406249996C25.211,41.83344140625,25.154,41.95444140625,25.137,41.992441406249995C25.119,42.03044140625,25.061,42.15444140625,24.922,42.46944140625L24.92,42.47244140625C21.383,50.68344140625,25.162,58.51344140625,35.128,64.61044140625C35.24,64.68044140625,35.803,65.02844140625001,36.555,65.45044140625001C48.21,72.01844140624999,66.426,75.83944140625,86.154,75.99944140625L86.164,75.99944140625C86.266,75.99944140625,87.015,76.00344140625,87.44,76.00344140625C87.869,76.00344140625,88.601,75.99944140625,88.702,75.99944140625L88.712,75.99944140625C108.446,75.83944140625,126.662,72.02144140625,138.321,65.45044140625001C139.059,65.04044140625,139.64,64.68044140625,139.752,64.61044140625C149.718,58.51344140625,153.497,50.68344140625,149.963,42.476441406250004L149.961,42.47144140625C149.944,42.43344140625,149.818,42.153441406249996,149.744,41.992441406249995C149.726,41.95444140625,149.67,41.83444140625,149.518,41.51844140625ZM45.019,63.57144140625C47.417,62.53344140625,49.786,61.49944140625,52.066,60.49744140625C60.116,64.26844140624999,71.202,66.60044140625,83.302,67.03544140625L83.182,71.63244140625C68.273,71.17044140625,54.626,68.28944140625,45.019,63.57144140625ZM134.743,60.77944140625C131.638,59.45944140625,129.145,58.38844140625,127.714,57.77244140625C133.735,53.77044140625,136.551,48.85444140625,135.506,43.65144140625L143.319,43.65144140625C145.084,49.94644140625,141.987,55.92444140625,134.743,60.77944140625ZM91.714,71.63144140624999L91.594,67.03444140625C103.693,66.59844140625,114.775,64.26644140625001,122.824,60.49244140625C125.897,61.84244140625,128.425,62.94044140625,129.871,63.56644140625C120.264,68.28844140625,106.616,71.16844140625,91.714,71.63144140624999ZM61.451,43.65844140625L69.349,43.65844140625C69.647,44.726441406250004,70.417,45.85344140625,71.791,46.90744140625C69.089,48.13144140625,66.868,49.12644140625,65.653,49.67044140625C63.078,47.87744140625,61.652,45.80044140625,61.451,43.65844140625ZM109.235,49.66444140625C106.495,48.43944140625,104.292,47.44344140625,103.079,46.89344140625C104.442,45.84444140625,105.209,44.71944140625,105.505,43.65144140625L113.429,43.65144140625C113.23,45.79544140625,111.807,47.87244140625,109.235,49.66444140625ZM59.064,30.38944140625C61.093,31.42544140625,62.758,32.26744140625,63.619,32.70144140625C59.447,34.84244140625,56.461,37.495441406249995,55.118,40.35844140625L47.474,40.35844140625C49.31,36.56544140625,53.433,33.101441406250004,59.064,30.38944140625ZM58.247,57.76544140625C60.479,56.77244140625,62.688,55.78344140625,64.816,54.82244140625C69.846,56.91844140625,76.355,58.29244140625,83.52,58.66244140625L83.407,62.98844140625C73.704,62.58044140625,64.855,60.71144140625,58.247,57.76544140625ZM84.238,30.58144140625L84.151,33.90544140625C81.817,34.114441406249995,79.655,34.54644140625,77.801,35.11244140625C75.578,34.04444140625,73.787,33.17444140625,72.853,32.72044140625C76.103,31.62544140625,79.977,30.84444140625,84.238,30.58144140625ZM31.558,43.65844140625L39.373,43.65844140625C38.33,48.86244140625,41.152,53.77744140625,47.174,57.77844140625C44.109,59.09844140625,41.588,60.17244140625,40.146,60.78544140625C32.897,55.93044140625,29.796,49.95144140625,31.558,43.65844140625ZM70.583,52.20544140625C72.665,51.25444140625,74.739,50.30044140625,76.729,49.37844140625C78.688,50.02844140625,81.071,50.53644140625,83.725,50.78444140625L83.619,54.85644140625C78.663,54.53244140625,74.174,53.58444140625,70.583,52.20544140625ZM84.539,19.076441406249998L84.464,21.92444140625C75.134,22.22544140625,66.784,23.92644140625,59.979,26.35444140625C58.056,25.387441406249998,56.501,24.59844140625,55.746,24.21444140625C63.7,21.38544140625,73.509,19.37744140625,84.539,19.076441406249998ZM121.545,55.09944140625C118.651,53.83744140625,116.326,52.81244140625,114.992,52.22344140625C118.693,49.73144140625,120.632,46.75944140625,120.566,43.65144140625L128.4,43.65144140625C128.909,47.83544140625,126.487,51.81544140625,121.545,55.09944140625ZM84.394,24.60744140625L84.314,27.683441406249997C78.398,27.96644140625,73.014,29.04644140625,68.538,30.61044140625C66.487,29.60144140625,64.832,28.77944140625,63.971,28.35144140625C69.694,26.31644140625,76.664,24.90444140625,84.394,24.60744140625ZM91.489,62.98744140625L91.376,58.66144140625C98.542,58.29044140625,105.049,56.91444140625,110.075,54.81844140625C112.204,55.77844140625,114.412,56.76844140625,116.644,57.76044140625C110.041,60.70744140625,101.195,62.57744140625,91.489,62.98744140625ZM102.017,32.71644140625C99.808,33.79144140625,97.995,34.66344140625,97.058,35.113441406250004C95.2,34.54644140625,93.04,34.11544140625,90.716,33.90544140625L90.629,30.58044140625C94.902,30.84344140625,98.776,31.62544140625,102.017,32.71644140625ZM112.796,40.35244140625L105.059,40.35244140625C104.507,39.34744140625,103.512,38.28944140625,101.991,37.31244140625C104.219,36.21544140625,106.013,35.32244140625,106.948,34.85644140625C109.881,36.48444140625,111.857,38.394441406249996,112.796,40.35244140625ZM141.959,40.35244140625L134.336,40.35244140625C131.97,35.71144140625,126.737,31.53244140625,119.79,28.33844140625C121.708,27.34744140625,123.257,26.53944140625,124.009,26.14644140625C132.46,29.86844140625,138.945,34.82244140625,141.959,40.35244140625ZM119.124,24.21144140625C117.212,25.183441406249997,115.646,25.97144140625,114.891,26.35144140625C108.084,23.92244140625,99.735,22.22344140625,90.404,21.92344140625L90.33,19.076441406249998C101.382,19.37844140625,111.186,21.38844140625,119.124,24.21144140625ZM127.403,40.35244140625L119.759,40.35244140625C118.413,37.489441406249995,115.426,34.83644140625,111.253,32.69644140625C113.299,31.66444140625,114.948,30.82344140625,115.807,30.38444140625C121.44,33.09744140625,125.565,36.55944140625,127.403,40.35244140625ZM50.861,26.15044140625C52.766,27.14644140625,54.328,27.954441406249998,55.08,28.34244140625C48.135,31.53744140625,42.904,35.71744140625,40.541,40.35844140625L32.917,40.35844140625C35.931,34.82644140625,42.413,29.87244140625,50.861,26.15044140625ZM91.276,54.85544140625L91.17,50.78044140625C93.819,50.52944140625,96.196,50.01944140625,98.15,49.36944140625C100.144,50.29244140625,102.222,51.24844140625,104.308,52.20044140625C100.714,53.58144140625,96.224,54.53044140625,91.276,54.85544140625ZM67.924,34.860441406250004C70.124,35.95844140625,71.931,36.85044140625,72.865,37.31044140625C71.342,38.28744140625,70.343,39.348441406250004,69.79,40.35844140625L62.082,40.35844140625C63.021,38.397441406249996,64.995,36.48744140625,67.924,34.860441406250004ZM110.899,28.34744140625C108.863,29.36044140625,107.195,30.18244140625,106.332,30.60644140625C101.853,29.04344140625,96.468,27.96544140625,90.554,27.683441406249997L90.474,24.60744140625C98.207,24.90344140625,105.176,26.31344140625,110.899,28.34744140625ZM96.11,45.51044140625C96.023,45.55944140625,95.58,45.81044140625,94.974,46.06544140625L94.974,46.06544140625C93.239,46.79944140625,90.9,47.31444140625,88.262,47.40344140625L88.246,47.40444140625C88.18,47.40644140625,87.871,47.41844140625,87.426,47.41844140625C87.359,47.41844140625,87.029,47.41844140625,86.592,47.40344140625L86.589,47.40344140625C83.951,47.31444140625,81.61,46.79944140625,79.882,46.06744140625L79.88,46.06644140625C79.271,45.80944140625,78.829,45.55944140625,78.742,45.51044140625C77.127,44.58944140625,76.302,43.473441406250004,76.229,42.372441406250005L76.229,42.36544140625C76.226,42.33544140625,76.213,42.19444140625,76.23,41.992441406249995C76.232,41.96244140625,76.245,41.81244140625,76.292,41.614441406249995C76.542,40.54144140625,77.511,39.46344140625,79.179,38.59244140625C79.267,38.54644140625,79.716,38.31344140625,80.315,38.07644140625L80.317,38.07544140625C82.005,37.40444140625,84.205,36.93544140625,86.652,36.85544140625C87.061,36.84144140625,87.365,36.84144140625,87.427,36.84144140625C87.838,36.84144140625,88.112,36.851441406250004,88.172,36.854441406250004L88.186,36.854441406250004C90.655,36.93544140625,92.851,37.406441406249996,94.535,38.07544140625L94.537,38.07544140625C95.136,38.31244140625,95.587,38.54644140625,95.674,38.59244140625C97.342,39.46344140625,98.311,40.54144140625,98.56,41.613441406250004C98.607,41.81044140625,98.62,41.96244140625,98.622,41.992441406249995C98.639,42.19644140625,98.627,42.32944140625,98.624,42.35844140625L98.624,42.36544140625C98.551,43.47044140625,97.728,44.58744140625,96.11,45.51044140625ZM46.479,43.65844140625L54.314,43.65844140625C54.251,46.76644140625,56.193,49.73844140625,59.896,52.22944140625C57.037,53.49244140625,54.688,54.51844140625,53.343,55.10544140625C48.398,51.82044140625,45.974,47.84144140625,46.479,43.65844140625Z" fill-rule="evenodd" fill="#FFFFFF" fill-opacity="1"/></g><g transform="matrix(1.7380900382995605,0,0,1.7380900382995605,-112.88844769800198,-125.14351737932884)"><path d="M152.94671630859375,194.04147607421874L152.94671630859375,169.55047607421875L177.43771630859374,169.55047607421875L177.43771630859374,194.04147607421874L152.94671630859375,194.04147607421874ZM189.68271630859374,194.04147607421874L189.68271630859374,169.55047607421875L214.17371630859375,169.55047607421875L214.17371630859375,194.04147607421874L189.68271630859374,194.04147607421874Z" fill-rule="evenodd" fill="#FFFFFF" fill-opacity="1"/></g></g><g><g><g transform="matrix(0,1,-1,0,1754.785873413086,-1720.780502319336)"><path d="M1967.783187866211,214.303685546875C1967.783187866211,215.362685546875,1966.933187866211,216.221685546875,1965.8731878662109,216.221685546875C1949.071187866211,216.221685546875,1827.0452878662109,216.221685546875,1805.717687866211,216.221685546875C1803.685287866211,216.221685546875,1801.734987866211,215.413685546875,1800.296587866211,213.974685546875C1790.313887866211,203.992685546875,1750.011587866211,163.690685546875,1740.028927866211,153.706685546875C1738.590479866211,152.269685546875,1737.783187866211,150.318685546875,1737.783187866211,148.286685546875L1737.783187866211,17.960523546875C1737.783187866211,17.573512546875,1738.0159768662108,17.223402546875,1738.374084866211,17.075969346875C1738.732283866211,16.927108846875,1739.144127866211,17.009347716875,1739.418627866211,17.282929546875C1747.5540278662108,25.418345546875003,1783.637887866211,61.502585546875,1793.038587866211,70.902485546875C1794.477087866211,72.341385546875,1795.2843878662109,74.290485546875,1795.2843878662109,76.324785546875C1795.2843878662109,86.575185546875,1795.2843878662109,118.551685546875,1795.2843878662109,126.055685546875C1795.2843878662109,127.072685546875,1795.688687866211,128.04768554687502,1796.406487866211,128.766685546875C1801.257487866211,133.617685546875,1820.387287866211,152.745685546875,1825.236887866211,157.596685546875C1825.956087866211,158.315685546875,1826.9319878662109,158.719685546875,1827.948187866211,158.719685546875C1842.3431878662109,158.719685546875,1950.131187866211,158.719685546875,1965.8731878662109,158.719685546875C1966.380187866211,158.719685546875,1966.8731878662109,158.922685546875,1967.231187866211,159.280685546875C1967.589187866211,159.640685546875,1967.783187866211,160.128685546875,1967.783187866211,160.636685546875C1967.783187866211,169.393685546875,1967.783187866211,205.547685546875,1967.783187866211,214.303685546875Z" fill-rule="evenodd" fill="#FFFFFF" fill-opacity="1"/></g><g transform="matrix(0,1,-1,0,2282.946731567383,-2078.378402709961)"><path d="M2266.7681671386717,244.83516442871093C2267.484367138672,244.11616442871093,2267.887267138672,243.14116442871094,2267.887267138672,242.12516442871095C2267.887267138672,227.72816442871095,2267.887267138672,119.94426442871094,2267.887267138672,104.20070442871094C2267.887267138672,103.69178442871093,2268.081267138672,103.20414942871093,2268.439367138672,102.84551642871094C2268.812367138672,102.48545742871094,2269.2899671386717,102.28416442871094,2269.797267138672,102.28416442871094C2278.5563671386717,102.28416442871094,2314.711567138672,102.28416442871094,2323.470567138672,102.28416442871094C2324.530567138672,102.28416442871094,2325.3805671386717,103.14176742871093,2325.3805671386717,104.20070442871094C2325.3805671386717,120.99746442871094,2325.3805671386717,243.02716442871093,2325.3805671386717,264.3531644287109C2325.3805671386717,266.388164428711,2324.575567138672,268.33716442871093,2323.142567138672,269.7761644287109C2313.160567138672,279.7581644287109,2272.856367138672,320.0611644287109,2262.8735671386717,330.0441644287109C2261.426167138672,331.48116442871094,2259.486267138672,332.28916442871093,2257.4569671386716,332.28916442871093C2244.1615671386717,332.28916442871093,2193.126167138672,332.28916442871093,2181.6215001386718,332.28916442871093C2181.233519138672,332.28916442871093,2180.884336138672,332.0551644287109,2180.735154238672,331.6981644287109C2180.587429938672,331.33916442871094,2180.669488868672,330.92716442871097,2180.942533138672,330.65316442871097C2192.147267138672,319.4491644287109,2257.382467138672,254.21216442871093,2266.7681671386717,244.83516442871093Z" fill-rule="evenodd" fill="#FFFFFF" fill-opacity="1"/></g><g transform="matrix(0,1,1,0,1769.7677612304688,-1769.7677612304688)"><path d="M2014.8604467773437,104.224785546875C2015.3674467773437,104.224785546875,2015.8604467773437,104.427485546875,2016.2184467773438,104.786085546875C2016.5764467773438,105.146085546875,2016.7704467773438,105.633785546875,2016.7704467773438,106.141285546875C2016.7704467773438,114.898985546875,2016.7704467773438,151.052685546875,2016.7704467773438,159.808685546875C2016.7704467773438,160.867685546875,2015.9204467773438,161.726685546875,2014.8604467773437,161.726685546875C1998.0584467773438,161.726685546875,1876.0325467773437,161.726685546875,1854.7049467773438,161.726685546875C1852.6725467773438,161.726685546875,1850.7222467773438,160.918685546875,1849.2838467773438,159.480685546875C1839.3011467773438,149.497685546875,1798.9988467773437,109.196085546875,1789.0161867773438,99.212185546875C1787.5777387773437,97.774685546875,1786.7704467773438,95.824185546875,1786.7704467773438,93.791385546875C1786.7704467773438,80.495985546875,1786.7704467773438,29.466285546875,1786.7704467773438,17.961259546875C1786.7704467773438,17.572863546875,1787.0032357773437,17.224094546875,1787.3613437773438,17.075277246875C1787.7195427773438,16.927844346875,1788.1313867773438,17.008655536875,1788.4058867773438,17.283707546875C1799.6107467773438,28.486685546875,1864.8472467773438,93.724685546875,1874.2241467773438,103.101985546875C1874.9433467773438,103.820685546875,1875.9192467773437,104.224785546875,1876.9354467773437,104.224785546875C1891.3304467773437,104.224785546875,1999.1184467773437,104.224785546875,2014.8604467773437,104.224785546875Z" fill-rule="evenodd" fill="#FFFFFF" fill-opacity="1"/></g></g><g><g transform="matrix(0,1,-1,0,1599.8093566894531,-1565.8039855957031)"><path d="M1638.0620711425781,70.902885546875C1639.500571142578,72.34028554687501,1640.307871142578,74.291585546875,1640.307871142578,76.324085546875C1640.307871142578,88.968985546875,1640.307871142578,135.533685546875,1640.307871142578,145.575685546875C1640.307871142578,146.082685546875,1640.1063711425782,146.570685546875,1639.7466711425782,146.929685546875C1639.3871711425782,147.290685546875,1638.899171142578,147.491685546875,1638.390371142578,147.491685546875C1629.6342711425782,147.491685546875,1593.4802711425782,147.491685546875,1584.7226211425782,147.491685546875C1583.6646921425781,147.491685546875,1582.8066711425781,146.634685546875,1582.8066711425781,145.575685546875C1582.8066711425781,130.725685546875,1582.8066711425781,34.188985546875,1582.8066711425781,17.960737546875C1582.8066711425781,17.573510546875,1583.039460142578,17.223404546875,1583.3975681425782,17.074656246875C1583.7557671425782,16.928044346875,1584.1676111425782,17.009094816875,1584.4421111425781,17.282556546875C1592.577511142578,25.418585546875,1628.6613711425782,61.502385546875,1638.0620711425781,70.902885546875Z" fill-rule="evenodd" fill="#FFFFFF" fill-opacity="1"/></g><g transform="matrix(0,1,-1,0,2197.6651611328125,-2163.6597900390625)"><path d="M2246.7764755859375,245.652685546875C2246.0288755859374,246.400685546875,2244.8142755859376,246.400685546875,2244.0666755859374,245.652685546875C2235.8970755859373,237.482685546875,2193.2221755859373,194.807685546875,2182.9082155859373,184.494685546875C2181.4697675859375,183.055685546875,2180.6624755859375,181.106685546875,2180.6624755859375,179.071685546875C2180.6624755859375,157.745685546875,2180.6624755859375,35.715985546875004,2180.6624755859375,18.919225546875C2180.6624755859375,17.860288546875,2181.5204965859375,17.002685546875,2182.5784255859376,17.002685546875C2191.3360755859376,17.002685546875,2227.4900755859376,17.002685546875,2236.2461755859376,17.002685546875C2236.7549755859377,17.002685546875,2237.2429755859375,17.203978546875,2237.6024755859376,17.564037546875C2237.9621755859375,17.922670546875,2238.1636755859377,18.410305546875,2238.1636755859377,18.919225546875C2238.1636755859377,34.662785546875,2238.1636755859377,142.44668554687502,2238.1636755859377,156.843685546875C2238.1636755859377,157.859685546875,2238.5679755859373,158.834685546875,2239.2857755859377,159.553685546875C2244.1367755859374,164.402685546875,2263.2665755859375,183.533685546875,2268.1161755859375,188.384685546875C2268.8353755859375,189.102685546875,2269.8112755859374,189.506685546875,2270.8274755859375,189.506685546875C2276.2693755859373,189.506685546875,2294.1834755859377,189.506685546875,2300.6144755859377,189.506685546875C2301.0024755859376,189.506685546875,2301.3454755859375,189.739685546875,2301.4944755859374,190.097685546875C2301.6434755859373,190.456685546875,2301.5544755859373,190.867685546875,2301.2854755859375,191.142685546875C2292.8694755859374,199.564685546875,2254.4955755859373,237.933685546875,2246.7764755859375,245.652685546875Z" fill-rule="evenodd" fill="#FFFFFF" fill-opacity="1"/></g><g transform="matrix(0,1,-1,0,1878.2322673797607,-1842.6410236358643)"><path d="M2089.6436455078124,174.82962187194823C2089.6436455078124,175.88862187194823,2088.7926455078123,176.74762187194824,2087.7336455078125,176.74762187194824C2070.9316455078124,176.74762187194824,1948.9057455078125,176.74762187194824,1927.5780455078125,176.74762187194824C1925.5456455078124,176.74762187194824,1923.5954455078124,175.93962187194825,1922.1569455078125,174.50062187194825C1911.8429455078126,164.18862187194824,1869.1681355078124,121.51262187194824,1860.9984895078126,113.34282187194825C1860.2493945078124,112.59432187194824,1860.2493945078124,111.38082187194824,1860.9984895078126,110.63232187194824C1868.7174955078126,102.91222187194825,1907.0874455078124,64.54432187194824,1915.5078455078126,56.122521871948244C1915.7823455078126,55.847521871948246,1916.1941455078124,55.76672187194824,1916.5522455078126,55.91412187194824C1916.9104455078125,56.06292187194824,1917.1447455078126,56.411721871948245,1917.1447455078126,56.80012187194824C1917.1447455078126,63.21892187194824,1917.1447455078126,81.13842187194824,1917.1447455078126,86.58192187194824C1917.1447455078126,87.59822187194824,1917.5490455078125,88.57352187194824,1918.2668455078126,89.29232187194825C1923.0433455078125,94.06952187194824,1941.6656455078125,112.69072187194824,1946.8658455078125,117.89062187194824C1947.6135455078124,118.63862187194825,1948.8266455078126,118.63862187194825,1949.5757455078126,117.89062187194824C1954.7759455078126,112.69072187194824,1973.4026455078124,94.06952187194824,1978.1776455078125,89.29232187194825C1978.8936455078124,88.57352187194824,1979.2966455078124,87.59822187194824,1979.2966455078124,86.58192187194824C1979.2966455078124,77.27552187194824,1979.2966455078124,29.86762187194824,1979.2966455078124,19.712161871948243C1979.2966455078124,18.654695871948242,1980.1626455078126,17.795621871948242,1981.2066455078125,17.795621871948242C1989.9656455078125,17.795621871948242,2026.1216455078124,17.795621871948242,2034.8806455078125,17.795621871948242C2035.9396455078124,17.795621871948242,2036.8056455078124,18.654695871948242,2036.8056455078124,19.712161871948243C2036.8056455078124,31.482321871948244,2036.8056455078124,93.94892187194824,2036.8056455078124,108.81212187194824C2036.8056455078124,110.84502187194825,2035.9846455078125,112.79552187194824,2034.5526455078125,114.23302187194824C2033.4626455078126,115.32452187194824,2032.1796455078124,116.61312187194824,2031.1796455078124,117.60972187194824C2030.8966455078125,117.88362187194824,2030.8216455078125,118.29562187194824,2030.9716455078126,118.65462187194824C2031.1206455078125,119.01162187194824,2031.4636455078125,119.24562187194825,2031.8516455078125,119.24562187194825C2041.5506455078125,119.24562187194825,2078.8256455078126,119.24562187194825,2087.7336455078125,119.24562187194825C2088.7926455078123,119.24562187194825,2089.6436455078124,120.10462187194824,2089.6436455078124,121.16162187194824C2089.6436455078124,129.91962187194824,2089.6436455078124,166.07362187194823,2089.6436455078124,174.82962187194823Z" fill-rule="evenodd" fill="#FFFFFF" fill-opacity="1"/></g></g></g><g><g><path d="M1224.48942578125,97.366L1167.64342578125,97.366L1167.64342578125,67.1085L1251.48942578125,67.1085C1255.5424257812501,61.9755,1254.36342578125,56.8425,1257.60542578125,51.7096L1208.43742578125,51.7096L1208.43742578125,62.786L1172.23642578125,62.786L1172.23642578125,19.8311L1264.0894257812502,19.8311L1260.30742578125,11.1397L1294.61742578125,0L1304.6124257812498,19.8311L1407.00142578125,19.8311L1407.00142578125,62.786L1369.18142578125,62.786L1369.18142578125,51.7096L1283.54042578125,51.7096C1233.5334257812501,103.606,1247.63742578125,126.864,1297.58842578125,110.604C1303.80242578125,106.821,1309.4754257812501,102.229,1314.06842578125,97.366L1281.5054257812499,97.366C1291.26842578125,87.4503,1300.92442578125,77.4199,1310.27042578125,67.1085L1411.05142578125,67.1085L1411.05142578125,97.366L1358.1014257812499,97.366C1352.43142578125,106.011,1346.21642578125,113.305,1338.92242578125,119.789C1317.4674257812499,122.796,1314.06842578125,123.652,1302.72142578125,143.022C1293.2664257812498,147.075,1282.73042578125,150.317,1271.11342578125,153.288L1308.39542578125,153.288L1308.39542578125,169.768L1414.02142578125,169.768L1414.02142578125,201.646L1340.27342578125,201.646C1362.97142578125,211.938,1392.68142578125,219.785,1421.86142578125,223.575C1413.48142578125,231.697,1402.41142578125,246.859,1397.00142578125,256.876C1365.13142578125,249.565,1333.24942578125,235.758,1308.39542578125,217.619L1308.39542578125,259.312L1268.95242578125,259.312L1268.95242578125,219.244C1244.9084257812501,236.843,1213.84042578125,250.106,1182.23242578125,257.417C1177.09942578125,248.214,1166.2924257812501,233.322,1158.1884257812499,225.741C1187.90542578125,221.41,1217.89242578125,212.748,1239.7754257812499,201.646L1165.7524257812502,201.646L1165.7524257812502,169.768L1268.95242578125,169.768L1268.95242578125,153.829C1244.9084257812501,159.502,1216.5424257812501,163.014,1183.0424257812501,165.715C1180.34142578125,155.72,1174.93742578125,143.833,1169.80542578125,136.268C1197.63142578125,135.188,1221.67442578125,133.027,1242.20642578125,129.515C1245.1564257812502,106.562,1238.9754257812501,98.3009,1224.48942578125,97.366ZM1099.29042578125,246.762L1099.29442578125,246.762L1099.29442578125,255.196L1137.9264257812501,255.196L1137.9264257812501,103.039L1082.0044257812501,103.039L1082.0044257812501,3.77796L1044.45242578125,3.77796L1044.45242578125,103.039L989.88042578125,103.039L989.88042578125,137.619C981.50642578125,125.462,969.61942578125,108.713,964.21642578125,101.959L964.21642578125,93.5838L992.85242578125,93.5838L992.85242578125,57.3829L964.21642578125,57.3829L964.21642578125,2.69312L927.20442578125,2.69312L927.20442578125,57.3829L895.32642578125,57.3829L895.32642578125,93.5838L921.53142578125,93.5838C915.04742578125,123.301,902.35042578125,157.07,887.76142578125,177.873C893.43542578125,187.598,901.81042578125,203.537,905.32242578125,214.614C913.69642578125,202.457,920.99142578125,185.437,927.20442578125,166.796L927.20442578125,259.548L964.21642578125,259.548L964.21642578125,151.938C969.34942578125,162.203,973.94142578125,172.199,976.91342578125,180.034L998.25542578125,150.046L991.77242578125,140.321L1099.29442578125,140.321L1099.29442578125,156.8L994.20342578125,156.8L994.20342578125,191.65L1099.29442578125,191.65L1099.29442578125,209.211L1099.29042578125,209.211L1099.29042578125,246.762ZM659.75042578125,66.7649L659.75042578125,78.7252L621.3874257812499,78.7252L621.3874257812499,115.196L654.34642578125,115.196C645.16142578125,138.7,631.92342578125,164.365,617.87542578125,180.857C623.81942578125,190.87,632.19442578125,207.37,635.70642578125,218.734C644.35142578125,207.1,652.45542578125,191.95,659.75042578125,175.445L659.75042578125,259.586L697.84242578125,259.586L697.84242578125,161.393C702.43442578125,169.498,706.4874257812501,177.611,709.18842578125,183.563L728.9104257812501,156.26L728.9104257812501,190.055L765.92142578125,190.055L765.92142578125,173.28L780.50942578125,173.28L780.50942578125,258.236L819.95242578125,258.236L819.95242578125,93.0435L834.5414257812499,93.0435L834.5414257812499,187.623L873.17342578125,187.623L873.17342578125,55.2216L819.95242578125,55.2216L819.95242578125,3.77796L780.50942578125,3.77796L780.50942578125,55.2216L728.9104257812501,55.2216L728.9104257812501,150.046C721.61542578125,141.672,704.05542578125,123.571,697.84242578125,118.438L697.84242578125,115.196L722.04342578125,115.196L722.04342578125,78.7252L697.84242578125,78.7252L697.84242578125,60.1613C685.2084257812501,62.7123,672.5034257812499,64.9061,659.75042578125,66.7649ZM455.69342578124997,22.2557C455.71142578125,16.3612,455.73042578125,10.4175,455.78242578125,4.43224L500.35742578124996,4.43224C500.08742578125,39.8227,499.81742578125,74.943,494.68442578125,107.632C494.68542578125,107.635,494.68542578125,107.637,494.68642578125,107.64Q491.87542578125,126.435,487.61942578125,141.697Q483.36342578125,156.961,477.66042578125,168.692L477.66142578125,168.695C460.64042578125,205.973,431.19432578125,237.579,378.78752578125,260C373.65452578125,249.464,361.76762578125,234.605,350.96142578125,226.23C455.17942578125,184.998,455.41942578124997,108.949,455.69342578124997,22.2557ZM1007.44142578125,92.7733C1003.65842578125,76.0236,994.20342578125,49.5314,986.09842578125,29.7678L1017.70742578125,18.3959C1026.35242578125,37.8894,1035.80742578125,62.786,1040.6704257812498,79.5357L1007.44142578125,92.7733ZM1084.7054257812501,84.9388C1093.0804257812501,67.6488,1102.26542578125,40.8696,1106.85842578125,20.5614L1144.14042578125,29.7678C1134.68442578125,53.3221,1124.4184257812499,77.9147,1115.77342578125,93.854L1084.7054257812501,84.9388ZM360.68704578125,129.515C374.46502578125,110.604,385.27122578125,83.8582,390.67442578125,56.0321L430.11722578125,68.1891C423.63342578125,97.0958,414.44812578125,128.164,400.40002578125,147.615L360.68704578125,129.515ZM527.64342578125,133.027C537.63942578125,112.225,548.44542578125,80.8864,553.84842578125,56.0321L597.61442578125,71.9713C585.9974257812501,99.2571,573.02942578125,128.434,562.22342578125,147.345L527.64342578125,133.027ZM780.50942578125,135.458L780.50942578125,93.0435L765.92142578125,93.0435L765.92142578125,135.458L780.50942578125,135.458Z" fill-rule="evenodd" fill="#FFFFFF" fill-opacity="1"/></g><g><path d="M1257.6056822509765,51.70959261779785L1283.5406822509767,51.70959261779785L1298.1286822509765,56.03209261779785C1285.6036822509766,72.59739261779785,1271.8416822509766,88.43919261779786,1256.7946822509766,102.76909261779785C1313.3896822509764,112.75629261779785,1354.2576822509766,120.97429261779786,1407.5426822509767,139.78029261779784L1376.2036822509767,166.25629261779784C1318.6696822509766,144.51429261779785,1256.5796822509765,130.97229261779785,1197.6306822509764,121.68029261779785C1219.8706822509766,101.02919261779785,1241.3926822509766,77.37949261779785,1257.6056822509765,51.70959261779785ZM983.6676822509766,246.76229261779784L983.6676822509766,209.21029261779785L1084.7106822509766,209.21029261779785L1084.7106822509766,246.76229261779784L983.6676822509766,246.76229261779784ZM657.8686822509766,53.56269261779785L632.3366822509765,57.07899261779785C630.9856822509765,48.42129261779785,626.1226822509766,35.16249261779785,622.0706822509766,26.791892617797853C653.1386822509766,22.19079261779785,686.3676822509766,13.794862617797852,709.8716822509766,4.318292617797852L731.2136822509766,36.51329261779785C720.4076822509766,40.30389261779785,708.7906822509766,43.54999261779785,696.9036822509765,46.25579261779785L696.9036822509765,46.25789261779785C684.0666822509766,49.505892617797855,670.9796822509766,51.75529261779785,657.8686822509766,53.56269261779785ZM488.25868225097656,188.56229261779785C508.4333822509766,221.42929261779784,537.5460822509766,244.09129261779785,582.4851822509765,257.0282926177979C587.8883822509765,245.68129261779785,599.7756822509766,228.39129261779786,608.4206822509766,219.74629261779785C554.4587822509766,207.90129261779785,523.2950822509765,179.84829261779785,505.23988225097656,138.48029261779786C500.87058225097655,155.57429261779785,495.00009225097654,172.26729261779786,488.25868225097656,188.56229261779785Z" fill-rule="evenodd" fill="#FFFFFF" fill-opacity="1"/></g></g></g></svg>