<svg xmlns="http://www.w3.org/2000/svg" xmlns:xlink="http://www.w3.org/1999/xlink" fill="none" version="1.1" width="759.99462890625" height="239.994384765625" viewBox="0 0 759.99462890625 239.994384765625"><g><g><g transform="matrix(0,1.5570199489593506,-2.28275990486145,0,136.15957641601562,-212.00317672159144)"><path d="M173.18957641601563,24.6379C174.15357641601562,25.2949,174.69457641601562,26.1869,174.69457641601562,27.1159C174.69457641601562,32.8959,174.69457641601562,54.1809,174.69457641601562,58.7709C174.69457641601562,59.0029,174.55957641601563,59.2259,174.31857641601562,59.3899C174.07757641601563,59.5549,173.75057641601563,59.6469,173.40957641601562,59.6469C167.54157641601563,59.6469,143.31259641601562,59.6469,137.44357641601562,59.6469C136.7345884160156,59.6469,136.15957641601562,59.2549,136.15957641601562,58.7709C136.15957641601562,51.9829,136.15957641601562,7.8559,136.15957641601562,0.437927C136.15957641601562,0.260925,136.31558241601562,0.100891,136.55557241601562,0.0328979C136.79562341601562,-0.0341187,137.07162441601562,0.00292969,137.25558641601563,0.12793C142.70760641601564,3.84692,166.88957641601561,20.3409,173.18957641601563,24.6379Z" fill-rule="evenodd" fill="#FFFFFF" fill-opacity="1"/></g><g transform="matrix(0,1.5570199489593506,-1.4791699647903442,0,297.8703918457031,-463.79014230809844)"><path d="M452.0073918457031,139.183C452.0073918457031,139.93,451.43739184570313,140.536,450.7273918457031,140.536C439.4673918457031,140.536,357.6903918457031,140.536,343.3973918457031,140.536C342.03539184570315,140.536,340.72839184570313,139.966,339.76439184570313,138.951C333.07439184570313,131.909,306.06540184570315,103.479,299.3753918457031,96.4357C298.41140784570314,95.4217,297.8703918457031,94.0457,297.8703918457031,92.6117L297.8703918457031,0.67569C297.8703918457031,0.402679,298.0263978457031,0.155701,298.26638784570315,0.0516968C298.50643884570314,-0.0533142,298.78243984570315,0.00469971,298.9664018457031,0.197693C304.4184218457031,5.93668,328.60039184570314,31.3917,334.9003918457031,38.0227C335.86439184570315,39.0377,336.4053918457031,40.4127,336.4053918457031,41.8477C336.4053918457031,49.0787,336.4053918457031,71.6357,336.4053918457031,76.9297C336.4053918457031,77.6467,336.6763918457031,78.3347,337.1573918457031,78.8417C340.40839184570314,82.2637,353.22839184570313,95.7577,356.47839184570313,99.1797C356.96039184570316,99.6867,357.61439184570315,99.9717,358.29539184570314,99.9717C367.9423918457031,99.9717,440.17739184570314,99.9717,450.7273918457031,99.9717C451.0673918457031,99.9717,451.3973918457031,100.115,451.6373918457031,100.368C451.87739184570313,100.622,452.0073918457031,100.966,452.0073918457031,101.324C452.0073918457031,107.502,452.0073918457031,133.006,452.0073918457031,139.183Z" fill-rule="evenodd" fill="#FFFFFF" fill-opacity="1"/></g><g transform="matrix(0,1.5570199489593506,-1.4791699647903442,0,759.99462890625,-1183.32679830899)"><path d="M804.30162890625,161.297C803.80062890625,161.825,802.98662890625,161.825,802.48562890625,161.297C797.01072890625,155.534,768.41167890625,125.429,761.49962890625,118.154C760.53564490625,117.139,759.99462890625,115.764,759.99462890625,114.329C759.99462890625,99.285,759.99462890625,13.201,759.99462890625,1.35199C759.99462890625,0.60498,760.56964090625,0,761.27862890625,0C767.14764890625,0,791.37662890625,0,797.24462890625,0C797.58562890625,0,797.91262890625,0.141998,798.15362890625,0.395996C798.39462890625,0.648987,798.52962890625,0.992981,798.52962890625,1.35199C798.52962890625,12.458,798.52962890625,88.492,798.52962890625,98.648C798.52962890625,99.365,798.80062890625,100.053,799.28162890625,100.56C802.53262890625,103.981,815.35262890625,117.476,818.60262890625,120.898C819.08462890625,121.405,819.73862890625,121.69,820.41962890625,121.69C824.06662890625,121.69,836.07162890625,121.69,840.38162890625,121.69C840.64162890625,121.69,840.87162890625,121.854,840.97172890625,122.107C841.07162890625,122.36,841.01162890625,122.65,840.83162890625,122.844C835.19162890625,128.785,809.47462890625,155.852,804.30162890625,161.297Z" fill-rule="evenodd" fill="#FFFFFF" fill-opacity="1"/></g><g transform="matrix(0,1.5570199489593506,-1.4791699647903442,0,891.621977247647,-1094.33949362149)"><path d="M817.69922890625,189.5473046875C818.17922890625,189.0403046875,818.44922890625,188.3523046875,818.44922890625,187.6353046875C818.44922890625,177.47930468750002,818.44922890625,101.4453046875,818.44922890625,90.3392946875C818.44922890625,89.9802856875,818.57922890625,89.6362916875,818.81922890625,89.3833006875C819.06922890625,89.1293026875,819.3893289062501,88.9873046875,819.72922890625,88.9873046875C825.59922890625,88.9873046875,849.82922890625,88.9873046875,855.69922890625,88.9873046875C856.40932890625,88.9873046875,856.97922890625,89.5922846875,856.97922890625,90.3392946875C856.97922890625,102.1883046875,856.97922890625,188.2723046875,856.97922890625,203.3163046875C856.97922890625,204.7513046875,856.43922890625,206.1263046875,855.47922890625,207.1413046875C848.78932890625,214.1833046875,821.77932890625,242.6143046875,815.08922890625,249.6563046875C814.11922890625,250.6703046875,812.81922890625,251.2403046875,811.45922890625,251.2403046875C802.54922890625,251.2403046875,768.34722890625,251.2403046875,760.63726790625,251.2403046875C760.37725790625,251.2403046875,760.14324990625,251.0753046875,760.04327390625,250.8233046875C759.94427490625,250.5703046875,759.99926757625,250.2793046875,760.18225090625,250.0863046875C767.69121890625,242.1823046875,811.40932890625,196.1623046875,817.69922890625,189.5473046875Z" fill-rule="evenodd" fill="#FFFFFF" fill-opacity="1"/></g><g transform="matrix(0,1.5570199489593506,-1.4791699647903442,0,427.0775224635436,-662.2352641668622)"><path d="M579.4596682128906,111.604392578125C579.4596682128906,112.351392578125,578.8896682128907,112.957392578125,578.1796682128906,112.957392578125C566.9186682128907,112.957392578125,485.1421682128906,112.957392578125,470.8491682128906,112.957392578125C469.48716821289065,112.957392578125,468.18016821289064,112.387392578125,467.21616821289064,111.372392578125C460.3041682128906,104.097392578125,431.7051682128906,73.992392578125,426.23019421289064,68.229392578125C425.7281802128906,67.701392578125,425.7281802128906,66.845392578125,426.23019421289064,66.317392578125C431.40316821289065,60.871392578125,457.11716821289065,33.805392578125,462.76026821289065,27.864392578125C462.94416821289065,27.670392578125,463.2201682128906,27.613392578125,463.4601682128906,27.717392578125C463.70026821289065,27.822392578125,463.85716821289066,28.068392578125,463.85716821289066,28.342392578125C463.85716821289066,32.870392578125,463.85716821289066,45.511392578125,463.85716821289066,49.351392578125C463.85716821289066,50.068392578125,464.1281682128906,50.756392578125,464.60926821289064,51.263392578125C467.81016821289063,54.633392578125,480.29016821289065,67.769392578125,483.7751682128906,71.437392578125C484.27616821289064,71.965392578125,485.0891682128906,71.965392578125,485.59116821289064,71.437392578125C489.0761682128906,67.769392578125,501.55916821289065,54.633392578125,504.75916821289064,51.263392578125C505.23926821289064,50.756392578125,505.50916821289064,50.068392578125,505.50916821289064,49.351392578125C505.50916821289064,42.786392578125,505.50916821289064,9.343382578125,505.50916821289064,2.179382578125C505.50916821289064,1.433410578125,506.0891682128906,0.827392578125,506.7891682128906,0.827392578125C512.6591682128906,0.827392578125,536.8896682128907,0.827392578125,542.7596682128906,0.827392578125C543.4696682128906,0.827392578125,544.0486682128906,1.433410578125,544.0486682128906,2.179382578125C544.0486682128906,10.482422578125,544.0486682128906,54.548392578125,544.0486682128906,65.033392578125C544.0486682128906,66.467392578125,543.4996682128906,67.843392578125,542.5386682128906,68.857392578125C541.8096682128906,69.627392578125,540.9496682128906,70.536392578125,540.2786682128906,71.239392578125C540.0896682128906,71.432392578125,540.0386682128906,71.723392578125,540.1396682128907,71.976392578125C540.2396682128906,72.228392578125,540.4696682128906,72.393392578125,540.7296682128906,72.393392578125C547.2296682128906,72.393392578125,572.2096682128906,72.393392578125,578.1796682128906,72.393392578125C578.8896682128907,72.393392578125,579.4596682128906,72.999392578125,579.4596682128906,73.745392578125C579.4596682128906,79.923392578125,579.4596682128906,105.427392578125,579.4596682128906,111.604392578125Z" fill-rule="evenodd" fill="#FFFFFF" fill-opacity="1"/></g><g transform="matrix(0,1.5570199489593506,1.4791699647903442,0,348.9863586425781,-543.3787223211766)"><path d="M501.8433586425781,61.5292C502.1833586425781,61.5292,502.5133586425781,61.6722,502.7533586425781,61.9252C502.99335864257813,62.1792,503.1233586425781,62.5232,503.1233586425781,62.8812C503.1233586425781,69.0592,503.1233586425781,94.5632,503.1233586425781,100.74C503.1233586425781,101.487,502.55335864257813,102.093,501.8433586425781,102.093C490.5833586425781,102.093,408.8063586425781,102.093,394.5133586425781,102.093C393.15135864257815,102.093,391.84435864257813,101.523,390.88035864257813,100.508C384.19035864257813,93.4662,357.18136864257815,65.0362,350.4913586425781,57.9932C349.52737464257814,56.9792,348.9863586425781,55.6032,348.9863586425781,54.1692C348.9863586425781,44.7902,348.9863586425781,8.79224,348.9863586425781,0.676208C348.9863586425781,0.402222,349.1423646425781,0.156189,349.38235464257815,0.0512085C349.62240564257814,-0.0527954,349.89840664257815,0.00421143,350.0823686425781,0.198242C357.5913986425781,8.1012,401.31035864257814,54.1222,407.59435864257813,60.7372C408.07635864257816,61.2442,408.73035864257815,61.5292,409.41135864257814,61.5292C419.0583586425781,61.5292,491.29335864257814,61.5292,501.8433586425781,61.5292Z" fill-rule="evenodd" fill="#FFFFFF" fill-opacity="1"/></g></g></g></svg>